<?xml version="1.0" encoding="UTF-8" standalone="no"?>
<!-- Created with Inkscape (http://www.inkscape.org/) -->

<svg
   xmlns:dc="http://purl.org/dc/elements/1.1/"
   xmlns:cc="http://creativecommons.org/ns#"
   xmlns:rdf="http://www.w3.org/1999/02/22-rdf-syntax-ns#"
   xmlns:svg="http://www.w3.org/2000/svg"
   xmlns="http://www.w3.org/2000/svg"
   xmlns:sodipodi="http://sodipodi.sourceforge.net/DTD/sodipodi-0.dtd"
   xmlns:inkscape="http://www.inkscape.org/namespaces/inkscape"
   width="88mm"
   height="55mm"
   viewBox="0 0 88 55"
   version="1.1"
   id="svg8"
   inkscape:version="0.92.1 r15371"
   sodipodi:docname="4_port_fuse_holder.svg">
  <defs
     id="defs2">
    <marker
       style="overflow:visible"
       refY="0"
       refX="0"
       orient="auto"
       id="DistanceX">
      <path
         id="path4487"
         style="stroke:#000000;stroke-width:0.5"
         d="M 3,-3 -3,3 M 0,-5 V 5"
         inkscape:connector-curvature="0" />
    </marker>
    <pattern
       y="0"
       x="0"
       width="8"
       patternUnits="userSpaceOnUse"
       id="Hatch"
       height="8">
      <path
         id="path4490"
         stroke-width="0.25"
         stroke="#000000"
         linecap="square"
         d="M8 4 l-4,4" />
      <path
         id="path4492"
         stroke-width="0.25"
         stroke="#000000"
         linecap="square"
         d="M6 2 l-4,4" />
      <path
         id="path4494"
         stroke-width="0.25"
         stroke="#000000"
         linecap="square"
         d="M4 0 l-4,4" />
    </pattern>
    <symbol
       id="*MODEL_SPACE" />
    <symbol
       id="*PAPER_SPACE" />
  </defs>
  <sodipodi:namedview
     id="base"
     pagecolor="#ffffff"
     bordercolor="#666666"
     borderopacity="1.0"
     inkscape:pageopacity="0.0"
     inkscape:pageshadow="2"
     inkscape:zoom="1.6782738"
     inkscape:cx="74.215163"
     inkscape:cy="66.660143"
     inkscape:document-units="mm"
     inkscape:current-layer="layer1"
     showgrid="false"
     inkscape:window-width="1920"
     inkscape:window-height="1017"
     inkscape:window-x="-8"
     inkscape:window-y="-8"
     inkscape:window-maximized="1" />
  <metadata
     id="metadata5">
    <rdf:RDF>
      <cc:Work
         rdf:about="">
        <dc:format>image/svg+xml</dc:format>
        <dc:type
           rdf:resource="http://purl.org/dc/dcmitype/StillImage" />
        <dc:title></dc:title>
      </cc:Work>
    </rdf:RDF>
  </metadata>
  <g
     inkscape:label="Layer 1"
     inkscape:groupmode="layer"
     id="layer1"
     transform="translate(0,-242)">
    <g
       id="g4507"
       inkscape:label="0"
       transform="matrix(0.26458333,0,0,0.26458333,-8.3098952,-71.69072)">
      <path
         id="path4501"
         style="fill:none;stroke:#f70000;stroke-opacity:1"
         d="M 360.50904,1190.7678 H 35.46967 v 200.315 h 325.03937 z"
         inkscape:connector-curvature="0" />
      <path
         id="path4503"
         style="fill:none;stroke:#000000"
         d="m 60.131088,1290.9253 a 6.7086615,6.7086615 0 1 0 -13.417323,0 6.7086615,6.7086615 0 1 0 13.417323,0 z"
         inkscape:connector-curvature="0" />
      <path
         id="path4505"
         style="fill:none;stroke:#000000"
         d="m 347.37518,1290.9253 a 6.7086615,6.7086615 0 1 0 -13.41732,0 6.7086615,6.7086615 0 1 0 13.41732,0 z"
         inkscape:connector-curvature="0" />
    </g>
    <path
       style="fill:none;stroke:#ff0000;stroke-width:0.27035996px;stroke-linecap:butt;stroke-linejoin:miter;stroke-opacity:1"
       d="m 16.564448,245.81929 c 0,48.478 0,48.478 0,48.478 v 0"
       id="path4533"
       inkscape:connector-curvature="0" />
    <path
       style="fill:none;stroke:#ff0000;stroke-width:0.27035996px;stroke-linecap:butt;stroke-linejoin:miter;stroke-opacity:1"
       d="m 34.811166,245.81929 c 0,48.478 0,48.478 0,48.478 v 0"
       id="path4533-4"
       inkscape:connector-curvature="0" />
    <path
       style="fill:none;stroke:#ff0000;stroke-width:0.27035996px;stroke-linecap:butt;stroke-linejoin:miter;stroke-opacity:1"
       d="m 53.05789,245.81929 c 0,48.478 0,48.478 0,48.478 v 0"
       id="path4533-3"
       inkscape:connector-curvature="0" />
    <path
       style="fill:none;stroke:#ff0000;stroke-width:0.27035996px;stroke-linecap:butt;stroke-linejoin:miter;stroke-opacity:1"
       d="m 71.304613,245.81929 c 0,48.478 0,48.478 0,48.478 v 0"
       id="path4533-7"
       inkscape:connector-curvature="0" />
    <rect
       style="fill:#ff0000;fill-opacity:1;stroke:#ff0000;stroke-width:0.15885183;stroke-miterlimit:4;stroke-dasharray:none;stroke-dashoffset:0;stroke-opacity:1"
       id="rect4562"
       width="4.8411484"
       height="18.841146"
       x="14.16573"
       y="260.76697" />
    <rect
       style="fill:#ff0000;fill-opacity:1;stroke:#ff0000;stroke-width:0.15885183;stroke-miterlimit:4;stroke-dasharray:none;stroke-dashoffset:0;stroke-opacity:1"
       id="rect4562-9"
       width="4.8411484"
       height="18.841146"
       x="32.476238"
       y="260.76697" />
    <rect
       style="fill:#ff0000;fill-opacity:1;stroke:#ff0000;stroke-width:0.15885183;stroke-miterlimit:4;stroke-dasharray:none;stroke-dashoffset:0;stroke-opacity:1"
       id="rect4562-9-6"
       width="4.8411484"
       height="18.841146"
       x="69.097252"
       y="260.76697" />
    <rect
       style="fill:#ff0000;fill-opacity:1;stroke:#ff0000;stroke-width:0.15885183;stroke-miterlimit:4;stroke-dasharray:none;stroke-dashoffset:0;stroke-opacity:1"
       id="rect4562-9-6-7"
       width="4.8411484"
       height="18.841146"
       x="50.786751"
       y="260.76697" />
    <g
       aria-label="4 Port Fuse Holder - 4mm Screws"
       transform="matrix(0,-0.26458333,0.26458333,0,-55.508724,299.5877)"
       style="font-style:normal;font-weight:normal;font-size:16px;line-height:1.25;font-family:sans-serif;letter-spacing:0px;word-spacing:0px;fill:#000000;fill-opacity:1;stroke:none"
       id="flowRoot4609">
      <path
         d="m 27.716797,251.27242 h -1.151042 v 2.18229 h -1 v -2.18229 h -3.713541 v -1.19792 l 3.755208,-4.375 h 0.958333 v 4.73958 h 1.151042 z m -2.151042,-0.83334 v -3.5 l -3.005208,3.5 z"
         style="font-size:10.66666698px;fill:#ff0000;fill-opacity:1;stroke:#ff0000;stroke-opacity:1"
         id="path4617" />
      <path
         d="m 38.107422,248.04325 q 0,0.51562 -0.182291,0.95833 -0.177084,0.4375 -0.5,0.76042 -0.401042,0.40104 -0.947917,0.60417 -0.546875,0.19791 -1.380208,0.19791 h -1.03125 v 2.89063 h -1.03125 v -7.75521 h 2.104166 q 0.697917,0 1.182292,0.11979 0.484375,0.11458 0.859375,0.36458 0.442708,0.29688 0.682292,0.73959 0.244791,0.44271 0.244791,1.11979 z m -1.072916,0.026 q 0,-0.40104 -0.140625,-0.69792 -0.140625,-0.29687 -0.427084,-0.48437 -0.25,-0.16146 -0.572916,-0.22917 -0.317709,-0.0729 -0.807292,-0.0729 h -1.020833 v 3.09895 h 0.869791 q 0.625,0 1.015625,-0.10937 0.390625,-0.11458 0.635417,-0.35938 0.244792,-0.25 0.34375,-0.52604 0.104167,-0.27604 0.104167,-0.61979 z"
         style="font-size:10.66666698px;fill:#ff0000;fill-opacity:1;stroke:#ff0000;stroke-opacity:1"
         id="path4619" />
      <path
         d="m 44.102215,250.54846 q 0,1.42187 -0.729167,2.24479 -0.729166,0.82292 -1.953125,0.82292 -1.234375,0 -1.963541,-0.82292 -0.723959,-0.82292 -0.723959,-2.24479 0,-1.42188 0.723959,-2.24479 0.729166,-0.82813 1.963541,-0.82813 1.223959,0 1.953125,0.82813 0.729167,0.82291 0.729167,2.24479 z m -1.010417,0 q 0,-1.13021 -0.442708,-1.67709 -0.442708,-0.55208 -1.229167,-0.55208 -0.796875,0 -1.239583,0.55208 -0.4375,0.54688 -0.4375,1.67709 0,1.09375 0.442708,1.66146 0.442709,0.5625 1.234375,0.5625 0.78125,0 1.223959,-0.5573 0.447916,-0.5625 0.447916,-1.66666 z"
         style="font-size:10.66666698px;fill:#ff0000;fill-opacity:1;stroke:#ff0000;stroke-opacity:1"
         id="path4621" />
      <path
         d="m 49.253256,248.70471 h -0.05208 q -0.21875,-0.0521 -0.427084,-0.0729 -0.203125,-0.026 -0.484375,-0.026 -0.453125,0 -0.875,0.20312 -0.421875,0.19792 -0.8125,0.51563 v 4.13021 H 45.623048 V 247.637 h 0.979166 v 0.85937 q 0.583334,-0.46875 1.026042,-0.66145 0.447917,-0.19792 0.911458,-0.19792 0.255209,0 0.369792,0.0156 0.114583,0.0104 0.34375,0.0469 z"
         style="font-size:10.66666698px;fill:#ff0000;fill-opacity:1;stroke:#ff0000;stroke-opacity:1"
         id="path4623" />
      <path
         d="m 53.206381,253.40262 q -0.276042,0.0729 -0.604167,0.1198 -0.322916,0.0469 -0.578125,0.0469 -0.890625,0 -1.354166,-0.47917 -0.463542,-0.47916 -0.463542,-1.53645 v -3.09375 H 49.544923 V 247.637 h 0.661458 v -1.67188 h 0.979167 v 1.67188 h 2.020833 v 0.82292 h -2.020833 v 2.65104 q 0,0.45833 0.02083,0.71875 0.02083,0.25521 0.145833,0.47916 0.114584,0.20834 0.3125,0.3073 0.203125,0.0937 0.614584,0.0937 0.239583,0 0.5,-0.0677 0.260416,-0.0729 0.375,-0.11979 h 0.05208 z"
         style="font-size:10.66666698px;fill:#ff0000;fill-opacity:1;stroke:#ff0000;stroke-opacity:1"
         id="path4625" />
      <path
         d="m 63.175132,246.61617 h -3.921875 v 2.1875 h 3.369791 v 0.91666 h -3.369791 v 3.73438 h -1.03125 v -7.75521 h 4.953125 z"
         style="font-size:10.66666698px;fill:#ff0000;fill-opacity:1;stroke:#ff0000;stroke-opacity:1"
         id="path4627" />
      <path
         d="m 69.091798,253.45471 h -0.979166 v -0.64584 q -0.494792,0.39063 -0.947917,0.59896 -0.453125,0.20834 -1,0.20834 -0.916667,0 -1.427083,-0.5573 -0.510417,-0.5625 -0.510417,-1.64583 V 247.637 h 0.979167 v 3.3125 q 0,0.44271 0.04167,0.76042 0.04167,0.3125 0.177084,0.53645 0.140625,0.22917 0.364583,0.33334 0.223958,0.10416 0.651042,0.10416 0.380208,0 0.828125,-0.19791 0.453125,-0.19792 0.84375,-0.50521 V 247.637 h 0.979166 z"
         style="font-size:10.66666698px;fill:#ff0000;fill-opacity:1;stroke:#ff0000;stroke-opacity:1"
         id="path4629" />
      <path
         d="m 75.175132,251.77762 q 0,0.79688 -0.661459,1.3073 -0.65625,0.51041 -1.796875,0.51041 -0.645833,0 -1.1875,-0.15104 -0.536458,-0.15625 -0.901042,-0.33854 v -1.09896 h 0.05208 q 0.463542,0.34896 1.03125,0.55729 0.567708,0.20313 1.088542,0.20313 0.645833,0 1.010416,-0.20834 0.364584,-0.20833 0.364584,-0.65625 0,-0.34375 -0.197917,-0.52083 -0.197917,-0.17708 -0.760417,-0.30208 -0.208333,-0.0469 -0.546875,-0.10938 -0.333333,-0.0625 -0.609375,-0.13541 -0.765625,-0.20313 -1.088541,-0.59375 -0.317709,-0.39584 -0.317709,-0.96875 0,-0.35938 0.145834,-0.67709 0.151041,-0.31771 0.453125,-0.56771 0.291666,-0.24479 0.739583,-0.38541 0.453125,-0.14584 1.010417,-0.14584 0.520833,0 1.052083,0.13021 0.536458,0.125 0.890625,0.30729 v 1.04688 h -0.05208 q -0.375,-0.27604 -0.911459,-0.46354 -0.536458,-0.19271 -1.052083,-0.19271 -0.536458,0 -0.90625,0.20833 -0.369792,0.20313 -0.369792,0.60938 0,0.35937 0.223959,0.54166 0.21875,0.1823 0.708333,0.29688 0.270833,0.0625 0.604167,0.125 0.338541,0.0625 0.5625,0.11458 0.682291,0.15625 1.052083,0.53646 0.369792,0.38542 0.369792,1.02083 z"
         style="font-size:10.66666698px;fill:#ff0000;fill-opacity:1;stroke:#ff0000;stroke-opacity:1"
         id="path4631" />
      <path
         d="m 81.451173,250.64742 h -4.286458 q 0,0.53645 0.161458,0.9375 0.161459,0.39583 0.442709,0.65104 0.270833,0.25 0.640625,0.375 0.375,0.125 0.822916,0.125 0.59375,0 1.192709,-0.23438 0.604166,-0.23958 0.859375,-0.46875 h 0.05208 v 1.06771 q -0.494792,0.20833 -1.010417,0.34896 -0.515625,0.14062 -1.083333,0.14062 -1.447917,0 -2.260417,-0.78125 -0.8125,-0.78645 -0.8125,-2.22916 0,-1.42709 0.776042,-2.26563 0.78125,-0.83854 2.052083,-0.83854 1.177084,0 1.8125,0.6875 0.640625,0.6875 0.640625,1.95313 z m -0.953125,-0.75 q -0.0052,-0.77084 -0.390625,-1.19271 -0.380208,-0.42188 -1.161458,-0.42188 -0.786458,0 -1.255208,0.46354 -0.463542,0.46355 -0.526042,1.15105 z"
         style="font-size:10.66666698px;fill:#ff0000;fill-opacity:1;stroke:#ff0000;stroke-opacity:1"
         id="path4633" />
      <path
         d="m 92.695966,253.45471 h -1.03125 v -3.79688 h -3.869792 v 3.79688 h -1.03125 v -7.75521 h 1.03125 v 3.04167 h 3.869792 v -3.04167 h 1.03125 z"
         style="font-size:10.66666698px;fill:#ff0000;fill-opacity:1;stroke:#ff0000;stroke-opacity:1"
         id="path4635" />
      <path
         d="m 99.664719,250.54846 q 0,1.42187 -0.729167,2.24479 -0.729167,0.82292 -1.953125,0.82292 -1.234375,0 -1.963542,-0.82292 -0.723958,-0.82292 -0.723958,-2.24479 0,-1.42188 0.723958,-2.24479 0.729167,-0.82813 1.963542,-0.82813 1.223958,0 1.953125,0.82813 0.729167,0.82291 0.729167,2.24479 z m -1.010417,0 q 0,-1.13021 -0.442708,-1.67709 -0.442709,-0.55208 -1.229167,-0.55208 -0.796875,0 -1.239583,0.55208 -0.4375,0.54688 -0.4375,1.67709 0,1.09375 0.442708,1.66146 0.442708,0.5625 1.234375,0.5625 0.78125,0 1.223958,-0.5573 0.447917,-0.5625 0.447917,-1.66666 z"
         style="font-size:10.66666698px;fill:#ff0000;fill-opacity:1;stroke:#ff0000;stroke-opacity:1"
         id="path4637" />
      <path
         d="m 102.17513,253.45471 h -0.97916 v -8.10417 h 0.97916 z"
         style="font-size:10.66666698px;fill:#ff0000;fill-opacity:1;stroke:#ff0000;stroke-opacity:1"
         id="path4639" />
      <path
         d="m 108.80014,253.45471 h -0.97917 v -0.60938 q -0.42188,0.36459 -0.88021,0.56771 -0.45833,0.20313 -0.99479,0.20313 -1.04167,0 -1.65625,-0.80209 -0.60938,-0.80208 -0.60938,-2.22396 0,-0.73958 0.20834,-1.3177 0.21354,-0.57813 0.57291,-0.98438 0.35417,-0.39583 0.82292,-0.60417 0.47396,-0.20833 0.97917,-0.20833 0.45833,0 0.8125,0.099 0.35416,0.0937 0.74479,0.29687 v -2.52083 h 0.97917 z m -0.97917,-1.43229 v -3.33855 q -0.39583,-0.17708 -0.70833,-0.24479 -0.3125,-0.0677 -0.6823,-0.0677 -0.82291,0 -1.28125,0.57292 -0.45833,0.57292 -0.45833,1.625 0,1.03646 0.35417,1.57813 0.35416,0.53645 1.13541,0.53645 0.41667,0 0.84375,-0.18229 0.42709,-0.1875 0.79688,-0.47916 z"
         style="font-size:10.66666698px;fill:#ff0000;fill-opacity:1;stroke:#ff0000;stroke-opacity:1"
         id="path4641" />
      <path
         d="m 115.59701,250.64742 h -4.28646 q 0,0.53645 0.16146,0.9375 0.16145,0.39583 0.4427,0.65104 0.27084,0.25 0.64063,0.375 0.375,0.125 0.82292,0.125 0.59375,0 1.1927,-0.23438 0.60417,-0.23958 0.85938,-0.46875 h 0.0521 v 1.06771 q -0.49479,0.20833 -1.01041,0.34896 -0.51563,0.14062 -1.08334,0.14062 -1.44791,0 -2.26041,-0.78125 -0.8125,-0.78645 -0.8125,-2.22916 0,-1.42709 0.77604,-2.26563 0.78125,-0.83854 2.05208,-0.83854 1.17708,0 1.8125,0.6875 0.64063,0.6875 0.64063,1.95313 z m -0.95313,-0.75 q -0.005,-0.77084 -0.39062,-1.19271 -0.38021,-0.42188 -1.16146,-0.42188 -0.78646,0 -1.25521,0.46354 -0.46354,0.46355 -0.52604,1.15105 z"
         style="font-size:10.66666698px;fill:#ff0000;fill-opacity:1;stroke:#ff0000;stroke-opacity:1"
         id="path4643" />
      <path
         d="m 120.71159,248.70471 h -0.0521 q -0.21875,-0.0521 -0.42708,-0.0729 -0.20313,-0.026 -0.48438,-0.026 -0.45312,0 -0.875,0.20312 -0.42187,0.19792 -0.8125,0.51563 v 4.13021 h -0.97916 V 247.637 h 0.97916 v 0.85937 q 0.58334,-0.46875 1.02604,-0.66145 0.44792,-0.19792 0.91146,-0.19792 0.25521,0 0.36979,0.0156 0.11459,0.0104 0.34375,0.0469 z"
         style="font-size:10.66666698px;fill:#ff0000;fill-opacity:1;stroke:#ff0000;stroke-opacity:1"
         id="path4645" />
      <path
         d="m 128.47722,250.53283 h -3.25 v -0.94271 h 3.25 z"
         style="font-size:10.66666698px;fill:#ff0000;fill-opacity:1;stroke:#ff0000;stroke-opacity:1"
         id="path4647" />
      <path
         d="m 139.30013,251.27242 h -1.15104 v 2.18229 h -1 v -2.18229 h -3.71354 v -1.19792 l 3.75521,-4.375 h 0.95833 v 4.73958 h 1.15104 z m -2.15104,-0.83334 v -3.5 l -3.00521,3.5 z"
         style="font-size:10.66666698px;fill:#ff0000;fill-opacity:1;stroke:#ff0000;stroke-opacity:1"
         id="path4649" />
      <path
         d="m 149.2793,253.45471 h -0.97917 v -3.3125 q 0,-0.375 -0.0365,-0.72396 -0.0312,-0.34896 -0.14062,-0.55729 -0.11979,-0.22396 -0.34375,-0.33854 -0.22396,-0.11459 -0.64584,-0.11459 -0.41145,0 -0.82291,0.20834 -0.41146,0.20312 -0.82292,0.52083 0.0156,0.11979 0.026,0.28125 0.0104,0.15625 0.0104,0.3125 v 3.72396 h -0.97917 v -3.3125 q 0,-0.38542 -0.0365,-0.72917 -0.0312,-0.34896 -0.14062,-0.55729 -0.11979,-0.22396 -0.34375,-0.33333 -0.22396,-0.11459 -0.64583,-0.11459 -0.40105,0 -0.8073,0.19792 -0.40104,0.19792 -0.80208,0.50521 v 4.34375 h -0.97917 V 247.637 h 0.97917 v 0.64583 q 0.45833,-0.38021 0.91146,-0.59375 0.45833,-0.21354 0.97396,-0.21354 0.59375,0 1.00521,0.25 0.41666,0.25 0.61979,0.69271 0.59375,-0.5 1.08333,-0.71875 0.48958,-0.22396 1.04688,-0.22396 0.95833,0 1.41145,0.58333 0.45834,0.57813 0.45834,1.6198 z"
         style="font-size:10.66666698px;fill:#ff0000;fill-opacity:1;stroke:#ff0000;stroke-opacity:1"
         id="path4651" />
      <path
         d="m 159.6543,253.45471 h -0.97917 v -3.3125 q 0,-0.375 -0.0365,-0.72396 -0.0312,-0.34896 -0.14062,-0.55729 -0.11979,-0.22396 -0.34375,-0.33854 -0.22396,-0.11459 -0.64584,-0.11459 -0.41145,0 -0.82291,0.20834 -0.41146,0.20312 -0.82292,0.52083 0.0156,0.11979 0.026,0.28125 0.0104,0.15625 0.0104,0.3125 v 3.72396 h -0.97917 v -3.3125 q 0,-0.38542 -0.0365,-0.72917 -0.0312,-0.34896 -0.14062,-0.55729 -0.11979,-0.22396 -0.34375,-0.33333 -0.22396,-0.11459 -0.64583,-0.11459 -0.40105,0 -0.8073,0.19792 -0.40104,0.19792 -0.80208,0.50521 v 4.34375 h -0.97917 V 247.637 h 0.97917 v 0.64583 q 0.45833,-0.38021 0.91146,-0.59375 0.45833,-0.21354 0.97396,-0.21354 0.59375,0 1.00521,0.25 0.41666,0.25 0.61979,0.69271 0.59375,-0.5 1.08333,-0.71875 0.48958,-0.22396 1.04688,-0.22396 0.95833,0 1.41145,0.58333 0.45834,0.57813 0.45834,1.6198 z"
         style="font-size:10.66666698px;fill:#ff0000;fill-opacity:1;stroke:#ff0000;stroke-opacity:1"
         id="path4653" />
      <path
         d="m 171.00326,251.24117 q 0,0.45312 -0.21355,0.89583 -0.20833,0.44271 -0.58854,0.75 -0.41666,0.33333 -0.97396,0.52083 -0.55208,0.1875 -1.33333,0.1875 -0.83854,0 -1.51042,-0.15625 -0.66666,-0.15625 -1.35937,-0.46354 v -1.29167 h 0.0729 q 0.58854,0.48959 1.35937,0.75521 0.77083,0.26563 1.44792,0.26563 0.95833,0 1.48958,-0.35938 0.53646,-0.35937 0.53646,-0.95833 0,-0.51563 -0.25521,-0.76042 -0.25,-0.24479 -0.76562,-0.38021 -0.39063,-0.10416 -0.84896,-0.17187 -0.45313,-0.0677 -0.96354,-0.17188 -1.03125,-0.21875 -1.53125,-0.74479 -0.4948,-0.53125 -0.4948,-1.38021 0,-0.97395 0.82292,-1.59375 0.82292,-0.625 2.08854,-0.625 0.81771,0 1.5,0.15625 0.68229,0.15625 1.20834,0.38542 v 1.21875 h -0.0729 q -0.44271,-0.375 -1.16667,-0.61979 -0.71875,-0.25 -1.47396,-0.25 -0.82812,0 -1.33333,0.34375 -0.5,0.34375 -0.5,0.88542 0,0.48437 0.25,0.76041 0.25,0.27604 0.88021,0.42188 0.33333,0.0729 0.94792,0.17708 0.61458,0.10417 1.04166,0.21354 0.86459,0.22917 1.30209,0.69271 0.4375,0.46354 0.4375,1.29688 z"
         style="font-size:10.66666698px;fill:#ff0000;fill-opacity:1;stroke:#ff0000;stroke-opacity:1"
         id="path4655" />
      <path
         d="m 176.88347,253.09012 q -0.48958,0.23438 -0.93229,0.36459 -0.4375,0.13021 -0.93229,0.13021 -0.63021,0 -1.15625,-0.1823 -0.52605,-0.1875 -0.90105,-0.5625 -0.3802,-0.375 -0.58854,-0.94791 -0.20833,-0.57292 -0.20833,-1.33854 0,-1.42709 0.78125,-2.23959 0.78646,-0.8125 2.07292,-0.8125 0.5,0 0.97916,0.14063 0.48438,0.14062 0.88542,0.34375 v 1.08854 h -0.0521 q -0.44792,-0.34896 -0.92709,-0.53646 -0.47396,-0.1875 -0.92708,-0.1875 -0.83333,0 -1.31771,0.5625 -0.47917,0.55729 -0.47917,1.64063 0,1.05208 0.46875,1.61979 0.47396,0.5625 1.32813,0.5625 0.29687,0 0.60417,-0.0781 0.30729,-0.0781 0.55208,-0.20312 0.21354,-0.10938 0.40104,-0.22917 0.1875,-0.125 0.29688,-0.21354 h 0.0521 z"
         style="font-size:10.66666698px;fill:#ff0000;fill-opacity:1;stroke:#ff0000;stroke-opacity:1"
         id="path4657" />
      <path
         d="m 181.77409,248.70471 h -0.0521 q -0.21875,-0.0521 -0.42708,-0.0729 -0.20313,-0.026 -0.48438,-0.026 -0.45312,0 -0.875,0.20312 -0.42187,0.19792 -0.8125,0.51563 v 4.13021 h -0.97916 V 247.637 h 0.97916 v 0.85937 q 0.58334,-0.46875 1.02604,-0.66145 0.44792,-0.19792 0.91146,-0.19792 0.25521,0 0.36979,0.0156 0.11459,0.0104 0.34375,0.0469 z"
         style="font-size:10.66666698px;fill:#ff0000;fill-opacity:1;stroke:#ff0000;stroke-opacity:1"
         id="path4659" />
      <path
         d="m 187.57618,250.64742 h -4.28646 q 0,0.53645 0.16146,0.9375 0.16146,0.39583 0.44271,0.65104 0.27083,0.25 0.64062,0.375 0.375,0.125 0.82292,0.125 0.59375,0 1.19271,-0.23438 0.60416,-0.23958 0.85937,-0.46875 h 0.0521 v 1.06771 q -0.49479,0.20833 -1.01041,0.34896 -0.51563,0.14062 -1.08334,0.14062 -1.44791,0 -2.26041,-0.78125 -0.8125,-0.78645 -0.8125,-2.22916 0,-1.42709 0.77604,-2.26563 0.78125,-0.83854 2.05208,-0.83854 1.17709,0 1.8125,0.6875 0.64063,0.6875 0.64063,1.95313 z m -0.95313,-0.75 q -0.005,-0.77084 -0.39062,-1.19271 -0.38021,-0.42188 -1.16146,-0.42188 -0.78646,0 -1.25521,0.46354 -0.46354,0.46355 -0.52604,1.15105 z"
         style="font-size:10.66666698px;fill:#ff0000;fill-opacity:1;stroke:#ff0000;stroke-opacity:1"
         id="path4661" />
      <path
         d="m 196.37827,247.637 -1.51563,5.81771 h -0.90625 l -1.49479,-4.48438 -1.48438,4.48438 h -0.90104 l -1.53125,-5.81771 h 1.02084 l 1.0677,4.50521 1.45313,-4.50521 h 0.80729 l 1.48958,4.50521 1.01042,-4.50521 z"
         style="font-size:10.66666698px;fill:#ff0000;fill-opacity:1;stroke:#ff0000;stroke-opacity:1"
         id="path4663" />
      <path
         d="m 201.94596,251.77762 q 0,0.79688 -0.66145,1.3073 -0.65625,0.51041 -1.79688,0.51041 -0.64583,0 -1.1875,-0.15104 -0.53646,-0.15625 -0.90104,-0.33854 v -1.09896 h 0.0521 q 0.46354,0.34896 1.03125,0.55729 0.56771,0.20313 1.08854,0.20313 0.64584,0 1.01042,-0.20834 0.36458,-0.20833 0.36458,-0.65625 0,-0.34375 -0.19791,-0.52083 -0.19792,-0.17708 -0.76042,-0.30208 -0.20833,-0.0469 -0.54687,-0.10938 -0.33334,-0.0625 -0.60938,-0.13541 -0.76562,-0.20313 -1.08854,-0.59375 -0.31771,-0.39584 -0.31771,-0.96875 0,-0.35938 0.14583,-0.67709 0.15105,-0.31771 0.45313,-0.56771 0.29167,-0.24479 0.73958,-0.38541 0.45313,-0.14584 1.01042,-0.14584 0.52083,0 1.05208,0.13021 0.53646,0.125 0.89063,0.30729 v 1.04688 h -0.0521 q -0.375,-0.27604 -0.91145,-0.46354 -0.53646,-0.19271 -1.05209,-0.19271 -0.53646,0 -0.90625,0.20833 -0.36979,0.20313 -0.36979,0.60938 0,0.35937 0.22396,0.54166 0.21875,0.1823 0.70833,0.29688 0.27084,0.0625 0.60417,0.125 0.33854,0.0625 0.5625,0.11458 0.68229,0.15625 1.05208,0.53646 0.36979,0.38542 0.36979,1.02083 z"
         style="font-size:10.66666698px;fill:#ff0000;fill-opacity:1;stroke:#ff0000;stroke-opacity:1"
         id="path4665" />
    </g>
  </g>
</svg>
