<?xml version="1.0" encoding="UTF-8" standalone="no"?>
<svg
   xmlns:dc="http://purl.org/dc/elements/1.1/"
   xmlns:cc="http://creativecommons.org/ns#"
   xmlns:rdf="http://www.w3.org/1999/02/22-rdf-syntax-ns#"
   xmlns:svg="http://www.w3.org/2000/svg"
   xmlns="http://www.w3.org/2000/svg"
   xmlns:sodipodi="http://sodipodi.sourceforge.net/DTD/sodipodi-0.dtd"
   xmlns:inkscape="http://www.inkscape.org/namespaces/inkscape"
   version="1.1"
   width="87mm"
   height="57mm"
   viewBox="0 0 300mm 200mm"
   xml:space="preserve"
   id="svg20"
   sodipodi:docname="cfol_power_distro_8_v1-1.svg"
   inkscape:version="0.92.1 r15371"><metadata
     id="metadata24"><rdf:RDF><cc:Work
         rdf:about=""><dc:format>image/svg+xml</dc:format><dc:type
           rdf:resource="http://purl.org/dc/dcmitype/StillImage" /><dc:title></dc:title></cc:Work></rdf:RDF></metadata><sodipodi:namedview
     pagecolor="#ffffff"
     bordercolor="#666666"
     borderopacity="1"
     objecttolerance="10"
     gridtolerance="10"
     guidetolerance="10"
     inkscape:pageopacity="0"
     inkscape:pageshadow="2"
     inkscape:window-width="1920"
     inkscape:window-height="1017"
     id="namedview22"
     showgrid="false"
     inkscape:zoom="1.6985148"
     inkscape:cx="174.36386"
     inkscape:cy="130.63003"
     inkscape:window-x="-8"
     inkscape:window-y="-8"
     inkscape:window-maximized="1"
     inkscape:current-layer="svg20" /><desc
     id="desc2">Created with Fabric.js 2.0.0-beta7</desc><defs
     id="defs4" /><g
     id="g6"
     transform="translate(0,-540.47273)" /><g
     transform="translate(165.33506,107.41946)"
     id="g18"><rect
       x="-162.51968"
       y="-105.82677"
       rx="0"
       ry="0"
       width="325.03937"
       height="211.65355"
       style="opacity:1;fill:#000000;fill-opacity:0;fill-rule:nonzero;stroke:#ff0000;stroke-width:1;stroke-linecap:butt;stroke-linejoin:miter;stroke-miterlimit:10;stroke-dasharray:none"
       id="rect8" /><circle
       cx="0"
       cy="0"
       r="5.1023622"
       style="opacity:1;fill:#000000;fill-opacity:0;fill-rule:nonzero;stroke:#000000;stroke-width:1;stroke-linecap:butt;stroke-linejoin:miter;stroke-miterlimit:10;stroke-dasharray:none"
       transform="translate(-145.51,-89.57)"
       id="circle10" /><circle
       cx="0"
       cy="0"
       r="5.1023622"
       style="opacity:1;fill:#000000;fill-opacity:0;fill-rule:nonzero;stroke:#000000;stroke-width:1;stroke-linecap:butt;stroke-linejoin:miter;stroke-miterlimit:10;stroke-dasharray:none"
       transform="translate(145.51,-89.57)"
       id="circle12" /><circle
       cx="0"
       cy="0"
       r="5.1023622"
       style="opacity:1;fill:#000000;fill-opacity:0;fill-rule:nonzero;stroke:#000000;stroke-width:1;stroke-linecap:butt;stroke-linejoin:miter;stroke-miterlimit:10;stroke-dasharray:none"
       transform="translate(-145.51,88.82)"
       id="circle14" /><circle
       cx="0"
       cy="0"
       r="5.1023622"
       style="opacity:1;fill:#000000;fill-opacity:0;fill-rule:nonzero;stroke:#000000;stroke-width:1;stroke-linecap:butt;stroke-linejoin:miter;stroke-miterlimit:10;stroke-dasharray:none"
       transform="translate(145.51,88.82)"
       id="circle16" /></g><rect
     style="fill:none;fill-opacity:1;stroke:#ff0000;stroke-width:0.94488192;stroke-miterlimit:4;stroke-dasharray:none;stroke-dashoffset:0;stroke-opacity:1"
     id="rect4539"
     width="47.244095"
     height="50.267719"
     x="290.77029"
     y="29.570555" /><path
     style="fill:none;stroke:#ff0000;stroke-width:0.99999994px;stroke-linecap:butt;stroke-linejoin:miter;stroke-opacity:1"
     d="m 297.72872,54.677212 40.07093,0.297826"
     id="path4541"
     inkscape:connector-curvature="0" /><path
     style="fill:none;stroke:#ff0000;stroke-width:0.99999994px;stroke-linecap:butt;stroke-linejoin:miter;stroke-opacity:1"
     d="m 314.77107,37.694849 0.0276,8.194205"
     id="path4543"
     inkscape:connector-curvature="0" /><path
     style="fill:none;stroke:#ff0000;stroke-width:0.89181215px;stroke-linecap:butt;stroke-linejoin:miter;stroke-opacity:1"
     d="m 310.07886,41.727756 8.94967,0.03402"
     id="path4545"
     inkscape:connector-curvature="0" /><path
     style="fill:none;stroke:#ff0000;stroke-width:0.89181221px;stroke-linecap:butt;stroke-linejoin:miter;stroke-opacity:1"
     d="m 310.52323,67.790624 8.94967,0.034"
     id="path4545-7"
     inkscape:connector-curvature="0" /><rect
     style="fill:none;fill-opacity:1;stroke:#ff0000;stroke-width:0.88009274;stroke-miterlimit:4;stroke-dasharray:none;stroke-dashoffset:0;stroke-opacity:1"
     id="rect4562"
     width="30.489985"
     height="25.576601"
     x="21.546791"
     y="95.044922" /><path
     style="fill:none;stroke:#ff0000;stroke-width:0.65668797px;stroke-linecap:butt;stroke-linejoin:miter;stroke-opacity:1"
     d="m 28.666671,109.94882 0.01739,5.66736"
     id="path4543-5"
     inkscape:connector-curvature="0" /><path
     style="fill:none;stroke:#ff0000;stroke-width:0.58564234px;stroke-linecap:butt;stroke-linejoin:miter;stroke-opacity:1"
     d="m 25.741033,112.73811 5.580197,0.0227"
     id="path4545-9"
     inkscape:connector-curvature="0" /><path
     style="fill:none;stroke:#ff0000;stroke-width:0.58564234px;stroke-linecap:butt;stroke-linejoin:miter;stroke-opacity:1"
     d="m 40.983392,112.84745 5.5802,0.0227"
     id="path4545-9-5"
     inkscape:connector-curvature="0" /><rect
     style="fill:none;fill-opacity:1;stroke:#ff0000;stroke-width:0.88009274;stroke-miterlimit:4;stroke-dasharray:none;stroke-dashoffset:0;stroke-opacity:1"
     id="rect4562-8"
     width="30.489985"
     height="25.576601"
     x="54.900146"
     y="159.04337" /><path
     style="fill:none;stroke:#ff0000;stroke-width:0.65668797px;stroke-linecap:butt;stroke-linejoin:miter;stroke-opacity:1"
     d="m 62.020042,173.94729 0.0174,5.66737"
     id="path4543-5-2"
     inkscape:connector-curvature="0" /><path
     style="fill:none;stroke:#ff0000;stroke-width:0.58564234px;stroke-linecap:butt;stroke-linejoin:miter;stroke-opacity:1"
     d="m 59.094402,176.73659 5.5802,0.0227"
     id="path4545-9-7"
     inkscape:connector-curvature="0" /><path
     style="fill:none;stroke:#ff0000;stroke-width:0.58564234px;stroke-linecap:butt;stroke-linejoin:miter;stroke-opacity:1"
     d="m 74.336762,176.84593 5.58019,0.0227"
     id="path4545-9-5-5"
     inkscape:connector-curvature="0" /><rect
     style="fill:none;fill-opacity:1;stroke:#ff0000;stroke-width:0.88009274;stroke-miterlimit:4;stroke-dasharray:none;stroke-dashoffset:0;stroke-opacity:1"
     id="rect4562-8-5"
     width="30.489985"
     height="25.576601"
     x="88.493523"
     y="95.256927" /><path
     style="fill:none;stroke:#ff0000;stroke-width:0.65668797px;stroke-linecap:butt;stroke-linejoin:miter;stroke-opacity:1"
     d="m 95.61339,110.16077 0.0174,5.66737"
     id="path4543-5-2-9"
     inkscape:connector-curvature="0" /><path
     style="fill:none;stroke:#ff0000;stroke-width:0.58564234px;stroke-linecap:butt;stroke-linejoin:miter;stroke-opacity:1"
     d="m 92.68775,112.95007 5.5802,0.0227"
     id="path4545-9-7-9"
     inkscape:connector-curvature="0" /><path
     style="fill:none;stroke:#ff0000;stroke-width:0.58564234px;stroke-linecap:butt;stroke-linejoin:miter;stroke-opacity:1"
     d="m 107.93011,113.05941 5.5802,0.0227"
     id="path4545-9-5-5-8"
     inkscape:connector-curvature="0" /><rect
     style="fill:none;fill-opacity:1;stroke:#ff0000;stroke-width:0.88009274;stroke-miterlimit:4;stroke-dasharray:none;stroke-dashoffset:0;stroke-opacity:1"
     id="rect4562-8-5-7"
     width="30.489985"
     height="25.576601"
     x="121.03813"
     y="159.52469" /><path
     style="fill:none;stroke:#ff0000;stroke-width:0.65668797px;stroke-linecap:butt;stroke-linejoin:miter;stroke-opacity:1"
     d="m 128.15803,174.42847 0.0174,5.66736"
     id="path4543-5-2-9-8"
     inkscape:connector-curvature="0" /><path
     style="fill:none;stroke:#ff0000;stroke-width:0.58564234px;stroke-linecap:butt;stroke-linejoin:miter;stroke-opacity:1"
     d="m 125.23239,177.21776 5.5802,0.0227"
     id="path4545-9-7-9-8"
     inkscape:connector-curvature="0" /><path
     style="fill:none;stroke:#ff0000;stroke-width:0.58564234px;stroke-linecap:butt;stroke-linejoin:miter;stroke-opacity:1"
     d="m 140.47475,177.3271 5.5802,0.0227"
     id="path4545-9-5-5-8-7"
     inkscape:connector-curvature="0" /><rect
     style="fill:none;fill-opacity:1;stroke:#ff0000;stroke-width:0.88009274;stroke-miterlimit:4;stroke-dasharray:none;stroke-dashoffset:0;stroke-opacity:1"
     id="rect4562-7"
     width="30.489985"
     height="25.576601"
     x="154.24922"
     y="95.071159" /><path
     style="fill:none;stroke:#ff0000;stroke-width:0.65668797px;stroke-linecap:butt;stroke-linejoin:miter;stroke-opacity:1"
     d="m 161.3691,109.97506 0.0174,5.66736"
     id="path4543-5-9"
     inkscape:connector-curvature="0" /><path
     style="fill:none;stroke:#ff0000;stroke-width:0.58564234px;stroke-linecap:butt;stroke-linejoin:miter;stroke-opacity:1"
     d="m 158.44346,112.76435 5.5802,0.0227"
     id="path4545-9-59"
     inkscape:connector-curvature="0" /><path
     style="fill:none;stroke:#ff0000;stroke-width:0.58564234px;stroke-linecap:butt;stroke-linejoin:miter;stroke-opacity:1"
     d="m 173.68582,112.87369 5.5802,0.0227"
     id="path4545-9-5-0"
     inkscape:connector-curvature="0" /><rect
     style="fill:none;fill-opacity:1;stroke:#ff0000;stroke-width:0.88009274;stroke-miterlimit:4;stroke-dasharray:none;stroke-dashoffset:0;stroke-opacity:1"
     id="rect4562-8-8"
     width="30.489985"
     height="25.576601"
     x="187.60257"
     y="159.06961" /><path
     style="fill:none;stroke:#ff0000;stroke-width:0.65668797px;stroke-linecap:butt;stroke-linejoin:miter;stroke-opacity:1"
     d="m 194.72247,173.97353 0.0174,5.66737"
     id="path4543-5-2-0"
     inkscape:connector-curvature="0" /><path
     style="fill:none;stroke:#ff0000;stroke-width:0.58564234px;stroke-linecap:butt;stroke-linejoin:miter;stroke-opacity:1"
     d="m 191.79683,176.76283 5.5802,0.0227"
     id="path4545-9-7-3"
     inkscape:connector-curvature="0" /><path
     style="fill:none;stroke:#ff0000;stroke-width:0.58564234px;stroke-linecap:butt;stroke-linejoin:miter;stroke-opacity:1"
     d="m 207.03919,176.87217 5.58019,0.0227"
     id="path4545-9-5-5-4"
     inkscape:connector-curvature="0" /><rect
     style="fill:none;fill-opacity:1;stroke:#ff0000;stroke-width:0.88009274;stroke-miterlimit:4;stroke-dasharray:none;stroke-dashoffset:0;stroke-opacity:1"
     id="rect4562-8-5-0"
     width="30.489985"
     height="25.576601"
     x="221.19594"
     y="95.283157" /><path
     style="fill:none;stroke:#ff0000;stroke-width:0.65668797px;stroke-linecap:butt;stroke-linejoin:miter;stroke-opacity:1"
     d="m 228.31582,110.18701 0.0174,5.66737"
     id="path4543-5-2-9-1"
     inkscape:connector-curvature="0" /><path
     style="fill:none;stroke:#ff0000;stroke-width:0.58564234px;stroke-linecap:butt;stroke-linejoin:miter;stroke-opacity:1"
     d="m 225.39018,112.97631 5.5802,0.0227"
     id="path4545-9-7-9-3"
     inkscape:connector-curvature="0" /><path
     style="fill:none;stroke:#ff0000;stroke-width:0.58564234px;stroke-linecap:butt;stroke-linejoin:miter;stroke-opacity:1"
     d="m 240.63254,113.08565 5.5802,0.0227"
     id="path4545-9-5-5-8-4"
     inkscape:connector-curvature="0" /><rect
     style="fill:none;fill-opacity:1;stroke:#ff0000;stroke-width:0.88009274;stroke-miterlimit:4;stroke-dasharray:none;stroke-dashoffset:0;stroke-opacity:1"
     id="rect4562-8-5-7-4"
     width="30.489985"
     height="25.576601"
     x="253.74054"
     y="159.55093" /><path
     style="fill:none;stroke:#ff0000;stroke-width:0.65668797px;stroke-linecap:butt;stroke-linejoin:miter;stroke-opacity:1"
     d="m 260.86045,174.45471 0.0174,5.66736"
     id="path4543-5-2-9-8-4"
     inkscape:connector-curvature="0" /><path
     style="fill:none;stroke:#ff0000;stroke-width:0.58564234px;stroke-linecap:butt;stroke-linejoin:miter;stroke-opacity:1"
     d="m 257.93481,177.244 5.5802,0.0227"
     id="path4545-9-7-9-8-8"
     inkscape:connector-curvature="0" /><path
     style="fill:none;stroke:#ff0000;stroke-width:0.58564234px;stroke-linecap:butt;stroke-linejoin:miter;stroke-opacity:1"
     d="m 273.17717,177.35334 5.5802,0.0227"
     id="path4545-9-5-5-8-7-1"
     inkscape:connector-curvature="0" /><g
     aria-label="CFOL Power Distro 8 v1.1"
     transform="translate(37.679979,-2.9437483)"
     style="font-style:normal;font-weight:normal;font-size:16px;line-height:1.25;font-family:sans-serif;letter-spacing:0px;word-spacing:0px;fill:#ff0000;fill-opacity:1;stroke:none"
     id="flowRoot5287"><path
       d="m 50.300781,24.513301 q -0.322265,0.140625 -0.585937,0.263672 -0.257813,0.123046 -0.679688,0.257812 -0.357422,0.111328 -0.779297,0.1875 -0.416015,0.08203 -0.919922,0.08203 -0.949218,0 -1.728515,-0.263672 -0.773438,-0.269531 -1.347656,-0.83789 -0.5625,-0.556641 -0.878907,-1.41211 -0.316406,-0.861328 -0.316406,-1.998046 0,-1.078125 0.304688,-1.927735 0.304687,-0.849609 0.878906,-1.435547 0.55664,-0.568359 1.341797,-0.867187 0.791015,-0.298828 1.751953,-0.298828 0.703125,0 1.40039,0.169922 0.703125,0.169921 1.558594,0.597656 v 1.376953 h -0.08789 q -0.720704,-0.603516 -1.429688,-0.878906 -0.708984,-0.275391 -1.517578,-0.275391 -0.662109,0 -1.195313,0.216797 -0.527343,0.210937 -0.943359,0.662109 -0.404297,0.439453 -0.632812,1.113282 -0.222657,0.667968 -0.222657,1.546875 0,0.919921 0.246094,1.582031 0.251953,0.662109 0.644531,1.078125 0.410157,0.433594 0.955078,0.644531 0.550782,0.205078 1.160157,0.205078 0.83789,0 1.570312,-0.287109 0.732422,-0.28711 1.371094,-0.861328 h 0.08203 z"
       style="font-size:12px;fill:#ff0000;fill-opacity:1"
       id="path5295" /><path
       d="m 57.525391,17.452754 h -4.41211 v 2.460937 h 3.791016 v 1.03125 h -3.791016 v 4.201172 h -1.160156 v -8.724609 h 5.572266 z"
       style="font-size:12px;fill:#ff0000;fill-opacity:1"
       id="path5297" /><path
       d="m 65.347656,17.423457 q 0.533203,0.585937 0.814453,1.435547 0.28711,0.849609 0.28711,1.927734 0,1.078125 -0.292969,1.933594 -0.287109,0.849609 -0.808594,1.417969 -0.539062,0.591797 -1.277344,0.890625 -0.732421,0.298828 -1.675781,0.298828 -0.919922,0 -1.675781,-0.304688 -0.75,-0.304687 -1.277344,-0.884765 -0.527344,-0.580078 -0.814453,-1.423828 -0.28125,-0.84375 -0.28125,-1.927735 0,-1.066406 0.28125,-1.910156 0.28125,-0.849609 0.820313,-1.453125 0.515625,-0.574219 1.277343,-0.878906 0.767578,-0.304688 1.669922,-0.304688 0.9375,0 1.681641,0.310547 0.75,0.304688 1.271484,0.873047 z m -0.105469,3.363281 q 0,-1.699219 -0.761718,-2.61914 -0.761719,-0.925782 -2.080078,-0.925782 -1.330079,0 -2.091797,0.925782 -0.75586,0.919921 -0.75586,2.61914 0,1.716797 0.773438,2.63086 0.773437,0.908203 2.074219,0.908203 1.300781,0 2.068359,-0.908203 0.773437,-0.914063 0.773437,-2.63086 z"
       style="font-size:12px;fill:#ff0000;fill-opacity:1"
       id="path5299" /><path
       d="m 73.808594,25.146113 h -5.519532 v -8.724609 h 1.160157 v 7.693359 h 4.359375 z"
       style="font-size:12px;fill:#ff0000;fill-opacity:1"
       id="path5301" /><path
       d="m 84.894531,19.058223 q 0,0.580078 -0.205078,1.078125 -0.199219,0.492187 -0.5625,0.855468 -0.451172,0.451172 -1.066406,0.679688 -0.615235,0.222656 -1.552735,0.222656 h -1.160156 v 3.251953 H 79.1875 v -8.724609 h 2.367187 q 0.785157,0 1.330079,0.134765 0.544921,0.128907 0.966796,0.410157 0.498047,0.333984 0.767579,0.832031 0.27539,0.498047 0.27539,1.259766 z m -1.207031,0.0293 q 0,-0.451171 -0.158203,-0.785156 -0.158203,-0.333984 -0.480469,-0.544922 -0.28125,-0.18164 -0.644531,-0.257812 -0.357422,-0.08203 -0.908203,-0.08203 h -1.148438 v 3.486328 h 0.978516 q 0.703125,0 1.142578,-0.123047 0.439453,-0.128906 0.714844,-0.404297 0.27539,-0.28125 0.386718,-0.591797 0.117188,-0.310547 0.117188,-0.697266 z"
       style="font-size:12px;fill:#ff0000;fill-opacity:1"
       id="path5303" /><path
       d="m 91.638672,21.876582 q 0,1.599609 -0.820313,2.525391 -0.820312,0.925781 -2.197265,0.925781 -1.388672,0 -2.208985,-0.925781 -0.814453,-0.925782 -0.814453,-2.525391 0,-1.599609 0.814453,-2.525391 0.820313,-0.93164 2.208985,-0.93164 1.376953,0 2.197265,0.93164 0.820313,0.925782 0.820313,2.525391 z m -1.136719,0 q 0,-1.271484 -0.498047,-1.886719 -0.498047,-0.621094 -1.382812,-0.621094 -0.896485,0 -1.394532,0.621094 -0.492187,0.615235 -0.492187,1.886719 0,1.230469 0.498047,1.869141 0.498047,0.632812 1.388672,0.632812 0.878906,0 1.376953,-0.626953 0.503906,-0.632813 0.503906,-1.875 z"
       style="font-size:12px;fill:#ff0000;fill-opacity:1"
       id="path5305" /><path
       d="m 101.58203,18.601191 -1.705077,6.544922 h -1.019531 l -1.681641,-5.044922 -1.669922,5.044922 h -1.013672 l -1.722656,-6.544922 h 1.148438 l 1.201172,5.06836 1.634765,-5.06836 h 0.908203 l 1.675782,5.06836 1.136719,-5.06836 z"
       style="font-size:12px;fill:#ff0000;fill-opacity:1"
       id="path5307" /><path
       d="m 108.64844,21.98791 h -4.82227 q 0,0.603516 0.18164,1.054688 0.18164,0.445312 0.49805,0.732421 0.30469,0.28125 0.7207,0.421875 0.42188,0.140625 0.92578,0.140625 0.66797,0 1.3418,-0.263671 0.67969,-0.269532 0.9668,-0.527344 h 0.0586 v 1.201172 q -0.55664,0.234375 -1.13672,0.392578 -0.58008,0.158203 -1.21875,0.158203 -1.6289,0 -2.54297,-0.878906 -0.91406,-0.884766 -0.91406,-2.507813 0,-1.605469 0.87305,-2.548828 0.8789,-0.943359 2.30859,-0.943359 1.32422,0 2.03906,0.773437 0.72071,0.773438 0.72071,2.197266 z m -1.07227,-0.84375 q -0.006,-0.867187 -0.43945,-1.341797 -0.42774,-0.474609 -1.30664,-0.474609 -0.88477,0 -1.41211,0.521484 -0.52149,0.521485 -0.5918,1.294922 z"
       style="font-size:12px;fill:#ff0000;fill-opacity:1"
       id="path5309" /><path
       d="m 114.40234,19.802363 h -0.0586 q -0.24609,-0.05859 -0.48047,-0.08203 -0.22851,-0.0293 -0.54492,-0.0293 -0.50977,0 -0.98438,0.228516 -0.4746,0.222656 -0.91406,0.580078 v 4.646484 h -1.10156 v -6.544922 h 1.10156 v 0.966797 q 0.65625,-0.527344 1.1543,-0.74414 0.50391,-0.222657 1.02539,-0.222657 0.28711,0 0.41602,0.01758 0.1289,0.01172 0.38671,0.05273 z"
       style="font-size:12px;fill:#ff0000;fill-opacity:1"
       id="path5311" /><path
       d="m 127.12891,20.792598 q 0,1.189453 -0.52149,2.15625 -0.51562,0.966796 -1.37695,1.5 -0.59766,0.36914 -1.33594,0.533203 -0.73242,0.164062 -1.93359,0.164062 h -2.20313 v -8.724609 h 2.17969 q 1.27734,0 2.02734,0.1875 0.75586,0.18164 1.27735,0.503906 0.89062,0.556641 1.38867,1.482422 0.49805,0.925781 0.49805,2.197266 z m -1.21289,-0.01758 q 0,-1.02539 -0.35743,-1.728515 -0.35742,-0.703125 -1.0664,-1.107422 -0.51563,-0.292969 -1.09571,-0.404297 -0.58007,-0.117187 -1.38867,-0.117187 h -1.08984 v 6.732421 h 1.08984 q 0.83789,0 1.45899,-0.123046 0.62695,-0.123047 1.14843,-0.457032 0.6504,-0.416015 0.97266,-1.095703 0.32813,-0.679687 0.32813,-1.699219 z"
       style="font-size:12px;fill:#ff0000;fill-opacity:1"
       id="path5313" /><path
       d="m 130.11133,17.505488 h -1.24219 V 16.36291 h 1.24219 z m -0.0703,7.640625 h -1.10157 v -6.544922 h 1.10157 z"
       style="font-size:12px;fill:#ff0000;fill-opacity:1"
       id="path5315" /><path
       d="m 136.86133,23.259394 q 0,0.896485 -0.74414,1.470704 -0.73828,0.574218 -2.02149,0.574218 -0.72656,0 -1.33593,-0.169922 -0.60352,-0.175781 -1.01368,-0.380859 v -1.236328 h 0.0586 q 0.52148,0.392578 1.16015,0.626953 0.63868,0.228516 1.22461,0.228516 0.72657,0 1.13672,-0.234375 0.41016,-0.234375 0.41016,-0.738282 0,-0.386718 -0.22266,-0.585937 -0.22265,-0.199219 -0.85547,-0.339844 -0.23437,-0.05273 -0.61523,-0.123047 -0.375,-0.07031 -0.68555,-0.152343 -0.86133,-0.228516 -1.22461,-0.667969 -0.35742,-0.445313 -0.35742,-1.089844 0,-0.404297 0.16406,-0.761719 0.16992,-0.357422 0.50977,-0.638672 0.32812,-0.27539 0.83203,-0.433593 0.50977,-0.164063 1.13672,-0.164063 0.58594,0 1.18359,0.146485 0.60352,0.140625 1.00196,0.345703 v 1.177734 h -0.0586 q -0.42187,-0.310547 -1.02539,-0.521484 -0.60351,-0.216797 -1.18359,-0.216797 -0.60352,0 -1.01953,0.234375 -0.41602,0.228515 -0.41602,0.685547 0,0.404297 0.25195,0.609375 0.2461,0.205078 0.79688,0.333984 0.30469,0.07031 0.67969,0.140625 0.38086,0.07031 0.63281,0.128906 0.76758,0.175782 1.18359,0.603516 0.41602,0.433594 0.41602,1.148437 z"
       style="font-size:12px;fill:#ff0000;fill-opacity:1"
       id="path5317" /><path
       d="m 141.8418,25.087519 q -0.31055,0.08203 -0.67969,0.134766 -0.36328,0.05273 -0.65039,0.05273 -1.00195,0 -1.52344,-0.539062 -0.52148,-0.539063 -0.52148,-1.728516 v -3.480468 h -0.74414 v -0.925782 h 0.74414 v -1.880859 h 1.10156 v 1.880859 h 2.27344 v 0.925782 h -2.27344 v 2.982421 q 0,0.515625 0.0234,0.808594 0.0234,0.28711 0.16406,0.539063 0.12891,0.234375 0.35156,0.345703 0.22852,0.105469 0.69141,0.105469 0.26953,0 0.5625,-0.07617 0.29297,-0.08203 0.42187,-0.134766 h 0.0586 z"
       style="font-size:12px;fill:#ff0000;fill-opacity:1"
       id="path5319" /><path
       d="m 147.26172,19.802363 h -0.0586 q -0.24609,-0.05859 -0.48046,-0.08203 -0.22852,-0.0293 -0.54493,-0.0293 -0.50976,0 -0.98437,0.228516 -0.47461,0.222656 -0.91406,0.580078 v 4.646484 h -1.10157 v -6.544922 h 1.10157 v 0.966797 q 0.65625,-0.527344 1.15429,-0.74414 0.50391,-0.222657 1.02539,-0.222657 0.28711,0 0.41602,0.01758 0.12891,0.01172 0.38672,0.05273 z"
       style="font-size:12px;fill:#ff0000;fill-opacity:1"
       id="path5321" /><path
       d="m 153.88867,21.876582 q 0,1.599609 -0.82031,2.525391 -0.82031,0.925781 -2.19727,0.925781 -1.38867,0 -2.20898,-0.925781 -0.81445,-0.925782 -0.81445,-2.525391 0,-1.599609 0.81445,-2.525391 0.82031,-0.93164 2.20898,-0.93164 1.37696,0 2.19727,0.93164 0.82031,0.925782 0.82031,2.525391 z m -1.13672,0 q 0,-1.271484 -0.49804,-1.886719 -0.49805,-0.621094 -1.38282,-0.621094 -0.89648,0 -1.39453,0.621094 -0.49219,0.615235 -0.49219,1.886719 0,1.230469 0.49805,1.869141 0.49805,0.632812 1.38867,0.632812 0.87891,0 1.37696,-0.626953 0.5039,-0.632813 0.5039,-1.875 z"
       style="font-size:12px;fill:#ff0000;fill-opacity:1"
       id="path5323" /><path
       d="m 165.64844,22.714473 q 0,1.130859 -0.88477,1.880859 -0.8789,0.75 -2.21484,0.75 -1.41797,0 -2.26172,-0.732422 -0.83789,-0.732422 -0.83789,-1.875 0,-0.726562 0.42187,-1.3125 0.42188,-0.591797 1.18946,-0.9375 v -0.03516 q -0.70313,-0.375 -1.04297,-0.820313 -0.33399,-0.445312 -0.33399,-1.113281 0,-0.984375 0.8086,-1.640625 0.80859,-0.65625 2.05664,-0.65625 1.30664,0 2.08594,0.626953 0.77929,0.626953 0.77929,1.59375 0,0.591797 -0.36914,1.166016 -0.36914,0.568359 -1.08398,0.890625 v 0.03516 q 0.82031,0.351563 1.2539,0.867188 0.4336,0.515625 0.4336,1.3125 z m -1.38867,-4.259766 q 0,-0.626953 -0.48633,-0.996094 -0.48047,-0.375 -1.23047,-0.375 -0.73828,0 -1.21289,0.351563 -0.46875,0.351562 -0.46875,0.949218 0,0.421875 0.23437,0.732422 0.24024,0.304688 0.72071,0.544922 0.21679,0.105469 0.62109,0.275391 0.41016,0.169922 0.79687,0.28125 0.58008,-0.386719 0.80274,-0.802735 0.22266,-0.416015 0.22266,-0.960937 z m 0.18164,4.371094 q 0,-0.539063 -0.24024,-0.861328 -0.23437,-0.328125 -0.92578,-0.65625 -0.27539,-0.128907 -0.60352,-0.240235 -0.32812,-0.111328 -0.87304,-0.310547 -0.52735,0.28711 -0.84961,0.779297 -0.31641,0.492188 -0.31641,1.113281 0,0.791016 0.54492,1.306641 0.54493,0.515625 1.38282,0.515625 0.85547,0 1.36523,-0.439453 0.51563,-0.439453 0.51563,-1.207031 z"
       style="font-size:12px;fill:#ff0000;fill-opacity:1"
       id="path5325" /><path
       d="m 177.33789,18.601191 -2.64844,6.544922 h -1.10742 l -2.63086,-6.544922 h 1.19531 l 2.02735,5.208985 2.00976,-5.208985 z"
       style="font-size:12px;fill:#ff0000;fill-opacity:1"
       id="path5327" /><path
       d="m 184.04687,25.146113 h -4.72265 v -0.890625 h 1.8164 v -5.847656 h -1.8164 v -0.796875 q 0.36914,0 0.79101,-0.05859 0.42188,-0.06445 0.63868,-0.18164 0.26953,-0.146485 0.42187,-0.369141 0.1582,-0.228516 0.18164,-0.609375 h 0.9082 v 7.863281 h 1.78125 z"
       style="font-size:12px;fill:#ff0000;fill-opacity:1"
       id="path5329" /><path
       d="m 188.21875,25.146113 h -1.40039 v -1.669922 h 1.40039 z"
       style="font-size:12px;fill:#ff0000;fill-opacity:1"
       id="path5331" /><path
       d="m 196.04687,25.146113 h -4.72265 v -0.890625 h 1.8164 v -5.847656 h -1.8164 v -0.796875 q 0.36914,0 0.79101,-0.05859 0.42188,-0.06445 0.63868,-0.18164 0.26953,-0.146485 0.42187,-0.369141 0.1582,-0.228516 0.18164,-0.609375 h 0.9082 v 7.863281 h 1.78125 z"
       style="font-size:12px;fill:#ff0000;fill-opacity:1"
       id="path5333" /></g></svg>