<?xml version="1.0" encoding="UTF-8" standalone="no"?>
<!-- Created with Inkscape (http://www.inkscape.org/) -->

<svg
   xmlns:dc="http://purl.org/dc/elements/1.1/"
   xmlns:cc="http://creativecommons.org/ns#"
   xmlns:rdf="http://www.w3.org/1999/02/22-rdf-syntax-ns#"
   xmlns:svg="http://www.w3.org/2000/svg"
   xmlns="http://www.w3.org/2000/svg"
   xmlns:sodipodi="http://sodipodi.sourceforge.net/DTD/sodipodi-0.dtd"
   xmlns:inkscape="http://www.inkscape.org/namespaces/inkscape"
   width="142mm"
   height="287mm"
   viewBox="0 0 142 287"
   version="1.1"
   id="svg8"
   inkscape:version="0.92.1 r15371"
   sodipodi:docname="hp_server_power.svg">
  <defs
     id="defs2">
    <marker
       style="overflow:visible"
       refY="0"
       refX="0"
       orient="auto"
       id="DistanceX">
      <path
         id="path4487"
         style="stroke:#000000;stroke-width:0.5"
         d="M 3,-3 -3,3 M 0,-5 V 5"
         inkscape:connector-curvature="0" />
    </marker>
    <pattern
       y="0"
       x="0"
       width="8"
       patternUnits="userSpaceOnUse"
       id="Hatch"
       height="8">
      <path
         id="path4490"
         stroke-width="0.25"
         stroke="#000000"
         linecap="square"
         d="M8 4 l-4,4" />
      <path
         id="path4492"
         stroke-width="0.25"
         stroke="#000000"
         linecap="square"
         d="M6 2 l-4,4" />
      <path
         id="path4494"
         stroke-width="0.25"
         stroke="#000000"
         linecap="square"
         d="M4 0 l-4,4" />
    </pattern>
    <symbol
       id="*MODEL_SPACE" />
    <symbol
       id="*PAPER_SPACE" />
  </defs>
  <sodipodi:namedview
     id="base"
     pagecolor="#ffffff"
     bordercolor="#666666"
     borderopacity="1.0"
     inkscape:pageopacity="0.0"
     inkscape:pageshadow="2"
     inkscape:zoom="1.0059296"
     inkscape:cx="287.26156"
     inkscape:cy="671.93315"
     inkscape:document-units="mm"
     inkscape:current-layer="g4515"
     showgrid="false"
     inkscape:window-width="1920"
     inkscape:window-height="1017"
     inkscape:window-x="-8"
     inkscape:window-y="-8"
     inkscape:window-maximized="1" />
  <metadata
     id="metadata5">
    <rdf:RDF>
      <cc:Work
         rdf:about="">
        <dc:format>image/svg+xml</dc:format>
        <dc:type
           rdf:resource="http://purl.org/dc/dcmitype/StillImage" />
        <dc:title />
      </cc:Work>
    </rdf:RDF>
  </metadata>
  <g
     inkscape:label="Layer 1"
     inkscape:groupmode="layer"
     id="layer1"
     transform="translate(0,-10)">
    <g
       id="g4515"
       inkscape:label="0"
       transform="matrix(0.26458333,0,0,0.26458333,49.820084,-293.24404)">
      <g
         id="g4577"
         transform="translate(-66.356814,8.7412772)">
        <path
           sodipodi:nodetypes="cccccc"
           inkscape:connector-curvature="0"
           d="m 28.02704,2049.8199 h 326.92913 m 0,0 V 1142.7333 H 28.02704 v 907.0866"
           style="fill:none;stroke:#ff0000;stroke-opacity:1;stroke-width:3.77952761;stroke-miterlimit:4;stroke-dasharray:none"
           id="path4501" />
        <path
           sodipodi:nodetypes="cccccc"
           inkscape:connector-curvature="0"
           d="m 28.02704,2049.8199 h -145.48207 v 170.0787 h 529.13386 v -170.0787 h -56.52995"
           style="fill:none;stroke:#ff0000;stroke-opacity:1;stroke-width:3.77952761;stroke-miterlimit:4;stroke-dasharray:none"
           id="path4503" />
        <path
           inkscape:connector-curvature="0"
           d="m 18.767198,1482.8908 a 7.7480315,7.7480315 0 1 0 -15.496063,0 7.7480315,7.7480315 0 1 0 15.496063,0 z"
           style="fill:none;stroke:#000000"
           id="path4505" />
        <path
           inkscape:connector-curvature="0"
           d="m 18.767198,1860.8436 a 7.7480315,7.7480315 0 1 0 -15.496063,0 7.7480315,7.7480315 0 1 0 15.496063,0 z"
           style="fill:none;stroke:#000000"
           id="path4507" />
        <path
           inkscape:connector-curvature="0"
           d="m 379.71208,1482.8908 a 7.7480315,7.7480315 0 1 0 -15.49606,0 7.7480315,7.7480315 0 1 0 15.49606,0 z"
           style="fill:none;stroke:#000000"
           id="path4509" />
        <path
           inkscape:connector-curvature="0"
           d="m 379.71208,1860.8436 a 7.7480315,7.7480315 0 1 0 -15.49606,0 7.7480315,7.7480315 0 1 0 15.49606,0 z"
           style="fill:none;stroke:#000000"
           id="path4511" />
      </g>
    </g>
  </g>
</svg>
