<?xml version="1.0" encoding="UTF-8" standalone="no"?>
<!-- Created with Inkscape (http://www.inkscape.org/) -->

<svg
   xmlns:dc="http://purl.org/dc/elements/1.1/"
   xmlns:cc="http://creativecommons.org/ns#"
   xmlns:rdf="http://www.w3.org/1999/02/22-rdf-syntax-ns#"
   xmlns:svg="http://www.w3.org/2000/svg"
   xmlns="http://www.w3.org/2000/svg"
   xmlns:sodipodi="http://sodipodi.sourceforge.net/DTD/sodipodi-0.dtd"
   xmlns:inkscape="http://www.inkscape.org/namespaces/inkscape"
   width="216mm"
   height="31mm"
   viewBox="0 0 216 31"
   version="1.1"
   id="svg5519"
   inkscape:version="0.92.1 r15371"
   sodipodi:docname="meanwell_LRS_350_side.svg">
  <defs
     id="defs5513">
    <marker
       style="overflow:visible"
       refY="0"
       refX="0"
       orient="auto"
       id="DistanceX">
      <path
         id="path6066"
         style="stroke:#000000;stroke-width:0.5"
         d="M 3,-3 -3,3 M 0,-5 V 5"
         inkscape:connector-curvature="0" />
    </marker>
    <pattern
       y="0"
       x="0"
       width="8"
       patternUnits="userSpaceOnUse"
       id="Hatch"
       height="8">
      <path
         id="path6069"
         stroke-width="0.25"
         stroke="#000000"
         linecap="square"
         d="M8 4 l-4,4" />
      <path
         id="path6071"
         stroke-width="0.25"
         stroke="#000000"
         linecap="square"
         d="M6 2 l-4,4" />
      <path
         id="path6073"
         stroke-width="0.25"
         stroke="#000000"
         linecap="square"
         d="M4 0 l-4,4" />
    </pattern>
    <symbol
       id="*MODEL_SPACE" />
    <symbol
       id="*PAPER_SPACE" />
  </defs>
  <sodipodi:namedview
     id="base"
     pagecolor="#ffffff"
     bordercolor="#666666"
     borderopacity="1.0"
     inkscape:pageopacity="0.0"
     inkscape:pageshadow="2"
     inkscape:zoom="0.83913688"
     inkscape:cx="526.20467"
     inkscape:cy="169.80824"
     inkscape:document-units="mm"
     inkscape:current-layer="layer1"
     showgrid="false"
     inkscape:window-width="1920"
     inkscape:window-height="1017"
     inkscape:window-x="-8"
     inkscape:window-y="-8"
     inkscape:window-maximized="1" />
  <metadata
     id="metadata5516">
    <rdf:RDF>
      <cc:Work
         rdf:about="">
        <dc:format>image/svg+xml</dc:format>
        <dc:type
           rdf:resource="http://purl.org/dc/dcmitype/StillImage" />
        <dc:title></dc:title>
      </cc:Work>
    </rdf:RDF>
  </metadata>
  <g
     inkscape:label="Layer 1"
     inkscape:groupmode="layer"
     id="layer1"
     transform="translate(0,-266)">
    <g
       id="g6086"
       inkscape:label="0"
       transform="matrix(0.26458333,0,0,0.26458333,0.40515757,-30.273498)">
      <path
         id="path6080"
         style="fill:none;stroke:#ff0000;stroke-opacity:1"
         d="M 812.59843,1122.5197 H 18.897638 A 18.897638,18.897638 0 0 0 0,1141.4173 v 94.4882 h 812.59843 z"
         inkscape:connector-curvature="0" />
      <path
         id="path6082"
         style="fill:none;stroke:#000000"
         d="m 130.3937,1188.6614 a 7.559055,7.559055 0 1 0 -15.11811,0 7.559055,7.559055 0 1 0 15.11811,0 z"
         inkscape:connector-curvature="0" />
      <path
         id="path6084"
         style="fill:none;stroke:#000000"
         d="m 697.32284,1188.6614 a 7.55906,7.55906 0 1 0 -15.11812,0 7.55906,7.55906 0 1 0 15.11812,0 z"
         inkscape:connector-curvature="0" />
    </g>
    <g
       aria-label="Meanwell LRS 350 - SIDE VIEW"
       transform="matrix(0.26458333,0,0,0.26458333,34.334869,269.34431)"
       style="font-style:normal;font-weight:normal;font-size:16px;line-height:1.25;font-family:sans-serif;letter-spacing:0px;word-spacing:0px;fill:#ff0000;fill-opacity:1;stroke:none"
       id="flowRoot6112">
      <path
         d="m 175.39844,95.528926 h -1.54688 V 85.505488 l -3.23437,6.820313 h -0.92188 l -3.21094,-6.820313 v 10.023438 h -1.44531 V 83.896113 h 2.10938 l 3.10156,6.476563 3,-6.476563 h 2.14844 z"
         style=""
         id="path6124" />
      <path
         d="m 185.72656,91.317988 h -6.42969 q 0,0.804688 0.24219,1.40625 0.24219,0.59375 0.66406,0.976563 0.40625,0.375 0.96094,0.5625 0.5625,0.1875 1.23438,0.1875 0.89062,0 1.78906,-0.351563 0.90625,-0.359375 1.28906,-0.703125 h 0.0781 v 1.601563 q -0.74219,0.3125 -1.51563,0.523437 -0.77344,0.210938 -1.625,0.210938 -2.17187,0 -3.39062,-1.171875 -1.21875,-1.179688 -1.21875,-3.34375 0,-2.140625 1.16406,-3.398438 1.17187,-1.257812 3.07812,-1.257812 1.76563,0 2.71875,1.03125 0.96094,1.03125 0.96094,2.929687 z m -1.42969,-1.125 q -0.008,-1.15625 -0.58593,-1.789062 -0.57032,-0.632813 -1.74219,-0.632813 -1.17969,0 -1.88281,0.695313 -0.69532,0.695312 -0.78907,1.726562 z"
         style=""
         id="path6126" />
      <path
         d="m 194.73437,95.528926 h -1.46093 v -0.929688 q -0.19532,0.132813 -0.53125,0.375 -0.32813,0.234375 -0.64063,0.375 -0.36719,0.179688 -0.84375,0.296875 -0.47656,0.125 -1.11719,0.125 -1.17968,0 -2,-0.78125 -0.82031,-0.78125 -0.82031,-1.992187 0,-0.992188 0.42188,-1.601563 0.42968,-0.617187 1.21875,-0.96875 0.79687,-0.351562 1.91406,-0.476562 1.11719,-0.125 2.39844,-0.1875 v -0.226563 q 0,-0.5 -0.17969,-0.828125 -0.17188,-0.328125 -0.5,-0.515625 -0.3125,-0.179687 -0.75,-0.242187 -0.4375,-0.0625 -0.91406,-0.0625 -0.57813,0 -1.28907,0.15625 -0.71093,0.148437 -1.46875,0.4375 h -0.0781 v -1.492188 q 0.42969,-0.117187 1.24219,-0.257812 0.8125,-0.140625 1.60156,-0.140625 0.92187,0 1.60156,0.15625 0.6875,0.148437 1.1875,0.515625 0.49219,0.359375 0.75,0.929687 0.25781,0.570313 0.25781,1.414063 z m -1.46093,-2.148438 v -2.429687 q -0.67188,0.03906 -1.58594,0.117187 -0.90625,0.07813 -1.4375,0.226563 -0.63281,0.179687 -1.02344,0.5625 -0.39062,0.375 -0.39062,1.039062 0,0.75 0.45312,1.132813 0.45313,0.375 1.38281,0.375 0.77344,0 1.41407,-0.296875 0.64062,-0.304688 1.1875,-0.726563 z"
         style=""
         id="path6128" />
      <path
         d="m 204.875,95.528926 h -1.46875 v -4.96875 q 0,-0.601563 -0.0703,-1.125 -0.0703,-0.53125 -0.25782,-0.828125 -0.19531,-0.328125 -0.5625,-0.484375 -0.36718,-0.164063 -0.95312,-0.164063 -0.60156,0 -1.25781,0.296875 -0.65625,0.296875 -1.25782,0.757813 v 6.515625 h -1.46875 v -8.726563 h 1.46875 v 0.96875 q 0.6875,-0.570312 1.42188,-0.890625 0.73437,-0.320312 1.50781,-0.320312 1.41406,0 2.15625,0.851562 0.74219,0.851563 0.74219,2.453125 z"
         style=""
         id="path6130" />
      <path
         d="m 218.61719,86.802363 -2.27344,8.726563 h -1.35938 l -2.24218,-6.726563 -2.22657,6.726563 h -1.35156 l -2.29687,-8.726563 h 1.53125 L 210,93.560176 l 2.17969,-6.757813 h 1.21093 l 2.23438,6.757813 1.51562,-6.757813 z"
         style=""
         id="path6132" />
      <path
         d="m 228.03906,91.317988 h -6.42969 q 0,0.804688 0.24219,1.40625 0.24219,0.59375 0.66406,0.976563 0.40625,0.375 0.96094,0.5625 0.5625,0.1875 1.23438,0.1875 0.89062,0 1.78906,-0.351563 0.90625,-0.359375 1.28906,-0.703125 h 0.0781 v 1.601563 q -0.74219,0.3125 -1.51563,0.523437 -0.77344,0.210938 -1.625,0.210938 -2.17187,0 -3.39062,-1.171875 -1.21875,-1.179688 -1.21875,-3.34375 0,-2.140625 1.16406,-3.398438 1.17187,-1.257812 3.07812,-1.257812 1.76563,0 2.71875,1.03125 0.96094,1.03125 0.96094,2.929687 z m -1.42969,-1.125 q -0.008,-1.15625 -0.58593,-1.789062 -0.57032,-0.632813 -1.74219,-0.632813 -1.17969,0 -1.88281,0.695313 -0.69532,0.695312 -0.78907,1.726562 z"
         style=""
         id="path6134" />
      <path
         d="m 231.75,95.528926 h -1.46875 V 83.372676 H 231.75 Z"
         style=""
         id="path6136" />
      <path
         d="M 236.09375,95.528926 H 234.625 v -12.15625 h 1.46875 z"
         style=""
         id="path6138" />
      <path
         d="m 252.05469,95.528926 h -7.35938 V 83.896113 h 1.54688 v 10.257813 h 5.8125 z"
         style=""
         id="path6140" />
      <path
         d="m 263.22656,95.528926 h -2.00781 l -3.89063,-4.625 h -2.17968 v 4.625 h -1.54688 V 83.896113 h 3.25781 q 1.05469,0 1.75782,0.140625 0.70312,0.132813 1.26562,0.484375 0.63281,0.398438 0.98438,1.007813 0.35937,0.601562 0.35937,1.53125 0,1.257812 -0.63281,2.109375 -0.63281,0.84375 -1.74219,1.273437 z m -3.61719,-8.359375 q 0,-0.5 -0.17968,-0.882813 -0.17188,-0.390625 -0.57813,-0.65625 -0.33594,-0.226562 -0.79687,-0.3125 -0.46094,-0.09375 -1.08594,-0.09375 h -1.82031 v 4.390625 h 1.5625 q 0.73437,0 1.28125,-0.125 0.54687,-0.132812 0.92968,-0.484375 0.35157,-0.328125 0.51563,-0.75 0.17187,-0.429687 0.17187,-1.085937 z"
         style=""
         id="path6142" />
      <path
         d="m 273.17969,92.208613 q 0,0.679688 -0.32032,1.34375 -0.3125,0.664063 -0.88281,1.125 -0.625,0.5 -1.46094,0.78125 -0.82812,0.28125 -2,0.28125 -1.25781,0 -2.26562,-0.234375 -1,-0.234375 -2.03906,-0.695312 v -1.9375 h 0.10937 q 0.88281,0.734375 2.03906,1.132812 1.15625,0.398438 2.17188,0.398438 1.4375,0 2.23437,-0.539063 0.80469,-0.539062 0.80469,-1.4375 0,-0.773437 -0.38281,-1.140625 -0.375,-0.367187 -1.14844,-0.570312 -0.58594,-0.15625 -1.27344,-0.257813 -0.67968,-0.101562 -1.44531,-0.257812 -1.54687,-0.328125 -2.29687,-1.117188 -0.74219,-0.796875 -0.74219,-2.070312 0,-1.460938 1.23437,-2.390625 1.23438,-0.9375 3.13282,-0.9375 1.22656,0 2.25,0.234375 1.02343,0.234375 1.8125,0.578125 v 1.828125 h -0.10938 q -0.66406,-0.5625 -1.75,-0.929688 -1.07812,-0.375 -2.21094,-0.375 -1.24218,0 -2,0.515625 -0.75,0.515625 -0.75,1.328125 0,0.726563 0.375,1.140625 0.375,0.414063 1.32032,0.632813 0.5,0.109375 1.42187,0.265625 0.92188,0.15625 1.5625,0.320312 1.29688,0.34375 1.95313,1.039063 0.65625,0.695312 0.65625,1.945312 z"
         style=""
         id="path6144" />
      <path
         d="m 287.83594,89.927363 q 0.375,0.335938 0.61718,0.84375 0.24219,0.507813 0.24219,1.3125 0,0.796875 -0.28906,1.460938 -0.28906,0.664062 -0.8125,1.15625 -0.58594,0.546875 -1.38281,0.8125 -0.78907,0.257812 -1.73438,0.257812 -0.96875,0 -1.90625,-0.234375 -0.9375,-0.226562 -1.53906,-0.5 v -1.632812 h 0.11719 q 0.66406,0.4375 1.5625,0.726562 0.89843,0.289063 1.73437,0.289063 0.49219,0 1.04688,-0.164063 0.55468,-0.164062 0.89843,-0.484375 0.35938,-0.34375 0.53125,-0.757812 0.17969,-0.414063 0.17969,-1.046875 0,-0.625 -0.20312,-1.03125 -0.19532,-0.414063 -0.54688,-0.648438 Q 286,90.044551 285.5,89.958613 q -0.5,-0.09375 -1.07813,-0.09375 h -0.70312 v -1.296875 h 0.54687 q 1.1875,0 1.89063,-0.492187 0.71094,-0.5 0.71094,-1.453125 0,-0.421875 -0.17969,-0.734375 -0.17969,-0.320313 -0.5,-0.523438 -0.33594,-0.203125 -0.71875,-0.28125 -0.38281,-0.07813 -0.86719,-0.07813 -0.74219,0 -1.57812,0.265625 -0.83594,0.265625 -1.57813,0.75 h -0.0781 v -1.632812 q 0.55468,-0.273438 1.47656,-0.5 0.92969,-0.234375 1.79687,-0.234375 0.85157,0 1.5,0.15625 0.64844,0.15625 1.17188,0.5 0.5625,0.375 0.85156,0.90625 0.28906,0.53125 0.28906,1.242187 0,0.96875 -0.6875,1.695313 -0.67968,0.71875 -1.60937,0.90625 v 0.109375 q 0.375,0.0625 0.85937,0.265625 0.48438,0.195312 0.82032,0.492187 z"
         style=""
         id="path6146" />
      <path
         d="m 298.95312,91.833613 q 0,0.8125 -0.29687,1.554688 -0.29688,0.742187 -0.8125,1.25 -0.5625,0.546875 -1.34375,0.84375 -0.77344,0.289062 -1.79688,0.289062 -0.95312,0 -1.83593,-0.203125 -0.88282,-0.195312 -1.49219,-0.476562 v -1.648438 h 0.10937 q 0.64063,0.40625 1.5,0.695313 0.85938,0.28125 1.6875,0.28125 0.55469,0 1.07032,-0.15625 0.52343,-0.15625 0.92968,-0.546875 0.34375,-0.335938 0.51563,-0.804688 0.17969,-0.46875 0.17969,-1.085937 0,-0.601563 -0.21094,-1.015625 -0.20313,-0.414063 -0.57031,-0.664063 -0.40625,-0.296875 -0.99219,-0.414062 -0.57813,-0.125 -1.29688,-0.125 -0.6875,0 -1.32812,0.09375 -0.63281,0.09375 -1.09375,0.1875 v -5.992188 h 7 v 1.367188 h -5.49219 v 3.09375 q 0.33594,-0.03125 0.6875,-0.04687 0.35156,-0.01563 0.60938,-0.01563 0.94531,0 1.65625,0.164062 0.71093,0.15625 1.30468,0.5625 0.625,0.429688 0.96875,1.109375 0.34375,0.679688 0.34375,1.703125 z"
         style=""
         id="path6148" />
      <path
         d="m 309.21875,89.708613 q 0,3.132813 -0.98438,4.601563 -0.97656,1.460937 -3.03906,1.460937 -2.09375,0 -3.0625,-1.484375 -0.96094,-1.484375 -0.96094,-4.5625 0,-3.101562 0.97657,-4.578125 0.97656,-1.484375 3.04687,-1.484375 2.09375,0 3.05469,1.507813 0.96875,1.5 0.96875,4.539062 z m -2.05469,3.546875 q 0.27344,-0.632812 0.36719,-1.484375 0.10156,-0.859375 0.10156,-2.0625 0,-1.1875 -0.10156,-2.0625 -0.0937,-0.875 -0.375,-1.484375 -0.27344,-0.601562 -0.75,-0.90625 -0.46875,-0.304687 -1.21094,-0.304687 -0.73437,0 -1.21875,0.304687 -0.47656,0.304688 -0.75781,0.921875 -0.26563,0.578125 -0.36719,1.507813 -0.0937,0.929687 -0.0937,2.039062 0,1.21875 0.0859,2.039063 0.0859,0.820312 0.36719,1.46875 0.25781,0.609375 0.72656,0.929687 0.47656,0.320313 1.25781,0.320313 0.73438,0 1.21875,-0.304688 0.48438,-0.304687 0.75,-0.921875 z"
         style=""
         id="path6150" />
      <path
         d="m 321.98437,91.146113 h -4.875 v -1.414062 h 4.875 z"
         style=""
         id="path6152" />
      <path
         d="m 338.83594,92.208613 q 0,0.679688 -0.32032,1.34375 -0.3125,0.664063 -0.88281,1.125 -0.625,0.5 -1.46094,0.78125 -0.82812,0.28125 -2,0.28125 -1.25781,0 -2.26562,-0.234375 -1,-0.234375 -2.03906,-0.695312 v -1.9375 h 0.10937 q 0.88281,0.734375 2.03906,1.132812 1.15625,0.398438 2.17188,0.398438 1.4375,0 2.23437,-0.539063 0.80469,-0.539062 0.80469,-1.4375 0,-0.773437 -0.38281,-1.140625 -0.375,-0.367187 -1.14844,-0.570312 -0.58594,-0.15625 -1.27344,-0.257813 -0.67968,-0.101562 -1.44531,-0.257812 -1.54687,-0.328125 -2.29687,-1.117188 -0.74219,-0.796875 -0.74219,-2.070312 0,-1.460938 1.23437,-2.390625 1.23438,-0.9375 3.13282,-0.9375 1.22656,0 2.25,0.234375 1.02343,0.234375 1.8125,0.578125 v 1.828125 h -0.10938 q -0.66406,-0.5625 -1.75,-0.929688 -1.07812,-0.375 -2.21094,-0.375 -1.24218,0 -2,0.515625 -0.75,0.515625 -0.75,1.328125 0,0.726563 0.375,1.140625 0.375,0.414063 1.32032,0.632813 0.5,0.109375 1.42187,0.265625 0.92188,0.15625 1.5625,0.320312 1.29688,0.34375 1.95313,1.039063 0.65625,0.695312 0.65625,1.945312 z"
         style=""
         id="path6154" />
      <path
         d="m 345.42187,95.528926 h -4.59375 v -1.1875 h 1.52344 v -9.257813 h -1.52344 v -1.1875 h 4.59375 v 1.1875 h -1.52343 v 9.257813 h 1.52343 z"
         style=""
         id="path6156" />
      <path
         d="m 357.89844,89.724238 q 0,1.585938 -0.69532,2.875 -0.6875,1.289063 -1.83593,2 -0.79688,0.492188 -1.78125,0.710938 -0.97657,0.21875 -2.57813,0.21875 h -2.9375 V 83.896113 h 2.90625 q 1.70313,0 2.70313,0.25 1.00781,0.242188 1.70312,0.671875 1.1875,0.742188 1.85156,1.976563 0.66407,1.234375 0.66407,2.929687 z m -1.61719,-0.02344 q 0,-1.367188 -0.47656,-2.304688 -0.47657,-0.9375 -1.42188,-1.476562 -0.6875,-0.390625 -1.46094,-0.539063 -0.77343,-0.15625 -1.85156,-0.15625 h -1.45312 v 8.976563 h 1.45312 q 1.11719,0 1.94531,-0.164063 0.83594,-0.164062 1.53125,-0.609375 0.86719,-0.554687 1.29688,-1.460937 0.4375,-0.90625 0.4375,-2.265625 z"
         style=""
         id="path6158" />
      <path
         d="m 368.07812,95.528926 h -7.66406 V 83.896113 h 7.66406 v 1.375 h -6.11718 v 3.1875 h 6.11718 v 1.375 h -6.11718 v 4.320313 h 6.11718 z"
         style=""
         id="path6160" />
      <path
         d="m 385.33594,83.896113 -4.23438,11.632813 h -2.0625 l -4.23437,-11.632813 h 1.65625 l 3.64843,10.234375 3.64844,-10.234375 z"
         style=""
         id="path6162" />
      <path
         d="m 391.20312,95.528926 h -4.59375 v -1.1875 h 1.52344 v -9.257813 h -1.52344 v -1.1875 h 4.59375 v 1.1875 h -1.52343 v 9.257813 h 1.52343 z"
         style=""
         id="path6164" />
      <path
         d="m 401.51562,95.528926 h -7.66406 V 83.896113 h 7.66406 v 1.375 h -6.11718 v 3.1875 h 6.11718 v 1.375 h -6.11718 v 4.320313 h 6.11718 z"
         style=""
         id="path6166" />
      <path
         d="m 417.51562,83.896113 -3.02343,11.632813 H 412.75 l -2.44531,-9.65625 -2.39063,9.65625 h -1.70312 l -3.07813,-11.632813 h 1.58594 l 2.44531,9.671875 2.40625,-9.671875 h 1.57031 l 2.42969,9.765625 L 416,83.896113 Z"
         style=""
         id="path6168" />
    </g>
    <g
       aria-label="TOP"
       transform="matrix(0.26458333,0,0,0.26458333,11.114471,264.26583)"
       style="font-style:normal;font-weight:normal;font-size:13.33333397px;line-height:1.25;font-family:sans-serif;letter-spacing:0px;word-spacing:0px;fill:#ff0000;fill-opacity:1;stroke:none"
       id="flowRoot6171">
      <path
         d="m 358.76302,13.764665 h -3.46354 v 8.548177 h -1.28906 v -8.548177 h -3.46355 v -1.145834 h 8.21615 z"
         style=""
         id="path6191" />
      <path
         d="m 366.99219,13.732113 q 0.59245,0.651041 0.90495,1.595052 0.31901,0.94401 0.31901,2.141927 0,1.197917 -0.32552,2.148438 -0.31901,0.94401 -0.89844,1.575521 -0.59896,0.657552 -1.41927,0.989583 -0.8138,0.332031 -1.86198,0.332031 -1.02214,0 -1.86198,-0.338541 -0.83333,-0.338542 -1.41927,-0.983073 -0.58594,-0.644532 -0.90495,-1.582032 -0.3125,-0.9375 -0.3125,-2.141927 0,-1.184896 0.3125,-2.122396 0.3125,-0.94401 0.91146,-1.614583 0.57292,-0.638021 1.41927,-0.976563 0.85286,-0.338542 1.85547,-0.338542 1.04166,0 1.86849,0.345053 0.83333,0.338541 1.41276,0.970052 z m -0.11719,3.736979 q 0,-1.888021 -0.84635,-2.910156 -0.84636,-1.028646 -2.3112,-1.028646 -1.47787,0 -2.32422,1.028646 -0.83984,1.022135 -0.83984,2.910156 0,1.907552 0.85937,2.923177 0.85938,1.009115 2.30469,1.009115 1.44531,0 2.29818,-1.009115 0.85937,-1.015625 0.85937,-2.923177 z"
         style=""
         id="path6193" />
      <path
         d="m 376.60156,15.548519 q 0,0.644531 -0.22786,1.197917 -0.22136,0.546875 -0.625,0.950521 -0.5013,0.501302 -1.1849,0.755208 -0.68359,0.247396 -1.72526,0.247396 h -1.28906 v 3.613281 h -1.28906 v -9.694011 h 2.63021 q 0.87239,0 1.47786,0.14974 0.60547,0.143229 1.07422,0.455729 0.55338,0.371094 0.85286,0.924479 0.30599,0.553386 0.30599,1.39974 z m -1.34114,0.03255 q 0,-0.501302 -0.17578,-0.872396 -0.17578,-0.371093 -0.53386,-0.605469 -0.3125,-0.201822 -0.71614,-0.286458 -0.39714,-0.09115 -1.00912,-0.09115 h -1.27604 V 17.5993 h 1.08724 q 0.78125,0 1.26953,-0.136718 0.48828,-0.14323 0.79427,-0.449219 0.30599,-0.3125 0.42969,-0.657552 0.13021,-0.345052 0.13021,-0.77474 z"
         style=""
         id="path6195" />
    </g>
    <g
       aria-label="POWER"
       transform="matrix(0,-0.26458333,0.26458333,0,-2.1212213,388.85177)"
       style="font-style:normal;font-weight:normal;font-size:13.33333397px;line-height:1.25;font-family:sans-serif;letter-spacing:0px;word-spacing:0px;fill:#ff0000;fill-opacity:1;stroke:none"
       id="flowRoot6171-4">
      <path
         d="m 358.1901,15.548519 q 0,0.644531 -0.22786,1.197917 -0.22135,0.546875 -0.625,0.950521 -0.5013,0.501302 -1.1849,0.755208 -0.68359,0.247396 -1.72526,0.247396 h -1.28906 v 3.613281 h -1.28906 v -9.694011 h 2.63021 q 0.87239,0 1.47786,0.14974 0.60547,0.143229 1.07422,0.455729 0.55339,0.371094 0.85286,0.924479 0.30599,0.553386 0.30599,1.39974 z m -1.34114,0.03255 q 0,-0.501302 -0.17578,-0.872396 -0.17578,-0.371093 -0.53386,-0.605469 -0.3125,-0.201822 -0.71614,-0.286458 -0.39714,-0.09115 -1.00912,-0.09115 h -1.27604 V 17.5993 h 1.08724 q 0.78125,0 1.26953,-0.136718 0.48828,-0.14323 0.79427,-0.449219 0.30599,-0.3125 0.42969,-0.657552 0.13021,-0.345052 0.13021,-0.77474 z"
         id="path6210"
         inkscape:connector-curvature="0" />
      <path
         d="m 367.1224,13.732113 q 0.59244,0.651041 0.90494,1.595052 0.31901,0.94401 0.31901,2.141927 0,1.197917 -0.32552,2.148438 -0.31901,0.94401 -0.89843,1.575521 -0.59896,0.657552 -1.41927,0.989583 -0.81381,0.332031 -1.86198,0.332031 -1.02214,0 -1.86198,-0.338541 -0.83334,-0.338542 -1.41927,-0.983073 -0.58594,-0.644532 -0.90495,-1.582032 -0.3125,-0.9375 -0.3125,-2.141927 0,-1.184896 0.3125,-2.122396 0.3125,-0.94401 0.91146,-1.614583 0.57291,-0.638021 1.41927,-0.976563 0.85286,-0.338542 1.85547,-0.338542 1.04166,0 1.86849,0.345053 0.83333,0.338541 1.41276,0.970052 z m -0.11719,3.736979 q 0,-1.888021 -0.84636,-2.910156 -0.84635,-1.028646 -2.31119,-1.028646 -1.47787,0 -2.32422,1.028646 -0.83985,1.022135 -0.83985,2.910156 0,1.907552 0.85938,2.923177 0.85937,1.009115 2.30469,1.009115 1.44531,0 2.29817,-1.009115 0.85938,-1.015625 0.85938,-2.923177 z"
         id="path6212"
         inkscape:connector-curvature="0" />
      <path
         d="m 381.67318,12.618831 -2.51953,9.694011 h -1.45183 l -2.03776,-8.046875 -1.99218,8.046875 h -1.41927 l -2.56511,-9.694011 h 1.32162 l 2.03776,8.059897 2.0052,-8.059897 h 1.3086 l 2.02474,8.138022 2.02474,-8.138022 z"
         id="path6214"
         inkscape:connector-curvature="0" />
      <path
         d="m 389.95443,22.312842 h -6.38672 v -9.694011 h 6.38672 v 1.145834 h -5.09766 v 2.65625 h 5.09766 v 1.145833 h -5.09766 v 3.600261 h 5.09766 z"
         id="path6216"
         inkscape:connector-curvature="0" />
      <path
         d="m 400.02604,22.312842 h -1.67318 l -3.24218,-3.854167 h -1.81641 v 3.854167 h -1.28906 v -9.694011 h 2.71484 q 0.87891,0 1.46485,0.117188 0.58593,0.110677 1.05468,0.403646 0.52735,0.332031 0.82032,0.839844 0.29948,0.501302 0.29948,1.276041 0,1.048177 -0.52735,1.757813 -0.52734,0.703125 -1.45182,1.061198 z m -3.01432,-6.966146 q 0,-0.416667 -0.14974,-0.735677 -0.14323,-0.325521 -0.48177,-0.546875 -0.27995,-0.188802 -0.66406,-0.260417 -0.38412,-0.07813 -0.90495,-0.07813 h -1.51693 v 3.658855 h 1.30208 q 0.61198,0 1.06771,-0.104167 0.45573,-0.110677 0.77474,-0.403646 0.29297,-0.273437 0.42969,-0.625 0.14323,-0.358073 0.14323,-0.904948 z"
         id="path6218"
         inkscape:connector-curvature="0" />
    </g>
  </g>
</svg>
