<?xml version="1.0" encoding="UTF-8" standalone="no"?>
<!-- Created with Inkscape (http://www.inkscape.org/) -->

<svg
   xmlns:dc="http://purl.org/dc/elements/1.1/"
   xmlns:cc="http://creativecommons.org/ns#"
   xmlns:rdf="http://www.w3.org/1999/02/22-rdf-syntax-ns#"
   xmlns:svg="http://www.w3.org/2000/svg"
   xmlns="http://www.w3.org/2000/svg"
   xmlns:sodipodi="http://sodipodi.sourceforge.net/DTD/sodipodi-0.dtd"
   xmlns:inkscape="http://www.inkscape.org/namespaces/inkscape"
   width="102mm"
   height="51mm"
   viewBox="0 0 102 51"
   version="1.1"
   id="svg8"
   inkscape:version="0.92.1 r15371"
   sodipodi:docname="pops_power_fanout_2-1.svg">
  <defs
     id="defs2">
    <marker
       style="overflow:visible"
       refY="0"
       refX="0"
       orient="auto"
       id="DistanceX">
      <path
         id="path4487"
         style="stroke:#000000;stroke-width:0.5"
         d="M 3,-3 -3,3 M 0,-5 V 5"
         inkscape:connector-curvature="0" />
    </marker>
    <pattern
       y="0"
       x="0"
       width="8"
       patternUnits="userSpaceOnUse"
       id="Hatch"
       height="8">
      <path
         id="path4490"
         stroke-width="0.25"
         stroke="#000000"
         linecap="square"
         d="M8 4 l-4,4" />
      <path
         id="path4492"
         stroke-width="0.25"
         stroke="#000000"
         linecap="square"
         d="M6 2 l-4,4" />
      <path
         id="path4494"
         stroke-width="0.25"
         stroke="#000000"
         linecap="square"
         d="M4 0 l-4,4" />
    </pattern>
    <symbol
       id="*MODEL_SPACE" />
    <symbol
       id="*PAPER_SPACE" />
    <marker
       style="overflow:visible"
       refY="0.0"
       refX="0.0"
       orient="auto"
       id="DistanceX-5">
      <path
         id="path8900"
         style="stroke:#000000; stroke-width:0.5"
         d="M 3,-3 L -3,3 M 0,-5 L  0,5" />
    </marker>
    <pattern
       y="0"
       x="0"
       width="8"
       patternUnits="userSpaceOnUse"
       id="Hatch-2"
       height="8">
      <path
         id="path8903"
         stroke-width="0.25"
         stroke="#000000"
         linecap="square"
         d="M8 4 l-4,4" />
      <path
         id="path8905"
         stroke-width="0.25"
         stroke="#000000"
         linecap="square"
         d="M6 2 l-4,4" />
      <path
         id="path8907"
         stroke-width="0.25"
         stroke="#000000"
         linecap="square"
         d="M4 0 l-4,4" />
    </pattern>
    <symbol
       id="*MODEL_SPACE-8" />
    <symbol
       id="*PAPER_SPACE-6" />
    <marker
       style="overflow:visible"
       refY="0.0"
       refX="0.0"
       orient="auto"
       id="DistanceX-7">
      <path
         id="path4565"
         style="stroke:#000000; stroke-width:0.5"
         d="M 3,-3 L -3,3 M 0,-5 L  0,5" />
    </marker>
    <pattern
       y="0"
       x="0"
       width="8"
       patternUnits="userSpaceOnUse"
       id="Hatch-6"
       height="8">
      <path
         id="path4568"
         stroke-width="0.25"
         stroke="#000000"
         linecap="square"
         d="M8 4 l-4,4" />
      <path
         id="path4570"
         stroke-width="0.25"
         stroke="#000000"
         linecap="square"
         d="M6 2 l-4,4" />
      <path
         id="path4572"
         stroke-width="0.25"
         stroke="#000000"
         linecap="square"
         d="M4 0 l-4,4" />
    </pattern>
    <symbol
       id="*MODEL_SPACE-3" />
    <symbol
       id="*PAPER_SPACE-9" />
  </defs>
  <sodipodi:namedview
     id="base"
     pagecolor="#ffffff"
     bordercolor="#666666"
     borderopacity="1.0"
     inkscape:pageopacity="0.0"
     inkscape:pageshadow="2"
     inkscape:zoom="2.4117503"
     inkscape:cx="174.72826"
     inkscape:cy="47.312843"
     inkscape:document-units="mm"
     inkscape:current-layer="g4511"
     showgrid="false"
     inkscape:window-width="1920"
     inkscape:window-height="1017"
     inkscape:window-x="-8"
     inkscape:window-y="-8"
     inkscape:window-maximized="1" />
  <metadata
     id="metadata5">
    <rdf:RDF>
      <cc:Work
         rdf:about="">
        <dc:format>image/svg+xml</dc:format>
        <dc:type
           rdf:resource="http://purl.org/dc/dcmitype/StillImage" />
        <dc:title />
      </cc:Work>
    </rdf:RDF>
  </metadata>
  <g
     inkscape:label="Layer 1"
     inkscape:groupmode="layer"
     id="layer1"
     transform="translate(0,-246)">
    <g
       id="g4511"
       inkscape:label="0"
       transform="matrix(0.26458333,0,0,0.26458333,0.83987873,-50.356631)"
       style="fill:none;stroke:#000000;stroke-opacity:1">
      <g
         id="g4589"
         inkscape:label="0"
         transform="translate(0.92641523,-0.06973803)">
        <path
           id="path4579"
           style="fill:none;stroke:#e30000;stroke-opacity:1"
           d="M 378.33071,1122.5197 H 0 v 189.3543 h 378.33071 z"
           inkscape:connector-curvature="0" />
        <path
           id="path4581"
           style="fill:none;stroke:#000000"
           d="m 16.440945,1133.8583 a 5.1023625,5.1023625 0 1 0 -10.204725,0 5.1023625,5.1023625 0 1 0 10.204725,0 z"
           inkscape:connector-curvature="0" />
        <path
           id="path4583"
           style="fill:none;stroke:#000000"
           d="m 16.440945,1300.5354 a 5.1023625,5.1023625 0 1 0 -10.204725,0 5.1023625,5.1023625 0 1 0 10.204725,0 z"
           inkscape:connector-curvature="0" />
        <path
           id="path4585"
           style="fill:none;stroke:#000000"
           d="m 370.50709,1300.5354 a 5.102365,5.102365 0 1 0 -10.20473,0 5.102365,5.102365 0 1 0 10.20473,0 z"
           inkscape:connector-curvature="0" />
        <path
           id="path4587"
           style="fill:none;stroke:#000000"
           d="m 372.09449,1133.8583 a 5.102365,5.102365 0 1 0 -10.20473,0 5.102365,5.102365 0 1 0 10.20473,0 z"
           inkscape:connector-curvature="0" />
      </g>
    </g>
    <rect
       style="fill:none;fill-opacity:1;stroke:#ff0000;stroke-width:0.25;stroke-miterlimit:4;stroke-dasharray:none;stroke-dashoffset:0;stroke-opacity:1"
       id="rect4539"
       width="17.836296"
       height="7.3574719"
       x="70.952919"
       y="255.20029" />
    <rect
       style="fill:none;fill-opacity:1;stroke:#ff0000;stroke-width:0.25;stroke-miterlimit:4;stroke-dasharray:none;stroke-dashoffset:0;stroke-opacity:1"
       id="rect4539-5"
       width="17.836296"
       height="7.3574719"
       x="70.952919"
       y="278.18726" />
    <rect
       style="fill:none;fill-opacity:1;stroke:#d30000;stroke-width:0.25;stroke-miterlimit:4;stroke-dasharray:none;stroke-dashoffset:0;stroke-opacity:1"
       id="rect4556"
       width="9.5706568"
       height="9.5706568"
       x="25.048992"
       y="276.29056" />
    <path
       style="fill:none;stroke:#ff0000;stroke-width:0.26458332px;stroke-linecap:butt;stroke-linejoin:miter;stroke-opacity:1"
       d="m 25.460991,287.91411 c 2.78692,0 2.78692,0 2.78692,0 v 0"
       id="path4566"
       inkscape:connector-curvature="0" />
    <path
       style="fill:none;stroke:#ff0000;stroke-width:0.26458332px;stroke-linecap:butt;stroke-linejoin:miter;stroke-opacity:1"
       d="m 30.867619,287.94198 c 2.78692,0 2.78692,0 2.78692,0 v 0"
       id="path4566-8"
       inkscape:connector-curvature="0" />
    <path
       style="fill:none;stroke:#ff0000;stroke-width:0.23273194px;stroke-linecap:butt;stroke-linejoin:miter;stroke-opacity:1"
       d="m 32.291401,286.92522 c 0,2.15631 0,2.15631 0,2.15631 v 0"
       id="path4566-8-9"
       inkscape:connector-curvature="0" />
    <rect
       style="fill:none;fill-opacity:1;stroke:#d30000;stroke-width:0.25;stroke-miterlimit:4;stroke-dasharray:none;stroke-dashoffset:0;stroke-opacity:1"
       id="rect4556-0"
       width="9.5706568"
       height="9.5706568"
       x="34.619648"
       y="276.29056" />
    <path
       style="fill:none;stroke:#ff0000;stroke-width:0.26458332px;stroke-linecap:butt;stroke-linejoin:miter;stroke-opacity:1"
       d="m 35.031648,287.91421 c 2.78692,0 2.78692,0 2.78692,0 v 0"
       id="path4566-9"
       inkscape:connector-curvature="0" />
    <path
       style="fill:none;stroke:#ff0000;stroke-width:0.26458332px;stroke-linecap:butt;stroke-linejoin:miter;stroke-opacity:1"
       d="m 40.438276,287.94208 c 2.78692,0 2.78692,0 2.78692,0 v 0"
       id="path4566-8-96"
       inkscape:connector-curvature="0" />
    <path
       style="fill:none;stroke:#ff0000;stroke-width:0.23273194px;stroke-linecap:butt;stroke-linejoin:miter;stroke-opacity:1"
       d="m 41.862058,286.92532 c 0,2.15631 0,2.15631 0,2.15631 v 0"
       id="path4566-8-9-4"
       inkscape:connector-curvature="0" />
    <rect
       style="fill:none;fill-opacity:1;stroke:#d30000;stroke-width:0.25;stroke-miterlimit:4;stroke-dasharray:none;stroke-dashoffset:0;stroke-opacity:1"
       id="rect4556-0-8"
       width="9.5706568"
       height="9.5706568"
       x="44.190304"
       y="276.29056" />
    <path
       style="fill:none;stroke:#ff0000;stroke-width:0.26458332px;stroke-linecap:butt;stroke-linejoin:miter;stroke-opacity:1"
       d="m 44.602301,287.91426 c 2.78692,0 2.78692,0 2.78692,0 v 0"
       id="path4566-9-4"
       inkscape:connector-curvature="0" />
    <path
       style="fill:none;stroke:#ff0000;stroke-width:0.26458332px;stroke-linecap:butt;stroke-linejoin:miter;stroke-opacity:1"
       d="m 50.008929,287.94213 c 2.786921,0 2.786921,0 2.786921,0 v 0"
       id="path4566-8-96-8"
       inkscape:connector-curvature="0" />
    <path
       style="fill:none;stroke:#ff0000;stroke-width:0.23273194px;stroke-linecap:butt;stroke-linejoin:miter;stroke-opacity:1"
       d="m 51.432712,286.92537 c 0,2.15631 0,2.15631 0,2.15631 v 0"
       id="path4566-8-9-4-2"
       inkscape:connector-curvature="0" />
    <rect
       style="fill:none;fill-opacity:1;stroke:#d30000;stroke-width:0.25;stroke-miterlimit:4;stroke-dasharray:none;stroke-dashoffset:0;stroke-opacity:1"
       id="rect4556-0-8-9"
       width="9.5706568"
       height="9.5706568"
       x="53.76096"
       y="276.29056" />
    <path
       style="fill:none;stroke:#ff0000;stroke-width:0.26458332px;stroke-linecap:butt;stroke-linejoin:miter;stroke-opacity:1"
       d="m 54.172957,287.91426 c 2.78692,0 2.78692,0 2.78692,0 v 0"
       id="path4566-9-4-4"
       inkscape:connector-curvature="0" />
    <path
       style="fill:none;stroke:#ff0000;stroke-width:0.26458332px;stroke-linecap:butt;stroke-linejoin:miter;stroke-opacity:1"
       d="m 59.579585,287.94213 c 2.786921,0 2.786921,0 2.786921,0 v 0"
       id="path4566-8-96-8-1"
       inkscape:connector-curvature="0" />
    <path
       style="fill:none;stroke:#ff0000;stroke-width:0.23273194px;stroke-linecap:butt;stroke-linejoin:miter;stroke-opacity:1"
       d="m 61.003368,286.92537 c 0,2.15631 0,2.15631 0,2.15631 v 0"
       id="path4566-8-9-4-2-1"
       inkscape:connector-curvature="0" />
    <path
       style="fill:none;stroke:#ff0000;stroke-width:0.26458332px;stroke-linecap:butt;stroke-linejoin:miter;stroke-opacity:1"
       d="m 78.53614,258.7868 c 2.786921,0 2.786921,0 2.786921,0 v 0"
       id="path4566-8-96-8-1-9"
       inkscape:connector-curvature="0" />
    <path
       style="fill:none;stroke:#ff0000;stroke-width:0.23273194px;stroke-linecap:butt;stroke-linejoin:miter;stroke-opacity:1"
       d="m 79.959923,257.77004 c 0,2.15631 0,2.15631 0,2.15631 v 0"
       id="path4566-8-9-4-2-1-3"
       inkscape:connector-curvature="0" />
    <path
       style="fill:none;stroke:#ff0000;stroke-width:0.26458332px;stroke-linecap:butt;stroke-linejoin:miter;stroke-opacity:1"
       d="m 78.299662,282.25953 c 2.78692,0 2.78692,0 2.78692,0 v 0"
       id="path4566-9-4-4-7"
       inkscape:connector-curvature="0" />
    <g
       aria-label="Pops Power Fanout Board v2.1"
       style="font-style:normal;font-weight:normal;font-size:3.52777767px;line-height:1.25;font-family:sans-serif;letter-spacing:0px;word-spacing:0px;fill:#000000;fill-opacity:1;stroke:none;stroke-width:0.16500001;stroke-miterlimit:4;stroke-dasharray:none"
       id="text4705">
      <path
         d="m 26.694819,249.72764 q 0,0.17053 -0.06029,0.31695 -0.05857,0.14469 -0.165364,0.25149 -0.132637,0.13263 -0.313504,0.19981 -0.180868,0.0655 -0.456475,0.0655 h -0.341065 v 0.95601 h -0.341064 v -2.56487 h 0.695909 q 0.230821,0 0.391018,0.0396 0.160197,0.0379 0.284221,0.12058 0.146416,0.0982 0.225654,0.2446 0.08096,0.14642 0.08096,0.37035 z m -0.354845,0.009 q 0,-0.13264 -0.04651,-0.23082 -0.04651,-0.0982 -0.141249,-0.1602 -0.08268,-0.0534 -0.18948,-0.0758 -0.105076,-0.0241 -0.266995,-0.0241 h -0.33762 v 1.02492 h 0.287666 q 0.206705,0 0.335897,-0.0362 0.129191,-0.0379 0.21015,-0.11886 0.08096,-0.0827 0.113689,-0.17398 0.03445,-0.0913 0.03445,-0.20498 z"
         style="fill:none;stroke:#ff0000;stroke-width:0.16500001;stroke-miterlimit:4;stroke-dasharray:none;stroke-opacity:1"
         id="path4707"
         inkscape:connector-curvature="0" />
      <path
         d="m 28.677472,250.55618 q 0,0.47026 -0.241157,0.74242 -0.241157,0.27216 -0.645955,0.27216 -0.408244,0 -0.649401,-0.27216 -0.239434,-0.27216 -0.239434,-0.74242 0,-0.47025 0.239434,-0.74242 0.241157,-0.27388 0.649401,-0.27388 0.404798,0 0.645955,0.27388 0.241157,0.27217 0.241157,0.74242 z m -0.334175,0 q 0,-0.37379 -0.146416,-0.55466 -0.146417,-0.18259 -0.406521,-0.18259 -0.26355,0 -0.409967,0.18259 -0.144694,0.18087 -0.144694,0.55466 0,0.36174 0.146417,0.5495 0.146416,0.18603 0.408244,0.18603 0.258382,0 0.404798,-0.18431 0.148139,-0.18604 0.148139,-0.55122 z"
         style="fill:none;stroke:#ff0000;stroke-width:0.16500001;stroke-miterlimit:4;stroke-dasharray:none;stroke-opacity:1"
         id="path4709"
         inkscape:connector-curvature="0" />
      <path
         d="m 30.87372,250.53207 q 0,0.23426 -0.06718,0.42891 -0.06718,0.19293 -0.18948,0.32729 -0.113689,0.12746 -0.268718,0.19809 -0.153307,0.0689 -0.325561,0.0689 -0.149862,0 -0.272163,-0.0327 -0.120578,-0.0327 -0.246324,-0.10163 v 0.80615 h -0.323839 v -2.63377 h 0.323839 v 0.20154 q 0.129191,-0.10852 0.289388,-0.18087 0.161919,-0.0741 0.344509,-0.0741 0.347955,0 0.54088,0.26355 0.194648,0.26183 0.194648,0.72864 z m -0.334174,0.009 q 0,-0.34795 -0.118856,-0.52021 -0.118856,-0.17225 -0.36518,-0.17225 -0.139526,0 -0.280775,0.0603 -0.141249,0.0603 -0.27044,0.15848 v 1.09037 q 0.137804,0.062 0.235989,0.0844 0.09991,0.0224 0.225654,0.0224 0.27044,0 0.422024,-0.18259 0.151584,-0.18259 0.151584,-0.54088 z"
         style="fill:none;stroke:#ff0000;stroke-width:0.16500001;stroke-miterlimit:4;stroke-dasharray:none;stroke-opacity:1"
         id="path4711"
         inkscape:connector-curvature="0" />
      <path
         d="m 32.75302,250.9627 q 0,0.26355 -0.218764,0.43236 -0.217041,0.16881 -0.594279,0.16881 -0.213596,0 -0.392741,-0.0499 -0.177422,-0.0517 -0.298,-0.11197 v -0.36345 h 0.01722 q 0.153307,0.11541 0.341064,0.18431 0.187758,0.0672 0.360013,0.0672 0.213596,0 0.334174,-0.0689 0.120579,-0.0689 0.120579,-0.21704 0,-0.11369 -0.06546,-0.17226 -0.06546,-0.0586 -0.251492,-0.0999 -0.0689,-0.0155 -0.180868,-0.0362 -0.110243,-0.0207 -0.201538,-0.0448 -0.253214,-0.0672 -0.360012,-0.19637 -0.105076,-0.13091 -0.105076,-0.32039 0,-0.11886 0.04823,-0.22393 0.04995,-0.10508 0.149861,-0.18776 0.09646,-0.081 0.244602,-0.12747 0.149862,-0.0482 0.334174,-0.0482 0.172255,0 0.347955,0.0431 0.177422,0.0413 0.294556,0.10163 v 0.34624 h -0.01723 q -0.124023,-0.0913 -0.301446,-0.15331 -0.177422,-0.0637 -0.347954,-0.0637 -0.177423,0 -0.299724,0.0689 -0.122301,0.0672 -0.122301,0.20154 0,0.11885 0.07407,0.17914 0.07235,0.0603 0.234267,0.0982 0.08957,0.0207 0.199815,0.0413 0.111966,0.0207 0.186035,0.0379 0.225654,0.0517 0.347955,0.17742 0.122301,0.12747 0.122301,0.33762 z"
         style="fill:none;stroke:#ff0000;stroke-width:0.16500001;stroke-miterlimit:4;stroke-dasharray:none;stroke-opacity:1"
         id="path4713"
         inkscape:connector-curvature="0" />
      <path
         d="m 36.161941,249.72764 q 0,0.17053 -0.06029,0.31695 -0.05857,0.14469 -0.165364,0.25149 -0.132637,0.13263 -0.313504,0.19981 -0.180868,0.0655 -0.456475,0.0655 h -0.341065 v 0.95601 H 34.48418 v -2.56487 h 0.695909 q 0.230822,0 0.391019,0.0396 0.160196,0.0379 0.28422,0.12058 0.146416,0.0982 0.225654,0.2446 0.08096,0.14642 0.08096,0.37035 z m -0.354844,0.009 q 0,-0.13264 -0.04651,-0.23082 -0.04651,-0.0982 -0.141249,-0.1602 -0.08268,-0.0534 -0.18948,-0.0758 -0.105076,-0.0241 -0.266995,-0.0241 h -0.33762 v 1.02492 h 0.287666 q 0.206706,0 0.335897,-0.0362 0.129191,-0.0379 0.21015,-0.11886 0.08096,-0.0827 0.113689,-0.17398 0.03445,-0.0913 0.03445,-0.20498 z"
         style="fill:none;stroke:#ff0000;stroke-width:0.16500001;stroke-miterlimit:4;stroke-dasharray:none;stroke-opacity:1"
         id="path4715"
         inkscape:connector-curvature="0" />
      <path
         d="m 38.144594,250.55618 q 0,0.47026 -0.241157,0.74242 -0.241157,0.27216 -0.645955,0.27216 -0.408244,0 -0.649401,-0.27216 -0.239434,-0.27216 -0.239434,-0.74242 0,-0.47025 0.239434,-0.74242 0.241157,-0.27388 0.649401,-0.27388 0.404798,0 0.645955,0.27388 0.241157,0.27217 0.241157,0.74242 z m -0.334174,0 q 0,-0.37379 -0.146417,-0.55466 -0.146417,-0.18259 -0.406521,-0.18259 -0.26355,0 -0.409967,0.18259 -0.144694,0.18087 -0.144694,0.55466 0,0.36174 0.146417,0.5495 0.146417,0.18603 0.408244,0.18603 0.258382,0 0.404798,-0.18431 0.14814,-0.18604 0.14814,-0.55122 z"
         style="fill:none;stroke:#ff0000;stroke-width:0.16500001;stroke-miterlimit:4;stroke-dasharray:none;stroke-opacity:1"
         id="path4717"
         inkscape:connector-curvature="0" />
      <path
         d="m 41.067758,249.59328 -0.501262,1.92408 h -0.299723 l -0.494371,-1.48311 -0.490926,1.48311 h -0.298001 l -0.506429,-1.92408 h 0.337619 l 0.353123,1.49 0.480591,-1.49 h 0.266994 l 0.492649,1.49 0.334174,-1.49 z"
         style="fill:none;stroke:#ff0000;stroke-width:0.16500001;stroke-miterlimit:4;stroke-dasharray:none;stroke-opacity:1"
         id="path4719"
         inkscape:connector-curvature="0" />
      <path
         d="m 43.14515,250.58891 h -1.417657 q 0,0.17742 0.0534,0.31006 0.0534,0.13091 0.146417,0.21532 0.08957,0.0827 0.211873,0.12402 0.124024,0.0413 0.272163,0.0413 0.19637,0 0.394463,-0.0775 0.199816,-0.0792 0.28422,-0.15503 h 0.01723 v 0.35312 q -0.163642,0.0689 -0.334174,0.11541 -0.170533,0.0465 -0.35829,0.0465 -0.478868,0 -0.747586,-0.25838 -0.268717,-0.26011 -0.268717,-0.73725 0,-0.47198 0.256659,-0.74931 0.258382,-0.27733 0.678684,-0.27733 0.389296,0 0.599447,0.22738 0.211873,0.22737 0.211873,0.64595 z m -0.315226,-0.24805 q -0.0017,-0.25493 -0.129191,-0.39446 -0.125746,-0.13953 -0.384128,-0.13953 -0.260105,0 -0.415134,0.15331 -0.153307,0.15331 -0.173978,0.38068 z"
         style="fill:none;stroke:#ff0000;stroke-width:0.16500001;stroke-miterlimit:4;stroke-dasharray:none;stroke-opacity:1"
         id="path4721"
         inkscape:connector-curvature="0" />
      <path
         d="m 44.836691,249.9464 h -0.01723 q -0.07235,-0.0172 -0.141249,-0.0241 -0.06718,-0.009 -0.160196,-0.009 -0.149862,0 -0.289388,0.0672 -0.139527,0.0655 -0.268718,0.17053 v 1.36598 h -0.323839 v -1.92408 h 0.323839 v 0.28422 q 0.192925,-0.15503 0.339342,-0.21876 0.148139,-0.0655 0.301446,-0.0655 0.08441,0 0.122301,0.005 0.0379,0.003 0.113688,0.0155 z"
         style="fill:none;stroke:#ff0000;stroke-width:0.16500001;stroke-miterlimit:4;stroke-dasharray:none;stroke-opacity:1"
         id="path4723"
         inkscape:connector-curvature="0" />
      <path
         d="m 48.049244,249.25566 h -1.297079 v 0.72347 h 1.114489 v 0.30317 h -1.114489 v 1.23506 h -0.341064 v -2.56487 h 1.638143 z"
         style="fill:none;stroke:#ff0000;stroke-width:0.16500001;stroke-miterlimit:4;stroke-dasharray:none;stroke-opacity:1"
         id="path4725"
         inkscape:connector-curvature="0" />
      <path
         d="m 49.733894,251.51736 h -0.322116 v -0.20498 q -0.04306,0.0293 -0.117133,0.0827 -0.07235,0.0517 -0.141249,0.0827 -0.08096,0.0396 -0.186035,0.0655 -0.105076,0.0276 -0.246325,0.0276 -0.260104,0 -0.440972,-0.17225 -0.180867,-0.17226 -0.180867,-0.43925 0,-0.21876 0.09302,-0.35312 0.09474,-0.13608 0.268718,-0.2136 0.175699,-0.0775 0.422024,-0.10507 0.246324,-0.0276 0.528822,-0.0414 v -0.0499 q 0,-0.11024 -0.03962,-0.18259 -0.0379,-0.0724 -0.110243,-0.11369 -0.0689,-0.0396 -0.165364,-0.0534 -0.09646,-0.0138 -0.201538,-0.0138 -0.127469,0 -0.284221,0.0345 -0.156752,0.0327 -0.323839,0.0965 h -0.01723 v -0.32901 q 0.09474,-0.0258 0.273885,-0.0568 0.179145,-0.031 0.353122,-0.031 0.203261,0 0.353122,0.0344 0.151585,0.0327 0.261828,0.11369 0.10852,0.0792 0.165364,0.20498 0.05684,0.12575 0.05684,0.31178 z m -0.322116,-0.4737 v -0.53571 q -0.148139,0.009 -0.349677,0.0258 -0.199816,0.0172 -0.316949,0.0499 -0.139526,0.0396 -0.225654,0.12403 -0.08613,0.0827 -0.08613,0.2291 0,0.16536 0.09991,0.24977 0.09991,0.0827 0.30489,0.0827 0.170533,0 0.311782,-0.0655 0.141249,-0.0672 0.261827,-0.1602 z"
         style="fill:none;stroke:#ff0000;stroke-width:0.16500001;stroke-miterlimit:4;stroke-dasharray:none;stroke-opacity:1"
         id="path4727"
         inkscape:connector-curvature="0" />
      <path
         d="m 51.969761,251.51736 h -0.323838 v -1.09554 q 0,-0.13263 -0.0155,-0.24804 -0.0155,-0.11714 -0.05684,-0.18259 -0.04306,-0.0724 -0.124024,-0.1068 -0.08096,-0.0362 -0.210151,-0.0362 -0.132636,0 -0.27733,0.0654 -0.144694,0.0655 -0.27733,0.16709 v 1.4366 h -0.323839 v -1.92408 h 0.323839 v 0.21359 q 0.151584,-0.12574 0.313504,-0.19637 0.161919,-0.0706 0.332451,-0.0706 0.311781,0 0.475423,0.18776 0.163642,0.18776 0.163642,0.54088 z"
         style="fill:none;stroke:#ff0000;stroke-width:0.16500001;stroke-miterlimit:4;stroke-dasharray:none;stroke-opacity:1"
         id="path4729"
         inkscape:connector-curvature="0" />
      <path
         d="m 54.233189,250.55618 q 0,0.47026 -0.241156,0.74242 -0.241157,0.27216 -0.645956,0.27216 -0.408244,0 -0.6494,-0.27216 -0.239434,-0.27216 -0.239434,-0.74242 0,-0.47025 0.239434,-0.74242 0.241156,-0.27388 0.6494,-0.27388 0.404799,0 0.645956,0.27388 0.241156,0.27217 0.241156,0.74242 z m -0.334174,0 q 0,-0.37379 -0.146417,-0.55466 -0.146416,-0.18259 -0.406521,-0.18259 -0.26355,0 -0.409966,0.18259 -0.144694,0.18087 -0.144694,0.55466 0,0.36174 0.146416,0.5495 0.146417,0.18603 0.408244,0.18603 0.258382,0 0.404799,-0.18431 0.148139,-0.18604 0.148139,-0.55122 z"
         style="fill:none;stroke:#ff0000;stroke-width:0.16500001;stroke-miterlimit:4;stroke-dasharray:none;stroke-opacity:1"
         id="path4731"
         inkscape:connector-curvature="0" />
      <path
         d="m 56.331252,251.51736 h -0.323839 v -0.21359 q -0.163642,0.12919 -0.313504,0.19809 -0.149861,0.0689 -0.330729,0.0689 -0.303168,0 -0.471978,-0.18431 -0.16881,-0.18603 -0.16881,-0.54432 v -1.24885 h 0.323839 v 1.09554 q 0,0.14642 0.01378,0.25149 0.01378,0.10335 0.05857,0.17742 0.04651,0.0758 0.120579,0.11025 0.07407,0.0344 0.215318,0.0344 0.125746,0 0.273885,-0.0655 0.149862,-0.0655 0.279053,-0.16709 v -1.4366 h 0.323839 z"
         style="fill:none;stroke:#ff0000;stroke-width:0.16500001;stroke-miterlimit:4;stroke-dasharray:none;stroke-opacity:1"
         id="path4733"
         inkscape:connector-curvature="0" />
      <path
         d="m 57.967672,251.50014 q -0.0913,0.0241 -0.199815,0.0396 -0.106798,0.0155 -0.191203,0.0155 -0.294556,0 -0.447862,-0.15847 -0.153307,-0.15848 -0.153307,-0.50816 v -1.02319 h -0.218764 v -0.27216 h 0.218764 v -0.55294 h 0.323839 v 0.55294 h 0.668348 v 0.27216 h -0.668348 v 0.87678 q 0,0.15158 0.0069,0.23771 0.0069,0.0844 0.04823,0.15847 0.0379,0.0689 0.103353,0.10163 0.06718,0.031 0.203261,0.031 0.07924,0 0.165364,-0.0224 0.08613,-0.0241 0.124024,-0.0396 h 0.01723 z"
         style="fill:none;stroke:#ff0000;stroke-width:0.16500001;stroke-miterlimit:4;stroke-dasharray:none;stroke-opacity:1"
         id="path4735"
         inkscape:connector-curvature="0" />
      <path
         d="m 61.560907,250.72844 q 0,0.1912 -0.07235,0.33762 -0.07235,0.14641 -0.194648,0.24115 -0.144694,0.11369 -0.318671,0.16192 -0.172255,0.0482 -0.43925,0.0482 h -0.909505 v -2.56487 h 0.759644 q 0.280775,0 0.420301,0.0207 0.139527,0.0207 0.266995,0.0861 0.141249,0.0741 0.204983,0.1912 0.06373,0.11541 0.06373,0.27733 0,0.18259 -0.09302,0.31178 -0.09302,0.12747 -0.248047,0.20499 v 0.0138 q 0.260105,0.0534 0.409967,0.2291 0.149861,0.17397 0.149861,0.44097 z m -0.573608,-1.15583 q 0,-0.093 -0.03101,-0.15675 -0.03101,-0.0637 -0.09991,-0.10336 -0.08096,-0.0465 -0.19637,-0.0568 -0.115411,-0.0121 -0.285943,-0.0121 h -0.406521 v 0.7407 h 0.440972 q 0.160197,0 0.254937,-0.0155 0.09474,-0.0172 0.1757,-0.0689 0.08096,-0.0517 0.113688,-0.13263 0.03445,-0.0827 0.03445,-0.19465 z m 0.218763,1.16961 q 0,-0.15503 -0.04651,-0.24633 -0.04651,-0.0913 -0.16881,-0.15503 -0.08268,-0.0431 -0.201538,-0.0551 -0.117133,-0.0138 -0.285943,-0.0138 h -0.535712 v 0.95429 h 0.451307 q 0.223931,0 0.366903,-0.0224 0.142971,-0.0241 0.234266,-0.0861 0.09646,-0.0672 0.141249,-0.1533 0.04479,-0.0861 0.04479,-0.22221 z"
         style="fill:none;stroke:#ff0000;stroke-width:0.16500001;stroke-miterlimit:4;stroke-dasharray:none;stroke-opacity:1"
         id="path4737"
         inkscape:connector-curvature="0" />
      <path
         d="m 63.65897,250.55618 q 0,0.47026 -0.241156,0.74242 -0.241157,0.27216 -0.645956,0.27216 -0.408243,0 -0.6494,-0.27216 -0.239434,-0.27216 -0.239434,-0.74242 0,-0.47025 0.239434,-0.74242 0.241157,-0.27388 0.6494,-0.27388 0.404799,0 0.645956,0.27388 0.241156,0.27217 0.241156,0.74242 z m -0.334174,0 q 0,-0.37379 -0.146416,-0.55466 -0.146417,-0.18259 -0.406522,-0.18259 -0.263549,0 -0.409966,0.18259 -0.144694,0.18087 -0.144694,0.55466 0,0.36174 0.146417,0.5495 0.146416,0.18603 0.408243,0.18603 0.258383,0 0.404799,-0.18431 0.148139,-0.18604 0.148139,-0.55122 z"
         style="fill:none;stroke:#ff0000;stroke-width:0.16500001;stroke-miterlimit:4;stroke-dasharray:none;stroke-opacity:1"
         id="path4739"
         inkscape:connector-curvature="0" />
      <path
         d="m 65.657125,251.51736 h -0.322116 v -0.20498 q -0.04306,0.0293 -0.117133,0.0827 -0.07235,0.0517 -0.141249,0.0827 -0.08096,0.0396 -0.186035,0.0655 -0.105076,0.0276 -0.246325,0.0276 -0.260104,0 -0.440972,-0.17225 -0.180867,-0.17226 -0.180867,-0.43925 0,-0.21876 0.09302,-0.35312 0.09474,-0.13608 0.268718,-0.2136 0.1757,-0.0775 0.422024,-0.10507 0.246324,-0.0276 0.528822,-0.0414 v -0.0499 q 0,-0.11024 -0.03962,-0.18259 -0.0379,-0.0724 -0.110243,-0.11369 -0.0689,-0.0396 -0.165364,-0.0534 -0.09646,-0.0138 -0.201538,-0.0138 -0.127469,0 -0.284221,0.0345 -0.156752,0.0327 -0.323839,0.0965 h -0.01722 v -0.32901 q 0.09474,-0.0258 0.273885,-0.0568 0.179145,-0.031 0.353122,-0.031 0.203261,0 0.353123,0.0344 0.151584,0.0327 0.261827,0.11369 0.10852,0.0792 0.165364,0.20498 0.05684,0.12575 0.05684,0.31178 z m -0.322116,-0.4737 v -0.53571 q -0.148139,0.009 -0.349677,0.0258 -0.199816,0.0172 -0.316949,0.0499 -0.139526,0.0396 -0.225654,0.12403 -0.08613,0.0827 -0.08613,0.2291 0,0.16536 0.09991,0.24977 0.09991,0.0827 0.304891,0.0827 0.170532,0 0.311781,-0.0655 0.141249,-0.0672 0.261827,-0.1602 z"
         style="fill:none;stroke:#ff0000;stroke-width:0.16500001;stroke-miterlimit:4;stroke-dasharray:none;stroke-opacity:1"
         id="path4741"
         inkscape:connector-curvature="0" />
      <path
         d="m 67.484751,249.9464 h -0.01723 q -0.07235,-0.0172 -0.141249,-0.0241 -0.06718,-0.009 -0.160197,-0.009 -0.149861,0 -0.289388,0.0672 -0.139526,0.0655 -0.268717,0.17053 v 1.36598 h -0.323839 v -1.92408 h 0.323839 v 0.28422 q 0.192925,-0.15503 0.339342,-0.21876 0.148139,-0.0655 0.301446,-0.0655 0.08441,0 0.122301,0.005 0.0379,0.003 0.113688,0.0155 z"
         style="fill:none;stroke:#ff0000;stroke-width:0.16500001;stroke-miterlimit:4;stroke-dasharray:none;stroke-opacity:1"
         id="path4743"
         inkscape:connector-curvature="0" />
      <path
         d="m 69.353712,251.51736 h -0.323839 v -0.20153 q -0.139526,0.12057 -0.29111,0.18775 -0.151584,0.0672 -0.329007,0.0672 -0.344509,0 -0.54777,-0.26527 -0.201538,-0.26527 -0.201538,-0.73553 0,-0.2446 0.0689,-0.4358 0.07062,-0.1912 0.18948,-0.32556 0.117133,-0.13092 0.272163,-0.19982 0.156752,-0.0689 0.323839,-0.0689 0.151584,0 0.268717,0.0327 0.117133,0.031 0.246324,0.0982 v -0.83371 h 0.323839 z m -0.323839,-0.4737 v -1.10415 q -0.130913,-0.0586 -0.234266,-0.081 -0.103353,-0.0224 -0.225654,-0.0224 -0.272162,0 -0.423746,0.18948 -0.151585,0.18948 -0.151585,0.53743 0,0.34279 0.117134,0.52194 0.117133,0.17742 0.375515,0.17742 0.137804,0 0.279053,-0.0603 0.141249,-0.062 0.263549,-0.15848 z"
         style="fill:none;stroke:#ff0000;stroke-width:0.16500001;stroke-miterlimit:4;stroke-dasharray:none;stroke-opacity:1"
         id="path4745"
         inkscape:connector-curvature="0" />
      <path
         d="m 72.895271,249.59328 -0.778592,1.92408 h -0.325561 l -0.773424,-1.92408 h 0.3514 l 0.596001,1.53134 0.590834,-1.53134 z"
         style="fill:none;stroke:#ff0000;stroke-width:0.16500001;stroke-miterlimit:4;stroke-dasharray:none;stroke-opacity:1"
         id="path4747"
         inkscape:connector-curvature="0" />
      <path
         d="m 75.014003,251.51736 h -1.736328 v -0.36001 q 0.180868,-0.15503 0.361735,-0.31006 0.18259,-0.15503 0.339342,-0.30833 0.330729,-0.3204 0.45303,-0.50815 0.122301,-0.18948 0.122301,-0.40825 0,-0.19981 -0.132636,-0.31178 -0.130914,-0.11369 -0.366903,-0.11369 -0.156751,0 -0.339341,0.0551 -0.182591,0.0551 -0.356568,0.16881 h -0.01723 v -0.36173 q 0.122301,-0.0603 0.325561,-0.11024 0.204983,-0.05 0.396186,-0.05 0.394464,0 0.618395,0.1912 0.223931,0.18949 0.223931,0.51505 0,0.14641 -0.0379,0.27388 -0.03617,0.12575 -0.108521,0.23944 -0.06718,0.10679 -0.158474,0.21015 -0.08957,0.10335 -0.218764,0.2291 -0.184312,0.18086 -0.380683,0.3514 -0.19637,0.1688 -0.366902,0.3135 h 1.37976 z"
         style="fill:none;stroke:#ff0000;stroke-width:0.16500001;stroke-miterlimit:4;stroke-dasharray:none;stroke-opacity:1"
         id="path4749"
         inkscape:connector-curvature="0" />
      <path
         d="m 76.094043,251.51736 h -0.411689 v -0.49092 h 0.411689 z"
         style="fill:none;stroke:#ff0000;stroke-width:0.16500001;stroke-miterlimit:4;stroke-dasharray:none;stroke-opacity:1"
         id="path4751"
         inkscape:connector-curvature="0" />
      <path
         d="m 78.395366,251.51736 h -1.388374 v -0.26182 h 0.53399 v -1.71911 h -0.53399 v -0.23426 q 0.108521,0 0.232544,-0.0172 0.124023,-0.019 0.187758,-0.0534 0.07924,-0.0431 0.124023,-0.10852 0.04651,-0.0672 0.0534,-0.17914 h 0.266995 v 2.31166 h 0.523655 z"
         style="fill:none;stroke:#ff0000;stroke-width:0.16500001;stroke-miterlimit:4;stroke-dasharray:none;stroke-opacity:1"
         id="path4753"
         inkscape:connector-curvature="0" />
    </g>
  </g>
</svg>
