<?xml version="1.0" encoding="UTF-8" standalone="no"?>
<svg
   xmlns:dc="http://purl.org/dc/elements/1.1/"
   xmlns:cc="http://creativecommons.org/ns#"
   xmlns:rdf="http://www.w3.org/1999/02/22-rdf-syntax-ns#"
   xmlns:svg="http://www.w3.org/2000/svg"
   xmlns="http://www.w3.org/2000/svg"
   xmlns:xlink="http://www.w3.org/1999/xlink"
   xmlns:sodipodi="http://sodipodi.sourceforge.net/DTD/sodipodi-0.dtd"
   xmlns:inkscape="http://www.inkscape.org/namespaces/inkscape"
   version="1.1"
   width="90mm"
   height="39mm"
   viewBox="0 0 490mm 246mm"
   xml:space="preserve"
   id="svg4219"
   sodipodi:docname="renard_plus_dc_distribution_board.svg"
   inkscape:version="0.92.1 r15371"><title
     id="title5136">Renard Plus DC Distribution Board</title><metadata
     id="metadata4223"><rdf:RDF><cc:Work
         rdf:about=""><dc:format>image/svg+xml</dc:format><dc:type
           rdf:resource="http://purl.org/dc/dcmitype/StillImage" /><dc:title>Renard Plus DC Distribution Board</dc:title></cc:Work></rdf:RDF></metadata><sodipodi:namedview
     pagecolor="#ffffff"
     bordercolor="#666666"
     borderopacity="1"
     objecttolerance="10"
     gridtolerance="10"
     guidetolerance="10"
     inkscape:pageopacity="0"
     inkscape:pageshadow="2"
     inkscape:window-width="1920"
     inkscape:window-height="1017"
     id="namedview4221"
     showgrid="false"
     inkscape:zoom="1.8650288"
     inkscape:cx="168.57237"
     inkscape:cy="164.10862"
     inkscape:window-x="-8"
     inkscape:window-y="-8"
     inkscape:window-maximized="1"
     inkscape:current-layer="svg4219" /><desc
     id="desc4099">Created with Fabric.js 2.0.0-beta7</desc><defs
     id="defs4101"><linearGradient
       inkscape:collect="always"
       id="linearGradient4539"><stop
         style="stop-color:#000000;stop-opacity:1;"
         offset="0"
         id="stop4535" /><stop
         style="stop-color:#000000;stop-opacity:0;"
         offset="1"
         id="stop4537" /></linearGradient><linearGradient
       inkscape:collect="always"
       xlink:href="#linearGradient4539"
       id="linearGradient4541"
       x1="128.11784"
       y1="229.40913"
       x2="300.63345"
       y2="229.40913"
       gradientUnits="userSpaceOnUse" /><linearGradient
       inkscape:collect="always"
       xlink:href="#linearGradient4539"
       id="linearGradient4642"
       gradientUnits="userSpaceOnUse"
       x1="128.11784"
       y1="229.40913"
       x2="300.63345"
       y2="229.40913" /></defs><g
     transform="translate(170.67202,73.854674)"
     id="g4217"><rect
       x="-168"
       y="-72"
       rx="0"
       ry="0"
       width="336"
       height="144"
       style="opacity:1;fill:#000000;fill-opacity:0;fill-rule:nonzero;stroke:#ff0000;stroke-width:1;stroke-linecap:butt;stroke-linejoin:miter;stroke-miterlimit:10;stroke-dasharray:none"
       id="rect4207" /><circle
       cx="0"
       cy="0"
       r="6.7086616"
       style="opacity:1;fill:#000000;fill-opacity:0;fill-rule:nonzero;stroke:#000000;stroke-width:1;stroke-linecap:butt;stroke-linejoin:miter;stroke-miterlimit:10;stroke-dasharray:none"
       transform="translate(-144.94,-48.94)"
       id="circle4209" /><circle
       cx="0"
       cy="0"
       r="6.7086616"
       style="opacity:1;fill:#000000;fill-opacity:0;fill-rule:nonzero;stroke:#000000;stroke-width:1;stroke-linecap:butt;stroke-linejoin:miter;stroke-miterlimit:10;stroke-dasharray:none"
       transform="translate(-144.94,47.06)"
       id="circle4211" /><circle
       cx="0"
       cy="0"
       r="6.7086616"
       style="opacity:1;fill:#000000;fill-opacity:0;fill-rule:nonzero;stroke:#000000;stroke-width:1;stroke-linecap:butt;stroke-linejoin:miter;stroke-miterlimit:10;stroke-dasharray:none"
       transform="translate(143.06,-48.94)"
       id="circle4213" /><circle
       cx="0"
       cy="0"
       r="6.7086616"
       style="opacity:1;fill:#000000;fill-opacity:0;fill-rule:nonzero;stroke:#000000;stroke-width:1;stroke-linecap:butt;stroke-linejoin:miter;stroke-miterlimit:10;stroke-dasharray:none"
       transform="translate(143.06,47.06)"
       id="circle4215" /></g><rect
     id="rect4225"
     width="43.63203"
     height="61.812054"
     x="288.95383"
     y="41.740837"
     style="fill:none;stroke:#ff0000;stroke-opacity:1" /><ellipse
     style="fill:none;stroke:#ff0000;stroke-opacity:1"
     id="path5034"
     cx="311.9061"
     cy="62.420639"
     rx="9.3172569"
     ry="8.4082565" /><ellipse
     style="fill:none;stroke:#ff0000;stroke-opacity:1"
     id="path5034-3"
     cx="312.58783"
     cy="85.8274"
     rx="9.3172569"
     ry="8.4082565" /><rect
     style="fill:none;stroke:#ff0000;stroke-width:0.94924021;stroke-opacity:1"
     id="rect5051"
     width="206.39392"
     height="25.048281"
     x="62.505371"
     y="18.646221" /><ellipse
     style="fill:none;stroke:#ff0000;stroke-opacity:1"
     id="path5053"
     cx="73.89325"
     cy="30.943106"
     rx="5.4540043"
     ry="4.9995036" /><ellipse
     style="fill:none;stroke:#ff0000;stroke-opacity:1"
     id="path5053-3"
     cx="89.800766"
     cy="30.943106"
     rx="5.4540043"
     ry="4.9995036" /><ellipse
     style="fill:none;stroke:#ff0000;stroke-opacity:1"
     id="path5053-0"
     cx="108.43527"
     cy="30.943167"
     rx="5.4540043"
     ry="4.9995036" /><ellipse
     style="fill:none;stroke:#ff0000;stroke-opacity:1"
     id="path5053-6"
     cx="122.97929"
     cy="30.943106"
     rx="5.4540043"
     ry="4.9995036" /><ellipse
     style="fill:none;stroke:#ff0000;stroke-opacity:1"
     id="path5053-2"
     cx="141.6138"
     cy="30.943106"
     rx="5.4540043"
     ry="4.9995036" /><ellipse
     style="fill:none;stroke:#ff0000;stroke-opacity:1"
     id="path5053-5"
     cx="156.61232"
     cy="30.943106"
     rx="5.4540043"
     ry="4.9995036" /><ellipse
     style="fill:none;stroke:#ff0000;stroke-opacity:1"
     id="path5053-7"
     cx="176.15584"
     cy="30.488638"
     rx="5.4540043"
     ry="4.9995036" /><ellipse
     style="fill:none;stroke:#ff0000;stroke-opacity:1"
     id="path5053-20"
     cx="190.24536"
     cy="30.943106"
     rx="5.4540043"
     ry="4.9995036" /><ellipse
     style="fill:none;stroke:#ff0000;stroke-opacity:1"
     id="path5053-23"
     cx="209.33438"
     cy="30.943106"
     rx="5.4540043"
     ry="4.9995036" /><ellipse
     style="fill:none;stroke:#ff0000;stroke-opacity:1"
     id="path5053-68"
     cx="223.87839"
     cy="31.397635"
     rx="5.4540043"
     ry="4.9995036" /><ellipse
     style="fill:none;stroke:#ff0000;stroke-opacity:1"
     id="path5053-62"
     cx="243.42191"
     cy="31.397635"
     rx="5.4540043"
     ry="4.9995036" /><ellipse
     style="fill:none;stroke:#ff0000;stroke-opacity:1"
     id="path5053-9"
     cx="257.51141"
     cy="30.943106"
     rx="5.4540043"
     ry="4.9995036" /><g
     aria-label="RenardPlus 4 Port DC Dist Board - 3mm screw holes"
     transform="translate(-67.640466,-93.878852)"
     style="font-style:normal;font-weight:normal;font-size:16px;line-height:1.25;font-family:sans-serif;letter-spacing:0px;word-spacing:0px;fill:url(#linearGradient4642);fill-opacity:1;stroke:none"
     id="flowRoot4505"><path
       d="m 132.66992,233.38049 h -1.0039 l -1.94532,-2.3125 h -1.08984 v 2.3125 h -0.77344 v -5.81641 h 1.62891 q 0.52734,0 0.8789,0.0703 0.35157,0.0664 0.63282,0.24219 0.3164,0.19922 0.49218,0.50391 0.17969,0.30078 0.17969,0.76562 0,0.62891 -0.3164,1.05469 -0.31641,0.42188 -0.8711,0.63672 z m -1.80859,-4.17969 q 0,-0.25 -0.0899,-0.44141 -0.0859,-0.19531 -0.28906,-0.32812 -0.16797,-0.11328 -0.39844,-0.15625 -0.23046,-0.0469 -0.54296,-0.0469 h -0.91016 v 2.19532 h 0.78125 q 0.36719,0 0.64062,-0.0625 0.27344,-0.0664 0.46485,-0.24219 0.17578,-0.16406 0.25781,-0.375 0.0859,-0.21484 0.0859,-0.54297 z"
       style="font-size:8px;fill:#ff0000;fill-opacity:1"
       id="path4561"
       inkscape:connector-curvature="0" /><path
       d="m 136.82617,231.27502 h -3.21484 q 0,0.40234 0.12109,0.70312 0.1211,0.29688 0.33203,0.48829 0.20313,0.1875 0.48047,0.28125 0.28125,0.0937 0.61719,0.0937 0.44531,0 0.89453,-0.17579 0.45313,-0.17968 0.64453,-0.35156 h 0.0391 v 0.80078 q -0.37109,0.15625 -0.75781,0.26172 -0.38672,0.10547 -0.8125,0.10547 -1.08594,0 -1.69531,-0.58594 -0.60938,-0.58984 -0.60938,-1.67187 0,-1.07031 0.58204,-1.69922 0.58593,-0.62891 1.53906,-0.62891 0.88281,0 1.35937,0.51563 0.48047,0.51562 0.48047,1.46484 z m -0.71484,-0.5625 q -0.004,-0.57813 -0.29297,-0.89453 -0.28516,-0.31641 -0.87109,-0.31641 -0.58985,0 -0.94141,0.34766 -0.34766,0.34765 -0.39453,0.86328 z"
       style="font-size:8px;fill:#ff0000;fill-opacity:1"
       id="path4563"
       inkscape:connector-curvature="0" /><path
       d="m 141.58789,233.38049 h -0.73437 v -2.48438 q 0,-0.30078 -0.0352,-0.5625 -0.0352,-0.26562 -0.12891,-0.41406 -0.0976,-0.16406 -0.28125,-0.24219 -0.18359,-0.082 -0.47656,-0.082 -0.30078,0 -0.62891,0.14844 -0.32812,0.14844 -0.6289,0.37891 v 3.25781 h -0.73438 v -4.36328 h 0.73438 v 0.48437 q 0.34375,-0.28515 0.71094,-0.44531 0.36718,-0.16016 0.7539,-0.16016 0.70703,0 1.07813,0.42578 0.37109,0.42579 0.37109,1.22657 z"
       style="font-size:8px;fill:#ff0000;fill-opacity:1"
       id="path4565"
       inkscape:connector-curvature="0" /><path
       d="m 146.39258,233.38049 h -0.73047 v -0.46485 q -0.0977,0.0664 -0.26563,0.1875 -0.16406,0.11719 -0.32031,0.1875 -0.18359,0.0899 -0.42187,0.14844 -0.23828,0.0625 -0.5586,0.0625 -0.58984,0 -1,-0.39062 -0.41015,-0.39063 -0.41015,-0.9961 0,-0.49609 0.21093,-0.80078 0.21485,-0.30859 0.60938,-0.48437 0.39844,-0.17578 0.95703,-0.23828 0.55859,-0.0625 1.19922,-0.0937 v -0.11329 q 0,-0.25 -0.0898,-0.41406 -0.0859,-0.16406 -0.25,-0.25781 -0.15625,-0.0898 -0.375,-0.12109 -0.21875,-0.0312 -0.45704,-0.0312 -0.28906,0 -0.64453,0.0781 -0.35547,0.0742 -0.73437,0.21875 h -0.0391 v -0.74609 q 0.21484,-0.0586 0.62109,-0.12891 0.40625,-0.0703 0.80078,-0.0703 0.46094,0 0.80078,0.0781 0.34375,0.0742 0.59375,0.25782 0.2461,0.17968 0.375,0.46484 0.12891,0.28516 0.12891,0.70703 z m -0.73047,-1.07422 v -1.21484 q -0.33594,0.0195 -0.79297,0.0586 -0.45312,0.0391 -0.71875,0.11328 -0.31641,0.0898 -0.51172,0.28125 -0.19531,0.1875 -0.19531,0.51953 0,0.375 0.22656,0.56641 0.22656,0.1875 0.69141,0.1875 0.38672,0 0.70703,-0.14844 0.32031,-0.15234 0.59375,-0.36328 z"
       style="font-size:8px;fill:#ff0000;fill-opacity:1"
       id="path4567"
       inkscape:connector-curvature="0" /><path
       d="m 150.53711,229.81799 h -0.0391 q -0.16407,-0.0391 -0.32032,-0.0547 -0.15234,-0.0195 -0.36328,-0.0195 -0.33984,0 -0.65625,0.15234 -0.3164,0.14844 -0.60937,0.38672 v 3.09766 h -0.73438 v -4.36328 h 0.73438 v 0.64453 q 0.4375,-0.35156 0.76953,-0.4961 0.33594,-0.14843 0.68359,-0.14843 0.19141,0 0.27735,0.0117 0.0859,0.008 0.25781,0.0351 z"
       style="font-size:8px;fill:#ff0000;fill-opacity:1"
       id="path4569"
       inkscape:connector-curvature="0" /><path
       d="m 154.77539,233.38049 h -0.73437 v -0.45703 q -0.31641,0.27343 -0.66016,0.42578 -0.34375,0.15234 -0.74609,0.15234 -0.78125,0 -1.24219,-0.60156 -0.45703,-0.60156 -0.45703,-1.66797 0,-0.55469 0.15625,-0.98828 0.16015,-0.43359 0.42968,-0.73828 0.26563,-0.29688 0.61719,-0.45313 0.35547,-0.15625 0.73438,-0.15625 0.34375,0 0.60937,0.0742 0.26563,0.0703 0.5586,0.22266 v -1.89063 h 0.73437 z m -0.73437,-1.07422 v -2.50391 q -0.29688,-0.13281 -0.53125,-0.18359 -0.23438,-0.0508 -0.51172,-0.0508 -0.61719,0 -0.96094,0.42969 -0.34375,0.42968 -0.34375,1.21875 0,0.77734 0.26562,1.18359 0.26563,0.40234 0.85157,0.40234 0.3125,0 0.63281,-0.13672 0.32031,-0.14062 0.59766,-0.35937 z"
       style="font-size:8px;fill:#ff0000;fill-opacity:1"
       id="path4571"
       inkscape:connector-curvature="0" /><path
       d="m 160.08398,229.32189 q 0,0.38672 -0.13671,0.71875 -0.13282,0.32813 -0.375,0.57032 -0.30079,0.30078 -0.71094,0.45312 -0.41016,0.14844 -1.03516,0.14844 h -0.77344 v 2.16797 h -0.77343 v -5.81641 h 1.57812 q 0.52344,0 0.88672,0.0899 0.36328,0.0859 0.64453,0.27343 0.33203,0.22266 0.51172,0.55469 0.18359,0.33203 0.18359,0.83984 z m -0.80468,0.0195 q 0,-0.30079 -0.10547,-0.52344 -0.10547,-0.22266 -0.32031,-0.36328 -0.1875,-0.1211 -0.42969,-0.17188 -0.23828,-0.0547 -0.60547,-0.0547 h -0.76563 v 2.32422 h 0.65235 q 0.46875,0 0.76172,-0.082 0.29297,-0.0859 0.47656,-0.26953 0.18359,-0.1875 0.25781,-0.39453 0.0781,-0.20703 0.0781,-0.46484 z"
       style="font-size:8px;fill:#ff0000;fill-opacity:1"
       id="path4573"
       inkscape:connector-curvature="0" /><path
       d="m 161.79102,233.38049 h -0.73438 v -6.07813 h 0.73438 z"
       style="font-size:8px;fill:#ff0000;fill-opacity:1"
       id="path4575"
       inkscape:connector-curvature="0" /><path
       d="m 166.83789,233.38049 h -0.73437 v -0.48438 q -0.3711,0.29297 -0.71094,0.44922 -0.33985,0.15625 -0.75,0.15625 -0.6875,0 -1.07031,-0.41797 -0.38282,-0.42187 -0.38282,-1.23437 v -2.83203 h 0.73438 v 2.48437 q 0,0.33203 0.0312,0.57031 0.0312,0.23438 0.13281,0.40235 0.10547,0.17187 0.27344,0.25 0.16797,0.0781 0.48828,0.0781 0.28516,0 0.62109,-0.14843 0.33985,-0.14844 0.63282,-0.37891 v -3.25781 h 0.73437 z"
       style="font-size:8px;fill:#ff0000;fill-opacity:1"
       id="path4577"
       inkscape:connector-curvature="0" /><path
       d="m 171.40039,232.12268 q 0,0.59765 -0.49609,0.98046 -0.49219,0.38282 -1.34766,0.38282 -0.48437,0 -0.89062,-0.11328 -0.40235,-0.11719 -0.67579,-0.25391 v -0.82422 h 0.0391 q 0.34765,0.26172 0.77343,0.41797 0.42579,0.15234 0.81641,0.15234 0.48438,0 0.75781,-0.15625 0.27344,-0.15625 0.27344,-0.49218 0,-0.25782 -0.14844,-0.39063 -0.14843,-0.13281 -0.57031,-0.22656 -0.15625,-0.0352 -0.41016,-0.082 -0.25,-0.0469 -0.45703,-0.10157 -0.57422,-0.15234 -0.8164,-0.44531 -0.23828,-0.29687 -0.23828,-0.72656 0,-0.26953 0.10937,-0.50781 0.11328,-0.23828 0.33984,-0.42578 0.21875,-0.1836 0.55469,-0.28907 0.33985,-0.10937 0.75781,-0.10937 0.39063,0 0.78907,0.0976 0.40234,0.0937 0.66797,0.23047 v 0.78516 h -0.0391 q -0.28125,-0.20703 -0.68359,-0.34766 -0.40234,-0.14453 -0.78906,-0.14453 -0.40235,0 -0.67969,0.15625 -0.27734,0.15235 -0.27734,0.45703 0,0.26953 0.16796,0.40625 0.16407,0.13672 0.53125,0.22266 0.20313,0.0469 0.45313,0.0937 0.25391,0.0469 0.42187,0.0859 0.51172,0.11718 0.78907,0.40234 0.27734,0.28906 0.27734,0.76563 z"
       style="font-size:8px;fill:#ff0000;fill-opacity:1"
       id="path4579"
       inkscape:connector-curvature="0" /><path
       d="m 179.24414,231.74377 h -0.86328 v 1.63672 h -0.75 v -1.63672 h -2.78516 v -0.89844 l 2.81641,-3.28125 h 0.71875 v 3.55469 h 0.86328 z m -1.61328,-0.625 v -2.625 l -2.25391,2.625 z"
       style="font-size:8px;fill:#ff0000;fill-opacity:1"
       id="path4581"
       inkscape:connector-curvature="0" /><path
       d="m 187.03711,229.32189 q 0,0.38672 -0.13672,0.71875 -0.13281,0.32813 -0.375,0.57032 -0.30078,0.30078 -0.71094,0.45312 -0.41015,0.14844 -1.03515,0.14844 h -0.77344 v 2.16797 h -0.77344 v -5.81641 h 1.57813 q 0.52343,0 0.88672,0.0899 0.36328,0.0859 0.64453,0.27343 0.33203,0.22266 0.51172,0.55469 0.18359,0.33203 0.18359,0.83984 z m -0.80469,0.0195 q 0,-0.30079 -0.10547,-0.52344 -0.10547,-0.22266 -0.32031,-0.36328 -0.1875,-0.1211 -0.42969,-0.17188 -0.23828,-0.0547 -0.60547,-0.0547 h -0.76562 v 2.32422 h 0.65234 q 0.46875,0 0.76172,-0.082 0.29297,-0.0859 0.47656,-0.26953 0.1836,-0.1875 0.25782,-0.39453 0.0781,-0.20703 0.0781,-0.46484 z"
       style="font-size:8px;fill:#ff0000;fill-opacity:1"
       id="path4583"
       inkscape:connector-curvature="0" /><path
       d="m 191.5332,231.2008 q 0,1.06641 -0.54687,1.68359 -0.54688,0.61719 -1.46485,0.61719 -0.92578,0 -1.47265,-0.61719 -0.54297,-0.61718 -0.54297,-1.68359 0,-1.06641 0.54297,-1.68359 0.54687,-0.6211 1.47265,-0.6211 0.91797,0 1.46485,0.6211 0.54687,0.61718 0.54687,1.68359 z m -0.75781,0 q 0,-0.84766 -0.33203,-1.25781 -0.33203,-0.41406 -0.92188,-0.41406 -0.59765,0 -0.92968,0.41406 -0.32813,0.41015 -0.32813,1.25781 0,0.82031 0.33203,1.24609 0.33203,0.42188 0.92578,0.42188 0.58594,0 0.91797,-0.41797 0.33594,-0.42187 0.33594,-1.25 z"
       style="font-size:8px;fill:#ff0000;fill-opacity:1"
       id="path4585"
       inkscape:connector-curvature="0" /><path
       d="m 195.39648,229.81799 h -0.0391 q -0.16406,-0.0391 -0.32031,-0.0547 -0.15234,-0.0195 -0.36328,-0.0195 -0.33985,0 -0.65625,0.15234 -0.31641,0.14844 -0.60938,0.38672 v 3.09766 h -0.73437 v -4.36328 h 0.73437 v 0.64453 q 0.4375,-0.35156 0.76953,-0.4961 0.33594,-0.14843 0.6836,-0.14843 0.1914,0 0.27734,0.0117 0.0859,0.008 0.25781,0.0351 z"
       style="font-size:8px;fill:#ff0000;fill-opacity:1"
       id="path4587"
       inkscape:connector-curvature="0" /><path
       d="m 198.36133,233.34143 q -0.20703,0.0547 -0.45313,0.0898 -0.24218,0.0352 -0.43359,0.0352 -0.66797,0 -1.01563,-0.35938 -0.34765,-0.35937 -0.34765,-1.15234 v -2.32032 h -0.4961 v -0.61718 h 0.4961 v -1.25391 h 0.73437 v 1.25391 h 1.51563 v 0.61718 h -1.51563 v 1.98829 q 0,0.34375 0.0156,0.53906 0.0156,0.1914 0.10937,0.35937 0.0859,0.15625 0.23438,0.23047 0.15234,0.0703 0.46094,0.0703 0.17968,0 0.375,-0.0508 0.19531,-0.0547 0.28125,-0.0898 h 0.0391 z"
       style="font-size:8px;fill:#ff0000;fill-opacity:1"
       id="path4589"
       inkscape:connector-curvature="0" /><path
       d="m 207.03711,230.47814 q 0,0.79297 -0.34766,1.4375 -0.34375,0.64454 -0.91797,1 -0.39843,0.2461 -0.89062,0.35547 -0.48828,0.10938 -1.28906,0.10938 h -1.46875 v -5.81641 h 1.45312 q 0.85156,0 1.35156,0.125 0.50391,0.1211 0.85157,0.33594 0.59375,0.37109 0.92578,0.98828 0.33203,0.61719 0.33203,1.46484 z m -0.80859,-0.0117 q 0,-0.6836 -0.23829,-1.15235 -0.23828,-0.46875 -0.71093,-0.73828 -0.34375,-0.19531 -0.73047,-0.26953 -0.38672,-0.0781 -0.92578,-0.0781 h -0.72657 v 4.48829 h 0.72657 q 0.55859,0 0.97265,-0.082 0.41797,-0.082 0.76563,-0.30468 0.43359,-0.27735 0.64844,-0.73047 0.21875,-0.45313 0.21875,-1.13281 z"
       style="font-size:8px;fill:#ff0000;fill-opacity:1"
       id="path4591"
       inkscape:connector-curvature="0" /><path
       d="m 212.78711,232.95861 q -0.21484,0.0937 -0.39063,0.17578 -0.17187,0.082 -0.45312,0.17188 -0.23828,0.0742 -0.51953,0.125 -0.27735,0.0547 -0.61328,0.0547 -0.63282,0 -1.15235,-0.17578 -0.51562,-0.17969 -0.89843,-0.5586 -0.375,-0.37109 -0.58594,-0.9414 -0.21094,-0.57422 -0.21094,-1.33204 0,-0.71875 0.20313,-1.28515 0.20312,-0.56641 0.58593,-0.95703 0.3711,-0.37891 0.89453,-0.57813 0.52735,-0.19922 1.16797,-0.19922 0.46875,0 0.9336,0.11328 0.46875,0.11329 1.03906,0.39844 v 0.91797 h -0.0586 q -0.48047,-0.40234 -0.95313,-0.58594 -0.47266,-0.18359 -1.01172,-0.18359 -0.4414,0 -0.79687,0.14453 -0.35157,0.14063 -0.62891,0.44141 -0.26953,0.29297 -0.42187,0.74218 -0.14844,0.44532 -0.14844,1.03125 0,0.61329 0.16406,1.05469 0.16797,0.44141 0.42969,0.71875 0.27344,0.28906 0.63672,0.42969 0.36718,0.13672 0.77343,0.13672 0.5586,0 1.04688,-0.19141 0.48828,-0.1914 0.91406,-0.57422 h 0.0547 z"
       style="font-size:8px;fill:#ff0000;fill-opacity:1"
       id="path4593"
       inkscape:connector-curvature="0" /><path
       d="m 221.61523,230.47814 q 0,0.79297 -0.34765,1.4375 -0.34375,0.64454 -0.91797,1 -0.39844,0.2461 -0.89063,0.35547 -0.48828,0.10938 -1.28906,0.10938 h -1.46875 v -5.81641 h 1.45313 q 0.85156,0 1.35156,0.125 0.50391,0.1211 0.85156,0.33594 0.59375,0.37109 0.92578,0.98828 0.33203,0.61719 0.33203,1.46484 z m -0.80859,-0.0117 q 0,-0.6836 -0.23828,-1.15235 -0.23828,-0.46875 -0.71094,-0.73828 -0.34375,-0.19531 -0.73047,-0.26953 -0.38672,-0.0781 -0.92578,-0.0781 h -0.72656 v 4.48829 h 0.72656 q 0.5586,0 0.97266,-0.082 0.41797,-0.082 0.76562,-0.30468 0.4336,-0.27735 0.64844,-0.73047 0.21875,-0.45313 0.21875,-1.13281 z"
       style="font-size:8px;fill:#ff0000;fill-opacity:1"
       id="path4595"
       inkscape:connector-curvature="0" /><path
       d="m 223.60352,228.28674 h -0.82813 v -0.76172 h 0.82813 z m -0.0469,5.09375 h -0.73437 v -4.36328 h 0.73437 z"
       style="font-size:8px;fill:#ff0000;fill-opacity:1"
       id="path4597"
       inkscape:connector-curvature="0" /><path
       d="m 228.10352,232.12268 q 0,0.59765 -0.4961,0.98046 -0.49219,0.38282 -1.34765,0.38282 -0.48438,0 -0.89063,-0.11328 -0.40234,-0.11719 -0.67578,-0.25391 v -0.82422 h 0.0391 q 0.34766,0.26172 0.77344,0.41797 0.42578,0.15234 0.81641,0.15234 0.48437,0 0.75781,-0.15625 0.27344,-0.15625 0.27344,-0.49218 0,-0.25782 -0.14844,-0.39063 -0.14844,-0.13281 -0.57031,-0.22656 -0.15625,-0.0352 -0.41016,-0.082 -0.25,-0.0469 -0.45703,-0.10157 -0.57422,-0.15234 -0.81641,-0.44531 -0.23828,-0.29687 -0.23828,-0.72656 0,-0.26953 0.10938,-0.50781 0.11328,-0.23828 0.33984,-0.42578 0.21875,-0.1836 0.55469,-0.28907 0.33984,-0.10937 0.75781,-0.10937 0.39062,0 0.78906,0.0976 0.40235,0.0937 0.66797,0.23047 v 0.78516 h -0.0391 q -0.28125,-0.20703 -0.6836,-0.34766 -0.40234,-0.14453 -0.78906,-0.14453 -0.40234,0 -0.67969,0.15625 -0.27734,0.15235 -0.27734,0.45703 0,0.26953 0.16797,0.40625 0.16406,0.13672 0.53125,0.22266 0.20312,0.0469 0.45312,0.0937 0.25391,0.0469 0.42188,0.0859 0.51172,0.11718 0.78906,0.40234 0.27735,0.28906 0.27735,0.76563 z"
       style="font-size:8px;fill:#ff0000;fill-opacity:1"
       id="path4599"
       inkscape:connector-curvature="0" /><path
       d="m 231.42383,233.34143 q -0.20703,0.0547 -0.45313,0.0898 -0.24218,0.0352 -0.43359,0.0352 -0.66797,0 -1.01563,-0.35938 -0.34765,-0.35937 -0.34765,-1.15234 v -2.32032 h -0.4961 v -0.61718 h 0.4961 v -1.25391 h 0.73437 v 1.25391 h 1.51563 v 0.61718 h -1.51563 v 1.98829 q 0,0.34375 0.0156,0.53906 0.0156,0.1914 0.10937,0.35937 0.0859,0.15625 0.23438,0.23047 0.15234,0.0703 0.46094,0.0703 0.17968,0 0.375,-0.0508 0.19531,-0.0547 0.28125,-0.0898 h 0.0391 z"
       style="font-size:8px;fill:#ff0000;fill-opacity:1"
       id="path4601"
       inkscape:connector-curvature="0" /><path
       d="m 239.57227,231.59143 q 0,0.43359 -0.16407,0.76562 -0.16406,0.33203 -0.4414,0.54688 -0.32813,0.25781 -0.72266,0.36718 -0.39062,0.10938 -0.99609,0.10938 h -2.0625 v -5.81641 h 1.72265 q 0.63672,0 0.95313,0.0469 0.3164,0.0469 0.60547,0.19531 0.32031,0.16797 0.46484,0.43359 0.14453,0.26172 0.14453,0.62891 0,0.41406 -0.21094,0.70703 -0.21093,0.28906 -0.5625,0.46484 v 0.0312 q 0.58985,0.1211 0.92969,0.51954 0.33985,0.39453 0.33985,1 z m -1.30079,-2.6211 q 0,-0.21094 -0.0703,-0.35547 -0.0703,-0.14453 -0.22656,-0.23437 -0.18359,-0.10547 -0.44531,-0.12891 -0.26172,-0.0273 -0.64844,-0.0273 h -0.92188 v 1.67969 h 1 q 0.36329,0 0.57813,-0.0352 0.21484,-0.0391 0.39844,-0.15625 0.18359,-0.11719 0.25781,-0.30078 0.0781,-0.1875 0.0781,-0.44141 z m 0.4961,2.65235 q 0,-0.35157 -0.10547,-0.5586 -0.10547,-0.20703 -0.38281,-0.35156 -0.1875,-0.0977 -0.45703,-0.125 -0.26563,-0.0312 -0.64844,-0.0312 h -1.21485 v 2.16406 h 1.02344 q 0.50781,0 0.83203,-0.0508 0.32422,-0.0547 0.53125,-0.19531 0.21875,-0.15235 0.32032,-0.34766 0.10156,-0.19531 0.10156,-0.5039 z"
       style="font-size:8px;fill:#ff0000;fill-opacity:1"
       id="path4603"
       inkscape:connector-curvature="0" /><path
       d="m 244.33008,231.2008 q 0,1.06641 -0.54688,1.68359 -0.54687,0.61719 -1.46484,0.61719 -0.92578,0 -1.47266,-0.61719 -0.54297,-0.61718 -0.54297,-1.68359 0,-1.06641 0.54297,-1.68359 0.54688,-0.6211 1.47266,-0.6211 0.91797,0 1.46484,0.6211 0.54688,0.61718 0.54688,1.68359 z m -0.75781,0 q 0,-0.84766 -0.33204,-1.25781 -0.33203,-0.41406 -0.92187,-0.41406 -0.59766,0 -0.92969,0.41406 -0.32812,0.41015 -0.32812,1.25781 0,0.82031 0.33203,1.24609 0.33203,0.42188 0.92578,0.42188 0.58594,0 0.91797,-0.41797 0.33594,-0.42187 0.33594,-1.25 z"
       style="font-size:8px;fill:#ff0000;fill-opacity:1"
       id="path4605"
       inkscape:connector-curvature="0" /><path
       d="m 248.86133,233.38049 h -0.73047 v -0.46485 q -0.0977,0.0664 -0.26563,0.1875 -0.16406,0.11719 -0.32031,0.1875 -0.18359,0.0899 -0.42187,0.14844 -0.23828,0.0625 -0.5586,0.0625 -0.58984,0 -1,-0.39062 -0.41015,-0.39063 -0.41015,-0.9961 0,-0.49609 0.21093,-0.80078 0.21485,-0.30859 0.60938,-0.48437 0.39844,-0.17578 0.95703,-0.23828 0.55859,-0.0625 1.19922,-0.0937 v -0.11329 q 0,-0.25 -0.0898,-0.41406 -0.0859,-0.16406 -0.25,-0.25781 -0.15625,-0.0898 -0.375,-0.12109 -0.21875,-0.0312 -0.45704,-0.0312 -0.28906,0 -0.64453,0.0781 -0.35547,0.0742 -0.73437,0.21875 h -0.0391 v -0.74609 q 0.21484,-0.0586 0.62109,-0.12891 0.40625,-0.0703 0.80078,-0.0703 0.46094,0 0.80078,0.0781 0.34375,0.0742 0.59375,0.25782 0.2461,0.17968 0.375,0.46484 0.12891,0.28516 0.12891,0.70703 z m -0.73047,-1.07422 v -1.21484 q -0.33594,0.0195 -0.79297,0.0586 -0.45312,0.0391 -0.71875,0.11328 -0.31641,0.0898 -0.51172,0.28125 -0.19531,0.1875 -0.19531,0.51953 0,0.375 0.22656,0.56641 0.22656,0.1875 0.69141,0.1875 0.38672,0 0.70703,-0.14844 0.32031,-0.15234 0.59375,-0.36328 z"
       style="font-size:8px;fill:#ff0000;fill-opacity:1"
       id="path4607"
       inkscape:connector-curvature="0" /><path
       d="m 253.00586,229.81799 h -0.0391 q -0.16407,-0.0391 -0.32032,-0.0547 -0.15234,-0.0195 -0.36328,-0.0195 -0.33984,0 -0.65625,0.15234 -0.3164,0.14844 -0.60937,0.38672 v 3.09766 h -0.73438 v -4.36328 h 0.73438 v 0.64453 q 0.4375,-0.35156 0.76953,-0.4961 0.33594,-0.14843 0.68359,-0.14843 0.19141,0 0.27735,0.0117 0.0859,0.008 0.25781,0.0351 z"
       style="font-size:8px;fill:#ff0000;fill-opacity:1"
       id="path4609"
       inkscape:connector-curvature="0" /><path
       d="m 257.24414,233.38049 h -0.73437 v -0.45703 q -0.31641,0.27343 -0.66016,0.42578 -0.34375,0.15234 -0.74609,0.15234 -0.78125,0 -1.24219,-0.60156 -0.45703,-0.60156 -0.45703,-1.66797 0,-0.55469 0.15625,-0.98828 0.16015,-0.43359 0.42968,-0.73828 0.26563,-0.29688 0.61719,-0.45313 0.35547,-0.15625 0.73438,-0.15625 0.34375,0 0.60937,0.0742 0.26563,0.0703 0.5586,0.22266 v -1.89063 h 0.73437 z m -0.73437,-1.07422 v -2.50391 q -0.29688,-0.13281 -0.53125,-0.18359 -0.23438,-0.0508 -0.51172,-0.0508 -0.61719,0 -0.96094,0.42969 -0.34375,0.42968 -0.34375,1.21875 0,0.77734 0.26562,1.18359 0.26563,0.40234 0.85157,0.40234 0.3125,0 0.63281,-0.13672 0.32031,-0.14062 0.59766,-0.35937 z"
       style="font-size:8px;fill:#ff0000;fill-opacity:1"
       id="path4611"
       inkscape:connector-curvature="0" /><path
       d="m 263.81445,231.18908 h -2.4375 v -0.70703 h 2.4375 z"
       style="font-size:8px;fill:#ff0000;fill-opacity:1"
       id="path4613"
       inkscape:connector-curvature="0" /><path
       d="m 271.28711,230.57971 q 0.1875,0.16797 0.30859,0.42187 0.1211,0.25391 0.1211,0.65625 0,0.39844 -0.14453,0.73047 -0.14454,0.33203 -0.40625,0.57813 -0.29297,0.27343 -0.69141,0.40625 -0.39453,0.1289 -0.86719,0.1289 -0.48437,0 -0.95312,-0.11719 -0.46875,-0.11328 -0.76953,-0.25 v -0.8164 h 0.0586 q 0.33203,0.21875 0.78125,0.36328 0.44922,0.14453 0.86719,0.14453 0.24609,0 0.52343,-0.082 0.27735,-0.082 0.44922,-0.24219 0.17969,-0.17187 0.26563,-0.3789 0.0898,-0.20704 0.0898,-0.52344 0,-0.3125 -0.10156,-0.51563 -0.0977,-0.20703 -0.27344,-0.32422 -0.17578,-0.12109 -0.42578,-0.16406 -0.25,-0.0469 -0.53906,-0.0469 h -0.35156 v -0.64844 h 0.27343 q 0.59375,0 0.94532,-0.24609 0.35546,-0.25 0.35546,-0.72657 0,-0.21093 -0.0898,-0.36718 -0.0898,-0.16016 -0.25,-0.26172 -0.16797,-0.10157 -0.35937,-0.14063 -0.19141,-0.0391 -0.4336,-0.0391 -0.37109,0 -0.78906,0.13281 -0.41797,0.13281 -0.78906,0.375 h -0.0391 v -0.8164 q 0.27735,-0.13672 0.73829,-0.25 0.46484,-0.11719 0.89843,-0.11719 0.42578,0 0.75,0.0781 0.32422,0.0781 0.58594,0.25 0.28125,0.1875 0.42578,0.45313 0.14453,0.26562 0.14453,0.62109 0,0.48438 -0.34375,0.84766 -0.33984,0.35937 -0.80468,0.45312 v 0.0547 q 0.1875,0.0312 0.42968,0.13281 0.24219,0.0977 0.41016,0.2461 z"
       style="font-size:8px;fill:#ff0000;fill-opacity:1"
       id="path4615"
       inkscape:connector-curvature="0" /><path
       d="m 279.41602,233.38049 h -0.73438 v -2.48438 q 0,-0.28125 -0.0273,-0.54297 -0.0234,-0.26171 -0.10547,-0.41796 -0.0899,-0.16797 -0.25781,-0.25391 -0.16797,-0.0859 -0.48438,-0.0859 -0.30859,0 -0.61719,0.15625 -0.30859,0.15235 -0.61718,0.39063 0.0117,0.0898 0.0195,0.21093 0.008,0.11719 0.008,0.23438 v 2.79297 h -0.73438 v -2.48438 q 0,-0.28906 -0.0273,-0.54687 -0.0234,-0.26172 -0.10547,-0.41797 -0.0898,-0.16797 -0.25781,-0.25 -0.16797,-0.0859 -0.48438,-0.0859 -0.30078,0 -0.60546,0.14844 -0.30079,0.14844 -0.60157,0.37891 v 3.25781 h -0.73437 v -4.36328 h 0.73437 v 0.48437 q 0.34375,-0.28515 0.6836,-0.44531 0.34375,-0.16016 0.73047,-0.16016 0.44531,0 0.7539,0.1875 0.3125,0.1875 0.46485,0.51953 0.44531,-0.375 0.8125,-0.53906 0.36718,-0.16797 0.78515,-0.16797 0.71875,0 1.0586,0.4375 0.34375,0.4336 0.34375,1.21485 z"
       style="font-size:8px;fill:#ff0000;fill-opacity:1"
       id="path4617"
       inkscape:connector-curvature="0" /><path
       d="m 287.19727,233.38049 h -0.73438 v -2.48438 q 0,-0.28125 -0.0273,-0.54297 -0.0234,-0.26171 -0.10547,-0.41796 -0.0899,-0.16797 -0.25781,-0.25391 -0.16797,-0.0859 -0.48438,-0.0859 -0.30859,0 -0.61719,0.15625 -0.30859,0.15235 -0.61718,0.39063 0.0117,0.0898 0.0195,0.21093 0.008,0.11719 0.008,0.23438 v 2.79297 h -0.73438 v -2.48438 q 0,-0.28906 -0.0273,-0.54687 -0.0234,-0.26172 -0.10547,-0.41797 -0.0898,-0.16797 -0.25781,-0.25 -0.16797,-0.0859 -0.48438,-0.0859 -0.30078,0 -0.60546,0.14844 -0.30079,0.14844 -0.60157,0.37891 v 3.25781 h -0.73437 v -4.36328 h 0.73437 v 0.48437 q 0.34375,-0.28515 0.6836,-0.44531 0.34375,-0.16016 0.73047,-0.16016 0.44531,0 0.7539,0.1875 0.3125,0.1875 0.46485,0.51953 0.44531,-0.375 0.8125,-0.53906 0.36718,-0.16797 0.78515,-0.16797 0.71875,0 1.0586,0.4375 0.34375,0.4336 0.34375,1.21485 z"
       style="font-size:8px;fill:#ff0000;fill-opacity:1"
       id="path4619"
       inkscape:connector-curvature="0" /><path
       d="m 294.54102,232.12268 q 0,0.59765 -0.4961,0.98046 -0.49219,0.38282 -1.34765,0.38282 -0.48438,0 -0.89063,-0.11328 -0.40234,-0.11719 -0.67578,-0.25391 v -0.82422 h 0.0391 q 0.34766,0.26172 0.77344,0.41797 0.42578,0.15234 0.81641,0.15234 0.48437,0 0.75781,-0.15625 0.27344,-0.15625 0.27344,-0.49218 0,-0.25782 -0.14844,-0.39063 -0.14844,-0.13281 -0.57031,-0.22656 -0.15625,-0.0352 -0.41016,-0.082 -0.25,-0.0469 -0.45703,-0.10157 -0.57422,-0.15234 -0.81641,-0.44531 -0.23828,-0.29687 -0.23828,-0.72656 0,-0.26953 0.10938,-0.50781 0.11328,-0.23828 0.33984,-0.42578 0.21875,-0.1836 0.55469,-0.28907 0.33984,-0.10937 0.75781,-0.10937 0.39062,0 0.78906,0.0976 0.40235,0.0937 0.66797,0.23047 v 0.78516 h -0.0391 q -0.28125,-0.20703 -0.6836,-0.34766 -0.40234,-0.14453 -0.78906,-0.14453 -0.40234,0 -0.67969,0.15625 -0.27734,0.15235 -0.27734,0.45703 0,0.26953 0.16797,0.40625 0.16406,0.13672 0.53125,0.22266 0.20312,0.0469 0.45312,0.0937 0.25391,0.0469 0.42188,0.0859 0.51172,0.11718 0.78906,0.40234 0.27735,0.28906 0.27735,0.76563 z"
       style="font-size:8px;fill:#ff0000;fill-opacity:1"
       id="path4621"
       inkscape:connector-curvature="0" /><path
       d="m 298.82227,233.10705 q -0.36719,0.17578 -0.69922,0.27344 -0.32813,0.0976 -0.69922,0.0976 -0.47266,0 -0.86719,-0.13671 -0.39453,-0.14063 -0.67578,-0.42188 -0.28516,-0.28125 -0.44141,-0.71094 -0.15625,-0.42968 -0.15625,-1.0039 0,-1.07032 0.58594,-1.67969 0.58984,-0.60938 1.55469,-0.60938 0.375,0 0.73437,0.10547 0.36328,0.10547 0.66407,0.25782 v 0.8164 h -0.0391 q -0.33593,-0.26172 -0.69531,-0.40234 -0.35547,-0.14063 -0.69531,-0.14063 -0.625,0 -0.98828,0.42188 -0.35938,0.41797 -0.35938,1.23047 0,0.78906 0.35156,1.21484 0.35547,0.42188 0.9961,0.42188 0.22265,0 0.45312,-0.0586 0.23047,-0.0586 0.41407,-0.15234 0.16015,-0.082 0.30078,-0.17188 0.14062,-0.0937 0.22265,-0.16015 h 0.0391 z"
       style="font-size:8px;fill:#ff0000;fill-opacity:1"
       id="path4623"
       inkscape:connector-curvature="0" /><path
       d="m 302.49023,229.81799 h -0.0391 q -0.16406,-0.0391 -0.32031,-0.0547 -0.15234,-0.0195 -0.36328,-0.0195 -0.33985,0 -0.65625,0.15234 -0.31641,0.14844 -0.60938,0.38672 v 3.09766 h -0.73437 v -4.36328 h 0.73437 v 0.64453 q 0.4375,-0.35156 0.76953,-0.4961 0.33594,-0.14843 0.6836,-0.14843 0.1914,0 0.27734,0.0117 0.0859,0.008 0.25781,0.0351 z"
       style="font-size:8px;fill:#ff0000;fill-opacity:1"
       id="path4625"
       inkscape:connector-curvature="0" /><path
       d="m 306.8418,231.27502 h -3.21485 q 0,0.40234 0.1211,0.70312 0.12109,0.29688 0.33203,0.48829 0.20312,0.1875 0.48047,0.28125 0.28125,0.0937 0.61718,0.0937 0.44532,0 0.89454,-0.17579 0.45312,-0.17968 0.64453,-0.35156 h 0.0391 v 0.80078 q -0.37109,0.15625 -0.75781,0.26172 -0.38672,0.10547 -0.8125,0.10547 -1.08594,0 -1.69532,-0.58594 -0.60937,-0.58984 -0.60937,-1.67187 0,-1.07031 0.58203,-1.69922 0.58594,-0.62891 1.53906,-0.62891 0.88282,0 1.35938,0.51563 0.48047,0.51562 0.48047,1.46484 z m -0.71485,-0.5625 q -0.004,-0.57813 -0.29297,-0.89453 -0.28515,-0.31641 -0.87109,-0.31641 -0.58984,0 -0.94141,0.34766 -0.34765,0.34765 -0.39453,0.86328 z"
       style="font-size:8px;fill:#ff0000;fill-opacity:1"
       id="path4627"
       inkscape:connector-curvature="0" /><path
       d="m 313.44336,229.01721 -1.13672,4.36328 h -0.67969 l -1.12109,-3.36328 -1.11328,3.36328 h -0.67578 l -1.14844,-4.36328 h 0.76562 l 0.80079,3.3789 1.08984,-3.3789 h 0.60547 l 1.11719,3.3789 0.75781,-3.3789 z"
       style="font-size:8px;fill:#ff0000;fill-opacity:1"
       id="path4629"
       inkscape:connector-curvature="0" /><path
       d="m 320.96289,233.38049 h -0.73437 v -2.48438 q 0,-0.30078 -0.0352,-0.5625 -0.0352,-0.26562 -0.12891,-0.41406 -0.0977,-0.16406 -0.28125,-0.24219 -0.18359,-0.082 -0.47656,-0.082 -0.30078,0 -0.62891,0.14844 -0.32812,0.14844 -0.6289,0.37891 v 3.25781 h -0.73438 v -6.07813 h 0.73438 v 2.19922 q 0.34375,-0.28515 0.71094,-0.44531 0.36718,-0.16016 0.7539,-0.16016 0.70703,0 1.07813,0.42578 0.37109,0.42579 0.37109,1.22657 z"
       style="font-size:8px;fill:#ff0000;fill-opacity:1"
       id="path4631"
       inkscape:connector-curvature="0" /><path
       d="m 326.0957,231.2008 q 0,1.06641 -0.54687,1.68359 -0.54688,0.61719 -1.46485,0.61719 -0.92578,0 -1.47265,-0.61719 -0.54297,-0.61718 -0.54297,-1.68359 0,-1.06641 0.54297,-1.68359 0.54687,-0.6211 1.47265,-0.6211 0.91797,0 1.46485,0.6211 0.54687,0.61718 0.54687,1.68359 z m -0.75781,0 q 0,-0.84766 -0.33203,-1.25781 -0.33203,-0.41406 -0.92188,-0.41406 -0.59765,0 -0.92968,0.41406 -0.32813,0.41015 -0.32813,1.25781 0,0.82031 0.33203,1.24609 0.33203,0.42188 0.92578,0.42188 0.58594,0 0.91797,-0.41797 0.33594,-0.42187 0.33594,-1.25 z"
       style="font-size:8px;fill:#ff0000;fill-opacity:1"
       id="path4633"
       inkscape:connector-curvature="0" /><path
       d="m 327.97852,233.38049 h -0.73438 v -6.07813 h 0.73438 z"
       style="font-size:8px;fill:#ff0000;fill-opacity:1"
       id="path4635"
       inkscape:connector-curvature="0" /><path
       d="m 333.06055,231.27502 h -3.21485 q 0,0.40234 0.1211,0.70312 0.12109,0.29688 0.33203,0.48829 0.20312,0.1875 0.48047,0.28125 0.28125,0.0937 0.61718,0.0937 0.44532,0 0.89454,-0.17579 0.45312,-0.17968 0.64453,-0.35156 h 0.0391 v 0.80078 q -0.37109,0.15625 -0.75781,0.26172 -0.38672,0.10547 -0.8125,0.10547 -1.08594,0 -1.69532,-0.58594 -0.60937,-0.58984 -0.60937,-1.67187 0,-1.07031 0.58203,-1.69922 0.58594,-0.62891 1.53906,-0.62891 0.88282,0 1.35938,0.51563 0.48047,0.51562 0.48047,1.46484 z m -0.71485,-0.5625 q -0.004,-0.57813 -0.29297,-0.89453 -0.28515,-0.31641 -0.87109,-0.31641 -0.58984,0 -0.94141,0.34766 -0.34765,0.34765 -0.39453,0.86328 z"
       style="font-size:8px;fill:#ff0000;fill-opacity:1"
       id="path4637"
       inkscape:connector-curvature="0" /><path
       d="m 337.29102,232.12268 q 0,0.59765 -0.4961,0.98046 -0.49219,0.38282 -1.34765,0.38282 -0.48438,0 -0.89063,-0.11328 -0.40234,-0.11719 -0.67578,-0.25391 v -0.82422 h 0.0391 q 0.34766,0.26172 0.77344,0.41797 0.42578,0.15234 0.81641,0.15234 0.48437,0 0.75781,-0.15625 0.27344,-0.15625 0.27344,-0.49218 0,-0.25782 -0.14844,-0.39063 -0.14844,-0.13281 -0.57031,-0.22656 -0.15625,-0.0352 -0.41016,-0.082 -0.25,-0.0469 -0.45703,-0.10157 -0.57422,-0.15234 -0.81641,-0.44531 -0.23828,-0.29687 -0.23828,-0.72656 0,-0.26953 0.10938,-0.50781 0.11328,-0.23828 0.33984,-0.42578 0.21875,-0.1836 0.55469,-0.28907 0.33984,-0.10937 0.75781,-0.10937 0.39062,0 0.78906,0.0976 0.40235,0.0937 0.66797,0.23047 v 0.78516 h -0.0391 q -0.28125,-0.20703 -0.6836,-0.34766 -0.40234,-0.14453 -0.78906,-0.14453 -0.40234,0 -0.67969,0.15625 -0.27734,0.15235 -0.27734,0.45703 0,0.26953 0.16797,0.40625 0.16406,0.13672 0.53125,0.22266 0.20312,0.0469 0.45312,0.0937 0.25391,0.0469 0.42188,0.0859 0.51172,0.11718 0.78906,0.40234 0.27735,0.28906 0.27735,0.76563 z"
       style="font-size:8px;fill:#ff0000;fill-opacity:1"
       id="path4639"
       inkscape:connector-curvature="0" /></g></svg>