<?xml version="1.0" encoding="UTF-8" standalone="no"?>
<svg
   xmlns:dc="http://purl.org/dc/elements/1.1/"
   xmlns:cc="http://creativecommons.org/ns#"
   xmlns:rdf="http://www.w3.org/1999/02/22-rdf-syntax-ns#"
   xmlns:svg="http://www.w3.org/2000/svg"
   xmlns="http://www.w3.org/2000/svg"
   xmlns:sodipodi="http://sodipodi.sourceforge.net/DTD/sodipodi-0.dtd"
   xmlns:inkscape="http://www.inkscape.org/namespaces/inkscape"
   version="1.1"
   width="47.799999mm"
   height="28.9mm"
   viewBox="0 0 300mm 200mm"
   xml:space="preserve"
   id="svg12"
   sodipodi:docname="voltage_meter_dsun.svg"
   inkscape:version="0.92.1 r15371"><metadata
     id="metadata16"><rdf:RDF><cc:Work
         rdf:about=""><dc:format>image/svg+xml</dc:format><dc:type
           rdf:resource="http://purl.org/dc/dcmitype/StillImage" /><dc:title /></cc:Work></rdf:RDF></metadata><sodipodi:namedview
     pagecolor="#ffffff"
     bordercolor="#666666"
     borderopacity="1"
     objecttolerance="10"
     gridtolerance="10"
     guidetolerance="10"
     inkscape:pageopacity="0"
     inkscape:pageshadow="2"
     inkscape:window-width="1920"
     inkscape:window-height="1017"
     id="namedview14"
     showgrid="false"
     inkscape:zoom="4.1379822"
     inkscape:cx="22.908098"
     inkscape:cy="90.307172"
     inkscape:window-x="-8"
     inkscape:window-y="-8"
     inkscape:window-maximized="1"
     inkscape:current-layer="svg12" /><desc
     id="desc2">Created with Fabric.js 2.3.6</desc><defs
     id="defs4" /><g
     id="g6"
     transform="translate(0,-646.67717)" /><g
     transform="matrix(0.99986704,0,0,1.0463912,90.106268,55.039455)"
     id="g10"
     style="fill:none;stroke:#000000;stroke-opacity:1"><rect
       x="-85.984253"
       y="-50.078739"
       rx="0"
       ry="0"
       width="171.96851"
       height="100.15748"
       style="opacity:1;fill:none;fill-opacity:0;fill-rule:nonzero;stroke:#000000;stroke-width:1;stroke-linecap:butt;stroke-linejoin:miter;stroke-miterlimit:4;stroke-dasharray:none;stroke-opacity:1"
       id="rect8" /></g><g
     aria-label="Voltage Meter"
     style="font-style:normal;font-weight:normal;font-size:16px;line-height:1.25;font-family:sans-serif;letter-spacing:0px;word-spacing:0px;fill:#000000;fill-opacity:1;stroke:none"
     id="text4495"
     transform="translate(3.4790785,-649.80897)"><path
       d="m 54.134972,743.44035 -2.822917,7.75521 h -1.375 l -2.822917,-7.75521 h 1.104167 l 2.432292,6.82291 2.432291,-6.82291 z"
       style="font-size:10.66666698px;fill:#ff0000;fill-opacity:1"
       id="path4514"
       inkscape:connector-curvature="0" /><path
       d="m 59.67143,748.28931 q 0,1.42187 -0.729166,2.24479 -0.729167,0.82291 -1.953125,0.82291 -1.234375,0 -1.963542,-0.82291 -0.723959,-0.82292 -0.723959,-2.24479 0,-1.42188 0.723959,-2.2448 0.729167,-0.82812 1.963542,-0.82812 1.223958,0 1.953125,0.82812 0.729166,0.82292 0.729166,2.2448 z m -1.010416,0 q 0,-1.13021 -0.442709,-1.67709 -0.442708,-0.55208 -1.229166,-0.55208 -0.796875,0 -1.239584,0.55208 -0.4375,0.54688 -0.4375,1.67709 0,1.09375 0.442709,1.66145 0.442708,0.5625 1.234375,0.5625 0.78125,0 1.223958,-0.55729 0.447917,-0.5625 0.447917,-1.66666 z"
       style="font-size:10.66666698px;fill:#ff0000;fill-opacity:1"
       id="path4516"
       inkscape:connector-curvature="0" /><path
       d="M 62.181847,751.19556 H 61.20268 v -8.10417 h 0.979167 z"
       style="font-size:10.66666698px;fill:#ff0000;fill-opacity:1"
       id="path4518"
       inkscape:connector-curvature="0" /><path
       d="m 67.108931,751.14347 q -0.276042,0.0729 -0.604167,0.11979 -0.322917,0.0469 -0.578125,0.0469 -0.890625,0 -1.354167,-0.47917 -0.463541,-0.47916 -0.463541,-1.53646 v -3.09375 h -0.661459 v -0.82291 h 0.661459 v -1.67188 h 0.979166 v 1.67188 h 2.020834 v 0.82291 h -2.020834 v 2.65105 q 0,0.45833 0.02083,0.71875 0.02083,0.2552 0.145833,0.47916 0.114583,0.20834 0.3125,0.30729 0.203125,0.0937 0.614583,0.0937 0.239584,0 0.5,-0.0677 0.260417,-0.0729 0.375,-0.1198 h 0.05208 z"
       style="font-size:10.66666698px;fill:#ff0000;fill-opacity:1"
       id="path4520"
       inkscape:connector-curvature="0" /><path
       d="m 72.817265,751.19556 h -0.973959 v -0.6198 q -0.130208,0.0886 -0.354166,0.25 -0.21875,0.15625 -0.427084,0.25 -0.244791,0.1198 -0.5625,0.19792 -0.317708,0.0833 -0.744791,0.0833 -0.786459,0 -1.333334,-0.52083 -0.546875,-0.52083 -0.546875,-1.32812 0,-0.66146 0.28125,-1.06771 0.286459,-0.41146 0.8125,-0.64584 0.53125,-0.23437 1.276042,-0.3177 0.744792,-0.0833 1.598958,-0.125 v -0.15105 q 0,-0.33333 -0.119791,-0.55208 -0.114584,-0.21875 -0.333334,-0.34375 -0.208333,-0.11979 -0.5,-0.16146 -0.291666,-0.0417 -0.609375,-0.0417 -0.385416,0 -0.859375,0.10416 -0.473958,0.099 -0.979166,0.29167 h -0.05208 v -0.99479 q 0.286459,-0.0781 0.828125,-0.17188 0.541667,-0.0937 1.067709,-0.0937 0.614583,0 1.067708,0.10417 0.458333,0.099 0.791667,0.34375 0.328125,0.23958 0.5,0.61979 0.171875,0.38021 0.171875,0.94271 z m -0.973959,-1.4323 v -1.61979 q -0.447916,0.026 -1.057291,0.0781 -0.604167,0.0521 -0.958334,0.15104 -0.421875,0.11979 -0.682291,0.375 -0.260417,0.25 -0.260417,0.69271 0,0.5 0.302083,0.75521 0.302084,0.25 0.921875,0.25 0.515625,0 0.942709,-0.19792 0.427083,-0.20313 0.791666,-0.48438 z"
       style="font-size:10.66666698px;fill:#ff0000;fill-opacity:1"
       id="path4522"
       inkscape:connector-curvature="0" /><path
       d="m 79.431847,750.5341 q 0,1.47916 -0.671875,2.17187 -0.671875,0.69271 -2.067708,0.69271 -0.463542,0 -0.90625,-0.0677 -0.4375,-0.0625 -0.864583,-0.18229 v -1 h 0.05208 q 0.239583,0.0937 0.760417,0.22917 0.520833,0.14062 1.041666,0.14062 0.5,0 0.828125,-0.11979 0.328125,-0.11979 0.510417,-0.33333 0.182292,-0.20313 0.260417,-0.48959 0.07813,-0.28645 0.07813,-0.64062 v -0.53125 q -0.442709,0.35417 -0.848959,0.53125 -0.401041,0.17187 -1.026041,0.17187 -1.041667,0 -1.65625,-0.75 -0.609375,-0.7552 -0.609375,-2.125 0,-0.75 0.208333,-1.29166 0.213542,-0.54688 0.578125,-0.94271 0.338542,-0.36979 0.822917,-0.57292 0.484375,-0.20833 0.963541,-0.20833 0.505209,0 0.84375,0.10417 0.34375,0.0989 0.723959,0.30729 l 0.0625,-0.25 h 0.916666 z m -0.979166,-0.9375 v -3.17188 q -0.390625,-0.17708 -0.729167,-0.25 -0.333333,-0.0781 -0.666667,-0.0781 -0.807291,0 -1.270833,0.54166 -0.463542,0.54167 -0.463542,1.57292 0,0.97917 0.34375,1.48438 0.34375,0.5052 1.140625,0.5052 0.427084,0 0.854167,-0.16145 0.432292,-0.16667 0.791667,-0.44271 z"
       style="font-size:10.66666698px;fill:#ff0000;fill-opacity:1"
       id="path4524"
       inkscape:connector-curvature="0" /><path
       d="m 86.228723,748.38826 h -4.286458 q 0,0.53646 0.161458,0.9375 0.161458,0.39584 0.442708,0.65105 0.270834,0.25 0.640625,0.375 0.375,0.125 0.822917,0.125 0.59375,0 1.192708,-0.23438 0.604167,-0.23958 0.859375,-0.46875 h 0.05208 v 1.06771 q -0.494792,0.20833 -1.010417,0.34896 -0.515625,0.14062 -1.083333,0.14062 -1.447917,0 -2.260417,-0.78125 -0.8125,-0.78646 -0.8125,-2.22916 0,-1.42709 0.776042,-2.26563 0.78125,-0.83854 2.052083,-0.83854 1.177083,0 1.8125,0.6875 0.640625,0.6875 0.640625,1.95312 z m -0.953125,-0.75 q -0.0052,-0.77083 -0.390625,-1.1927 -0.380208,-0.42188 -1.161458,-0.42188 -0.786459,0 -1.255209,0.46354 -0.463541,0.46354 -0.526041,1.15104 z"
       style="font-size:10.66666698px;fill:#ff0000;fill-opacity:1"
       id="path4526"
       inkscape:connector-curvature="0" /><path
       d="m 98.447474,751.19556 h -1.03125 v -6.6823 l -2.15625,4.54688 h -0.614583 l -2.140625,-4.54688 v 6.6823 h -0.963542 v -7.75521 h 1.40625 l 2.067709,4.31771 2,-4.31771 h 1.432291 z"
       style="font-size:10.66666698px;fill:#ff0000;fill-opacity:1"
       id="path4528"
       inkscape:connector-curvature="0" /><path
       d="m 105.33289,748.38826 h -4.28646 q 0,0.53646 0.16146,0.9375 0.16146,0.39584 0.44271,0.65105 0.27083,0.25 0.64062,0.375 0.375,0.125 0.82292,0.125 0.59375,0 1.19271,-0.23438 0.60417,-0.23958 0.85937,-0.46875 h 0.0521 v 1.06771 q -0.49479,0.20833 -1.01042,0.34896 -0.51562,0.14062 -1.08333,0.14062 -1.44792,0 -2.26042,-0.78125 -0.8125,-0.78646 -0.8125,-2.22916 0,-1.42709 0.77604,-2.26563 0.78125,-0.83854 2.05209,-0.83854 1.17708,0 1.8125,0.6875 0.64062,0.6875 0.64062,1.95312 z m -0.95312,-0.75 q -0.005,-0.77083 -0.39063,-1.1927 -0.38021,-0.42188 -1.16146,-0.42188 -0.78646,0 -1.25521,0.46354 -0.46354,0.46354 -0.52604,1.15104 z"
       style="font-size:10.66666698px;fill:#ff0000;fill-opacity:1"
       id="path4530"
       inkscape:connector-curvature="0" /><path
       d="m 109.8381,751.14347 q -0.27604,0.0729 -0.60417,0.11979 -0.32292,0.0469 -0.57812,0.0469 -0.89063,0 -1.35417,-0.47917 -0.46354,-0.47916 -0.46354,-1.53646 v -3.09375 h -0.66146 v -0.82291 h 0.66146 v -1.67188 h 0.97916 v 1.67188 h 2.02084 v 0.82291 h -2.02084 v 2.65105 q 0,0.45833 0.0208,0.71875 0.0208,0.2552 0.14583,0.47916 0.11458,0.20834 0.3125,0.30729 0.20313,0.0937 0.61458,0.0937 0.23959,0 0.5,-0.0677 0.26042,-0.0729 0.375,-0.1198 h 0.0521 z"
       style="font-size:10.66666698px;fill:#ff0000;fill-opacity:1"
       id="path4532"
       inkscape:connector-curvature="0" /><path
       d="m 115.89539,748.38826 h -4.28646 q 0,0.53646 0.16146,0.9375 0.16146,0.39584 0.44271,0.65105 0.27083,0.25 0.64062,0.375 0.375,0.125 0.82292,0.125 0.59375,0 1.19271,-0.23438 0.60417,-0.23958 0.85937,-0.46875 h 0.0521 v 1.06771 q -0.49479,0.20833 -1.01042,0.34896 -0.51562,0.14062 -1.08333,0.14062 -1.44792,0 -2.26042,-0.78125 -0.8125,-0.78646 -0.8125,-2.22916 0,-1.42709 0.77604,-2.26563 0.78125,-0.83854 2.05209,-0.83854 1.17708,0 1.8125,0.6875 0.64062,0.6875 0.64062,1.95312 z m -0.95312,-0.75 q -0.005,-0.77083 -0.39063,-1.1927 -0.38021,-0.42188 -1.16146,-0.42188 -0.78646,0 -1.25521,0.46354 -0.46354,0.46354 -0.52604,1.15104 z"
       style="font-size:10.66666698px;fill:#ff0000;fill-opacity:1"
       id="path4534"
       inkscape:connector-curvature="0" /><path
       d="m 121.00997,746.44556 h -0.0521 q -0.21875,-0.0521 -0.42708,-0.0729 -0.20313,-0.026 -0.48438,-0.026 -0.45312,0 -0.875,0.20312 -0.42187,0.19792 -0.8125,0.51563 v 4.13021 h -0.97917 v -5.81771 h 0.97917 v 0.85937 q 0.58333,-0.46875 1.02604,-0.66146 0.44792,-0.19791 0.91146,-0.19791 0.25521,0 0.36979,0.0156 0.11459,0.0104 0.34375,0.0469 z"
       style="font-size:10.66666698px;fill:#ff0000;fill-opacity:1"
       id="path4536"
       inkscape:connector-curvature="0" /></g><g
     aria-label="12.0"
     transform="matrix(0.97654441,0,0,1.5189197,10.83921,-1003.1328)"
     style="font-style:normal;font-weight:normal;font-size:66.66666412px;line-height:1.25;font-family:sans-serif;letter-spacing:0px;word-spacing:0px;fill:#000000;fill-opacity:1;stroke:none"
     id="flowRoot4497"><path
       d="M 38.81966,719.58374 H 12.582682 v -4.94792 H 22.673827 V 682.14884 H 12.582682 v -4.42708 q 2.050781,0 4.394531,-0.32552 2.34375,-0.35807 3.548177,-1.00912 1.497396,-0.8138 2.34375,-2.05078 0.878906,-1.26953 1.009114,-3.38541 h 5.045573 v 43.68489 h 9.895833 z"
       style="font-size:66.66666412px;fill:#ff0000;fill-opacity:1"
       id="path4505"
       inkscape:connector-curvature="0" /><path
       d="M 84.034501,719.58374 H 51.222002 v -6.80339 q 3.417969,-2.92968 6.835938,-5.85937 3.45052,-2.92969 6.41276,-5.82683 6.25,-6.05468 8.561197,-9.60286 2.311198,-3.58073 2.311198,-7.71484 0,-3.77604 -2.50651,-5.89193 -2.473958,-2.14844 -6.933594,-2.14844 -2.962239,0 -6.41276,1.04167 -3.45052,1.04167 -6.738281,3.1901 h -0.32552 v -6.83593 q 2.311197,-1.13933 6.152343,-2.08334 3.873698,-0.94401 7.486979,-0.94401 7.454427,0 11.686197,3.61328 4.231771,3.58073 4.231771,9.73308 0,2.76692 -0.716146,5.17578 -0.683593,2.3763 -2.050781,4.52474 -1.269531,2.01823 -2.994791,3.97135 -1.692709,1.95313 -4.134115,4.32943 -3.483073,3.41797 -7.19401,6.64062 -3.710937,3.19011 -6.933594,5.92448 h 26.074218 z"
       style="font-size:66.66666412px;fill:#ff0000;fill-opacity:1"
       id="path4507"
       inkscape:connector-curvature="0" /><path
       d="m 104.44466,719.58374 h -7.779952 v -9.27735 h 7.779952 z"
       style="font-size:66.66666412px;fill:#ff0000;fill-opacity:1"
       id="path4509"
       inkscape:connector-curvature="0" /><path
       d="m 150.63606,695.33244 q 0,13.05338 -4.10156,19.17317 -4.06901,6.08724 -12.66276,6.08724 -8.72396,0 -12.76042,-6.18489 -4.0039,-6.1849 -4.0039,-19.01042 0,-12.92318 4.06901,-19.07552 4.06901,-6.1849 12.69531,-6.1849 8.72396,0 12.72786,6.28256 4.03646,6.25 4.03646,18.91276 z m -8.5612,14.77864 q 1.13933,-2.63672 1.52995,-6.18489 0.42318,-3.58073 0.42318,-8.59375 0,-4.94792 -0.42318,-8.59375 -0.39062,-3.64584 -1.5625,-6.1849 -1.13932,-2.50651 -3.125,-3.77604 -1.95312,-1.26953 -5.04557,-1.26953 -3.0599,0 -5.07813,1.26953 -1.98567,1.26953 -3.15755,3.84115 -1.10677,2.40885 -1.52995,6.28255 -0.39062,3.87369 -0.39062,8.49609 0,5.07813 0.35807,8.49609 0.35808,3.41797 1.52995,6.1198 1.07422,2.53906 3.02734,3.87369 1.98568,1.33464 5.24089,1.33464 3.05989,0 5.07812,-1.26953 2.01823,-1.26953 3.125,-3.84115 z"
       style="font-size:66.66666412px;fill:#ff0000;fill-opacity:1"
       id="path4511"
       inkscape:connector-curvature="0" /></g><rect
     style="fill:none;fill-opacity:1;stroke:#ff0000;stroke-width:1;stroke-linecap:round;stroke-linejoin:round;stroke-miterlimit:4;stroke-dasharray:none;stroke-dashoffset:0;stroke-opacity:1"
     id="rect4503"
     width="179.02332"
     height="107.3098"
     x="0.77824724"
     y="1.3976218" /></svg>