<?xml version="1.0" encoding="UTF-8" standalone="no"?>
<svg
   xmlns:dc="http://purl.org/dc/elements/1.1/"
   xmlns:cc="http://creativecommons.org/ns#"
   xmlns:rdf="http://www.w3.org/1999/02/22-rdf-syntax-ns#"
   xmlns:svg="http://www.w3.org/2000/svg"
   xmlns="http://www.w3.org/2000/svg"
   xmlns:sodipodi="http://sodipodi.sourceforge.net/DTD/sodipodi-0.dtd"
   xmlns:inkscape="http://www.inkscape.org/namespaces/inkscape"
   width="94.700813"
   height="264.51965"
   version="1.1"
   id="svg5242"
   sodipodi:docname="espixelstick_v2-0.svg"
   inkscape:version="0.92.1 r15371">
  <metadata
     id="metadata5246">
    <rdf:RDF>
      <cc:Work
         rdf:about="">
        <dc:format>image/svg+xml</dc:format>
        <dc:type
           rdf:resource="http://purl.org/dc/dcmitype/StillImage" />
        <dc:title />
      </cc:Work>
    </rdf:RDF>
  </metadata>
  <sodipodi:namedview
     pagecolor="#ffffff"
     bordercolor="#666666"
     borderopacity="1"
     objecttolerance="10"
     gridtolerance="10"
     guidetolerance="10"
     inkscape:pageopacity="0"
     inkscape:pageshadow="2"
     inkscape:window-width="1920"
     inkscape:window-height="1017"
     id="namedview5244"
     showgrid="false"
     inkscape:zoom="3.0705519"
     inkscape:cx="-39.611983"
     inkscape:cy="74.972031"
     inkscape:window-x="-8"
     inkscape:window-y="-8"
     inkscape:window-maximized="1"
     inkscape:current-layer="g6844" />
  <desc
     id="desc5220">C:\Users\jason\Google Drive\Personal\jdeation\Compact Case\ESPixexelStick v2-0.dxf - scale = 1.000000, origin = (0.000000, 0.000000), method = manual</desc>
  <defs
     id="defs5234">
    <marker
       id="DistanceX"
       orient="auto"
       refX="0"
       refY="0"
       style="overflow:visible">
      <path
         d="M 3,-3 -3,3 M 0,-5 V 5"
         style="stroke:#000000;stroke-width:0.5"
         id="path5222"
         inkscape:connector-curvature="0" />
    </marker>
    <pattern
       height="8"
       id="Hatch"
       patternUnits="userSpaceOnUse"
       width="8"
       x="0"
       y="0">
      <path
         d="M8 4 l-4,4"
         linecap="square"
         stroke="#000000"
         stroke-width="0.25"
         id="path5225" />
      <path
         d="M6 2 l-4,4"
         linecap="square"
         stroke="#000000"
         stroke-width="0.25"
         id="path5227" />
      <path
         d="M4 0 l-4,4"
         linecap="square"
         stroke="#000000"
         stroke-width="0.25"
         id="path5229" />
    </pattern>
    <symbol
       id="*MODEL_SPACE" />
    <symbol
       id="*PAPER_SPACE" />
    <marker
       style="overflow:visible"
       refY="0.0"
       refX="0.0"
       orient="auto"
       id="DistanceX-7">
      <path
         id="path6826"
         style="stroke:#000000; stroke-width:0.5"
         d="M 3,-3 L -3,3 M 0,-5 L  0,5" />
    </marker>
    <pattern
       y="0"
       x="0"
       width="8"
       patternUnits="userSpaceOnUse"
       id="Hatch-8"
       height="8">
      <path
         id="path6829"
         stroke-width="0.25"
         stroke="#000000"
         linecap="square"
         d="M8 4 l-4,4" />
      <path
         id="path6831"
         stroke-width="0.25"
         stroke="#000000"
         linecap="square"
         d="M6 2 l-4,4" />
      <path
         id="path6833"
         stroke-width="0.25"
         stroke="#000000"
         linecap="square"
         d="M4 0 l-4,4" />
    </pattern>
    <symbol
       id="*MODEL_SPACE-9" />
    <symbol
       id="*PAPER_SPACE-8" />
    <marker
       style="overflow:visible"
       refY="0.0"
       refX="0.0"
       orient="auto"
       id="DistanceX-2">
      <path
         id="path4544"
         style="stroke:#000000; stroke-width:0.5"
         d="M 3,-3 L -3,3 M 0,-5 L  0,5" />
    </marker>
    <pattern
       y="0"
       x="0"
       width="8"
       patternUnits="userSpaceOnUse"
       id="Hatch-9"
       height="8">
      <path
         id="path4547"
         stroke-width="0.25"
         stroke="#000000"
         linecap="square"
         d="M8 4 l-4,4" />
      <path
         id="path4549"
         stroke-width="0.25"
         stroke="#000000"
         linecap="square"
         d="M6 2 l-4,4" />
      <path
         id="path4551"
         stroke-width="0.25"
         stroke="#000000"
         linecap="square"
         d="M4 0 l-4,4" />
    </pattern>
    <symbol
       id="*MODEL_SPACE-7" />
    <symbol
       id="*PAPER_SPACE-6" />
  </defs>
  <g
     inkscape:groupmode="layer"
     inkscape:label="0"
     id="g5240"
     transform="translate(0,-858.0037)">
    <rect
       style="fill:none;fill-opacity:1;stroke:#e90000;stroke-width:1.24669147;stroke-miterlimit:4;stroke-dasharray:none;stroke-dashoffset:0;stroke-opacity:1"
       id="rect5248"
       width="57.280273"
       height="93.241493"
       x="18.308905"
       y="860.06818" />
    <rect
       style="fill:none;fill-opacity:1;stroke:#e90000;stroke-width:0.94488192;stroke-miterlimit:4;stroke-dasharray:none;stroke-dashoffset:0;stroke-opacity:1"
       id="rect5250"
       width="89.819931"
       height="36.954388"
       x="2.4204433"
       y="1082.3889" />
    <path
       style="fill:none;stroke:#ff0000;stroke-width:0.91424847px;stroke-linecap:butt;stroke-linejoin:miter;stroke-opacity:1"
       d="m 7.4777924,1103.4865 c 7.7450566,0 7.7450566,0 7.7450566,0 v 0"
       id="path5252"
       inkscape:connector-curvature="0" />
    <path
       style="fill:none;stroke:#ff0000;stroke-width:0.91424847px;stroke-linecap:butt;stroke-linejoin:miter;stroke-opacity:1"
       d="m 21.41086,1103.452 c 7.745057,0 7.745057,0 7.745057,0 v 0"
       id="path5252-9"
       inkscape:connector-curvature="0" />
    <path
       style="fill:none;stroke:#ff0000;stroke-width:0.87904227px;stroke-linecap:butt;stroke-linejoin:miter;stroke-opacity:1"
       d="m 25.378457,1099.6965 c 0,7.16 0,7.16 0,7.16 v 0"
       id="path5252-3"
       inkscape:connector-curvature="0" />
    <path
       style="fill:none;stroke:#ff0000;stroke-width:0.91424847px;stroke-linecap:butt;stroke-linejoin:miter;stroke-opacity:1"
       d="m 35.323126,1103.5105 c 7.745057,0 7.745057,0 7.745057,0 v 0"
       id="path5252-9-8"
       inkscape:connector-curvature="0" />
    <path
       style="fill:none;stroke:#ff0000;stroke-width:0.87904227px;stroke-linecap:butt;stroke-linejoin:miter;stroke-opacity:1"
       d="m 39.290723,1099.755 c 0,7.16 0,7.16 0,7.16 v 0"
       id="path5252-3-2"
       inkscape:connector-curvature="0" />
    <path
       style="fill:none;stroke:#ff0000;stroke-width:0.91424847px;stroke-linecap:butt;stroke-linejoin:miter;stroke-opacity:1"
       d="m 78.730852,1102.984 c 7.745057,0 7.745057,0 7.745057,0 v 0"
       id="path5252-4"
       inkscape:connector-curvature="0" />
    <g
       aria-label="D C"
       transform="translate(2.2230372,879.38578)"
       style="font-style:normal;font-weight:normal;font-size:13.33333302px;line-height:1.25;font-family:sans-serif;letter-spacing:0px;word-spacing:0px;fill:#000000;fill-opacity:1;stroke:none"
       id="flowRoot5308">
      <path
         d="m 56.058594,223.90529 q 0,1.32161 -0.579428,2.39583 -0.572916,1.07422 -1.529947,1.66667 -0.664063,0.41016 -1.484375,0.59245 -0.813802,0.18229 -2.148438,0.18229 H 47.86849 v -9.69401 h 2.421874 q 1.419271,0 2.252605,0.20833 0.839843,0.20182 1.41927,0.5599 0.989584,0.61849 1.542969,1.64713 0.553386,1.02865 0.553386,2.44141 z m -1.347657,-0.0195 q 0,-1.13932 -0.397135,-1.92057 -0.397136,-0.78125 -1.184896,-1.23047 -0.572917,-0.32552 -1.217448,-0.44922 -0.644531,-0.13021 -1.542969,-0.13021 h -1.210937 v 7.48047 h 1.210937 q 0.93099,0 1.621094,-0.13672 0.696615,-0.13672 1.276042,-0.50781 0.722656,-0.46224 1.080729,-1.21745 0.364583,-0.75521 0.364583,-1.88802 z"
         style="fill:#ff0000;fill-opacity:1"
         id="path5316" />
      <path
         d="m 70.329427,228.0394 q -0.358073,0.15625 -0.651042,0.29297 -0.286458,0.13672 -0.755208,0.28646 -0.397136,0.1237 -0.865886,0.20833 -0.462239,0.0911 -1.022135,0.0911 -1.054688,0 -1.920573,-0.29297 -0.859375,-0.29948 -1.497396,-0.93099 -0.625,-0.61849 -0.976562,-1.56901 -0.351563,-0.95703 -0.351563,-2.22005 0,-1.19792 0.338542,-2.14193 0.338541,-0.94401 0.976562,-1.59505 0.61849,-0.63151 1.490886,-0.96354 0.878906,-0.33203 1.946614,-0.33203 0.78125,0 1.55599,0.1888 0.78125,0.1888 1.731771,0.66406 v 1.52995 h -0.09766 q -0.800781,-0.67057 -1.588541,-0.97656 -0.787761,-0.30599 -1.686198,-0.30599 -0.735677,0 -1.328125,0.24088 -0.585938,0.23438 -1.048177,0.73568 -0.449219,0.48828 -0.703125,1.23698 -0.247396,0.74219 -0.247396,1.71875 0,1.02213 0.273437,1.75781 0.279948,0.73568 0.716146,1.19792 0.455729,0.48177 1.061198,0.71614 0.611979,0.22787 1.289063,0.22787 0.930989,0 1.744791,-0.31901 0.813802,-0.31901 1.523438,-0.95703 h 0.09115 z"
         style="fill:#ff0000;fill-opacity:1"
         id="path5318" />
    </g>
    <g
       aria-label="ESPixelStick v2.0"
       transform="rotate(-90,442.73961,640.16056)"
       style="font-style:normal;font-weight:normal;font-size:13.33333302px;line-height:1.25;font-family:sans-serif;letter-spacing:0px;word-spacing:0px;fill:#ff0000;fill-opacity:1;stroke:none"
       id="flowRoot5370">
      <path
         d="M 15.30013,214.79917 H 8.9134114 v -9.69401 H 15.30013 v 1.14583 h -5.097656 v 2.65625 h 5.097656 v 1.14584 h -5.097656 v 3.60026 h 5.097656 z"
         style=""
         id="path5378" />
      <path
         d="m 24.395182,212.03224 q 0,0.56641 -0.266927,1.11979 -0.260417,0.55339 -0.735677,0.9375 -0.520833,0.41667 -1.217448,0.65105 -0.690104,0.23437 -1.666667,0.23437 -1.048177,0 -1.88802,-0.19531 -0.833334,-0.19531 -1.699219,-0.57943 v -1.61458 h 0.09115 q 0.735677,0.61198 1.699218,0.94401 0.963542,0.33203 1.809896,0.33203 1.197917,0 1.861979,-0.44922 0.670573,-0.44922 0.670573,-1.19792 0,-0.64453 -0.31901,-0.95052 -0.3125,-0.30599 -0.957031,-0.47526 -0.488282,-0.13021 -1.061198,-0.21484 -0.566406,-0.0846 -1.204427,-0.21484 -1.289063,-0.27344 -1.914063,-0.93099 -0.618489,-0.66407 -0.618489,-1.72526 0,-1.21745 1.028645,-1.99219 1.028646,-0.78125 2.610678,-0.78125 1.022135,0 1.874999,0.19531 0.852865,0.19531 1.510417,0.48177 v 1.52344 h -0.09115 q -0.553385,-0.46875 -1.458333,-0.77474 -0.898438,-0.3125 -1.842448,-0.3125 -1.035156,0 -1.666667,0.42969 -0.625,0.42968 -0.625,1.10677 0,0.60547 0.3125,0.95052 0.3125,0.34505 1.100261,0.52734 0.416667,0.0911 1.184896,0.22136 0.768229,0.1302 1.302083,0.26692 1.080729,0.28646 1.627604,0.86589 0.546875,0.57943 0.546875,1.62109 z"
         style=""
         id="path5380" />
      <path
         d="m 32.806639,208.03485 q 0,0.64453 -0.227864,1.19791 -0.221355,0.54688 -0.625,0.95052 -0.501302,0.50131 -1.184896,0.75521 -0.683594,0.2474 -1.725261,0.2474 h -1.289062 v 3.61328 h -1.289063 v -9.69401 h 2.630209 q 0.872396,0 1.477864,0.14974 0.605469,0.14323 1.074219,0.45573 0.553385,0.37109 0.852865,0.92448 0.305989,0.55338 0.305989,1.39974 z m -1.341146,0.0325 q 0,-0.5013 -0.175781,-0.8724 -0.175781,-0.37109 -0.533854,-0.60547 -0.3125,-0.20182 -0.716146,-0.28645 -0.397135,-0.0911 -1.009114,-0.0911 h -1.276042 v 3.8737 h 1.08724 q 0.781249,0 1.269531,-0.13672 0.488281,-0.14323 0.794271,-0.44922 0.305989,-0.3125 0.429687,-0.65755 0.130208,-0.34505 0.130208,-0.77474 z"
         style=""
         id="path5382" />
      <path
         d="m 35.729816,206.30959 h -1.380208 v -1.26953 h 1.380208 z m -0.07813,8.48958 h -1.223958 v -7.27214 h 1.223958 z"
         style=""
         id="path5384" />
      <path
         d="m 44.330078,214.79917 h -1.542969 l -2.063802,-2.79297 -2.076823,2.79297 h -1.425781 l 2.838542,-3.6263 -2.8125,-3.64584 h 1.542968 l 2.050782,2.7474 2.057291,-2.7474 h 1.432292 l -2.858073,3.58073 z"
         style=""
         id="path5386" />
      <path
         d="m 51.85612,211.29006 h -5.358073 q 0,0.67057 0.201823,1.17187 0.201823,0.49479 0.553385,0.8138 0.338542,0.3125 0.800781,0.46875 0.46875,0.15625 1.028646,0.15625 0.742188,0 1.490886,-0.29297 0.755208,-0.29948 1.074218,-0.58593 h 0.0651 v 1.33463 q -0.618489,0.26042 -1.26302,0.4362 -0.644532,0.17578 -1.354167,0.17578 -1.809896,0 -2.825521,-0.97656 -1.015625,-0.98307 -1.015625,-2.78646 0,-1.78385 0.970052,-2.83203 0.976563,-1.04818 2.565104,-1.04818 1.471355,0 2.265625,0.85938 0.800782,0.85937 0.800782,2.4414 z m -1.191407,-0.9375 q -0.0065,-0.96355 -0.488281,-1.49089 -0.47526,-0.52734 -1.451823,-0.52734 -0.983073,0 -1.56901,0.57942 -0.579427,0.57943 -0.657552,1.43881 z"
         style=""
         id="path5388" />
      <path
         d="m 54.948566,214.79917 h -1.223958 v -10.13021 h 1.223958 z"
         style=""
         id="path5390" />
      <path
         d="m 64.473307,212.03224 q 0,0.56641 -0.266927,1.11979 -0.260417,0.55339 -0.735677,0.9375 -0.520833,0.41667 -1.217448,0.65105 -0.690104,0.23437 -1.666667,0.23437 -1.048177,0 -1.88802,-0.19531 -0.833334,-0.19531 -1.699219,-0.57943 v -1.61458 h 0.09115 q 0.735677,0.61198 1.699218,0.94401 0.963542,0.33203 1.809896,0.33203 1.197917,0 1.861979,-0.44922 0.670573,-0.44922 0.670573,-1.19792 0,-0.64453 -0.31901,-0.95052 -0.3125,-0.30599 -0.957031,-0.47526 -0.488282,-0.13021 -1.061198,-0.21484 -0.566406,-0.0846 -1.204427,-0.21484 -1.289063,-0.27344 -1.914063,-0.93099 -0.618489,-0.66407 -0.618489,-1.72526 0,-1.21745 1.028645,-1.99219 1.028646,-0.78125 2.610678,-0.78125 1.022135,0 1.874999,0.19531 0.852865,0.19531 1.510417,0.48177 v 1.52344 h -0.09115 q -0.553385,-0.46875 -1.458333,-0.77474 -0.898438,-0.3125 -1.842448,-0.3125 -1.035156,0 -1.666667,0.42969 -0.625,0.42968 -0.625,1.10677 0,0.60547 0.3125,0.95052 0.3125,0.34505 1.100261,0.52734 0.416667,0.0911 1.184896,0.22136 0.768229,0.1302 1.302083,0.26692 1.080729,0.28646 1.627604,0.86589 0.546875,0.57943 0.546875,1.62109 z"
         style=""
         id="path5392" />
      <path
         d="m 70.222004,214.73407 q -0.345052,0.0911 -0.755208,0.14973 -0.403646,0.0586 -0.722657,0.0586 -1.113281,0 -1.692708,-0.59896 -0.579427,-0.59896 -0.579427,-1.92057 v -3.86719 h -0.826823 v -1.02865 h 0.826823 v -2.08984 h 1.223958 v 2.08984 h 2.526042 v 1.02865 h -2.526042 v 3.3138 q 0,0.57292 0.02604,0.89844 0.02604,0.31901 0.182292,0.59896 0.143229,0.26041 0.390625,0.38411 0.253906,0.11719 0.768229,0.11719 0.299479,0 0.625,-0.0846 0.32552,-0.0911 0.46875,-0.14973 h 0.0651 z"
         style=""
         id="path5394" />
      <path
         d="m 73.021484,206.30959 h -1.380208 v -1.26953 h 1.380208 z m -0.07813,8.48958 h -1.223958 v -7.27214 h 1.223958 z"
         style=""
         id="path5396" />
      <path
         d="m 80.703773,214.34344 q -0.611979,0.29297 -1.165364,0.45573 -0.546875,0.16276 -1.165365,0.16276 -0.78776,0 -1.445312,-0.22786 -0.657552,-0.23438 -1.126302,-0.70313 -0.475261,-0.46875 -0.735677,-1.1849 -0.260417,-0.71614 -0.260417,-1.67317 0,-1.78386 0.976562,-2.79948 0.983073,-1.01563 2.591146,-1.01563 0.625,0 1.223959,0.17578 0.605468,0.17579 1.10677,0.42969 v 1.36068 h -0.0651 q -0.559896,-0.4362 -1.158854,-0.67057 -0.592448,-0.23438 -1.158854,-0.23438 -1.041667,0 -1.647135,0.70313 -0.598959,0.69661 -0.598959,2.05078 0,1.3151 0.585938,2.02474 0.592448,0.70312 1.660156,0.70312 0.371094,0 0.755208,-0.0977 0.384115,-0.0977 0.690104,-0.25391 0.266927,-0.13672 0.501302,-0.28646 0.234375,-0.15625 0.371094,-0.26693 h 0.0651 z"
         style=""
         id="path5398" />
      <path
         d="m 88.880857,214.79917 h -1.614584 l -2.916666,-3.18359 -0.794271,0.7552 v 2.42839 h -1.223958 v -10.13021 h 1.223958 v 6.4974 l 3.535156,-3.63933 h 1.542969 l -3.378906,3.35938 z"
         style=""
         id="path5400" />
      <path
         d="m 101.14648,207.52703 -2.942707,7.27214 h -1.230468 l -2.923177,-7.27214 h 1.328125 l 2.252604,5.78776 2.233073,-5.78776 z"
         style=""
         id="path5402" />
      <path
         d="m 109.15429,214.79917 h -6.5625 v -1.36068 q 0.6836,-0.58593 1.36719,-1.17187 0.69011,-0.58594 1.28255,-1.16537 1.25,-1.21093 1.71224,-1.92057 0.46224,-0.71615 0.46224,-1.54297 0,-0.75521 -0.5013,-1.17838 -0.49479,-0.42969 -1.38672,-0.42969 -0.59245,0 -1.28255,0.20833 -0.6901,0.20834 -1.34766,0.63802 h -0.0651 v -1.36718 q 0.46224,-0.22787 1.23047,-0.41667 0.77474,-0.1888 1.49739,-0.1888 1.49089,0 2.33724,0.72265 0.84636,0.71615 0.84636,1.94662 0,0.55338 -0.14323,1.03515 -0.13672,0.47526 -0.41016,0.90495 -0.2539,0.40365 -0.59896,0.79427 -0.33854,0.39063 -0.82682,0.86589 -0.69661,0.68359 -1.4388,1.32812 -0.74219,0.63802 -1.38672,1.1849 h 5.21484 z"
         style=""
         id="path5404" />
      <path
         d="m 113.23633,214.79917 h -1.55599 v -1.85547 h 1.55599 z"
         style=""
         id="path5406" />
      <path
         d="m 122.47461,209.94891 q 0,2.61068 -0.82031,3.83463 -0.81381,1.21745 -2.53256,1.21745 -1.74479,0 -2.55208,-1.23698 -0.80078,-1.23698 -0.80078,-3.80208 0,-2.58464 0.8138,-3.8151 0.8138,-1.23698 2.53906,-1.23698 1.7448,0 2.54558,1.25651 0.80729,1.25 0.80729,3.78255 z m -1.71224,2.95573 q 0.22786,-0.52735 0.30599,-1.23698 0.0846,-0.71615 0.0846,-1.71875 0,-0.98958 -0.0846,-1.71875 -0.0781,-0.72917 -0.3125,-1.23698 -0.22787,-0.5013 -0.625,-0.75521 -0.39063,-0.2539 -1.00912,-0.2539 -0.61197,0 -1.01562,0.2539 -0.39714,0.25391 -0.63151,0.76823 -0.22135,0.48177 -0.30599,1.25651 -0.0781,0.77474 -0.0781,1.69922 0,1.01563 0.0716,1.69922 0.0716,0.68359 0.30599,1.22396 0.21484,0.50781 0.60547,0.77474 0.39713,0.26692 1.04817,0.26692 0.61198,0 1.01563,-0.2539 0.40365,-0.25391 0.625,-0.76823 z"
         style=""
         id="path5408" />
    </g>
    <g
       id="g6844"
       inkscape:label="0"
       transform="translate(135.40442,-218.2064)">
      <g
         id="g4562"
         inkscape:label="0"
         transform="translate(-133.20828,24.32027)">
        <path
           id="path4558"
           style="fill:none;stroke:#c80000;stroke-opacity:1"
           d="M 90.708661,1122.5197 H 0 v 191.2441 h 90.708661 z"
           inkscape:connector-curvature="0" />
        <path
           id="path4560"
           style="fill:none;stroke:#000000"
           d="m 50.456693,1169.2724 a 5.102362,5.102362 0 1 0 -10.204724,0 5.102362,5.102362 0 1 0 10.204724,0 z"
           inkscape:connector-curvature="0" />
      </g>
    </g>
  </g>
</svg>
