<?xml version="1.0" encoding="UTF-8" standalone="no"?>
<!-- Creator: CorelDRAW X8 -->

<svg
   xmlns:dc="http://purl.org/dc/elements/1.1/"
   xmlns:cc="http://creativecommons.org/ns#"
   xmlns:rdf="http://www.w3.org/1999/02/22-rdf-syntax-ns#"
   xmlns:svg="http://www.w3.org/2000/svg"
   xmlns="http://www.w3.org/2000/svg"
   xmlns:sodipodi="http://sodipodi.sourceforge.net/DTD/sodipodi-0.dtd"
   xmlns:inkscape="http://www.inkscape.org/namespaces/inkscape"
   xml:space="preserve"
   width="150.89999mm"
   height="151.39999mm"
   version="1.1"
   style="clip-rule:evenodd;fill-rule:evenodd;image-rendering:optimizeQuality;shape-rendering:geometricPrecision;text-rendering:geometricPrecision"
   viewBox="0 0 5940.9435 5960.6297"
   id="svg97"
   sodipodi:docname="F32B.svg"
   inkscape:version="0.92.4 (5da689c313, 2019-01-14)"><metadata
   id="metadata101"><rdf:RDF><cc:Work
       rdf:about=""><dc:format>image/svg+xml</dc:format><dc:type
         rdf:resource="http://purl.org/dc/dcmitype/StillImage" /><dc:title></dc:title></cc:Work></rdf:RDF></metadata><sodipodi:namedview
   pagecolor="#ffffff"
   bordercolor="#666666"
   borderopacity="1"
   objecttolerance="10"
   gridtolerance="10"
   guidetolerance="10"
   inkscape:pageopacity="0"
   inkscape:pageshadow="2"
   inkscape:window-width="2048"
   inkscape:window-height="1089"
   id="namedview99"
   showgrid="false"
   units="mm"
   inkscape:zoom="1.2642212"
   inkscape:cx="213.32581"
   inkscape:cy="256.62317"
   inkscape:window-x="-8"
   inkscape:window-y="-8"
   inkscape:window-maximized="1"
   inkscape:current-layer="Layer_x0020_1" />
 <defs
   id="defs4">
  <style
   type="text/css"
   id="style2">
   <![CDATA[
    .str11 {stroke:red;stroke-width:6.94488}
    .str1 {stroke:red;stroke-width:3.33465}
    .str6 {stroke:black;stroke-width:1.53543}
    .str4 {stroke:black;stroke-width:1.53543}
    .str5 {stroke:black;stroke-width:1.53543}
    .str8 {stroke:black;stroke-width:1.53543}
    .str3 {stroke:black;stroke-width:1.53543}
    .str2 {stroke:black;stroke-width:1.53543}
    .str7 {stroke:black;stroke-width:1.53543}
    .str10 {stroke:black;stroke-width:1.59843}
    .str9 {stroke:black;stroke-width:1.59843}
    .str0 {stroke:black;stroke-width:3.32677;stroke-linecap:round;stroke-linejoin:round}
    .fil1 {fill:none}
    .fil0 {fill:none;fill-rule:nonzero}
    .fil2 {fill:red;fill-rule:nonzero}
   ]]>
  </style>
 </defs>
 <g
   id="Layer_x0020_1"
   transform="translate(-1219.4596,-2419.1327)">
  <metadata
   id="CorelCorpID_0Corel-Layer" />
  <path
   class="fil0 str0"
   d="m 7032.427,7646.4792 c 0,33 -26,59 -59,59 -33,0 -59,-26 -59,-59 0,-33 26,-59 59,-59 33,0 59,26 59,59 z m 0,0 z"
   id="path7"
   inkscape:connector-curvature="0"
   style="fill:none;fill-rule:nonzero;stroke:#000000;stroke-width:3.32677007;stroke-linecap:round;stroke-linejoin:round" />
  <path
   class="fil0 str1"
   d="m 7069.427,6436.4792 c 41,0 74,37 74,78 m -5599,-1501 550,1 m -551,-651 h -302 m 302,0 v 650 m 550,0 v 1273 m 0,0 -850,2 m 0,-1925 v -1900 m 5900,0 3,1926 m -5902,-1925 h 5899 m -73,1999 -1400,1 m 0,-1 v 1973 m 1476,-2048 c 0,40 -32,74 -73,75 0,0 -3,0 -3,0 m 73,3898 h -5900 m 0,2 v -2077 m 5900,227 v 1850 m -1474,-1929 1401,2"
   id="path9"
   inkscape:connector-curvature="0"
   style="fill:none;fill-rule:nonzero;stroke:#ff0000;stroke-width:3.33465004" />
  <path
   class="fil0 str2"
   d="m 7030.427,4288.4792 c 0,32 -26,59 -59,59 -32,0 -59,-27 -59,-59 0,-33 27,-59 59,-59 33,0 59,26 59,59 z m 0,0 z"
   id="path11"
   inkscape:connector-curvature="0"
   style="fill:none;fill-rule:nonzero;stroke:#000000;stroke-width:1.53542995" />
  <path
   class="fil0 str3"
   d="m 7030.427,6614.4792 c 0,33 -26,59 -59,59 -32,0 -59,-26 -59,-59 0,-32 27,-59 59,-59 33,0 59,27 59,59 z m 0,0 z"
   id="path13"
   inkscape:connector-curvature="0"
   style="fill:none;fill-rule:nonzero;stroke:#000000;stroke-width:1.53542995" />
  <path
   class="fil0 str4"
   d="m 1880.427,6414.4792 c 0,33 -26,59 -59,59 -32,0 -59,-26 -59,-59 0,-32 27,-59 59,-59 33,0 59,27 59,59 z m 0,0 z"
   id="path15"
   inkscape:connector-curvature="0"
   style="fill:none;fill-rule:nonzero;stroke:#000000;stroke-width:1.53542995" />
  <path
   class="fil0 str5"
   d="m 1880.427,4514.4792 c 0,33 -26,59 -59,59 -32,0 -59,-26 -59,-59 0,-32 27,-59 59,-59 33,0 59,27 59,59 z m 0,0 z"
   id="path17"
   inkscape:connector-curvature="0"
   style="fill:none;fill-rule:nonzero;stroke:#000000;stroke-width:1.53542995" />
  <path
   class="fil0 str6"
   d="m 1484.427,7598.4792 c 0,32 -27,59 -59,59 -33,0 -59,-27 -59,-59 0,-33 26,-59 59,-59 32,0 59,26 59,59 z m 0,0 z"
   id="path19"
   inkscape:connector-curvature="0"
   style="fill:none;fill-rule:nonzero;stroke:#000000;stroke-width:1.53542995" />
  <path
   class="fil0 str7"
   d="m 1460.427,3224.4792 c 0,33 -26,59 -59,59 -32,0 -59,-26 -59,-59 0,-32 27,-59 59,-59 33,0 59,27 59,59 z m 0,0 z"
   id="path21"
   inkscape:connector-curvature="0"
   style="fill:none;fill-rule:nonzero;stroke:#000000;stroke-width:1.53542995" />
  <path
   class="fil0 str8"
   d="m 7060.427,3248.4792 c 0,32 -26,59 -59,59 -32,0 -59,-27 -59,-59 0,-33 27,-59 59,-59 33,0 59,26 59,59 z m 0,0 z"
   id="path23"
   inkscape:connector-curvature="0"
   style="fill:none;fill-rule:nonzero;stroke:#000000;stroke-width:1.53542995" />
  <path
   class="fil0 str9"
   d="m 3173.427,6038.4792 c 0,28 -23,51 -52,51 -28,0 -51,-23 -51,-51 0,-29 23,-52 51,-52 29,0 52,23 52,52 z m 0,0 z"
   id="path25"
   inkscape:connector-curvature="0"
   style="fill:none;fill-rule:nonzero;stroke:#000000;stroke-width:1.59843004" />
  <path
   class="fil0 str10"
   d="m 3173.427,5138.4792 c 0,28 -23,51 -52,51 -28,0 -51,-23 -51,-51 0,-29 23,-52 51,-52 29,0 52,23 52,52 z m 0,0 z"
   id="path27"
   inkscape:connector-curvature="0"
   style="fill:none;fill-rule:nonzero;stroke:#000000;stroke-width:1.59843004" />
  <rect
   class="fil1 str11"
   x="1304.4271"
   y="7928.4795"
   width="419"
   height="397"
   id="rect29"
   style="fill:none;stroke:#ff0000;stroke-width:6.94488001" />
  <rect
   class="fil1 str11"
   x="6675.4272"
   y="7928.4795"
   width="419"
   height="397"
   id="rect31"
   style="fill:none;stroke:#ff0000;stroke-width:6.94488001" />
  <rect
   class="fil1 str11"
   x="1304.4271"
   y="2509.479"
   width="419"
   height="397"
   id="rect33"
   style="fill:none;stroke:#ff0000;stroke-width:6.94488001" />
  <rect
   class="fil1 str11"
   x="6675.4272"
   y="2509.479"
   width="419"
   height="397"
   id="rect35"
   style="fill:none;stroke:#ff0000;stroke-width:6.94488001" />
  <polygon
   class="fil2"
   points="6775,2747 6757,2747 6757,2703 6713,2703 6713,2684 6757,2684 6757,2640 6775,2640 6775,2684 6820,2684 6820,2703 6775,2703 "
   id="polygon37"
   style="fill:#ff0000;fill-rule:nonzero"
   transform="translate(33.427073,16.479184)" />
  <polygon
   class="fil2"
   points="7026,2703 6965,2703 6965,2683 7026,2683 "
   id="polygon39"
   style="fill:#ff0000;fill-rule:nonzero"
   transform="translate(33.427073,16.479184)" />
  <polygon
   class="fil2"
   points="6755,8065 6736,8065 6736,8109 6692,8109 6692,8127 6736,8127 6736,8172 6755,8172 6755,8127 6799,8127 6799,8109 6755,8109 "
   id="polygon41"
   style="fill:#ff0000;fill-rule:nonzero"
   transform="translate(33.427073,16.479184)" />
  <polygon
   class="fil2"
   points="7006,8108 6944,8108 6944,8128 7006,8128 "
   id="polygon43"
   style="fill:#ff0000;fill-rule:nonzero"
   transform="translate(33.427073,16.479184)" />
  <polygon
   class="fil2"
   points="1588,2751 1607,2751 1607,2707 1651,2707 1651,2688 1607,2688 1607,2644 1588,2644 1588,2688 1544,2688 1544,2707 1588,2707 "
   id="polygon45"
   style="fill:#ff0000;fill-rule:nonzero"
   transform="translate(33.427073,16.479184)" />
  <polygon
   class="fil2"
   points="1338,2707 1399,2707 1399,2687 1338,2687 "
   id="polygon47"
   style="fill:#ff0000;fill-rule:nonzero"
   transform="translate(33.427073,16.479184)" />
  <polygon
   class="fil2"
   points="1576,8069 1595,8069 1595,8113 1639,8113 1639,8131 1595,8131 1595,8176 1576,8176 1576,8131 1532,8131 1532,8113 1576,8113 "
   id="polygon49"
   style="fill:#ff0000;fill-rule:nonzero"
   transform="translate(33.427073,16.479184)" />
  <polygon
   class="fil2"
   points="1325,8112 1387,8112 1387,8132 1325,8132 "
   id="polygon51"
   style="fill:#ff0000;fill-rule:nonzero"
   transform="translate(33.427073,16.479184)" />
  <path
   style="fill:#ff0000;fill-rule:nonzero"
   d="m 3290.427,5362.4792 h 102 v 18 h -82 v 47 h 71 v 17 h -71 v 69 h -20 z"
   id="polygon53"
   inkscape:connector-curvature="0" />
  <path
   id="1"
   class="fil2"
   d="m 3410.427,5473.4792 19,-3 c 2,11 6,18 11,23 5,5 11,7 19,7 8,0 16,-3 22,-9 6,-6 9,-14 9,-23 0,-8 -3,-15 -9,-21 -5,-5 -12,-8 -21,-8 -3,0 -8,1 -13,2 l 2,-16 c 1,0 2,0 3,0 8,0 15,-2 21,-6 7,-4 10,-11 10,-19 0,-7 -2,-13 -7,-17 -5,-4 -11,-7 -18,-7 -7,0 -13,3 -18,7 -5,5 -8,12 -9,21 l -19,-4 c 3,-12 8,-22 16,-29 8,-6 18,-10 30,-10 8,0 16,2 22,5 7,4 13,9 16,15 4,6 6,12 6,19 0,7 -2,13 -5,18 -4,5 -9,10 -16,13 9,2 16,6 21,13 5,6 7,14 7,24 0,13 -5,24 -14,34 -10,9 -22,13 -37,13 -13,0 -24,-4 -33,-12 -8,-7 -13,-18 -15,-30 z"
   inkscape:connector-curvature="0"
   style="fill:#ff0000;fill-rule:nonzero" />
  <path
   id="2"
   class="fil2"
   d="m 3625.427,5495.4792 v 18 h -100 c 0,-5 1,-9 2,-13 3,-7 7,-14 12,-20 6,-7 14,-14 25,-23 16,-13 27,-24 33,-32 6,-8 9,-15 9,-22 0,-8 -3,-14 -8,-19 -5,-5 -12,-7 -21,-7 -9,0 -16,2 -21,8 -6,5 -8,12 -8,22 l -19,-2 c 1,-14 6,-25 14,-33 9,-7 20,-11 35,-11 14,0 26,4 34,12 9,8 13,18 13,30 0,6 -1,12 -4,18 -2,6 -7,12 -12,18 -6,7 -16,16 -29,27 -11,9 -18,16 -21,19 -4,3 -6,7 -8,10 z"
   inkscape:connector-curvature="0"
   style="fill:#ff0000;fill-rule:nonzero" />
  <path
   style="fill:#ff0000;fill-rule:nonzero"
   d="m 3643.427,5449.4792 h 57 v 18 h -57 z"
   id="3"
   inkscape:connector-curvature="0" />
  <path
   id="4"
   class="fil2"
   d="m 3722.427,5513.4792 v -151 h 57 c 11,0 20,1 27,4 7,3 13,8 17,14 4,7 6,13 6,20 0,7 -2,13 -6,19 -3,5 -8,10 -15,13 9,3 16,8 21,14 4,7 7,14 7,23 0,7 -2,14 -5,20 -3,6 -6,11 -11,14 -4,3 -10,6 -16,7 -7,2 -15,3 -25,3 z m 20,-88 h 33 c 8,0 15,0 19,-1 5,-2 9,-5 11,-8 3,-4 4,-8 4,-13 0,-5 -1,-10 -4,-14 -2,-3 -6,-6 -10,-7 -4,-2 -12,-2 -23,-2 h -30 z m 0,70 h 37 c 7,0 11,0 14,-1 5,0 9,-2 12,-4 3,-2 5,-4 7,-8 2,-4 3,-8 3,-13 0,-6 -1,-10 -4,-15 -3,-4 -7,-7 -12,-8 -5,-2 -13,-3 -22,-3 h -35 z"
   inkscape:connector-curvature="0"
   style="fill:#ff0000;fill-rule:nonzero" />
  <path
   id="5"
   class="fil2"
   d="m 3950.427,5513.4792 -42,-110 h 20 l 24,66 c 2,7 4,14 7,22 1,-6 4,-13 7,-21 l 24,-67 h 19 l -42,110 z"
   inkscape:connector-curvature="0"
   style="fill:#ff0000;fill-rule:nonzero" />
  <path
   id="6"
   class="fil2"
   d="m 4117.427,5495.4792 v 18 h -100 c 0,-5 1,-9 3,-13 2,-7 6,-14 12,-20 6,-7 14,-14 24,-23 16,-13 28,-24 33,-32 6,-8 9,-15 9,-22 0,-8 -2,-14 -8,-19 -5,-5 -12,-7 -20,-7 -9,0 -17,2 -22,8 -5,5 -8,12 -8,22 l -19,-2 c 1,-14 6,-25 15,-33 8,-7 20,-11 34,-11 15,0 26,4 34,12 9,8 13,18 13,30 0,6 -1,12 -4,18 -2,6 -6,12 -12,18 -6,7 -15,16 -28,27 -12,9 -19,16 -22,19 -3,3 -6,7 -8,10 z"
   inkscape:connector-curvature="0"
   style="fill:#ff0000;fill-rule:nonzero" />
  <path
   style="fill:#ff0000;fill-rule:nonzero"
   d="m 4148.427,5492.4792 h 21 v 21 h -21 z"
   id="7"
   inkscape:connector-curvature="0" />
  <path
   id="8"
   class="fil2"
   d="m 4196.427,5438.4792 c 0,-18 2,-32 6,-43 3,-11 9,-19 16,-25 7,-6 16,-9 27,-9 8,0 15,2 22,5 6,3 11,8 15,14 4,6 7,14 9,23 2,8 3,20 3,35 0,18 -1,32 -5,43 -4,11 -9,20 -16,25 -8,6 -17,9 -28,9 -14,0 -26,-5 -34,-15 -10,-13 -15,-33 -15,-62 z m 19,0 c 0,25 3,42 9,50 6,8 13,12 21,12 9,0 16,-4 22,-12 5,-8 8,-25 8,-50 0,-24 -3,-41 -8,-49 -6,-8 -13,-12 -22,-12 -9,0 -15,3 -20,10 -7,10 -10,27 -10,51 z"
   inkscape:connector-curvature="0"
   style="fill:#ff0000;fill-rule:nonzero" />
  <path
   style="fill:#ff0000;fill-rule:nonzero"
   d="m 4324.427,5492.4792 h 21 v 21 h -21 z"
   id="9"
   inkscape:connector-curvature="0" />
  <path
   id="10"
   class="fil2"
   d="m 4372.427,5438.4792 c 0,-18 2,-32 5,-43 4,-11 10,-19 17,-25 7,-6 16,-9 27,-9 8,0 15,2 21,5 7,3 12,8 16,14 4,6 7,14 9,23 2,8 3,20 3,35 0,18 -2,32 -5,43 -4,11 -9,20 -16,25 -8,6 -17,9 -28,9 -14,0 -26,-5 -34,-15 -10,-13 -15,-33 -15,-62 z m 19,0 c 0,25 3,42 9,50 5,8 13,12 21,12 9,0 16,-4 22,-12 5,-8 8,-25 8,-50 0,-24 -3,-41 -8,-49 -6,-8 -13,-12 -22,-12 -9,0 -15,3 -21,10 -6,10 -9,27 -9,51 z"
   inkscape:connector-curvature="0"
   style="fill:#ff0000;fill-rule:nonzero" />
  <path
   class="fil2"
   d="m 3081.427,5749.4792 v -105 h 36 c 8,0 14,0 19,1 6,2 11,4 15,8 6,5 10,11 13,18 3,7 4,16 4,25 0,8 -1,15 -3,21 -2,7 -4,12 -7,16 -3,4 -6,7 -10,9 -3,3 -7,4 -12,6 -5,1 -11,1 -17,1 z m 14,-12 h 22 c 7,0 12,-1 16,-2 4,-1 8,-3 10,-5 3,-4 6,-8 8,-14 1,-5 2,-12 2,-20 0,-11 -1,-20 -5,-26 -4,-6 -8,-10 -13,-12 -4,-1 -10,-2 -18,-2 h -22 z"
   id="path65"
   inkscape:connector-curvature="0"
   style="fill:#ff0000;fill-rule:nonzero" />
  <path
   id="path67"
   class="fil2"
   d="m 3238.427,5725.4792 13,1 c -2,8 -6,14 -12,19 -5,4 -13,6 -21,6 -12,0 -20,-3 -27,-10 -7,-7 -10,-17 -10,-29 0,-13 4,-23 10,-30 7,-7 15,-11 26,-11 10,0 18,4 25,11 6,7 10,16 10,29 0,1 0,2 0,3 h -58 c 1,9 3,15 8,20 4,4 9,6 16,6 4,0 8,-1 12,-3 3,-3 6,-7 8,-12 z m -43,-21 h 43 c -1,-7 -2,-11 -5,-15 -4,-5 -9,-7 -16,-7 -6,0 -11,2 -15,6 -4,4 -6,9 -7,16 z"
   inkscape:connector-curvature="0"
   style="fill:#ff0000;fill-rule:nonzero" />
  <path
   id="path69"
   class="fil2"
   d="m 3262.427,5727.4792 13,-2 c 1,5 3,9 6,11 4,3 8,4 14,4 6,0 11,-1 13,-3 3,-3 5,-5 5,-9 0,-3 -2,-5 -4,-7 -2,-1 -6,-2 -13,-4 -10,-2 -16,-4 -20,-6 -4,-2 -7,-4 -9,-8 -1,-3 -2,-6 -2,-10 0,-3 0,-6 2,-9 2,-3 4,-6 6,-7 2,-2 5,-3 9,-4 3,-1 7,-2 11,-2 6,0 11,1 16,3 4,2 7,4 10,7 2,3 3,7 4,12 l -13,2 c 0,-4 -2,-8 -5,-10 -2,-2 -6,-3 -11,-3 -6,0 -10,1 -13,3 -3,2 -4,4 -4,7 0,1 1,3 2,4 1,2 2,3 5,4 1,0 5,1 11,3 9,2 16,4 19,6 4,2 7,4 9,7 2,3 3,7 3,11 0,4 -1,8 -4,12 -2,4 -6,7 -11,9 -4,2 -10,3 -16,3 -10,0 -17,-2 -23,-6 -5,-4 -8,-10 -10,-18 z"
   inkscape:connector-curvature="0"
   style="fill:#ff0000;fill-rule:nonzero" />
  <path
   id="path71"
   class="fil2"
   d="m 3341.427,5659.4792 v -15 h 13 v 15 z m 0,90 v -76 h 13 v 76 z"
   inkscape:connector-curvature="0"
   style="fill:#ff0000;fill-rule:nonzero" />
  <path
   id="path73"
   class="fil2"
   d="m 3372.427,5756.4792 12,2 c 1,3 2,6 5,8 3,2 7,4 13,4 6,0 11,-2 14,-4 3,-2 5,-6 7,-10 0,-3 1,-8 0,-17 -5,7 -12,10 -21,10 -10,0 -18,-3 -24,-11 -6,-8 -9,-17 -9,-27 0,-8 1,-14 4,-20 3,-7 7,-11 12,-15 5,-3 11,-5 17,-5 9,0 17,4 23,11 v -9 h 12 v 66 c 0,12 -2,20 -4,25 -2,5 -6,9 -12,12 -5,3 -11,4 -19,4 -9,0 -16,-2 -22,-6 -6,-4 -8,-10 -8,-18 z m 10,-46 c 0,10 2,17 6,22 4,4 9,7 15,7 6,0 11,-3 15,-7 4,-5 6,-12 6,-22 0,-9 -2,-16 -6,-21 -4,-5 -9,-7 -15,-7 -6,0 -10,2 -15,7 -4,5 -6,12 -6,21 z"
   inkscape:connector-curvature="0"
   style="fill:#ff0000;fill-rule:nonzero" />
  <path
   id="path75"
   class="fil2"
   d="m 3456.427,5749.4792 v -76 h 12 v 11 c 6,-9 14,-13 24,-13 5,0 9,1 13,3 4,1 7,4 9,6 2,3 3,6 4,10 0,2 0,6 0,12 v 47 h -13 v -46 c 0,-5 0,-9 -1,-12 -1,-3 -3,-5 -5,-6 -3,-2 -6,-3 -9,-3 -6,0 -11,2 -15,6 -4,3 -6,10 -6,20 v 41 z"
   inkscape:connector-curvature="0"
   style="fill:#ff0000;fill-rule:nonzero" />
  <path
   id="path77"
   class="fil2"
   d="m 3591.427,5725.4792 13,1 c -2,8 -6,14 -12,19 -5,4 -13,6 -22,6 -11,0 -20,-3 -26,-10 -7,-7 -10,-17 -10,-29 0,-13 3,-23 10,-30 7,-7 15,-11 26,-11 10,0 18,4 25,11 6,7 9,16 9,29 0,1 0,2 0,3 h -57 c 1,9 3,15 8,20 4,4 9,6 15,6 5,0 9,-1 13,-3 3,-3 6,-7 8,-12 z m -43,-21 h 43 c -1,-7 -2,-11 -5,-15 -4,-5 -10,-7 -16,-7 -6,0 -11,2 -15,6 -4,4 -6,9 -7,16 z"
   inkscape:connector-curvature="0"
   style="fill:#ff0000;fill-rule:nonzero" />
  <path
   id="path79"
   class="fil2"
   d="m 3670.427,5749.4792 v -9 c -5,7 -12,11 -21,11 -7,0 -12,-2 -17,-5 -5,-3 -9,-8 -12,-14 -3,-6 -4,-13 -4,-21 0,-7 1,-14 3,-21 3,-6 7,-10 12,-14 5,-3 11,-5 17,-5 5,0 9,1 12,3 4,2 7,5 9,8 v -38 h 13 v 105 z m -41,-38 c 0,10 2,17 6,22 4,5 9,7 15,7 5,0 10,-2 14,-6 4,-5 6,-12 6,-22 0,-10 -2,-18 -6,-23 -4,-5 -9,-7 -15,-7 -6,0 -10,2 -14,7 -4,5 -6,12 -6,22 z"
   inkscape:connector-curvature="0"
   style="fill:#ff0000;fill-rule:nonzero" />
  <path
   id="path81"
   class="fil2"
   d="m 3756.427,5749.4792 h -13 v -105 h 13 v 37 c 6,-6 13,-10 21,-10 5,0 10,1 14,3 4,2 7,5 10,8 3,4 5,8 7,12 1,5 2,10 2,16 0,13 -3,23 -10,30 -6,8 -14,11 -23,11 -9,0 -16,-4 -21,-11 z m -1,-38 c 0,9 2,15 4,19 4,7 10,10 17,10 5,0 10,-2 14,-7 4,-5 7,-12 7,-22 0,-10 -2,-17 -6,-22 -4,-5 -9,-7 -15,-7 -5,0 -10,2 -14,7 -5,5 -7,12 -7,22 z"
   inkscape:connector-curvature="0"
   style="fill:#ff0000;fill-rule:nonzero" />
  <path
   id="path83"
   class="fil2"
   d="m 3825.427,5779.4792 -1,-12 c 2,1 5,1 7,1 3,0 5,0 7,-1 2,-1 3,-3 4,-4 1,-2 2,-5 4,-10 0,-1 1,-2 1,-3 l -29,-77 h 14 l 16,44 c 2,6 4,12 6,18 1,-6 3,-12 5,-17 l 16,-45 h 13 l -29,78 c -3,8 -5,14 -7,17 -2,4 -5,7 -8,9 -3,2 -6,3 -11,3 -2,0 -5,0 -8,-1 z"
   inkscape:connector-curvature="0"
   style="fill:#ff0000;fill-rule:nonzero" />
  <path
   id="path85"
   class="fil2"
   d="m 3942.427,5749.4792 v -105 h 37 c 8,0 14,0 18,1 6,2 12,4 16,8 5,5 10,11 12,18 3,7 4,16 4,25 0,8 0,15 -2,21 -2,7 -5,12 -8,16 -2,4 -6,7 -9,9 -4,3 -8,4 -13,6 -5,1 -10,1 -17,1 z m 14,-12 h 23 c 7,0 12,-1 16,-2 4,-1 7,-3 10,-5 3,-4 5,-8 7,-14 2,-5 3,-12 3,-20 0,-11 -2,-20 -5,-26 -4,-6 -8,-10 -14,-12 -3,-1 -9,-2 -18,-2 h -22 z"
   inkscape:connector-curvature="0"
   style="fill:#ff0000;fill-rule:nonzero" />
  <path
   id="11"
   class="fil2"
   d="m 4097.427,5740.4792 c -5,4 -9,7 -14,9 -4,1 -9,2 -14,2 -9,0 -15,-2 -20,-6 -4,-4 -6,-9 -6,-16 0,-3 1,-7 2,-10 2,-3 4,-6 7,-7 3,-2 6,-4 9,-5 3,0 7,-1 12,-2 10,-1 18,-2 23,-4 0,-2 0,-3 0,-3 0,-6 -1,-9 -4,-12 -3,-3 -8,-4 -14,-4 -7,0 -11,1 -14,3 -3,2 -5,6 -6,12 l -13,-2 c 1,-6 3,-10 6,-13 2,-4 6,-6 11,-8 5,-2 11,-3 17,-3 7,0 12,1 16,3 5,1 8,3 10,5 1,3 3,6 4,9 0,2 0,6 0,12 v 17 c 0,12 0,20 1,23 1,3 2,7 3,9 h -13 c -2,-2 -3,-5 -3,-9 z m -1,-29 c -5,2 -12,4 -21,5 -6,1 -9,2 -12,3 -2,1 -3,2 -5,4 -1,2 -1,4 -1,6 0,3 1,6 3,8 3,3 7,4 12,4 5,0 9,-1 13,-3 4,-3 7,-6 9,-9 1,-3 2,-8 2,-13 z"
   inkscape:connector-curvature="0"
   style="fill:#ff0000;fill-rule:nonzero" />
  <path
   id="12"
   class="fil2"
   d="m 4129.427,5749.4792 v -76 h 12 v 11 c 5,-9 14,-13 24,-13 5,0 9,1 13,3 4,1 7,4 9,6 1,3 3,6 4,10 0,2 0,6 0,12 v 47 h -13 v -46 c 0,-5 0,-9 -1,-12 -1,-3 -3,-5 -6,-6 -2,-2 -5,-3 -9,-3 -5,0 -10,2 -14,6 -4,3 -6,10 -6,20 v 41 z"
   inkscape:connector-curvature="0"
   style="fill:#ff0000;fill-rule:nonzero" />
  <path
   id="13"
   class="fil2"
   d="m 4211.427,5659.4792 v -15 h 13 v 15 z m 0,90 v -76 h 13 v 76 z"
   inkscape:connector-curvature="0"
   style="fill:#ff0000;fill-rule:nonzero" />
  <path
   id="14"
   class="fil2"
   d="m 4296.427,5725.4792 14,1 c -2,8 -6,14 -12,19 -6,4 -13,6 -22,6 -11,0 -20,-3 -26,-10 -7,-7 -10,-17 -10,-29 0,-13 3,-23 10,-30 6,-7 15,-11 25,-11 11,0 19,4 25,11 7,7 10,16 10,29 0,1 0,2 0,3 h -57 c 1,9 3,15 7,20 4,4 10,6 16,6 5,0 9,-1 12,-3 4,-3 6,-7 8,-12 z m -42,-21 h 42 c 0,-7 -2,-11 -4,-15 -5,-5 -10,-7 -16,-7 -6,0 -11,2 -15,6 -5,4 -7,9 -7,16 z"
   inkscape:connector-curvature="0"
   style="fill:#ff0000;fill-rule:nonzero" />
  <path
   style="fill:#ff0000;fill-rule:nonzero"
   d="m 4326.427,5644.4792 h 13 v 105 h -13 z"
   id="15"
   inkscape:connector-curvature="0" />
  <path
   style="fill:#ff0000;fill-rule:nonzero"
   d="m 4401.427,5644.4792 h 14 v 52 l 53,-52 h 18 l -44,43 46,62 h -18 l -38,-53 -17,17 v 36 h -14 z"
   id="16"
   inkscape:connector-curvature="0" />
  <path
   id="17"
   class="fil2"
   d="m 4548.427,5749.4792 v -11 c -6,9 -14,13 -24,13 -4,0 -9,-1 -12,-2 -4,-2 -7,-4 -9,-7 -2,-3 -3,-6 -4,-10 -1,-2 -1,-6 -1,-12 v -47 h 13 v 42 c 0,7 0,12 1,14 1,3 2,6 5,8 3,2 6,3 10,3 4,0 7,-1 11,-3 3,-2 6,-5 7,-8 1,-4 2,-9 2,-15 v -41 h 13 v 76 z"
   inkscape:connector-curvature="0"
   style="fill:#ff0000;fill-rule:nonzero" />
  <path
   style="fill:#ff0000;fill-rule:nonzero"
   d="m 4580.427,5644.4792 h 13 v 105 h -13 z"
   id="18"
   inkscape:connector-curvature="0" />
  <path
   id="19"
   class="fil2"
   d="m 4613.427,5779.4792 v -106 h 12 v 10 c 3,-4 6,-7 10,-9 3,-2 7,-3 12,-3 7,0 13,2 18,5 5,4 8,8 11,14 2,7 4,13 4,21 0,7 -2,14 -4,21 -3,6 -7,11 -13,14 -5,3 -11,5 -17,5 -4,0 -8,-1 -11,-3 -4,-1 -7,-4 -9,-7 v 38 z m 12,-67 c 0,9 2,17 6,21 4,5 9,7 15,7 5,0 10,-2 14,-7 4,-5 6,-12 6,-22 0,-10 -2,-17 -6,-22 -4,-5 -8,-8 -14,-8 -5,0 -10,3 -15,8 -4,5 -6,13 -6,23 z"
   inkscape:connector-curvature="0"
   style="fill:#ff0000;fill-rule:nonzero" />
 </g>
</svg>