<svg id="svg3763" xmlns="http://www.w3.org/2000/svg" width="85.751mm" height="99.84mm" viewBox="0 0 243.074 283.011">
  <defs>
    <style>
      .cls-1 {
        opacity: 0;
      }

      .cls-10, .cls-11, .cls-12, .cls-13, .cls-14, .cls-15, .cls-16, .cls-17, .cls-18, .cls-19, .cls-2, .cls-20, .cls-21, .cls-22, .cls-23, .cls-24, .cls-25, .cls-26, .cls-27, .cls-28, .cls-29, .cls-3, .cls-30, .cls-31, .cls-32, .cls-33, .cls-36, .cls-37, .cls-38, .cls-39, .cls-4, .cls-40, .cls-41, .cls-42, .cls-43, .cls-44, .cls-45, .cls-46, .cls-47, .cls-48, .cls-49, .cls-5, .cls-50, .cls-53, .cls-54, .cls-55, .cls-56, .cls-57, .cls-58, .cls-59, .cls-6, .cls-60, .cls-61, .cls-62, .cls-63, .cls-64, .cls-65, .cls-7, .cls-8 {
        isolation: isolate;
      }

      .cls-16, .cls-17, .cls-18, .cls-19, .cls-20, .cls-21, .cls-22, .cls-23, .cls-24, .cls-25, .cls-26, .cls-27, .cls-28, .cls-29, .cls-3, .cls-30, .cls-39, .cls-4, .cls-40, .cls-41, .cls-5, .cls-6, .cls-7, .cls-8 {
        font-size: 5.67px;
      }

      .cls-10, .cls-11, .cls-12, .cls-13, .cls-14, .cls-15, .cls-16, .cls-17, .cls-18, .cls-19, .cls-20, .cls-21, .cls-22, .cls-23, .cls-24, .cls-25, .cls-26, .cls-27, .cls-28, .cls-29, .cls-3, .cls-30, .cls-31, .cls-32, .cls-33, .cls-34, .cls-36, .cls-37, .cls-38, .cls-39, .cls-4, .cls-40, .cls-41, .cls-42, .cls-43, .cls-44, .cls-45, .cls-46, .cls-47, .cls-48, .cls-49, .cls-5, .cls-50, .cls-51, .cls-52, .cls-53, .cls-54, .cls-55, .cls-56, .cls-57, .cls-58, .cls-59, .cls-6, .cls-60, .cls-61, .cls-62, .cls-63, .cls-64, .cls-65, .cls-66, .cls-67, .cls-7, .cls-8, .cls-9 {
        fill: none;
      }

      .cls-10, .cls-11, .cls-12, .cls-13, .cls-14, .cls-15, .cls-16, .cls-17, .cls-18, .cls-19, .cls-20, .cls-21, .cls-22, .cls-23, .cls-24, .cls-25, .cls-26, .cls-27, .cls-28, .cls-29, .cls-3, .cls-30, .cls-31, .cls-32, .cls-33, .cls-34, .cls-36, .cls-37, .cls-38, .cls-39, .cls-4, .cls-40, .cls-41, .cls-42, .cls-43, .cls-44, .cls-45, .cls-46, .cls-47, .cls-48, .cls-49, .cls-5, .cls-50, .cls-51, .cls-52, .cls-53, .cls-54, .cls-55, .cls-56, .cls-57, .cls-58, .cls-59, .cls-6, .cls-60, .cls-61, .cls-62, .cls-63, .cls-64, .cls-65, .cls-7, .cls-8, .cls-9 {
        stroke: red;
      }

      .cls-10, .cls-12, .cls-16, .cls-19, .cls-22, .cls-25, .cls-28, .cls-3, .cls-31, .cls-36, .cls-39, .cls-42, .cls-44, .cls-48, .cls-5, .cls-54, .cls-57, .cls-60, .cls-63 {
        stroke-miterlimit: 10;
      }

      .cls-10, .cls-11, .cls-12, .cls-13, .cls-14, .cls-15, .cls-16, .cls-17, .cls-18, .cls-19, .cls-20, .cls-21, .cls-22, .cls-23, .cls-24, .cls-25, .cls-26, .cls-27, .cls-28, .cls-29, .cls-3, .cls-30, .cls-31, .cls-32, .cls-33, .cls-36, .cls-37, .cls-38, .cls-39, .cls-4, .cls-40, .cls-41, .cls-42, .cls-43, .cls-44, .cls-45, .cls-46, .cls-47, .cls-48, .cls-49, .cls-5, .cls-50, .cls-53, .cls-54, .cls-55, .cls-56, .cls-57, .cls-58, .cls-59, .cls-6, .cls-60, .cls-61, .cls-62, .cls-63, .cls-64, .cls-65, .cls-7, .cls-8 {
        font-family: ArialMT, Arial;
      }

      .cls-3, .cls-4, .cls-7 {
        letter-spacing: 0.46em;
      }

      .cls-11, .cls-13, .cls-17, .cls-20, .cls-23, .cls-26, .cls-29, .cls-32, .cls-37, .cls-4, .cls-40, .cls-43, .cls-45, .cls-49, .cls-55, .cls-58, .cls-6, .cls-61, .cls-64 {
        stroke-miterlimit: 9.999;
      }

      .cls-14, .cls-15, .cls-18, .cls-21, .cls-24, .cls-27, .cls-30, .cls-33, .cls-34, .cls-38, .cls-41, .cls-46, .cls-47, .cls-50, .cls-51, .cls-52, .cls-53, .cls-56, .cls-59, .cls-62, .cls-65, .cls-66, .cls-67, .cls-7, .cls-8, .cls-9 {
        stroke-linecap: round;
        stroke-linejoin: round;
      }

      .cls-18, .cls-21, .cls-24, .cls-27, .cls-30, .cls-41, .cls-46, .cls-47, .cls-7, .cls-8 {
        stroke-width: 0.85px;
      }

      .cls-9 {
        stroke-width: 0.85px;
      }

      .cls-10, .cls-11, .cls-12, .cls-13, .cls-14, .cls-15, .cls-48, .cls-49, .cls-50 {
        font-size: 2.92px;
      }

      .cls-10, .cls-11, .cls-14 {
        letter-spacing: 0.44em;
      }

      .cls-14, .cls-15, .cls-50 {
        stroke-width: 0.28px;
      }

      .cls-16, .cls-17, .cls-18 {
        letter-spacing: 0.24em;
      }

      .cls-19, .cls-20, .cls-21 {
        letter-spacing: 0.25em;
      }

      .cls-22, .cls-23, .cls-24 {
        letter-spacing: 0.36em;
      }

      .cls-25, .cls-26, .cls-27 {
        letter-spacing: 0.419em;
      }

      .cls-28, .cls-29, .cls-30 {
        letter-spacing: 0.55em;
      }

      .cls-31, .cls-32, .cls-33, .cls-36, .cls-37, .cls-38, .cls-53, .cls-54, .cls-55, .cls-56, .cls-57, .cls-58, .cls-59 {
        font-size: 3.78px;
      }

      .cls-33, .cls-38 {
        stroke-width: 0.57px;
      }

      .cls-34 {
        stroke-width: 0.57px;
      }

      .cls-35 {
        letter-spacing: -0.018em;
      }

      .cls-36, .cls-37, .cls-38 {
        letter-spacing: -0.038em;
      }

      .cls-39, .cls-40, .cls-41 {
        letter-spacing: 0.1em;
      }

      .cls-42, .cls-43, .cls-44, .cls-45, .cls-46, .cls-47 {
        font-size: 7.559px;
      }

      .cls-42, .cls-43, .cls-46 {
        letter-spacing: 0.28em;
      }

      .cls-48, .cls-49, .cls-50 {
        letter-spacing: 0.699em;
      }

      .cls-51 {
        stroke-width: 0.43px;
      }

      .cls-52 {
        stroke-width: 0.34px;
      }

      .cls-53, .cls-56, .cls-59, .cls-65 {
        stroke-width: 0.43px;
      }

      .cls-54, .cls-55 {
        letter-spacing: 0.25em;
      }

      .cls-56 {
        letter-spacing: 0.259em;
      }

      .cls-57, .cls-58, .cls-59 {
        letter-spacing: 0.35em;
      }

      .cls-60, .cls-61, .cls-62 {
        font-size: 3.84px;
      }

      .cls-62 {
        stroke-width: 0.36px;
      }

      .cls-63, .cls-64, .cls-65 {
        font-size: 5.76px;
      }

      .cls-66, .cls-67 {
        stroke: #000;
      }

      .cls-66 {
        stroke-width: 0.28px;
      }

      .cls-67 {
        stroke-width: 0.281px;
      }
    </style>
  </defs>
  <title>kulp-lights-f40bpb-v1-01</title>
  <g>
    <g class="cls-1">
      <g class="cls-2">
        <text class="cls-3" transform="translate(71.595 229.12)">5-</text>
        <text class="cls-4" transform="translate(71.595 229.12)">5-</text>
        <text class="cls-5" transform="translate(81.805 229.12)">8</text>
        <text class="cls-6" transform="translate(81.805 229.12)">8</text>
      </g>
    </g>
    <g class="cls-1">
      <g class="cls-2">
        <text class="cls-7" transform="translate(71.595 229.12)">5-</text>
        <text class="cls-8" transform="translate(81.814 229.12)">8</text>
      </g>
    </g>
    <g>
      <path class="cls-9" d="M72.1,224.675h-2l-.21,2,.21-.2.4-.2h1l.41.2.2.2.21.41v1l-.21.41-.2.2-.41.2h-1l-.4-.2-.21-.2" transform="translate(-0.013 -0.005)"/>
      <path class="cls-9" d="M74.1,227.305h3.24" transform="translate(-0.013 -0.005)"/>
      <path class="cls-9" d="M79.957,226.5l-.41-.2-.2-.21-.2-.4v-.2l.2-.41.2-.2.41-.2h.81l.4.2.21.2.2.41v.2l-.2.4-.21.21-.4.2h-.81l-.41.2-.2.21-.2.4v.81l.2.41.2.2.41.2h.81l.4-.2.21-.2.2-.41v-.81l-.2-.4-.21-.21-.4-.2" transform="translate(-0.013 -0.005)"/>
    </g>
  </g>
  <g>
    <g>
      <g class="cls-1">
        <text class="cls-5" transform="translate(19.999 83.91) rotate(90)">GND</text>
        <text class="cls-6" transform="translate(19.999 83.91) rotate(90)">GND</text>
      </g>
      <g class="cls-1">
        <text class="cls-8" transform="translate(19.999 83.899) rotate(90)">GND</text>
      </g>
    </g>
    <g>
      <path class="cls-9" d="M23.831,86.974l.2-.41v-.61l-.2-.6-.4-.41-.41-.2-.81-.2h-.6l-.82.2-.4.2-.4.41-.21.6v.42l.21.61.2.2h1.42v-.81" transform="translate(-0.013 -0.005)"/>
      <path class="cls-9" d="M19.781,88.994h4.25l-4.25,2.43h4.25" transform="translate(-0.013 -0.005)"/>
      <path class="cls-9" d="M19.781,93.454h4.25v1l-.2.61-.4.4-.41.2-.81.2h-.6l-.82-.2-.4-.2-.4-.4-.21-.61v-1" transform="translate(-0.013 -0.005)"/>
    </g>
  </g>
  <g>
    <g class="cls-1">
      <g class="cls-2">
        <text class="cls-10" transform="translate(73.625 106.249) rotate(180)">3</text>
        <text class="cls-11" transform="translate(73.625 106.249) rotate(180)">3</text>
        <text class="cls-12" transform="translate(70.715 106.249) rotate(180)">6</text>
        <text class="cls-13" transform="translate(70.715 106.249) rotate(180)">6</text>
      </g>
    </g>
    <g class="cls-1">
      <g class="cls-2">
        <text class="cls-14" transform="translate(73.625 106.249) rotate(180)">3</text>
        <text class="cls-15" transform="translate(70.706 106.249) rotate(180)">6</text>
      </g>
    </g>
  </g>
  <g>
    <g class="cls-1">
      <g class="cls-2">
        <text class="cls-16" transform="translate(13.839 58.131)">37-40/DM</text>
        <text class="cls-17" transform="translate(13.839 58.131)">37-40/DM</text>
        <text class="cls-5" transform="translate(49.497 58.131)">X</text>
        <text class="cls-6" transform="translate(49.497 58.131)">X</text>
      </g>
    </g>
    <g class="cls-1">
      <g class="cls-2">
        <text class="cls-18" transform="translate(13.839 58.131)">37-40/DM</text>
        <text class="cls-8" transform="translate(49.497 58.131)">X</text>
      </g>
    </g>
    <g>
      <path class="cls-9" d="M9.252,53.686h2.64l-1.42,1.62h.63l.42.2.2.2.2.41v1l-.2.41-.2.2-.42.2H9.872l-.42-.2-.2-.2" transform="translate(-0.013 -0.005)"/>
      <path class="cls-9" d="M13.312,53.686H16.1l-1.83,4.25" transform="translate(-0.013 -0.005)"/>
      <path class="cls-9" d="M17.762,56.316H21" transform="translate(-0.013 -0.005)"/>
      <path class="cls-9" d="M24.851,55.1v2.84" transform="translate(-0.013 -0.005)"/>
      <path class="cls-9" d="M23.831,53.486l-1,3h2.63" transform="translate(-0.013 -0.005)"/>
      <path class="cls-9" d="M27.881,53.686h.41l.4.2.2.2.21.41.2.81v1l-.2.81-.21.41-.2.2-.4.2h-.41l-.4-.2-.21-.2-.2-.41-.2-.81v-1l.2-.81.2-.41.21-.2.4-.2" transform="translate(-0.013 -0.005)"/>
      <path class="cls-9" d="M34.16,53.486l-3.649,5.46" transform="translate(-0.013 -0.005)"/>
      <path class="cls-9" d="M35.58,57.936v-4.25h1l.61.2.4.41.2.4.2.81v.61l-.2.81-.2.4-.4.41-.61.2h-1" transform="translate(-0.013 -0.005)"/>
      <path class="cls-9" d="M39.83,57.936v-4.25l1.41,3,1.42-3v4.25" transform="translate(-0.013 -0.005)"/>
      <path class="cls-9" d="M44.28,53.686l2.82,4.25" transform="translate(-0.013 -0.005)"/>
      <path class="cls-9" d="M47.1,53.686l-2.84,4.25" transform="translate(-0.013 -0.005)"/>
    </g>
    <g class="cls-1">
      <g class="cls-2">
        <text class="cls-19" transform="translate(60.636 58.131)">33-36/DM</text>
        <text class="cls-20" transform="translate(60.636 58.131)">33-36/DM</text>
        <text class="cls-5" transform="translate(97.034 58.131)">X</text>
        <text class="cls-6" transform="translate(97.034 58.131)">X</text>
      </g>
    </g>
    <g class="cls-1">
      <g class="cls-2">
        <text class="cls-21" transform="translate(60.636 58.131)">33-36/DM</text>
        <text class="cls-8" transform="translate(97.043 58.131)">X</text>
      </g>
    </g>
    <g>
      <path class="cls-9" d="M56.1,53.686h2.64l-1.42,1.62h.6l.42.2.2.2.2.41v1l-.2.41-.2.2-.42.2h-1.2l-.42-.2-.2-.2" transform="translate(-0.013 -0.005)"/>
      <path class="cls-9" d="M60.1,53.686h2.62l-1.41,1.62h.61l.4.2.2.2.2.41v1l-.2.41-.2.2-.4.2h-1.21l-.4-.2-.2-.2" transform="translate(-0.013 -0.005)"/>
      <path class="cls-9" d="M64.558,56.316H67.8" transform="translate(-0.013 -0.005)"/>
      <path class="cls-9" d="M69.418,53.686H72.1l-1.42,1.62h.61l.41.2.2.2.2.41v1l-.2.41-.2.2-.41.2h-1.26l-.41-.2-.2-.2" transform="translate(-0.013 -0.005)"/>
      <path class="cls-9" d="M75.688,53.686h-.8l-.41.2-.2.2-.41.61-.2.81v1.62l.2.41.2.2.41.2h.81l.4-.2.21-.2.2-.41v-1l-.2-.41-.21-.2-.4-.2h-.81l-.41.2-.2.2-.2.41" transform="translate(-0.013 -0.005)"/>
      <path class="cls-9" d="M80.957,53.486l-3.649,5.46" transform="translate(-0.013 -0.005)"/>
      <path class="cls-9" d="M82.377,57.936v-4.25h1l.61.2.4.41.2.4.2.81v.61l-.2.81-.2.4-.4.41-.61.2h-1" transform="translate(-0.013 -0.005)"/>
      <path class="cls-9" d="M86.627,57.936v-4.25l1.41,3,1.42-3v4.25" transform="translate(-0.013 -0.005)"/>
      <path class="cls-9" d="M91.1,53.686l2.839,4.25" transform="translate(-0.013 -0.005)"/>
      <path class="cls-9" d="M93.916,53.686,91.1,57.936" transform="translate(-0.013 -0.005)"/>
    </g>
    <g class="cls-1">
      <g class="cls-2">
        <text class="cls-22" transform="translate(112.723 58.131)">29-3</text>
        <text class="cls-23" transform="translate(112.723 58.131)">29-3</text>
        <text class="cls-5" transform="translate(132.131 58.131)">2</text>
        <text class="cls-6" transform="translate(132.131 58.131)">2</text>
      </g>
    </g>
    <g class="cls-1">
      <g class="cls-2">
        <text class="cls-24" transform="translate(112.712 58.131)">29-3</text>
        <text class="cls-8" transform="translate(132.131 58.131)">2</text>
      </g>
    </g>
    <g>
      <path class="cls-9" d="M110.1,54.086l.2-.2.4-.2h1l.4.2.2.2.2.41v.4l-.2.61-2.42,2.43h2.62" transform="translate(-0.013 -0.005)"/>
      <path class="cls-9" d="M114.515,57.936h.81l.4-.2.21-.2.4-.61.21-.81V54.5l-.21-.41-.2-.2-.41-.2h-.8l-.41.2-.2.2-.21.41v1l.21.41.2.2.41.2h.8l.41-.2.2-.2.21-.41" transform="translate(-0.013 -0.005)"/>
      <path class="cls-9" d="M118.365,56.316h3.24" transform="translate(-0.013 -0.005)"/>
      <path class="cls-9" d="M123.224,53.686h2.63l-1.42,1.62h.66l.4.2.21.2.2.41v1l-.2.41-.21.2-.4.2h-1.22l-.4-.2-.2-.2" transform="translate(-0.013 -0.005)"/>
      <path class="cls-9" d="M127.474,54.086l.2-.2.4-.2h1l.4.2.2.2.21.41v.4l-.21.61-2.42,2.43h2.63" transform="translate(-0.013 -0.005)"/>
    </g>
    <g class="cls-1">
      <g class="cls-2">
        <text class="cls-22" transform="translate(161.319 58.131)">25-2</text>
        <text class="cls-23" transform="translate(161.319 58.131)">25-2</text>
        <text class="cls-5" transform="translate(180.728 58.131)">8</text>
        <text class="cls-6" transform="translate(180.728 58.131)">8</text>
      </g>
    </g>
    <g class="cls-1">
      <g class="cls-2">
        <text class="cls-24" transform="translate(161.309 58.131)">25-2</text>
        <text class="cls-8" transform="translate(180.728 58.131)">8</text>
      </g>
    </g>
    <g>
      <path class="cls-9" d="M158.662,54.086l.2-.2.4-.2h1l.4.2.2.2.2.41v.4l-.2.61-2.42,2.43h2.65" transform="translate(-0.013 -0.005)"/>
      <path class="cls-9" d="M164.932,53.686h-2l-.21,2,.21-.2.4-.2h1l.41.2.2.2.21.41v1l-.21.41-.2.2-.41.2h-1l-.4-.2-.21-.2" transform="translate(-0.013 -0.005)"/>
      <path class="cls-9" d="M166.962,56.316H170.2" transform="translate(-0.013 -0.005)"/>
      <path class="cls-9" d="M172.021,54.086l.2-.2.41-.2h1l.4.2.21.2.2.41v.4l-.2.61-2.43,2.43h2.63" transform="translate(-0.013 -0.005)"/>
      <path class="cls-9" d="M176.881,55.506l-.41-.2-.2-.21-.2-.4v-.2l.2-.41.2-.2.41-.2h.81l.4.2.2.2.21.41v.2l-.21.4-.2.21-.4.2h-.81l-.41.2-.2.21-.2.4v.81l.2.41.2.2.41.2h.81l.4-.2.2-.2.21-.41v-.81l-.21-.4-.2-.21-.4-.2" transform="translate(-0.013 -0.005)"/>
    </g>
    <g class="cls-1">
      <g class="cls-2">
        <text class="cls-22" transform="translate(208.116 58.131)">21-2</text>
        <text class="cls-23" transform="translate(208.116 58.131)">21-2</text>
        <text class="cls-5" transform="translate(227.525 58.131)">4</text>
        <text class="cls-6" transform="translate(227.525 58.131)">4</text>
      </g>
    </g>
    <g class="cls-1">
      <g class="cls-2">
        <text class="cls-24" transform="translate(208.106 58.131)">21-2</text>
        <text class="cls-8" transform="translate(227.525 58.131)">4</text>
      </g>
    </g>
    <g>
      <path class="cls-9" d="M205.459,54.086l.2-.2.4-.2h1l.4.2.2.2.2.41v.4l-.2.61-2.42,2.43h2.62" transform="translate(-0.013 -0.005)"/>
      <path class="cls-9" d="M211.939,57.936H209.5" transform="translate(-0.013 -0.005)"/>
      <path class="cls-9" d="M210.719,57.936v-4.25l-.4.61-.41.4-.41.2" transform="translate(-0.013 -0.005)"/>
      <path class="cls-9" d="M213.758,56.316H217" transform="translate(-0.013 -0.005)"/>
      <path class="cls-9" d="M218.818,54.086l.2-.2.41-.2h1l.4.2.21.2.2.41v.4l-.2.61-2.43,2.43h2.63" transform="translate(-0.013 -0.005)"/>
      <path class="cls-9" d="M224.888,55.1v2.84" transform="translate(-0.013 -0.005)"/>
      <path class="cls-9" d="M223.878,53.486l-1,3h2.63" transform="translate(-0.013 -0.005)"/>
    </g>
    <g class="cls-1">
      <g class="cls-2">
        <text class="cls-22" transform="translate(208.116 229.12)">17-2</text>
        <text class="cls-23" transform="translate(208.116 229.12)">17-2</text>
        <text class="cls-5" transform="translate(227.525 229.12)">0</text>
        <text class="cls-6" transform="translate(227.525 229.12)">0</text>
      </g>
    </g>
    <g class="cls-1">
      <g class="cls-2">
        <text class="cls-24" transform="translate(208.106 229.12)">17-2</text>
        <text class="cls-8" transform="translate(227.525 229.12)">0</text>
      </g>
    </g>
    <g>
      <path class="cls-9" d="M207.879,228.925h-2.42" transform="translate(-0.013 -0.005)"/>
      <path class="cls-9" d="M206.669,228.925v-4.25l-.41.61-.4.4-.4.2" transform="translate(-0.013 -0.005)"/>
      <path class="cls-9" d="M209.3,224.675h2.84l-1.82,4.25" transform="translate(-0.013 -0.005)"/>
      <path class="cls-9" d="M213.758,227.305H217" transform="translate(-0.013 -0.005)"/>
      <path class="cls-9" d="M218.818,225.075l.2-.2.41-.2h1l.4.2.21.2.2.41v.4l-.2.61-2.43,2.43h2.63" transform="translate(-0.013 -0.005)"/>
      <path class="cls-9" d="M223.878,224.675h.41l.4.2.2.2.2.41.21.81v1l-.21.81-.2.41-.2.2-.4.2h-.41l-.41-.2-.2-.2-.2-.41-.2-.81v-1l.2-.81.2-.41.2-.2.41-.2" transform="translate(-0.013 -0.005)"/>
    </g>
    <g class="cls-1">
      <g class="cls-2">
        <text class="cls-22" transform="translate(161.319 229.12)">13-1</text>
        <text class="cls-23" transform="translate(161.319 229.12)">13-1</text>
        <text class="cls-5" transform="translate(180.728 229.12)">6</text>
        <text class="cls-6" transform="translate(180.728 229.12)">6</text>
      </g>
    </g>
    <g class="cls-1">
      <g class="cls-2">
        <text class="cls-24" transform="translate(161.309 229.12)">13-1</text>
        <text class="cls-8" transform="translate(180.728 229.12)">6</text>
      </g>
    </g>
    <g>
      <path class="cls-9" d="M161.092,228.925h-2.42" transform="translate(-0.013 -0.005)"/>
      <path class="cls-9" d="M159.872,228.925v-4.25l-.41.61-.4.4-.4.2" transform="translate(-0.013 -0.005)"/>
      <path class="cls-9" d="M162.5,224.675h2.64l-1.42,1.62h.6l.41.2.2.2.21.41v1l-.21.41-.2.2-.41.2h-1.23l-.41-.2-.2-.2" transform="translate(-0.013 -0.005)"/>
      <path class="cls-9" d="M166.962,227.305H170.2" transform="translate(-0.013 -0.005)"/>
      <path class="cls-9" d="M174.451,228.925h-2.43" transform="translate(-0.013 -0.005)"/>
      <path class="cls-9" d="M173.231,228.925v-4.25l-.4.61-.41.4-.4.2" transform="translate(-0.013 -0.005)"/>
      <path class="cls-9" d="M178.091,224.675h-.81l-.4.2-.21.2-.4.61-.2.81v1.62l.2.41.2.2.41.2h.81l.4-.2.2-.2.21-.41v-1l-.21-.41-.2-.2-.4-.2h-.81l-.41.2-.2.2-.2.41" transform="translate(-0.013 -0.005)"/>
    </g>
    <g class="cls-1">
      <g class="cls-2">
        <text class="cls-25" transform="translate(116.102 229.12)">9-1</text>
        <text class="cls-26" transform="translate(116.102 229.12)">9-1</text>
        <text class="cls-5" transform="translate(131.461 229.12)">2</text>
        <text class="cls-6" transform="translate(131.461 229.12)">2</text>
      </g>
    </g>
    <g class="cls-1">
      <g class="cls-2">
        <text class="cls-27" transform="translate(116.092 229.12)">9-1</text>
        <text class="cls-8" transform="translate(131.471 229.12)">2</text>
      </g>
    </g>
    <g>
      <path class="cls-9" d="M114.285,228.925h.81l.4-.2.2-.2.41-.61.2-.81v-1.62l-.2-.41-.21-.2-.4-.2h-.81l-.41.2-.2.2-.2.41v1l.2.41.2.2.41.2h.81l.4-.2.21-.2.2-.41" transform="translate(-0.013 -0.005)"/>
      <path class="cls-9" d="M118.1,227.305h3.24" transform="translate(-0.013 -0.005)"/>
      <path class="cls-9" d="M125.624,228.925h-2.43" transform="translate(-0.013 -0.005)"/>
      <path class="cls-9" d="M124.414,228.925v-4.25l-.41.61-.4.4-.41.2" transform="translate(-0.013 -0.005)"/>
      <path class="cls-9" d="M127.244,225.075l.21-.2.4-.2h1l.41.2.2.2.2.41v.4l-.2.61-2.37,2.43h2.63" transform="translate(-0.013 -0.005)"/>
    </g>
    <g class="cls-1">
      <g class="cls-2">
        <text class="cls-28" transform="translate(24.079 229.12)">1-</text>
        <text class="cls-29" transform="translate(24.079 229.12)">1-</text>
        <text class="cls-5" transform="translate(35.397 229.12)">4</text>
        <text class="cls-6" transform="translate(35.397 229.12)">4</text>
      </g>
    </g>
    <g class="cls-1">
      <g class="cls-2">
        <text class="cls-30" transform="translate(24.079 229.12)">1-</text>
        <text class="cls-8" transform="translate(35.408 229.12)">4</text>
      </g>
    </g>
    <g>
      <path class="cls-9" d="M24.751,228.925h-2.44" transform="translate(-0.013 -0.005)"/>
      <path class="cls-9" d="M23.531,228.925v-4.25l-.4.61-.41.4-.41.2" transform="translate(-0.013 -0.005)"/>
      <path class="cls-9" d="M26.571,227.305h3.24" transform="translate(-0.013 -0.005)"/>
      <path class="cls-9" d="M33.65,226.085v2.84" transform="translate(-0.013 -0.005)"/>
      <path class="cls-9" d="M32.641,224.475l-1,3H34.27" transform="translate(-0.013 -0.005)"/>
    </g>
  </g>
  <g>
    <g>
      <g class="cls-1">
        <text class="cls-31" transform="translate(56.196 106.808) rotate(90)">F40D-PB v1.01</text>
        <text class="cls-32" transform="translate(56.196 106.808) rotate(90)">F40D-PB v1.01</text>
      </g>
      <g class="cls-1">
        <text class="cls-33" transform="translate(56.196 106.798) rotate(90)">F40D-PB v1.01</text>
      </g>
    </g>
    <g>
      <path class="cls-34" d="M56.719,104.543v-.94" transform="translate(-0.013 -0.005)"/>
      <path class="cls-34" d="M55.229,103.6H58.1v1.34" transform="translate(-0.013 -0.005)"/>
      <path class="cls-34" d="M57.1,107.243h-1.87" transform="translate(-0.013 -0.005)"/>
      <path class="cls-34" d="M58.2,106.563l-2-.67v1.75" transform="translate(-0.013 -0.005)"/>
      <path class="cls-34" d="M58.1,109.263v.28l-.13.26-.13.14-.28.14-.54.13h-.67l-.54-.13-.27-.14-.14-.14-.13-.26v-.28l.13-.26.14-.14.27-.14.54-.13h.67l.54.13.28.14.13.14.13.26" transform="translate(-0.013 -0.005)"/>
      <path class="cls-34" d="M55.229,111.423H58.1v.679l-.13.4-.27.28-.27.13-.54.13h-.41l-.54-.13-.26-.13-.28-.28-.13-.4v-.679" transform="translate(-0.013 -0.005)"/>
      <path class="cls-34" d="M56.309,114.262v2.16" transform="translate(-0.013 -0.005)"/>
      <path class="cls-34" d="M55.229,117.772H58.1v1.08l-.13.27-.13.13-.28.14H57.1l-.27-.14-.13-.13-.14-.27v-1.08" transform="translate(-0.013 -0.005)"/>
      <path class="cls-34" d="M56.719,121.552l-.14.4-.14.14-.26.13h-.41l-.27-.13-.14-.14-.13-.27V120.6H58.1v1l-.13.27-.13.13-.28.14H57.3l-.28-.14-.13-.13-.13-.27v-1" transform="translate(-0.013 -0.005)"/>
      <path class="cls-34" d="M57.1,125.372l-1.89.67,1.89.679" transform="translate(-0.013 -0.005)"/>
      <path class="cls-34" d="M55.229,129.241v-1.62" transform="translate(-0.013 -0.005)"/>
      <path class="cls-34" d="M55.229,128.431H58.1l-.4-.27-.27-.27-.13-.27" transform="translate(-0.013 -0.005)"/>
      <path class="cls-34" d="M55.5,130.451l-.14.14-.13-.14.13-.13.14.13h-.27" transform="translate(-0.013 -0.005)"/>
      <path class="cls-34" d="M58.1,132.371v.26l-.13.28-.13.13-.28.13-.54.14h-.67l-.54-.14-.27-.13-.14-.13-.13-.28v-.26l.13-.28.14-.13.27-.13.54-.14h.67l.54.14.28.13.13.13.13.28" transform="translate(-0.013 -0.005)"/>
      <path class="cls-34" d="M55.229,135.991v-1.62" transform="translate(-0.013 -0.005)"/>
      <path class="cls-34" d="M55.229,135.181H58.1l-.4-.27-.27-.27-.13-.27" transform="translate(-0.013 -0.005)"/>
    </g>
    <g>
      <g class="cls-1">
        <text class="cls-31" transform="translate(51.477 99.028) rotate(90)">Designed by Daniel Kulp</text>
        <text class="cls-32" transform="translate(51.477 99.028) rotate(90)">Designed by Daniel Kulp</text>
      </g>
      <g class="cls-1">
        <text class="cls-33" transform="translate(51.477 99.028) rotate(90)">Designed by Daniel Kulp</text>
      </g>
    </g>
    <g>
      <path class="cls-34" d="M50.659,93.944H53.5v.68l-.14.4-.27.28-.27.13-.54.13h-.4l-.54-.13-.24-.13-.27-.28-.14-.4v-.68" transform="translate(-0.013 -0.005)"/>
      <path class="cls-34" d="M50.8,97.863l-.14-.27v-.54l.14-.269.27-.14h1.08l.27.14.13.269v.54l-.13.27-.27.14h-.27l-.27-1.359" transform="translate(-0.013 -0.005)"/>
      <path class="cls-34" d="M50.8,99.083l-.14.26v.54l.14.28.27.13h.13l.27-.13.14-.28v-.4l.13-.27.27-.13h.14l.27.13.13.27v.4l-.13.28" transform="translate(-0.013 -0.005)"/>
      <path class="cls-34" d="M50.659,101.5h1.89" transform="translate(-0.013 -0.005)"/>
      <path class="cls-34" d="M53.5,101.5l-.14-.13-.13.13.13.14.14-.14h-.27" transform="translate(-0.013 -0.005)"/>
      <path class="cls-34" d="M52.549,104.073h-2.29l-.27-.13-.14-.14-.13-.27v-.41l.13-.26" transform="translate(-0.013 -0.005)"/>
      <path class="cls-34" d="M50.8,104.073l-.14-.27v-.54l.14-.27.13-.13.27-.14h.81l.27.14.14.13.13.27v.54l-.13.27" transform="translate(-0.013 -0.005)"/>
      <path class="cls-34" d="M52.549,105.423h-1.89" transform="translate(-0.013 -0.005)"/>
      <path class="cls-34" d="M52.279,105.423l.14.14.13.26v.41l-.13.27-.27.14h-1.49" transform="translate(-0.013 -0.005)"/>
      <path class="cls-34" d="M50.8,109.063l-.14-.27v-.54l.14-.27.27-.13h1.08l.27.13.13.27v.54l-.13.27-.27.14h-.27l-.27-1.35" transform="translate(-0.013 -0.005)"/>
      <path class="cls-34" d="M50.659,111.633H53.5" transform="translate(-0.013 -0.005)"/>
      <path class="cls-34" d="M50.8,111.633l-.14-.27v-.54l.14-.27.13-.14.27-.13h.81l.27.13.14.14.13.27v.55l-.13.27" transform="translate(-0.013 -0.005)"/>
      <path class="cls-34" d="M50.659,115.142H53.5" transform="translate(-0.013 -0.005)"/>
      <path class="cls-34" d="M52.419,115.142l.13.27v.54l-.13.27-.14.13-.27.14H51.2l-.27-.14-.13-.13-.14-.27v-.58l.14-.27" transform="translate(-0.013 -0.005)"/>
      <path class="cls-34" d="M52.549,117.432l-1.89.68" transform="translate(-0.013 -0.005)"/>
      <path class="cls-34" d="M52.549,118.782l-1.89-.67-.67-.27-.14-.14-.13-.27" transform="translate(-0.013 -0.005)"/>
      <path class="cls-34" d="M50.659,122.022H53.5v.67l-.14.41-.26.27-.27.14-.54.13h-.4l-.54-.13-.25-.14-.27-.27-.14-.41v-.67" transform="translate(-0.013 -0.005)"/>
      <path class="cls-34" d="M50.659,126.072h1.49l.27-.14.13-.26v-.54l-.13-.28" transform="translate(-0.013 -0.005)"/>
      <path class="cls-34" d="M50.8,126.072l-.14-.27v-.67l.14-.28.27-.13h.27l.27.13.13.28v.67l.14.27" transform="translate(-0.013 -0.005)"/>
      <path class="cls-34" d="M52.549,127.421h-1.89" transform="translate(-0.013 -0.005)"/>
      <path class="cls-34" d="M52.279,127.421l.14.13.13.28v.4l-.13.27-.27.13h-1.49" transform="translate(-0.013 -0.005)"/>
      <path class="cls-34" d="M50.659,129.991h1.89" transform="translate(-0.013 -0.005)"/>
      <path class="cls-34" d="M53.5,129.991l-.14-.14-.13.14.13.13.14-.13h-.27" transform="translate(-0.013 -0.005)"/>
      <path class="cls-34" d="M50.8,132.371l-.14-.26v-.54l.14-.28.27-.13h1.08l.27.13.13.28v.54l-.13.26-.27.14h-.27l-.27-1.35" transform="translate(-0.013 -0.005)"/>
      <path class="cls-34" d="M50.659,134.171l.14-.27.27-.13H53.5" transform="translate(-0.013 -0.005)"/>
      <path class="cls-34" d="M50.659,137.371H53.5" transform="translate(-0.013 -0.005)"/>
      <path class="cls-34" d="M50.659,139.031l1.62-1.22" transform="translate(-0.013 -0.005)"/>
      <path class="cls-34" d="M53.5,139.031l-1.62-1.66" transform="translate(-0.013 -0.005)"/>
      <path class="cls-34" d="M52.549,141.461h-1.89" transform="translate(-0.013 -0.005)"/>
      <path class="cls-34" d="M52.549,140.251H51.1l-.27.13-.14.27v.4l.14.28.13.13" transform="translate(-0.013 -0.005)"/>
      <path class="cls-34" d="M50.659,143.21l.14-.26.27-.14H53.5" transform="translate(-0.013 -0.005)"/>
      <path class="cls-34" d="M52.549,144.29h-2.83" transform="translate(-0.013 -0.005)"/>
      <path class="cls-34" d="M52.419,144.29l.13.28v.54l-.13.26-.14.14-.27.14H51.2l-.27-.14-.13-.14-.14-.26v-.54l.14-.28" transform="translate(-0.013 -0.005)"/>
    </g>
    <g>
      <g class="cls-1">
        <g class="cls-2">
          <text class="cls-31" transform="translate(46.767 105.548) rotate(90)">Powered by F<tspan class="cls-35" x="23.319" y="0">P</tspan></text>
          <text class="cls-32" transform="translate(46.767 105.548) rotate(90)">Powered by F<tspan class="cls-35" x="23.319" y="0">P</tspan></text>
          <text class="cls-36" transform="translate(46.767 131.386) rotate(90)">P</text>
          <text class="cls-37" transform="translate(46.767 131.386) rotate(90)">P</text>
        </g>
      </g>
      <g class="cls-1">
        <g class="cls-2">
          <text class="cls-33" transform="translate(46.776 105.538) rotate(90)">Powered by F<tspan class="cls-35" x="23.319" y="0">P</tspan></text>
          <text class="cls-38" transform="translate(46.776 131.376) rotate(90)">P</text>
        </g>
      </g>
    </g>
    <g>
      <path class="cls-34" d="M46.1,103.063h2.829v1.08l-.13.26-.13.14-.279.14h-.4l-.27-.14-.13-.14-.14-.26v-1.08" transform="translate(-0.013 -0.005)"/>
      <path class="cls-34" d="M46.1,106.3l.13-.28.14-.13.27-.13h.81l.27.13.13.13.14.28v.4l-.14.27-.13.13-.27.14h-.81l-.27-.14-.14-.13-.13-.27v-.4" transform="translate(-0.013 -0.005)"/>
      <path class="cls-34" d="M47.99,108.183l-1.89.54,1.35.54-1.35.54,1.89.54" transform="translate(-0.013 -0.005)"/>
      <path class="cls-34" d="M46.23,112.5l-.13-.26V111.7l.13-.28.28-.13h1.08l.26.13.14.28v.539l-.14.26-.26.14h-.28l-.21-1.349" transform="translate(-0.013 -0.005)"/>
      <path class="cls-34" d="M46.1,113.862h1.89" transform="translate(-0.013 -0.005)"/>
      <path class="cls-34" d="M47.45,113.862l.27.13.13.13.14.27v.27" transform="translate(-0.013 -0.005)"/>
      <path class="cls-34" d="M46.23,116.692l-.13-.27v-.54l.13-.27.28-.14h1.08l.26.14.14.27v.54l-.14.27-.26.13h-.28l-.21-1.35" transform="translate(-0.013 -0.005)"/>
      <path class="cls-34" d="M46.1,119.252h2.829" transform="translate(-0.013 -0.005)"/>
      <path class="cls-34" d="M46.23,119.252l-.13-.27v-.54l.13-.27.14-.13.27-.14h.81l.27.14.13.13.14.27v.54l-.14.27" transform="translate(-0.013 -0.005)"/>
      <path class="cls-34" d="M46.1,122.762h2.829" transform="translate(-0.013 -0.005)"/>
      <path class="cls-34" d="M47.85,122.762l.14.27v.54l-.14.27-.13.14-.27.13h-.81l-.27-.13-.14-.14-.13-.27v-.54l.13-.27" transform="translate(-0.013 -0.005)"/>
      <path class="cls-34" d="M47.99,125.062l-1.89.67" transform="translate(-0.013 -0.005)"/>
      <path class="cls-34" d="M47.99,126.372l-1.89-.64-.67-.27-.14-.13-.14-.27" transform="translate(-0.013 -0.005)"/>
      <path class="cls-34" d="M47.59,130.591v-.94" transform="translate(-0.013 -0.005)"/>
      <path class="cls-34" d="M46.1,129.651h2.829v1.34" transform="translate(-0.013 -0.005)"/>
      <path class="cls-34" d="M46.1,132.071h2.829v1.08l-.13.28-.13.13-.279.13h-.4l-.27-.13-.13-.13-.14-.28v-1.08" transform="translate(-0.013 -0.005)"/>
      <path class="cls-34" d="M46.1,134.911h2.829v1.08l-.13.27-.13.13-.279.14h-.4l-.27-.14-.13-.13-.14-.27v-1.08" transform="translate(-0.013 -0.005)"/>
    </g>
  </g>
  <g>
    <g class="cls-1">
      <g class="cls-2">
        <text class="cls-39" transform="translate(221.665 203.921)">GN</text>
        <text class="cls-40" transform="translate(221.665 203.921)">GN</text>
        <text class="cls-5" transform="translate(231.265 203.921)">D</text>
        <text class="cls-6" transform="translate(231.265 203.921)">D</text>
      </g>
    </g>
    <g class="cls-1">
      <g class="cls-2">
        <text class="cls-41" transform="translate(221.665 203.921)">GN</text>
        <text class="cls-8" transform="translate(231.274 203.921)">D</text>
      </g>
    </g>
    <g>
      <path class="cls-9" d="M224.738,199.677l-.41-.2h-.61l-.6.2-.41.41-.2.4-.2.809v.61l.2.81.2.4.41.41.6.2h.37l.61-.2.2-.2v-1.42h-.81" transform="translate(-0.013 -0.005)"/>
      <path class="cls-9" d="M226.758,203.726v-4.249l2.429,4.249v-4.249" transform="translate(-0.013 -0.005)"/>
      <path class="cls-9" d="M231.217,203.726v-4.249h1l.61.2.4.41.2.4.21.809v.61l-.21.81-.2.4-.4.41-.61.2h-1" transform="translate(-0.013 -0.005)"/>
    </g>
    <g class="cls-1">
      <g class="cls-2">
        <text class="cls-42" transform="translate(223.345 175.833)">5</text>
        <text class="cls-43" transform="translate(223.345 175.833)">5</text>
        <text class="cls-44" transform="translate(229.664 175.833)">V</text>
        <text class="cls-45" transform="translate(229.664 175.833)">V</text>
      </g>
    </g>
    <g class="cls-1">
      <g class="cls-2">
        <text class="cls-46" transform="translate(223.335 175.833)">5</text>
        <text class="cls-47" transform="translate(229.664 175.833)">V</text>
      </g>
    </g>
    <g>
      <path class="cls-9" d="M226.9,169.9h-2.7l-.27,2.7.27-.27.54-.27h1.35l.54.27.27.27.27.54v1.35l-.27.54-.27.27-.54.27h-1.35l-.54-.27-.27-.27" transform="translate(-0.013 -0.005)"/>
      <path class="cls-9" d="M228.787,169.9l1.89,5.669,1.89-5.669" transform="translate(-0.013 -0.005)"/>
    </g>
  </g>
  <g>
    <g class="cls-1">
      <g class="cls-2">
        <text class="cls-48" transform="translate(73.855 98.599) rotate(180)">3</text>
        <text class="cls-49" transform="translate(73.855 98.599) rotate(180)">3</text>
        <text class="cls-12" transform="translate(70.206 98.599) rotate(180)">5</text>
        <text class="cls-13" transform="translate(70.206 98.599) rotate(180)">5</text>
      </g>
    </g>
    <g class="cls-1">
      <g class="cls-2">
        <text class="cls-50" transform="translate(73.855 98.599) rotate(180)">3</text>
        <text class="cls-15" transform="translate(70.206 98.599) rotate(180)">5</text>
      </g>
    </g>
  </g>
  <g>
    <g class="cls-1">
      <text class="cls-12" transform="translate(204.657 106.409) rotate(180)">2</text>
      <text class="cls-13" transform="translate(204.657 106.409) rotate(180)">2</text>
    </g>
    <g class="cls-1">
      <text class="cls-15" transform="translate(204.657 106.419) rotate(180)">2</text>
    </g>
  </g>
  <g>
    <g class="cls-1">
      <text class="cls-12" transform="translate(204.827 99.028) rotate(180)">1</text>
      <text class="cls-13" transform="translate(204.827 99.028) rotate(180)">1</text>
    </g>
    <g class="cls-1">
      <text class="cls-15" transform="translate(204.827 99.038) rotate(180)">1</text>
    </g>
  </g>
  <g>
    <g class="cls-1">
      <text class="cls-12" transform="translate(204.546 170.845) rotate(180)">1</text>
      <text class="cls-13" transform="translate(204.546 170.845) rotate(180)">1</text>
    </g>
    <g class="cls-1">
      <text class="cls-15" transform="translate(204.546 170.845) rotate(180)">1</text>
    </g>
  </g>
  <path class="cls-51" d="M187.41,90.134H88.217" transform="translate(-0.013 -0.005)"/>
  <path class="cls-51" d="M88.217,189.367H187.41" transform="translate(-0.013 -0.005)"/>
  <path class="cls-51" d="M187.42,189.367a28.337,28.337,0,0,0,28.348-28.328v-.01" transform="translate(-0.013 -0.005)"/>
  <path class="cls-51" d="M215.758,161V118.482" transform="translate(-0.013 -0.005)"/>
  <path class="cls-51" d="M215.768,118.492A28.348,28.348,0,0,0,187.42,90.144h0" transform="translate(-0.013 -0.005)"/>
  <path class="cls-51" d="M88.217,90.144a28.348,28.348,0,0,0-28.348,28.348" transform="translate(-0.013 -0.005)"/>
  <path class="cls-51" d="M59.869,118.482V161" transform="translate(-0.013 -0.005)"/>
  <path class="cls-51" d="M59.869,161.009a28.338,28.338,0,0,0,28.318,28.358h.03" transform="translate(-0.013 -0.005)"/>
  <g>
    <g class="cls-1">
      <text class="cls-12" transform="translate(204.367 178.224) rotate(180)">2</text>
      <text class="cls-13" transform="translate(204.367 178.224) rotate(180)">2</text>
    </g>
    <g class="cls-1">
      <text class="cls-15" transform="translate(204.367 178.224) rotate(180)">2</text>
    </g>
  </g>
  <path class="cls-52" d="M5.632,122.122h.24" transform="translate(-0.013 -0.005)"/>
  <path class="cls-52" d="M5.632,108.693h.24" transform="translate(-0.013 -0.005)"/>
  <path class="cls-52" d="M.183,79.725v1.13" transform="translate(-0.013 -0.005)"/>
  <path class="cls-52" d="M2,79.725H.183" transform="translate(-0.013 -0.005)"/>
  <path class="cls-52" d="M11.1,92.2l-.36-.37" transform="translate(-0.013 -0.005)"/>
  <path class="cls-52" d="M17.4,98.483l-.26-.27" transform="translate(-0.013 -0.005)"/>
  <path class="cls-52" d="M10.442,92.684l-.27-.26" transform="translate(-0.013 -0.005)"/>
  <path class="cls-52" d="M16.812,99.063l-.36-.37" transform="translate(-0.013 -0.005)"/>
  <path class="cls-52" d="M22.751,100.583H.863" transform="translate(-0.013 -0.005)"/>
  <path class="cls-52" d="M22.751,80.375H.863" transform="translate(-0.013 -0.005)"/>
  <path class="cls-52" d="M.863,80.375v20.188" transform="translate(-0.013 -0.005)"/>
  <path class="cls-52" d="M22.751,80.375v20.188" transform="translate(-0.013 -0.005)"/>
  <path class="cls-52" d="M5.282,80.375v20.188" transform="translate(-0.013 -0.005)"/>
  <path class="cls-52" d="M2.163,80.375v20.188" transform="translate(-0.013 -0.005)"/>
  <circle class="cls-52" cx="13.779" cy="95.449" r="4.76"/>
  <path class="cls-52" d="M9.712,83.074a4.753,4.753,0,0,0-.68,2.54" transform="translate(-0.013 -0.005)"/>
  <path class="cls-52" d="M16.242,81.455a4.73,4.73,0,0,0-5,0" transform="translate(-0.013 -0.005)"/>
  <path class="cls-52" d="M17.872,87.984a4.751,4.751,0,0,0,0-5" transform="translate(-0.013 -0.005)"/>
  <path class="cls-52" d="M11.262,89.574a4.75,4.75,0,0,0,5.05,0" transform="translate(-0.013 -0.005)"/>
  <path class="cls-52" d="M9.032,85.534a4.765,4.765,0,0,0,.72,2.52" transform="translate(-0.013 -0.005)"/>
  <path class="cls-52" d="M241.577,198.617v-1.13" transform="translate(-0.013 -0.005)"/>
  <path class="cls-52" d="M239.767,198.617h1.81" transform="translate(-0.013 -0.005)"/>
  <path class="cls-52" d="M230.637,186.128l.36.369" transform="translate(-0.013 -0.005)"/>
  <path class="cls-52" d="M224.358,179.848l.27.27" transform="translate(-0.013 -0.005)"/>
  <path class="cls-52" d="M231.327,185.648l.26.27" transform="translate(-0.013 -0.005)"/>
  <path class="cls-52" d="M224.948,179.268l.36.37" transform="translate(-0.013 -0.005)"/>
  <path class="cls-52" d="M219.018,177.748H240.9" transform="translate(-0.013 -0.005)"/>
  <path class="cls-52" d="M219.018,197.937H240.9" transform="translate(-0.013 -0.005)"/>
  <path class="cls-52" d="M240.9,197.937V177.748" transform="translate(-0.013 -0.005)"/>
  <path class="cls-52" d="M219.018,197.937V177.748" transform="translate(-0.013 -0.005)"/>
  <path class="cls-52" d="M236.477,197.937V177.748" transform="translate(-0.013 -0.005)"/>
  <path class="cls-52" d="M239.6,197.937V177.748" transform="translate(-0.013 -0.005)"/>
  <circle class="cls-52" cx="227.965" cy="182.883" r="4.76"/>
  <path class="cls-52" d="M232.087,195.257a4.687,4.687,0,0,0,.68-2.53" transform="translate(-0.013 -0.005)"/>
  <path class="cls-52" d="M225.518,196.887a4.77,4.77,0,0,0,5,0" transform="translate(-0.013 -0.005)"/>
  <path class="cls-52" d="M223.9,190.367a4.768,4.768,0,0,0,0,5" transform="translate(-0.013 -0.005)"/>
  <path class="cls-52" d="M230.507,188.767a4.749,4.749,0,0,0-5,0" transform="translate(-0.013 -0.005)"/>
  <path class="cls-52" d="M232.737,192.807a4.756,4.756,0,0,0-.72-2.52" transform="translate(-0.013 -0.005)"/>
  <path class="cls-52" d="M242.916,121.022v42.487" transform="translate(-0.013 -0.005)"/>
  <path class="cls-52" d="M52.1,40.2l-1.41,1.42" transform="translate(-0.013 -0.005)"/>
  <path class="cls-52" d="M52.1,43.027V40.2" transform="translate(-0.013 -0.005)"/>
  <path class="cls-52" d="M50.709,41.617l1.39,1.41" transform="translate(-0.013 -0.005)"/>
  <path class="cls-52" d="M5.922,52.376H50.479" transform="translate(-0.013 -0.005)"/>
  <path class="cls-52" d="M50.479,52.376V4.91" transform="translate(-0.013 -0.005)"/>
  <path class="cls-52" d="M5.892,52.376V4.91" transform="translate(-0.013 -0.005)"/>
  <path class="cls-52" d="M5.892,4.91H50.479" transform="translate(-0.013 -0.005)"/>
  <path class="cls-52" d="M98.916,40.2l-1.41,1.42" transform="translate(-0.013 -0.005)"/>
  <path class="cls-52" d="M98.916,43.027V40.2" transform="translate(-0.013 -0.005)"/>
  <path class="cls-52" d="M97.506,41.617l1.41,1.41" transform="translate(-0.013 -0.005)"/>
  <path class="cls-52" d="M52.719,52.376H97.276" transform="translate(-0.013 -0.005)"/>
  <path class="cls-52" d="M97.276,52.376V4.91" transform="translate(-0.013 -0.005)"/>
  <path class="cls-52" d="M52.689,52.376V4.91" transform="translate(-0.013 -0.005)"/>
  <path class="cls-52" d="M52.689,4.91H97.276" transform="translate(-0.013 -0.005)"/>
  <path class="cls-52" d="M145.713,40.2l-1.41,1.42" transform="translate(-0.013 -0.005)"/>
  <path class="cls-52" d="M145.713,43.027V40.2" transform="translate(-0.013 -0.005)"/>
  <path class="cls-52" d="M144.3,41.617l1.41,1.41" transform="translate(-0.013 -0.005)"/>
  <path class="cls-52" d="M99.516,52.376h44.577" transform="translate(-0.013 -0.005)"/>
  <path class="cls-52" d="M144.093,52.376V4.91" transform="translate(-0.013 -0.005)"/>
  <path class="cls-52" d="M99.486,52.376V4.91" transform="translate(-0.013 -0.005)"/>
  <path class="cls-52" d="M99.486,4.91h44.607" transform="translate(-0.013 -0.005)"/>
  <path class="cls-52" d="M192.51,40.2l-1.42,1.42" transform="translate(-0.013 -0.005)"/>
  <path class="cls-52" d="M192.51,43.027V40.2" transform="translate(-0.013 -0.005)"/>
  <path class="cls-52" d="M191.09,41.617l1.41,1.41" transform="translate(-0.013 -0.005)"/>
  <path class="cls-52" d="M146.313,52.376H190.87" transform="translate(-0.013 -0.005)"/>
  <path class="cls-52" d="M190.87,52.376V4.91" transform="translate(-0.013 -0.005)"/>
  <path class="cls-52" d="M146.283,52.376V4.91" transform="translate(-0.013 -0.005)"/>
  <path class="cls-52" d="M146.283,4.91H190.87" transform="translate(-0.013 -0.005)"/>
  <path class="cls-52" d="M239.307,40.2l-1.41,1.42" transform="translate(-0.013 -0.005)"/>
  <path class="cls-52" d="M239.307,43.027V40.2" transform="translate(-0.013 -0.005)"/>
  <path class="cls-52" d="M237.9,41.617l1.41,1.41" transform="translate(-0.013 -0.005)"/>
  <path class="cls-52" d="M193.09,52.376h44.557" transform="translate(-0.013 -0.005)"/>
  <path class="cls-52" d="M237.667,52.376V4.91" transform="translate(-0.013 -0.005)"/>
  <path class="cls-52" d="M193.09,52.376V4.91" transform="translate(-0.013 -0.005)"/>
  <path class="cls-52" d="M193.09,4.91h44.587" transform="translate(-0.013 -0.005)"/>
  <path class="cls-52" d="M239.307,268.782l-1.41,1.42" transform="translate(-0.013 -0.005)"/>
  <path class="cls-52" d="M239.307,271.612v-2.83" transform="translate(-0.013 -0.005)"/>
  <path class="cls-52" d="M237.9,270.2l1.41,1.41" transform="translate(-0.013 -0.005)"/>
  <path class="cls-52" d="M193.09,280.941h44.557" transform="translate(-0.013 -0.005)"/>
  <path class="cls-52" d="M237.667,280.941V233.494" transform="translate(-0.013 -0.005)"/>
  <path class="cls-52" d="M193.09,280.941V233.494" transform="translate(-0.013 -0.005)"/>
  <path class="cls-52" d="M193.09,233.494h44.587" transform="translate(-0.013 -0.005)"/>
  <path class="cls-52" d="M192.51,268.782l-1.42,1.42" transform="translate(-0.013 -0.005)"/>
  <path class="cls-52" d="M192.51,271.612v-2.83" transform="translate(-0.013 -0.005)"/>
  <path class="cls-52" d="M191.09,270.2l1.41,1.41" transform="translate(-0.013 -0.005)"/>
  <path class="cls-52" d="M146.313,280.941H190.87" transform="translate(-0.013 -0.005)"/>
  <path class="cls-52" d="M190.87,280.941V233.494" transform="translate(-0.013 -0.005)"/>
  <path class="cls-52" d="M146.283,280.941V233.494" transform="translate(-0.013 -0.005)"/>
  <path class="cls-52" d="M146.283,233.494H190.87" transform="translate(-0.013 -0.005)"/>
  <path class="cls-52" d="M145.713,268.782l-1.41,1.42" transform="translate(-0.013 -0.005)"/>
  <path class="cls-52" d="M145.713,271.612v-2.83" transform="translate(-0.013 -0.005)"/>
  <path class="cls-52" d="M144.3,270.2l1.41,1.41" transform="translate(-0.013 -0.005)"/>
  <path class="cls-52" d="M99.516,280.941h44.577" transform="translate(-0.013 -0.005)"/>
  <path class="cls-52" d="M144.093,280.941V233.494" transform="translate(-0.013 -0.005)"/>
  <path class="cls-52" d="M99.486,280.941V233.494" transform="translate(-0.013 -0.005)"/>
  <path class="cls-52" d="M99.486,233.494h44.607" transform="translate(-0.013 -0.005)"/>
  <path class="cls-52" d="M98.916,268.782l-1.41,1.42" transform="translate(-0.013 -0.005)"/>
  <path class="cls-52" d="M98.916,271.612v-2.83" transform="translate(-0.013 -0.005)"/>
  <path class="cls-52" d="M97.506,270.2l1.41,1.41" transform="translate(-0.013 -0.005)"/>
  <path class="cls-52" d="M52.719,280.941H97.276" transform="translate(-0.013 -0.005)"/>
  <path class="cls-52" d="M97.276,280.941V233.494" transform="translate(-0.013 -0.005)"/>
  <path class="cls-52" d="M52.689,280.941V233.494" transform="translate(-0.013 -0.005)"/>
  <path class="cls-52" d="M52.689,233.494H97.276" transform="translate(-0.013 -0.005)"/>
  <path class="cls-52" d="M52.1,268.782l-1.41,1.42" transform="translate(-0.013 -0.005)"/>
  <path class="cls-52" d="M52.1,271.612v-2.83" transform="translate(-0.013 -0.005)"/>
  <path class="cls-52" d="M50.709,270.2l1.39,1.41" transform="translate(-0.013 -0.005)"/>
  <path class="cls-52" d="M5.922,280.941H50.479" transform="translate(-0.013 -0.005)"/>
  <path class="cls-52" d="M50.479,280.941V233.494" transform="translate(-0.013 -0.005)"/>
  <path class="cls-52" d="M5.892,280.941V233.494" transform="translate(-0.013 -0.005)"/>
  <path class="cls-52" d="M5.892,233.494H50.479" transform="translate(-0.013 -0.005)"/>
  <path class="cls-51" d="M58.689,151.64h.41" transform="translate(-0.013 -0.005)"/>
  <path class="cls-51" d="M58.689,163.369h.14" transform="translate(-0.013 -0.005)"/>
  <g>
    <g class="cls-1">
      <text class="cls-31" transform="translate(24.899 88.179) rotate(90)">V2</text>
      <text class="cls-32" transform="translate(24.899 88.179) rotate(90)">V2</text>
    </g>
    <g class="cls-1">
      <text class="cls-53" transform="translate(24.899 88.169) rotate(90)">V2</text>
    </g>
  </g>
  <g>
    <path class="cls-51" d="M27.1,88.194l-2.84,1,2.84.94" transform="translate(-0.013 -0.005)"/>
    <path class="cls-51" d="M26.861,90.894l.13.14.14.26v.68l-.14.27-.13.13-.27.14h-.27l-.41-.14-1.62-1.62v1.76" transform="translate(-0.013 -0.005)"/>
  </g>
  <g>
    <g class="cls-1">
      <text class="cls-31" transform="translate(222.155 189.712) rotate(-90)">V1</text>
      <text class="cls-32" transform="translate(222.155 189.712) rotate(-90)">V1</text>
    </g>
    <g class="cls-1">
      <text class="cls-53" transform="translate(222.155 189.712) rotate(-90)">V1</text>
    </g>
  </g>
  <g>
    <path class="cls-51" d="M219.938,189.7l2.84-.94-2.84-.95" transform="translate(-0.013 -0.005)"/>
    <path class="cls-51" d="M222.778,185.368v1.619" transform="translate(-0.013 -0.005)"/>
    <path class="cls-51" d="M222.778,186.188h-2.84l.41.27.27.269.13.27" transform="translate(-0.013 -0.005)"/>
  </g>
  <g class="cls-1">
    <g class="cls-2">
      <text class="cls-54" transform="translate(24.099 25.023)">X1</text>
      <text class="cls-55" transform="translate(24.099 25.023)">X1</text>
      <text class="cls-31" transform="translate(30.648 25.023)">0</text>
      <text class="cls-32" transform="translate(30.648 25.023)">0</text>
    </g>
  </g>
  <g class="cls-1">
    <g class="cls-2">
      <text class="cls-56" transform="translate(24.088 25.023)">X1</text>
      <text class="cls-53" transform="translate(30.638 25.023)">0</text>
    </g>
  </g>
  <g class="cls-1">
    <g class="cls-2">
      <text class="cls-57" transform="translate(71.945 25.023)">X</text>
      <text class="cls-58" transform="translate(71.945 25.023)">X</text>
      <text class="cls-31" transform="translate(75.795 25.023)">9</text>
      <text class="cls-32" transform="translate(75.795 25.023)">9</text>
    </g>
  </g>
  <g class="cls-1">
    <g class="cls-2">
      <text class="cls-59" transform="translate(71.945 25.023)">X</text>
      <text class="cls-53" transform="translate(75.795 25.023)">9</text>
    </g>
  </g>
  <g class="cls-1">
    <g class="cls-2">
      <text class="cls-57" transform="translate(118.022 24.663)">X</text>
      <text class="cls-58" transform="translate(118.022 24.663)">X</text>
      <text class="cls-31" transform="translate(121.872 24.663)">8</text>
      <text class="cls-32" transform="translate(121.872 24.663)">8</text>
    </g>
  </g>
  <g class="cls-1">
    <g class="cls-2">
      <text class="cls-59" transform="translate(118.022 24.663)">X</text>
      <text class="cls-53" transform="translate(121.872 24.663)">8</text>
    </g>
  </g>
  <g class="cls-1">
    <g class="cls-2">
      <text class="cls-57" transform="translate(165.539 23.943)">X</text>
      <text class="cls-58" transform="translate(165.539 23.943)">X</text>
      <text class="cls-31" transform="translate(169.389 23.943)">7</text>
      <text class="cls-32" transform="translate(169.389 23.943)">7</text>
    </g>
  </g>
  <g class="cls-1">
    <g class="cls-2">
      <text class="cls-59" transform="translate(165.539 23.943)">X</text>
      <text class="cls-53" transform="translate(169.389 23.943)">7</text>
    </g>
  </g>
  <g class="cls-1">
    <g class="cls-2">
      <text class="cls-57" transform="translate(211.976 20.703)">X</text>
      <text class="cls-58" transform="translate(211.976 20.703)">X</text>
      <text class="cls-31" transform="translate(215.826 20.703)">6</text>
      <text class="cls-32" transform="translate(215.826 20.703)">6</text>
    </g>
  </g>
  <g class="cls-1">
    <g class="cls-2">
      <text class="cls-59" transform="translate(211.976 20.703)">X</text>
      <text class="cls-53" transform="translate(215.826 20.703)">6</text>
    </g>
  </g>
  <g class="cls-1">
    <g class="cls-2">
      <text class="cls-57" transform="translate(212.336 253.248)">X</text>
      <text class="cls-58" transform="translate(212.336 253.248)">X</text>
      <text class="cls-31" transform="translate(216.185 253.248)">5</text>
      <text class="cls-32" transform="translate(216.185 253.248)">5</text>
    </g>
  </g>
  <g class="cls-1">
    <g class="cls-2">
      <text class="cls-59" transform="translate(212.336 253.248)">X</text>
      <text class="cls-53" transform="translate(216.185 253.248)">5</text>
    </g>
  </g>
  <g class="cls-1">
    <g class="cls-2">
      <text class="cls-57" transform="translate(165.179 253.248)">X</text>
      <text class="cls-58" transform="translate(165.179 253.248)">X</text>
      <text class="cls-31" transform="translate(169.029 253.248)">4</text>
      <text class="cls-32" transform="translate(169.029 253.248)">4</text>
    </g>
  </g>
  <g class="cls-1">
    <g class="cls-2">
      <text class="cls-59" transform="translate(165.179 253.248)">X</text>
      <text class="cls-53" transform="translate(169.029 253.248)">4</text>
    </g>
  </g>
  <g class="cls-1">
    <g class="cls-2">
      <text class="cls-57" transform="translate(118.382 253.248)">X</text>
      <text class="cls-58" transform="translate(118.382 253.248)">X</text>
      <text class="cls-31" transform="translate(122.232 253.248)">3</text>
      <text class="cls-32" transform="translate(122.232 253.248)">3</text>
    </g>
  </g>
  <g class="cls-1">
    <g class="cls-2">
      <text class="cls-59" transform="translate(118.382 253.248)">X</text>
      <text class="cls-53" transform="translate(122.232 253.248)">3</text>
    </g>
  </g>
  <g class="cls-1">
    <g class="cls-2">
      <text class="cls-57" transform="translate(71.945 253.608)">X</text>
      <text class="cls-58" transform="translate(71.945 253.608)">X</text>
      <text class="cls-31" transform="translate(75.795 253.608)">2</text>
      <text class="cls-32" transform="translate(75.795 253.608)">2</text>
    </g>
  </g>
  <g class="cls-1">
    <g class="cls-2">
      <text class="cls-59" transform="translate(71.945 253.608)">X</text>
      <text class="cls-53" transform="translate(75.795 253.608)">2</text>
    </g>
  </g>
  <g class="cls-1">
    <g class="cls-2">
      <text class="cls-57" transform="translate(27.668 257.207)">X</text>
      <text class="cls-58" transform="translate(27.668 257.207)">X</text>
      <text class="cls-31" transform="translate(31.518 257.207)">1</text>
      <text class="cls-32" transform="translate(31.518 257.207)">1</text>
    </g>
  </g>
  <g class="cls-1">
    <g class="cls-2">
      <text class="cls-59" transform="translate(27.668 257.207)">X</text>
      <text class="cls-53" transform="translate(31.518 257.207)">1</text>
    </g>
  </g>
  <g>
    <g class="cls-1">
      <text class="cls-60" transform="translate(208.046 185.582) rotate(-90)">P2</text>
      <text class="cls-61" transform="translate(208.046 185.582) rotate(-90)">P2</text>
    </g>
    <g class="cls-1">
      <text class="cls-62" transform="translate(208.036 185.592) rotate(-90)">P2</text>
    </g>
  </g>
  <g class="cls-1">
    <text class="cls-63" transform="translate(136.121 177.893)">~</text>
    <text class="cls-64" transform="translate(136.121 177.893)">~</text>
  </g>
  <g class="cls-1">
    <text class="cls-65" transform="translate(136.121 177.893)">~</text>
  </g>
  <circle class="cls-51" cx="15.579" cy="216.201" r="8.499"/>
  <circle class="cls-51" cx="227.965" cy="216.201" r="8.499"/>
  <circle class="cls-51" cx="227.965" cy="66.811" r="8.499"/>
  <circle class="cls-51" cx="15.579" cy="66.811" r="8.499"/>
  <g>
    <path class="cls-51" d="M4.792.22V282.8" transform="translate(-0.013 -0.005)"/>
    <path class="cls-51" d="M238.777.22H4.792" transform="translate(-0.013 -0.005)"/>
    <path class="cls-51" d="M238.777,282.8V.22" transform="translate(-0.013 -0.005)"/>
    <path class="cls-51" d="M4.792,282.8H238.777" transform="translate(-0.013 -0.005)"/>
  </g>
  <circle class="cls-66" cx="15.579" cy="66.811" r="4.25"/>
  <circle class="cls-66" cx="228.175" cy="216.41" r="4.25"/>
  <circle class="cls-67" cx="15.859" cy="216.48" r="4.25"/>
  <circle class="cls-66" cx="228.055" cy="67.09" r="4.25"/>
</svg>
