<?xml version="1.0" encoding="UTF-8" standalone="no"?>
<!-- Creator: CorelDRAW X8 -->

<svg
   xmlns:dc="http://purl.org/dc/elements/1.1/"
   xmlns:cc="http://creativecommons.org/ns#"
   xmlns:rdf="http://www.w3.org/1999/02/22-rdf-syntax-ns#"
   xmlns:svg="http://www.w3.org/2000/svg"
   xmlns="http://www.w3.org/2000/svg"
   xmlns:sodipodi="http://sodipodi.sourceforge.net/DTD/sodipodi-0.dtd"
   xmlns:inkscape="http://www.inkscape.org/namespaces/inkscape"
   xml:space="preserve"
   width="66.5mm"
   height="73.5mm"
   version="1.1"
   style="clip-rule:evenodd;fill-rule:evenodd;image-rendering:optimizeQuality;shape-rendering:geometricPrecision;text-rendering:geometricPrecision"
   viewBox="0 0 2618.1103 2893.7009"
   id="svg38"
   sodipodi:docname="PocketScroller_v2.svg"
   inkscape:version="0.92.4 (5da689c313, 2019-01-14)"><metadata
   id="metadata42"><rdf:RDF><cc:Work
       rdf:about=""><dc:format>image/svg+xml</dc:format><dc:type
         rdf:resource="http://purl.org/dc/dcmitype/StillImage" /><dc:title></dc:title></cc:Work></rdf:RDF></metadata><sodipodi:namedview
   pagecolor="#ffffff"
   bordercolor="#666666"
   borderopacity="1"
   objecttolerance="10"
   gridtolerance="10"
   guidetolerance="10"
   inkscape:pageopacity="0"
   inkscape:pageshadow="2"
   inkscape:window-width="2048"
   inkscape:window-height="1089"
   id="namedview40"
   showgrid="false"
   inkscape:zoom="1.436715"
   inkscape:cx="216.76523"
   inkscape:cy="99.985947"
   inkscape:window-x="-8"
   inkscape:window-y="-8"
   inkscape:window-maximized="1"
   inkscape:current-layer="svg38"
   units="mm" />
 <defs
   id="defs4">
  <style
   type="text/css"
   id="style2">
   <![CDATA[
    .str0 {stroke:#C2C200;stroke-width:6.66535;stroke-linecap:round;stroke-linejoin:round}
    .str1 {stroke:#000084;stroke-width:3.65748;stroke-linecap:round;stroke-linejoin:round}
    .fil0 {fill:none;fill-rule:nonzero}
    .fil1 {fill:#000084;fill-rule:nonzero}
   ]]>
  </style>
 
  
  
  
  
  
  
  
  
  
  
  
  
 </defs>
 <path
   id="path17"
   style="fill:none;fill-rule:nonzero;stroke:#ff0000;stroke-width:10.43307114;stroke-linecap:round;stroke-linejoin:round;stroke-miterlimit:4;stroke-dasharray:none;stroke-opacity:1"
   d="m 2364.8623,23.889947 c 27,0 50,21.999999 50,49.999998 m -2400.000054,0 -3,2806.999655 m 3,-2806.999655 c 0,-27.999999 22,-49.999998 49.999998,-49.999998 m 2300.000056,0 H 64.862244 M 2411.8623,2880.8896 l 3,-2806.999655 M 11.862246,2880.8896 H 2411.8623"
   inkscape:connector-curvature="0" /><path
   style="fill:none;fill-rule:nonzero;stroke:#000000;stroke-width:10.43307114;stroke-linecap:round;stroke-linejoin:round;stroke-miterlimit:4;stroke-dasharray:none;stroke-opacity:1"
   inkscape:connector-curvature="0"
   id="path35"
   d="m 159.93705,145.35254 c 0,31.313 -26.0942,56.5374 -56.5374,56.5374 -31.313006,0 -56.537409,-25.2244 -56.537409,-56.5374 0,-31.313 25.224403,-56.537395 56.537409,-56.537395 30.4432,0 56.5374,25.224395 56.5374,56.537395 z m 0,0 z"
   class="fil0 str1" />
<circle
   style="clip-rule:evenodd;fill:none;fill-rule:evenodd;stroke:#000000;stroke-width:10.43307114;stroke-miterlimit:4;stroke-dasharray:none;stroke-opacity:1;image-rendering:optimizeQuality;shape-rendering:geometricPrecision;text-rendering:geometricPrecision"
   id="path882-1"
   cx="2279.2288"
   cy="512.52405"
   r="57.866135" /><circle
   style="clip-rule:evenodd;fill:none;fill-rule:evenodd;stroke:#000000;stroke-width:10.43307114;stroke-miterlimit:4;stroke-dasharray:none;stroke-opacity:1;image-rendering:optimizeQuality;shape-rendering:geometricPrecision;text-rendering:geometricPrecision"
   id="path882-8"
   cx="2229.2288"
   cy="1562.5239"
   r="57.866135" /><circle
   style="clip-rule:evenodd;fill:none;fill-rule:evenodd;stroke:#000000;stroke-width:10.43307114;stroke-miterlimit:4;stroke-dasharray:none;stroke-opacity:1;image-rendering:optimizeQuality;shape-rendering:geometricPrecision;text-rendering:geometricPrecision"
   id="path882-89"
   cx="229.22845"
   cy="1612.5239"
   r="57.866135" /><circle
   style="clip-rule:evenodd;fill:none;fill-rule:evenodd;stroke:#000000;stroke-width:10.43307114;stroke-miterlimit:4;stroke-dasharray:none;stroke-opacity:1;image-rendering:optimizeQuality;shape-rendering:geometricPrecision;text-rendering:geometricPrecision"
   id="path882-1-6"
   cx="1329.2284"
   cy="862.52405"
   r="57.866135" /><rect
   style="fill:none;stroke:#ff0000;stroke-width:10.43307114;stroke-miterlimit:4;stroke-dasharray:none;stroke-opacity:1"
   id="rect944"
   width="572.74261"
   height="563.19696"
   x="2017.4229"
   y="720.54163" /><rect
   style="fill:none;stroke:#ff0000;stroke-width:10.43307114;stroke-miterlimit:4;stroke-dasharray:none;stroke-opacity:1"
   id="rect946"
   width="249.77943"
   height="343.6456"
   x="2148.1833"
   y="57.113861" /><g
   aria-label="5V"
   style="font-style:normal;font-weight:normal;font-size:416.66668701px;line-height:1.25;font-family:sans-serif;letter-spacing:0px;word-spacing:0px;fill:#ff0000;fill-opacity:1;stroke:none;stroke-width:10.41666698"
   id="text950"
   transform="translate(-3035.1377,-4046.1102)"><path
     d="m 5022.4973,4193.7019 q 0,5.6423 -2.0616,10.7964 -2.0616,5.1541 -5.6423,8.6806 -3.9063,3.7977 -9.3316,5.8593 -5.3711,2.0074 -12.4783,2.0074 -6.619,0 -12.7496,-1.4106 -6.1307,-1.3563 -10.3624,-3.3094 v -11.4475 h 0.7595 q 4.4488,2.8212 10.4167,4.8286 5.9679,1.9531 11.7187,1.9531 3.852,0 7.4328,-1.0851 3.6349,-1.0851 6.4561,-3.7977 2.3872,-2.3329 3.5808,-5.5881 1.2478,-3.2553 1.2478,-7.5413 0,-4.1775 -1.4649,-7.0529 -1.4105,-2.8755 -3.9605,-4.6116 -2.8211,-2.0616 -6.8902,-2.8754 -4.0147,-0.8681 -9.006,-0.8681 -4.7743,0 -9.2231,0.6511 -4.3945,0.651 -7.5955,1.3021 v -41.6125 h 48.6111 v 9.4944 h -38.1402 v 21.4844 q 2.3329,-0.217 4.7743,-0.3255 2.4414,-0.1085 4.2318,-0.1085 6.5647,0 11.5017,1.1393 4.9371,1.085 9.0604,3.9062 4.3402,2.984 6.7274,7.704 2.3871,4.7201 2.3871,11.8273 z"
     style="font-size:111.1111145px;fill:#ff0000;stroke-width:10.41666698"
     id="path837"
     inkscape:connector-curvature="0" /><path
     d="m 5105.0169,4138.5803 -29.4054,80.7835 h -14.3229 l -29.4054,-80.7835 h 11.5017 l 25.3364,71.0721 25.3364,-71.0721 z"
     style="font-size:111.1111145px;fill:#ff0000;stroke-width:10.41666698"
     id="path839"
     inkscape:connector-curvature="0" /></g>
<g
   aria-label="GND"
   style="font-style:normal;font-weight:normal;font-size:416.66668701px;line-height:1.25;font-family:sans-serif;letter-spacing:0px;word-spacing:0px;fill:#ff0000;fill-opacity:1;stroke:none;stroke-width:10.41666698"
   id="text954"
   transform="translate(-3035.1377,-4046.1102)"><path
     d="m 4987.9108,4378.8544 q -6.619,3.0382 -14.4857,5.3168 -7.8125,2.2244 -15.1367,2.2244 -9.4401,0 -17.3069,-2.6042 -7.8668,-2.6041 -13.4006,-7.8125 -5.5881,-5.2625 -8.6263,-13.1293 -3.0382,-7.921 -3.0382,-18.5004 0,-19.3685 11.2847,-30.5447 11.339,-11.2305 31.0873,-11.2305 6.8901,0 14.0516,1.6819 7.2157,1.6276 15.5165,5.5881 v 12.7495 h -0.9766 q -1.6818,-1.3021 -4.8828,-3.4179 -3.2009,-2.1159 -6.2934,-3.5265 -3.7435,-1.6819 -8.5178,-2.7669 -4.72,-1.1394 -10.7422,-1.1394 -13.5633,0 -21.4843,8.7348 -7.8668,8.6806 -7.8668,23.5461 0,15.6792 8.2465,24.414 8.2466,8.6806 22.461,8.6806 5.2083,0 10.3624,-1.0308 5.2083,-1.0309 9.1146,-2.6585 v -19.8025 h -21.6472 v -9.4401 h 32.2809 z"
     style="font-size:111.1111145px;fill:#ff0000;stroke-width:10.41666698"
     id="path842"
     inkscape:connector-curvature="0" /><path
     d="m 5068.3144,4384.8223 h -13.2921 l -38.3029,-72.2657 v 72.2657 h -10.0369 v -80.7835 h 16.6558 l 34.9392,65.9723 v -65.9723 h 10.0369 z"
     style="font-size:111.1111145px;fill:#ff0000;stroke-width:10.41666698"
     id="path844"
     inkscape:connector-curvature="0" /><path
     d="m 5158.0497,4344.5119 q 0,11.0135 -4.8286,19.9653 -4.7743,8.9518 -12.7496,13.8889 -5.5338,3.418 -12.3698,4.9371 -6.7816,1.5191 -17.9036,1.5191 h -20.3993 v -80.7835 h 20.1823 q 11.8272,0 18.7717,1.7362 6.9987,1.6818 11.8272,4.6658 8.2466,5.154 12.8581,13.7261 4.6116,8.572 4.6116,20.345 z m -11.2305,-0.1627 q 0,-9.4944 -3.3095,-16.0048 -3.3094,-6.5104 -9.8741,-10.2539 -4.7743,-2.7127 -10.1454,-3.7435 -5.3711,-1.0851 -12.8581,-1.0851 h -10.0911 v 62.3373 h 10.0911 q 7.7583,0 13.5091,-1.1393 5.8052,-1.1394 10.6337,-4.2318 6.0221,-3.852 9.0061,-10.1454 3.0382,-6.2934 3.0382,-15.7335 z"
     style="font-size:111.1111145px;fill:#ff0000;stroke-width:10.41666698"
     id="path846"
     inkscape:connector-curvature="0" /></g>
<g
   aria-label="USB"
   transform="rotate(-90,-3540.6239,-505.48603)"
   style="font-style:normal;font-weight:normal;font-size:416.66668701px;line-height:1.25;font-family:sans-serif;letter-spacing:0px;word-spacing:0px;fill:#ff0000;fill-opacity:1;stroke:none;stroke-width:10.41666698"
   id="text958"><path
     d="m -5091.5441,5290.3767 q 0,8.7891 -1.9531,15.3538 -1.8988,6.5104 -6.2934,10.8507 -4.1775,4.1232 -9.7656,6.0221 -5.5881,1.8989 -13.0208,1.8989 -7.5955,0 -13.2379,-2.0074 -5.6423,-2.0074 -9.4943,-5.9136 -4.3946,-4.4488 -6.3477,-10.7422 -1.8989,-6.2934 -1.8989,-15.4623 v -48.3398 h 10.7422 v 48.8824 q 0,6.5646 0.8681,10.3624 0.9223,3.7977 3.0382,6.8902 2.3871,3.5265 6.4561,5.3168 4.1233,1.7904 9.8742,1.7904 5.8051,0 9.8741,-1.7361 4.069,-1.7904 6.5104,-5.3711 2.1159,-3.0925 2.984,-7.053 0.9223,-4.0147 0.9223,-9.9284 v -49.1536 h 10.7421 z"
     style="font-size:111.1111145px;fill:#ff0000;stroke-width:10.41666698"
     id="path830"
     inkscape:connector-curvature="0" /><path
     d="m -5012.2797,5299.7626 q 0,4.72 -2.2244,9.3316 -2.1702,4.6115 -6.1307,7.8125 -4.3402,3.4722 -10.1454,5.4253 -5.7508,1.9532 -13.8889,1.9532 -8.7348,0 -15.7335,-1.6276 -6.9444,-1.6277 -14.1601,-4.8286 v -13.4549 h 0.7595 q 6.1307,5.0999 14.1602,7.8668 8.0295,2.7669 15.0825,2.7669 9.9826,0 15.5165,-3.7435 5.5881,-3.7435 5.5881,-9.9826 0,-5.3711 -2.6585,-7.921 -2.6041,-2.5499 -7.9752,-3.9605 -4.069,-1.0851 -8.8433,-1.7904 -4.7201,-0.7053 -10.0369,-1.7904 -10.7422,-2.2786 -15.9506,-7.7582 -5.154,-5.5339 -5.154,-14.3772 0,-10.1454 8.572,-16.6015 8.5721,-6.5105 21.7557,-6.5105 8.5178,0 15.625,1.6277 7.1072,1.6276 12.5868,4.0147 v 12.6953 h -0.7596 q -4.6115,-3.9062 -12.1528,-6.4561 -7.4869,-2.6042 -15.3537,-2.6042 -8.6263,0 -13.8889,3.5807 -5.2083,3.5807 -5.2083,9.2231 0,5.0456 2.6041,7.921 2.6042,2.8755 9.1689,4.3945 3.4722,0.7596 9.8741,1.8447 6.4019,1.085 10.8507,2.2244 9.0061,2.3871 13.5634,7.2157 4.5573,4.8285 4.5573,13.5091 z"
     style="font-size:111.1111145px;fill:#ff0000;stroke-width:10.41666698"
     id="path832"
     inkscape:connector-curvature="0" /><path
     d="m -4934.1005,5297.9722 q 0,6.0222 -2.2786,10.6337 -2.2787,4.6115 -6.1307,7.5955 -4.5572,3.5807 -10.0368,5.0998 -5.4254,1.5191 -13.8347,1.5191 h -28.6458 v -80.7834 h 23.9258 q 8.8433,0 13.2378,0.651 4.3945,0.6511 8.4093,2.7127 4.4488,2.3329 6.4562,6.0221 2.0073,3.635 2.0073,8.7349 0,5.7508 -2.9296,9.8198 -2.9297,4.0148 -7.8125,6.4562 v 0.434 q 8.1922,1.6819 12.9123,7.2157 4.72,5.4796 4.72,13.8889 z m -18.0664,-36.4041 q 0,-2.9296 -0.9765,-4.937 -0.9766,-2.0074 -3.1467,-3.2552 -2.5499,-1.4649 -6.1849,-1.7904 -3.635,-0.3798 -9.0061,-0.3798 h -12.8038 v 23.329 h 13.8889 q 5.0455,0 8.0295,-0.4883 2.9839,-0.5425 5.5338,-2.1701 2.5499,-1.6276 3.5808,-4.1775 1.085,-2.6042 1.085,-6.1307 z m 6.8902,36.8381 q 0,-4.8828 -1.4648,-7.7582 -1.4649,-2.8754 -5.3169,-4.8828 -2.6041,-1.3563 -6.3476,-1.7361 -3.6893,-0.434 -9.0061,-0.434 h -16.8728 v 30.0564 h 14.2144 q 7.0529,0 11.556,-0.7053 4.503,-0.7596 7.3784,-2.7127 3.0382,-2.1159 4.4488,-4.8286 1.4106,-2.7126 1.4106,-6.9987 z"
     style="font-size:111.1111145px;fill:#ff0000;stroke-width:10.41666698"
     id="path834"
     inkscape:connector-curvature="0" /></g>
<g
   aria-label="PocketScroller+ v2.0"
   style="font-style:normal;font-weight:normal;font-size:416.66668701px;line-height:1.25;font-family:sans-serif;letter-spacing:0px;word-spacing:0px;fill:#000000;fill-opacity:1;stroke:none;stroke-width:10.41666698"
   id="text962"
   transform="translate(-3035.1377,-4046.1102)"><path
     d="m 3861.9071,5546.8963 q 0,4.0283 -1.4241,7.487 -1.3835,3.418 -3.9063,5.9408 -3.1331,3.1331 -7.4056,4.72 -4.2724,1.5462 -10.7828,1.5462 h -8.0567 v 22.583 h -8.0566 v -60.5875 h 16.4388 q 5.4525,0 9.2366,0.9358 3.7842,0.8952 6.7139,2.8484 3.4587,2.3193 5.3304,5.7779 1.9124,3.4587 1.9124,8.7484 z m -8.3821,0.2035 q 0,-3.1332 -1.0986,-5.4525 -1.0987,-2.3193 -3.3366,-3.7842 -1.9532,-1.2614 -4.4759,-1.7903 -2.4821,-0.5697 -6.307,-0.5697 h -7.9753 v 24.2106 h 6.7953 q 4.8828,0 7.9345,-0.8545 3.0518,-0.8952 4.9642,-2.8076 1.9125,-1.9531 2.6856,-4.1097 0.8138,-2.1566 0.8138,-4.8421 z"
     style="font-size:83.33333588px;fill:#ff0000;stroke-width:10.41666698"
     id="path849"
     inkscape:connector-curvature="0" /><path
     d="m 3908.7415,5566.4683 q 0,11.1084 -5.6967,17.5374 -5.6966,6.429 -15.2587,6.429 -9.6436,0 -15.3402,-6.429 -5.6559,-6.429 -5.6559,-17.5374 0,-11.1084 5.6559,-17.5375 5.6966,-6.4697 15.3402,-6.4697 9.5621,0 15.2587,6.4697 5.6967,6.4291 5.6967,17.5375 z m -7.8939,0 q 0,-8.8298 -3.4587,-13.1023 -3.4586,-4.3131 -9.6028,-4.3131 -6.2256,0 -9.6843,4.3131 -3.418,4.2725 -3.418,13.1023 0,8.5449 3.4587,12.9801 3.4587,4.3945 9.6436,4.3945 6.1035,0 9.5621,-4.3538 3.4994,-4.3945 3.4994,-13.0208 z"
     style="font-size:83.33333588px;fill:#ff0000;stroke-width:10.41666698"
     id="path851"
     inkscape:connector-curvature="0" /><path
     d="m 3954.233,5586.325 q -3.8249,1.8311 -7.2835,2.8483 -3.418,1.0173 -7.2836,1.0173 -4.9235,0 -9.0332,-1.4242 -4.1097,-1.4648 -7.0394,-4.3945 -2.9703,-2.9297 -4.5979,-7.4056 -1.6276,-4.4759 -1.6276,-10.4573 0,-11.1491 6.1035,-17.4968 6.1442,-6.3477 16.1946,-6.3477 3.9063,0 7.6498,1.0987 3.7842,1.0986 6.9173,2.6855 v 8.5043 h -0.4069 q -3.4994,-2.7263 -7.2428,-4.1911 -3.7028,-1.4649 -7.2429,-1.4649 -6.5104,0 -10.2946,4.3946 -3.7435,4.3538 -3.7435,12.8174 0,8.2194 3.6621,12.6546 3.7028,4.3945 10.376,4.3945 2.3194,0 4.7201,-0.6103 2.4007,-0.6104 4.3131,-1.587 1.6683,-0.8545 3.1332,-1.7903 1.4648,-0.9766 2.3193,-1.6683 h 0.4069 z"
     style="font-size:83.33333588px;fill:#ff0000;stroke-width:10.41666698"
     id="path853"
     inkscape:connector-curvature="0" /><path
     d="m 4005.3398,5589.1733 h -10.0912 l -18.2291,-19.8974 -4.9642,4.72 v 15.1774 h -7.6498 v -63.3138 h 7.6498 v 40.6088 l 22.0947,-22.7458 h 9.6436 l -21.1182,20.9961 z"
     style="font-size:83.33333588px;fill:#ff0000;stroke-width:10.41666698"
     id="path855"
     inkscape:connector-curvature="0" /><path
     d="m 4050.6278,5567.2414 h -33.4879 q 0,4.1911 1.2614,7.3242 1.2614,3.0924 3.4586,5.0863 2.1159,1.9531 5.0049,2.9296 2.9297,0.9766 6.4291,0.9766 4.6386,0 9.318,-1.831 4.7201,-1.8718 6.7139,-3.6622 h 0.4069 v 8.3415 q -3.8656,1.6276 -7.8939,2.7262 -4.0283,1.0987 -8.4636,1.0987 -11.3118,0 -17.6595,-6.1035 -6.3476,-6.1442 -6.3476,-17.4154 0,-11.1491 6.0628,-17.7002 6.1035,-6.5511 16.0319,-6.5511 9.196,0 14.1602,5.3711 5.0048,5.3711 5.0048,15.2588 z m -7.4462,-5.8594 q -0.041,-6.0221 -3.0518,-9.318 -2.9704,-3.2959 -9.0739,-3.2959 -6.1442,0 -9.8063,3.6214 -3.6214,3.6214 -4.1097,8.9925 z"
     style="font-size:83.33333588px;fill:#ff0000;stroke-width:10.41666698"
     id="path857"
     inkscape:connector-curvature="0" /><path
     d="m 4085.8248,5588.7664 q -2.1566,0.5697 -4.7201,0.9359 -2.5227,0.3662 -4.5166,0.3662 -6.958,0 -10.5794,-3.7435 -3.6214,-3.7435 -3.6214,-12.0035 v -24.17 h -5.1676 v -6.429 h 5.1676 v -13.0615 h 7.6497 v 13.0615 h 15.7878 v 6.429 h -15.7878 v 20.7113 q 0,3.5807 0.1628,5.6152 0.1628,1.9938 1.1393,3.7435 0.8952,1.6276 2.4414,2.4007 1.5869,0.7325 4.8015,0.7325 1.8717,0 3.9062,-0.529 2.0345,-0.5697 2.9297,-0.9359 h 0.4069 z"
     style="font-size:83.33333588px;fill:#ff0000;stroke-width:10.41666698"
     id="path859"
     inkscape:connector-curvature="0" /><path
     d="m 4139.7392,5571.88 q 0,3.5401 -1.6683,6.9987 -1.6276,3.4587 -4.598,5.8594 -3.2552,2.6042 -7.609,4.069 -4.3132,1.4649 -10.4167,1.4649 -6.5511,0 -11.8001,-1.2207 -5.2084,-1.2207 -10.6202,-3.6214 v -10.0912 h 0.5697 q 4.598,3.8249 10.6201,5.9001 6.0222,2.0752 11.3119,2.0752 7.4869,0 11.6373,-2.8077 4.1911,-2.8076 4.1911,-7.4869 0,-4.0284 -1.9938,-5.9408 -1.9531,-1.9124 -5.9814,-2.9704 -3.0518,-0.8138 -6.6325,-1.3427 -3.5401,-0.529 -7.5277,-1.3428 -8.0566,-1.709 -11.9629,-5.8187 -3.8656,-4.1504 -3.8656,-10.7829 0,-7.609 6.4291,-12.4511 6.429,-4.8829 16.3167,-4.8829 6.3884,0 11.7188,1.2207 5.3304,1.2207 9.4401,3.0111 v 9.5215 h -0.5697 q -3.4586,-2.9297 -9.1146,-4.8421 -5.6152,-1.9532 -11.5153,-1.9532 -6.4697,0 -10.4166,2.6856 -3.9063,2.6855 -3.9063,6.9173 0,3.7842 1.9531,5.9408 1.9532,2.1565 6.8767,3.2959 2.6041,0.5696 7.4056,1.3834 4.8014,0.8138 8.138,1.6683 6.7545,1.7904 10.1725,5.4118 3.418,3.6214 3.418,10.1318 z"
     style="font-size:83.33333588px;fill:#ff0000;stroke-width:10.41666698"
     id="path861"
     inkscape:connector-curvature="0" /><path
     d="m 4185.6783,5586.325 q -3.8249,1.8311 -7.2835,2.8483 -3.418,1.0173 -7.2835,1.0173 -4.9235,0 -9.0332,-1.4242 -4.1097,-1.4648 -7.0394,-4.3945 -2.9704,-2.9297 -4.598,-7.4056 -1.6276,-4.4759 -1.6276,-10.4573 0,-11.1491 6.1035,-17.4968 6.1442,-6.3477 16.1947,-6.3477 3.9062,0 7.6497,1.0987 3.7842,1.0986 6.9173,2.6855 v 8.5043 h -0.4069 q -3.4993,-2.7263 -7.2428,-4.1911 -3.7028,-1.4649 -7.2429,-1.4649 -6.5104,0 -10.2946,4.3946 -3.7434,4.3538 -3.7434,12.8174 0,8.2194 3.6621,12.6546 3.7028,4.3945 10.3759,4.3945 2.3194,0 4.7201,-0.6103 2.4007,-0.6104 4.3131,-1.587 1.6683,-0.8545 3.1332,-1.7903 1.4648,-0.9766 2.3193,-1.6683 h 0.4069 z"
     style="font-size:83.33333588px;fill:#ff0000;stroke-width:10.41666698"
     id="path863"
     inkscape:connector-curvature="0" /><path
     d="m 4223.8863,5552.064 h -0.4069 q -1.709,-0.4069 -3.3366,-0.5697 -1.5869,-0.2034 -3.7841,-0.2034 -3.5401,0 -6.836,1.5869 -3.2959,1.5462 -6.3476,4.0283 v 32.2672 h -7.6498 v -45.4508 h 7.6498 v 6.7139 q 4.5573,-3.6621 8.0159,-5.1677 3.4994,-1.5462 7.1208,-1.5462 1.9938,0 2.889,0.1221 0.8952,0.081 2.6855,0.3662 z"
     style="font-size:83.33333588px;fill:#ff0000;stroke-width:10.41666698"
     id="path865"
     inkscape:connector-curvature="0" /><path
     d="m 4269.9068,5566.4683 q 0,11.1084 -5.6966,17.5374 -5.6966,6.429 -15.2588,6.429 -9.6435,0 -15.3401,-6.429 -5.656,-6.429 -5.656,-17.5374 0,-11.1084 5.656,-17.5375 5.6966,-6.4697 15.3401,-6.4697 9.5622,0 15.2588,6.4697 5.6966,6.4291 5.6966,17.5375 z m -7.8938,0 q 0,-8.8298 -3.4587,-13.1023 -3.4587,-4.3131 -9.6029,-4.3131 -6.2256,0 -9.6842,4.3131 -3.418,4.2725 -3.418,13.1023 0,8.5449 3.4587,12.9801 3.4586,4.3945 9.6435,4.3945 6.1035,0 9.5622,-4.3538 3.4994,-4.3945 3.4994,-13.0208 z"
     style="font-size:83.33333588px;fill:#ff0000;stroke-width:10.41666698"
     id="path867"
     inkscape:connector-curvature="0" /><path
     d="m 4289.5195,5589.1733 h -7.6498 v -63.3138 h 7.6498 z"
     style="font-size:83.33333588px;fill:#ff0000;stroke-width:10.41666698"
     id="path869"
     inkscape:connector-curvature="0" /><path
     d="m 4312.4687,5589.1733 h -7.6498 v -63.3138 h 7.6498 z"
     style="font-size:83.33333588px;fill:#ff0000;stroke-width:10.41666698"
     id="path871"
     inkscape:connector-curvature="0" /><path
     d="m 4365.732,5567.2414 h -33.4879 q 0,4.1911 1.2614,7.3242 1.2614,3.0924 3.4586,5.0863 2.1159,1.9531 5.0049,2.9296 2.9297,0.9766 6.4291,0.9766 4.6386,0 9.318,-1.831 4.72,-1.8718 6.7139,-3.6622 h 0.4069 v 8.3415 q -3.8656,1.6276 -7.8939,2.7262 -4.0283,1.0987 -8.4636,1.0987 -11.3118,0 -17.6595,-6.1035 -6.3476,-6.1442 -6.3476,-17.4154 0,-11.1491 6.0628,-17.7002 6.1035,-6.5511 16.0319,-6.5511 9.196,0 14.1602,5.3711 5.0048,5.3711 5.0048,15.2588 z m -7.4463,-5.8594 q -0.041,-6.0221 -3.0517,-9.318 -2.9704,-3.2959 -9.0739,-3.2959 -6.1442,0 -9.8063,3.6214 -3.6214,3.6214 -4.1097,8.9925 z"
     style="font-size:83.33333588px;fill:#ff0000;stroke-width:10.41666698"
     id="path873"
     inkscape:connector-curvature="0" /><path
     d="m 4405.6897,5552.064 h -0.4069 q -1.709,-0.4069 -3.3366,-0.5697 -1.5869,-0.2034 -3.7842,-0.2034 -3.54,0 -6.8359,1.5869 -3.2959,1.5462 -6.3477,4.0283 v 32.2672 h -7.6497 v -45.4508 h 7.6497 v 6.7139 q 4.5573,-3.6621 8.016,-5.1677 3.4993,-1.5462 7.1208,-1.5462 1.9938,0 2.889,0.1221 0.8951,0.081 2.6855,0.3662 z"
     style="font-size:83.33333588px;fill:#ff0000;stroke-width:10.41666698"
     id="path875"
     inkscape:connector-curvature="0" /><path
     d="m 4465.0973,5565.8986 h -22.1762 v 22.1761 h -6.7545 v -22.1761 h -22.1761 v -6.5104 h 22.1761 v -22.1761 h 6.7545 v 22.1761 h 22.1762 z"
     style="font-size:83.33333588px;fill:#ff0000;stroke-width:10.41666698"
     id="path877"
     inkscape:connector-curvature="0" /><path
     d="m 4549.7734,5543.7225 -18.3919,45.4508 h -7.6905 l -18.2698,-45.4508 h 8.3008 l 14.0787,36.1735 13.9567,-36.1735 z"
     style="font-size:83.33333588px;fill:#ff0000;stroke-width:10.41666698"
     id="path879"
     inkscape:connector-curvature="0" /><path
     d="m 4599.8222,5589.1733 h -41.0156 v -8.5042 q 4.2725,-3.6621 8.5449,-7.3242 4.3132,-3.6621 8.016,-7.2835 7.8125,-7.5684 10.7015,-12.0036 2.889,-4.4759 2.889,-9.6436 0,-4.72 -3.1332,-7.3649 -3.0924,-2.6855 -8.667,-2.6855 -3.7028,0 -8.0159,1.3021 -4.3132,1.302 -8.4229,3.9876 h -0.4069 v -8.5449 q 2.889,-1.4242 7.6905,-2.6042 4.8421,-1.18 9.3587,-1.18 9.318,0 14.6077,4.5166 5.2897,4.4759 5.2897,12.1663 0,3.4587 -0.8951,6.4697 -0.8545,2.9704 -2.5635,5.656 -1.5869,2.5228 -3.7435,4.9642 -2.1159,2.4414 -5.1676,5.4118 -4.3539,4.2724 -8.9926,8.3007 -4.6386,3.9877 -8.6669,7.4056 h 32.5927 z"
     style="font-size:83.33333588px;fill:#ff0000;stroke-width:10.41666698"
     id="path881"
     inkscape:connector-curvature="0" /><path
     d="m 4625.3349,5589.1733 h -9.7249 v -11.5966 h 9.7249 z"
     style="font-size:83.33333588px;fill:#ff0000;stroke-width:10.41666698"
     id="path883"
     inkscape:connector-curvature="0" /><path
     d="m 4683.0742,5558.8592 q 0,16.3167 -5.127,23.9665 -5.0863,7.609 -15.8284,7.609 -10.905,0 -15.9506,-7.7311 -5.0048,-7.7311 -5.0048,-23.763 0,-16.154 5.0862,-23.8444 5.0863,-7.7311 15.8692,-7.7311 10.9049,0 15.9098,7.8532 5.0456,7.8125 5.0456,23.6409 z m -10.7015,18.4733 q 1.4241,-3.2959 1.9124,-7.7311 0.529,-4.4759 0.529,-10.7422 0,-6.1849 -0.529,-10.7422 -0.4883,-4.5573 -1.9531,-7.7311 -1.4242,-3.1331 -3.9063,-4.72 -2.4414,-1.587 -6.3069,-1.587 -3.8249,0 -6.3477,1.587 -2.4821,1.5869 -3.9469,4.8014 -1.3835,3.0111 -1.9125,7.8532 -0.4883,4.8421 -0.4883,10.6201 0,6.3476 0.4476,10.6201 0.4476,4.2725 1.9125,7.6497 1.3427,3.1739 3.7841,4.8422 2.4821,1.6683 6.5512,1.6683 3.8248,0 6.3476,-1.5869 2.5228,-1.587 3.9063,-4.8015 z"
     style="font-size:83.33333588px;fill:#ff0000;stroke-width:10.41666698"
     id="path885"
     inkscape:connector-curvature="0" /></g>
<g
   aria-label="Designed by Daniel Kulp"
   style="font-style:normal;font-weight:normal;font-size:416.66668701px;line-height:1.25;font-family:sans-serif;letter-spacing:0px;word-spacing:0px;fill:#000000;fill-opacity:1;stroke:none;stroke-width:10.41666698"
   id="text966"
   transform="translate(-3035.1377,-4046.1102)"><path
     d="m 3796.5386,5684.6252 q 0,8.2601 -3.6214,14.9739 -3.5808,6.7139 -9.5622,10.4167 -4.1504,2.5635 -9.2774,3.7028 -5.0862,1.1393 -13.4277,1.1393 h -15.2995 v -60.5876 h 15.1367 q 8.8705,0 14.0788,1.3021 5.249,1.2614 8.8705,3.4994 6.1849,3.8655 9.6435,10.2946 3.4587,6.429 3.4587,15.2588 z m -8.4229,-0.1221 q 0,-7.1208 -2.4821,-12.0036 -2.4821,-4.8828 -7.4056,-7.6904 -3.5807,-2.0345 -7.609,-2.8076 -4.0283,-0.8138 -9.6436,-0.8138 h -7.5683 v 46.7529 h 7.5683 q 5.8187,0 10.1319,-0.8545 4.3538,-0.8545 7.9752,-3.1738 4.5166,-2.889 6.7546,-7.6091 2.2786,-4.72 2.2786,-11.8001 z"
     style="font-size:83.33333588px;fill:#ff0000;stroke-width:10.41666698"
     id="path888"
     inkscape:connector-curvature="0" /><path
     d="m 3847.0757,5692.9259 h -33.488 q 0,4.1911 1.2614,7.3243 1.2614,3.0924 3.4587,5.0862 2.1159,1.9532 5.0049,2.9297 2.9297,0.9766 6.429,0.9766 4.6387,0 9.318,-1.8311 4.7201,-1.8717 6.7139,-3.6621 h 0.4069 v 8.3415 q -3.8656,1.6276 -7.8939,2.7262 -4.0283,1.0987 -8.4635,1.0987 -11.3119,0 -17.6595,-6.1036 -6.3477,-6.1442 -6.3477,-17.4153 0,-11.1491 6.0628,-17.7002 6.1036,-6.5511 16.0319,-6.5511 9.196,0 14.1602,5.3711 5.0049,5.3711 5.0049,15.2588 z m -7.4463,-5.8593 q -0.041,-6.0222 -3.0518,-9.3181 -2.9703,-3.2959 -9.0739,-3.2959 -6.1442,0 -9.8063,3.6215 -3.6214,3.6214 -4.1097,8.9925 z"
     style="font-size:83.33333588px;fill:#ff0000;stroke-width:10.41666698"
     id="path890"
     inkscape:connector-curvature="0" /><path
     d="m 3891.1431,5701.7557 q 0,6.2256 -5.1677,10.2132 -5.1269,3.9876 -14.0381,3.9876 -5.0455,0 -9.2773,-1.18 -4.1911,-1.2207 -7.0394,-2.6448 v -8.5856 h 0.4069 q 3.6214,2.7262 8.0567,4.3538 4.4352,1.5869 8.5042,1.5869 5.0456,0 7.8939,-1.6276 2.8483,-1.6276 2.8483,-5.1269 0,-2.6856 -1.5463,-4.0691 -1.5462,-1.3834 -5.9407,-2.36 -1.6276,-0.3662 -4.2725,-0.8545 -2.6041,-0.4883 -4.7607,-1.0579 -5.9815,-1.5869 -8.5042,-4.6387 -2.4821,-3.0924 -2.4821,-7.5683 0,-2.8077 1.1393,-5.2898 1.18,-2.4821 3.54,-4.4352 2.2787,-1.9124 5.778,-3.011 3.5401,-1.1394 7.8939,-1.1394 4.069,0 8.2194,1.0173 4.1911,0.9765 6.958,2.4007 v 8.1787 h -0.4069 q -2.9297,-2.1566 -7.1208,-3.6214 -4.191,-1.5055 -8.2194,-1.5055 -4.191,0 -7.08,1.6276 -2.889,1.5869 -2.889,4.7607 0,2.8076 1.7496,4.2318 1.709,1.4241 5.5339,2.3193 2.1159,0.4883 4.72,0.9766 2.6449,0.4883 4.3946,0.8952 5.3304,1.2207 8.2194,4.191 2.889,3.0111 2.889,7.9753 z"
     style="font-size:83.33333588px;fill:#ff0000;stroke-width:10.41666698"
     id="path892"
     inkscape:connector-curvature="0" /><path
     d="m 3910.3488,5661.798 h -8.6263 v -7.9346 h 8.6263 z m -0.4883,53.0599 h -7.6497 v -45.4508 h 7.6497 z"
     style="font-size:83.33333588px;fill:#ff0000;stroke-width:10.41666698"
     id="path894"
     inkscape:connector-curvature="0" /><path
     d="m 3961.9439,5709.6903 q 0,11.556 -5.2491,16.9677 -5.249,5.4118 -16.1539,5.4118 -3.6215,0 -7.0801,-0.5289 -3.418,-0.4883 -6.7546,-1.4242 v -7.8125 h 0.4069 q 1.8718,0.7324 5.9408,1.7904 4.069,1.0986 8.138,1.0986 3.9063,0 6.4697,-0.9359 2.5635,-0.9358 3.9877,-2.6041 1.4241,-1.587 2.0345,-3.8249 0.6103,-2.238 0.6103,-5.0049 v -4.1504 q -3.4586,2.7669 -6.6325,4.1504 -3.1331,1.3428 -8.0159,1.3428 -8.138,0 -12.9395,-5.8594 -4.7607,-5.9001 -4.7607,-16.6016 0,-5.8593 1.6276,-10.0911 1.6683,-4.2725 4.5166,-7.3649 2.6448,-2.889 6.429,-4.4759 3.7842,-1.6276 7.5277,-1.6276 3.9469,0 6.5918,0.8138 2.6855,0.7731 5.6559,2.4007 l 0.4883,-1.9531 h 7.1615 z m -7.6498,-7.3243 v -24.7802 q -3.0517,-1.3835 -5.6966,-1.9532 -2.6042,-0.6103 -5.2083,-0.6103 -6.307,0 -9.9284,4.2318 -3.6214,4.2317 -3.6214,12.2884 0,7.6497 2.6855,11.5967 2.6856,3.9469 8.9111,3.9469 3.3366,0 6.6732,-1.2614 3.3773,-1.3021 6.1849,-3.4587 z"
     style="font-size:83.33333588px;fill:#ff0000;stroke-width:10.41666698"
     id="path896"
     inkscape:connector-curvature="0" /><path
     d="m 4015.0038,5714.8579 h -7.6498 v -25.8789 q 0,-3.1331 -0.3662,-5.8594 -0.3662,-2.7669 -1.3428,-4.3131 -1.0172,-1.709 -2.9297,-2.5228 -1.9124,-0.8545 -4.9641,-0.8545 -3.1332,0 -6.5512,1.5462 -3.4179,1.5462 -6.5511,3.947 v 33.9355 h -7.6497 v -45.4508 h 7.6497 v 5.0455 q 3.5808,-2.9703 7.4056,-4.6386 3.8249,-1.6683 7.8532,-1.6683 7.3649,0 11.2305,4.4352 3.8656,4.4352 3.8656,12.7767 z"
     style="font-size:83.33333588px;fill:#ff0000;stroke-width:10.41666698"
     id="path898"
     inkscape:connector-curvature="0" /><path
     d="m 4067.7788,5692.9259 h -33.4879 q 0,4.1911 1.2614,7.3243 1.2613,3.0924 3.4586,5.0862 2.1159,1.9532 5.0049,2.9297 2.9297,0.9766 6.429,0.9766 4.6387,0 9.3181,-1.8311 4.72,-1.8717 6.7138,-3.6621 h 0.4069 v 8.3415 q -3.8655,1.6276 -7.8938,2.7262 -4.0284,1.0987 -8.4636,1.0987 -11.3118,0 -17.6595,-6.1036 -6.3476,-6.1442 -6.3476,-17.4153 0,-11.1491 6.0628,-17.7002 6.1035,-6.5511 16.0319,-6.5511 9.1959,0 14.1601,5.3711 5.0049,5.3711 5.0049,15.2588 z m -7.4463,-5.8593 q -0.041,-6.0222 -3.0517,-9.3181 -2.9704,-3.2959 -9.0739,-3.2959 -6.1442,0 -9.8063,3.6215 -3.6215,3.6214 -4.1097,8.9925 z"
     style="font-size:83.33333588px;fill:#ff0000;stroke-width:10.41666698"
     id="path900"
     inkscape:connector-curvature="0" /><path
     d="m 4116.2407,5714.8579 h -7.6497 v -4.7607 q -3.2959,2.8483 -6.8766,4.4352 -3.5808,1.5869 -7.7718,1.5869 -8.1381,0 -12.9395,-6.2663 -4.7607,-6.2662 -4.7607,-17.3746 0,-5.778 1.6276,-10.2946 1.6683,-4.5166 4.4759,-7.6905 2.7669,-3.0924 6.429,-4.72 3.7028,-1.6276 7.6498,-1.6276 3.5807,0 6.3476,0.7731 2.7669,0.7324 5.8187,2.3193 v -19.694 h 7.6497 z m -7.6497,-11.1898 v -26.0823 q -3.0924,-1.3835 -5.5338,-1.9125 -2.4415,-0.5289 -5.3305,-0.5289 -6.429,0 -10.0097,4.4759 -3.5807,4.4759 -3.5807,12.6953 0,8.0973 2.7669,12.3291 2.7669,4.1911 8.8704,4.1911 3.2552,0 6.5918,-1.4242 3.3366,-1.4648 6.2256,-3.7435 z"
     style="font-size:83.33333588px;fill:#ff0000;stroke-width:10.41666698"
     id="path902"
     inkscape:connector-curvature="0" /><path
     d="m 4200.5913,5691.7866 q 0,5.6966 -1.6276,10.2539 -1.5869,4.5573 -4.3131,7.6498 -2.889,3.2145 -6.3477,4.8421 -3.4587,1.5869 -7.609,1.5869 -3.8656,0 -6.7546,-0.9359 -2.889,-0.8952 -5.6966,-2.4414 l -0.4883,2.1159 h -7.1615 v -63.3138 h 7.6498 v 22.6237 q 3.2145,-2.6449 6.8359,-4.3131 3.6214,-1.709 8.138,-1.709 8.0567,0 12.6954,6.1849 4.6793,6.1849 4.6793,17.456 z m -7.8939,0.2035 q 0,-8.1381 -2.6855,-12.3291 -2.6856,-4.2318 -8.667,-4.2318 -3.3366,0 -6.7546,1.4648 -3.4179,1.4242 -6.3476,3.7028 v 26.0417 q 3.2552,1.4649 5.5745,2.0345 2.3601,0.5697 5.3304,0.5697 6.3477,0 9.9284,-4.1504 3.6214,-4.1911 3.6214,-13.1022 z"
     style="font-size:83.33333588px;fill:#ff0000;stroke-width:10.41666698"
     id="path904"
     inkscape:connector-curvature="0" /><path
     d="m 4251.6574,5669.4071 -26.5299,62.2151 h -8.1788 l 8.4636,-18.9616 -18.1071,-43.2535 h 8.3008 l 13.9567,33.6914 14.0788,-33.6914 z"
     style="font-size:83.33333588px;fill:#ff0000;stroke-width:10.41666698"
     id="path906"
     inkscape:connector-curvature="0" /><path
     d="m 4342.7626,5684.6252 q 0,8.2601 -3.6214,14.9739 -3.5808,6.7139 -9.5622,10.4167 -4.1504,2.5635 -9.2774,3.7028 -5.0862,1.1393 -13.4277,1.1393 h -15.2995 v -60.5876 h 15.1367 q 8.8705,0 14.0788,1.3021 5.249,1.2614 8.8705,3.4994 6.1849,3.8655 9.6435,10.2946 3.4587,6.429 3.4587,15.2588 z m -8.4229,-0.1221 q 0,-7.1208 -2.4821,-12.0036 -2.4821,-4.8828 -7.4056,-7.6904 -3.5807,-2.0345 -7.609,-2.8076 -4.0283,-0.8138 -9.6436,-0.8138 h -7.5683 v 46.7529 h 7.5683 q 5.8187,0 10.1319,-0.8545 4.3538,-0.8545 7.9752,-3.1738 4.5166,-2.889 6.7546,-7.6091 2.2786,-4.72 2.2786,-11.8001 z"
     style="font-size:83.33333588px;fill:#ff0000;stroke-width:10.41666698"
     id="path908"
     inkscape:connector-curvature="0" /><path
     d="m 4390.5734,5714.8579 h -7.609 v -4.8421 q -1.0173,0.6917 -2.767,1.9531 -1.7089,1.2207 -3.3365,1.9531 -1.9125,0.9359 -4.3946,1.5463 -2.4821,0.651 -5.8187,0.651 -6.1442,0 -10.4166,-4.069 -4.2725,-4.069 -4.2725,-10.376 0,-5.1676 2.1973,-8.3415 2.2379,-3.2145 6.3476,-5.0455 4.1504,-1.8311 9.9691,-2.4821 5.8187,-0.6511 12.4919,-0.9766 v -1.18 q 0,-2.6042 -0.9359,-4.3132 -0.8952,-1.7089 -2.6042,-2.6855 -1.6276,-0.9359 -3.9062,-1.2614 -2.2787,-0.3255 -4.7608,-0.3255 -3.011,0 -6.7138,0.8138 -3.7028,0.7731 -7.6498,2.2786 h -0.4069 v -7.7718 q 2.238,-0.6103 6.4698,-1.3427 4.2317,-0.7325 8.3414,-0.7325 4.8015,0 8.3415,0.8138 3.5807,0.7731 6.1849,2.6856 2.5635,1.8717 3.9063,4.8421 1.3427,2.9704 1.3427,7.3649 z m -7.609,-11.1898 v -12.6546 q -3.4994,0.2035 -8.2601,0.6104 -4.7201,0.4069 -7.487,1.18 -3.2959,0.9358 -5.3304,2.9297 -2.0345,1.9531 -2.0345,5.4117 0,3.9063 2.36,5.9001 2.36,1.9531 7.2022,1.9531 4.0283,0 7.3649,-1.5462 3.3366,-1.5869 6.1849,-3.7842 z"
     style="font-size:83.33333588px;fill:#ff0000;stroke-width:10.41666698"
     id="path910"
     inkscape:connector-curvature="0" /><path
     d="m 4443.3892,5714.8579 h -7.6498 v -25.8789 q 0,-3.1331 -0.3662,-5.8594 -0.3662,-2.7669 -1.3428,-4.3131 -1.0172,-1.709 -2.9297,-2.5228 -1.9124,-0.8545 -4.9641,-0.8545 -3.1332,0 -6.5512,1.5462 -3.4179,1.5462 -6.5511,3.947 v 33.9355 h -7.6497 v -45.4508 h 7.6497 v 5.0455 q 3.5808,-2.9703 7.4056,-4.6386 3.8249,-1.6683 7.8532,-1.6683 7.3649,0 11.2305,4.4352 3.8656,4.4352 3.8656,12.7767 z"
     style="font-size:83.33333588px;fill:#ff0000;stroke-width:10.41666698"
     id="path912"
     inkscape:connector-curvature="0" /><path
     d="m 4466.3384,5661.798 h -8.6263 v -7.9346 h 8.6263 z m -0.4883,53.0599 h -7.6497 v -45.4508 h 7.6497 z"
     style="font-size:83.33333588px;fill:#ff0000;stroke-width:10.41666698"
     id="path914"
     inkscape:connector-curvature="0" /><path
     d="m 4519.1134,5692.9259 h -33.4879 q 0,4.1911 1.2614,7.3243 1.2614,3.0924 3.4586,5.0862 2.1159,1.9532 5.0049,2.9297 2.9297,0.9766 6.4291,0.9766 4.6386,0 9.318,-1.8311 4.72,-1.8717 6.7139,-3.6621 h 0.4069 v 8.3415 q -3.8656,1.6276 -7.8939,2.7262 -4.0283,1.0987 -8.4636,1.0987 -11.3118,0 -17.6595,-6.1036 -6.3476,-6.1442 -6.3476,-17.4153 0,-11.1491 6.0628,-17.7002 6.1035,-6.5511 16.0319,-6.5511 9.196,0 14.1602,5.3711 5.0048,5.3711 5.0048,15.2588 z m -7.4462,-5.8593 q -0.041,-6.0222 -3.0518,-9.3181 -2.9704,-3.2959 -9.0739,-3.2959 -6.1442,0 -9.8063,3.6215 -3.6214,3.6214 -4.1097,8.9925 z"
     style="font-size:83.33333588px;fill:#ff0000;stroke-width:10.41666698"
     id="path916"
     inkscape:connector-curvature="0" /><path
     d="m 4538.4413,5714.8579 h -7.6498 v -63.3138 h 7.6498 z"
     style="font-size:83.33333588px;fill:#ff0000;stroke-width:10.41666698"
     id="path918"
     inkscape:connector-curvature="0" /><path
     d="m 4632.2727,5714.8579 h -10.4574 l -23.9665,-26.9775 -6.0221,6.429 v 20.5485 h -8.0566 v -60.5876 h 8.0566 v 31.6163 l 29.4189,-31.6163 h 9.7657 l -27.0589,28.4831 z"
     style="font-size:83.33333588px;fill:#ff0000;stroke-width:10.41666698"
     id="path920"
     inkscape:connector-curvature="0" /><path
     d="m 4676.4621,5714.8579 h -7.6498 v -5.0456 q -3.8655,3.0518 -7.4056,4.6794 -3.54,1.6276 -7.8125,1.6276 -7.1614,0 -11.149,-4.3538 -3.9877,-4.3946 -3.9877,-12.8581 v -29.5003 h 7.6498 v 25.8789 q 0,3.4586 0.3255,5.9407 0.3255,2.4414 1.3834,4.1911 1.0987,1.7904 2.8484,2.6042 1.7496,0.8138 5.0862,0.8138 2.9704,0 6.4697,-1.5462 3.5401,-1.5463 6.5918,-3.947 v -33.9355 h 7.6498 z"
     style="font-size:83.33333588px;fill:#ff0000;stroke-width:10.41666698"
     id="path922"
     inkscape:connector-curvature="0" /><path
     d="m 4699.2485,5714.8579 h -7.6497 v -63.3138 h 7.6497 z"
     style="font-size:83.33333588px;fill:#ff0000;stroke-width:10.41666698"
     id="path924"
     inkscape:connector-curvature="0" /><path
     d="m 4754.465,5691.5832 q 0,5.5338 -1.5869,10.1318 -1.5869,4.5573 -4.4759,7.7311 -2.6856,3.0111 -6.3477,4.6794 -3.6214,1.6276 -7.6904,1.6276 -3.54,0 -6.429,-0.7731 -2.8483,-0.7731 -5.8187,-2.4007 v 19.0429 h -7.6498 v -62.2151 h 7.6498 v 4.7607 q 3.0517,-2.5635 6.8359,-4.2725 3.8249,-1.7496 8.138,-1.7496 8.2194,0 12.7767,6.2256 4.598,6.1849 4.598,17.2119 z m -7.8939,0.2034 q 0,-8.2194 -2.8076,-12.2884 -2.8076,-4.069 -8.6263,-4.069 -3.2959,0 -6.6325,1.4242 -3.3366,1.4241 -6.3883,3.7434 v 25.7569 q 3.2552,1.4648 5.5745,1.9938 2.36,0.529 5.3304,0.529 6.3884,0 9.9691,-4.3132 3.5807,-4.3131 3.5807,-12.7767 z"
     style="font-size:83.33333588px;fill:#ff0000;stroke-width:10.41666698"
     id="path926"
     inkscape:connector-curvature="0" /></g>
</svg>