<?xml version="1.0" encoding="UTF-8" standalone="no"?>
<!-- Created with Inkscape (http://www.inkscape.org/) -->

<svg
   xmlns:dc="http://purl.org/dc/elements/1.1/"
   xmlns:cc="http://creativecommons.org/ns#"
   xmlns:rdf="http://www.w3.org/1999/02/22-rdf-syntax-ns#"
   xmlns:svg="http://www.w3.org/2000/svg"
   xmlns="http://www.w3.org/2000/svg"
   xmlns:sodipodi="http://sodipodi.sourceforge.net/DTD/sodipodi-0.dtd"
   xmlns:inkscape="http://www.inkscape.org/namespaces/inkscape"
   width="176mm"
   height="114mm"
   viewBox="0 0 176 114"
   version="1.1"
   id="svg10875"
   inkscape:version="0.92.1 r15371"
   sodipodi:docname="sandevice_e682_r1_3.svg">
  <defs
     id="defs10869">
    <marker
       style="overflow:visible"
       refY="0"
       refX="0"
       orient="auto"
       id="DistanceX">
      <path
         id="path11422"
         style="stroke:#000000;stroke-width:0.5"
         d="M 3,-3 -3,3 M 0,-5 V 5"
         inkscape:connector-curvature="0" />
    </marker>
    <pattern
       y="0"
       x="0"
       width="8"
       patternUnits="userSpaceOnUse"
       id="Hatch"
       height="8">
      <path
         id="path11425"
         stroke-width="0.25"
         stroke="#000000"
         linecap="square"
         d="M8 4 l-4,4" />
      <path
         id="path11427"
         stroke-width="0.25"
         stroke="#000000"
         linecap="square"
         d="M6 2 l-4,4" />
      <path
         id="path11429"
         stroke-width="0.25"
         stroke="#000000"
         linecap="square"
         d="M4 0 l-4,4" />
    </pattern>
    <symbol
       id="*MODEL_SPACE" />
    <symbol
       id="*PAPER_SPACE" />
  </defs>
  <sodipodi:namedview
     id="base"
     pagecolor="#ffffff"
     bordercolor="#666666"
     borderopacity="1.0"
     inkscape:pageopacity="0.0"
     inkscape:pageshadow="2"
     inkscape:zoom="1.6782738"
     inkscape:cx="369.59779"
     inkscape:cy="227.44418"
     inkscape:document-units="mm"
     inkscape:current-layer="g11450"
     showgrid="false"
     inkscape:measure-start="8.93776,54.8182"
     inkscape:measure-end="155.517,52.4348"
     inkscape:window-width="1920"
     inkscape:window-height="1017"
     inkscape:window-x="-8"
     inkscape:window-y="-8"
     inkscape:window-maximized="1" />
  <metadata
     id="metadata10872">
    <rdf:RDF>
      <cc:Work
         rdf:about="">
        <dc:format>image/svg+xml</dc:format>
        <dc:type
           rdf:resource="http://purl.org/dc/dcmitype/StillImage" />
        <dc:title></dc:title>
      </cc:Work>
    </rdf:RDF>
  </metadata>
  <g
     inkscape:label="Layer 1"
     inkscape:groupmode="layer"
     id="layer1"
     transform="translate(0,-183)">
    <g
       id="g11450"
       inkscape:label="0"
       transform="matrix(0.26458333,0,0,0.26458333,2.4855737,-112.67615)"
       style="stroke:#ff0000;stroke-opacity:1">
      <path
         id="path11436"
         style="fill:none;stroke:#ff0000;stroke-opacity:1"
         d="M 651.9685,1122.5197 H 0 v 420.2835 h 651.9685 z"
         inkscape:connector-curvature="0" />
      <path
         id="path11438"
         style="fill:none;stroke:#000000;stroke-opacity:1"
         d="m 18.595276,1192.4409 a 4.4220475,4.4220475 0 1 0 -8.844095,0 4.4220475,4.4220475 0 1 0 8.844095,0 z"
         inkscape:connector-curvature="0" />
      <path
         id="path11440"
         style="fill:none;stroke:#000000;stroke-opacity:1"
         d="m 18.595276,1480.4409 a 4.4220475,4.4220475 0 1 0 -8.844095,0 4.4220475,4.4220475 0 1 0 8.844095,0 z"
         inkscape:connector-curvature="0" />
      <path
         id="path11442"
         style="fill:none;stroke:#000000;stroke-opacity:1"
         d="m 497.65039,1192.4409 a 4.4220475,4.4220475 0 1 0 -8.84409,0 4.4220475,4.4220475 0 1 0 8.84409,0 z"
         inkscape:connector-curvature="0" />
      <path
         id="path11444"
         style="fill:none;stroke:#000000;stroke-opacity:1"
         d="m 594.02835,1192.4409 a 4.42205,4.42205 0 1 0 -8.8441,0 4.42205,4.42205 0 1 0 8.8441,0 z"
         inkscape:connector-curvature="0" />
      <path
         id="path11446"
         style="fill:none;stroke:#000000;stroke-opacity:1"
         d="m 497.65039,1480.4409 a 4.4220475,4.4220475 0 1 0 -8.84409,0 4.4220475,4.4220475 0 1 0 8.84409,0 z"
         inkscape:connector-curvature="0" />
      <path
         id="path11448"
         style="fill:none;stroke:#000000;stroke-opacity:1"
         d="m 594.02835,1480.4409 a 4.42205,4.42205 0 1 0 -8.8441,0 4.42205,4.42205 0 1 0 8.8441,0 z"
         inkscape:connector-curvature="0" />
      <rect
         style="fill:none;fill-opacity:1;stroke:#ff0000;stroke-width:0.37795275;stroke-miterlimit:4;stroke-dasharray:none;stroke-dashoffset:0;stroke-opacity:1"
         id="rect11480"
         width="58.58268"
         height="28.346457"
         x="569.17639"
         y="1429.9353" />
      <rect
         style="fill:none;fill-opacity:1;stroke:#ff0000;stroke-width:0.37795275;stroke-miterlimit:4;stroke-dasharray:none;stroke-dashoffset:0;stroke-opacity:1"
         id="rect11480-7"
         width="58.58268"
         height="28.346457"
         x="23.883621"
         y="1429.9353" />
      <rect
         style="fill:none;fill-opacity:1;stroke:#ff0000;stroke-width:0.37795275;stroke-miterlimit:4;stroke-dasharray:none;stroke-dashoffset:0;stroke-opacity:1"
         id="rect11480-64"
         width="58.58268"
         height="28.346457"
         x="101.78258"
         y="1429.9353" />
      <rect
         style="fill:none;fill-opacity:1;stroke:#ff0000;stroke-width:0.37795275;stroke-miterlimit:4;stroke-dasharray:none;stroke-dashoffset:0;stroke-opacity:1"
         id="rect11480-31"
         width="58.58268"
         height="28.346457"
         x="491.27744"
         y="1429.9353" />
      <rect
         style="fill:none;fill-opacity:1;stroke:#ff0000;stroke-width:0.37795275;stroke-miterlimit:4;stroke-dasharray:none;stroke-dashoffset:0;stroke-opacity:1"
         id="rect11480-5"
         width="58.58268"
         height="28.346457"
         x="179.68155"
         y="1429.9353" />
      <rect
         style="fill:none;fill-opacity:1;stroke:#ff0000;stroke-width:0.37795275;stroke-miterlimit:4;stroke-dasharray:none;stroke-dashoffset:0;stroke-opacity:1"
         id="rect11480-54"
         width="58.58268"
         height="28.346457"
         x="257.58051"
         y="1429.9353" />
      <rect
         style="fill:none;fill-opacity:1;stroke:#ff0000;stroke-width:0.37795275;stroke-miterlimit:4;stroke-dasharray:none;stroke-dashoffset:0;stroke-opacity:1"
         id="rect11480-0"
         width="58.58268"
         height="28.346457"
         x="335.47946"
         y="1429.9353" />
      <rect
         style="fill:none;fill-opacity:1;stroke:#ff0000;stroke-width:0.37795275;stroke-miterlimit:4;stroke-dasharray:none;stroke-dashoffset:0;stroke-opacity:1"
         id="rect11480-04"
         width="58.58268"
         height="28.346457"
         x="413.37842"
         y="1429.9353" />
      <rect
         style="fill:none;fill-opacity:1;stroke:#ff0000;stroke-width:0.37795275;stroke-miterlimit:4;stroke-dasharray:none;stroke-dashoffset:0;stroke-opacity:1"
         id="rect11480-4"
         width="58.58268"
         height="28.346457"
         x="569.42456"
         y="1381.0756" />
      <rect
         style="fill:none;fill-opacity:1;stroke:#ff0000;stroke-width:0.37795275;stroke-miterlimit:4;stroke-dasharray:none;stroke-dashoffset:0;stroke-opacity:1"
         id="rect11480-7-7"
         width="58.58268"
         height="28.346457"
         x="24.131718"
         y="1381.0756" />
      <rect
         style="fill:none;fill-opacity:1;stroke:#ff0000;stroke-width:0.37795275;stroke-miterlimit:4;stroke-dasharray:none;stroke-dashoffset:0;stroke-opacity:1"
         id="rect11480-64-3"
         width="58.58268"
         height="28.346457"
         x="102.03067"
         y="1381.0756" />
      <rect
         style="fill:none;fill-opacity:1;stroke:#ff0000;stroke-width:0.37795275;stroke-miterlimit:4;stroke-dasharray:none;stroke-dashoffset:0;stroke-opacity:1"
         id="rect11480-31-4"
         width="58.58268"
         height="28.346457"
         x="491.52554"
         y="1381.0756" />
      <rect
         style="fill:none;fill-opacity:1;stroke:#ff0000;stroke-width:0.37795275;stroke-miterlimit:4;stroke-dasharray:none;stroke-dashoffset:0;stroke-opacity:1"
         id="rect11480-5-9"
         width="58.58268"
         height="28.346457"
         x="179.92966"
         y="1381.0756" />
      <rect
         style="fill:none;fill-opacity:1;stroke:#ff0000;stroke-width:0.37795275;stroke-miterlimit:4;stroke-dasharray:none;stroke-dashoffset:0;stroke-opacity:1"
         id="rect11480-54-4"
         width="58.58268"
         height="28.346457"
         x="257.82864"
         y="1381.0756" />
      <rect
         style="fill:none;fill-opacity:1;stroke:#ff0000;stroke-width:0.37795275;stroke-miterlimit:4;stroke-dasharray:none;stroke-dashoffset:0;stroke-opacity:1"
         id="rect11480-0-7"
         width="58.58268"
         height="28.346457"
         x="335.72757"
         y="1381.0756" />
      <rect
         style="fill:none;fill-opacity:1;stroke:#ff0000;stroke-width:0.37795275;stroke-miterlimit:4;stroke-dasharray:none;stroke-dashoffset:0;stroke-opacity:1"
         id="rect11480-04-0"
         width="58.58268"
         height="28.346457"
         x="413.62656"
         y="1381.0756" />
      <path
         style="fill:none;stroke:#fe0000;stroke-width:0.37795275;stroke-linecap:butt;stroke-linejoin:miter;stroke-miterlimit:4;stroke-dasharray:none;stroke-opacity:1"
         d="m 140.34801,1145.042 97.2742,0.099 0.0361,63.3409 -96.30211,0.3446 -0.0723,-18.0157 -10.01483,0.062 -0.38519,-28.6008 9.28061,-0.1745 z"
         id="path11595"
         inkscape:connector-curvature="0"
         sodipodi:nodetypes="ccccccccc" />
      <rect
         style="fill:none;fill-opacity:1;stroke:#fe0000;stroke-width:0.37795275;stroke-miterlimit:4;stroke-dasharray:none;stroke-dashoffset:0;stroke-opacity:1"
         id="rect11597"
         width="46.110237"
         height="46.110237"
         x="148.33014"
         y="1469.9475" />
      <g
         aria-label="+ -"
         style="font-style:normal;font-weight:normal;font-size:13.33333302px;line-height:1.25;font-family:sans-serif;letter-spacing:0px;word-spacing:0px;fill:none;fill-opacity:1;stroke:none"
         id="text11601"
         transform="translate(0,-20)">
        <path
           d="m 168.66499,1514.7365 h -6.38672 v 6.3867 h -1.94531 v -6.3867 h -6.38672 v -1.875 h 6.38672 v -6.3868 h 1.94531 v 6.3868 h 6.38672 z"
           style="font-size:24px;fill:none;stroke:#ff0000;stroke-opacity:1"
           id="path11603"
           inkscape:connector-curvature="0" />
        <path
           d="m 188.6689,1514.8654 h -7.3125 v -2.1211 h 7.3125 z"
           style="font-size:24px;fill:none;stroke:#ff0000;stroke-opacity:1"
           id="path11605"
           inkscape:connector-curvature="0" />
      </g>
      <rect
         style="fill:none;fill-opacity:1;stroke:#fe0000;stroke-width:0.37795275;stroke-miterlimit:4;stroke-dasharray:none;stroke-dashoffset:0;stroke-opacity:1"
         id="rect11597-5"
         width="46.110237"
         height="46.110237"
         x="423.37613"
         y="1471.4052" />
      <g
         transform="translate(275.04597,-18.542324)"
         aria-label="+ -"
         style="font-style:normal;font-weight:normal;font-size:13.33333302px;line-height:1.25;font-family:sans-serif;letter-spacing:0px;word-spacing:0px;fill:none;fill-opacity:1;stroke:none;stroke-opacity:1"
         id="text11601-8">
        <path
           inkscape:connector-curvature="0"
           d="m 168.66499,1514.7365 h -6.38672 v 6.3867 h -1.94531 v -6.3867 h -6.38672 v -1.875 h 6.38672 v -6.3868 h 1.94531 v 6.3868 h 6.38672 z"
           style="font-size:24px;fill:none;stroke:#ff0000;stroke-opacity:1"
           id="path11603-6" />
        <path
           inkscape:connector-curvature="0"
           d="m 188.6689,1514.8654 h -7.3125 v -2.1211 h 7.3125 z"
           style="font-size:24px;fill:none;stroke:#ff0000;stroke-opacity:1"
           id="path11605-8" />
      </g>
      <g
         aria-label="Ethernet"
         style="font-style:normal;font-weight:normal;font-size:13.33333302px;line-height:1.25;font-family:sans-serif;letter-spacing:0px;word-spacing:0px;fill:none;fill-opacity:1;stroke:#fe0000;stroke-opacity:1;stroke-width:0.37795276;stroke-miterlimit:4;stroke-dasharray:none"
         id="text11634">
        <path
           d="m 165.72846,1165.8464 h -6.38672 v -9.694 h 6.38672 v 1.1459 h -5.09766 v 2.6562 h 5.09766 v 1.1458 h -5.09766 v 3.6003 h 5.09766 z"
           style="stroke-width:0.37795276;stroke-miterlimit:4;stroke-dasharray:none"
           id="path11636" />
        <path
           d="m 171.45763,1165.7813 q -0.34506,0.091 -0.75521,0.1498 -0.40365,0.059 -0.72266,0.059 -1.11328,0 -1.69271,-0.599 -0.57942,-0.599 -0.57942,-1.9206 v -3.8672 h -0.82683 v -1.0286 h 0.82683 v -2.0898 h 1.22395 v 2.0898 h 2.52605 v 1.0286 h -2.52605 v 3.3138 q 0,0.573 0.026,0.8985 0.026,0.319 0.18229,0.5989 0.14323,0.2605 0.39062,0.3842 0.25391,0.1171 0.76823,0.1171 0.29948,0 0.625,-0.085 0.32552,-0.091 0.46875,-0.1497 h 0.0651 z"
           style="stroke-width:0.37795276;stroke-miterlimit:4;stroke-dasharray:none"
           id="path11638" />
        <path
           d="m 179.02273,1165.8464 h -1.22396 v -4.1406 q 0,-0.5013 -0.0586,-0.9375 -0.0586,-0.4427 -0.21485,-0.6901 -0.16276,-0.2734 -0.46875,-0.4036 -0.30599,-0.1368 -0.79427,-0.1368 -0.5013,0 -1.04817,0.2474 -0.54688,0.2474 -1.04818,0.6315 v 5.4297 H 172.942 v -10.1302 h 1.22396 v 3.6654 q 0.57292,-0.4753 1.18489,-0.7422 0.61198,-0.2669 1.25652,-0.2669 1.17838,0 1.79687,0.7096 0.61849,0.7096 0.61849,2.0443 z"
           style="stroke-width:0.37795276;stroke-miterlimit:4;stroke-dasharray:none"
           id="path11640" />
        <path
           d="m 187.46674,1162.3373 h -5.35807 q 0,0.6706 0.20182,1.1719 0.20182,0.4948 0.55339,0.8138 0.33854,0.3125 0.80078,0.4687 0.46875,0.1563 1.02864,0.1563 0.74219,0 1.49089,-0.293 0.75521,-0.2994 1.07422,-0.5859 h 0.0651 v 1.3346 q -0.61849,0.2604 -1.26302,0.4362 -0.64453,0.1758 -1.35417,0.1758 -1.80989,0 -2.82552,-0.9766 -1.01562,-0.983 -1.01562,-2.7864 0,-1.7839 0.97005,-2.832 0.97656,-1.0482 2.5651,-1.0482 1.47136,0 2.26563,0.8594 0.80078,0.8593 0.80078,2.4414 z m -1.19141,-0.9375 q -0.007,-0.9635 -0.48828,-1.4909 -0.47526,-0.5273 -1.45182,-0.5273 -0.98307,0 -1.56901,0.5794 -0.57943,0.5794 -0.65755,1.4388 z"
           style="stroke-width:0.37795276;stroke-miterlimit:4;stroke-dasharray:none"
           id="path11642" />
        <path
           d="m 193.85997,1159.9089 h -0.0651 q -0.27344,-0.065 -0.53386,-0.091 -0.2539,-0.033 -0.60547,-0.033 -0.5664,0 -1.09375,0.2539 -0.52734,0.2474 -1.01562,0.6446 v 5.1627 h -1.22396 v -7.2721 h 1.22396 v 1.0742 q 0.72916,-0.5859 1.28255,-0.8268 0.5599,-0.2474 1.13932,-0.2474 0.31901,0 0.46224,0.02 0.14323,0.013 0.42969,0.059 z"
           style="stroke-width:0.37795276;stroke-miterlimit:4;stroke-dasharray:none"
           id="path11644" />
        <path
           d="m 201.10606,1165.8464 h -1.22395 v -4.1406 q 0,-0.5013 -0.0586,-0.9375 -0.0586,-0.4427 -0.21484,-0.6901 -0.16276,-0.2734 -0.46875,-0.4036 -0.30599,-0.1368 -0.79427,-0.1368 -0.50131,0 -1.04818,0.2474 -0.54687,0.2474 -1.04818,0.6315 v 5.4297 h -1.22396 v -7.2721 h 1.22396 v 0.8073 q 0.57292,-0.4753 1.1849,-0.7422 0.61198,-0.2669 1.25651,-0.2669 1.17838,0 1.79687,0.7096 0.61849,0.7096 0.61849,2.0443 z"
           style="stroke-width:0.37795276;stroke-miterlimit:4;stroke-dasharray:none"
           id="path11646" />
        <path
           d="M 209.55007,1162.3373 H 204.192 q 0,0.6706 0.20182,1.1719 0.20183,0.4948 0.55339,0.8138 0.33854,0.3125 0.80078,0.4687 0.46875,0.1563 1.02865,0.1563 0.74218,0 1.49088,-0.293 0.75521,-0.2994 1.07422,-0.5859 h 0.0651 v 1.3346 q -0.61848,0.2604 -1.26302,0.4362 -0.64453,0.1758 -1.35416,0.1758 -1.8099,0 -2.82552,-0.9766 -1.01563,-0.983 -1.01563,-2.7864 0,-1.7839 0.97005,-2.832 0.97657,-1.0482 2.56511,-1.0482 1.47135,0 2.26562,0.8594 0.80078,0.8593 0.80078,2.4414 z m -1.1914,-0.9375 q -0.007,-0.9635 -0.48828,-1.4909 -0.47526,-0.5273 -1.45183,-0.5273 -0.98307,0 -1.56901,0.5794 -0.57942,0.5794 -0.65755,1.4388 z"
           style="stroke-width:0.37795276;stroke-miterlimit:4;stroke-dasharray:none"
           id="path11648" />
        <path
           d="m 215.18158,1165.7813 q -0.34505,0.091 -0.75521,0.1498 -0.40364,0.059 -0.72265,0.059 -1.11328,0 -1.69271,-0.599 -0.57943,-0.599 -0.57943,-1.9206 v -3.8672 h -0.82682 v -1.0286 h 0.82682 v -2.0898 h 1.22396 v 2.0898 h 2.52604 v 1.0286 h -2.52604 v 3.3138 q 0,0.573 0.026,0.8985 0.026,0.319 0.1823,0.5989 0.14322,0.2605 0.39062,0.3842 0.25391,0.1171 0.76823,0.1171 0.29948,0 0.625,-0.085 0.32552,-0.091 0.46875,-0.1497 h 0.0651 z"
           style="stroke-width:0.37795276;stroke-miterlimit:4;stroke-dasharray:none"
           id="path11650" />
      </g>
      <g
         aria-label="SanDevices e682 Rev 1.3"
         style="font-style:normal;font-weight:normal;font-size:13.33333302px;line-height:1.25;font-family:sans-serif;letter-spacing:0px;word-spacing:0px;fill:none;fill-opacity:1;stroke:#fb0000;stroke-width:0.37795275;stroke-miterlimit:4;stroke-dasharray:none;stroke-opacity:1"
         id="text11655">
        <path
           d="m 332.75098,1150.7365 q 0,1.0195 -0.48047,2.0156 -0.46875,0.9961 -1.32422,1.6875 -0.9375,0.75 -2.19141,1.1719 -1.24218,0.4218 -3,0.4218 -1.88672,0 -3.39843,-0.3515 -1.5,-0.3516 -3.0586,-1.043 v -2.9063 h 0.16406 q 1.32422,1.1016 3.0586,1.6993 1.73437,0.5976 3.25781,0.5976 2.15625,0 3.35156,-0.8086 1.20703,-0.8086 1.20703,-2.1562 0,-1.1602 -0.57421,-1.711 -0.5625,-0.5507 -1.72266,-0.8554 -0.87891,-0.2344 -1.91016,-0.3867 -1.01953,-0.1524 -2.16797,-0.3868 -2.32031,-0.4922 -3.44531,-1.6757 -1.11328,-1.1954 -1.11328,-3.1055 0,-2.1914 1.85156,-3.586 1.85157,-1.4062 4.69922,-1.4062 1.83985,0 3.375,0.3516 1.53516,0.3515 2.71875,0.8671 v 2.7422 h -0.16406 q -0.99609,-0.8437 -2.625,-1.3945 -1.61719,-0.5625 -3.31641,-0.5625 -1.86328,0 -3,0.7734 -1.125,0.7735 -1.125,1.9922 0,1.0899 0.5625,1.711 0.5625,0.6211 1.98047,0.9492 0.75,0.164 2.13281,0.3984 1.38282,0.2344 2.34375,0.4805 1.94532,0.5156 2.92969,1.5586 0.98438,1.043 0.98438,2.918 z"
           style="font-size:24px;fill:none;stroke:#fb0000;stroke-width:0.37795275;stroke-miterlimit:4;stroke-dasharray:none;stroke-opacity:1"
           id="path11657" />
        <path
           d="m 346.47363,1155.7169 h -2.1914 v -1.3945 q -0.29297,0.1992 -0.79688,0.5625 -0.49219,0.3516 -0.96094,0.5625 -0.55078,0.2695 -1.26562,0.4453 -0.71484,0.1875 -1.67578,0.1875 -1.76953,0 -3,-1.1719 -1.23047,-1.1718 -1.23047,-2.9883 0,-1.4882 0.63281,-2.4023 0.64453,-0.9258 1.82813,-1.4531 1.19531,-0.5274 2.87109,-0.7149 1.67578,-0.1875 3.59766,-0.2812 v -0.3399 q 0,-0.75 -0.26953,-1.2421 -0.25782,-0.4922 -0.75,-0.7735 -0.46875,-0.2695 -1.125,-0.3633 -0.65625,-0.094 -1.3711,-0.094 -0.86719,0 -1.93359,0.2344 -1.06641,0.2226 -2.20313,0.6562 h -0.11718 v -2.2383 q 0.64453,-0.1758 1.86328,-0.3867 1.21875,-0.2109 2.40234,-0.2109 1.38281,0 2.40234,0.2343 1.03125,0.2227 1.78125,0.7735 0.73829,0.539 1.125,1.3945 0.38672,0.8555 0.38672,2.1211 z m -2.1914,-3.2226 v -3.6446 q -1.00782,0.059 -2.37891,0.1758 -1.35937,0.1172 -2.15625,0.3399 -0.94922,0.2695 -1.53516,0.8437 -0.58593,0.5625 -0.58593,1.5586 0,1.125 0.67968,1.6992 0.67969,0.5625 2.07422,0.5625 1.16016,0 2.1211,-0.4453 0.96093,-0.457 1.78125,-1.0898 z"
           style="font-size:24px;fill:none;stroke:#fb0000;stroke-width:0.37795275;stroke-miterlimit:4;stroke-dasharray:none;stroke-opacity:1"
           id="path11659" />
        <path
           d="m 361.68457,1155.7169 h -2.20312 v -7.4531 q 0,-0.9023 -0.10547,-1.6875 -0.10547,-0.7969 -0.38672,-1.2422 -0.29297,-0.4922 -0.84375,-0.7266 -0.55078,-0.246 -1.42969,-0.246 -0.90234,0 -1.88672,0.4453 -0.98437,0.4453 -1.88672,1.1367 v 9.7734 h -2.20312 v -13.0898 h 2.20312 v 1.4531 q 1.03125,-0.8555 2.13282,-1.3359 1.10156,-0.4805 2.26171,-0.4805 2.1211,0 3.23438,1.2773 1.11328,1.2774 1.11328,3.6797 z"
           style="font-size:24px;fill:none;stroke:#fb0000;stroke-width:0.37795275;stroke-miterlimit:4;stroke-dasharray:none;stroke-opacity:1"
           id="path11661" />
        <path
           d="m 380.84473,1147.0099 q 0,2.3789 -1.04297,4.3125 -1.03125,1.9336 -2.75391,3 -1.19531,0.7383 -2.67187,1.0664 -1.46485,0.3281 -3.86719,0.3281 h -4.40625 v -17.4492 h 4.35937 q 2.55469,0 4.05469,0.375 1.51172,0.3633 2.55469,1.0078 1.78125,1.1133 2.77734,2.9649 0.9961,1.8515 0.9961,4.3945 z m -2.42578,-0.035 q 0,-2.0507 -0.71485,-3.457 -0.71484,-1.4062 -2.13281,-2.2148 -1.03125,-0.586 -2.19141,-0.8086 -1.16015,-0.2344 -2.77734,-0.2344 h -2.17969 v 13.4648 h 2.17969 q 1.67578,0 2.91797,-0.2461 1.2539,-0.2461 2.29687,-0.914 1.30078,-0.8321 1.94532,-2.1914 0.65625,-1.3594 0.65625,-3.3985 z"
           style="font-size:24px;fill:none;stroke:#fb0000;stroke-width:0.37795275;stroke-miterlimit:4;stroke-dasharray:none;stroke-opacity:1"
           id="path11663" />
        <path
           d="m 395.39941,1149.4005 h -9.64453 q 0,1.207 0.36328,2.1094 0.36329,0.8906 0.9961,1.4648 0.60937,0.5625 1.4414,0.8438 0.84375,0.2812 1.85157,0.2812 1.33593,0 2.68359,-0.5273 1.35938,-0.5391 1.93359,-1.0547 h 0.11719 v 2.4023 q -1.11328,0.4688 -2.27344,0.7852 -1.16015,0.3164 -2.4375,0.3164 -3.25781,0 -5.08593,-1.7578 -1.82813,-1.7695 -1.82813,-5.0156 0,-3.211 1.7461,-5.0977 1.75781,-1.8867 4.61718,-1.8867 2.64844,0 4.07813,1.5469 1.4414,1.5468 1.4414,4.3945 z m -2.14453,-1.6875 q -0.0117,-1.7344 -0.8789,-2.6836 -0.85547,-0.9492 -2.61328,-0.9492 -1.76954,0 -2.82422,1.043 -1.04297,1.0429 -1.1836,2.5898 z"
           style="font-size:24px;fill:none;stroke:#fb0000;stroke-width:0.37795275;stroke-miterlimit:4;stroke-dasharray:none;stroke-opacity:1"
           id="path11665" />
        <path
           d="m 410.05957,1142.6271 -5.29687,13.0898 h -2.21485 l -5.26172,-13.0898 h 2.39063 l 4.05469,10.4179 4.01953,-10.4179 z"
           style="font-size:24px;fill:none;stroke:#fb0000;stroke-width:0.37795275;stroke-miterlimit:4;stroke-dasharray:none;stroke-opacity:1"
           id="path11667" />
        <path
           d="m 415.30957,1140.4357 h -2.48437 v -2.2852 h 2.48437 z m -0.14062,15.2812 h -2.20313 v -13.0898 h 2.20313 z"
           style="font-size:24px;fill:none;stroke:#fb0000;stroke-width:0.37795275;stroke-miterlimit:4;stroke-dasharray:none;stroke-opacity:1"
           id="path11669" />
        <path
           d="m 429.1377,1154.8966 q -1.10157,0.5274 -2.09766,0.8203 -0.98438,0.293 -2.09766,0.293 -1.41797,0 -2.60156,-0.4102 -1.18359,-0.4218 -2.02734,-1.2656 -0.85547,-0.8437 -1.32422,-2.1328 -0.46875,-1.2891 -0.46875,-3.0117 0,-3.211 1.75781,-5.0391 1.76953,-1.8281 4.66406,-1.8281 1.125,0 2.20313,0.3164 1.08984,0.3164 1.99219,0.7734 v 2.4493 h -0.11719 q -1.00781,-0.7852 -2.08594,-1.2071 -1.06641,-0.4219 -2.08594,-0.4219 -1.875,0 -2.96484,1.2657 -1.07813,1.2539 -1.07813,3.6914 0,2.3672 1.05469,3.6445 1.06641,1.2656 2.98828,1.2656 0.66797,0 1.35938,-0.1757 0.6914,-0.1758 1.24219,-0.4571 0.48046,-0.2461 0.90234,-0.5156 0.42187,-0.2813 0.66797,-0.4805 h 0.11719 z"
           style="font-size:24px;fill:none;stroke:#fb0000;stroke-width:0.37795275;stroke-miterlimit:4;stroke-dasharray:none;stroke-opacity:1"
           id="path11671" />
        <path
           d="m 442.93066,1149.4005 h -9.64453 q 0,1.207 0.36328,2.1094 0.36329,0.8906 0.9961,1.4648 0.60937,0.5625 1.4414,0.8438 0.84375,0.2812 1.85157,0.2812 1.33593,0 2.68359,-0.5273 1.35938,-0.5391 1.93359,-1.0547 h 0.11719 v 2.4023 q -1.11328,0.4688 -2.27344,0.7852 -1.16015,0.3164 -2.4375,0.3164 -3.25781,0 -5.08593,-1.7578 -1.82813,-1.7695 -1.82813,-5.0156 0,-3.211 1.7461,-5.0977 1.75781,-1.8867 4.61718,-1.8867 2.64844,0 4.07813,1.5469 1.4414,1.5468 1.4414,4.3945 z m -2.14453,-1.6875 q -0.0117,-1.7344 -0.8789,-2.6836 -0.85547,-0.9492 -2.61328,-0.9492 -1.76954,0 -2.82422,1.043 -1.04297,1.0429 -1.1836,2.5898 z"
           style="font-size:24px;fill:none;stroke:#fb0000;stroke-width:0.37795275;stroke-miterlimit:4;stroke-dasharray:none;stroke-opacity:1"
           id="path11673" />
        <path
           d="m 455.62207,1151.9435 q 0,1.793 -1.48828,2.9414 -1.47656,1.1484 -4.04297,1.1484 -1.45312,0 -2.67187,-0.3398 -1.20704,-0.3516 -2.02735,-0.7617 v -2.4727 h 0.11719 q 1.04297,0.7852 2.32031,1.2539 1.27735,0.457 2.44922,0.457 1.45313,0 2.27344,-0.4687 0.82031,-0.4688 0.82031,-1.4766 0,-0.7734 -0.44531,-1.1718 -0.44531,-0.3985 -1.71094,-0.6797 -0.46875,-0.1055 -1.23047,-0.2461 -0.75,-0.1406 -1.37109,-0.3047 -1.72266,-0.457 -2.44922,-1.3359 -0.71484,-0.8907 -0.71484,-2.1797 0,-0.8086 0.32812,-1.5235 0.33984,-0.7148 1.01953,-1.2773 0.65625,-0.5508 1.66406,-0.8672 1.01954,-0.3281 2.27344,-0.3281 1.17188,0 2.36719,0.2929 1.20703,0.2813 2.00391,0.6914 v 2.3555 h -0.11719 q -0.84375,-0.6211 -2.05078,-1.043 -1.20703,-0.4335 -2.36719,-0.4335 -1.20703,0 -2.03906,0.4687 -0.83203,0.457 -0.83203,1.3711 0,0.8086 0.5039,1.2187 0.49219,0.4102 1.59375,0.668 0.60938,0.1406 1.35938,0.2813 0.76172,0.1406 1.26562,0.2578 1.53516,0.3515 2.36719,1.207 0.83203,0.8672 0.83203,2.2969 z"
           style="font-size:24px;fill:none;stroke:#fb0000;stroke-width:0.37795275;stroke-miterlimit:4;stroke-dasharray:none;stroke-opacity:1"
           id="path11675" />
        <path
           d="m 478.18066,1149.4005 h -9.64453 q 0,1.207 0.36328,2.1094 0.36329,0.8906 0.9961,1.4648 0.60937,0.5625 1.4414,0.8438 0.84375,0.2812 1.85157,0.2812 1.33593,0 2.68359,-0.5273 1.35938,-0.5391 1.93359,-1.0547 h 0.11719 v 2.4023 q -1.11328,0.4688 -2.27344,0.7852 -1.16015,0.3164 -2.4375,0.3164 -3.25781,0 -5.08593,-1.7578 -1.82813,-1.7695 -1.82813,-5.0156 0,-3.211 1.7461,-5.0977 1.75781,-1.8867 4.61718,-1.8867 2.64844,0 4.07813,1.5469 1.4414,1.5468 1.4414,4.3945 z m -2.14453,-1.6875 q -0.0117,-1.7344 -0.8789,-2.6836 -0.85547,-0.9492 -2.61328,-0.9492 -1.76954,0 -2.82422,1.043 -1.04297,1.0429 -1.1836,2.5898 z"
           style="font-size:24px;fill:none;stroke:#fb0000;stroke-width:0.37795275;stroke-miterlimit:4;stroke-dasharray:none;stroke-opacity:1"
           id="path11677" />
        <path
           d="m 493.30957,1150.0568 q 0,2.6601 -1.75781,4.3476 -1.7461,1.6758 -4.28906,1.6758 -1.28907,0 -2.34375,-0.3984 -1.05469,-0.3985 -1.86329,-1.1836 -1.00781,-0.9727 -1.55859,-2.5782 -0.53906,-1.6054 -0.53906,-3.8671 0,-2.3204 0.49219,-4.1133 0.5039,-1.793 1.59375,-3.1875 1.03125,-1.3242 2.66015,-2.0625 1.62891,-0.75 3.79688,-0.75 0.6914,0 1.16015,0.059 0.46875,0.059 0.94922,0.2109 v 2.2383 h -0.11719 q -0.32812,-0.1758 -0.99609,-0.3281 -0.65625,-0.1641 -1.34766,-0.1641 -2.51953,0 -4.01953,1.582 -1.5,1.5703 -1.74609,4.2539 0.98437,-0.5976 1.93359,-0.9023 0.96094,-0.3164 2.21485,-0.3164 1.11328,0 1.95703,0.2109 0.85547,0.1992 1.74609,0.8203 1.03125,0.7149 1.54688,1.8047 0.52734,1.0899 0.52734,2.6485 z m -2.37891,0.094 q 0,-1.0898 -0.32812,-1.8047 -0.31641,-0.7148 -1.05469,-1.2422 -0.53906,-0.375 -1.19531,-0.4921 -0.65625,-0.1172 -1.37109,-0.1172 -0.9961,0 -1.85157,0.2343 -0.85547,0.2344 -1.75781,0.7266 -0.0234,0.2578 -0.0352,0.5039 -0.0117,0.2344 -0.0117,0.5977 0,1.8515 0.375,2.9297 0.38671,1.0664 1.05468,1.6875 0.53907,0.5156 1.16016,0.7617 0.63281,0.2343 1.37109,0.2343 1.69922,0 2.67188,-1.0312 0.97265,-1.043 0.97265,-2.9883 z"
           style="font-size:24px;fill:none;stroke:#fb0000;stroke-width:0.37795275;stroke-miterlimit:4;stroke-dasharray:none;stroke-opacity:1"
           id="path11679" />
        <path
           d="m 508.46191,1150.8536 q 0,2.2618 -1.76953,3.7618 -1.75781,1.5 -4.42968,1.5 -2.83594,0 -4.52344,-1.4649 -1.67578,-1.4648 -1.67578,-3.75 0,-1.4531 0.84375,-2.625 0.84375,-1.1836 2.3789,-1.875 v -0.07 q -1.40625,-0.75 -2.08593,-1.6406 -0.66797,-0.8906 -0.66797,-2.2266 0,-1.9687 1.61718,-3.2812 1.61719,-1.3125 4.11329,-1.3125 2.61328,0 4.17187,1.2539 1.55859,1.2539 1.55859,3.1875 0,1.1836 -0.73828,2.332 -0.73828,1.1367 -2.16797,1.7813 v 0.07 q 1.64063,0.7031 2.50782,1.7343 0.86718,1.0313 0.86718,2.625 z m -2.77734,-8.5195 q 0,-1.2539 -0.97266,-1.9922 -0.96093,-0.75 -2.46093,-0.75 -1.47657,0 -2.42578,0.7031 -0.9375,0.7032 -0.9375,1.8985 0,0.8437 0.46875,1.4648 0.48046,0.6094 1.4414,1.0899 0.4336,0.2109 1.24219,0.5508 0.82031,0.3398 1.59375,0.5625 1.16016,-0.7735 1.60547,-1.6055 0.44531,-0.832 0.44531,-1.9219 z m 0.36328,8.7422 q 0,-1.0781 -0.48047,-1.7227 -0.46875,-0.6562 -1.85156,-1.3125 -0.55078,-0.2578 -1.20703,-0.4804 -0.65625,-0.2227 -1.74609,-0.6211 -1.05469,0.5742 -1.69922,1.5586 -0.63282,0.9843 -0.63282,2.2265 0,1.5821 1.08985,2.6133 1.08984,1.0313 2.76562,1.0313 1.71094,0 2.73047,-0.8789 1.03125,-0.8789 1.03125,-2.4141 z"
           style="font-size:24px;fill:none;stroke:#fb0000;stroke-width:0.37795275;stroke-miterlimit:4;stroke-dasharray:none;stroke-opacity:1"
           id="path11681" />
        <path
           d="m 523.61426,1155.7169 h -11.8125 v -2.4492 q 1.23047,-1.0547 2.46094,-2.1094 1.24218,-1.0547 2.30859,-2.0976 2.25,-2.1797 3.08203,-3.4571 0.83203,-1.289 0.83203,-2.7773 0,-1.3594 -0.90234,-2.1211 -0.89063,-0.7734 -2.4961,-0.7734 -1.0664,0 -2.30859,0.375 -1.24219,0.375 -2.42578,1.1484 h -0.11719 v -2.4609 q 0.83203,-0.4102 2.21485,-0.75 1.39453,-0.3399 2.69531,-0.3399 2.68359,0 4.20703,1.3008 1.52344,1.2891 1.52344,3.5039 0,0.9961 -0.25782,1.8633 -0.24609,0.8555 -0.73828,1.6289 -0.45703,0.7266 -1.07812,1.4297 -0.60938,0.7031 -1.48828,1.5586 -1.25391,1.2304 -2.58985,2.3906 -1.33593,1.1484 -2.49609,2.1328 h 9.38672 z"
           style="font-size:24px;fill:none;stroke:#fb0000;stroke-width:0.37795275;stroke-miterlimit:4;stroke-dasharray:none;stroke-opacity:1"
           id="path11683" />
        <path
           d="m 550.41504,1155.7169 h -3.01172 l -5.83594,-6.9375 h -3.26953 v 6.9375 h -2.32031 v -17.4492 h 4.88672 q 1.58203,0 2.63672,0.2109 1.05468,0.1993 1.89843,0.7266 0.94922,0.5977 1.47657,1.5117 0.53906,0.9024 0.53906,2.2969 0,1.8867 -0.94922,3.1641 -0.94922,1.2656 -2.61328,1.9101 z m -5.42578,-12.539 q 0,-0.75 -0.26953,-1.3243 -0.25782,-0.5859 -0.86719,-0.9843 -0.50391,-0.3399 -1.19531,-0.4688 -0.69141,-0.1406 -1.62891,-0.1406 h -2.73047 v 6.5859 h 2.34375 q 1.10156,0 1.92188,-0.1875 0.82031,-0.1992 1.39453,-0.7265 0.52734,-0.4922 0.77344,-1.125 0.25781,-0.6446 0.25781,-1.6289 z"
           style="font-size:24px;fill:none;stroke:#fb0000;stroke-width:0.37795275;stroke-miterlimit:4;stroke-dasharray:none;stroke-opacity:1"
           id="path11685" />
        <path
           d="m 562.88379,1149.4005 h -9.64453 q 0,1.207 0.36328,2.1094 0.36328,0.8906 0.99609,1.4648 0.60938,0.5625 1.44141,0.8438 0.84375,0.2812 1.85156,0.2812 1.33594,0 2.6836,-0.5273 1.35937,-0.5391 1.93359,-1.0547 h 0.11719 v 2.4023 q -1.11328,0.4688 -2.27344,0.7852 -1.16016,0.3164 -2.4375,0.3164 -3.25781,0 -5.08594,-1.7578 -1.82812,-1.7695 -1.82812,-5.0156 0,-3.211 1.74609,-5.0977 1.75781,-1.8867 4.61719,-1.8867 2.64844,0 4.07812,1.5469 1.44141,1.5468 1.44141,4.3945 z m -2.14453,-1.6875 q -0.0117,-1.7344 -0.87891,-2.6836 -0.85547,-0.9492 -2.61328,-0.9492 -1.76953,0 -2.82422,1.043 -1.04297,1.0429 -1.18359,2.5898 z"
           style="font-size:24px;fill:none;stroke:#fb0000;stroke-width:0.37795275;stroke-miterlimit:4;stroke-dasharray:none;stroke-opacity:1"
           id="path11687" />
        <path
           d="m 577.54395,1142.6271 -5.29688,13.0898 h -2.21484 l -5.26172,-13.0898 h 2.39062 l 4.05469,10.4179 4.01953,-10.4179 z"
           style="font-size:24px;fill:none;stroke:#fb0000;stroke-width:0.37795275;stroke-miterlimit:4;stroke-dasharray:none;stroke-opacity:1"
           id="path11689" />
        <path
           d="m 599.39941,1155.7169 h -9.44531 v -1.7812 h 3.63281 v -11.6953 h -3.63281 v -1.5938 q 0.73828,0 1.58203,-0.1172 0.84375,-0.1289 1.27735,-0.3633 0.53906,-0.2929 0.84375,-0.7382 0.3164,-0.4571 0.36328,-1.2188 h 1.8164 v 15.7266 h 3.5625 z"
           style="font-size:24px;fill:none;stroke:#fb0000;stroke-width:0.37795275;stroke-miterlimit:4;stroke-dasharray:none;stroke-opacity:1"
           id="path11691" />
        <path
           d="m 607.74316,1155.7169 h -2.80078 v -3.3398 h 2.80078 z"
           style="font-size:24px;fill:none;stroke:#fb0000;stroke-width:0.37795275;stroke-miterlimit:4;stroke-dasharray:none;stroke-opacity:1"
           id="path11693" />
        <path
           d="m 622.86035,1147.3146 q 0.5625,0.5039 0.92578,1.2656 0.36328,0.7617 0.36328,1.9688 0,1.1953 -0.43359,2.1914 -0.43359,0.9961 -1.21875,1.7343 -0.87891,0.8203 -2.07422,1.2188 -1.18359,0.3867 -2.60156,0.3867 -1.45313,0 -2.85938,-0.3516 -1.40625,-0.3398 -2.30859,-0.75 v -2.4492 h 0.17578 q 0.9961,0.6563 2.34375,1.0899 1.34766,0.4336 2.60156,0.4336 0.73829,0 1.57032,-0.2461 0.83203,-0.2461 1.34765,-0.7266 0.53907,-0.5156 0.79688,-1.1367 0.26953,-0.6211 0.26953,-1.5703 0,-0.9375 -0.30469,-1.5469 -0.29297,-0.6211 -0.82031,-0.9727 -0.52734,-0.3632 -1.27734,-0.4921 -0.75,-0.1407 -1.61719,-0.1407 h -1.05469 v -1.9453 h 0.82031 q 1.78125,0 2.83594,-0.7383 1.06641,-0.75 1.06641,-2.1797 0,-0.6328 -0.26953,-1.1015 -0.26954,-0.4805 -0.75,-0.7852 -0.50391,-0.3047 -1.07813,-0.4218 -0.57422,-0.1172 -1.30078,-0.1172 -1.11328,0 -2.36719,0.3984 -1.2539,0.3984 -2.36719,1.125 h -0.11718 v -2.4492 q 0.83203,-0.4102 2.21484,-0.75 1.39453,-0.3516 2.69531,-0.3516 1.27735,0 2.25,0.2344 0.97266,0.2344 1.75782,0.75 0.84375,0.5625 1.27734,1.3594 0.43359,0.7968 0.43359,1.8633 0,1.4531 -1.03125,2.5429 -1.01953,1.0781 -2.41406,1.3594 v 0.1641 q 0.5625,0.094 1.28906,0.3984 0.72657,0.293 1.23047,0.7383 z"
           style="font-size:24px;fill:none;stroke:#fb0000;stroke-width:0.37795275;stroke-miterlimit:4;stroke-dasharray:none;stroke-opacity:1"
           id="path11695" />
      </g>
    </g>
  </g>
</svg>
