<?xml version="1.0" encoding="UTF-8" standalone="no"?>
<!-- Created with Inkscape (http://www.inkscape.org/) -->

<svg
   xmlns:dc="http://purl.org/dc/elements/1.1/"
   xmlns:cc="http://creativecommons.org/ns#"
   xmlns:rdf="http://www.w3.org/1999/02/22-rdf-syntax-ns#"
   xmlns:svg="http://www.w3.org/2000/svg"
   xmlns="http://www.w3.org/2000/svg"
   xmlns:sodipodi="http://sodipodi.sourceforge.net/DTD/sodipodi-0.dtd"
   xmlns:inkscape="http://www.inkscape.org/namespaces/inkscape"
   width="98mm"
   height="65mm"
   viewBox="0 0 98 65"
   version="1.1"
   id="svg8"
   inkscape:version="0.92.1 r15371"
   sodipodi:docname="sandevice_e6804_r1_3.svg">
  <defs
     id="defs2">
    <marker
       style="overflow:visible"
       refY="0"
       refX="0"
       orient="auto"
       id="DistanceX">
      <path
         id="path4487"
         style="stroke:#000000;stroke-width:0.5"
         d="M 3,-3 -3,3 M 0,-5 V 5"
         inkscape:connector-curvature="0" />
    </marker>
    <pattern
       y="0"
       x="0"
       width="8"
       patternUnits="userSpaceOnUse"
       id="Hatch"
       height="8">
      <path
         id="path4490"
         stroke-width="0.25"
         stroke="#000000"
         linecap="square"
         d="M8 4 l-4,4" />
      <path
         id="path4492"
         stroke-width="0.25"
         stroke="#000000"
         linecap="square"
         d="M6 2 l-4,4" />
      <path
         id="path4494"
         stroke-width="0.25"
         stroke="#000000"
         linecap="square"
         d="M4 0 l-4,4" />
    </pattern>
    <symbol
       id="*MODEL_SPACE" />
    <symbol
       id="*PAPER_SPACE" />
  </defs>
  <sodipodi:namedview
     id="base"
     pagecolor="#ffffff"
     bordercolor="#666666"
     borderopacity="1.0"
     inkscape:pageopacity="0.0"
     inkscape:pageshadow="2"
     inkscape:zoom="1.0059296"
     inkscape:cx="39.565658"
     inkscape:cy="52.882814"
     inkscape:document-units="mm"
     inkscape:current-layer="g4511"
     showgrid="false"
     inkscape:window-width="1920"
     inkscape:window-height="1017"
     inkscape:window-x="-8"
     inkscape:window-y="-8"
     inkscape:window-maximized="1" />
  <metadata
     id="metadata5">
    <rdf:RDF>
      <cc:Work
         rdf:about="">
        <dc:format>image/svg+xml</dc:format>
        <dc:type
           rdf:resource="http://purl.org/dc/dcmitype/StillImage" />
        <dc:title />
      </cc:Work>
    </rdf:RDF>
  </metadata>
  <g
     inkscape:label="Layer 1"
     inkscape:groupmode="layer"
     id="layer1"
     transform="translate(0,-232)">
    <g
       id="g4511"
       inkscape:label="0"
       transform="matrix(0.26458333,0,0,0.26458333,-1.0704905,-34.691146)">
      <path
         id="path4501"
         style="fill:none;stroke:#f90000;stroke-opacity:1"
         d="M 372.35905,1011.0236 H 7.559055 v 240 H 372.35905 v -96.5056 z"
         inkscape:connector-curvature="0"
         sodipodi:nodetypes="cccccc" />
      <path
         id="path4503"
         style="fill:none;stroke:#000000"
         d="m 55.861417,1035.0236 a 5.102362,5.102362 0 1 0 -10.204724,0 5.102362,5.102362 0 1 0 10.204724,0 z"
         inkscape:connector-curvature="0" />
      <path
         id="path4505"
         style="fill:none;stroke:#000000"
         d="m 55.861417,1227.0236 a 5.102362,5.102362 0 1 0 -10.204724,0 5.102362,5.102362 0 1 0 10.204724,0 z"
         inkscape:connector-curvature="0" />
      <path
         id="path4507"
         style="fill:none;stroke:#000000"
         d="m 343.86142,1035.0236 a 5.102365,5.102365 0 1 0 -10.20473,0 5.102365,5.102365 0 1 0 10.20473,0 z"
         inkscape:connector-curvature="0" />
      <path
         id="path4509"
         style="fill:none;stroke:#000000"
         d="m 343.86142,1227.0236 a 5.102365,5.102365 0 1 0 -10.20473,0 5.102365,5.102365 0 1 0 10.20473,0 z"
         inkscape:connector-curvature="0" />
      <rect
         style="fill:none;fill-opacity:1;stroke:#f60000;stroke-width:0.94488192;stroke-miterlimit:4;stroke-dasharray:none;stroke-dashoffset:0;stroke-opacity:1"
         id="rect4539"
         width="48"
         height="50.078739"
         x="9.2243576"
         y="1102.5864" />
      <ellipse
         style="fill:none;fill-opacity:1;stroke:#f60000;stroke-width:0.94488192;stroke-miterlimit:4;stroke-dasharray:none;stroke-dashoffset:0;stroke-opacity:1"
         id="path4549"
         cx="31.383013"
         cy="1117.1249"
         rx="8.6372614"
         ry="8.4265966" />
      <ellipse
         style="fill:none;fill-opacity:1;stroke:#f60000;stroke-width:0.94488192;stroke-miterlimit:4;stroke-dasharray:none;stroke-dashoffset:0;stroke-opacity:1"
         id="path4549-2"
         cx="31.383013"
         cy="1139.5515"
         rx="8.6372614"
         ry="8.4265966" />
      <rect
         style="fill:none;fill-opacity:1;stroke:#ff0000;stroke-width:0.94488192;stroke-miterlimit:4;stroke-dasharray:none;stroke-dashoffset:0;stroke-opacity:1"
         id="rect4566"
         width="42.70866"
         height="56.125984"
         x="63.87479"
         y="1023.1631" />
      <rect
         style="fill:none;fill-opacity:1;stroke:#ff0000;stroke-width:0.94488192;stroke-miterlimit:4;stroke-dasharray:none;stroke-dashoffset:0;stroke-opacity:1"
         id="rect4583"
         width="7.5839367"
         height="8.8479261"
         x="71.405403"
         y="1027.5845" />
      <rect
         style="fill:none;fill-opacity:1;stroke:#ff0000;stroke-width:0.94488192;stroke-miterlimit:4;stroke-dasharray:none;stroke-dashoffset:0;stroke-opacity:1"
         id="rect4583-5"
         width="7.5839367"
         height="8.8479261"
         x="71.405403"
         y="1039.9105" />
      <rect
         style="fill:none;fill-opacity:1;stroke:#ff0000;stroke-width:0.94488192;stroke-miterlimit:4;stroke-dasharray:none;stroke-dashoffset:0;stroke-opacity:1"
         id="rect4583-4"
         width="7.5839367"
         height="8.8479261"
         x="71.405403"
         y="1052.2367" />
      <rect
         style="fill:none;fill-opacity:1;stroke:#ff0000;stroke-width:0.94488192;stroke-miterlimit:4;stroke-dasharray:none;stroke-dashoffset:0;stroke-opacity:1"
         id="rect4583-8"
         width="7.5839367"
         height="8.8479261"
         x="71.405403"
         y="1064.5627" />
      <rect
         style="fill:none;fill-opacity:1;stroke:#ff0000;stroke-width:0.94488192;stroke-miterlimit:4;stroke-dasharray:none;stroke-dashoffset:0;stroke-opacity:1"
         id="rect4566-7"
         width="42.70866"
         height="56.125984"
         x="116.86937"
         y="1023.1317" />
      <rect
         style="fill:none;fill-opacity:1;stroke:#ff0000;stroke-width:0.94488192;stroke-miterlimit:4;stroke-dasharray:none;stroke-dashoffset:0;stroke-opacity:1"
         id="rect4583-84"
         width="7.5839367"
         height="8.8479261"
         x="124.39998"
         y="1027.553" />
      <rect
         style="fill:none;fill-opacity:1;stroke:#ff0000;stroke-width:0.94488192;stroke-miterlimit:4;stroke-dasharray:none;stroke-dashoffset:0;stroke-opacity:1"
         id="rect4583-5-9"
         width="7.5839367"
         height="8.8479261"
         x="124.39998"
         y="1039.8792" />
      <rect
         style="fill:none;fill-opacity:1;stroke:#ff0000;stroke-width:0.94488192;stroke-miterlimit:4;stroke-dasharray:none;stroke-dashoffset:0;stroke-opacity:1"
         id="rect4583-4-8"
         width="7.5839367"
         height="8.8479261"
         x="124.39998"
         y="1052.2053" />
      <rect
         style="fill:none;fill-opacity:1;stroke:#ff0000;stroke-width:0.94488192;stroke-miterlimit:4;stroke-dasharray:none;stroke-dashoffset:0;stroke-opacity:1"
         id="rect4583-8-1"
         width="7.5839367"
         height="8.8479261"
         x="124.39998"
         y="1064.5314" />
      <rect
         style="fill:none;fill-opacity:1;stroke:#ff0000;stroke-width:0.94488192;stroke-miterlimit:4;stroke-dasharray:none;stroke-dashoffset:0;stroke-opacity:1"
         id="rect4566-6"
         width="42.70866"
         height="56.125984"
         x="63.874779"
         y="1131.2889" />
      <rect
         style="fill:none;fill-opacity:1;stroke:#ff0000;stroke-width:0.94488192;stroke-miterlimit:4;stroke-dasharray:none;stroke-dashoffset:0;stroke-opacity:1"
         id="rect4583-1"
         width="7.5839367"
         height="8.8479261"
         x="71.405388"
         y="1135.7104" />
      <rect
         style="fill:none;fill-opacity:1;stroke:#ff0000;stroke-width:0.94488192;stroke-miterlimit:4;stroke-dasharray:none;stroke-dashoffset:0;stroke-opacity:1"
         id="rect4583-5-5"
         width="7.5839367"
         height="8.8479261"
         x="71.405388"
         y="1148.0364" />
      <rect
         style="fill:none;fill-opacity:1;stroke:#ff0000;stroke-width:0.94488192;stroke-miterlimit:4;stroke-dasharray:none;stroke-dashoffset:0;stroke-opacity:1"
         id="rect4583-4-7"
         width="7.5839367"
         height="8.8479261"
         x="71.405388"
         y="1160.3625" />
      <rect
         style="fill:none;fill-opacity:1;stroke:#ff0000;stroke-width:0.94488192;stroke-miterlimit:4;stroke-dasharray:none;stroke-dashoffset:0;stroke-opacity:1"
         id="rect4583-8-2"
         width="7.5839367"
         height="8.8479261"
         x="71.405388"
         y="1172.6886" />
      <rect
         style="fill:none;fill-opacity:1;stroke:#ff0000;stroke-width:0.94488192;stroke-miterlimit:4;stroke-dasharray:none;stroke-dashoffset:0;stroke-opacity:1"
         id="rect4566-7-2"
         width="42.70866"
         height="56.125984"
         x="116.86937"
         y="1131.2577" />
      <rect
         style="fill:none;fill-opacity:1;stroke:#ff0000;stroke-width:0.94488192;stroke-miterlimit:4;stroke-dasharray:none;stroke-dashoffset:0;stroke-opacity:1"
         id="rect4583-84-2"
         width="7.5839367"
         height="8.8479261"
         x="124.39996"
         y="1135.6788" />
      <rect
         style="fill:none;fill-opacity:1;stroke:#ff0000;stroke-width:0.94488192;stroke-miterlimit:4;stroke-dasharray:none;stroke-dashoffset:0;stroke-opacity:1"
         id="rect4583-5-9-2"
         width="7.5839367"
         height="8.8479261"
         x="124.39996"
         y="1148.005" />
      <rect
         style="fill:none;fill-opacity:1;stroke:#ff0000;stroke-width:0.94488192;stroke-miterlimit:4;stroke-dasharray:none;stroke-dashoffset:0;stroke-opacity:1"
         id="rect4583-4-8-3"
         width="7.5839367"
         height="8.8479261"
         x="124.39996"
         y="1160.3312" />
      <rect
         style="fill:none;fill-opacity:1;stroke:#ff0000;stroke-width:0.94488192;stroke-miterlimit:4;stroke-dasharray:none;stroke-dashoffset:0;stroke-opacity:1"
         id="rect4583-8-1-3"
         width="7.5839367"
         height="8.8479261"
         x="124.39996"
         y="1172.6572" />
      <path
         style="fill:none;stroke:#fe0000;stroke-width:0.94488192;stroke-linecap:butt;stroke-linejoin:miter;stroke-miterlimit:4;stroke-dasharray:none;stroke-opacity:1"
         d="m 273.3704,1066.3559 97.2742,0.099 0.0361,63.3409 -96.30211,0.3446 -0.0723,-18.0157 -10.01483,0.062 -0.38519,-28.6008 9.28061,-0.1745 z"
         id="path11595"
         inkscape:connector-curvature="0"
         sodipodi:nodetypes="ccccccccc" />
      <g
         transform="translate(133.02239,-78.686102)"
         aria-label="Ethernet"
         style="font-style:normal;font-weight:normal;font-size:13.33333302px;line-height:1.25;font-family:sans-serif;letter-spacing:0px;word-spacing:0px;fill:none;fill-opacity:1;stroke:#fe0000;stroke-width:0.94488192;stroke-miterlimit:4;stroke-dasharray:none;stroke-opacity:1"
         id="text11634">
        <path
           inkscape:connector-curvature="0"
           d="m 165.72846,1165.8464 h -6.38672 v -9.694 h 6.38672 v 1.1459 h -5.09766 v 2.6562 h 5.09766 v 1.1458 h -5.09766 v 3.6003 h 5.09766 z"
           style="stroke-width:0.94488192;stroke-miterlimit:4;stroke-dasharray:none"
           id="path11636" />
        <path
           inkscape:connector-curvature="0"
           d="m 171.45763,1165.7813 q -0.34506,0.091 -0.75521,0.1498 -0.40365,0.059 -0.72266,0.059 -1.11328,0 -1.69271,-0.599 -0.57942,-0.599 -0.57942,-1.9206 v -3.8672 h -0.82683 v -1.0286 h 0.82683 v -2.0898 h 1.22395 v 2.0898 h 2.52605 v 1.0286 h -2.52605 v 3.3138 q 0,0.573 0.026,0.8985 0.026,0.319 0.18229,0.5989 0.14323,0.2605 0.39062,0.3842 0.25391,0.1171 0.76823,0.1171 0.29948,0 0.625,-0.085 0.32552,-0.091 0.46875,-0.1497 h 0.0651 z"
           style="stroke-width:0.94488192;stroke-miterlimit:4;stroke-dasharray:none"
           id="path11638" />
        <path
           inkscape:connector-curvature="0"
           d="m 179.02273,1165.8464 h -1.22396 v -4.1406 q 0,-0.5013 -0.0586,-0.9375 -0.0586,-0.4427 -0.21485,-0.6901 -0.16276,-0.2734 -0.46875,-0.4036 -0.30599,-0.1368 -0.79427,-0.1368 -0.5013,0 -1.04817,0.2474 -0.54688,0.2474 -1.04818,0.6315 v 5.4297 H 172.942 v -10.1302 h 1.22396 v 3.6654 q 0.57292,-0.4753 1.18489,-0.7422 0.61198,-0.2669 1.25652,-0.2669 1.17838,0 1.79687,0.7096 0.61849,0.7096 0.61849,2.0443 z"
           style="stroke-width:0.94488192;stroke-miterlimit:4;stroke-dasharray:none"
           id="path11640" />
        <path
           inkscape:connector-curvature="0"
           d="m 187.46674,1162.3373 h -5.35807 q 0,0.6706 0.20182,1.1719 0.20182,0.4948 0.55339,0.8138 0.33854,0.3125 0.80078,0.4687 0.46875,0.1563 1.02864,0.1563 0.74219,0 1.49089,-0.293 0.75521,-0.2994 1.07422,-0.5859 h 0.0651 v 1.3346 q -0.61849,0.2604 -1.26302,0.4362 -0.64453,0.1758 -1.35417,0.1758 -1.80989,0 -2.82552,-0.9766 -1.01562,-0.983 -1.01562,-2.7864 0,-1.7839 0.97005,-2.832 0.97656,-1.0482 2.5651,-1.0482 1.47136,0 2.26563,0.8594 0.80078,0.8593 0.80078,2.4414 z m -1.19141,-0.9375 q -0.007,-0.9635 -0.48828,-1.4909 -0.47526,-0.5273 -1.45182,-0.5273 -0.98307,0 -1.56901,0.5794 -0.57943,0.5794 -0.65755,1.4388 z"
           style="stroke-width:0.94488192;stroke-miterlimit:4;stroke-dasharray:none"
           id="path11642" />
        <path
           inkscape:connector-curvature="0"
           d="m 193.85997,1159.9089 h -0.0651 q -0.27344,-0.065 -0.53386,-0.091 -0.2539,-0.033 -0.60547,-0.033 -0.5664,0 -1.09375,0.2539 -0.52734,0.2474 -1.01562,0.6446 v 5.1627 h -1.22396 v -7.2721 h 1.22396 v 1.0742 q 0.72916,-0.5859 1.28255,-0.8268 0.5599,-0.2474 1.13932,-0.2474 0.31901,0 0.46224,0.02 0.14323,0.013 0.42969,0.059 z"
           style="stroke-width:0.94488192;stroke-miterlimit:4;stroke-dasharray:none"
           id="path11644" />
        <path
           inkscape:connector-curvature="0"
           d="m 201.10606,1165.8464 h -1.22395 v -4.1406 q 0,-0.5013 -0.0586,-0.9375 -0.0586,-0.4427 -0.21484,-0.6901 -0.16276,-0.2734 -0.46875,-0.4036 -0.30599,-0.1368 -0.79427,-0.1368 -0.50131,0 -1.04818,0.2474 -0.54687,0.2474 -1.04818,0.6315 v 5.4297 h -1.22396 v -7.2721 h 1.22396 v 0.8073 q 0.57292,-0.4753 1.1849,-0.7422 0.61198,-0.2669 1.25651,-0.2669 1.17838,0 1.79687,0.7096 0.61849,0.7096 0.61849,2.0443 z"
           style="stroke-width:0.94488192;stroke-miterlimit:4;stroke-dasharray:none"
           id="path11646" />
        <path
           inkscape:connector-curvature="0"
           d="M 209.55007,1162.3373 H 204.192 q 0,0.6706 0.20182,1.1719 0.20183,0.4948 0.55339,0.8138 0.33854,0.3125 0.80078,0.4687 0.46875,0.1563 1.02865,0.1563 0.74218,0 1.49088,-0.293 0.75521,-0.2994 1.07422,-0.5859 h 0.0651 v 1.3346 q -0.61848,0.2604 -1.26302,0.4362 -0.64453,0.1758 -1.35416,0.1758 -1.8099,0 -2.82552,-0.9766 -1.01563,-0.983 -1.01563,-2.7864 0,-1.7839 0.97005,-2.832 0.97657,-1.0482 2.56511,-1.0482 1.47135,0 2.26562,0.8594 0.80078,0.8593 0.80078,2.4414 z m -1.1914,-0.9375 q -0.007,-0.9635 -0.48828,-1.4909 -0.47526,-0.5273 -1.45183,-0.5273 -0.98307,0 -1.56901,0.5794 -0.57942,0.5794 -0.65755,1.4388 z"
           style="stroke-width:0.94488192;stroke-miterlimit:4;stroke-dasharray:none"
           id="path11648" />
        <path
           inkscape:connector-curvature="0"
           d="m 215.18158,1165.7813 q -0.34505,0.091 -0.75521,0.1498 -0.40364,0.059 -0.72265,0.059 -1.11328,0 -1.69271,-0.599 -0.57943,-0.599 -0.57943,-1.9206 v -3.8672 h -0.82682 v -1.0286 h 0.82682 v -2.0898 h 1.22396 v 2.0898 h 2.52604 v 1.0286 h -2.52604 v 3.3138 q 0,0.573 0.026,0.8985 0.026,0.319 0.1823,0.5989 0.14322,0.2605 0.39062,0.3842 0.25391,0.1171 0.76823,0.1171 0.29948,0 0.625,-0.085 0.32552,-0.091 0.46875,-0.1497 h 0.0651 z"
           style="stroke-width:0.94488192;stroke-miterlimit:4;stroke-dasharray:none"
           id="path11650" />
      </g>
      <g
         aria-label="Sandevices e6804 r1.3"
         transform="translate(30.045948,1027.9665)"
         style="font-style:normal;font-weight:normal;font-size:16px;line-height:1.25;font-family:sans-serif;letter-spacing:0px;word-spacing:0px;fill:#fe0000;fill-opacity:1;stroke:none;stroke-opacity:1"
         id="flowRoot5378">
        <path
           d="m 88.072266,211.06604 q 0,0.67968 -0.320313,1.34375 -0.3125,0.66406 -0.882812,1.125 -0.625,0.5 -1.460938,0.78125 -0.828125,0.28125 -2,0.28125 -1.257812,0 -2.265625,-0.23438 -1,-0.23437 -2.039062,-0.69531 v -1.9375 h 0.109375 q 0.882812,0.73437 2.039062,1.13281 1.15625,0.39844 2.171875,0.39844 1.4375,0 2.234375,-0.53906 0.804688,-0.53907 0.804688,-1.4375 0,-0.77344 -0.382813,-1.14063 -0.375,-0.36719 -1.148437,-0.57031 -0.585938,-0.15625 -1.273438,-0.25781 -0.679687,-0.10157 -1.445312,-0.25782 -1.546875,-0.32812 -2.296875,-1.11718 -0.742188,-0.79688 -0.742188,-2.07032 0,-1.46093 1.234375,-2.39062 1.234375,-0.9375 3.132813,-0.9375 1.226562,0 2.25,0.23437 1.023437,0.23438 1.8125,0.57813 v 1.82812 h -0.109375 q -0.664063,-0.5625 -1.75,-0.92968 -1.078125,-0.375 -2.210938,-0.375 -1.242187,0 -2,0.51562 -0.75,0.51563 -0.75,1.32813 0,0.72656 0.375,1.14062 0.375,0.41406 1.320313,0.63281 0.5,0.10938 1.421875,0.26563 0.921875,0.15625 1.5625,0.32031 1.296875,0.34375 1.953125,1.03906 0.65625,0.69532 0.65625,1.94532 z"
           style=""
           id="path5421" />
        <path
           d="m 97.220703,214.38635 h -1.460937 v -0.92969 q -0.195313,0.13281 -0.53125,0.375 -0.328125,0.23438 -0.640625,0.375 -0.367188,0.17969 -0.84375,0.29688 -0.476563,0.125 -1.117188,0.125 -1.179687,0 -2,-0.78125 -0.820312,-0.78125 -0.820312,-1.99219 0,-0.99219 0.421875,-1.60156 0.429687,-0.61719 1.21875,-0.96875 0.796875,-0.35157 1.914062,-0.47657 1.117188,-0.125 2.398438,-0.1875 v -0.22656 q 0,-0.5 -0.179688,-0.82812 -0.171875,-0.32813 -0.5,-0.51563 -0.3125,-0.17969 -0.75,-0.24219 -0.4375,-0.0625 -0.914062,-0.0625 -0.578125,0 -1.289063,0.15625 -0.710937,0.14844 -1.46875,0.4375 h -0.07813 v -1.49218 q 0.429688,-0.11719 1.242188,-0.25782 0.8125,-0.14062 1.601562,-0.14062 0.921875,0 1.601563,0.15625 0.6875,0.14844 1.1875,0.51562 0.492187,0.35938 0.75,0.92969 0.257812,0.57031 0.257812,1.41406 z m -1.460937,-2.14844 v -2.42969 q -0.671875,0.0391 -1.585938,0.11719 -0.90625,0.0781 -1.4375,0.22656 -0.632812,0.17969 -1.023437,0.5625 -0.390625,0.375 -0.390625,1.03907 0,0.75 0.453125,1.13281 0.453125,0.375 1.382812,0.375 0.773438,0 1.414063,-0.29688 0.640625,-0.30468 1.1875,-0.72656 z"
           style=""
           id="path5423" />
        <path
           d="m 107.36133,214.38635 h -1.46875 v -4.96875 q 0,-0.60156 -0.0703,-1.125 -0.0703,-0.53125 -0.25782,-0.82813 -0.19531,-0.32812 -0.5625,-0.48437 -0.36718,-0.16406 -0.95312,-0.16406 -0.60156,0 -1.25781,0.29687 -0.65625,0.29688 -1.25782,0.75781 v 6.51563 h -1.46875 v -8.72656 h 1.46875 v 0.96875 q 0.6875,-0.57032 1.42188,-0.89063 0.73437,-0.32031 1.50781,-0.32031 1.41406,0 2.15625,0.85156 0.74219,0.85156 0.74219,2.45313 z"
           style=""
           id="path5425" />
        <path
           d="m 117.26758,214.38635 h -1.46875 v -0.91406 q -0.63281,0.54687 -1.32031,0.85156 -0.6875,0.30469 -1.49219,0.30469 -1.5625,0 -2.48438,-1.20313 -0.91406,-1.20312 -0.91406,-3.33594 0,-1.10937 0.3125,-1.97656 0.32031,-0.86719 0.85938,-1.47656 0.53125,-0.59375 1.23437,-0.90625 0.71094,-0.3125 1.46875,-0.3125 0.6875,0 1.21875,0.14844 0.53125,0.14062 1.11719,0.44531 v -3.78125 h 1.46875 z m -1.46875,-2.14844 v -5.00781 q -0.59375,-0.26563 -1.0625,-0.36719 -0.46875,-0.10156 -1.02344,-0.10156 -1.23437,0 -1.92187,0.85937 -0.6875,0.85938 -0.6875,2.4375 0,1.55469 0.53125,2.36719 0.53125,0.80469 1.70312,0.80469 0.625,0 1.26563,-0.27344 0.64062,-0.28125 1.19531,-0.71875 z"
           style=""
           id="path5427" />
        <path
           d="m 127.46289,210.17541 h -6.42969 q 0,0.80469 0.24219,1.40625 0.24219,0.59375 0.66406,0.97656 0.40625,0.375 0.96094,0.5625 0.5625,0.1875 1.23438,0.1875 0.89062,0 1.78906,-0.35156 0.90625,-0.35937 1.28906,-0.70312 h 0.0781 v 1.60156 q -0.74219,0.3125 -1.51563,0.52344 -0.77344,0.21093 -1.625,0.21093 -2.17187,0 -3.39062,-1.17187 -1.21875,-1.17969 -1.21875,-3.34375 0,-2.14063 1.16406,-3.39844 1.17187,-1.25781 3.07812,-1.25781 1.76563,0 2.71875,1.03125 0.96094,1.03125 0.96094,2.92969 z m -1.42969,-1.125 q -0.008,-1.15625 -0.58593,-1.78906 -0.57032,-0.63281 -1.74219,-0.63281 -1.17969,0 -1.88281,0.69531 -0.69532,0.69531 -0.78907,1.72656 z"
           style=""
           id="path5429" />
        <path
           d="m 137.23633,205.65979 -3.53125,8.72656 h -1.47656 l -3.50782,-8.72656 h 1.59375 l 2.70313,6.94531 2.67969,-6.94531 z"
           style=""
           id="path5431" />
        <path
           d="m 140.73633,204.19885 h -1.65625 v -1.52344 h 1.65625 z m -0.0937,10.1875 h -1.46875 v -8.72656 h 1.46875 z"
           style=""
           id="path5433" />
        <path
           d="m 149.95508,213.83947 q -0.73438,0.35157 -1.39844,0.54688 -0.65625,0.19531 -1.39844,0.19531 -0.94531,0 -1.73437,-0.27344 -0.78906,-0.28125 -1.35156,-0.84375 -0.57032,-0.5625 -0.88282,-1.42187 -0.3125,-0.85938 -0.3125,-2.00781 0,-2.14063 1.17188,-3.35938 1.17969,-1.21875 3.10937,-1.21875 0.75,0 1.46875,0.21094 0.72657,0.21094 1.32813,0.51562 v 1.63282 h -0.0781 q -0.67187,-0.52344 -1.39062,-0.80469 -0.71094,-0.28125 -1.39063,-0.28125 -1.25,0 -1.97656,0.84375 -0.71875,0.83594 -0.71875,2.46094 0,1.57812 0.70313,2.42968 0.71093,0.84375 1.99218,0.84375 0.44532,0 0.90625,-0.11718 0.46094,-0.11719 0.82813,-0.30469 0.32031,-0.16406 0.60156,-0.34375 0.28125,-0.1875 0.44531,-0.32031 h 0.0781 z"
           style=""
           id="path5435" />
        <path
           d="m 159.15039,210.17541 h -6.42969 q 0,0.80469 0.24219,1.40625 0.24219,0.59375 0.66406,0.97656 0.40625,0.375 0.96094,0.5625 0.5625,0.1875 1.23438,0.1875 0.89062,0 1.78906,-0.35156 0.90625,-0.35937 1.28906,-0.70312 h 0.0781 v 1.60156 q -0.74219,0.3125 -1.51563,0.52344 -0.77344,0.21093 -1.625,0.21093 -2.17187,0 -3.39062,-1.17187 -1.21875,-1.17969 -1.21875,-3.34375 0,-2.14063 1.16406,-3.39844 1.17187,-1.25781 3.07812,-1.25781 1.76563,0 2.71875,1.03125 0.96094,1.03125 0.96094,2.92969 z m -1.42969,-1.125 q -0.008,-1.15625 -0.58593,-1.78906 -0.57032,-0.63281 -1.74219,-0.63281 -1.17969,0 -1.88281,0.69531 -0.69532,0.69531 -0.78907,1.72656 z"
           style=""
           id="path5437" />
        <path
           d="m 167.61133,211.87072 q 0,1.19532 -0.99219,1.96094 -0.98437,0.76563 -2.69531,0.76563 -0.96875,0 -1.78125,-0.22657 -0.80469,-0.23437 -1.35156,-0.50781 v -1.64844 h 0.0781 q 0.69531,0.52344 1.54688,0.83594 0.85156,0.30469 1.63281,0.30469 0.96875,0 1.51562,-0.3125 0.54688,-0.3125 0.54688,-0.98438 0,-0.51562 -0.29688,-0.78125 -0.29687,-0.26562 -1.14062,-0.45312 -0.3125,-0.0703 -0.82031,-0.16406 -0.5,-0.0937 -0.91407,-0.20313 -1.14843,-0.30469 -1.63281,-0.89062 -0.47656,-0.59375 -0.47656,-1.45313 0,-0.53906 0.21875,-1.01562 0.22656,-0.47657 0.67969,-0.85157 0.4375,-0.36718 1.10937,-0.57812 0.67969,-0.21875 1.51563,-0.21875 0.78125,0 1.57812,0.19531 0.80469,0.1875 1.33594,0.46094 v 1.57031 h -0.0781 q -0.5625,-0.41406 -1.36718,-0.69531 -0.80469,-0.28906 -1.57813,-0.28906 -0.80469,0 -1.35937,0.3125 -0.55469,0.30468 -0.55469,0.91406 0,0.53906 0.33594,0.8125 0.32812,0.27344 1.0625,0.44531 0.40625,0.0937 0.90625,0.1875 0.50781,0.0937 0.84375,0.17188 1.02343,0.23437 1.57812,0.80468 0.55469,0.57813 0.55469,1.53125 z"
           style=""
           id="path5439" />
        <path
           d="m 182.65039,210.17541 h -6.42969 q 0,0.80469 0.24219,1.40625 0.24219,0.59375 0.66406,0.97656 0.40625,0.375 0.96094,0.5625 0.5625,0.1875 1.23438,0.1875 0.89062,0 1.78906,-0.35156 0.90625,-0.35937 1.28906,-0.70312 h 0.0781 v 1.60156 q -0.74219,0.3125 -1.51563,0.52344 -0.77344,0.21093 -1.625,0.21093 -2.17187,0 -3.39062,-1.17187 -1.21875,-1.17969 -1.21875,-3.34375 0,-2.14063 1.16406,-3.39844 1.17187,-1.25781 3.07812,-1.25781 1.76563,0 2.71875,1.03125 0.96094,1.03125 0.96094,2.92969 z m -1.42969,-1.125 q -0.008,-1.15625 -0.58593,-1.78906 -0.57032,-0.63281 -1.74219,-0.63281 -1.17969,0 -1.88281,0.69531 -0.69532,0.69531 -0.78907,1.72656 z"
           style=""
           id="path5441" />
        <path
           d="m 192.73633,210.61291 q 0,1.77344 -1.17188,2.89844 -1.16406,1.11719 -2.85937,1.11719 -0.85938,0 -1.5625,-0.26563 -0.70313,-0.26562 -1.24219,-0.78906 -0.67187,-0.64844 -1.03906,-1.71875 -0.35938,-1.07031 -0.35938,-2.57813 0,-1.54687 0.32813,-2.74218 0.33594,-1.19532 1.0625,-2.125 0.6875,-0.88282 1.77344,-1.375 1.08593,-0.5 2.53125,-0.5 0.46093,0 0.77343,0.0391 0.3125,0.0391 0.63282,0.14062 v 1.49219 h -0.0781 q -0.21875,-0.11719 -0.66406,-0.21875 -0.4375,-0.10937 -0.89844,-0.10937 -1.67969,0 -2.67969,1.05468 -1,1.04688 -1.16406,2.83594 0.65625,-0.39844 1.28906,-0.60156 0.64063,-0.21094 1.47657,-0.21094 0.74218,0 1.30468,0.14063 0.57032,0.13281 1.16407,0.54687 0.6875,0.47656 1.03125,1.20313 0.35156,0.72656 0.35156,1.76562 z m -1.58594,0.0625 q 0,-0.72656 -0.21875,-1.20312 -0.21094,-0.47657 -0.70312,-0.82813 -0.35938,-0.25 -0.79688,-0.32812 -0.4375,-0.0781 -0.91406,-0.0781 -0.66406,0 -1.23438,0.15625 -0.57031,0.15625 -1.17187,0.48438 -0.0156,0.17187 -0.0234,0.33593 -0.008,0.15625 -0.008,0.39844 0,1.23438 0.25,1.95313 0.25781,0.71093 0.70312,1.125 0.35938,0.34375 0.77344,0.50781 0.42188,0.15625 0.91406,0.15625 1.13282,0 1.78125,-0.6875 0.64844,-0.69531 0.64844,-1.99219 z"
           style=""
           id="path5443" />
        <path
           d="m 202.83789,211.14416 q 0,1.50781 -1.17969,2.50781 -1.17187,1 -2.95312,1 -1.89063,0 -3.01563,-0.97656 -1.11718,-0.97656 -1.11718,-2.5 0,-0.96875 0.5625,-1.75 0.5625,-0.78906 1.58593,-1.25 v -0.0469 q -0.9375,-0.5 -1.39062,-1.09375 -0.44531,-0.59375 -0.44531,-1.48438 0,-1.3125 1.07812,-2.1875 1.07813,-0.875 2.74219,-0.875 1.74219,0 2.78125,0.83594 1.03906,0.83594 1.03906,2.125 0,0.78906 -0.49219,1.55469 -0.49218,0.75781 -1.44531,1.1875 v 0.0469 q 1.09375,0.46875 1.67188,1.15625 0.57812,0.6875 0.57812,1.75 z m -1.85156,-5.67969 q 0,-0.83593 -0.64844,-1.32812 -0.64062,-0.5 -1.64062,-0.5 -0.98438,0 -1.61719,0.46875 -0.625,0.46875 -0.625,1.26562 0,0.5625 0.3125,0.97657 0.32031,0.40625 0.96094,0.72656 0.28906,0.14062 0.82812,0.36719 0.54688,0.22656 1.0625,0.375 0.77344,-0.51563 1.07031,-1.07032 0.29688,-0.55468 0.29688,-1.28125 z m 0.24219,5.82813 q 0,-0.71875 -0.32032,-1.14844 -0.3125,-0.4375 -1.23437,-0.875 -0.36719,-0.17187 -0.80469,-0.32031 -0.4375,-0.14844 -1.16406,-0.41406 -0.70313,0.38281 -1.13281,1.03906 -0.42188,0.65625 -0.42188,1.48437 0,1.05469 0.72656,1.74219 0.72657,0.6875 1.84375,0.6875 1.14063,0 1.82032,-0.58594 0.6875,-0.58593 0.6875,-1.60937 z"
           style=""
           id="path5445" />
        <path
           d="m 212.92383,208.56604 q 0,3.13281 -0.98438,4.60156 -0.97656,1.46094 -3.03906,1.46094 -2.09375,0 -3.0625,-1.48438 -0.96094,-1.48437 -0.96094,-4.5625 0,-3.10156 0.97657,-4.57812 0.97656,-1.48438 3.04687,-1.48438 2.09375,0 3.05469,1.50781 0.96875,1.5 0.96875,4.53907 z m -2.05469,3.54687 q 0.27344,-0.63281 0.36719,-1.48437 0.10156,-0.85938 0.10156,-2.0625 0,-1.1875 -0.10156,-2.0625 -0.0937,-0.875 -0.375,-1.48438 -0.27344,-0.60156 -0.75,-0.90625 -0.46875,-0.30469 -1.21094,-0.30469 -0.73437,0 -1.21875,0.30469 -0.47656,0.30469 -0.75781,0.92188 -0.26563,0.57812 -0.36719,1.50781 -0.0937,0.92969 -0.0937,2.03906 0,1.21875 0.0859,2.03906 0.0859,0.82032 0.36719,1.46875 0.25781,0.60938 0.72656,0.92969 0.47656,0.32031 1.25781,0.32031 0.73438,0 1.21875,-0.30468 0.48438,-0.30469 0.75,-0.92188 z"
           style=""
           id="path5447" />
        <path
           d="m 223.39258,211.11291 h -1.72656 v 3.27344 h -1.5 v -3.27344 h -5.57032 v -1.79687 l 5.63282,-6.5625 h 1.4375 v 7.10937 h 1.72656 z m -3.22656,-1.25 v -5.25 l -4.50782,5.25 z"
           style=""
           id="path5449" />
        <path
           d="m 236.69727,207.26135 h -0.0781 q -0.32812,-0.0781 -0.64062,-0.10938 -0.30469,-0.0391 -0.72657,-0.0391 -0.67968,0 -1.3125,0.30469 -0.63281,0.29687 -1.21875,0.77344 v 6.19531 h -1.46875 v -8.72656 h 1.46875 v 1.28906 q 0.875,-0.70313 1.53907,-0.99219 0.67187,-0.29687 1.36718,-0.29687 0.38282,0 0.55469,0.0234 0.17188,0.0156 0.51563,0.0703 z"
           style=""
           id="path5451" />
        <path
           d="m 245.11914,214.38635 h -6.29687 v -1.1875 h 2.42187 v -7.79688 h -2.42187 v -1.0625 q 0.49218,0 1.05468,-0.0781 0.5625,-0.0859 0.85157,-0.24219 0.35937,-0.19531 0.5625,-0.49219 0.21093,-0.30468 0.24218,-0.8125 h 1.21094 v 10.48438 h 2.375 z"
           style=""
           id="path5453" />
        <path
           d="m 250.68164,214.38635 h -1.86719 v -2.22656 h 1.86719 z"
           style=""
           id="path5455" />
        <path
           d="m 260.75977,208.78479 q 0.375,0.33593 0.61718,0.84375 0.24219,0.50781 0.24219,1.3125 0,0.79687 -0.28906,1.46093 -0.28906,0.66407 -0.8125,1.15625 -0.58594,0.54688 -1.38281,0.8125 -0.78907,0.25782 -1.73438,0.25782 -0.96875,0 -1.90625,-0.23438 -0.9375,-0.22656 -1.53906,-0.5 v -1.63281 h 0.11719 q 0.66406,0.4375 1.5625,0.72656 0.89843,0.28906 1.73437,0.28906 0.49219,0 1.04688,-0.16406 0.55468,-0.16406 0.89843,-0.48437 0.35938,-0.34375 0.53125,-0.75782 0.17969,-0.41406 0.17969,-1.04687 0,-0.625 -0.20312,-1.03125 -0.19532,-0.41406 -0.54688,-0.64844 -0.35156,-0.24219 -0.85156,-0.32812 -0.5,-0.0937 -1.07813,-0.0937 h -0.70312 v -1.29688 h 0.54687 q 1.1875,0 1.89063,-0.49219 0.71094,-0.5 0.71094,-1.45312 0,-0.42188 -0.17969,-0.73438 -0.17969,-0.32031 -0.5,-0.52343 -0.33594,-0.20313 -0.71875,-0.28125 -0.38281,-0.0781 -0.86719,-0.0781 -0.74219,0 -1.57812,0.26563 -0.83594,0.26562 -1.57813,0.75 h -0.0781 v -1.63282 q 0.55468,-0.27343 1.47656,-0.5 0.92969,-0.23437 1.79687,-0.23437 0.85157,0 1.5,0.15625 0.64844,0.15625 1.17188,0.5 0.5625,0.375 0.85156,0.90625 0.28906,0.53125 0.28906,1.24219 0,0.96875 -0.6875,1.69531 -0.67968,0.71875 -1.60937,0.90625 v 0.10937 q 0.375,0.0625 0.85937,0.26563 0.48438,0.19531 0.82032,0.49219 z"
           style=""
           id="path5457" />
      </g>
    </g>
  </g>
</svg>
