<?xml version="1.0" encoding="UTF-8" standalone="no"?>
<svg
   xmlns:dc="http://purl.org/dc/elements/1.1/"
   xmlns:cc="http://creativecommons.org/ns#"
   xmlns:rdf="http://www.w3.org/1999/02/22-rdf-syntax-ns#"
   xmlns:svg="http://www.w3.org/2000/svg"
   xmlns="http://www.w3.org/2000/svg"
   xmlns:sodipodi="http://sodipodi.sourceforge.net/DTD/sodipodi-0.dtd"
   xmlns:inkscape="http://www.inkscape.org/namespaces/inkscape"
   width="104mm"
   height="54mm"
   viewBox="0 0 104 54"
   version="1.1"
   id="svg8"
   inkscape:version="1.0beta2 (a2ee240, 2020-03-12)"
   sodipodi:docname="arduino-due.svg">
  <defs
     id="defs2">
    <rect
       id="rect906"
       height="23.267788"
       width="40.183922"
       y="175.66269"
       x="-81.866188" />
    <rect
       id="rect900"
       height="16.203196"
       width="44.007877"
       y="176.1812"
       x="-80.440308" />
    <marker
       style="overflow:visible"
       refY="0"
       refX="0"
       orient="auto"
       id="DistanceX">
      <path
         id="path860"
         style="stroke:#000000;stroke-width:0.5"
         d="M 3,-3 -3,3 M 0,-5 V 5"
         inkscape:connector-curvature="0" />
    </marker>
    <pattern
       y="0"
       x="0"
       height="8"
       width="8"
       patternUnits="userSpaceOnUse"
       id="Hatch">
      <path
         id="path863"
         linecap="square"
         stroke-width="0.25"
         stroke="#000000"
         d="M8 4 l-4,4" />
      <path
         id="path865"
         linecap="square"
         stroke-width="0.25"
         stroke="#000000"
         d="M6 2 l-4,4" />
      <path
         id="path867"
         linecap="square"
         stroke-width="0.25"
         stroke="#000000"
         d="M4 0 l-4,4" />
    </pattern>
    <symbol
       id="RECT" />
    <symbol
       id="PIE" />
    <symbol
       id="OCTAGONP" />
    <symbol
       id="SQUAREP" />
    <symbol
       id="ROUNDP" />
    <symbol
       id="ANNULUSP" />
    <symbol
       id="THERMALP" />
    <symbol
       id="OCTAGONV" />
    <symbol
       id="SQUAREV" />
    <symbol
       id="ROUNDV" />
    <symbol
       id="ANNULUSV" />
    <symbol
       id="THERMALV" />
    <symbol
       id="LONGP25" />
    <marker
       style="overflow:visible"
       refY="0"
       refX="0"
       orient="auto"
       id="DistanceX-9">
      <path
         id="path1010"
         style="stroke:#000000;stroke-width:0.5"
         d="M 3,-3 -3,3 M 0,-5 V 5"
         inkscape:connector-curvature="0" />
    </marker>
    <pattern
       y="0"
       x="0"
       height="8"
       width="8"
       patternUnits="userSpaceOnUse"
       id="Hatch-9">
      <path
         id="path1013"
         linecap="square"
         stroke-width="0.25"
         stroke="#000000"
         d="M8 4 l-4,4" />
      <path
         id="path1015"
         linecap="square"
         stroke-width="0.25"
         stroke="#000000"
         d="M6 2 l-4,4" />
      <path
         id="path1017"
         linecap="square"
         stroke-width="0.25"
         stroke="#000000"
         d="M4 0 l-4,4" />
    </pattern>
    <symbol
       id="RECT-5" />
    <symbol
       id="PIE-3" />
    <symbol
       id="OCTAGONP-2" />
    <symbol
       id="SQUAREP-4" />
    <symbol
       id="ROUNDP-8" />
    <symbol
       id="ANNULUSP-0" />
    <symbol
       id="THERMALP-6" />
    <symbol
       id="OCTAGONV-0" />
    <symbol
       id="SQUAREV-8" />
    <symbol
       id="ROUNDV-4" />
    <symbol
       id="ANNULUSV-2" />
    <symbol
       id="THERMALV-2" />
    <symbol
       id="LONGP25-3" />
  </defs>
  <sodipodi:namedview
     id="base"
     pagecolor="#ffffff"
     bordercolor="#666666"
     borderopacity="1.0"
     inkscape:pageopacity="0.0"
     inkscape:pageshadow="2"
     inkscape:zoom="4.0822711"
     inkscape:cx="178.05152"
     inkscape:cy="58.482375"
     inkscape:document-units="mm"
     inkscape:current-layer="g237"
     showgrid="false"
     inkscape:window-width="3240"
     inkscape:window-height="2050"
     inkscape:window-x="-12"
     inkscape:window-y="-12"
     inkscape:window-maximized="1"
     inkscape:document-rotation="0" />
  <metadata
     id="metadata5">
    <rdf:RDF>
      <cc:Work
         rdf:about="">
        <dc:format>image/svg+xml</dc:format>
        <dc:type
           rdf:resource="http://purl.org/dc/dcmitype/StillImage" />
        <dc:title />
      </cc:Work>
    </rdf:RDF>
  </metadata>
  <g
     inkscape:label="Layer 1"
     inkscape:groupmode="layer"
     id="layer1"
     transform="translate(0,-264.8)">
    <g
       id="g14"
       transform="matrix(0.26458333,0,0,0.26458333,-98.356793,130.74145)" />
    <g
       id="g237"
       transform="translate(97.550878,106.96082)">
      <g
         inkscape:label="20"
         id="g1087"
         transform="matrix(0.26458333,0,0,0.26458333,-93.828602,-83.959855)"
         style="fill:none;stroke:#ff0000;stroke-opacity:1" />
      <g
         inkscape:label="21"
         id="g4843"
         transform="matrix(0.26458333,0,0,0.26458333,-93.828602,-83.959855)">
        <g
           id="use3421"
           transform="matrix(0.6096,0,0,1.5748,95.232,-85.44)" />
        <g
           id="use3687"
           transform="matrix(0.2,0,0,0.2,39.462047,-111.744)" />
        <g
           id="use3699"
           transform="matrix(0.7,0,0,0.3,122.88,-52.992)" />
        <g
           id="use3707"
           transform="matrix(0.7,0,0,0.3,121.728,-148.992)" />
        <g
           id="use3715"
           transform="matrix(0.7,0,0,0.3,122.688,-45.696)" />
        <g
           id="use3723"
           transform="matrix(0.7,0,0,0.3,144.768,-165.504)" />
        <g
           id="use3731"
           transform="matrix(0.7,0,0,0.3,55.296,-29.76)" />
        <g
           id="use3733"
           transform="matrix(0.2,0,0,0.2,39.462047,-104.64)" />
        <g
           id="use4243"
           transform="matrix(0.2,0,0,0.2,39.462047,-125.952)" />
        <g
           id="use4263"
           transform="matrix(0.2,0,0,0.2,16.505953,-63.744)" />
        <g
           id="use4357"
           transform="matrix(0.2,0,0,0.2,39.462047,-118.848)" />
        <g
           id="use4367"
           transform="matrix(0.2,0,0,0.2,16.889953,-50.688)" />
      </g>
      <g
         inkscape:label="0"
         id="g6679"
         transform="matrix(0.26458333,0,0,0.26458333,-95.35129,-85.407067)"
         style="fill:none;stroke:#ff0000;stroke-opacity:1">
        <path
           id="path6677"
           style="fill:none;stroke:#ff0000;stroke-opacity:1"
           d="m -1.700787,1123.4188 v -1.7983 m 2.599937,2.6 h -1.7983 m 2.599937,-2.6 v 1.7983 m -2.599937,-2.5999 h 1.7983 m 0.990614,1.7008 a 1.889764,1.889764 0 1 0 -3.779528,0 1.889764,1.889764 0 1 0 3.779528,0 z m 0,0 a 1.889764,1.889764 0 1 0 -3.779528,0 1.889764,1.889764 0 1 0 3.779528,0 z m -3.590551,0.8991 v -1.7983 m 2.599937,2.6 h -1.7983 m 2.599937,-2.6 v 1.7983 m -2.599937,-2.5999 h 1.7983 m 0.990614,1.7008 a 1.889764,1.889764 0 1 0 -3.779528,0 1.889764,1.889764 0 1 0 3.779528,0 z m 0,0 a 1.889764,1.889764 0 1 0 -3.779528,0 1.889764,1.889764 0 1 0 3.779528,0 z m 0,0 a 1.889764,1.889764 0 1 0 -3.779528,0 1.889764,1.889764 0 1 0 3.779528,0 z m 365.310236,-24 h -14.4 m 14.4,-9.6 h -14.4 m 14.4,-9.6 h -14.4 m 14.4,-9.6 h -14.4 m 14.4,-9.6 h -14.4 m 14.4,-9.6 h -14.4 m 14.4,-9.6 h -14.4 m 14.4,-9.6 h -14.4 m 14.4,-9.6 h -14.4 m 14.4,-9.6 h -14.4 m 14.4,-9.6 h -14.4 m 14.4,-9.60002 h -14.4 m 14.4,-9.59999 h -14.4 m 14.4,-9.6 h -14.4 m 14.4,-9.60001 h -14.4 m 14.4,-9.6 h -14.4 m 14.4,-9.6 h -14.4 m 14.4,-9.59999 h -14.4 m 0,48 -2.4,2.4 m 0,4.79999 v -4.79999 m 2.4,7.19999 -2.4,-2.4 m 2.4,2.4 -2.4,2.40001 m 0,4.80001 v -4.80001 m 2.4,7.20001 -2.4,-2.4 m 2.4,2.4 -2.4,2.4 m 0,4.8 v -4.8 m 2.4,7.2 -2.4,-2.4 m 2.4,2.4 -2.4,2.4 m 0,4.8 v -4.8 m 2.4,7.2 -2.4,-2.4 m 2.4,2.4 -2.4,2.4 m 0,4.8 v -4.8 m 2.4,7.2 -2.4,-2.4 m 2.4,2.4 -2.4,2.4 m 0,4.8 v -4.8 m 2.4,7.2 -2.4,-2.4 m 2.4,2.4 -2.4,2.4 m 0,4.8 v -4.8 m 2.4,7.2 -2.4,-2.4 m 2.4,2.4 -2.4,2.4 m 0,4.8 v -4.8 m 2.4,7.2 -2.4,-2.4 m 0,4.8 2.4,-2.4 m -2.4,2.4 v 4.8 m 2.4,2.4 -2.4,-2.4 m 0,4.8 2.4,-2.4 m -2.4,2.4 v 4.8 m 2.4,2.4 -2.4,-2.4 m 2.4,2.4 -2.4,2.4 m 0,4.8 v -4.8 m 2.4,7.2 -2.4,-2.4 m 2.4,2.4 -2.4,2.4 m 0,4.8 v -4.8 m 2.4,7.2 -2.4,-2.4 m 19.2,0 -2.4,2.4 m 2.4,-2.4 v -4.8 m -2.4,-2.4 2.4,2.4 m 0,-4.8 -2.4,2.4 m 2.4,-2.4 v -4.8 m -2.4,-2.4 2.4,2.4 m 0,-4.8 -2.4,2.4 m 2.4,-2.4 v -4.8 m -2.4,-2.4 2.4,2.4 m 0,-4.8 -2.4,2.4 m 2.4,-2.4 v -4.8 m -2.4,-2.4 2.4,2.4 m 0,-4.8 -2.4,2.4 m 2.4,-2.4 v -4.8 m -2.4,-2.4 2.4,2.4 m 0,-4.8 -2.4,2.4 m 2.4,-2.4 v -4.8 m -2.4,-2.4 2.4,2.4 m -2.4,-2.4 2.4,-2.4 m 0,-4.8 v 4.8 m -2.4,-7.2 2.4,2.4 m 0,-4.8 -2.4,2.4 m 2.4,-7.2 v 4.8 m -2.4,-7.2 2.4,2.4 m 0,-4.8 -2.4,2.4 m 2.4,-7.2 v 4.8 m -2.4,-7.2 2.4,2.4 m 0,-4.8 -2.4,2.4 m 2.4,-7.2 v 4.8 m -2.4,-7.2 2.4,2.4 m 0,-4.8 -2.4,2.4 m 2.4,-7.20001 v 4.80001 m -2.4,-7.20002 2.4,2.40001 m 0,-4.80001 -2.4,2.4 m 2.4,-7.19999 v 4.79999 m -2.4,-7.19999 2.4,2.4 m 0,-4.80001 -2.4,2.40001 m 2.4,-7.20001 v 4.8 m -2.4,-7.19999 2.4,2.39999 m 0,-4.79999 -2.4,2.4 m 2.4,-7.20001 v 4.80001 m -2.4,-7.20001 2.4,2.4 m 0,-4.79999 -2.4,2.39999 m 2.4,-7.2 v 4.80001 m -2.4,-7.20001 2.4,2.4 m 0,-4.8 -2.4,2.4 m 2.4,-7.19999 v 4.79999 m -2.4,-7.2 2.4,2.40001 m 0,-4.80001 -2.4,2.4 m 2.4,-7.19999 v 4.79999 m -2.4,-7.19999 2.4,2.4 m 0,-4.80001 -2.4,2.40001 m 2.4,-7.20001 v 4.8 m -2.4,-7.19999 2.4,2.39999 m -16.8,-2.39999 h 14.4 m -16.8,55.19999 2.4,2.40001 m -2.4,-7.20001 v 4.8 m 2.4,-7.19999 -2.4,2.39999 m 0,-4.79999 2.4,2.4 m -2.4,-7.20001 v 4.80001 m 2.4,-7.20001 -2.4,2.4 m 0,-4.79999 2.4,2.39999 m -2.4,-7.2 v 4.80001 m 2.4,-7.20001 -2.4,2.4 m 0,-4.8 2.4,2.4 m -2.4,-7.19999 v 4.79999 m 2.4,-7.2 -2.4,2.40001 m 0,-4.80001 2.4,2.4 m -2.4,-7.19999 v 4.79999 m 2.4,-7.19999 -2.4,2.4 m 0,-4.80001 2.4,2.40001 m -2.4,-7.20001 v 4.8 m 2.4,-7.19999 -2.4,2.39999 M 6.336,1109.9437 v -33.888 m -13.152,33.984 H 22.56 m -29.376,-33.984 v 33.984 m 13.152,-33.984 H -6.816 m 50.976,0 H 6.336 m -3.937512,-15.9043 v -1.7775 m 1.777512,0 v 1.7775 m -0.59263,-2.3701 0.59263,0.5926 m -1.184882,-0.5926 H 3.58337 m -1.184882,0.5926 0.59263,-0.5926 m -1.18526,0 0.59263,0.5926 m -1.184882,-0.5926 h 0.592252 m -1.184882,0.5926 0.59263,-0.5926 m -0.59263,2.3701 v -1.7775 M 4.176,1060.1514 H 0.620976 m 3.555024,1.7583 -0.59263,-0.5923 m 0.59263,1.7775 v -1.1852 m -0.59263,1.7775 0.59263,-0.5923 m -2.962394,0.5923 H 3.58337 m -2.962394,-0.5923 0.59263,0.5923 m -0.59263,-1.7775 v 1.1852 m 0.59263,-1.7775 -0.59263,0.5923 m 2.370142,3.5361 v 1.7775 m -0.59263,-2.3701 0.59263,0.5926 m -1.777512,-0.5926 h 1.184882 m -1.777512,0.5926 0.59263,-0.5926 m -0.59263,2.3701 v -1.7775 M 4.176,1067.2233 H 0.620976 M 9.12,1025.0797 h 6.72 m -6.72,-2.88 v 2.88 m -7.68,-2.88 h 7.68 m -7.68,2.88 v -2.88 m -4.8,2.88 h 4.8 m -4.8,26.88 v -26.88 m 4.8,26.88 h -4.8 m 4.8,2.88 v -2.88 m 7.68,2.88 H 1.44 m 7.68,-2.88 v 2.88 m 6.72,-2.88 H 9.12 m -9.312,-28.8 v 43.2 m -1.632756,-69.32789 v -1.77751 m 1.777512,0 v 1.77751 m -0.59263,-2.37014 0.59263,0.59263 m -1.184882,-0.59263 h 0.592252 m -1.184882,0.59263 0.59263,-0.59263 m -1.18526,0 0.59263,0.59263 m -1.184882,-0.59263 h 0.592252 m -1.184882,0.59263 0.59263,-0.59263 m -0.59263,2.37014 v -1.77751 m 3.555024,1.77751 h -3.555024 m 3.555024,1.75824 -0.59263,-0.59225 m 0.59263,1.77751 v -1.18526 m -0.59263,1.77755 0.59263,-0.59229 m -2.962394,0.59229 h 2.369764 m -2.962394,-0.59229 0.59263,0.59229 m -0.59263,-1.77755 v 1.18526 m 0.59263,-1.77751 -0.59263,0.59225 m 2.370142,3.53615 v 1.7775 m -0.59263,-2.3702 0.59263,0.5927 m -1.777512,-0.5927 h 1.184882 m -1.777512,0.5927 0.59263,-0.5927 m -0.59263,2.3702 v -1.7775 m 3.555024,1.7775 H -3.602268 M 12.08315,985.32284 h 0.566929 m -0.566929,-13.6063 h 0.566929 m -0.566929,0.18897 v -0.18897 M 0.555591,958.29921 v 40.44095 M 12.08315,972.09449 v 13.03937 m 7.181102,6.80315 v -1.51181 m -10.015748,1.51181 h 10.015748 m -10.015748,5.85827 v -5.85827 m -7.937008,5.85827 h 7.937008 m -7.937008,-5.6693 v 5.6693 m -1.700787,-5.6693 h 1.700787 m 0,-27.02362 h -1.700787 m 1.700787,-5.85827 v 5.85827 m 7.937008,-5.85827 H 1.311496 m 7.937008,5.85827 v -5.85827 m 10.015748,5.85827 H 9.248504 m 10.015748,1.51181 v -1.51181 M 7.511811,1073.8477 h 1.793386 m -0.896882,-2.6903 v 2.6903 m -0.896504,-1.7934 0.896504,-0.8969 m -1.754835,0 -1.793763,2.6903 m 0,-2.6903 1.793763,2.6903 M 2.208,1071.1574 h 1.793386 m -0.896504,2.6903 v -2.6903 M 235.68,1024.1197 v 4.8 m 16.8,2.4 h -14.4 m 16.8,-2.4 -2.4,2.4 m 2.4,-7.2 v 4.8 m -2.4,-7.2 2.4,2.4 m -19.2,4.8 2.4,2.4 m 0,-9.6 -2.4,2.4 m 0,-19.2 v 4.8 m 0,4.8 v 4.8 m 16.8,2.4 h -14.4 m 14.4,-9.6 h -14.4 m 16.8,7.2 -2.4,2.4 m 2.4,-7.2 v 4.8 m -2.4,-7.2 2.4,2.4 m 0,-4.8 -2.4,2.4 m 2.4,-7.2 v 4.8 m -2.4,-7.2 2.4,2.4 m -16.8,-2.4 h 14.4 m -16.8,16.8 2.4,2.4 m 0,-9.6 -2.4,2.4 m 0,-4.8 2.4,2.4 m 0,-9.6 -2.4,2.4 m -227.784189,55.104 h 1.793386 m -0.896882,-2.6903 v 2.6903 m -0.896504,-1.7934 0.896504,-0.8969 m -1.754835,0 -1.793763,2.6903 m 0,-2.6903 1.793763,2.6903 m -3.548598,-0.8969 0.896504,0.8969 m -0.448252,-0.8969 H 2.592 m 1.793386,-0.4482 -0.448252,0.4482 m 0.448252,-1.3451 v 0.8969 m -0.448252,-1.3452 0.448252,0.4483 M 2.592,1057.3334 H 3.937134 M 2.592,1060.0237 v -2.6903 M 29.012787,922.18091 h 2.177764 m -1.088882,3.26665 v -3.26665 m -4.62463,1.63314 h 1.088882 m -1.088882,1.63351 h 2.177764 m -2.177764,-3.26665 v 3.26665 m 2.177764,-3.26665 h -2.177764 m -2.991496,3.26665 -0.54463,-0.54463 m 1.633512,0.54463 h -1.088882 m 1.633512,-0.54463 -0.54463,0.54463 m 0.54463,-1.08888 v 0.54425 m -0.54463,-1.08888 0.54463,0.54463 m -1.633512,-0.54463 h 1.088882 m -1.633512,-0.54425 0.54463,0.54425 m -0.54463,-1.08889 v 0.54464 m 0.54463,-1.08889 -0.54463,0.54425 m 1.633512,-0.54425 h -1.088882 m 1.633512,0.54425 -0.54463,-0.54425 m -5.16926,1.63314 h 1.088882 m -1.088882,1.63351 h 2.177764 m -2.177764,-3.26665 v 3.26665 m 2.177764,-3.26665 h -2.177764 m -2.446866,2.17777 1.088882,1.08888 m -0.544252,-1.08888 h -1.633512 m 2.177764,-0.54463 -0.544252,0.54463 m 0.544252,-1.63352 v 1.08889 m -0.544252,-1.63314 0.544252,0.54425 m -2.177764,-0.54425 h 1.633512 m -1.633512,3.26665 v -3.26665 m 13.186016,16.01878 a 4.535433,4.535433 0 1 0 -9.070866,0 4.535433,4.535433 0 1 0 9.070866,0 z m 1.133858,0 a 5.669291,5.669291 0 1 0 -11.338582,0 5.669291,5.669291 0 1 0 11.338582,0 z m -9.448819,11.33858 h -6.992126 m 14.551182,0 h 7.559055 M 27.299528,926.8611 h 7.559055 m -22.110237,0 h 6.992126 m 0,21.16536 v 1.51181 m 7.559056,-1.51181 h -7.559056 m 7.559056,1.51181 v -1.51181 m -7.559056,1.51181 h 7.559056 M 19.740472,926.8611 v 1.51181 m 7.559056,-1.51181 h -7.559056 m 7.559056,1.51181 v -1.51181 m -7.559056,1.51181 h 7.559056 m -15.496063,11.71654 h 0.944881 m -0.944881,-3.77953 v 3.77953 m 0.944881,-3.77953 h -0.944881 m 0.944881,3.77953 v 9.44882 m 0,-22.67717 v 9.44882 m 22.110237,13.22835 V 926.8611 M 170.4,925.71969 h 4.8 m 2.4,2.39999 -2.4,-2.39999 m 0,9.6 2.4,-2.40001 m -9.6,-4.8 2.4,-2.39999 m -2.4,7.19999 v -4.8 m 2.4,7.20001 -2.4,-2.40001 m 7.2,2.40001 h -4.8 m 67.2,-9.6 h 4.8 m 2.4,2.39999 -2.4,-2.39999 m 0,9.6 2.4,-2.40001 m 0,0 v -4.8 m -12,-2.39999 2.4,2.39999 m -7.2,-2.39999 h 4.8 m -7.2,2.39999 2.4,-2.39999 m -2.4,7.19999 v -4.8 m 2.4,7.20001 -2.4,-2.40001 m 7.2,2.40001 H 228 m 7.2,-2.40001 -2.4,2.40001 m 2.4,-7.20001 2.4,-2.39999 m -2.4,7.19999 v -4.8 m 2.4,7.20001 -2.4,-2.40001 m 7.2,2.40001 h -4.8 m -28.8,-9.6 h 4.8 m 2.4,2.39999 -2.4,-2.39999 m 0,9.6 2.4,-2.40001 m 7.2,-7.19999 2.4,2.39999 m -7.2,-2.39999 h 4.8 m -7.2,2.39999 2.4,-2.39999 m -2.4,7.19999 v -4.8 m 2.4,7.20001 -2.4,-2.40001 m 7.2,2.40001 h -4.8 m 7.2,-2.40001 -2.4,2.40001 m -19.2,-9.6 2.4,2.39999 m -7.2,-2.39999 h 4.8 m -7.2,2.39999 2.4,-2.39999 m -2.4,7.19999 v -4.8 m 2.4,7.20001 -2.4,-2.40001 m 7.2,2.40001 h -4.8 m 7.2,-2.40001 -2.4,2.40001 m 2.4,-7.20001 2.4,-2.39999 m -2.4,7.19999 v -4.8 m 2.4,7.20001 -2.4,-2.40001 m 7.2,2.40001 h -4.8 m -28.8,-9.6 h 4.8 m 2.4,2.39999 -2.4,-2.39999 m 0,9.6 2.4,-2.40001 m 7.2,-7.19999 2.4,2.39999 m -7.2,-2.39999 h 4.8 m -7.2,2.39999 2.4,-2.39999 m -2.4,7.19999 v -4.8 m 2.4,7.20001 -2.4,-2.40001 m 7.2,2.40001 h -4.8 m 7.2,-2.40001 -2.4,2.40001 m -16.8,-7.20001 2.4,-2.39999 m -2.4,7.19999 v -4.8 m 2.4,7.20001 -2.4,-2.40001 m 7.2,2.40001 H 180 m -111.36,-9.6 h 4.8 m 2.4,2.39999 -2.4,-2.39999 m 0,9.6 2.4,-2.40001 m -9.6,-4.8 2.4,-2.39999 m -2.4,7.19999 v -4.8 m 2.4,7.20001 -2.4,-2.40001 m 7.2,2.40001 h -4.8 m 86.4,-9.6 h 4.8 m 2.4,2.39999 -2.4,-2.39999 m 0,9.6 2.4,-2.40001 m 0,0 v -4.8 m -12,-2.39999 2.4,2.39999 m -7.2,-2.39999 h 4.8 m -7.2,2.39999 2.4,-2.39999 m -2.4,7.19999 v -4.8 m 2.4,7.20001 -2.4,-2.40001 m 7.2,2.40001 h -4.8 m 7.2,-2.40001 -2.4,2.40001 m 2.4,-7.20001 2.4,-2.39999 m -2.4,7.19999 v -4.8 m 2.4,7.20001 -2.4,-2.40001 m 7.2,2.40001 h -4.8 m -28.8,-9.6 h 4.8 m 2.4,2.39999 -2.4,-2.39999 m 0,9.6 2.4,-2.40001 m 7.2,-7.19999 2.4,2.39999 m -7.2,-2.39999 h 4.8 m -7.2,2.39999 2.4,-2.39999 m -2.4,7.19999 v -4.8 m 2.4,7.20001 -2.4,-2.40001 m 7.2,2.40001 h -4.8 m 7.2,-2.40001 -2.4,2.40001 m -19.2,-9.6 2.4,2.39999 m -7.2,-2.39999 h 4.8 m -7.2,2.39999 2.4,-2.39999 m -2.4,7.19999 v -4.8 m 2.4,7.20001 -2.4,-2.40001 m 7.2,2.40001 h -4.8 m 7.2,-2.40001 -2.4,2.40001 m 2.4,-7.20001 2.4,-2.39999 m -2.4,7.19999 v -4.8 m 2.4,7.20001 -2.4,-2.40001 m 7.2,2.40001 h -4.8 m -28.8,-9.6 h 4.8 m 2.4,2.39999 -2.4,-2.39999 m 0,9.6 2.4,-2.40001 m 7.2,-7.19999 2.4,2.39999 m -7.2,-2.39999 h 4.8 m -7.2,2.39999 2.4,-2.39999 m -2.4,7.19999 v -4.8 m 2.4,7.20001 -2.4,-2.40001 m 7.2,2.40001 h -4.8 m 7.2,-2.40001 -2.4,2.40001 m -19.2,-9.6 2.4,2.39999 m -7.2,-2.39999 h 4.8 m -7.2,2.39999 2.4,-2.39999 m -2.4,7.19999 v -4.8 m 2.4,7.20001 -2.4,-2.40001 m 7.2,2.40001 h -4.8 m 7.2,-2.40001 -2.4,2.40001 m 2.4,-7.20001 2.4,-2.39999 m -2.4,7.19999 v -4.8 m 2.4,7.20001 -2.4,-2.40001 m 7.2,2.40001 h -4.8 m -14.4,-9.6 2.4,2.39999 m -7.2,-2.39999 h 4.8 m -7.2,2.39999 2.4,-2.39999 m -2.4,7.19999 v -4.8 m 2.4,7.20001 -2.4,-2.40001 m 7.2,2.40001 h -4.8 m 7.2,-2.40001 -2.4,2.40001 m 92.16,182.40001 h -4.8 m -2.4,-2.4 2.4,2.4 m 0,-9.6 -2.4,2.4 m 9.6,4.8 -2.4,2.4 m 2.4,-7.2 v 4.8 m -2.4,-7.2 2.4,2.4 m -7.2,-2.4 h 4.8 m -67.2,9.6 h -4.8 m -2.4,-2.4 2.4,2.4 m 0,-9.6 -2.4,2.4 m 0,0 v 4.8 m 12,2.4 -2.4,-2.4 m 7.2,2.4 h -4.8 m 7.2,-2.4 -2.4,2.4 m 2.4,-7.2 v 4.8 m -2.4,-7.2 2.4,2.4 m -7.2,-2.4 h 4.8 m -7.2,2.4 2.4,-2.4 m -2.4,7.2 -2.4,2.4 m 2.4,-7.2 v 4.8 m -2.4,-7.2 2.4,2.4 m -7.2,-2.4 h 4.8 m 28.8,9.6 H 132 m -2.4,-2.4 2.4,2.4 m 0,-9.6 -2.4,2.4 m -7.2,7.2 -2.4,-2.4 m 7.2,2.4 h -4.8 m 7.2,-2.4 -2.4,2.4 m 2.4,-7.2 v 4.8 m -2.4,-7.2 2.4,2.4 m -7.2,-2.4 h 4.8 m -7.2,2.4 2.4,-2.4 m 19.2,9.6 -2.4,-2.4 m 7.2,2.4 h -4.8 m 7.2,-2.4 -2.4,2.4 m 2.4,-7.2 v 4.8 m -2.4,-7.2 2.4,2.4 m -7.2,-2.4 h 4.8 m -7.2,2.4 2.4,-2.4 m -2.4,7.2 -2.4,2.4 m 2.4,-7.2 v 4.8 m -2.4,-7.2 2.4,2.4 m -7.2,-2.4 h 4.8 m 28.8,9.6 h -4.8 m -2.4,-2.4 2.4,2.4 m 0,-9.6 -2.4,2.4 m -7.2,7.2 -2.4,-2.4 m 7.2,2.4 h -4.8 m 7.2,-2.4 -2.4,2.4 m 2.4,-7.2 v 4.8 m -2.4,-7.2 2.4,2.4 m -7.2,-2.4 h 4.8 m -7.2,2.4 2.4,-2.4 m 16.8,7.2 -2.4,2.4 m 2.4,-7.2 v 4.8 m -2.4,-7.2 2.4,2.4 m -7.2,-2.4 h 4.8 M 278.4,971.41569 h -7.68 m 41.48296,-1.82401 v -5.38053 m -3.58715,0 3.58715,5.38053 m -3.58715,0 v -5.38053 m -2.24693,0.89688 -0.89688,-0.89688 m 0.89688,4.48365 v -3.58677 m -0.89688,4.48365 0.89688,-0.89688 m -2.69027,0.89688 h 1.79339 m -2.69027,-0.89688 0.89688,0.89688 m -0.89688,-4.48365 v 3.58677 m 0.89688,-4.48365 -0.89688,0.89688 m 2.69027,-0.89688 h -1.79339 m -4.78639,0 h 1.79376 m -0.89688,5.38053 v -5.38053 m -0.89688,5.38053 h 1.79376 m -7.62784,-5.38053 h 3.58715 m -1.79338,5.38053 v -5.38053 m -7.62785,2.69027 h 3.58715 m 0,-0.89688 v 3.58714 m -1.79338,-5.38053 1.79338,1.79339 m -3.58715,0 1.79377,-1.79339 m -1.79377,5.38053 v -3.58714 m -3.14381,3.58714 0.89688,-0.89688 m -2.69026,0.89688 h 1.79338 m -2.69027,-0.89688 0.89689,0.89688 m -0.89689,-4.48365 v 3.58677 m 0.89689,-4.48365 -0.89689,0.89688 m 2.69027,-0.89688 h -1.79338 m 2.69026,0.89688 -0.89688,-0.89688 m -6.57978,0 h 1.79377 m -0.89689,5.38053 v -5.38053 m -0.89688,5.38053 h 1.79377 m -4.0407,0 v -5.38053 m -3.58715,0 3.58715,5.38053 m -3.58715,0 v -5.38053 m -2.24693,4.48365 v -4.48365 m -0.89688,5.38053 0.89688,-0.89688 m -2.69026,0.89688 h 1.79338 m -2.69027,-0.89688 0.89689,0.89688 m -0.89689,-5.38053 v 4.48365 m -2.24692,-4.48365 v 5.38053 m -1.79339,-3.58714 1.79339,-1.79339 m -3.58715,0 1.79376,1.79339 m -1.79376,3.58714 v -5.38053 m -2.24693,0 v 5.38053 m -1.79377,-3.58714 1.79377,-1.79339 m -3.58715,0 1.79338,1.79339 m -1.79338,3.58714 v -5.38053 m -2.24693,0.89688 -0.89688,-0.89688 m 0.89688,4.48365 v -3.58677 m -0.89688,4.48365 0.89688,-0.89688 m -2.69027,0.89688 h 1.79339 m -2.69027,-0.89688 0.89688,0.89688 m -0.89688,-4.48365 v 3.58677 m 0.89688,-4.48365 -0.89688,0.89688 m 2.69027,-0.89688 h -1.79339 m -4.04069,5.38053 0.89688,-0.89688 m -2.69027,0.89688 h 1.79339 m -2.69027,-0.89688 0.89688,0.89688 m -0.89688,-4.48365 v 3.58677 m 0.89688,-4.48365 -0.89688,0.89688 m 2.69027,-0.89688 h -1.79339 m 2.69027,0.89688 -0.89688,-0.89688 M 328.8,935.31969 H 324 m -2.4,-2.40001 2.4,2.40001 m 0,-9.6 -2.4,2.39999 m 9.6,4.8 -2.4,2.40001 m 2.4,-7.20001 v 4.8 m -2.4,-7.19999 2.4,2.39999 m -7.2,-2.39999 h 4.8 m -67.2,9.6 h -4.8 m -2.4,-2.40001 2.4,2.40001 m 0,-9.6 -2.4,2.39999 m 0,0 v 4.8 m 12,2.40001 -2.4,-2.40001 m 7.2,2.40001 h -4.8 m 7.2,-2.40001 -2.4,2.40001 m 2.4,-7.20001 v 4.8 m -2.4,-7.19999 2.4,2.39999 m -7.2,-2.39999 h 4.8 m -7.2,2.39999 2.4,-2.39999 m -2.4,7.19999 -2.4,2.40001 m 2.4,-7.20001 v 4.8 m -2.4,-7.19999 2.4,2.39999 m -7.2,-2.39999 h 4.8 m 28.8,9.6 h -4.8 m -2.4,-2.40001 2.4,2.40001 m 0,-9.6 -2.4,2.39999 m -7.2,7.20001 -2.4,-2.40001 m 7.2,2.40001 H 276 m 7.2,-2.40001 -2.4,2.40001 m 2.4,-7.20001 v 4.8 m -2.4,-7.19999 2.4,2.39999 m -7.2,-2.39999 h 4.8 m -7.2,2.39999 2.4,-2.39999 m 19.2,9.6 -2.4,-2.40001 m 7.2,2.40001 h -4.8 m 7.2,-2.40001 -2.4,2.40001 m 2.4,-7.20001 v 4.8 m -2.4,-7.19999 2.4,2.39999 m -7.2,-2.39999 h 4.8 m -7.2,2.39999 2.4,-2.39999 m -2.4,7.19999 -2.4,2.40001 m 2.4,-7.20001 v 4.8 m -2.4,-7.19999 2.4,2.39999 m -7.2,-2.39999 h 4.8 m 28.8,9.6 h -4.8 m -2.4,-2.40001 2.4,2.40001 m 0,-9.6 -2.4,2.39999 m -7.2,7.20001 -2.4,-2.40001 m 7.2,2.40001 h -4.8 m 7.2,-2.40001 -2.4,2.40001 m 2.4,-7.20001 v 4.8 m -2.4,-7.19999 2.4,2.39999 m -7.2,-2.39999 h 4.8 m -7.2,2.39999 2.4,-2.39999 m 16.8,7.19999 -2.4,2.40001 m 2.4,-7.20001 v 4.8 m -2.4,-7.19999 2.4,2.39999 m -7.2,-2.39999 h 4.8 m -57.6,192.00001 h -4.8 m -2.4,-2.4 2.4,2.4 m 0,-9.6 -2.4,2.4 m 9.6,4.8 -2.4,2.4 m 2.4,-7.2 v 4.8 m -2.4,-7.2 2.4,2.4 m -7.2,-2.4 h 4.8 m -67.2,9.6 h -4.8 m -2.4,-2.4 2.4,2.4 m 0,-9.6 -2.4,2.4 m 0,0 v 4.8 m 12,2.4 -2.4,-2.4 m 7.2,2.4 h -4.8 m 7.2,-2.4 -2.4,2.4 m 2.4,-7.2 v 4.8 m -2.4,-7.2 2.4,2.4 m -7.2,-2.4 h 4.8 m -7.2,2.4 2.4,-2.4 m -2.4,7.2 -2.4,2.4 m 2.4,-7.2 v 4.8 m -2.4,-7.2 2.4,2.4 m -7.2,-2.4 h 4.8 m 28.8,9.6 h -4.8 m -2.4,-2.4 2.4,2.4 m 0,-9.6 -2.4,2.4 m -7.2,7.2 -2.4,-2.4 m 7.2,2.4 h -4.8 m 7.2,-2.4 -2.4,2.4 m 2.4,-7.2 v 4.8 m -2.4,-7.2 2.4,2.4 m -7.2,-2.4 h 4.8 m -7.2,2.4 2.4,-2.4 m 19.2,9.6 -2.4,-2.4 m 7.2,2.4 H 228 m 7.2,-2.4 -2.4,2.4 m 2.4,-7.2 v 4.8 m -2.4,-7.2 2.4,2.4 m -7.2,-2.4 h 4.8 m -7.2,2.4 2.4,-2.4 m -2.4,7.2 -2.4,2.4 m 2.4,-7.2 v 4.8 m -2.4,-7.2 2.4,2.4 m -7.2,-2.4 h 4.8 m 28.8,9.6 h -4.8 m -2.4,-2.4 2.4,2.4 m 0,-9.6 -2.4,2.4 m -7.2,7.2 -2.4,-2.4 m 7.2,2.4 h -4.8 m 7.2,-2.4 -2.4,2.4 m 2.4,-7.2 v 4.8 m -2.4,-7.2 2.4,2.4 m -7.2,-2.4 h 4.8 m -7.2,2.4 2.4,-2.4 m 16.8,7.2 -2.4,2.4 m 2.4,-7.2 v 4.8 m -2.4,-7.2 2.4,2.4 m -7.2,-2.4 h 4.8 m 96,9.6 h -4.8 m -2.4,-2.4 2.4,2.4 m 0,-9.6 -2.4,2.4 m 9.6,4.8 -2.4,2.4 m 2.4,-7.2 v 4.8 m -2.4,-7.2 2.4,2.4 m -7.2,-2.4 h 4.8 m -67.2,9.6 H 276 m -2.4,-2.4 2.4,2.4 m 0,-9.6 -2.4,2.4 m 0,0 v 4.8 m 12,2.4 -2.4,-2.4 m 7.2,2.4 h -4.8 m 7.2,-2.4 -2.4,2.4 m 2.4,-7.2 v 4.8 m -2.4,-7.2 2.4,2.4 m -7.2,-2.4 h 4.8 m -7.2,2.4 2.4,-2.4 m -2.4,7.2 -2.4,2.4 m 2.4,-7.2 v 4.8 m -2.4,-7.2 2.4,2.4 m -7.2,-2.4 h 4.8 m 28.8,9.6 h -4.8 m -2.4,-2.4 2.4,2.4 m 0,-9.6 -2.4,2.4 m -7.2,7.2 -2.4,-2.4 m 7.2,2.4 h -4.8 m 7.2,-2.4 -2.4,2.4 m 2.4,-7.2 v 4.8 m -2.4,-7.2 2.4,2.4 m -7.2,-2.4 h 4.8 m -7.2,2.4 2.4,-2.4 m 19.2,9.6 -2.4,-2.4 m 7.2,2.4 h -4.8 m 7.2,-2.4 -2.4,2.4 m 2.4,-7.2 v 4.8 m -2.4,-7.2 2.4,2.4 m -7.2,-2.4 h 4.8 m -7.2,2.4 2.4,-2.4 m -2.4,7.2 -2.4,2.4 m 2.4,-7.2 v 4.8 m -2.4,-7.2 2.4,2.4 m -7.2,-2.4 h 4.8 m 28.8,9.6 h -4.8 m -2.4,-2.4 2.4,2.4 m 0,-9.6 -2.4,2.4 m -7.2,7.2 -2.4,-2.4 m 7.2,2.4 H 324 m 7.2,-2.4 -2.4,2.4 m 2.4,-7.2 v 4.8 m -2.4,-7.2 2.4,2.4 m -7.2,-2.4 h 4.8 m -7.2,2.4 2.4,-2.4 m 16.8,7.2 -2.4,2.4 m 2.4,-7.2 v 4.8 m -2.4,-7.2 2.4,2.4 m -7.2,-2.4 h 4.8 m 8.47068,-26.6442 -0.78463,0.7847 m 2.35426,-0.7847 h -1.56963 m 2.35426,0.7847 -0.78463,-0.7847 m 0.78463,1.5697 v -0.785 m -3.13889,3.9235 3.13889,-3.1385 m 0,3.1385 h -3.13889 m -4.16542,0 -0.78463,-0.7846 m 2.35389,0.7846 h -1.56926 m 2.35389,-0.7846 -0.78463,0.7846 m 0.78463,-2.3539 v 1.5693 m -0.78463,-2.3539 0.78463,0.7846 m -1.56926,-0.7846 h 0.78463 m -2.35389,0.7846 1.56926,-0.7846 m -1.56926,-1.5697 v 2.3543 m 3.13852,-2.3543 H 341.136 m 36.93468,4.7082 -0.78463,-0.7846 m 2.35426,0.7846 h -1.56963 m 2.35426,-0.7846 -0.78463,0.7846 m 0.78463,-1.5693 v 0.7847 m -0.78463,-1.5693 0.78463,0.7846 m -0.78463,-0.7846 h -0.785 m 1.56963,-0.7846 -0.78463,0.7846 m 0.78463,-1.5696 v 0.785 m -0.78463,-1.5697 0.78463,0.7847 m -2.35426,-0.7847 h 1.56963 m -2.35426,0.7847 0.78463,-0.7847 m -4.95005,4.7082 -0.78463,-0.7846 m 2.35389,0.7846 h -1.56926 m 2.35389,-0.7846 -0.78463,0.7846 m 0.78463,-2.3539 v 1.5693 m -0.78463,-2.3539 0.78463,0.7846 m -1.56926,-0.7846 h 0.78463 m -2.35389,0.7846 1.56926,-0.7846 m -1.56926,-1.5697 v 2.3543 m 3.13852,-2.3543 H 372.336 m -25.46532,-16.8457 h 1.56963 m -2.35426,-0.7846 v -0.785 m 0.78463,1.5696 -0.78463,-0.7846 m 0,1.5692 0.78463,-0.7846 m -0.78463,1.5693 v -0.7847 m 0.78463,1.5693 -0.78463,-0.7846 m 2.35426,0.7846 h -1.56963 m 2.35426,-0.7846 -0.78463,0.7846 m 0.78463,-1.5693 v 0.7847 m -0.78463,-1.5693 0.78463,0.7846 m 0,-1.5692 -0.78463,0.7846 m 0.78463,-1.5696 v 0.785 m -0.78463,-1.5697 0.78463,0.7847 m -2.35426,-0.7847 h 1.56963 m -2.35426,0.7847 0.78463,-0.7847 m -5.73468,2.3543 h 3.13852 m -0.78463,-2.3543 -2.35389,2.3543 m 2.35389,2.3539 v -4.7082 m 2.59616,13.5236 3.13889,-3.1389 m -2.35426,3.9235 -0.78463,-0.7846 m 2.35426,0.7846 h -1.56963 m 2.35426,-0.7846 -0.78463,0.7846 m 0.78463,-3.9235 v 3.1389 m -0.78463,-3.9236 0.78463,0.7847 m -2.35426,-0.7847 h 1.56963 m -2.35426,0.7847 0.78463,-0.7847 m -0.78463,3.9236 v -3.1389 m -4.16542,3.9235 -0.78463,-0.7846 m 2.35389,0.7846 h -1.56926 m 2.35389,-0.7846 -0.78463,0.7846 m 0.78463,-2.3539 v 1.5693 m -0.78463,-2.3539 0.78463,0.7846 m -1.56926,-0.7846 h 0.78463 m -2.35389,0.7846 1.56926,-0.7846 m -1.56926,-1.5697 v 2.3543 m 3.13852,-2.3543 H 341.136 m 7.30431,-16.8457 h -2.35426 m 3.13889,0.7846 -0.78463,-0.7846 m 0.78463,1.5693 v -0.7847 m -0.78463,1.5693 0.78463,-0.7846 m -2.35426,0.7846 h 1.56963 m -2.35426,-0.7846 0.78463,0.7846 m -0.78463,-2.3539 v 1.5693 m 1.56926,-3.1389 -1.56926,1.5696 m 3.13889,-2.3543 -1.56963,0.7847 m -6.51931,1.5696 h 3.13852 m -0.78463,-2.3543 -2.35389,2.3543 m 2.35389,2.3539 v -4.7082 m 2.59616,-7.2457 h 3.13889 m -0.78463,-2.3543 -2.35426,2.3543 m 2.35426,2.3539 v -4.7082 m -7.30431,2.3543 h 3.13852 m -0.78463,-2.3543 -2.35389,2.3543 m 2.35389,2.3539 v -4.7082 m 33.79616,33.5082 h 3.13889 m -1.56963,-4.7082 v 4.7082 m -1.56926,-3.1385 1.56926,-1.5697 m -5.73468,4.7082 -0.78463,-0.7846 m 2.35389,0.7846 h -1.56926 m 2.35389,-0.7846 -0.78463,0.7846 m 0.78463,-2.3539 v 1.5693 m -0.78463,-2.3539 0.78463,0.7846 m -1.56926,-0.7846 h 0.78463 m -2.35389,0.7846 1.56926,-0.7846 m -1.56926,-1.5697 v 2.3543 m 3.13852,-2.3543 H 372.336 m 5.73468,-7.2457 h 2.35426 m -3.13889,-0.7846 0.78463,0.7846 m -0.78463,-1.5696 v 0.785 m 0.78463,-1.5697 -0.78463,0.7847 m 2.35426,-0.7847 h -1.56963 m 2.35426,0.7847 -0.78463,-0.7847 m 0.78463,3.9236 v -3.1389 m -0.78463,3.9235 0.78463,-0.7846 m -2.35426,0.7846 h 1.56963 m -2.35426,-0.7846 0.78463,0.7846 m -5.73468,-2.3539 h 3.13852 m -0.78463,-2.3543 -2.35389,2.3543 m 2.35389,2.3539 v -4.7082 m 2.59616,-5.6764 v 0.7846 m 3.13889,-3.9235 -3.13889,3.1389 m 3.13889,-3.9236 v 0.7847 m -3.13889,-0.7847 h 3.13889 m -8.08894,2.3543 h 3.13852 m -0.78463,-2.3543 -2.35389,2.3543 m 2.35389,2.3539 v -4.7082 m 2.90079,-4.8918 -0.78463,-0.7846 m 2.35427,0.7846 h -1.56964 m 2.35427,-0.7846 -0.78463,0.7846 m 0.78463,-2.3539 v 1.5693 m -0.78463,-2.3539 0.78463,0.7846 m -1.56964,-0.7846 h 0.78501 m -2.35427,0.7846 1.56926,-0.7846 m -1.56926,-1.5697 v 2.3543 m 3.1389,-2.3543 h -3.1389 m -4.95005,2.3543 h 3.13852 m -0.78463,-2.3543 -2.35389,2.3543 m 2.35389,2.3539 v -4.7082 m -27.33921,-9.6 -0.78463,0.7847 m 2.35426,-0.7847 h -1.56963 m 2.35426,0.7847 -0.78463,-0.7847 m 0.78463,1.5697 v -0.785 m -3.13889,3.9235 3.13889,-3.1385 m 0,3.1385 h -3.13889 m -4.95005,-2.3539 h 3.13852 m -0.78463,-2.3543 -2.35389,2.3543 m 2.35389,2.3539 v -4.7082 m 34.10079,4.7082 -0.78463,-0.7846 m 2.35427,0.7846 h -1.56964 m 2.35427,-0.7846 -0.78463,0.7846 m 0.78463,-1.5693 v 0.7847 m -0.78463,-1.5693 0.78463,0.7846 m -0.78463,-0.7846 h -0.78501 m 1.56964,-0.7846 -0.78463,0.7846 m 0.78463,-1.5696 v 0.785 m -0.78463,-1.5697 0.78463,0.7847 m -2.35427,-0.7847 h 1.56964 m -2.35427,0.7847 0.78463,-0.7847 m -5.73468,2.3543 h 3.13852 m -0.78463,-2.3543 -2.35389,2.3543 m 2.35389,2.3539 v -4.7082 m -28.12384,-5.6764 3.13889,-3.1389 m -2.35426,3.9235 -0.78463,-0.7846 m 2.35426,0.7846 h -1.56963 m 2.35426,-0.7846 -0.78463,0.7846 m 0.78463,-3.9235 v 3.1389 m -0.78463,-3.9236 0.78463,0.7847 m -2.35426,-0.7847 h 1.56963 m -2.35426,0.7847 0.78463,-0.7847 m -0.78463,3.9236 v -3.1389 m -4.95005,1.5696 h 3.13852 m -0.78463,-2.3543 -2.35389,2.3543 m 2.35389,2.3539 v -4.7082 m 33.79616,4.7082 h 3.13889 m -1.56963,-4.7082 v 4.7082 m -1.56926,-3.1385 1.56926,-1.5697 m -6.51931,2.3543 h 3.13852 m -0.78463,-2.3543 -2.35389,2.3543 m 2.35389,2.3539 v -4.7082 m 3.38079,-7.2457 h 2.35426 m -3.13889,-0.7846 0.78463,0.7846 m -0.78463,-1.5696 v 0.785 m 0.78463,-1.5697 -0.78463,0.7847 m 2.35426,-0.7847 h -1.56963 m 2.35426,0.7847 -0.78463,-0.7847 m 0.78463,3.9236 v -3.1389 m -0.78463,3.9235 0.78463,-0.7846 m -2.35426,0.7846 h 1.56963 m -2.35426,-0.7846 0.78463,0.7846 m -4.95005,0 -0.78463,-0.7846 m 2.35389,0.7846 h -1.56926 m 2.35389,-0.7846 -0.78463,0.7846 m 0.78463,-1.5693 v 0.7847 m -0.78463,-1.5693 0.78463,0.7846 m -0.78463,-0.7846 h -0.78463 m 1.56926,-0.7846 -0.78463,0.7846 m 0.78463,-1.5696 v 0.785 m -0.78463,-1.5697 0.78463,0.7847 m -2.35389,-0.7847 h 1.56926 m -2.35389,0.7847 0.78463,-0.7847 m -26.24995,2.3543 h 1.56963 m -2.35426,-0.7846 v -0.785 m 0.78463,1.5696 -0.78463,-0.7846 m 0,1.5692 0.78463,-0.7846 m -0.78463,1.5693 v -0.7847 m 0.78463,1.5693 -0.78463,-0.7846 m 2.35426,0.7846 h -1.56963 m 2.35426,-0.7846 -0.78463,0.7846 m 0.78463,-1.5693 v 0.7847 m -0.78463,-1.5693 0.78463,0.7846 m 0,-1.5692 -0.78463,0.7846 m 0.78463,-1.5696 v 0.785 m -0.78463,-1.5697 0.78463,0.7847 m -2.35426,-0.7847 h 1.56963 m -2.35426,0.7847 0.78463,-0.7847 m -4.95005,4.7082 -0.78463,-0.7846 m 2.35389,0.7846 h -1.56926 m 2.35389,-0.7846 -0.78463,0.7846 m 0.78463,-1.5693 v 0.7847 m -0.78463,-1.5693 0.78463,0.7846 m -0.78463,-0.7846 h -0.78463 m 1.56926,-0.7846 -0.78463,0.7846 m 0.78463,-1.5696 v 0.785 m -0.78463,-1.5697 0.78463,0.7847 m -2.35389,-0.7847 h 1.56926 m -2.35389,0.7847 0.78463,-0.7847 m 35.36542,-5.6764 v 0.7846 m 3.13889,-3.9235 -3.13889,3.1389 m 3.13889,-3.9236 v 0.7847 m -3.13889,-0.7847 h 3.13889 m -7.30431,4.7082 -0.78463,-0.7846 m 2.35389,0.7846 h -1.56926 m 2.35389,-0.7846 -0.78463,0.7846 m 0.78463,-1.5693 v 0.7847 m -0.78463,-1.5693 0.78463,0.7846 m -0.78463,-0.7846 h -0.78463 m 1.56926,-0.7846 -0.78463,0.7846 m 0.78463,-1.5696 v 0.785 m -0.78463,-1.5697 0.78463,0.7847 m -2.35389,-0.7847 h 1.56926 m -2.35389,0.7847 0.78463,-0.7847 m -24.68032,2.3543 h -2.35426 m 3.13889,0.7846 -0.78463,-0.7846 m 0.78463,1.5693 v -0.7847 m -0.78463,1.5693 0.78463,-0.7846 m -2.35426,0.7846 h 1.56963 m -2.35426,-0.7846 0.78463,0.7846 m -0.78463,-2.3539 v 1.5693 m 1.56926,-3.1389 -1.56926,1.5696 m 3.13889,-2.3543 -1.56963,0.7847 m -5.73468,3.9235 -0.78463,-0.7846 m 2.35389,0.7846 h -1.56926 m 2.35389,-0.7846 -0.78463,0.7846 m 0.78463,-1.5693 v 0.7847 m -0.78463,-1.5693 0.78463,0.7846 m -0.78463,-0.7846 h -0.78463 m 1.56926,-0.7846 -0.78463,0.7846 m 0.78463,-1.5696 v 0.785 m -0.78463,-1.5697 0.78463,0.7847 m -2.35389,-0.7847 h 1.56926 m -2.35389,0.7847 0.78463,-0.7847 m 36.15005,-4.89182 -0.78463,-0.78463 m 2.35426,0.78463 h -1.56963 m 2.35426,-0.78463 -0.78463,0.78463 m 0.78463,-2.35388 v 1.56925 m -0.78463,-2.35388 0.78463,0.78463 m -1.56963,-0.78463 h 0.785 m -2.35426,0.78463 1.56926,-0.78463 m -1.56926,-1.56964 v 2.35427 m 3.13889,-2.35427 h -3.13889 m -4.16542,4.70815 -0.78463,-0.78463 m 2.35389,0.78463 h -1.56926 m 2.35389,-0.78463 -0.78463,0.78463 m 0.78463,-1.56926 v 0.78463 m -0.78463,-1.56925 0.78463,0.78462 m -0.78463,-0.78462 h -0.78463 m 1.56926,-0.78463 -0.78463,0.78463 m 0.78463,-1.56964 v 0.78501 m -0.78463,-1.56964 0.78463,0.78463 m -2.35389,-0.78463 h 1.56926 m -2.35389,0.78463 0.78463,-0.78463 m -27.03458,2.35427 h 3.13889 m -0.78463,-2.35427 -2.35426,2.35427 m 2.35426,2.35388 v -4.70815 m -6.51968,4.70815 -0.78463,-0.78463 m 2.35389,0.78463 h -1.56926 m 2.35389,-0.78463 -0.78463,0.78463 m 0.78463,-1.56926 v 0.78463 m -0.78463,-1.56925 0.78463,0.78462 m -0.78463,-0.78462 h -0.78463 m 1.56926,-0.78463 -0.78463,0.78463 m 0.78463,-1.56964 v 0.78501 m -0.78463,-1.56964 0.78463,0.78463 m -2.35389,-0.78463 h 1.56926 m -2.35389,0.78463 0.78463,-0.78463 m 36.15005,-4.89185 -0.78463,-0.78463 m 2.35426,0.78463 h -1.56963 m 2.35426,-0.78463 -0.78463,0.78463 m 0.78463,-1.56926 v 0.78463 m -0.78463,-1.56926 0.78463,0.78463 m -0.78463,-0.78463 h -0.785 m 1.56963,-0.78463 -0.78463,0.78463 m 0.78463,-1.56963 v 0.785 m -0.78463,-1.56963 0.78463,0.78463 m -2.35426,-0.78463 h 1.56963 m -2.35426,0.78463 0.78463,-0.78463 m -4.95005,4.70815 -0.78463,-0.78463 m 2.35389,0.78463 h -1.56926 m 2.35389,-0.78463 -0.78463,0.78463 m 0.78463,-1.56926 v 0.78463 m -0.78463,-1.56926 0.78463,0.78463 m -0.78463,-0.78463 h -0.78463 m 1.56926,-0.78463 -0.78463,0.78463 m 0.78463,-1.56963 v 0.785 m -0.78463,-1.56963 0.78463,0.78463 m -2.35389,-0.78463 h 1.56926 m -2.35389,0.78463 0.78463,-0.78463 m -26.24995,0 -0.78463,0.78463 m 2.35426,-0.78463 h -1.56963 m 2.35426,0.78463 -0.78463,-0.78463 m 0.78463,1.56963 v -0.785 m -3.13889,3.92352 3.13889,-3.13852 m 0,3.13852 h -3.13889 m -4.16542,0 -0.78463,-0.78463 m 2.35389,0.78463 h -1.56926 m 2.35389,-0.78463 -0.78463,0.78463 m 0.78463,-1.56926 v 0.78463 m -0.78463,-1.56926 0.78463,0.78463 m -0.78463,-0.78463 h -0.78463 m 1.56926,-0.78463 -0.78463,0.78463 m 0.78463,-1.56963 v 0.785 m -0.78463,-1.56963 0.78463,0.78463 m -2.35389,-0.78463 h 1.56926 m -2.35389,0.78463 0.78463,-0.78463 m 35.36542,-4.89185 h 3.13889 m -1.56963,-4.70815 v 4.70815 m -1.56926,-3.13852 1.56926,-1.56963 m -5.73468,4.70815 -0.78463,-0.78463 m 2.35389,0.78463 h -1.56926 m 2.35389,-0.78463 -0.78463,0.78463 m 0.78463,-1.56926 v 0.78463 m -0.78463,-1.56926 0.78463,0.78463 m -0.78463,-0.78463 h -0.78463 m 1.56926,-0.78463 -0.78463,0.78463 m 0.78463,-1.56963 v 0.785 m -0.78463,-1.56963 0.78463,0.78463 m -2.35389,-0.78463 h 1.56926 m -2.35389,0.78463 0.78463,-0.78463 m -27.03458,3.92352 3.13889,-3.13889 m -2.35426,3.92352 -0.78463,-0.78463 m 2.35426,0.78463 h -1.56963 m 2.35426,-0.78463 -0.78463,0.78463 m 0.78463,-3.92352 v 3.13889 m -0.78463,-3.92352 0.78463,0.78463 m -2.35426,-0.78463 h 1.56963 m -2.35426,0.78463 0.78463,-0.78463 m -0.78463,3.92352 v -3.13889 m -4.16542,3.92352 -0.78463,-0.78463 m 2.35389,0.78463 h -1.56926 m 2.35389,-0.78463 -0.78463,0.78463 m 0.78463,-1.56926 v 0.78463 m -0.78463,-1.56926 0.78463,0.78463 m -0.78463,-0.78463 h -0.78463 m 1.56926,-0.78463 -0.78463,0.78463 m 0.78463,-1.56963 v 0.785 m -0.78463,-1.56963 0.78463,0.78463 m -2.35389,-0.78463 h 1.56926 m -2.35389,0.78463 0.78463,-0.78463 m 4.95005,-7.24574 h 1.56963 m -2.35426,-0.78463 v -0.785 m 0.78463,1.56963 -0.78463,-0.78463 m 0,1.56927 0.78463,-0.78464 m -0.78463,1.56927 v -0.78463 m 0.78463,1.56926 -0.78463,-0.78463 m 2.35426,0.78463 h -1.56963 m 2.35426,-0.78463 -0.78463,0.78463 m 0.78463,-1.56926 v 0.78463 m -0.78463,-1.56927 0.78463,0.78464 m 0,-1.56927 -0.78463,0.78463 m 0.78463,-1.56963 v 0.785 m -0.78463,-1.56963 0.78463,0.78463 m -2.35426,-0.78463 h 1.56963 m -2.35426,0.78463 0.78463,-0.78463 m -4.95005,0 -0.78463,0.78463 m 2.35389,-0.78463 h -1.56926 m 2.35389,0.78463 -0.78463,-0.78463 m 0.78463,1.56963 v -0.785 m -3.13852,3.92353 3.13852,-3.13853 m 0,3.13853 H 341.136 m 7.30431,-11.95389 h -2.35426 m 3.13889,0.78463 -0.78463,-0.78463 m 0.78463,1.56926 v -0.78463 m -0.78463,1.56926 0.78463,-0.78463 m -2.35426,0.78463 h 1.56963 m -2.35426,-0.78463 0.78463,0.78463 m -0.78463,-2.35389 v 1.56926 m 1.56926,-3.1389 -1.56926,1.56964 m 3.13889,-2.35427 -1.56963,0.78463 m -5.73468,-0.78463 -0.78463,0.78463 m 2.35389,-0.78463 h -1.56926 m 2.35389,0.78463 -0.78463,-0.78463 m 0.78463,1.56964 v -0.78501 m -3.13852,3.92353 3.13852,-3.13852 m 0,3.13852 H 341.136 m 4.95005,-11.95389 h 3.13889 m -0.78463,-2.35427 -2.35426,2.35427 m 2.35426,2.35388 v -4.70815 m -6.51968,0 -0.78463,0.78463 m 2.35389,-0.78463 h -1.56926 m 2.35389,0.78463 -0.78463,-0.78463 m 0.78463,1.56964 v -0.78501 m -3.13852,3.92352 3.13852,-3.13851 m 0,3.13851 H 341.136 m 5.73468,-14.30815 -0.78463,0.78463 m 2.35426,-0.78463 h -1.56963 m 2.35426,0.78463 -0.78463,-0.78463 m 0.78463,1.56963 v -0.785 m -3.13889,3.92352 3.13889,-3.13852 m 0,3.13852 h -3.13889 m -4.16542,-4.70815 -0.78463,0.78463 m 2.35389,-0.78463 h -1.56926 m 2.35389,0.78463 -0.78463,-0.78463 m 0.78463,1.56963 v -0.785 m -3.13852,3.92352 3.13852,-3.13852 m 0,3.13852 H 341.136 m -12.672,-1.59004 v -3.1389 m -4.70816,1.56964 h 4.70816 m -3.13852,1.56926 -1.56964,-1.56926 m 0,5.73467 0.78463,0.78463 m -0.78463,-2.35389 v 1.56926 m 0.78463,-2.35389 -0.78463,0.78463 m 1.56964,-0.78463 h -0.78501 m 3.92353,3.13852 -3.13852,-3.13852 m 3.13852,0 v 3.13852 m -10.38463,-4.95004 -3.1389,-3.1389 m 3.92353,2.35427 -0.78463,0.78463 m 0.78463,-2.35427 v 1.56964 m -0.78463,-2.35427 0.78463,0.78463 m -3.92353,-0.78463 h 3.1389 m -3.92353,0.78463 0.78463,-0.78463 m -0.78463,2.35427 v -1.56964 m 0.78463,2.35427 -0.78463,-0.78463 m 3.92353,0.78463 h -3.1389 m -0.78463,4.16541 0.78463,0.78463 m -0.78463,-2.35389 v 1.56926 m 0.78463,-2.35389 -0.78463,0.78463 m 1.56964,-0.78463 h -0.78501 m 3.92353,3.13852 -3.13852,-3.13852 m 3.13852,0 v 3.13852 m -11.95389,-5.73467 v -2.35427 m -0.78463,3.1389 0.78463,-0.78463 m -1.56964,0.78463 h 0.78501 m -1.56964,-0.78463 0.78463,0.78463 m -0.78463,-2.35427 v 1.56964 m 0.78463,-2.35427 -0.78463,0.78463 m 3.92353,-0.78463 h -3.1389 m 3.92353,0.78463 -0.78463,-0.78463 m 0.78463,2.35427 v -1.56964 m -0.78463,2.35427 0.78463,-0.78463 m 0,5.73467 v -3.13852 m -4.70816,1.56926 h 4.70816 m -3.13852,1.56926 -1.56964,-1.56926 m -7.24573,-4.16541 v -1.56964 m -0.78463,2.35427 h -0.78501 m 1.56964,-0.78463 -0.78463,0.78463 m 1.56926,0 -0.78463,-0.78463 m 1.56926,0.78463 h -0.78463 m 1.56926,-0.78463 -0.78463,0.78463 m 0.78463,-2.35427 v 1.56964 m -0.78463,-2.35427 0.78463,0.78463 m -1.56926,-0.78463 h 0.78463 m -1.56926,0.78463 0.78463,-0.78463 m -1.56926,0 0.78463,0.78463 m -1.56964,-0.78463 h 0.78501 m -1.56964,0.78463 0.78463,-0.78463 m -0.78463,2.35427 v -1.56964 m 0.78463,2.35427 -0.78463,-0.78463 m 4.70816,5.73467 v -3.13852 m -4.70816,1.56926 h 4.70816 m -3.13852,1.56926 -1.56964,-1.56926 m -5.67647,-3.38078 h 0.78463 m -3.92353,-3.1389 3.1389,3.1389 m -3.92353,-3.1389 h 0.78463 m -0.78463,3.1389 v -3.1389 m 4.70816,8.08894 v -3.13852 m -4.70816,1.56926 h 4.70816 m -3.13852,1.56926 -1.56964,-1.56926 m -7.24573,-5.73505 v 2.35427 m 0.78463,-3.1389 -0.78463,0.78463 m 1.56926,-0.78463 h -0.78463 m 1.56926,0.78463 -0.78463,-0.78463 m 0.78463,2.35427 v -1.56964 m -0.78463,2.35427 0.78463,-0.78463 m -2.35389,0.78463 h 1.56926 m -3.1389,-1.56926 1.56964,1.56926 m -2.35427,-3.1389 0.78463,1.56964 m 3.92353,6.5193 v -3.13852 m -4.70816,1.56926 h 4.70816 m -3.13852,1.56926 -1.56964,-1.56926 m -4.89184,-4.16541 -0.78463,0.78463 m 0.78463,-2.35427 v 1.56964 m -0.78463,-2.35427 0.78463,0.78463 m -2.35389,-0.78463 h 1.56926 m -2.35389,0.78463 0.78463,-0.78463 m -0.78463,1.56964 v -0.78501 m 0.78463,2.35427 -0.78463,-1.56926 m -1.56964,1.56926 h 2.35427 m -2.35427,-3.1389 v 3.1389 m 4.70816,4.95004 v -3.13852 m -4.70816,1.56926 h 4.70816 m -3.13852,1.56926 -1.56964,-1.56926 m -7.24573,-3.38078 v -3.1389 m -2.35427,0.78463 2.35427,2.35427 m 2.35389,-2.35427 h -4.70816 m 4.70816,7.30431 v -3.13852 m -4.70816,1.56926 h 4.70816 m -3.13852,1.56926 -1.56964,-1.56926 m 86.68914,146.46428 3.36302,2.2416 m -3.36302,0 3.36302,-2.2416 m -3.36302,5.7774 v -2.2417 m 3.36302,1.121 h -3.36302 m 3.36302,2.4148 h -3.36302 m 0,2.242 3.36302,-2.242 m 0,2.242 h -3.36302 m 1.68151,3.5357 v -2.242 m -0.56051,0 h 2.24202 m -3.36302,1.121 1.121,-1.121 m 0,2.242 -1.121,-1.121 m 3.36302,1.121 h -2.24202 m 2.24202,1.8543 -0.5605,-0.5605 m 0.5605,1.6815 v -1.121 m -0.5605,1.6815 0.5605,-0.5605 m -2.80252,0.5605 h 2.24202 m -2.80252,-0.5605 0.5605,0.5605 m -0.5605,-1.6815 v 1.121 m 0.5605,-1.6815 -0.5605,0.5605 m -9.12,-14.7035 3.36302,2.2416 m -3.36302,0 3.36302,-2.2416 m -1.12101,4.6567 1.12101,-1.121 m -1.12101,0.5605 v 1.6812 m -0.5605,-2.2417 0.5605,0.5605 m -1.68151,-0.5605 h 1.12101 m -1.68151,0.5605 0.5605,-0.5605 m -0.5605,2.2417 v -1.6812 m 3.36302,1.6812 h -3.36302 m 3.36302,1.2941 h -3.36302 m 0,2.242 3.36302,-2.242 m 0,2.242 h -3.36302 m 1.68151,3.5357 v -2.242 m -0.56051,0 h 2.24202 m -3.36302,1.121 1.121,-1.121 m 0,2.242 -1.121,-1.121 m 3.36302,1.121 h -2.24202 m 2.24202,1.8543 -0.5605,-0.5605 m 0.5605,1.6815 v -1.121 m -0.5605,1.6815 0.5605,-0.5605 m -2.80252,0.5605 h 2.24202 m -2.80252,-0.5605 0.5605,0.5605 m -0.5605,-1.6815 v 1.121 m 0.5605,-1.6815 -0.5605,0.5605 m -6.23698,-8.9261 v -2.2417 m -3.36302,1.121 h 3.36302 m -2.24202,1.1207 -1.121,-1.1207 m 3.36302,2.9753 -0.5605,-0.5605 m 0.5605,1.6815 v -1.121 m -0.5605,1.6815 0.5605,-0.5605 m -2.80252,0.5605 h 2.24202 m -2.80252,-0.5605 0.5605,0.5605 m -0.5605,-1.6815 v 1.121 m 0.5605,-1.6815 -0.5605,0.5605 m 1.68151,5.2172 v -2.242 m -0.56051,0 h 2.24202 m -3.36302,1.121 1.121,-1.121 m 0,2.242 -1.121,-1.121 m 3.36302,1.121 h -2.24202 m -1.121,1.8543 v 1.6815 m 0.5605,-2.242 -0.5605,0.5605 m 2.80252,-0.5605 h -2.24202 m 2.80252,0.5605 -0.5605,-0.5605 m 0.5605,2.242 v -1.6815 m -3.36302,1.6815 h 3.36302 m -10.1605,-10.6076 -2.24202,-2.2417 m 2.80252,1.6815 -0.5605,0.5602 m 0.5605,-1.6812 v 1.121 m -0.5605,-1.6815 0.5605,0.5605 m -2.80252,-0.5605 h 2.24202 m -2.80252,0.5605 0.5605,-0.5605 m -0.5605,1.6815 v -1.121 m 0.5605,1.6812 -0.5605,-0.5602 m 2.80252,0.5602 h -2.24202 m 2.80252,1.8546 -0.5605,-0.5605 m 0.5605,1.6815 v -1.121 m -0.5605,1.6815 0.5605,-0.5605 m -2.80252,0.5605 h 2.24202 m -2.80252,-0.5605 0.5605,0.5605 m -0.5605,-1.6815 v 1.121 m 0.5605,-1.6815 -0.5605,0.5605 m 1.68151,5.2172 v -2.242 m -0.56051,0 h 2.24202 m -3.36302,1.121 1.121,-1.121 m 0,2.242 -1.121,-1.121 m 3.36302,1.121 h -2.24202 m -1.121,1.8543 v 1.6815 m 0.5605,-2.242 -0.5605,0.5605 m 2.80252,-0.5605 h -2.24202 m 2.80252,0.5605 -0.5605,-0.5605 m 0.5605,2.242 v -1.6815 m -3.36302,1.6815 h 3.36302 m -9.312,-7.3501 v -3.1389 m -4.70816,1.5697 h 4.70816 m -3.13852,1.5692 -1.56964,-1.5692 m 4.70816,6.5193 v -3.1385 m -4.70816,1.5692 h 4.70816 m -3.13852,1.5693 -1.56964,-1.5693 m -4.87634,-3.3328 -3.20278,-3.2027 m 4.00328,2.4019 -0.8005,0.8008 m 0.8005,-2.4022 v 1.6014 m -0.8005,-2.4019 0.8005,0.8005 m -4.00328,-0.8005 h 3.20278 m -4.00366,0.8005 0.80088,-0.8005 m -0.80088,2.4019 v -1.6014 m 0.80088,2.4022 -0.80088,-0.8008 m 4.00366,0.8008 h -3.20278 m 4.00328,4.9501 v -3.2028 m -4.80416,1.6014 h 4.80416 m -3.20277,1.6014 -1.60139,-1.6014 m -7.19773,0.7688 v -2.3539 m -0.78463,3.1385 0.78463,-0.7846 m -1.56964,0.7846 h 0.78501 m -1.56964,-0.7846 0.78463,0.7846 m -0.78463,-2.3539 v 1.5693 m 0.78463,-2.3539 -0.78463,0.7846 m 3.92353,-0.7846 h -3.1389 m 3.92353,0.7846 -0.78463,-0.7846 m 0.78463,2.3539 v -1.5693 m -0.78463,2.3539 0.78463,-0.7846 m -11.95389,0 v -1.5693 m -0.78463,2.3539 h -0.78501 m 1.56964,-0.7846 -0.78463,0.7846 m 1.56926,0 -0.78463,-0.7846 m 1.56926,0.7846 h -0.78463 m 1.56926,-0.7846 -0.78463,0.7846 m 0.78463,-2.3539 v 1.5693 m -0.78463,-2.3539 0.78463,0.7846 m -1.56926,-0.7846 h 0.78463 m -1.56926,0.7846 0.78463,-0.7846 m -1.56926,0 0.78463,0.7846 m -1.56964,-0.7846 h 0.78501 m -1.56964,0.7846 0.78463,-0.7846 m -0.78463,2.3539 v -1.5693 m 0.78463,2.3539 -0.78463,-0.7846 m -15.27647,0.7846 h 0.78463 m -3.92353,-3.1385 3.1389,3.1385 m -3.92353,-3.1385 h 0.78463 m -0.78463,3.1385 v -3.1385 m -7.72573,0.7846 v 2.3539 m 0.78463,-3.1385 -0.78463,0.7846 m 1.56926,-0.7846 h -0.78463 m 1.56926,0.7846 -0.78463,-0.7846 m 0.78463,2.3539 v -1.5693 m -0.78463,2.3539 0.78463,-0.7846 m -2.35389,0.7846 h 1.56926 m -3.1389,-1.5693 1.56964,1.5693 m -2.35427,-3.1385 0.78463,1.5692 m -5.67647,0.7847 -0.78463,0.7846 m 0.78463,-2.3539 v 1.5693 m -0.78463,-2.3539 0.78463,0.7846 m -2.35389,-0.7846 h 1.56926 m -2.35389,0.7846 0.78463,-0.7846 m -0.78463,1.5692 v -0.7846 m 0.78463,2.3539 -0.78463,-1.5693 m -1.56964,1.5693 h 2.35427 m -2.35427,-3.1385 v 3.1385 m -6.76573,0 v -3.1385 m -2.35427,0.7846 2.35427,2.3539 m 2.35389,-2.3539 h -4.70816 m -4.89184,1.5693 -0.78463,0.7846 m 0.78463,-2.3539 v 1.5693 m -0.78463,-2.3539 0.78463,0.7846 m -1.56926,-0.7846 h 0.78463 m -1.56926,0.7846 0.78463,-0.7846 m -0.78463,0.7846 v 0.7846 m -0.78463,-1.5692 0.78463,0.7846 m -1.56964,-0.7846 h 0.78501 m -1.56964,0.7846 0.78463,-0.7846 m -0.78463,2.3539 v -1.5693 m 0.78463,2.3539 -0.78463,-0.7846 m -9.6,0 0.78463,0.7846 m -0.78463,-2.3539 v 1.5693 m 0.78463,-2.3539 -0.78463,0.7846 m 1.56964,-0.7846 h -0.78501 m 3.92353,3.1385 -3.13852,-3.1385 m 3.13852,0 v 3.1385 m -10.56,0 v -3.1385 m -4.70816,1.5692 h 4.70816 m -3.13852,1.5693 -1.56964,-1.5693 m -4.71647,1.5693 -3.1389,-3.1385 m 3.92353,2.3539 -0.78463,0.7846 m 0.78463,-2.3539 v 1.5693 m -0.78463,-2.3539 0.78463,0.7846 m -3.92353,-0.7846 h 3.1389 m -3.92353,0.7846 0.78463,-0.7846 m -0.78463,2.3539 v -1.5693 m 0.78463,2.3539 -0.78463,-0.7846 m 3.92353,0.7846 h -3.1389 M 112.464,941.24901 l -0.78463,0.78463 m 0.78463,-2.35427 v 1.56964 m -0.78463,-2.35427 0.78463,0.78463 m -1.56926,-0.78463 h 0.78463 m -1.56926,0.78463 0.78463,-0.78463 m -0.78463,0.78463 v 0.78501 m -0.78463,-1.56964 0.78463,0.78463 m -1.56964,-0.78463 h 0.78501 m -1.56964,0.78463 0.78463,-0.78463 m -0.78463,2.35427 v -1.56964 m 0.78463,2.35427 -0.78463,-0.78463 m 4.70816,5.73468 v -3.13853 m -4.70816,1.56927 h 4.70816 m -3.13852,1.56926 -1.56964,-1.56926 m 9.6,-4.16542 0.78463,0.78463 m -0.78463,-2.35427 v 1.56964 m 0.78463,-2.35427 -0.78463,0.78463 m 1.56964,-0.78463 h -0.78501 m 3.92353,3.1389 -3.13852,-3.1389 m 3.13852,0 v 3.1389 m 0,4.95005 v -3.13853 m -4.70816,1.56927 h 4.70816 m -3.13852,1.56926 -1.56964,-1.56926 m 14.30816,-3.38079 v -3.1389 m -4.70816,1.56964 h 4.70816 m -3.13852,1.56926 -1.56964,-1.56926 m 4.70816,6.51931 v -3.13853 m -4.70816,1.56927 h 4.70816 m -3.13852,1.56926 -1.56964,-1.56926 m 13.52353,-3.38079 -3.1389,-3.1389 m 3.92353,2.35427 -0.78463,0.78463 m 0.78463,-2.35427 v 1.56964 m -0.78463,-2.35427 0.78463,0.78463 m -3.92353,-0.78463 h 3.1389 m -3.92353,0.78463 0.78463,-0.78463 m -0.78463,2.35427 v -1.56964 m 0.78463,2.35427 -0.78463,-0.78463 m 3.92353,0.78463 h -3.1389 m 3.92353,4.95005 v -3.13853 m -4.70816,1.56927 h 4.70816 m -3.13852,1.56926 -1.56964,-1.56926 m 11.95427,-4.01538 v -2.35389 m -0.78463,3.13852 0.78463,-0.78463 m -1.56964,0.78463 h 0.78501 m -1.56964,-0.78463 0.78463,0.78463 m -0.78463,-2.35389 v 1.56926 m 0.78463,-2.35389 -0.78463,0.78463 m 3.92353,-0.78463 h -3.1389 m 3.92353,0.78463 -0.78463,-0.78463 m 0.78463,2.35389 v -1.56926 m -0.78463,2.35389 0.78463,-0.78463 m 7.24611,0 v -1.56926 m -0.78463,2.35389 h -0.78501 m 1.56964,-0.78463 -0.78463,0.78463 m 1.56926,0 -0.78463,-0.78463 m 1.56926,0.78463 h -0.78463 m 1.56926,-0.78463 -0.78463,0.78463 m 0.78463,-2.35389 v 1.56926 m -0.78463,-2.35389 0.78463,0.78463 m -1.56926,-0.78463 h 0.78463 m -1.56926,0.78463 0.78463,-0.78463 m -1.56926,0 0.78463,0.78463 m -1.56964,-0.78463 h 0.78501 m -1.56964,0.78463 0.78463,-0.78463 m -0.78463,2.35389 v -1.56926 m 0.78463,2.35389 -0.78463,-0.78463 m 18.32353,0.78463 h 0.78463 m -3.92353,-3.13852 3.1389,3.13852 m -3.92353,-3.13852 h 0.78463 m -0.78463,3.13852 v -3.13852 m 11.95427,0.78463 v 2.35389 m 0.78463,-3.13852 -0.78463,0.78463 m 1.56926,-0.78463 h -0.78463 m 1.56926,0.78463 -0.78463,-0.78463 m 0.78463,2.35389 v -1.56926 m -0.78463,2.35389 0.78463,-0.78463 m -2.35389,0.78463 h 1.56926 m -3.1389,-1.56926 1.56964,1.56926 m -2.35427,-3.13852 0.78463,1.56926 m 13.52353,0.78463 -0.78463,0.78463 m 0.78463,-2.35389 v 1.56926 m -0.78463,-2.35389 0.78463,0.78463 m -2.35389,-0.78463 h 1.56926 m -2.35389,0.78463 0.78463,-0.78463 m -0.78463,1.56926 v -0.78463 m 0.78463,2.35389 -0.78463,-1.56926 m -1.56964,1.56926 h 2.35427 m -2.35427,-3.13852 v 3.13852 m 11.95427,0 v -3.13852 m -2.35427,0.78463 2.35427,2.35389 m 2.35389,-2.35389 h -4.70816 m 14.30816,1.56926 -0.78463,0.78463 m 0.78463,-2.35389 v 1.56926 m -0.78463,-2.35389 0.78463,0.78463 m -1.56926,-0.78463 h 0.78463 m -1.56926,0.78463 0.78463,-0.78463 m -0.78463,0.78463 v 0.78463 m -0.78463,-1.56926 0.78463,0.78463 m -1.56964,-0.78463 h 0.78501 m -1.56964,0.78463 0.78463,-0.78463 m -0.78463,2.35389 v -1.56926 m 0.78463,2.35389 -0.78463,-0.78463 m 9.6,0 0.78463,0.78463 m -0.78463,-2.35389 v 1.56926 m 0.78463,-2.35389 -0.78463,0.78463 m 1.56964,-0.78463 h -0.78501 m 3.92353,3.13852 -3.13852,-3.13852 m 3.13852,0 v 3.13852 m 9.6,0 v -3.13852 m -4.70816,1.56926 h 4.70816 m -3.13852,1.56926 -1.56964,-1.56926 m 13.52353,1.56926 -3.1389,-3.13852 m 3.92353,2.35389 -0.78463,0.78463 m 0.78463,-2.35389 v 1.56926 m -0.78463,-2.35389 0.78463,0.78463 m -3.92353,-0.78463 h 3.1389 m -3.92353,0.78463 0.78463,-0.78463 m -0.78463,2.35389 v -1.56926 m 0.78463,2.35389 -0.78463,-0.78463 m 3.92353,0.78463 h -3.1389 m 97.37953,1.77601 3.84,-3.84001 m -3.84,55.68 v -51.83999 m 0,135.84001 3.84,3.84 m -3.84,-48 v 44.16 m -143.04,14.688 -2.688,2.688 m 14.208,-2.688 h -11.52 m 116.736,0 2.208,2.208 m -41.856,-2.208 h 39.648 m 12.864,-127.00801 4.32,-4.32001 m -11.04,4.32001 h 6.72 m -86.88,0 h 4.8 m -9.12,-4.32001 4.32,4.32001 m -120.96,-15.36001 -3.36,-3.36 m 42.72,3.36 h -39.36 m 102.72,0 3.84,-3.84 m -46.08,3.84 h 42.24 M 364.8,923.31969 v 2.4 m -9.6,-2.4 h 9.6 m -9.6,2.4 v -2.4 m 9.6,179.52001 v -1.92 m -9.6,1.92 h 9.6 m -9.6,-1.92 v 1.92 M 3.862677,969.54331 a 1.606299,1.606299 0 1 0 -3.212598,0 1.606299,1.606299 0 1 0 3.212598,0 z m 0,17.95275 a 1.606299,1.606299 0 1 0 -3.212598,0 1.606299,1.606299 0 1 0 3.212598,0 z m 1.511811,0 a 1.606299,1.606299 0 1 0 -3.212598,0 1.606299,1.606299 0 1 0 3.212598,0 z m 0,-17.95275 a 1.606299,1.606299 0 1 0 -3.212598,0 1.606299,1.606299 0 1 0 3.212598,0 z m -3.779527,17.95275 a 1.6062995,1.6062995 0 1 0 -3.212599,0 1.6062995,1.6062995 0 1 0 3.212599,0 z m 0,-17.95275 a 1.6062995,1.6062995 0 1 0 -3.212599,0 1.6062995,1.6062995 0 1 0 3.212599,0 z m 5.291338,17.95275 a 1.606299,1.606299 0 1 0 -3.212598,0 1.606299,1.606299 0 1 0 3.212598,0 z m 0,-17.95275 a 1.606299,1.606299 0 1 0 -3.212598,0 1.606299,1.606299 0 1 0 3.212598,0 z M 255.64724,1093.7197 a 6.047244,6.047244 0 1 0 -12.09448,0 6.047244,6.047244 0 1 0 12.09448,0 z m 0,-105.60002 a 6.047244,6.047244 0 1 0 -12.09448,0 6.047244,6.047244 0 1 0 12.09448,0 z M 58.847244,1112.9197 a 6.047244,6.047244 0 1 0 -12.094488,0 6.047244,6.047244 0 1 0 12.094488,0 z M 346.84724,930.51968 a 6.047244,6.047244 0 1 0 -12.09448,0 6.047244,6.047244 0 1 0 12.09448,0 z m -283.199996,0 a 6.047244,6.047244 0 1 0 -12.094488,0 6.047244,6.047244 0 1 0 12.094488,0 z M 370.84724,1112.9197 a 6.047244,6.047244 0 1 0 -12.09448,0 6.047244,6.047244 0 1 0 12.09448,0 z M 374.4,926.67968 v 43.2 M 3.779528,920.91968 H 368.64 m -364.860472,0 A 3.779528,3.779528 0 0 0 0,924.69921 M 0,1118.7402 V 924.69921 m 0,194.04099 a 3.779528,3.779528 0 0 0 3.779528,3.7795 m 366.840942,0 H 3.779528 m 366.840942,0 a 3.779528,3.779528 0 0 0 3.77953,-3.7795 m 0,-5.8205 v 5.8205 m 9.6,-15.4205 -9.6,9.6 M 384,979.47969 v 123.84001 m -9.6,-133.44002 9.6,9.60001 m -15.36,-58.56001 5.76,5.76"
           inkscape:connector-curvature="0" />
      </g>
      <text
         style="font-style:normal;font-weight:normal;font-size:10.5833px;line-height:1.25;font-family:sans-serif;letter-spacing:0px;word-spacing:0px;white-space:pre;shape-inside:url(#rect900);fill:#000000;fill-opacity:1;stroke:none;"
         id="text898"
         xml:space="preserve" />
      <g
         style="font-size:3.52778px;line-height:1.25;font-family:sans-serif;letter-spacing:0px;word-spacing:0px;white-space:pre;shape-inside:url(#rect906);fill:#ff0000;fill-opacity:1"
         id="text904"
         transform="translate(24.07836,3.2193099)"
         aria-label="Arduino Due  (DUE_V02g)">
        <path
           id="path916"
           d="m -79.498452,178.88061 h -0.363458 l -0.251492,-0.71486 h -1.109322 l -0.251492,0.71486 h -0.346232 l 0.933621,-2.56488 h 0.454753 z m -0.720026,-1.00769 -0.449585,-1.25918 -0.451308,1.25918 z"
           inkscape:connector-curvature="0" />
        <path
           id="path918"
           d="m -77.934378,177.30965 h -0.01723 q -0.07235,-0.0172 -0.141249,-0.0241 -0.06718,-0.009 -0.160197,-0.009 -0.149862,0 -0.289389,0.0672 -0.139526,0.0654 -0.268717,0.17053 v 1.36598 h -0.323839 v -1.92409 h 0.323839 v 0.28422 q 0.192925,-0.15503 0.339342,-0.21876 0.148139,-0.0655 0.301446,-0.0655 0.08441,0 0.122301,0.005 0.0379,0.003 0.113688,0.0155 z"
           inkscape:connector-curvature="0" />
        <path
           id="path920"
           d="m -76.065412,178.88061 h -0.323839 v -0.20154 q -0.139527,0.12058 -0.291111,0.18776 -0.151585,0.0672 -0.329007,0.0672 -0.34451,0 -0.547771,-0.26527 -0.201538,-0.26528 -0.201538,-0.73553 0,-0.2446 0.0689,-0.43581 0.07062,-0.1912 0.18948,-0.32556 0.117134,-0.13091 0.272163,-0.19981 0.156752,-0.0689 0.323839,-0.0689 0.151585,0 0.268718,0.0327 0.117133,0.031 0.246325,0.0982 v -0.83372 h 0.323839 z m -0.323839,-0.4737 v -1.10415 q -0.130914,-0.0586 -0.234267,-0.081 -0.103353,-0.0224 -0.225654,-0.0224 -0.272163,0 -0.423747,0.18948 -0.151584,0.18948 -0.151584,0.53744 0,0.34279 0.117133,0.52193 0.117133,0.17742 0.375516,0.17742 0.137804,0 0.279053,-0.0603 0.141249,-0.062 0.26355,-0.15847 z"
           inkscape:connector-curvature="0" />
        <path
           id="path922"
           d="m -73.832989,178.88061 h -0.323839 v -0.2136 q -0.163642,0.1292 -0.313504,0.1981 -0.149862,0.0689 -0.330729,0.0689 -0.303169,0 -0.471979,-0.18431 -0.16881,-0.18604 -0.16881,-0.54433 v -1.24885 h 0.32384 v 1.09554 q 0,0.14642 0.01378,0.2515 0.01378,0.10335 0.05857,0.17742 0.04651,0.0758 0.120578,0.11024 0.07407,0.0345 0.215319,0.0345 0.125746,0 0.273885,-0.0655 0.149862,-0.0655 0.279053,-0.16709 v -1.43661 h 0.323839 z"
           inkscape:connector-curvature="0" />
        <path
           id="path924"
           d="m -72.847691,176.63441 h -0.36518 v -0.3359 h 0.36518 z m -0.02067,2.2462 H -73.1922 v -1.92409 h 0.323839 z"
           inkscape:connector-curvature="0" />
        <path
           id="path926"
           d="m -70.615268,178.88061 h -0.323839 v -1.09554 q 0,-0.13264 -0.0155,-0.24805 -0.0155,-0.11713 -0.05684,-0.18259 -0.04306,-0.0724 -0.124024,-0.1068 -0.08096,-0.0362 -0.21015,-0.0362 -0.132637,0 -0.277331,0.0655 -0.144694,0.0654 -0.27733,0.16708 v 1.43661 h -0.323839 v -1.92409 h 0.323839 v 0.2136 q 0.151584,-0.12575 0.313504,-0.19637 0.161919,-0.0706 0.332452,-0.0706 0.311781,0 0.475423,0.18776 0.163642,0.18776 0.163642,0.54088 z"
           inkscape:connector-curvature="0" />
        <path
           id="path928"
           d="m -68.351839,177.91943 q 0,0.47025 -0.241157,0.74242 -0.241157,0.27216 -0.645956,0.27216 -0.408244,0 -0.649401,-0.27216 -0.239434,-0.27217 -0.239434,-0.74242 0,-0.47026 0.239434,-0.74242 0.241157,-0.27389 0.649401,-0.27389 0.404799,0 0.645956,0.27389 0.241157,0.27216 0.241157,0.74242 z m -0.334175,0 q 0,-0.3738 -0.146416,-0.55466 -0.146417,-0.18259 -0.406522,-0.18259 -0.26355,0 -0.409966,0.18259 -0.144694,0.18086 -0.144694,0.55466 0,0.36173 0.146416,0.54949 0.146417,0.18604 0.408244,0.18604 0.258383,0 0.404799,-0.18432 0.148139,-0.18603 0.148139,-0.55121 z"
           inkscape:connector-curvature="0" />
        <path
           id="path930"
           d="m -64.415815,177.60076 q 0,0.34967 -0.153307,0.63389 -0.151584,0.28422 -0.404799,0.44098 -0.175699,0.10852 -0.392741,0.15675 -0.215318,0.0482 -0.568441,0.0482 h -0.647678 v -2.56488 h 0.640788 q 0.375516,0 0.596002,0.0551 0.222209,0.0534 0.375516,0.14814 0.261827,0.16364 0.408244,0.4358 0.146416,0.27216 0.146416,0.64596 z m -0.356567,-0.005 q 0,-0.30145 -0.105076,-0.50815 -0.105075,-0.20671 -0.313504,-0.32557 -0.151584,-0.0861 -0.322116,-0.11885 -0.170533,-0.0345 -0.408244,-0.0345 h -0.320394 v 1.97921 h 0.320394 q 0.246324,0 0.428914,-0.0362 0.184313,-0.0362 0.33762,-0.13436 0.191203,-0.1223 0.285943,-0.32211 0.09646,-0.19982 0.09646,-0.49954 z"
           inkscape:connector-curvature="0" />
        <path
           id="path932"
           d="m -62.291912,178.88061 h -0.323839 v -0.2136 q -0.163642,0.1292 -0.313504,0.1981 -0.149862,0.0689 -0.330729,0.0689 -0.303169,0 -0.471979,-0.18431 -0.16881,-0.18604 -0.16881,-0.54433 v -1.24885 h 0.32384 v 1.09554 q 0,0.14642 0.01378,0.2515 0.01378,0.10335 0.05857,0.17742 0.04651,0.0758 0.120578,0.11024 0.07407,0.0345 0.215319,0.0345 0.125746,0 0.273885,-0.0655 0.149862,-0.0655 0.279053,-0.16709 v -1.43661 h 0.323839 z"
           inkscape:connector-curvature="0" />
        <path
           id="path934"
           d="m -60.043985,177.95216 h -1.417658 q 0,0.17742 0.0534,0.31006 0.0534,0.13091 0.146417,0.21531 0.08957,0.0827 0.211873,0.12403 0.124024,0.0413 0.272163,0.0413 0.196371,0 0.394464,-0.0775 0.199815,-0.0792 0.28422,-0.15503 h 0.01723 v 0.35313 q -0.163642,0.0689 -0.334175,0.11541 -0.170532,0.0465 -0.35829,0.0465 -0.478868,0 -0.747586,-0.25839 -0.268718,-0.2601 -0.268718,-0.73725 0,-0.47198 0.25666,-0.74931 0.258382,-0.27733 0.678684,-0.27733 0.389296,0 0.599447,0.22738 0.211874,0.22738 0.211874,0.64596 z m -0.315227,-0.24805 q -0.0017,-0.25494 -0.129191,-0.39446 -0.125746,-0.13953 -0.384128,-0.13953 -0.260105,0 -0.415134,0.15331 -0.153307,0.1533 -0.173978,0.38068 z"
           inkscape:connector-curvature="0" />
        <path
           id="path936"
           style="font-size:2.11667px"
           d="m -81.05598,183.71615 h -0.236679 q -0.182934,-0.2098 -0.28422,-0.45785 -0.101286,-0.24805 -0.101286,-0.55914 0,-0.31109 0.101286,-0.55914 0.101286,-0.24805 0.28422,-0.45785 h 0.236679 v 0.0103 q -0.08372,0.0755 -0.160197,0.17467 -0.07545,0.0982 -0.140561,0.22944 -0.06201,0.12713 -0.101285,0.28009 -0.03824,0.15296 -0.03824,0.32246 0,0.17673 0.03721,0.32349 0.03824,0.14677 0.102319,0.27906 0.06201,0.12712 0.141594,0.22944 0.07958,0.10335 0.159164,0.17467 z"
           inkscape:connector-curvature="0" />
        <path
           id="path938"
           style="font-size:2.11667px"
           d="m -79.395097,182.52243 q 0,0.2098 -0.09198,0.38034 -0.09095,0.17053 -0.24288,0.26458 -0.10542,0.0651 -0.235645,0.0941 -0.129191,0.0289 -0.341065,0.0289 h -0.388607 v -1.53893 h 0.384473 q 0.22531,0 0.357602,0.0331 0.133325,0.032 0.225309,0.0889 0.157097,0.0982 0.244947,0.26148 0.08785,0.1633 0.08785,0.38758 z m -0.213941,-0.003 q 0,-0.18087 -0.06305,-0.3049 -0.06305,-0.12402 -0.188103,-0.19533 -0.09095,-0.0517 -0.19327,-0.0713 -0.102319,-0.0207 -0.244947,-0.0207 h -0.192236 v 1.18753 h 0.192236 q 0.147795,0 0.257349,-0.0217 0.110588,-0.0217 0.202572,-0.0806 0.114722,-0.0734 0.171566,-0.19327 0.05788,-0.11989 0.05788,-0.29972 z"
           inkscape:connector-curvature="0" />
        <path
           id="path940"
           style="font-size:2.11667px"
           d="m -77.903713,182.67229 q 0,0.16743 -0.03721,0.29249 -0.03617,0.12402 -0.11989,0.2067 -0.07958,0.0786 -0.186035,0.11472 -0.106454,0.0362 -0.248047,0.0362 -0.144695,0 -0.252182,-0.0382 -0.107487,-0.0382 -0.180868,-0.11266 -0.08371,-0.0848 -0.120923,-0.20464 -0.03617,-0.11989 -0.03617,-0.29455 v -0.92088 h 0.204639 v 0.93121 q 0,0.12506 0.01654,0.19741 0.01757,0.0723 0.05788,0.13126 0.04548,0.0672 0.12299,0.10128 0.07855,0.0341 0.188103,0.0341 0.110587,0 0.188102,-0.0331 0.07752,-0.0341 0.124024,-0.10232 0.04031,-0.0589 0.05684,-0.13436 0.01757,-0.0765 0.01757,-0.18914 v -0.93638 h 0.204639 z"
           inkscape:connector-curvature="0" />
        <path
           id="path942"
           style="font-size:2.11667px"
           d="m -76.498112,183.29034 h -1.013893 v -1.53893 h 1.013893 v 0.1819 h -0.809254 v 0.42168 h 0.809254 v 0.18191 h -0.809254 v 0.57154 h 0.809254 z"
           inkscape:connector-curvature="0" />
        <path
           id="path944"
           style="font-size:2.11667px"
           d="m -75.029466,183.6004 h -1.353924 v -0.12403 h 1.353924 z"
           inkscape:connector-curvature="0" />
        <path
           id="path946"
           style="font-size:2.11667px"
           d="m -73.611462,181.75141 -0.560174,1.53893 h -0.272852 l -0.560173,-1.53893 h 0.219108 l 0.482659,1.35393 0.482659,-1.35393 z"
           inkscape:connector-curvature="0" />
        <path
           id="path948"
           style="font-size:2.11667px"
           d="m -72.37846,182.52036 q 0,0.41444 -0.130225,0.60875 -0.129191,0.19327 -0.402043,0.19327 -0.276986,0 -0.405144,-0.19637 -0.127124,-0.19637 -0.127124,-0.60358 0,-0.41032 0.129191,-0.60565 0.129191,-0.19637 0.403077,-0.19637 0.276986,0 0.40411,0.19947 0.128158,0.19844 0.128158,0.60048 z m -0.271819,0.46922 q 0.03617,-0.0837 0.04858,-0.19637 0.01344,-0.11369 0.01344,-0.27285 0,-0.1571 -0.01344,-0.27285 -0.0124,-0.11576 -0.04961,-0.19637 -0.03617,-0.0796 -0.09922,-0.11989 -0.06201,-0.0403 -0.160197,-0.0403 -0.09715,0 -0.161231,0.0403 -0.06304,0.0403 -0.100252,0.12195 -0.03514,0.0765 -0.04858,0.19947 -0.0124,0.12299 -0.0124,0.26976 0,0.16123 0.01137,0.26975 0.01137,0.10852 0.04858,0.1943 0.03411,0.0806 0.09612,0.12299 0.06305,0.0424 0.166399,0.0424 0.09715,0 0.16123,-0.0403 0.06408,-0.0403 0.09922,-0.12196 z"
           inkscape:connector-curvature="0" />
        <path
           id="path950"
           style="font-size:2.11667px"
           d="m -71.02867,183.29034 h -1.041799 v -0.21601 q 0.108521,-0.093 0.217042,-0.18603 0.109554,-0.093 0.203605,-0.18501 0.198438,-0.19223 0.271819,-0.30489 0.07338,-0.11369 0.07338,-0.24494 0,-0.11989 -0.07958,-0.18707 -0.07855,-0.0682 -0.220141,-0.0682 -0.09405,0 -0.203606,0.0331 -0.109554,0.0331 -0.213941,0.10128 h -0.01033 v -0.21704 q 0.07338,-0.0362 0.195337,-0.0661 0.12299,-0.03 0.237712,-0.03 0.236679,0 0.371038,0.11472 0.134358,0.11369 0.134358,0.30903 0,0.0879 -0.02274,0.16433 -0.0217,0.0755 -0.06511,0.14366 -0.04031,0.0641 -0.09508,0.12609 -0.05374,0.062 -0.131259,0.13746 -0.110587,0.10852 -0.22841,0.21084 -0.117822,0.10129 -0.220142,0.18811 h 0.827858 z"
           inkscape:connector-curvature="0" />
        <path
           id="path952"
           style="font-size:2.11667px"
           d="m -69.761562,183.15908 q 0,0.29352 -0.133326,0.43098 -0.133325,0.13746 -0.410311,0.13746 -0.09198,0 -0.179835,-0.0134 -0.08682,-0.0124 -0.171566,-0.0362 v -0.19843 h 0.01034 q 0.04754,0.0186 0.150895,0.0455 0.103353,0.0279 0.206706,0.0279 0.09922,0 0.164331,-0.0238 0.06511,-0.0238 0.101286,-0.0661 0.03617,-0.0403 0.05168,-0.0971 0.0155,-0.0568 0.0155,-0.12713 v -0.10542 q -0.08785,0.0703 -0.168466,0.10542 -0.07958,0.0341 -0.203605,0.0341 -0.206706,0 -0.328663,-0.14883 -0.120923,-0.14986 -0.120923,-0.42168 0,-0.14883 0.04134,-0.25632 0.04237,-0.10852 0.114721,-0.18706 0.06718,-0.0734 0.163298,-0.11369 0.09612,-0.0413 0.191203,-0.0413 0.100253,0 0.167432,0.0207 0.06821,0.0196 0.143661,0.061 l 0.0124,-0.0496 h 0.181902 z m -0.194304,-0.18603 v -0.62942 q -0.07752,-0.0351 -0.144694,-0.0496 -0.06615,-0.0155 -0.132292,-0.0155 -0.160197,0 -0.252182,0.10749 -0.09198,0.10749 -0.09198,0.31213 0,0.1943 0.06821,0.29455 0.06821,0.10025 0.226343,0.10025 0.08475,0 0.169499,-0.032 0.08578,-0.0331 0.157096,-0.0879 z"
           inkscape:connector-curvature="0" />
        <path
           id="path954"
           style="font-size:2.11667px"
           d="m -68.796245,182.69916 q 0,0.31109 -0.101286,0.55914 -0.101286,0.24805 -0.284221,0.45785 h -0.236678 v -0.0103 q 0.07958,-0.0713 0.159163,-0.17467 0.08062,-0.10232 0.141594,-0.22944 0.06408,-0.13229 0.101286,-0.27906 0.03824,-0.14676 0.03824,-0.32349 0,-0.1695 -0.03824,-0.32246 -0.03824,-0.15296 -0.101286,-0.28009 -0.06511,-0.13126 -0.141594,-0.22944 -0.07545,-0.0992 -0.159163,-0.17467 v -0.0103 h 0.236678 q 0.182935,0.2098 0.284221,0.45785 0.101286,0.24805 0.101286,0.55914 z"
           inkscape:connector-curvature="0" />
      </g>
      <circle
         cx="-80.126907"
         cy="160.82054"
         r="1.35"
         style="opacity:1;fill:#000000;fill-opacity:0;fill-rule:nonzero;stroke:#000000;stroke-width:0.264583;stroke-linecap:butt;stroke-linejoin:miter;stroke-miterlimit:4;stroke-dasharray:none"
         id="circle12" />
      <circle
         id="circle12-7"
         style="opacity:1;fill:#000000;fill-opacity:0;fill-rule:nonzero;stroke:#000000;stroke-width:0.264583;stroke-linecap:butt;stroke-linejoin:miter;stroke-miterlimit:4;stroke-dasharray:none"
         r="1.35"
         cy="209.04128"
         cx="-81.347687" />
      <circle
         cx="-29.292358"
         cy="203.98587"
         r="1.35"
         style="opacity:1;fill:#000000;fill-opacity:0;fill-rule:nonzero;stroke:#000000;stroke-width:0.264583;stroke-linecap:butt;stroke-linejoin:miter;stroke-miterlimit:4;stroke-dasharray:none"
         id="circle12-7-2" />
      <circle
         id="circle12-7-2-2"
         style="opacity:1;fill:#000000;fill-opacity:0;fill-rule:nonzero;stroke:#000000;stroke-width:0.264583;stroke-linecap:butt;stroke-linejoin:miter;stroke-miterlimit:4;stroke-dasharray:none"
         r="1.35"
         cy="176.06223"
         cx="-29.303019" />
      <circle
         id="circle12-7-2-8"
         style="opacity:1;fill:#000000;fill-opacity:0;fill-rule:nonzero;stroke:#000000;stroke-width:0.264583;stroke-linecap:butt;stroke-linejoin:miter;stroke-miterlimit:4;stroke-dasharray:none"
         r="1.35"
         cy="160.79929"
         cx="-5.2148242" />
      <circle
         id="circle12-7-2-88"
         style="opacity:1;fill:#000000;fill-opacity:0;fill-rule:nonzero;stroke:#000000;stroke-width:0.264583;stroke-linecap:butt;stroke-linejoin:miter;stroke-miterlimit:4;stroke-dasharray:none"
         r="1.35"
         cy="209.04131"
         cx="1.1589839" />
    </g>
  </g>
</svg>
