<?xml version="1.0" encoding="UTF-8" standalone="no"?>
<!-- Created with Inkscape (http://www.inkscape.org/) -->

<svg
   xmlns:dc="http://purl.org/dc/elements/1.1/"
   xmlns:cc="http://creativecommons.org/ns#"
   xmlns:rdf="http://www.w3.org/1999/02/22-rdf-syntax-ns#"
   xmlns:svg="http://www.w3.org/2000/svg"
   xmlns="http://www.w3.org/2000/svg"
   xmlns:sodipodi="http://sodipodi.sourceforge.net/DTD/sodipodi-0.dtd"
   xmlns:inkscape="http://www.inkscape.org/namespaces/inkscape"
   width="91mm"
   height="55.5mm"
   viewBox="0 0 91 55.5"
   version="1.1"
   id="svg64"
   inkscape:version="0.92.1 r15371"
   sodipodi:docname="beagleboneblack.svg">
  <defs
     id="defs58">
    <style
       id="style66"
       type="text/css"><![CDATA[
    .str0 {stroke:red;stroke-width:10.4173}
    .str1 {stroke:black;stroke-width:10.4173}
    .fil0 {fill:none;fill-rule:nonzero}
   ]]></style>
  </defs>
  <sodipodi:namedview
     id="base"
     pagecolor="#ffffff"
     bordercolor="#666666"
     borderopacity="1.0"
     inkscape:pageopacity="0.0"
     inkscape:pageshadow="2"
     inkscape:zoom="2.6193058"
     inkscape:cx="87.506095"
     inkscape:cy="104.68292"
     inkscape:document-units="mm"
     inkscape:current-layer="layer1"
     showgrid="false"
     inkscape:window-width="1920"
     inkscape:window-height="1017"
     inkscape:window-x="-8"
     inkscape:window-y="-8"
     inkscape:window-maximized="1" />
  <metadata
     id="metadata61">
    <rdf:RDF>
      <cc:Work
         rdf:about="">
        <dc:format>image/svg+xml</dc:format>
        <dc:type
           rdf:resource="http://purl.org/dc/dcmitype/StillImage" />
        <dc:title></dc:title>
      </cc:Work>
    </rdf:RDF>
  </metadata>
  <g
     inkscape:label="Layer 1"
     inkscape:groupmode="layer"
     id="layer1"
     transform="translate(136.28764,-67.093686)">
    <g
       style="clip-rule:evenodd;fill-rule:evenodd;image-rendering:optimizeQuality;shape-rendering:geometricPrecision;text-rendering:geometricPrecision"
       id="g96"
       transform="matrix(0.02539601,0,0,0.02539601,-133.63649,67.506895)">
      <g
         id="Layer_x0020_1">
        <metadata
           id="CorelCorpID_0Corel-Layer" />
        <path
           id="path71"
           d="m 255,2155 h 2650 c 276,0 500,-224 500,-500 V 505 C 3405,230 3181,5 2905,5 2022,5 1139,5 255,5 118,5 5,118 5,255 v 1650 c 0,138 113,250 250,250 z"
           class="fil0 str0"
           inkscape:connector-curvature="0"
           style="fill:none;fill-rule:nonzero;stroke:#ff0000;stroke-width:10.41730022" />
        <path
           id="path73"
           d="m 634,130 c 0,30 -24,54 -54,54 -29,0 -53,-24 -53,-54 0,-29 24,-53 53,-53 30,0 54,24 54,53 z m 0,0 z"
           class="fil0 str1"
           inkscape:connector-curvature="0"
           style="fill:none;fill-rule:nonzero;stroke:#000000;stroke-width:10.41730022" />
        <path
           id="path75"
           d="m 634,2030 c 0,29 -24,53 -54,53 -29,0 -53,-24 -53,-53 0,-29 24,-53 53,-53 30,0 54,24 54,53 z m 0,0 z"
           class="fil0 str1"
           inkscape:connector-curvature="0"
           style="fill:none;fill-rule:nonzero;stroke:#000000;stroke-width:10.41730022" />
        <path
           id="path77"
           d="m 3238,255 c 0,30 -24,53 -53,53 -29,0 -53,-23 -53,-53 0,-29 24,-53 53,-53 29,0 53,24 53,53 z m 0,0 z"
           class="fil0 str1"
           inkscape:connector-curvature="0"
           style="fill:none;fill-rule:nonzero;stroke:#000000;stroke-width:10.41730022" />
        <path
           id="path79"
           d="m 3238,1905 c 0,30 -24,53 -53,53 -29,0 -53,-23 -53,-53 0,-29 24,-53 53,-53 29,0 53,24 53,53 z m 0,0 z"
           class="fil0 str1"
           inkscape:connector-curvature="0"
           style="fill:none;fill-rule:nonzero;stroke:#000000;stroke-width:10.41730022" />
      </g>
    </g>
    <rect
       style="fill:none;stroke:#ff0000;stroke-width:0.26458332;stroke-opacity:0.83665341"
       id="rect98"
       width="15.499618"
       height="10.534897"
       x="-136.00311"
       y="106.74686" />
    <rect
       style="fill:none;stroke:#ff0000;stroke-width:0.26458332;stroke-opacity:0.83665341"
       id="rect905"
       width="21.614702"
       height="16.347254"
       x="-135.51875"
       y="83.484116" />
    <rect
       style="fill:none;stroke:#ff0000;stroke-width:0.26458332;stroke-opacity:0.83665341"
       id="rect907"
       width="9.263443"
       height="9.202898"
       x="-54.9328"
       y="79.017082" />
    <rect
       style="fill:none;stroke:#ff0000;stroke-width:0.26458332;stroke-opacity:0.83665341"
       id="rect909"
       width="11.443078"
       height="10.050534"
       x="-59.231529"
       y="102.62978" />
    <g
       aria-label="USB"
       style="font-style:normal;font-weight:normal;font-size:10.58333302px;line-height:1.25;font-family:sans-serif;letter-spacing:0px;word-spacing:0px;fill:#000000;fill-opacity:1;stroke:none;stroke-width:0.26458332"
       id="text913"
       transform="translate(2.6458334,-0.22612836)">
      <path
         d="m -57.451508,108.03762 q 0,0.33486 -0.07441,0.58498 -0.07235,0.24804 -0.239779,0.41341 -0.159163,0.15709 -0.37207,0.22944 -0.212907,0.0724 -0.496094,0.0724 -0.289388,0 -0.504362,-0.0765 -0.214974,-0.0765 -0.361735,-0.22531 -0.167432,-0.1695 -0.241846,-0.40928 -0.07235,-0.23978 -0.07235,-0.58911 v -1.84175 h 0.409278 v 1.86242 q 0,0.25011 0.03307,0.39481 0.03514,0.14469 0.115755,0.26251 0.09095,0.13436 0.24598,0.20258 0.157096,0.0682 0.376204,0.0682 0.221175,0 0.376204,-0.0662 0.15503,-0.0682 0.248047,-0.20464 0.08062,-0.11782 0.113688,-0.26871 0.03514,-0.15297 0.03514,-0.37827 v -1.87276 h 0.409278 z"
         style="font-size:4.23333311px;fill:#ff0000;stroke-width:0.26458332"
         id="path4573"
         inkscape:connector-curvature="0" />
      <path
         d="m -54.431538,108.39522 q 0,0.17983 -0.08475,0.35553 -0.08268,0.1757 -0.233578,0.29766 -0.165364,0.13229 -0.386539,0.20671 -0.219108,0.0744 -0.529167,0.0744 -0.332796,0 -0.599446,-0.062 -0.264584,-0.062 -0.539502,-0.18397 v -0.51263 h 0.02894 q 0.233578,0.1943 0.539502,0.29972 0.305925,0.10542 0.574642,0.10542 0.380339,0 0.591179,-0.14262 0.212906,-0.14263 0.212906,-0.38034 0,-0.20464 -0.101285,-0.30179 -0.09922,-0.0971 -0.303858,-0.1509 -0.155029,-0.0413 -0.33693,-0.0682 -0.179834,-0.0269 -0.382406,-0.0682 -0.409277,-0.0868 -0.607714,-0.29559 -0.196371,-0.21084 -0.196371,-0.54777 0,-0.38654 0.326595,-0.63252 0.326595,-0.24805 0.82889,-0.24805 0.324528,0 0.595313,0.062 0.270784,0.062 0.479557,0.15297 v 0.48369 h -0.02894 q -0.1757,-0.14883 -0.463021,-0.24598 -0.285254,-0.0992 -0.584977,-0.0992 -0.328662,0 -0.529167,0.13642 -0.198437,0.13643 -0.198437,0.3514 0,0.19224 0.09922,0.30179 0.09922,0.10956 0.349332,0.16744 0.132292,0.0289 0.376205,0.0703 0.243912,0.0413 0.413411,0.0847 0.343132,0.091 0.516764,0.27492 0.173633,0.18397 0.173633,0.5147 z"
         style="font-size:4.23333311px;fill:#ff0000;stroke-width:0.26458332"
         id="path4575"
         inkscape:connector-curvature="0" />
      <path
         d="m -51.452908,108.32701 q 0,0.22944 -0.08682,0.40514 -0.08682,0.1757 -0.233577,0.28939 -0.173633,0.13642 -0.382406,0.1943 -0.206705,0.0579 -0.527099,0.0579 h -1.091406 v -3.07785 h 0.911572 q 0.33693,0 0.504362,0.0248 0.167431,0.0248 0.320394,0.10335 0.169498,0.0889 0.245979,0.22944 0.07648,0.1385 0.07648,0.3328 0,0.21911 -0.111621,0.37414 -0.111621,0.15296 -0.297656,0.24598 v 0.0165 q 0.312126,0.0641 0.49196,0.27492 0.179834,0.20877 0.179834,0.52917 z m -0.68833,-1.387 q 0,-0.11162 -0.03721,-0.1881 -0.03721,-0.0765 -0.11989,-0.12402 -0.09715,-0.0558 -0.235644,-0.0682 -0.138493,-0.0145 -0.343132,-0.0145 h -0.487825 v 0.88884 h 0.529166 q 0.192237,0 0.305925,-0.0186 0.113688,-0.0207 0.21084,-0.0827 0.09715,-0.062 0.136426,-0.15916 0.04134,-0.0992 0.04134,-0.23358 z m 0.262516,1.40353 q 0,-0.18603 -0.05581,-0.29559 -0.05581,-0.10955 -0.202571,-0.18603 -0.09922,-0.0517 -0.241846,-0.0661 -0.14056,-0.0165 -0.343131,-0.0165 h -0.642855 v 1.14515 h 0.541569 q 0.268717,0 0.440283,-0.0269 0.171566,-0.0289 0.28112,-0.10336 0.115755,-0.0806 0.169498,-0.18397 0.05374,-0.10335 0.05374,-0.26665 z"
         style="font-size:4.23333311px;fill:#ff0000;stroke-width:0.26458332"
         id="path4577"
         inkscape:connector-curvature="0" />
    </g>
    <text
       xml:space="preserve"
       style="font-style:normal;font-weight:normal;font-size:10.58333302px;line-height:1.25;font-family:sans-serif;letter-spacing:0px;word-spacing:0px;fill:#000000;fill-opacity:1;stroke:none;stroke-width:0.26458332"
       x="-53.703735"
       y="84.752838"
       id="text917"><tspan
         sodipodi:role="line"
         x="-53.703735"
         y="94.408333"
         style="font-size:2.82222223px;stroke-width:0.26458332"
         id="tspan921" /><tspan
         sodipodi:role="line"
         x="-53.703735"
         y="107.6375"
         style="font-size:2.82222223px;stroke-width:0.26458332"
         id="tspan919" /></text>
    <text
       xml:space="preserve"
       style="font-style:normal;font-weight:normal;font-size:10.58333302px;line-height:1.25;font-family:sans-serif;letter-spacing:0px;word-spacing:0px;fill:#000000;fill-opacity:1;stroke:none;stroke-width:0.26458332"
       x="-56.246643"
       y="82.997017"
       id="text927"><tspan
         sodipodi:role="line"
         x="-56.246643"
         y="92.652512"
         style="font-size:2.82222223px;stroke-width:0.26458332"
         id="tspan929" /></text>
    <g
       aria-label="uSD"
       style="font-style:normal;font-weight:normal;font-size:4.23333311px;line-height:1.25;font-family:sans-serif;letter-spacing:0px;word-spacing:0px;fill:#ff0000;fill-opacity:1;stroke:none;stroke-width:0.26458332"
       id="text935"
       transform="translate(2.6458334,-0.22612836)">
      <path
         d="m -54.534002,85.176651 h -0.259071 v -0.170877 q -0.130914,0.103353 -0.250803,0.158475 -0.119889,0.05512 -0.264583,0.05512 -0.242535,0 -0.377583,-0.14745 -0.135048,-0.148828 -0.135048,-0.43546 v -0.999078 h 0.259072 v 0.876433 q 0,0.117133 0.01102,0.201193 0.01102,0.08268 0.04685,0.141938 0.03721,0.06063 0.09646,0.0882 0.05926,0.02756 0.172255,0.02756 0.100596,0 0.219108,-0.05236 0.119889,-0.05237 0.223242,-0.13367 v -1.149284 h 0.259071 z"
         style="font-size:2.82222223px;fill:#ff0000;stroke-width:0.26458332"
         id="path4566"
         inkscape:connector-curvature="0" />
      <path
         d="m -52.51242,84.590985 q 0,0.119889 -0.0565,0.237022 -0.05512,0.117134 -0.155719,0.198438 -0.110243,0.08819 -0.257693,0.137804 -0.146072,0.04961 -0.352778,0.04961 -0.221864,0 -0.399631,-0.04134 -0.176389,-0.04134 -0.359668,-0.122646 V 84.70812 h 0.01929 q 0.155718,0.129536 0.359668,0.199816 0.203949,0.07028 0.383094,0.07028 0.253559,0 0.394119,-0.09508 0.141938,-0.09508 0.141938,-0.253559 0,-0.136426 -0.06752,-0.201194 -0.06615,-0.06477 -0.202571,-0.100597 -0.103353,-0.02756 -0.224621,-0.04548 -0.119889,-0.01791 -0.254937,-0.04547 -0.272851,-0.05788 -0.405143,-0.19706 -0.130913,-0.140559 -0.130913,-0.36518 0,-0.257693 0.21773,-0.421679 0.21773,-0.165365 0.552593,-0.165365 0.216352,0 0.396875,0.04134 0.180523,0.04134 0.319705,0.101975 v 0.322461 h -0.01929 q -0.117133,-0.09922 -0.30868,-0.163987 -0.19017,-0.06615 -0.389985,-0.06615 -0.219108,0 -0.352778,0.09095 -0.132292,0.09095 -0.132292,0.234267 0,0.128157 0.06615,0.201193 0.06615,0.07304 0.232889,0.111621 0.08819,0.01929 0.250803,0.04685 0.162608,0.02756 0.275607,0.0565 0.228755,0.06063 0.34451,0.183279 0.115755,0.122646 0.115755,0.343132 z"
         style="font-size:2.82222223px;fill:#ff0000;stroke-width:0.26458332"
         id="path4568"
         inkscape:connector-curvature="0" />
      <path
         d="m -50.340632,84.152769 q 0,0.279741 -0.122645,0.507118 -0.121268,0.227376 -0.323839,0.352777 -0.14056,0.08682 -0.314193,0.125402 -0.172255,0.03859 -0.454753,0.03859 h -0.518142 v -2.051899 h 0.51263 q 0.300413,0 0.476802,0.0441 0.177766,0.04272 0.300412,0.118512 0.209462,0.130913 0.326595,0.348643 0.117133,0.21773 0.117133,0.516765 z m -0.285254,-0.0041 q 0,-0.241157 -0.08406,-0.406522 -0.08406,-0.165364 -0.250803,-0.260449 -0.121267,-0.0689 -0.257693,-0.09508 -0.136426,-0.02756 -0.326595,-0.02756 h -0.256315 v 1.583366 h 0.256315 q 0.197059,0 0.343131,-0.02894 0.14745,-0.02894 0.270096,-0.107487 0.152962,-0.09784 0.228754,-0.257693 0.07717,-0.159853 0.07717,-0.399631 z"
         style="font-size:2.82222223px;fill:#ff0000;stroke-width:0.26458332"
         id="path4570"
         inkscape:connector-curvature="0" />
    </g>
    <g
       aria-label="Ethernet"
       style="font-style:normal;font-weight:normal;font-size:10.58333302px;line-height:1.25;font-family:sans-serif;letter-spacing:0px;word-spacing:0px;fill:#000000;fill-opacity:1;stroke:none;stroke-width:0.26458332"
       id="text939"
       transform="translate(2.6458334,-0.22612836)">
      <path
         d="m -133.30153,93.834648 h -2.02778 V 90.7568 h 2.02778 v 0.363802 h -1.6185 v 0.843359 h 1.6185 v 0.363802 h -1.6185 v 1.143083 h 1.6185 z"
         style="font-size:4.23333311px;fill:#ff0000;stroke-width:0.26458332"
         id="path4544"
         inkscape:connector-curvature="0" />
      <path
         d="m -131.48252,93.813978 q -0.10955,0.02894 -0.23978,0.04754 -0.12815,0.0186 -0.22944,0.0186 -0.35347,0 -0.53743,-0.190169 -0.18397,-0.190169 -0.18397,-0.609782 V 91.85234 h -0.26252 v -0.326595 h 0.26252 V 90.86222 h 0.38861 v 0.663525 h 0.80201 v 0.326595 h -0.80201 v 1.052132 q 0,0.181901 0.008,0.285254 0.008,0.101286 0.0579,0.19017 0.0455,0.08268 0.12402,0.121956 0.0806,0.03721 0.24392,0.03721 0.0951,0 0.19843,-0.02687 0.10336,-0.02894 0.14883,-0.04754 h 0.0207 z"
         style="font-size:4.23333311px;fill:#ff0000;stroke-width:0.26458332"
         id="path4546"
         inkscape:connector-curvature="0" />
      <path
         d="m -129.0806,93.834648 h -0.3886 V 92.52 q 0,-0.159164 -0.0186,-0.297656 -0.0186,-0.14056 -0.0682,-0.219109 -0.0517,-0.08682 -0.14883,-0.128157 -0.0971,-0.04341 -0.25218,-0.04341 -0.15916,0 -0.33279,0.07855 -0.17364,0.07855 -0.3328,0.200504 v 1.723926 h -0.38861 v -3.216341 h 0.38861 v 1.163753 q 0.1819,-0.150895 0.3762,-0.235644 0.19431,-0.08475 0.39895,-0.08475 0.37413,0 0.5705,0.22531 0.19637,0.225309 0.19637,0.649056 z"
         style="font-size:4.23333311px;fill:#ff0000;stroke-width:0.26458332"
         id="path4548"
         inkscape:connector-curvature="0" />
      <path
         d="m -126.39962,92.720504 h -1.70119 q 0,0.212907 0.0641,0.372071 0.0641,0.157096 0.1757,0.258382 0.10748,0.09922 0.25425,0.148828 0.14882,0.04961 0.32659,0.04961 0.23565,0 0.47336,-0.09302 0.23978,-0.09508 0.34106,-0.186035 h 0.0207 v 0.423746 q -0.19637,0.08268 -0.40101,0.138493 -0.20464,0.05581 -0.42995,0.05581 -0.57464,0 -0.8971,-0.310059 -0.32246,-0.312126 -0.32246,-0.8847 0,-0.566374 0.30799,-0.89917 0.31006,-0.332797 0.81442,-0.332797 0.46716,0 0.71934,0.272852 0.25425,0.272852 0.25425,0.775146 z m -0.37827,-0.297656 q -0.002,-0.305924 -0.15503,-0.473356 -0.1509,-0.167432 -0.46096,-0.167432 -0.31212,0 -0.49816,0.183968 -0.18397,0.183969 -0.20877,0.45682 z"
         style="font-size:4.23333311px;fill:#ff0000;stroke-width:0.26458332"
         id="path4550"
         inkscape:connector-curvature="0" />
      <path
         d="m -124.36977,91.949492 h -0.0207 q -0.0868,-0.02067 -0.1695,-0.02894 -0.0806,-0.01033 -0.19224,-0.01033 -0.17983,0 -0.34726,0.08061 -0.16744,0.07855 -0.32246,0.204639 v 1.639176 h -0.38861 v -2.308903 h 0.38861 v 0.341065 q 0.23151,-0.186035 0.40721,-0.262517 0.17776,-0.07855 0.36173,-0.07855 0.10129,0 0.14676,0.0062 0.0455,0.0041 0.13643,0.0186 z"
         style="font-size:4.23333311px;fill:#ff0000;stroke-width:0.26458332"
         id="path4552"
         inkscape:connector-curvature="0" />
      <path
         d="m -122.06914,93.834648 h -0.38861 V 92.52 q 0,-0.159164 -0.0186,-0.297656 -0.0186,-0.14056 -0.0682,-0.219109 -0.0517,-0.08682 -0.14883,-0.128157 -0.0971,-0.04341 -0.25218,-0.04341 -0.15916,0 -0.3328,0.07855 -0.17363,0.07855 -0.33279,0.200504 v 1.723926 h -0.38861 v -2.308903 h 0.38861 v 0.256315 q 0.1819,-0.150895 0.3762,-0.235644 0.1943,-0.08475 0.39894,-0.08475 0.37414,0 0.57051,0.22531 0.19637,0.225309 0.19637,0.649056 z"
         style="font-size:4.23333311px;fill:#ff0000;stroke-width:0.26458332"
         id="path4554"
         inkscape:connector-curvature="0" />
      <path
         d="m -119.38816,92.720504 h -1.70119 q 0,0.212907 0.0641,0.372071 0.0641,0.157096 0.1757,0.258382 0.10748,0.09922 0.25424,0.148828 0.14883,0.04961 0.3266,0.04961 0.23564,0 0.47335,-0.09302 0.23978,-0.09508 0.34107,-0.186035 h 0.0207 v 0.423746 q -0.19637,0.08268 -0.40101,0.138493 -0.20464,0.05581 -0.42995,0.05581 -0.57464,0 -0.8971,-0.310059 -0.32246,-0.312126 -0.32246,-0.8847 0,-0.566374 0.30799,-0.89917 0.31006,-0.332797 0.81442,-0.332797 0.46716,0 0.71934,0.272852 0.25425,0.272852 0.25425,0.775146 z m -0.37828,-0.297656 q -0.002,-0.305924 -0.15503,-0.473356 -0.15089,-0.167432 -0.46095,-0.167432 -0.31213,0 -0.49816,0.183968 -0.18397,0.183969 -0.20877,0.45682 z"
         style="font-size:4.23333311px;fill:#ff0000;stroke-width:0.26458332"
         id="path4556"
         inkscape:connector-curvature="0" />
      <path
         d="m -117.60016,93.813978 q -0.10955,0.02894 -0.23978,0.04754 -0.12816,0.0186 -0.22944,0.0186 -0.35347,0 -0.53744,-0.190169 -0.18397,-0.190169 -0.18397,-0.609782 V 91.85234 h -0.26251 v -0.326595 h 0.26251 V 90.86222 h 0.38861 v 0.663525 h 0.80202 v 0.326595 h -0.80202 v 1.052132 q 0,0.181901 0.008,0.285254 0.008,0.101286 0.0579,0.19017 0.0455,0.08268 0.12402,0.121956 0.0806,0.03721 0.24391,0.03721 0.0951,0 0.19844,-0.02687 0.10335,-0.02894 0.14883,-0.04754 h 0.0207 z"
         style="font-size:4.23333311px;fill:#ff0000;stroke-width:0.26458332"
         id="path4558"
         inkscape:connector-curvature="0" />
    </g>
    <g
       aria-label="DC"
       style="font-style:normal;font-weight:normal;font-size:4.23333311px;line-height:1.25;font-family:sans-serif;letter-spacing:0px;word-spacing:0px;fill:#ff0000;fill-opacity:1;stroke:none;stroke-width:0.26458332"
       id="text943"
       transform="translate(2.6458334,-0.22612836)">
      <path
         d="m -130.18606,112.1577 q 0,0.41962 -0.18397,0.76068 -0.1819,0.34107 -0.48576,0.52917 -0.21084,0.13022 -0.47129,0.1881 -0.25838,0.0579 -0.68212,0.0579 h -0.77722 v -3.07785 h 0.76895 q 0.45062,0 0.7152,0.0661 0.26665,0.0641 0.45062,0.17777 0.31419,0.19637 0.48989,0.52297 0.1757,0.32659 0.1757,0.77514 z m -0.42788,-0.006 q 0,-0.36173 -0.12609,-0.60978 -0.12609,-0.24805 -0.37621,-0.39067 -0.1819,-0.10336 -0.38654,-0.14263 -0.20463,-0.0413 -0.48989,-0.0413 h -0.38447 v 2.37505 h 0.38447 q 0.29559,0 0.5147,-0.0434 0.22117,-0.0434 0.40514,-0.16123 0.22945,-0.14676 0.34313,-0.38654 0.11576,-0.23978 0.11576,-0.59945 z"
         style="font-size:4.23333311px;fill:#ff0000;stroke-width:0.26458332"
         id="path4561"
         inkscape:connector-curvature="0" />
      <path
         d="m -127.14335,113.47029 q -0.11369,0.0496 -0.20671,0.093 -0.091,0.0434 -0.23978,0.091 -0.12609,0.0393 -0.27491,0.0661 -0.14677,0.0289 -0.32453,0.0289 -0.33487,0 -0.60978,-0.093 -0.27286,-0.0951 -0.47543,-0.29559 -0.19843,-0.19637 -0.31006,-0.49816 -0.11162,-0.30386 -0.11162,-0.70487 0,-0.38033 0.10749,-0.68006 0.10749,-0.29972 0.31006,-0.50643 0.19637,-0.2005 0.47335,-0.30592 0.27906,-0.10542 0.61805,-0.10542 0.24805,0 0.49403,0.0599 0.24805,0.06 0.54984,0.21084 v 0.48576 h -0.031 q -0.25425,-0.21291 -0.50436,-0.31006 -0.25011,-0.0971 -0.53537,-0.0971 -0.23357,0 -0.42168,0.0765 -0.18603,0.0744 -0.33279,0.23358 -0.14263,0.15503 -0.22325,0.39274 -0.0785,0.23565 -0.0785,0.5457 0,0.32453 0.0868,0.55811 0.0889,0.23358 0.22738,0.38034 0.14469,0.15296 0.33693,0.22737 0.1943,0.0724 0.40928,0.0724 0.29559,0 0.55397,-0.10128 0.25838,-0.10129 0.48369,-0.30386 h 0.0289 z"
         style="font-size:4.23333311px;fill:#ff0000;stroke-width:0.26458332"
         id="path4563"
         inkscape:connector-curvature="0" />
    </g>
    <g
       aria-label="BeagleBone"
       style="font-style:normal;font-weight:normal;font-size:4.93888903px;line-height:1.25;font-family:sans-serif;letter-spacing:0px;word-spacing:0px;fill:#ff0000;fill-opacity:1;stroke:none;stroke-width:0.26458332"
       id="text947"
       transform="translate(2.6458334,-0.22612836)">
      <path
         d="m -104.03535,79.410158 q 0,0.267684 -0.10129,0.472668 -0.10128,0.204983 -0.2725,0.337619 -0.20257,0.159163 -0.44614,0.226687 -0.24116,0.06752 -0.61495,0.06752 h -1.27331 v -3.590823 h 1.0635 q 0.39309,0 0.58842,0.02894 0.19534,0.02894 0.3738,0.120578 0.19775,0.103697 0.28697,0.267684 0.0892,0.161575 0.0892,0.388262 0,0.255626 -0.13022,0.436494 -0.13023,0.178456 -0.34727,0.286976 v 0.01929 q 0.36415,0.07476 0.57395,0.320738 0.20981,0.243569 0.20981,0.617361 z m -0.80305,-1.618161 q 0,-0.130225 -0.0434,-0.219453 -0.0434,-0.08923 -0.13987,-0.144694 -0.11334,-0.06511 -0.27492,-0.07958 -0.16157,-0.01688 -0.40032,-0.01688 h -0.56913 v 1.036974 h 0.61736 q 0.22428,0 0.35691,-0.02171 0.13264,-0.02411 0.24598,-0.09646 0.11335,-0.07235 0.15917,-0.185691 0.0482,-0.115755 0.0482,-0.272507 z m 0.30627,1.637454 q 0,-0.217041 -0.0651,-0.344854 -0.0651,-0.127813 -0.23633,-0.217041 -0.11575,-0.06029 -0.28215,-0.07717 -0.16399,-0.01929 -0.40032,-0.01929 h -0.75 v 1.336008 h 0.63183 q 0.3135,0 0.51366,-0.03135 0.20016,-0.03376 0.32798,-0.120578 0.13505,-0.09405 0.19775,-0.21463 0.0627,-0.120578 0.0627,-0.311092 z"
         style="font-size:4.93888903px;fill:#ff0000;stroke-width:0.26458332"
         id="path4523"
         inkscape:connector-curvature="0" />
      <path
         d="m -101.13906,79.214822 h -1.98472 q 0,0.248391 0.0748,0.434082 0.0748,0.183279 0.20498,0.301445 0.12541,0.115756 0.29663,0.173633 0.17363,0.05788 0.38102,0.05788 0.27492,0 0.55225,-0.108521 0.27974,-0.110932 0.39791,-0.217041 h 0.0241 v 0.494372 q -0.2291,0.09646 -0.46785,0.161574 -0.23874,0.06511 -0.5016,0.06511 -0.67042,0 -1.04662,-0.361735 -0.37621,-0.364147 -0.37621,-1.032151 0,-0.660769 0.35933,-1.049031 0.36173,-0.388263 0.95015,-0.388263 0.54502,0 0.83923,0.318327 0.29662,0.318327 0.29662,0.904338 z m -0.44131,-0.347266 q -0.002,-0.356912 -0.18087,-0.552249 -0.17605,-0.195337 -0.53778,-0.195337 -0.36415,0 -0.58119,0.21463 -0.21463,0.214629 -0.24357,0.532956 z"
         style="font-size:4.93888903px;fill:#ff0000;stroke-width:0.26458332"
         id="path4525"
         inkscape:connector-curvature="0" />
      <path
         d="m -98.358522,80.514656 h -0.450963 V 80.22768 q -0.06029,0.041 -0.163986,0.115755 -0.101286,0.07235 -0.197749,0.115755 -0.113343,0.05547 -0.260449,0.09164 -0.147105,0.03858 -0.344854,0.03858 -0.364147,0 -0.617357,-0.241157 -0.25322,-0.241157 -0.25322,-0.61495 0,-0.306269 0.13023,-0.494371 0.13263,-0.190514 0.3762,-0.299034 0.24598,-0.108521 0.590834,-0.147106 0.344854,-0.03858 0.740351,-0.05788 v -0.06994 q 0,-0.15434 -0.05547,-0.255626 -0.05305,-0.101286 -0.15434,-0.159163 -0.09646,-0.05547 -0.23151,-0.07476 -0.135048,-0.01929 -0.282154,-0.01929 -0.178456,0 -0.397908,0.04823 -0.219453,0.04582 -0.453373,0.135048 h -0.0241 v -0.46061 q 0.13263,-0.03617 0.38344,-0.07958 0.250795,-0.04341 0.494363,-0.04341 0.284565,0 0.494371,0.04823 0.212218,0.04582 0.366558,0.159163 0.151929,0.110932 0.231511,0.286977 0.07958,0.176044 0.07958,0.436493 z m -0.450963,-0.663181 v -0.749997 q -0.207394,0.01206 -0.489548,0.03617 -0.279741,0.02412 -0.443728,0.06994 -0.195337,0.05547 -0.315919,0.173633 -0.12057,0.115755 -0.12057,0.320738 0,0.23151 0.13987,0.349677 0.139867,0.115755 0.426844,0.115755 0.238745,0 0.436493,-0.09164 0.197749,-0.09405 0.366558,-0.224276 z"
         style="font-size:4.93888903px;fill:#ff0000;stroke-width:0.26458332"
         id="path4527"
         inkscape:connector-curvature="0" />
      <path
         d="m -95.295832,80.208387 q 0,0.684885 -0.311092,1.005623 -0.311092,0.320739 -0.957392,0.320739 -0.214629,0 -0.419613,-0.03135 -0.202571,-0.02894 -0.40032,-0.0844 v -0.463021 h 0.02412 q 0.110932,0.04341 0.352089,0.106109 0.241156,0.06511 0.482313,0.06511 0.231511,0 0.383439,-0.05547 0.151929,-0.05547 0.236334,-0.15434 0.08441,-0.09405 0.120578,-0.226688 0.03617,-0.132636 0.03617,-0.296622 v -0.24598 q -0.204984,0.163986 -0.393086,0.24598 -0.18569,0.07958 -0.475078,0.07958 -0.482314,0 -0.766879,-0.347265 -0.282153,-0.349677 -0.282153,-0.98392 0,-0.347265 0.09646,-0.598068 0.09887,-0.253215 0.267684,-0.436494 0.156751,-0.171221 0.381027,-0.265272 0.224276,-0.09646 0.44614,-0.09646 0.233922,0 0.390674,0.04823 0.159163,0.04582 0.335208,0.142282 l 0.02894,-0.115755 h 0.424436 z m -0.453374,-0.434082 v -1.468644 q -0.180868,-0.08199 -0.33762,-0.115755 -0.15434,-0.03617 -0.30868,-0.03617 -0.373793,0 -0.588423,0.250803 -0.214629,0.250803 -0.214629,0.728293 0,0.453375 0.159163,0.687297 0.159164,0.233922 0.528134,0.233922 0.197748,0 0.395496,-0.07476 0.200161,-0.07717 0.366559,-0.204983 z"
         style="font-size:4.93888903px;fill:#ff0000;stroke-width:0.26458332"
         id="path4529"
         inkscape:connector-curvature="0" />
      <path
         d="m -93.945354,80.514656 h -0.453374 v -3.752398 h 0.453374 z"
         style="font-size:4.93888903px;fill:#ff0000;stroke-width:0.26458332"
         id="path4531"
         inkscape:connector-curvature="0" />
      <path
         d="m -90.807906,79.214822 h -1.984719 q 0,0.248391 0.07476,0.434082 0.07476,0.183279 0.204984,0.301445 0.125401,0.115756 0.296622,0.173633 0.173633,0.05788 0.381028,0.05788 0.274918,0 0.552249,-0.108521 0.279741,-0.110932 0.397908,-0.217041 h 0.02412 v 0.494372 q -0.229099,0.09646 -0.467844,0.161574 -0.238745,0.06511 -0.501606,0.06511 -0.670416,0 -1.04662,-0.361735 -0.376204,-0.364147 -0.376204,-1.032151 0,-0.660769 0.359323,-1.049031 0.361735,-0.388263 0.950157,-0.388263 0.545014,0 0.839226,0.318327 0.296622,0.318327 0.296622,0.904338 z m -0.441316,-0.347266 q -0.0024,-0.356912 -0.180868,-0.552249 -0.176044,-0.195337 -0.537779,-0.195337 -0.364147,0 -0.581188,0.21463 -0.214629,0.214629 -0.243568,0.532956 z"
         style="font-size:4.93888903px;fill:#ff0000;stroke-width:0.26458332"
         id="path4533"
         inkscape:connector-curvature="0" />
      <path
         d="m -87.376245,79.410158 q 0,0.267684 -0.101285,0.472668 -0.101286,0.204983 -0.272508,0.337619 -0.202571,0.159163 -0.446139,0.226687 -0.241157,0.06752 -0.61495,0.06752 h -1.273307 v -3.590823 h 1.063501 q 0.393085,0 0.588422,0.02894 0.195337,0.02894 0.373793,0.120578 0.197748,0.103697 0.286976,0.267684 0.08923,0.161575 0.08923,0.388262 0,0.255626 -0.130224,0.436494 -0.130225,0.178456 -0.347266,0.286976 v 0.01929 q 0.364147,0.07476 0.573953,0.320738 0.209806,0.243569 0.209806,0.617361 z m -0.803051,-1.618161 q 0,-0.130225 -0.04341,-0.219453 -0.04341,-0.08923 -0.139871,-0.144694 -0.113343,-0.06511 -0.274918,-0.07958 -0.161575,-0.01688 -0.40032,-0.01688 h -0.56913 v 1.036974 h 0.617361 q 0.224276,0 0.356912,-0.02171 0.132636,-0.02411 0.24598,-0.09646 0.113343,-0.07235 0.159163,-0.185691 0.04823,-0.115755 0.04823,-0.272507 z m 0.306269,1.637454 q 0,-0.217041 -0.06511,-0.344854 -0.06511,-0.127813 -0.236333,-0.217041 -0.115756,-0.06029 -0.282154,-0.07717 -0.163986,-0.01929 -0.40032,-0.01929 h -0.749997 v 1.336008 h 0.63183 q 0.313504,0 0.513664,-0.03135 0.20016,-0.03376 0.327973,-0.120578 0.135048,-0.09405 0.197749,-0.21463 0.0627,-0.120578 0.0627,-0.311092 z"
         style="font-size:4.93888903px;fill:#ff0000;stroke-width:0.26458332"
         id="path4535"
         inkscape:connector-curvature="0" />
      <path
         d="m -84.438957,79.169002 q 0,0.658357 -0.337619,1.039385 -0.337619,0.381028 -0.904338,0.381028 -0.571541,0 -0.90916,-0.381028 -0.335208,-0.381028 -0.335208,-1.039385 0,-0.658358 0.335208,-1.039386 0.337619,-0.383439 0.90916,-0.383439 0.566719,0 0.904338,0.383439 0.337619,0.381028 0.337619,1.039386 z m -0.467844,0 q 0,-0.52331 -0.204983,-0.776525 -0.204983,-0.255626 -0.56913,-0.255626 -0.368969,0 -0.573953,0.255626 -0.202571,0.253215 -0.202571,0.776525 0,0.506429 0.204983,0.76929 0.204983,0.260449 0.571541,0.260449 0.361735,0 0.566719,-0.258038 0.207394,-0.260449 0.207394,-0.771701 z"
         style="font-size:4.93888903px;fill:#ff0000;stroke-width:0.26458332"
         id="path4537"
         inkscape:connector-curvature="0" />
      <path
         d="m -81.482376,80.514656 h -0.453375 V 78.9809 q 0,-0.185691 -0.0217,-0.347266 -0.0217,-0.163987 -0.07958,-0.255626 -0.06029,-0.101286 -0.173632,-0.149517 -0.113344,-0.05064 -0.294212,-0.05064 -0.18569,0 -0.388262,0.09164 -0.202572,0.09164 -0.388262,0.233922 v 2.011247 h -0.453375 v -2.69372 h 0.453375 v 0.299034 q 0.212218,-0.176044 0.438905,-0.274918 0.226687,-0.09887 0.465432,-0.09887 0.436494,0 0.665593,0.262861 0.229099,0.262861 0.229099,0.757232 z"
         style="font-size:4.93888903px;fill:#ff0000;stroke-width:0.26458332"
         id="path4539"
         inkscape:connector-curvature="0" />
      <path
         d="m -78.354574,79.214822 h -1.984719 q 0,0.248391 0.07476,0.434082 0.07476,0.183279 0.204983,0.301445 0.125402,0.115756 0.296623,0.173633 0.173633,0.05788 0.381028,0.05788 0.274918,0 0.552249,-0.108521 0.279741,-0.110932 0.397908,-0.217041 h 0.02412 v 0.494372 q -0.229099,0.09646 -0.467844,0.161574 -0.238745,0.06511 -0.501606,0.06511 -0.670416,0 -1.04662,-0.361735 -0.376205,-0.364147 -0.376205,-1.032151 0,-0.660769 0.359324,-1.049031 0.361735,-0.388263 0.950157,-0.388263 0.545014,0 0.839226,0.318327 0.296622,0.318327 0.296622,0.904338 z m -0.441316,-0.347266 q -0.0024,-0.356912 -0.180868,-0.552249 -0.176044,-0.195337 -0.537779,-0.195337 -0.364147,0 -0.581188,0.21463 -0.214629,0.214629 -0.243568,0.532956 z"
         style="font-size:4.93888903px;fill:#ff0000;stroke-width:0.26458332"
         id="path4541"
         inkscape:connector-curvature="0" />
    </g>
    <g
       aria-label="Black"
       style="font-style:normal;font-weight:normal;font-size:4.93888903px;line-height:1.25;font-family:sans-serif;letter-spacing:0px;word-spacing:0px;fill:#ff0000;fill-opacity:1;stroke:none;stroke-width:0.26458332"
       id="text951"
       transform="translate(2.6458334,-0.22612836)">
      <path
         d="m -96.054271,87.220515 q 0,0.267683 -0.101286,0.472667 -0.101285,0.204983 -0.272507,0.337619 -0.202571,0.159163 -0.44614,0.226687 -0.241156,0.06752 -0.614949,0.06752 h -1.273307 v -3.590823 h 1.063501 q 0.393085,0 0.588422,0.02894 0.195337,0.02894 0.373793,0.120578 0.197748,0.103698 0.286976,0.267684 0.08923,0.161575 0.08923,0.388262 0,0.255627 -0.130224,0.436494 -0.130225,0.178456 -0.347266,0.286977 v 0.01929 q 0.364147,0.07476 0.573953,0.320738 0.209806,0.243569 0.209806,0.617362 z m -0.803052,-1.618162 q 0,-0.130224 -0.04341,-0.219452 -0.04341,-0.08923 -0.139871,-0.144694 -0.113343,-0.06511 -0.274918,-0.07958 -0.161575,-0.01688 -0.40032,-0.01688 h -0.56913 v 1.036974 h 0.617361 q 0.224276,0 0.356912,-0.0217 0.132636,-0.02412 0.24598,-0.09646 0.113343,-0.07235 0.159163,-0.185691 0.04823,-0.115755 0.04823,-0.272507 z m 0.306269,1.637454 q 0,-0.217041 -0.06511,-0.344854 -0.06511,-0.127813 -0.236333,-0.217041 -0.115756,-0.06029 -0.282154,-0.07717 -0.163986,-0.01929 -0.40032,-0.01929 h -0.749997 v 1.336008 h 0.63183 q 0.313504,0 0.513664,-0.03135 0.20016,-0.03376 0.327973,-0.120578 0.135048,-0.09405 0.197749,-0.21463 0.0627,-0.120578 0.0627,-0.311092 z"
         style="font-size:4.93888903px;fill:#ff0000;stroke-width:0.26458332"
         id="path4512"
         inkscape:connector-curvature="0" />
      <path
         d="m -94.954596,88.325012 h -0.453375 v -3.752398 h 0.453375 z"
         style="font-size:4.93888903px;fill:#ff0000;stroke-width:0.26458332"
         id="path4514"
         inkscape:connector-curvature="0" />
      <path
         d="m -91.978723,88.325012 h -0.450963 v -0.286976 q -0.06029,0.041 -0.163986,0.115755 -0.101286,0.07235 -0.197749,0.115755 -0.113343,0.05547 -0.260449,0.09164 -0.147106,0.03858 -0.344854,0.03858 -0.364147,0 -0.617361,-0.241157 -0.253215,-0.241157 -0.253215,-0.614949 0,-0.306269 0.130225,-0.494372 0.132636,-0.190513 0.376204,-0.299034 0.24598,-0.10852 0.590834,-0.147106 0.344854,-0.03859 0.740351,-0.05788 v -0.06994 q 0,-0.15434 -0.05547,-0.255626 -0.05305,-0.101286 -0.15434,-0.159163 -0.09646,-0.05547 -0.23151,-0.07476 -0.135048,-0.01929 -0.282154,-0.01929 -0.178456,0 -0.397908,0.04823 -0.219453,0.04582 -0.453375,0.135048 h -0.02412 V 85.68917 q 0.132637,-0.03617 0.38344,-0.07958 0.250803,-0.04341 0.494371,-0.04341 0.284565,0 0.494371,0.04823 0.212218,0.04582 0.366558,0.159163 0.151929,0.110932 0.231511,0.286977 0.07958,0.176044 0.07958,0.436493 z m -0.450963,-0.663181 v -0.749997 q -0.207394,0.01206 -0.489548,0.03617 -0.279742,0.02411 -0.443728,0.06994 -0.195337,0.05547 -0.315915,0.173633 -0.120579,0.115755 -0.120579,0.320738 0,0.231511 0.139871,0.349677 0.139871,0.115756 0.426848,0.115756 0.238745,0 0.436493,-0.09164 0.197749,-0.09405 0.366558,-0.224276 z"
         style="font-size:4.93888903px;fill:#ff0000;stroke-width:0.26458332"
         id="path4516"
         inkscape:connector-curvature="0" />
      <path
         d="m -89.108958,88.156203 q -0.226688,0.10852 -0.431671,0.168809 -0.202571,0.06029 -0.43167,0.06029 -0.2918,0 -0.535368,-0.0844 -0.243568,-0.08682 -0.417201,-0.26045 -0.176045,-0.173633 -0.272507,-0.438905 -0.09646,-0.265272 -0.09646,-0.619773 0,-0.660769 0.361735,-1.036973 0.364147,-0.376205 0.959804,-0.376205 0.23151,0 0.453374,0.06511 0.224276,0.06511 0.409967,0.159163 v 0.504017 h -0.02412 q -0.207395,-0.161575 -0.429259,-0.248391 -0.219452,-0.08682 -0.429259,-0.08682 -0.38585,0 -0.610126,0.260449 -0.221864,0.258038 -0.221864,0.759643 0,0.487137 0.217041,0.749998 0.219452,0.260449 0.614949,0.260449 0.13746,0 0.279742,-0.03617 0.142282,-0.03617 0.255626,-0.09405 0.09887,-0.05064 0.185691,-0.106109 0.08682,-0.05788 0.137459,-0.09887 h 0.02412 z"
         style="font-size:4.93888903px;fill:#ff0000;stroke-width:0.26458332"
         id="path4518"
         inkscape:connector-curvature="0" />
      <path
         d="m -86.08003,88.325012 h -0.598068 l -1.080382,-1.179256 -0.294211,0.279742 v 0.899514 h -0.453375 v -3.752398 h 0.453375 v 2.406744 l 1.30948,-1.348066 h 0.571542 l -1.251604,1.244368 z"
         style="font-size:4.93888903px;fill:#ff0000;stroke-width:0.26458332"
         id="path4520"
         inkscape:connector-curvature="0" />
    </g>
  </g>
</svg>
