<?xml version="1.0" encoding="UTF-8" standalone="no"?>
<!-- Created with Inkscape (http://www.inkscape.org/) -->

<svg
   xmlns:dc="http://purl.org/dc/elements/1.1/"
   xmlns:cc="http://creativecommons.org/ns#"
   xmlns:rdf="http://www.w3.org/1999/02/22-rdf-syntax-ns#"
   xmlns:svg="http://www.w3.org/2000/svg"
   xmlns="http://www.w3.org/2000/svg"
   xmlns:sodipodi="http://sodipodi.sourceforge.net/DTD/sodipodi-0.dtd"
   xmlns:inkscape="http://www.inkscape.org/namespaces/inkscape"
   width="65.5mm"
   height="32.200001mm"
   viewBox="0 0 65.5 32.200001"
   version="1.1"
   id="svg8"
   inkscape:version="0.92.1 r15371"
   sodipodi:docname="raspberry-pi-zero_v1-3.svg">
  <defs
     id="defs2" />
  <sodipodi:namedview
     id="base"
     pagecolor="#ffffff"
     bordercolor="#666666"
     borderopacity="1.0"
     inkscape:pageopacity="0.0"
     inkscape:pageshadow="2"
     inkscape:zoom="4.0822711"
     inkscape:cx="112.09536"
     inkscape:cy="74.107559"
     inkscape:document-units="mm"
     inkscape:current-layer="g237"
     showgrid="false"
     inkscape:window-width="1920"
     inkscape:window-height="1017"
     inkscape:window-x="-8"
     inkscape:window-y="-8"
     inkscape:window-maximized="1" />
  <metadata
     id="metadata5">
    <rdf:RDF>
      <cc:Work
         rdf:about="">
        <dc:format>image/svg+xml</dc:format>
        <dc:type
           rdf:resource="http://purl.org/dc/dcmitype/StillImage" />
        <dc:title></dc:title>
      </cc:Work>
    </rdf:RDF>
  </metadata>
  <g
     inkscape:label="Layer 1"
     inkscape:groupmode="layer"
     id="layer1"
     transform="translate(0,-264.8)">
    <g
       id="g14"
       transform="matrix(0.26458333,0,0,0.26458333,-98.356793,130.74145)" />
    <g
       id="g237"
       transform="translate(97.550878,106.96082)">
      <path
         inkscape:connector-curvature="0"
         id="path4577"
         d="m -81.296185,182.12982 h -10 v 7 h 10 z"
         style="opacity:1;fill:none;fill-rule:nonzero;stroke:#ff0000;stroke-width:0.26458332;stroke-linecap:butt;stroke-linejoin:miter;stroke-miterlimit:4;stroke-dasharray:none" />
      <g
         id="g58"
         transform="matrix(0.26458333,0,0,0.26458333,-64.785364,173.28751)">
        <rect
           id="rect48"
           style="opacity:1;fill:#000000;fill-opacity:0;fill-rule:nonzero;stroke:#ff0000;stroke-width:1;stroke-linecap:butt;stroke-linejoin:miter;stroke-miterlimit:4;stroke-dasharray:none"
           height="113.38583"
           width="245.6693"
           ry="0"
           rx="0"
           y="-56.692913"
           x="-122.83465" />
        <circle
           id="circle50"
           transform="translate(-109.61,-43.46)"
           style="opacity:1;fill:#000000;fill-opacity:0;fill-rule:nonzero;stroke:#000000;stroke-width:1;stroke-linecap:butt;stroke-linejoin:miter;stroke-miterlimit:4;stroke-dasharray:none"
           r="5.1023622"
           cy="0"
           cx="0" />
        <circle
           id="circle52"
           transform="translate(-109.61,43.46)"
           style="opacity:1;fill:#000000;fill-opacity:0;fill-rule:nonzero;stroke:#000000;stroke-width:1;stroke-linecap:butt;stroke-linejoin:miter;stroke-miterlimit:4;stroke-dasharray:none"
           r="5.1023622"
           cy="0"
           cx="0" />
        <circle
           id="circle54"
           transform="translate(109.61,-43.46)"
           style="opacity:1;fill:#000000;fill-opacity:0;fill-rule:nonzero;stroke:#000000;stroke-width:1;stroke-linecap:butt;stroke-linejoin:miter;stroke-miterlimit:4;stroke-dasharray:none"
           r="5.1023622"
           cy="0"
           cx="0" />
        <circle
           id="circle56"
           transform="translate(109.61,43.46)"
           style="opacity:1;fill:#000000;fill-opacity:0;fill-rule:nonzero;stroke:#000000;stroke-width:1;stroke-linecap:butt;stroke-linejoin:miter;stroke-miterlimit:4;stroke-dasharray:none"
           r="5.1023622"
           cy="0"
           cx="0" />
      </g>
      <g
         aria-label="Raspberry PI Zero(W)"
         style="font-style:normal;font-weight:normal;font-size:10.58333302px;line-height:1.25;font-family:sans-serif;letter-spacing:0px;word-spacing:0px;fill:#000000;fill-opacity:1;stroke:none;stroke-width:0.26458332"
         id="text108">
        <path
           d="m -79.568959,165.36438 h -0.398425 l -0.772046,-0.91777 h -0.432532 v 0.91777 h -0.306958 v -2.30839 h 0.646472 q 0.20929,0 0.348816,0.0279 0.139526,0.0264 0.251148,0.0961 0.125573,0.0791 0.195336,0.19998 0.07131,0.11938 0.07131,0.30386 0,0.2496 -0.125574,0.41858 -0.125574,0.16743 -0.345715,0.2527 z m -0.717786,-1.65881 q 0,-0.0992 -0.03566,-0.17519 -0.03411,-0.0775 -0.114722,-0.13022 -0.06666,-0.045 -0.15813,-0.062 -0.09147,-0.0186 -0.215491,-0.0186 h -0.361218 v 0.87127 h 0.310059 q 0.145727,0 0.254248,-0.0248 0.10852,-0.0264 0.184485,-0.0961 0.06976,-0.0651 0.102319,-0.14883 0.03411,-0.0853 0.03411,-0.21549 z"
           style="font-size:3.17499995px;fill:#ff0000;stroke-width:0.26458332"
           id="path4495"
           inkscape:connector-curvature="0" />
        <path
           d="m -78.010915,165.36438 h -0.289905 v -0.18448 q -0.03876,0.0264 -0.105419,0.0744 -0.06511,0.0465 -0.127125,0.0744 -0.07286,0.0357 -0.167431,0.0589 -0.09457,0.0248 -0.221692,0.0248 -0.234094,0 -0.396875,-0.15503 -0.162781,-0.15503 -0.162781,-0.39533 0,-0.19688 0.08372,-0.31781 0.08527,-0.12247 0.241846,-0.19223 0.15813,-0.0698 0.379822,-0.0946 0.221691,-0.0248 0.475939,-0.0372 v -0.045 q 0,-0.0992 -0.03566,-0.16434 -0.03411,-0.0651 -0.09922,-0.10232 -0.06201,-0.0357 -0.148828,-0.048 -0.08682,-0.0124 -0.181384,-0.0124 -0.114722,0 -0.255799,0.031 -0.141076,0.0294 -0.291455,0.0868 h -0.0155 v -0.29611 q 0.08527,-0.0232 0.246497,-0.0512 0.16123,-0.0279 0.31781,-0.0279 0.182934,0 0.31781,0.031 0.136426,0.0295 0.235644,0.10232 0.09767,0.0713 0.148829,0.18448 0.05116,0.11318 0.05116,0.28061 z m -0.289905,-0.42633 v -0.48214 q -0.133325,0.008 -0.314709,0.0233 -0.179834,0.0155 -0.285254,0.045 -0.125574,0.0357 -0.203088,0.11162 -0.07752,0.0744 -0.07752,0.20619 0,0.14883 0.08992,0.22479 0.08992,0.0744 0.274402,0.0744 0.153479,0 0.280603,-0.0589 0.127124,-0.0605 0.235644,-0.14418 z"
           style="font-size:3.17499995px;fill:#ff0000;stroke-width:0.26458332"
           id="path4497"
           inkscape:connector-curvature="0" />
        <path
           d="m -76.209474,164.86519 q 0,0.23719 -0.196888,0.38912 -0.195336,0.15193 -0.534851,0.15193 -0.192236,0 -0.353466,-0.045 -0.159681,-0.0465 -0.268201,-0.10077 v -0.32711 h 0.0155 q 0.137976,0.10387 0.306958,0.16588 0.168982,0.0605 0.324011,0.0605 0.192236,0 0.300757,-0.062 0.10852,-0.062 0.10852,-0.19534 0,-0.10232 -0.05891,-0.15503 -0.05891,-0.0527 -0.226342,-0.0899 -0.06201,-0.014 -0.162781,-0.0326 -0.09922,-0.0186 -0.181384,-0.0403 -0.227894,-0.0605 -0.324012,-0.17673 -0.09457,-0.11782 -0.09457,-0.28836 0,-0.10697 0.04341,-0.20153 0.04496,-0.0946 0.134875,-0.16899 0.08682,-0.0729 0.220142,-0.11472 0.134875,-0.0434 0.300757,-0.0434 0.155029,0 0.313159,0.0388 0.15968,0.0372 0.2651,0.0915 v 0.31161 h -0.0155 q -0.111621,-0.0822 -0.271301,-0.13798 -0.159681,-0.0574 -0.31316,-0.0574 -0.15968,0 -0.269751,0.062 -0.11007,0.0605 -0.11007,0.18139 0,0.10697 0.06666,0.16123 0.06511,0.0543 0.21084,0.0884 0.08061,0.0186 0.179834,0.0372 0.100769,0.0186 0.167432,0.0341 0.203088,0.0465 0.313159,0.15968 0.110071,0.11472 0.110071,0.30386 z"
           style="font-size:3.17499995px;fill:#ff0000;stroke-width:0.26458332"
           id="path4499"
           inkscape:connector-curvature="0" />
        <path
           d="m -74.266958,164.47761 q 0,0.21084 -0.06046,0.38603 -0.06046,0.17363 -0.170532,0.29455 -0.102319,0.11472 -0.241846,0.17828 -0.137976,0.062 -0.293005,0.062 -0.134876,0 -0.244947,-0.0295 -0.10852,-0.0294 -0.221691,-0.0915 v 0.72554 h -0.291455 v -2.3704 h 0.291455 v 0.18139 q 0.116272,-0.0977 0.260449,-0.16278 0.145727,-0.0667 0.310058,-0.0667 0.31316,0 0.486792,0.2372 0.175183,0.23564 0.175183,0.65577 z m -0.300756,0.008 q 0,-0.31316 -0.106971,-0.46818 -0.10697,-0.15503 -0.328662,-0.15503 -0.125573,0 -0.252697,0.0543 -0.127124,0.0543 -0.243396,0.14262 v 0.98134 q 0.124023,0.0558 0.21239,0.076 0.08992,0.0202 0.203088,0.0202 0.243396,0 0.379822,-0.16433 0.136426,-0.16434 0.136426,-0.4868 z"
           style="font-size:3.17499995px;fill:#ff0000;stroke-width:0.26458332"
           id="path4501"
           inkscape:connector-curvature="0" />
        <path
           d="m -72.288783,164.48536 q 0,0.21704 -0.06201,0.39068 -0.06046,0.17363 -0.164331,0.29145 -0.110071,0.12248 -0.241846,0.18449 -0.131775,0.0605 -0.289905,0.0605 -0.147277,0 -0.257348,-0.0357 -0.110071,-0.0341 -0.217041,-0.093 l -0.0186,0.0806 h -0.272851 v -2.41226 h 0.291455 v 0.86197 q 0.122473,-0.10077 0.260449,-0.16433 0.137976,-0.0651 0.310059,-0.0651 0.306958,0 0.483691,0.23565 0.178284,0.23564 0.178284,0.66507 z m -0.300757,0.008 q 0,-0.31006 -0.102319,-0.46974 -0.10232,-0.16123 -0.330213,-0.16123 -0.127124,0 -0.257348,0.0558 -0.130225,0.0543 -0.241846,0.14107 v 0.99219 q 0.124023,0.0558 0.21239,0.0775 0.08992,0.0217 0.203088,0.0217 0.241846,0 0.378272,-0.15813 0.137976,-0.15968 0.137976,-0.49919 z"
           style="font-size:3.17499995px;fill:#ff0000;stroke-width:0.26458332"
           id="path4503"
           inkscape:connector-curvature="0" />
        <path
           d="m -70.385024,164.52877 h -1.275891 q 0,0.15968 0.04806,0.27905 0.04806,0.11783 0.131775,0.19379 0.08062,0.0744 0.190686,0.11162 0.111621,0.0372 0.244946,0.0372 0.176734,0 0.355017,-0.0698 0.179834,-0.0713 0.255799,-0.13953 h 0.0155 v 0.31781 q -0.147277,0.062 -0.300756,0.10387 -0.153479,0.0419 -0.322461,0.0419 -0.430982,0 -0.672827,-0.23255 -0.241846,-0.23409 -0.241846,-0.66352 0,-0.42478 0.230994,-0.67438 0.232543,-0.2496 0.610815,-0.2496 0.350366,0 0.539502,0.20464 0.190686,0.20464 0.190686,0.58136 z m -0.283704,-0.22324 q -0.0015,-0.22944 -0.116272,-0.35502 -0.113171,-0.12557 -0.345715,-0.12557 -0.234094,0 -0.373621,0.13798 -0.137976,0.13797 -0.156579,0.34261 z"
           style="font-size:3.17499995px;fill:#ff0000;stroke-width:0.26458332"
           id="path4505"
           inkscape:connector-curvature="0" />
        <path
           d="m -68.862636,163.95051 h -0.0155 q -0.06511,-0.0155 -0.127124,-0.0217 -0.06046,-0.008 -0.144178,-0.008 -0.134875,0 -0.260449,0.0605 -0.125574,0.0589 -0.241846,0.15348 v 1.22938 h -0.291455 v -1.73168 h 0.291455 v 0.2558 q 0.173633,-0.13953 0.305408,-0.19689 0.133325,-0.0589 0.271301,-0.0589 0.07597,0 0.110071,0.005 0.03411,0.003 0.10232,0.014 z"
           style="font-size:3.17499995px;fill:#ff0000;stroke-width:0.26458332"
           id="path4507"
           inkscape:connector-curvature="0" />
        <path
           d="m -67.504579,163.95051 h -0.0155 q -0.06511,-0.0155 -0.127124,-0.0217 -0.06046,-0.008 -0.144178,-0.008 -0.134875,0 -0.260449,0.0605 -0.125574,0.0589 -0.241845,0.15348 v 1.22938 h -0.291456 v -1.73168 h 0.291456 v 0.2558 q 0.173632,-0.13953 0.305407,-0.19689 0.133325,-0.0589 0.271301,-0.0589 0.07596,0 0.110071,0.005 0.03411,0.003 0.10232,0.014 z"
           style="font-size:3.17499995px;fill:#ff0000;stroke-width:0.26458332"
           id="path4509"
           inkscape:connector-curvature="0" />
        <path
           d="m -65.729494,163.6327 -1.010791,2.3704 h -0.311608 l 0.322461,-0.72244 -0.689881,-1.64796 h 0.31626 l 0.53175,1.28365 0.536402,-1.28365 z"
           style="font-size:3.17499995px;fill:#ff0000;stroke-width:0.26458332"
           id="path4511"
           inkscape:connector-curvature="0" />
        <path
           d="m -62.698671,163.75363 q 0,0.15347 -0.05426,0.28525 -0.05271,0.13022 -0.148828,0.22634 -0.119373,0.11937 -0.282154,0.17984 -0.16278,0.0589 -0.410827,0.0589 h -0.306958 v 0.86041 h -0.306958 v -2.30839 h 0.626318 q 0.207739,0 0.351917,0.0357 0.144177,0.0341 0.255798,0.10852 0.131775,0.0884 0.203088,0.22014 0.07286,0.13178 0.07286,0.33332 z m -0.31936,0.008 q 0,-0.11938 -0.04186,-0.20774 -0.04186,-0.0884 -0.127124,-0.14418 -0.07441,-0.0481 -0.170532,-0.0682 -0.09457,-0.0217 -0.240296,-0.0217 H -63.9017 v 0.92243 h 0.258899 q 0.186035,0 0.302307,-0.0326 0.116272,-0.0341 0.189135,-0.10697 0.07286,-0.0744 0.10232,-0.15658 0.03101,-0.0822 0.03101,-0.18448 z"
           style="font-size:3.17499995px;fill:#ff0000;stroke-width:0.26458332"
           id="path4513"
           inkscape:connector-curvature="0" />
        <path
           d="m -61.47859,165.36438 h -0.911572 v -0.23564 h 0.302307 v -1.8371 h -0.302307 v -0.23565 h 0.911572 v 0.23565 h -0.302307 v 1.8371 h 0.302307 z"
           style="font-size:3.17499995px;fill:#ff0000;stroke-width:0.26458332"
           id="path4515"
           inkscape:connector-curvature="0" />
        <path
           d="m -58.150111,165.36438 h -1.801441 v -0.28525 l 1.415418,-1.75028 h -1.362708 v -0.27286 h 1.714624 v 0.27751 l -1.42937,1.75803 h 1.463477 z"
           style="font-size:3.17499995px;fill:#ff0000;stroke-width:0.26458332"
           id="path4517"
           inkscape:connector-curvature="0" />
        <path
           d="m -56.326967,164.52877 h -1.275891 q 0,0.15968 0.04806,0.27905 0.04806,0.11783 0.131775,0.19379 0.08061,0.0744 0.190686,0.11162 0.111621,0.0372 0.244946,0.0372 0.176733,0 0.355017,-0.0698 0.179834,-0.0713 0.255798,-0.13953 h 0.0155 v 0.31781 q -0.147278,0.062 -0.300757,0.10387 -0.153479,0.0419 -0.32246,0.0419 -0.430982,0 -0.672828,-0.23255 -0.241845,-0.23409 -0.241845,-0.66352 0,-0.42478 0.230993,-0.67438 0.232544,-0.2496 0.610816,-0.2496 0.350366,0 0.539502,0.20464 0.190686,0.20464 0.190686,0.58136 z m -0.283704,-0.22324 q -0.0015,-0.22944 -0.116272,-0.35502 -0.113171,-0.12557 -0.345715,-0.12557 -0.234094,0 -0.373621,0.13798 -0.137976,0.13797 -0.156579,0.34261 z"
           style="font-size:3.17499995px;fill:#ff0000;stroke-width:0.26458332"
           id="path4519"
           inkscape:connector-curvature="0" />
        <path
           d="m -54.80458,163.95051 h -0.0155 q -0.06511,-0.0155 -0.127125,-0.0217 -0.06046,-0.008 -0.144177,-0.008 -0.134875,0 -0.260449,0.0605 -0.125574,0.0589 -0.241846,0.15348 v 1.22938 h -0.291455 v -1.73168 h 0.291455 v 0.2558 q 0.173633,-0.13953 0.305408,-0.19689 0.133325,-0.0589 0.271301,-0.0589 0.07597,0 0.110071,0.005 0.03411,0.003 0.102319,0.014 z"
           style="font-size:3.17499995px;fill:#ff0000;stroke-width:0.26458332"
           id="path4521"
           inkscape:connector-curvature="0" />
        <path
           d="m -53.051198,164.49932 q 0,0.42323 -0.217041,0.66817 -0.217041,0.24495 -0.58136,0.24495 -0.367419,0 -0.58446,-0.24495 -0.215491,-0.24494 -0.215491,-0.66817 0,-0.42323 0.215491,-0.66818 0.217041,-0.2465 0.58446,-0.2465 0.364319,0 0.58136,0.2465 0.217041,0.24495 0.217041,0.66818 z m -0.300757,0 q 0,-0.33642 -0.131775,-0.4992 -0.131774,-0.16433 -0.365869,-0.16433 -0.237195,0 -0.368969,0.16433 -0.130225,0.16278 -0.130225,0.4992 0,0.32556 0.131775,0.49454 0.131775,0.16743 0.367419,0.16743 0.232544,0 0.364319,-0.16588 0.133325,-0.16743 0.133325,-0.49609 z"
           style="font-size:3.17499995px;fill:#ff0000;stroke-width:0.26458332"
           id="path4523"
           inkscape:connector-curvature="0" />
        <path
           d="m -51.671437,166.0031 h -0.355018 q -0.274401,-0.31471 -0.42633,-0.68678 -0.151929,-0.37207 -0.151929,-0.83871 0,-0.46664 0.151929,-0.83871 0.151929,-0.37207 0.42633,-0.68678 h 0.355018 v 0.0155 q -0.125574,0.11317 -0.240296,0.262 -0.113171,0.14727 -0.21084,0.34416 -0.09302,0.19069 -0.151928,0.42013 -0.05736,0.22944 -0.05736,0.48369 0,0.2651 0.05581,0.48524 0.05736,0.22015 0.153479,0.41858 0.09302,0.19069 0.21239,0.34417 0.119373,0.15503 0.238746,0.262 z"
           style="font-size:3.17499995px;fill:#ff0000;stroke-width:0.26458332"
           id="path4525"
           inkscape:connector-curvature="0" />
        <path
           d="m -48.443727,163.05599 -0.599963,2.30839 h -0.345715 l -0.485242,-1.91616 -0.47439,1.91616 h -0.337964 l -0.610815,-2.30839 h 0.314709 l 0.485242,1.91927 0.47749,-1.91927 h 0.311609 l 0.482141,1.93787 0.482141,-1.93787 z"
           style="font-size:3.17499995px;fill:#ff0000;stroke-width:0.26458332"
           id="path4527"
           inkscape:connector-curvature="0" />
        <path
           d="m -47.141481,164.47761 q 0,0.46664 -0.151929,0.83871 -0.151928,0.37207 -0.42633,0.68678 h -0.355017 v -0.0155 q 0.119372,-0.10697 0.238745,-0.262 0.120923,-0.15348 0.21239,-0.34417 0.09612,-0.19843 0.151929,-0.41858 0.05736,-0.22014 0.05736,-0.48524 0,-0.25425 -0.05736,-0.48369 -0.05736,-0.22944 -0.151929,-0.42013 -0.09767,-0.19689 -0.21239,-0.34416 -0.113172,-0.14883 -0.238745,-0.262 v -0.0155 h 0.355017 q 0.274402,0.31471 0.42633,0.68678 0.151929,0.37207 0.151929,0.83871 z"
           style="font-size:3.17499995px;fill:#ff0000;stroke-width:0.26458332"
           id="path4529"
           inkscape:connector-curvature="0" />
      </g>
      <path
         inkscape:connector-curvature="0"
         id="path4577-6"
         d="m -38.866668,184.37633 h -6.991823 v 5.54411 h 6.991823 z"
         style="opacity:1;fill:none;fill-rule:nonzero;stroke:#ff0000;stroke-width:0.1968904;stroke-linecap:butt;stroke-linejoin:miter;stroke-miterlimit:4;stroke-dasharray:none" />
      <path
         inkscape:connector-curvature="0"
         id="path4577-6-1"
         d="m -50.124511,184.37633 h -6.991823 v 5.54411 h 6.991823 z"
         style="opacity:1;fill:none;fill-rule:nonzero;stroke:#ff0000;stroke-width:0.19689041;stroke-linecap:butt;stroke-linejoin:miter;stroke-miterlimit:4;stroke-dasharray:none" />
    </g>
  </g>
</svg>
