<?xml version="1.0" encoding="UTF-8" standalone="no"?>
<!-- Created with Inkscape (http://www.inkscape.org/) -->

<svg
   xmlns:dc="http://purl.org/dc/elements/1.1/"
   xmlns:cc="http://creativecommons.org/ns#"
   xmlns:rdf="http://www.w3.org/1999/02/22-rdf-syntax-ns#"
   xmlns:svg="http://www.w3.org/2000/svg"
   xmlns="http://www.w3.org/2000/svg"
   xmlns:sodipodi="http://sodipodi.sourceforge.net/DTD/sodipodi-0.dtd"
   xmlns:inkscape="http://www.inkscape.org/namespaces/inkscape"
   width="89mm"
   height="59.5mm"
   viewBox="0 0 89 59.5"
   version="1.1"
   id="svg13486"
   inkscape:version="0.92.4 (5da689c313, 2019-01-14)"
   sodipodi:docname="raspberry_pi_4.svg">
  <defs
     id="defs13480">
    <marker
       style="overflow:visible"
       refY="0"
       refX="0"
       orient="auto"
       id="DistanceX">
      <path
         id="path13490"
         style="stroke:#000000;stroke-width:0.5"
         d="M 3,-3 -3,3 M 0,-5 V 5"
         inkscape:connector-curvature="0" />
    </marker>
    <pattern
       y="0"
       x="0"
       width="8"
       patternUnits="userSpaceOnUse"
       id="Hatch"
       height="8">
      <path
         id="path13493"
         stroke-width="0.25"
         stroke="#000000"
         linecap="square"
         d="M8 4 l-4,4" />
      <path
         id="path13495"
         stroke-width="0.25"
         stroke="#000000"
         linecap="square"
         d="M6 2 l-4,4" />
      <path
         id="path13497"
         stroke-width="0.25"
         stroke="#000000"
         linecap="square"
         d="M4 0 l-4,4" />
    </pattern>
    <symbol
       id="*Model_Space" />
    <symbol
       id="*Paper_Space" />
    <symbol
       id="FIGURE_CIRCLE">
      <path
         id="path13502"
         style="fill:none;stroke:#000000;stroke-linecap:round"
         d="m 1.889764,1122.5197 a 1.889764,1.889764 0 1 0 -3.779528,0 1.889764,1.889764 0 1 0 3.779528,0 z"
         inkscape:connector-curvature="0" />
    </symbol>
    <symbol
       id="FIGURE_SQUARE">
      <path
         id="path13505"
         style="fill:none;stroke:#000000;stroke-linecap:round"
         d="m -1.889764,1124.4094 v -3.7795 h 3.779528 v 3.7795 z"
         inkscape:connector-curvature="0" />
    </symbol>
    <symbol
       id="FIGURE_HEX">
      <path
         id="path13508"
         style="fill:none;stroke:#000000;stroke-linecap:round"
         d="m -1.889764,1122.5197 0.944882,-1.8898 h 1.889764 l 0.944882,1.8898 -0.944882,1.8897 h -1.889764 z"
         inkscape:connector-curvature="0" />
    </symbol>
    <symbol
       id="FIGURE_OCT">
      <path
         id="path13511"
         style="fill:none;stroke:#000000;stroke-linecap:round"
         d="m -1.889764,1123.3024 v -1.5655 l 1.107024,-1.107 h 1.56548 l 1.107024,1.107 v 1.5655 l -1.107024,1.107 h -1.56548 z"
         inkscape:connector-curvature="0" />
    </symbol>
    <symbol
       id="FIGURE_OBLONG">
      <path
         id="path13514"
         style="fill:none;stroke:#000000;stroke-linecap:round"
         d="m -1.889764,1122.9921 v -0.9449 l 0.317481,-0.9448 0.627401,-0.4725 h 1.889764 l 0.627401,0.4725 0.317481,0.9448 v 0.9449 l -0.317481,0.9449 -0.627401,0.4724 h -1.889764 l -0.627401,-0.4724 z"
         inkscape:connector-curvature="0" />
    </symbol>
    <symbol
       id="FIGURE_TRI">
      <path
         id="path13517"
         style="fill:none;stroke:#000000;stroke-linecap:round"
         d="M -1.889764,1124.4094 0,1120.6299 l 1.889764,3.7795 z"
         inkscape:connector-curvature="0" />
    </symbol>
    <symbol
       id="FIGURE_CROSS">
      <path
         id="path13520"
         style="fill:none;stroke:#000000;stroke-linecap:round"
         d="M -1.889764,1122.5197 H 1.889764"
         inkscape:connector-curvature="0" />
      <path
         id="path13522"
         style="fill:none;stroke:#000000;stroke-linecap:round"
         d="m 0,1120.6299 v 3.7795"
         inkscape:connector-curvature="0" />
    </symbol>
    <symbol
       id="FIGURE_DIAMOND">
      <path
         id="path13525"
         style="fill:none;stroke:#000000;stroke-linecap:round"
         d="M -1.889764,1122.5197 0,1120.6299 1.889764,1122.5197 0,1124.4094 Z"
         inkscape:connector-curvature="0" />
    </symbol>
  </defs>
  <sodipodi:namedview
     id="base"
     pagecolor="#ffffff"
     bordercolor="#666666"
     borderopacity="1.0"
     inkscape:pageopacity="0.0"
     inkscape:pageshadow="2"
     inkscape:zoom="5.6"
     inkscape:cx="161.2258"
     inkscape:cy="119.80348"
     inkscape:document-units="mm"
     inkscape:current-layer="layer1"
     showgrid="false"
     inkscape:window-width="3240"
     inkscape:window-height="2035"
     inkscape:window-x="-13"
     inkscape:window-y="-13"
     inkscape:window-maximized="1" />
  <metadata
     id="metadata13483">
    <rdf:RDF>
      <cc:Work
         rdf:about="">
        <dc:format>image/svg+xml</dc:format>
        <dc:type
           rdf:resource="http://purl.org/dc/dcmitype/StillImage" />
        <dc:title></dc:title>
      </cc:Work>
    </rdf:RDF>
  </metadata>
  <g
     inkscape:label="Layer 1"
     inkscape:groupmode="layer"
     id="layer1"
     transform="translate(0,-237.5)">
    <g
       transform="matrix(0.26458333,0,0,0.26458333,0.36906896,-2.8365054)"
       inkscape:label="0"
       id="g13546"
       style="stroke:#ff0000;stroke-opacity:1">
      <path
         inkscape:connector-curvature="0"
         d="m 18.330709,924.09449 a 5.1023625,5.1023625 0 1 0 -10.204725,0 5.1023625,5.1023625 0 1 0 10.204725,0 z"
         style="fill:none;stroke:#ff0000;stroke-linecap:round;stroke-opacity:1"
         id="path13530" />
      <path
         inkscape:connector-curvature="0"
         d="m 24.566929,924.09449 a 11.338583,11.338583 0 1 0 -22.677165,0 11.338583,11.338583 0 1 0 22.677165,0 z"
         style="fill:none;stroke:#ff0000;stroke-linecap:round;stroke-opacity:1"
         id="path13532" />
      <path
         inkscape:connector-curvature="0"
         d="m 18.330709,1109.2913 a 5.1023625,5.1023625 0 1 0 -10.204725,0 5.1023625,5.1023625 0 1 0 10.204725,0 z"
         style="fill:none;stroke:#ff0000;stroke-linecap:round;stroke-opacity:1"
         id="path13534" />
      <path
         inkscape:connector-curvature="0"
         d="m 24.566929,1109.2913 a 11.338583,11.338583 0 1 0 -22.677165,0 11.338583,11.338583 0 1 0 22.677165,0 z"
         style="fill:none;stroke:#ff0000;stroke-linecap:round;stroke-opacity:1"
         id="path13536" />
      <path
         inkscape:connector-curvature="0"
         d="m 237.54331,924.09449 a 5.102365,5.102365 0 1 0 -10.20473,0 5.102365,5.102365 0 1 0 10.20473,0 z"
         style="fill:none;stroke:#ff0000;stroke-linecap:round;stroke-opacity:1"
         id="path13538" />
      <path
         inkscape:connector-curvature="0"
         d="m 243.77953,924.09449 a 11.338585,11.338585 0 1 0 -22.67717,0 11.338585,11.338585 0 1 0 22.67717,0 z"
         style="fill:none;stroke:#ff0000;stroke-linecap:round;stroke-opacity:1"
         id="path13540" />
      <path
         inkscape:connector-curvature="0"
         d="m 237.54331,1109.2913 a 5.102365,5.102365 0 1 0 -10.20473,0 5.102365,5.102365 0 1 0 10.20473,0 z"
         style="fill:none;stroke:#ff0000;stroke-linecap:round;stroke-opacity:1"
         id="path13542" />
      <path
         inkscape:connector-curvature="0"
         d="m 243.77953,1109.2913 a 11.338585,11.338585 0 1 0 -22.67717,0 11.338585,11.338585 0 1 0 22.67717,0 z"
         style="fill:none;stroke:#ff0000;stroke-linecap:round;stroke-opacity:1"
         id="path13544" />
    </g>
    <g
       transform="matrix(0.26458333,0,0,0.26458333,0.36906896,-2.8365054)"
       inkscape:label="BOARD_OUTLINE"
       id="g13550"
       style="stroke:#ff0000;stroke-opacity:1">
      <path
         inkscape:connector-curvature="0"
         d="M 11.338583,1122.5197 H 309.92126 a 11.338574,11.338574 0 0 0 11.33858,-11.3386 V 922.20472 A 11.338574,11.338574 0 0 0 309.92126,910.86614 H 11.338583 A 11.338574,11.338574 0 0 0 0,922.20472 v 188.97638 a 11.338574,11.338574 0 0 0 11.338583,11.3386 z"
         style="fill:none;stroke:#ff0000;stroke-linecap:round;stroke-opacity:1"
         id="path13548" />
    </g>
    <path
       id="path14854"
       style="fill:none;stroke:#ff0000;stroke-width:0.26458332;stroke-linecap:round;stroke-opacity:1"
       d="m 88.369069,260.5935 v 13.14 H 70.869067 v -13.14 h 17.500002 v -0.68001 h -0.3 v 0.68001"
       inkscape:connector-curvature="0" />
    <path
       id="path14856"
       style="fill:none;stroke:#ff0000;stroke-width:0.26458332;stroke-linecap:round;stroke-opacity:1"
       d="m 88.369069,273.7335 v 0.68 h -0.3 v -0.68"
       inkscape:connector-curvature="0" />
    <path
       id="path14874"
       style="fill:none;stroke:#ff0000;stroke-width:0.26458332;stroke-linecap:round;stroke-opacity:1"
       d="m 36.769067,294.99351 v -7.34999 h 6.199999 v 7.34999 h -6.199999 l -0.499999,0.50001 v 0.1 h 7.2 v -0.1 l -0.500002,-0.50001"
       inkscape:connector-curvature="0" />
    <path
       id="path14876"
       style="fill:none;stroke:#ff0000;stroke-width:0.26458332;stroke-linecap:round;stroke-opacity:1"
       d="m 23.26907,294.99351 v -7.34999 h 6.199997 v 7.34999 H 23.26907 l -0.500002,0.50001 v 0.1 h 7.200001 v -0.1 l -0.500002,-0.50001"
       inkscape:connector-curvature="0" />
    <path
       id="path14898"
       style="fill:none;stroke:#ff0000;stroke-width:0.26458332;stroke-linecap:round;stroke-opacity:1"
       d="M 39.419067,269.16351 H 50.919068 V 254.16349 H 39.419067 v 15.00002"
       inkscape:connector-curvature="0" />
    <path
       id="path14912"
       style="fill:none;stroke:#ff0000;stroke-width:0.26458332;stroke-linecap:round;stroke-opacity:1"
       d="m 7.2440709,295.41351 h 8.6499981 v -7.4 H 7.2440709"
       inkscape:connector-curvature="0" />
    <path
       id="path14914"
       style="fill:none;stroke:#ff0000;stroke-width:0.26458332;stroke-linecap:round;stroke-opacity:1"
       d="m 7.2440709,288.01351 v 7.4"
       inkscape:connector-curvature="0" />
    <path
       id="path14932"
       style="fill:none;stroke:#ff0000;stroke-width:0.26458332;stroke-linecap:round;stroke-opacity:1"
       d="M 88.369069,256.1685 V 240.65849 H 67.019067 v 15.51001 h 21.350002"
       inkscape:connector-curvature="0" />
    <path
       id="path14934"
       style="fill:none;stroke:#ff0000;stroke-width:0.26458332;stroke-linecap:round;stroke-opacity:1"
       d="m 45.419068,293.8635 h 2.849999 v -3.4 l 1.1,-1.09998 v -13.40001 l -1.150001,-1.15001 v -3.34999 h -2.799998 v 22.39999"
       inkscape:connector-curvature="0" />
    <path
       id="path14936"
       style="fill:none;stroke:#ff0000;stroke-width:0.26458332;stroke-linecap:round;stroke-opacity:1"
       d="m 45.419068,290.6635 h 0.899999 v -15.99999 h -0.899999"
       inkscape:connector-curvature="0" />
    <path
       id="path14938"
       style="fill:none;stroke:#ff0000;stroke-width:0.26458332;stroke-linecap:round;stroke-opacity:1"
       d="m 5.8190701,254.96351 h -2.849999 v 3.4 l -1.0999999,1.09998 v 13.4 l 1.1499982,1.15002 v 3.34999 h 2.8000007 v -22.39999"
       inkscape:connector-curvature="0" />
    <path
       id="path14940"
       style="fill:none;stroke:#ff0000;stroke-width:0.26458332;stroke-linecap:round;stroke-opacity:1"
       d="M 5.8190701,258.16348 H 4.9190687 v 16.00002 h 0.9000014"
       inkscape:connector-curvature="0" />
    <path
       id="path14942"
       style="fill:none;stroke:#ff0000;stroke-width:0.26458332;stroke-linecap:round;stroke-opacity:1"
       d="m 50.869067,294.16351 h 6.999999 v -12.5 h -6.999999 v 12.5"
       inkscape:connector-curvature="0" />
    <path
       id="path14944"
       style="fill:none;stroke:#ff0000;stroke-width:0.26458332;stroke-linecap:round;stroke-opacity:1"
       d="m 51.369069,296.66351 h 5.999998 v -2.5 h -5.999998 v 2.5"
       inkscape:connector-curvature="0" />
    <path
       id="path15002"
       style="fill:none;stroke:#ff0000;stroke-width:0.26458332;stroke-linecap:round;stroke-opacity:1"
       d="m 88.369069,291.7335 h -17.7 v -13.14 h 17.7 v 13.92002 h -0.500001 v -0.78002"
       inkscape:connector-curvature="0" />
    <path
       id="path15004"
       style="fill:none;stroke:#ff0000;stroke-width:0.26458332;stroke-linecap:round;stroke-opacity:1"
       d="m 88.369069,278.5935 v -0.77999 h -0.500001 v 0.77999"
       inkscape:connector-curvature="0" />
    <path
       id="path15730"
       style="fill:none;stroke:#ff0000;stroke-width:0.26458332;stroke-linecap:round;stroke-opacity:1"
       d="m 63.869067,266.1635 h -8 v 8 h 8 v -8"
       inkscape:connector-curvature="0" />
    <path
       id="path15732"
       style="fill:none;stroke:#ff0000;stroke-width:0.26458332;stroke-linecap:round;stroke-opacity:1"
       d="m 63.510067,266.66351 a 0.1410005,0.1410005 0 0 0 -0.282001,0 0.1410005,0.1410005 0 0 0 0.282001,0 z"
       inkscape:connector-curvature="0" />
    <path
       id="path15840"
       style="fill:none;stroke:#ff0000;stroke-width:0.26458332;stroke-linecap:round;stroke-opacity:1"
       d="M 37.119068,269.16351 V 254.16349 H 22.119069 v 14.49403 l 0.506,0.50599 h 14.493999"
       inkscape:connector-curvature="0" />
    <path
       id="path15842"
       style="fill:none;stroke:#ff0000;stroke-width:0.26458332;stroke-linecap:round;stroke-opacity:1"
       d="m 59.369068,250.30351 h 4.999998 v -5.00002 h -4.999998 v 5.00002"
       inkscape:connector-curvature="0" />
    <path
       id="path15844"
       style="fill:none;stroke:#ff0000;stroke-width:0.26458332;stroke-linecap:round;stroke-opacity:1"
       d="m 7.46907,244.16351 h 50.799998 v -5.00002 H 7.46907 v 5.00002"
       inkscape:connector-curvature="0" />
    <circle
       class="cls-66"
       cx="61.889423"
       cy="290.63419"
       r="1.4993037"
       id="circle7025"
       style="fill:none;stroke:#000000;stroke-width:0.1;stroke-miterlimit:4;stroke-dasharray:none;stroke-opacity:1" />
    <circle
       class="cls-66"
       cx="3.8742571"
       cy="290.64526"
       r="1.4993037"
       id="circle7025-9"
       style="fill:none;stroke:#000000;stroke-width:0.1;stroke-miterlimit:4;stroke-dasharray:none;stroke-opacity:1" />
    <circle
       class="cls-66"
       cx="3.8742559"
       cy="241.68321"
       r="1.4993037"
       id="circle7025-9-7"
       style="fill:none;stroke:#000000;stroke-width:0.1;stroke-miterlimit:4;stroke-dasharray:none;stroke-opacity:1" />
    <circle
       class="cls-66"
       cx="61.840858"
       cy="241.67374"
       r="1.4993037"
       id="circle7025-9-79"
       style="fill:none;stroke:#000000;stroke-width:0.1;stroke-miterlimit:4;stroke-dasharray:none;stroke-opacity:1" />
    <g
       aria-label="Raspberry Pi 4B"
       style="font-style:normal;font-weight:normal;font-size:10.58333302px;line-height:1.25;font-family:sans-serif;letter-spacing:0px;word-spacing:0px;fill:#000000;fill-opacity:1;stroke:none;stroke-width:0.26458332"
       id="text25335">
      <path
         d="m 25.050766,250.55617 h -0.442695 l -0.857828,-1.01975 h -0.480591 v 1.01975 h -0.341065 v -2.56488 h 0.718303 q 0.232544,0 0.387573,0.031 0.155029,0.0293 0.279053,0.1068 0.139526,0.0879 0.217041,0.22221 0.07924,0.13263 0.07924,0.33762 0,0.27733 -0.139526,0.46508 -0.139527,0.18604 -0.384129,0.28078 z m -0.797539,-1.84313 q 0,-0.11024 -0.03962,-0.19465 -0.0379,-0.0861 -0.127469,-0.14469 -0.07407,-0.05 -0.175699,-0.0689 -0.101631,-0.0207 -0.239435,-0.0207 h -0.401353 v 0.96807 h 0.344509 q 0.16192,0 0.282498,-0.0276 0.120579,-0.0293 0.204983,-0.1068 0.07752,-0.0724 0.113688,-0.16536 0.0379,-0.0947 0.0379,-0.23944 z"
         style="font-size:3.52777767px;fill:#ff0000;fill-opacity:1;stroke-width:0.26458332"
         id="path25337" />
      <path
         d="M 26.781927,250.55617 H 26.45981 v -0.20499 q -0.04306,0.0293 -0.117133,0.0827 -0.07235,0.0517 -0.141249,0.0827 -0.08096,0.0396 -0.186035,0.0655 -0.105076,0.0276 -0.246324,0.0276 -0.260105,0 -0.440973,-0.17226 -0.180867,-0.17225 -0.180867,-0.43925 0,-0.21876 0.09302,-0.35312 0.09474,-0.13608 0.268718,-0.2136 0.1757,-0.0775 0.422024,-0.10507 0.246324,-0.0276 0.528822,-0.0413 v -0.05 q 0,-0.11024 -0.03962,-0.18259 -0.0379,-0.0723 -0.110243,-0.11368 -0.0689,-0.0396 -0.165365,-0.0534 -0.09646,-0.0138 -0.201538,-0.0138 -0.127469,0 -0.284221,0.0344 -0.156751,0.0327 -0.323838,0.0965 h -0.01723 v -0.32901 q 0.09474,-0.0258 0.273885,-0.0568 0.179145,-0.031 0.353122,-0.031 0.203261,0 0.353123,0.0345 0.151584,0.0327 0.261827,0.11369 0.10852,0.0792 0.165365,0.20499 0.05684,0.12574 0.05684,0.31178 z m -0.322117,-0.4737 v -0.53572 q -0.148139,0.009 -0.349677,0.0258 -0.199816,0.0172 -0.316949,0.05 -0.139526,0.0396 -0.225654,0.12402 -0.08613,0.0827 -0.08613,0.2291 0,0.16536 0.09991,0.24977 0.09991,0.0827 0.304891,0.0827 0.170532,0 0.311781,-0.0655 0.141249,-0.0672 0.261827,-0.16019 z"
         style="font-size:3.52777767px;fill:#ff0000;fill-opacity:1;stroke-width:0.26458332"
         id="path25339" />
      <path
         d="m 28.783527,250.00151 q 0,0.26355 -0.218764,0.43236 -0.217041,0.16881 -0.594279,0.16881 -0.213596,0 -0.392741,-0.05 -0.177422,-0.0517 -0.298,-0.11196 v -0.36346 h 0.01722 q 0.153307,0.11541 0.341065,0.18431 0.187757,0.0672 0.360012,0.0672 0.213596,0 0.334174,-0.0689 0.120579,-0.0689 0.120579,-0.21704 0,-0.11369 -0.06546,-0.17226 -0.06546,-0.0586 -0.251492,-0.0999 -0.0689,-0.0155 -0.180868,-0.0362 -0.110243,-0.0207 -0.201538,-0.0448 -0.253214,-0.0672 -0.360012,-0.19637 -0.105076,-0.13092 -0.105076,-0.3204 0,-0.11885 0.04823,-0.22393 0.04995,-0.10507 0.149861,-0.18776 0.09646,-0.081 0.244602,-0.12747 0.149862,-0.0482 0.334174,-0.0482 0.172255,0 0.347955,0.0431 0.177422,0.0413 0.294556,0.10163 v 0.34623 h -0.01723 q -0.124023,-0.0913 -0.301446,-0.15331 -0.177422,-0.0637 -0.347954,-0.0637 -0.177423,0 -0.299724,0.0689 -0.1223,0.0672 -0.1223,0.20154 0,0.11885 0.07407,0.17914 0.07235,0.0603 0.234267,0.0982 0.08957,0.0207 0.199815,0.0413 0.111966,0.0207 0.186035,0.0379 0.225654,0.0517 0.347955,0.17742 0.122301,0.12747 0.122301,0.33762 z"
         style="font-size:3.52777767px;fill:#ff0000;fill-opacity:1;stroke-width:0.26458332"
         id="path25341" />
      <path
         d="m 30.941879,249.57087 q 0,0.23427 -0.06718,0.42891 -0.06718,0.19293 -0.18948,0.32729 -0.113688,0.12747 -0.268718,0.19809 -0.153307,0.0689 -0.325561,0.0689 -0.149862,0 -0.272163,-0.0327 -0.120578,-0.0327 -0.246324,-0.10164 v 0.80616 h -0.323839 v -2.63378 h 0.323839 v 0.20154 q 0.129191,-0.10852 0.289388,-0.18087 0.161919,-0.0741 0.344509,-0.0741 0.347955,0 0.54088,0.26355 0.194648,0.26183 0.194648,0.72864 z m -0.334174,0.009 q 0,-0.34795 -0.118856,-0.52021 -0.118856,-0.17225 -0.36518,-0.17225 -0.139526,0 -0.280775,0.0603 -0.141249,0.0603 -0.27044,0.15847 v 1.09038 q 0.137804,0.062 0.235989,0.0844 0.09991,0.0224 0.225654,0.0224 0.27044,0 0.422024,-0.18259 0.151584,-0.18259 0.151584,-0.54088 z"
         style="font-size:3.52777767px;fill:#ff0000;fill-opacity:1;stroke-width:0.26458332"
         id="path25343" />
      <path
         d="m 33.13985,249.57948 q 0,0.24116 -0.0689,0.43409 -0.06718,0.19292 -0.18259,0.32383 -0.122301,0.13609 -0.268717,0.20499 -0.146417,0.0672 -0.322117,0.0672 -0.163642,0 -0.285943,-0.0396 -0.1223,-0.0379 -0.241156,-0.10335 l -0.02067,0.0896 h -0.303168 v -2.68029 h 0.323839 v 0.95774 q 0.136081,-0.11197 0.289388,-0.18259 0.153306,-0.0724 0.344509,-0.0724 0.341065,0 0.537435,0.26183 0.198093,0.26183 0.198093,0.73897 z m -0.334174,0.009 q 0,-0.34451 -0.113688,-0.52194 -0.113688,-0.17914 -0.366903,-0.17914 -0.141249,0 -0.285943,0.062 -0.144694,0.0603 -0.268717,0.15675 v 1.10243 q 0.137804,0.062 0.235989,0.0861 0.09991,0.0241 0.225653,0.0241 0.268718,0 0.420302,-0.1757 0.153307,-0.17743 0.153307,-0.55466 z"
         style="font-size:3.52777767px;fill:#ff0000;fill-opacity:1;stroke-width:0.26458332"
         id="path25345" />
      <path
         d="m 35.255139,249.62771 h -1.417657 q 0,0.17743 0.0534,0.31006 0.0534,0.13092 0.146417,0.21532 0.08957,0.0827 0.211873,0.12402 0.124024,0.0413 0.272163,0.0413 0.19637,0 0.394463,-0.0775 0.199816,-0.0792 0.284221,-0.15503 h 0.01723 v 0.35312 q -0.163642,0.0689 -0.334174,0.11542 -0.170532,0.0465 -0.35829,0.0465 -0.478868,0 -0.747586,-0.25838 -0.268717,-0.2601 -0.268717,-0.73725 0,-0.47198 0.256659,-0.74931 0.258383,-0.27733 0.678684,-0.27733 0.389296,0 0.599447,0.22738 0.211873,0.22738 0.211873,0.64595 z m -0.315226,-0.24804 q -0.0017,-0.25494 -0.129191,-0.39447 -0.125746,-0.13952 -0.384128,-0.13952 -0.260105,0 -0.415134,0.1533 -0.153307,0.15331 -0.173978,0.38069 z"
         style="font-size:3.52777767px;fill:#ff0000;fill-opacity:1;stroke-width:0.26458332"
         id="path25347" />
      <path
         d="m 36.94668,248.9852 h -0.01723 q -0.07235,-0.0172 -0.141249,-0.0241 -0.06718,-0.009 -0.160197,-0.009 -0.149862,0 -0.289388,0.0672 -0.139527,0.0654 -0.268718,0.17053 v 1.36598 h -0.323839 v -1.92409 h 0.323839 v 0.28422 q 0.192926,-0.15503 0.339342,-0.21876 0.148139,-0.0655 0.301446,-0.0655 0.08441,0 0.122301,0.005 0.0379,0.003 0.113688,0.0155 z"
         style="font-size:3.52777767px;fill:#ff0000;fill-opacity:1;stroke-width:0.26458332"
         id="path25349" />
      <path
         d="m 38.455632,248.9852 h -0.01723 q -0.07235,-0.0172 -0.141249,-0.0241 -0.06718,-0.009 -0.160197,-0.009 -0.149862,0 -0.289388,0.0672 -0.139527,0.0654 -0.268718,0.17053 v 1.36598 h -0.323839 v -1.92409 h 0.323839 v 0.28422 q 0.192926,-0.15503 0.339342,-0.21876 0.148139,-0.0655 0.301446,-0.0655 0.08441,0 0.122301,0.005 0.0379,0.003 0.113688,0.0155 z"
         style="font-size:3.52777767px;fill:#ff0000;fill-opacity:1;stroke-width:0.26458332"
         id="path25351" />
      <path
         d="m 40.42795,248.63208 -1.123101,2.63378 h -0.346233 l 0.35829,-0.80271 -0.766533,-1.83107 h 0.351399 l 0.590834,1.42627 0.596002,-1.42627 z"
         style="font-size:3.52777767px;fill:#ff0000;fill-opacity:1;stroke-width:0.26458332"
         id="path25353" />
      <path
         d="m 43.795531,248.76644 q 0,0.17053 -0.06029,0.31695 -0.05857,0.14469 -0.165365,0.25149 -0.132636,0.13264 -0.313503,0.19982 -0.180868,0.0655 -0.456475,0.0655 h -0.341065 v 0.95602 H 42.11777 v -2.56488 h 0.695909 q 0.230821,0 0.391018,0.0396 0.160197,0.0379 0.284221,0.12058 0.146416,0.0982 0.225653,0.2446 0.08096,0.14642 0.08096,0.37035 z m -0.354845,0.009 q 0,-0.13263 -0.04651,-0.23082 -0.04651,-0.0982 -0.141248,-0.1602 -0.08268,-0.0534 -0.189481,-0.0758 -0.105075,-0.0241 -0.266995,-0.0241 h -0.337619 v 1.02491 H 42.7465 q 0.206705,0 0.335896,-0.0362 0.129191,-0.0379 0.210151,-0.11886 0.08096,-0.0827 0.113688,-0.17397 0.03445,-0.0913 0.03445,-0.20499 z"
         style="font-size:3.52777767px;fill:#ff0000;fill-opacity:1;stroke-width:0.26458332"
         id="path25355" />
      <path
         d="m 44.568954,248.30997 h -0.36518 v -0.3359 h 0.36518 z m -0.02067,2.2462 h -0.323839 v -1.92409 h 0.323839 z"
         style="font-size:3.52777767px;fill:#ff0000;fill-opacity:1;stroke-width:0.26458332"
         id="path25357" />
      <path
         d="M 48.186303,249.83442 H 47.80562 v 0.72175 h -0.330729 v -0.72175 h -1.228176 v -0.39619 l 1.241957,-1.44694 h 0.316948 v 1.56752 h 0.380683 z m -0.711412,-0.27561 v -1.15755 l -0.99391,1.15755 z"
         style="font-size:3.52777767px;fill:#ff0000;fill-opacity:1;stroke-width:0.26458332"
         id="path25359" />
      <path
         d="m 50.639212,249.76724 q 0,0.1912 -0.07235,0.33762 -0.07235,0.14642 -0.194648,0.24116 -0.144694,0.11368 -0.318672,0.16192 -0.172254,0.0482 -0.439249,0.0482 h -0.909505 v -2.56488 h 0.759643 q 0.280775,0 0.420302,0.0207 0.139526,0.0207 0.266995,0.0861 0.141249,0.0741 0.204983,0.1912 0.06373,0.11542 0.06373,0.27734 0,0.18259 -0.09302,0.31178 -0.09302,0.12746 -0.248046,0.20498 v 0.0138 q 0.260104,0.0534 0.409966,0.2291 0.149862,0.17398 0.149862,0.44097 z m -0.573609,-1.15583 q 0,-0.093 -0.03101,-0.15675 -0.03101,-0.0637 -0.09991,-0.10335 -0.08096,-0.0465 -0.196371,-0.0569 -0.115411,-0.0121 -0.285943,-0.0121 h -0.406521 v 0.7407 h 0.440972 q 0.160197,0 0.254937,-0.0155 0.09474,-0.0172 0.1757,-0.0689 0.08096,-0.0517 0.113688,-0.13264 0.03445,-0.0827 0.03445,-0.19465 z m 0.218764,1.16961 q 0,-0.15503 -0.04651,-0.24632 -0.04651,-0.0913 -0.16881,-0.15503 -0.08268,-0.0431 -0.201538,-0.0551 -0.117133,-0.0138 -0.285943,-0.0138 h -0.535712 v 0.95429 h 0.451307 q 0.223932,0 0.366903,-0.0224 0.142972,-0.0241 0.234267,-0.0861 0.09646,-0.0672 0.141249,-0.15331 0.04479,-0.0861 0.04479,-0.22221 z"
         style="font-size:3.52777767px;fill:#ff0000;fill-opacity:1;stroke-width:0.26458332"
         id="path25361" />
    </g>
  </g>
</svg>
