<?xml version="1.0" encoding="UTF-8" standalone="no"?>
<svg
   xmlns:dc="http://purl.org/dc/elements/1.1/"
   xmlns:cc="http://creativecommons.org/ns#"
   xmlns:rdf="http://www.w3.org/1999/02/22-rdf-syntax-ns#"
   xmlns:svg="http://www.w3.org/2000/svg"
   xmlns="http://www.w3.org/2000/svg"
   xmlns:sodipodi="http://sodipodi.sourceforge.net/DTD/sodipodi-0.dtd"
   xmlns:inkscape="http://www.inkscape.org/namespaces/inkscape"
   width="338.70081"
   height="229.51965"
   version="1.1"
   id="svg9662"
   sodipodi:docname="raspberry_pi_3b.svg"
   inkscape:version="0.92.1 r15371">
  <metadata
     id="metadata9666">
    <rdf:RDF>
      <cc:Work
         rdf:about="">
        <dc:format>image/svg+xml</dc:format>
        <dc:type
           rdf:resource="http://purl.org/dc/dcmitype/StillImage" />
        <dc:title />
      </cc:Work>
    </rdf:RDF>
  </metadata>
  <sodipodi:namedview
     pagecolor="#ffffff"
     bordercolor="#666666"
     borderopacity="1"
     objecttolerance="10"
     gridtolerance="10"
     guidetolerance="10"
     inkscape:pageopacity="0"
     inkscape:pageshadow="2"
     inkscape:window-width="1920"
     inkscape:window-height="1017"
     id="namedview9664"
     showgrid="false"
     inkscape:zoom="1.4487129"
     inkscape:cx="326.74029"
     inkscape:cy="13.619605"
     inkscape:window-x="-8"
     inkscape:window-y="-8"
     inkscape:window-maximized="1"
     inkscape:current-layer="g9660" />
  <desc
     id="desc9620">C:\Users\jason\Google Drive\Personal\jdeation\Compact Case\raspberrypi3b.dxf - scale = 1.000000, origin = (0.000000, 0.000000), method = manual</desc>
  <defs
     id="defs9634">
    <marker
       id="DistanceX"
       orient="auto"
       refX="0"
       refY="0"
       style="overflow:visible">
      <path
         d="M 3,-3 -3,3 M 0,-5 V 5"
         style="stroke:#000000;stroke-width:0.5"
         id="path9622"
         inkscape:connector-curvature="0" />
    </marker>
    <pattern
       height="8"
       id="Hatch"
       patternUnits="userSpaceOnUse"
       width="8"
       x="0"
       y="0">
      <path
         d="M8 4 l-4,4"
         linecap="square"
         stroke="#000000"
         stroke-width="0.25"
         id="path9625" />
      <path
         d="M6 2 l-4,4"
         linecap="square"
         stroke="#000000"
         stroke-width="0.25"
         id="path9627" />
      <path
         d="M4 0 l-4,4"
         linecap="square"
         stroke="#000000"
         stroke-width="0.25"
         id="path9629" />
    </pattern>
    <symbol
       id="*MODEL_SPACE" />
    <symbol
       id="*PAPER_SPACE" />
    <marker
       style="overflow:visible"
       refY="0.0"
       refX="0.0"
       orient="auto"
       id="DistanceX-3">
      <path
         id="path5492"
         style="stroke:#000000; stroke-width:0.5"
         d="M 3,-3 L -3,3 M 0,-5 L  0,5" />
    </marker>
    <pattern
       y="0"
       x="0"
       width="8"
       patternUnits="userSpaceOnUse"
       id="Hatch-5"
       height="8">
      <path
         id="path5495"
         stroke-width="0.25"
         stroke="#000000"
         linecap="square"
         d="M8 4 l-4,4" />
      <path
         id="path5497"
         stroke-width="0.25"
         stroke="#000000"
         linecap="square"
         d="M6 2 l-4,4" />
      <path
         id="path5499"
         stroke-width="0.25"
         stroke="#000000"
         linecap="square"
         d="M4 0 l-4,4" />
    </pattern>
    <symbol
       id="*MODEL_SPACE-4" />
    <symbol
       id="*PAPER_SPACE-7" />
    <marker
       style="overflow:visible"
       refY="0.0"
       refX="0.0"
       orient="auto"
       id="DistanceX-8">
      <path
         id="path4545"
         style="stroke:#000000; stroke-width:0.5"
         d="M 3,-3 L -3,3 M 0,-5 L  0,5" />
    </marker>
    <pattern
       y="0"
       x="0"
       width="8"
       patternUnits="userSpaceOnUse"
       id="Hatch-7"
       height="8">
      <path
         id="path4548"
         stroke-width="0.25"
         stroke="#000000"
         linecap="square"
         d="M8 4 l-4,4" />
      <path
         id="path4550"
         stroke-width="0.25"
         stroke="#000000"
         linecap="square"
         d="M6 2 l-4,4" />
      <path
         id="path4552"
         stroke-width="0.25"
         stroke="#000000"
         linecap="square"
         d="M4 0 l-4,4" />
    </pattern>
    <symbol
       id="*MODEL_SPACE-9" />
    <symbol
       id="*PAPER_SPACE-79" />
  </defs>
  <g
     inkscape:groupmode="layer"
     inkscape:label="0"
     id="g9660"
     transform="translate(0,-893.00175)">
    <g
       aria-label="Raspberry PI 3 Model B"
       style="font-style:normal;font-weight:normal;font-size:13.33333302px;line-height:1.25;font-family:sans-serif;letter-spacing:0px;word-spacing:0px;fill:#ff0000;fill-opacity:1;stroke:none;stroke-width:0.37795275;stroke-miterlimit:4;stroke-dasharray:none;stroke-opacity:1"
       id="text10225"
       transform="translate(27.337317,10.72212)">
      <path
         d="m 42.553042,937.5238 h -1.673177 l -3.242188,-3.85416 h -1.816406 v 3.85416 h -1.289062 v -9.69401 h 2.714843 q 0.878907,0 1.464844,0.11719 0.585938,0.11068 1.054688,0.40365 0.527343,0.33203 0.820312,0.83984 0.299479,0.5013 0.299479,1.27604 0,1.04818 -0.527343,1.75781 -0.527344,0.70313 -1.451823,1.0612 z m -3.014323,-6.96614 q 0,-0.41667 -0.14974,-0.73568 -0.143229,-0.32552 -0.48177,-0.54687 -0.279948,-0.18881 -0.664063,-0.26042 -0.384114,-0.0781 -0.904948,-0.0781 h -1.516927 v 3.65886 h 1.302084 q 0.611979,0 1.067708,-0.10417 0.455729,-0.11068 0.774739,-0.40364 0.292969,-0.27344 0.429688,-0.625 0.143229,-0.35808 0.143229,-0.90495 z"
         style="fill:#ff0000;fill-opacity:1;stroke:none;stroke-width:0.37795275;stroke-miterlimit:4;stroke-dasharray:none"
         id="path10227"
         inkscape:connector-curvature="0" />
      <path
         d="m 49.09601,937.5238 h -1.217448 v -0.77474 q -0.16276,0.11068 -0.442708,0.3125 -0.273438,0.19532 -0.533854,0.3125 -0.30599,0.14974 -0.703125,0.2474 -0.397136,0.10417 -0.93099,0.10417 -0.983073,0 -1.666666,-0.65105 -0.683594,-0.65104 -0.683594,-1.66015 0,-0.82682 0.351562,-1.33464 0.358073,-0.51432 1.015625,-0.80729 0.664063,-0.29297 1.595052,-0.39713 0.93099,-0.10417 1.998698,-0.15625 v -0.18881 q 0,-0.41666 -0.149739,-0.6901 -0.14323,-0.27344 -0.416667,-0.42969 -0.260417,-0.14974 -0.625,-0.20182 -0.364583,-0.0521 -0.761719,-0.0521 -0.481771,0 -1.074219,0.1302 -0.592447,0.1237 -1.223958,0.36459 h -0.0651 v -1.24349 q 0.358073,-0.0977 1.035156,-0.21485 0.677084,-0.11718 1.334636,-0.11718 0.768229,0 1.334635,0.13021 0.572917,0.12369 0.989583,0.42968 0.410157,0.29948 0.625,0.77474 0.214844,0.47526 0.214844,1.17839 z m -1.217448,-1.79036 v -2.02474 q -0.559896,0.0326 -1.321614,0.0977 -0.755209,0.0651 -1.197917,0.1888 -0.527344,0.14974 -0.852865,0.46875 -0.32552,0.3125 -0.32552,0.86588 0,0.625 0.377604,0.94401 0.377604,0.3125 1.152343,0.3125 0.644532,0 1.178386,-0.24739 0.533854,-0.25391 0.989583,-0.60547 z"
         style="fill:#ff0000;fill-opacity:1;stroke:none;stroke-width:0.37795275;stroke-miterlimit:4;stroke-dasharray:none"
         id="path10229"
         inkscape:connector-curvature="0" />
      <path
         d="m 56.661115,935.42745 q 0,0.99609 -0.826823,1.63411 -0.820313,0.63802 -2.246094,0.63802 -0.807291,0 -1.484375,-0.1888 -0.670573,-0.19531 -1.126302,-0.42317 v -1.3737 h 0.0651 q 0.579427,0.4362 1.289063,0.69661 0.709635,0.25391 1.360677,0.25391 0.807292,0 1.263021,-0.26042 0.455729,-0.26041 0.455729,-0.82031 0,-0.42969 -0.247396,-0.65104 -0.247396,-0.22136 -0.950521,-0.37761 -0.260416,-0.0586 -0.683593,-0.13671 -0.416667,-0.0781 -0.761719,-0.16928 -0.957031,-0.2539 -1.360677,-0.74218 -0.397136,-0.49479 -0.397136,-1.21094 0,-0.44922 0.182292,-0.84635 0.188802,-0.39714 0.566406,-0.70964 0.364584,-0.30599 0.924479,-0.48177 0.566407,-0.18229 1.263021,-0.18229 0.651042,0 1.315104,0.16276 0.670573,0.15625 1.113282,0.38411 v 1.3086 h -0.06511 q -0.46875,-0.34506 -1.139323,-0.57943 -0.670572,-0.24089 -1.315104,-0.24089 -0.670573,0 -1.132812,0.26042 -0.46224,0.25391 -0.46224,0.76172 0,0.44922 0.279948,0.67708 0.273438,0.22787 0.885417,0.3711 0.338542,0.0781 0.755208,0.15625 0.423177,0.0781 0.703125,0.14323 0.852865,0.19531 1.315104,0.67057 0.46224,0.48177 0.46224,1.27604 z"
         style="fill:#ff0000;fill-opacity:1;stroke:none;stroke-width:0.37795275;stroke-miterlimit:4;stroke-dasharray:none"
         id="path10231"
         inkscape:connector-curvature="0" />
      <path
         d="m 64.818667,933.79985 q 0,0.88541 -0.253906,1.62109 -0.253907,0.72917 -0.716146,1.23698 -0.429688,0.48177 -1.015625,0.7487 -0.579427,0.26041 -1.230469,0.26041 -0.566406,0 -1.028646,-0.1237 -0.455729,-0.12369 -0.930989,-0.38411 v 3.04688 h -1.223959 v -9.95443 h 1.223959 v 0.76172 q 0.488281,-0.41016 1.09375,-0.6836 0.611979,-0.27994 1.302083,-0.27994 1.315104,0 2.044271,0.99609 0.735677,0.98958 0.735677,2.75391 z m -1.263021,0.0326 q 0,-1.31511 -0.449219,-1.96615 -0.449218,-0.65104 -1.380208,-0.65104 -0.527344,0 -1.061198,0.22786 -0.533854,0.22787 -1.022135,0.59896 v 4.1211 q 0.520833,0.23437 0.891927,0.31901 0.377604,0.0846 0.852864,0.0846 1.022136,0 1.595052,-0.6901 0.572917,-0.69011 0.572917,-2.04427 z"
         style="fill:#ff0000;fill-opacity:1;stroke:none;stroke-width:0.37795275;stroke-miterlimit:4;stroke-dasharray:none"
         id="path10233"
         inkscape:connector-curvature="0" />
      <path
         d="m 73.125956,933.8324 q 0,0.91146 -0.260417,1.64062 -0.253906,0.72917 -0.690104,1.22396 -0.462239,0.51432 -1.015625,0.77474 -0.553385,0.25391 -1.217448,0.25391 -0.618489,0 -1.080729,-0.14974 -0.462239,-0.14323 -0.911458,-0.39063 l -0.07813,0.33854 h -1.145833 v -10.1302 h 1.223958 v 3.61979 q 0.514323,-0.42318 1.09375,-0.69011 0.579427,-0.27343 1.302083,-0.27343 1.289063,0 2.03125,0.98958 0.748698,0.98958 0.748698,2.79297 z m -1.263021,0.0326 q 0,-1.30208 -0.429687,-1.97266 -0.429688,-0.67708 -1.386719,-0.67708 -0.533854,0 -1.080729,0.23438 -0.546875,0.22786 -1.015625,0.59244 v 4.16667 q 0.520833,0.23437 0.891927,0.32552 0.377604,0.0911 0.852865,0.0911 1.015625,0 1.588541,-0.66407 0.579427,-0.67057 0.579427,-2.09635 z"
         style="fill:#ff0000;fill-opacity:1;stroke:none;stroke-width:0.37795275;stroke-miterlimit:4;stroke-dasharray:none"
         id="path10235"
         inkscape:connector-curvature="0" />
      <path
         d="m 81.120749,934.01469 h -5.358073 q 0,0.67057 0.201823,1.17187 0.201823,0.4948 0.553386,0.81381 0.338541,0.3125 0.800781,0.46875 0.46875,0.15625 1.028646,0.15625 0.742187,0 1.490885,-0.29297 0.755208,-0.29948 1.074219,-0.58594 h 0.0651 v 1.33464 q -0.61849,0.26041 -1.263021,0.43619 -0.644531,0.17578 -1.354167,0.17578 -1.809895,0 -2.82552,-0.97656 -1.015625,-0.98307 -1.015625,-2.78646 0,-1.78385 0.970052,-2.83203 0.976562,-1.04817 2.565104,-1.04817 1.471354,0 2.265625,0.85937 0.800781,0.85938 0.800781,2.44141 z m -1.191406,-0.9375 q -0.0065,-0.96354 -0.488281,-1.49089 -0.475261,-0.52734 -1.451823,-0.52734 -0.983073,0 -1.569011,0.57943 -0.579427,0.57942 -0.657552,1.4388 z"
         style="fill:#ff0000;fill-opacity:1;stroke:none;stroke-width:0.37795275;stroke-miterlimit:4;stroke-dasharray:none"
         id="path10237"
         inkscape:connector-curvature="0" />
      <path
         d="m 87.513977,931.5863 h -0.0651 q -0.273438,-0.0651 -0.533854,-0.0911 -0.253907,-0.0326 -0.605469,-0.0326 -0.566406,0 -1.09375,0.2539 -0.527344,0.2474 -1.015625,0.64453 v 5.16276 h -1.223958 v -7.27213 h 1.223958 v 1.07422 q 0.729167,-0.58594 1.282552,-0.82683 0.559896,-0.24739 1.139323,-0.24739 0.31901,0 0.462239,0.0195 0.14323,0.013 0.429688,0.0586 z"
         style="fill:#ff0000;fill-opacity:1;stroke:none;stroke-width:0.37795275;stroke-miterlimit:4;stroke-dasharray:none"
         id="path10239"
         inkscape:connector-curvature="0" />
      <path
         d="m 93.217102,931.5863 h -0.0651 q -0.273438,-0.0651 -0.533854,-0.0911 -0.253907,-0.0326 -0.605469,-0.0326 -0.566406,0 -1.09375,0.2539 -0.527344,0.2474 -1.015625,0.64453 v 5.16276 h -1.223958 v -7.27213 H 89.9033 v 1.07422 q 0.729167,-0.58594 1.282552,-0.82683 0.559896,-0.24739 1.139323,-0.24739 0.31901,0 0.462239,0.0195 0.14323,0.013 0.429688,0.0586 z"
         style="fill:#ff0000;fill-opacity:1;stroke:none;stroke-width:0.37795275;stroke-miterlimit:4;stroke-dasharray:none"
         id="path10241"
         inkscape:connector-curvature="0" />
      <path
         d="m 100.67153,930.25167 -4.244793,9.95443 h -1.308593 l 1.354166,-3.03386 -2.897135,-6.92057 H 94.9033 l 2.233073,5.39062 2.252604,-5.39062 z"
         style="fill:#ff0000;fill-opacity:1;stroke:none;stroke-width:0.37795275;stroke-miterlimit:4;stroke-dasharray:none"
         id="path10243"
         inkscape:connector-curvature="0" />
      <path
         d="m 113.39939,930.75948 q 0,0.64453 -0.22786,1.19792 -0.22136,0.54687 -0.625,0.95052 -0.5013,0.5013 -1.1849,0.75521 -0.68359,0.24739 -1.72526,0.24739 h -1.28906 v 3.61328 h -1.28906 v -9.69401 h 2.63021 q 0.87239,0 1.47786,0.14974 0.60547,0.14323 1.07422,0.45573 0.55338,0.3711 0.85286,0.92448 0.30599,0.55339 0.30599,1.39974 z m -1.34114,0.0325 q 0,-0.5013 -0.17578,-0.87239 -0.17578,-0.3711 -0.53386,-0.60547 -0.3125,-0.20182 -0.71614,-0.28646 -0.39714,-0.0911 -1.00912,-0.0911 h -1.27604 v 3.8737 h 1.08724 q 0.78125,0 1.26953,-0.13672 0.48828,-0.14323 0.79427,-0.44922 0.30599,-0.3125 0.42969,-0.65755 0.13021,-0.34505 0.13021,-0.77474 z"
         style="fill:#ff0000;fill-opacity:1;stroke:none;stroke-width:0.37795275;stroke-miterlimit:4;stroke-dasharray:none"
         id="path10245"
         inkscape:connector-curvature="0" />
      <path
         d="m 118.52309,937.5238 h -3.82812 v -0.98958 h 1.26953 v -7.71484 h -1.26953 v -0.98959 h 3.82812 v 0.98959 h -1.26953 v 7.71484 h 1.26953 z"
         style="fill:#ff0000;fill-opacity:1;stroke:none;stroke-width:0.37795275;stroke-miterlimit:4;stroke-dasharray:none"
         id="path10247"
         inkscape:connector-curvature="0" />
      <path
         d="m 130.87335,932.85584 q 0.3125,0.27994 0.51432,0.70312 0.20183,0.42318 0.20183,1.09375 0,0.66406 -0.24089,1.21745 -0.24088,0.55338 -0.67708,0.96354 -0.48828,0.45573 -1.15234,0.67708 -0.65756,0.21485 -1.44532,0.21485 -0.80729,0 -1.58854,-0.19532 -0.78125,-0.1888 -1.28255,-0.41666 v -1.36068 h 0.0977 q 0.55338,0.36458 1.30208,0.60547 0.7487,0.24088 1.44531,0.24088 0.41016,0 0.8724,-0.13671 0.46224,-0.13672 0.74869,-0.40365 0.29948,-0.28646 0.44271,-0.63151 0.14974,-0.34505 0.14974,-0.8724 0,-0.52083 -0.16927,-0.85937 -0.16276,-0.34505 -0.45573,-0.54037 -0.29297,-0.20182 -0.70963,-0.27343 -0.41667,-0.0781 -0.89844,-0.0781 h -0.58594 v -1.08073 h 0.45573 q 0.98958,0 1.57552,-0.41015 0.59245,-0.41667 0.59245,-1.21094 0,-0.35156 -0.14974,-0.61198 -0.14974,-0.26693 -0.41667,-0.4362 -0.27994,-0.16927 -0.59895,-0.23437 -0.31901,-0.0651 -0.72266,-0.0651 -0.61849,0 -1.3151,0.22136 -0.69662,0.22135 -1.31511,0.625 h -0.0651 v -1.36068 q 0.46224,-0.22786 1.23047,-0.41667 0.77474,-0.19531 1.49739,-0.19531 0.70964,0 1.25,0.13021 0.54037,0.13021 0.97656,0.41667 0.46875,0.3125 0.70964,0.7552 0.24088,0.44271 0.24088,1.03516 0,0.80729 -0.57291,1.41276 -0.56641,0.59896 -1.34115,0.75521 v 0.0911 q 0.3125,0.0521 0.71615,0.22136 0.40364,0.16276 0.68359,0.41016 z"
         style="fill:#ff0000;fill-opacity:1;stroke:none;stroke-width:0.37795275;stroke-miterlimit:4;stroke-dasharray:none"
         id="path10249"
         inkscape:connector-curvature="0" />
      <path
         d="m 147.22752,937.5238 h -1.28906 v -8.35286 l -2.69531,5.68359 h -0.76823 l -2.67578,-5.68359 v 8.35286 h -1.20443 v -9.69401 h 1.75781 l 2.58464,5.39714 2.5,-5.39714 h 1.79036 z"
         style="fill:#ff0000;fill-opacity:1;stroke:none;stroke-width:0.37795275;stroke-miterlimit:4;stroke-dasharray:none"
         id="path10251"
         inkscape:connector-curvature="0" />
      <path
         d="m 155.94497,933.89099 q 0,1.77735 -0.91146,2.80599 -0.91146,1.02865 -2.44141,1.02865 -1.54296,0 -2.45442,-1.02865 -0.90495,-1.02864 -0.90495,-2.80599 0,-1.77734 0.90495,-2.80599 0.91146,-1.03515 2.45442,-1.03515 1.52995,0 2.44141,1.03515 0.91146,1.02865 0.91146,2.80599 z m -1.26302,0 q 0,-1.41276 -0.55339,-2.09635 -0.55338,-0.69011 -1.53646,-0.69011 -0.99609,0 -1.54947,0.69011 -0.54688,0.68359 -0.54688,2.09635 0,1.36719 0.55339,2.07682 0.55338,0.70313 1.54296,0.70313 0.97657,0 1.52995,-0.69662 0.5599,-0.70312 0.5599,-2.08333 z"
         style="fill:#ff0000;fill-opacity:1;stroke:none;stroke-width:0.37795275;stroke-miterlimit:4;stroke-dasharray:none"
         id="path10253"
         inkscape:connector-curvature="0" />
      <path
         d="m 163.74444,937.5238 h -1.22396 v -0.76172 q -0.52734,0.45573 -1.10026,0.70964 -0.57291,0.25391 -1.24349,0.25391 -1.30208,0 -2.07031,-1.00261 -0.76172,-1.0026 -0.76172,-2.77995 0,-0.92447 0.26042,-1.64713 0.26693,-0.72266 0.71615,-1.23047 0.4427,-0.49479 1.02864,-0.75521 0.59245,-0.26041 1.22396,-0.26041 0.57292,0 1.01563,0.12369 0.4427,0.11719 0.93098,0.3711 v -3.15104 h 1.22396 z m -1.22396,-1.79036 v -4.17318 q -0.49479,-0.22135 -0.88541,-0.30599 -0.39063,-0.0846 -0.85287,-0.0846 -1.02864,0 -1.60156,0.71614 -0.57292,0.71615 -0.57292,2.03125 0,1.29558 0.44271,1.97266 0.44271,0.67057 1.41927,0.67057 0.52084,0 1.05469,-0.22786 0.53386,-0.23438 0.99609,-0.59896 z"
         style="fill:#ff0000;fill-opacity:1;stroke:none;stroke-width:0.37795275;stroke-miterlimit:4;stroke-dasharray:none"
         id="path10255"
         inkscape:connector-curvature="0" />
      <path
         d="m 172.24054,934.01469 h -5.35807 q 0,0.67057 0.20182,1.17187 0.20182,0.4948 0.55339,0.81381 0.33854,0.3125 0.80078,0.46875 0.46875,0.15625 1.02864,0.15625 0.74219,0 1.49089,-0.29297 0.75521,-0.29948 1.07422,-0.58594 h 0.0651 v 1.33464 q -0.61849,0.26041 -1.26302,0.43619 -0.64453,0.17578 -1.35416,0.17578 -1.8099,0 -2.82553,-0.97656 -1.01562,-0.98307 -1.01562,-2.78646 0,-1.78385 0.97005,-2.83203 0.97656,-1.04817 2.56511,-1.04817 1.47135,0 2.26562,0.85937 0.80078,0.85938 0.80078,2.44141 z m -1.1914,-0.9375 q -0.007,-0.96354 -0.48829,-1.49089 -0.47526,-0.52734 -1.45182,-0.52734 -0.98307,0 -1.56901,0.57943 -0.57943,0.57942 -0.65755,1.4388 z"
         style="fill:#ff0000;fill-opacity:1;stroke:none;stroke-width:0.37795275;stroke-miterlimit:4;stroke-dasharray:none"
         id="path10257"
         inkscape:connector-curvature="0" />
      <path
         d="m 175.33298,937.5238 h -1.22395 v -10.1302 h 1.22395 z"
         style="fill:#ff0000;fill-opacity:1;stroke:none;stroke-width:0.37795275;stroke-miterlimit:4;stroke-dasharray:none"
         id="path10259"
         inkscape:connector-curvature="0" />
      <path
         d="m 189.81216,934.54203 q 0,0.72266 -0.27344,1.27604 -0.27344,0.55339 -0.73568,0.91146 -0.54687,0.42969 -1.20443,0.61198 -0.65104,0.18229 -1.66015,0.18229 h -3.4375 v -9.69401 h 2.87109 q 1.0612,0 1.58854,0.0781 0.52735,0.0781 1.00912,0.32552 0.53385,0.27995 0.77474,0.72266 0.24088,0.43619 0.24088,1.04817 0,0.69011 -0.35156,1.17839 -0.35156,0.48177 -0.9375,0.77474 v 0.0521 q 0.98307,0.20182 1.54948,0.86589 0.56641,0.65755 0.56641,1.66666 z m -2.16797,-4.36849 q 0,-0.35156 -0.11719,-0.59244 -0.11719,-0.24089 -0.3776,-0.39063 -0.30599,-0.17578 -0.74219,-0.21484 -0.4362,-0.0456 -1.08073,-0.0456 h -1.53646 v 2.79948 h 1.66667 q 0.60547,0 0.96354,-0.0586 0.35807,-0.0651 0.66406,-0.26042 0.30599,-0.19531 0.42969,-0.5013 0.13021,-0.3125 0.13021,-0.73568 z m 0.82682,4.42058 q 0,-0.58594 -0.17578,-0.93099 -0.17578,-0.34506 -0.63802,-0.58594 -0.3125,-0.16276 -0.76172,-0.20833 -0.44271,-0.0521 -1.08073,-0.0521 h -2.02474 v 3.60677 h 1.70573 q 0.84635,0 1.38672,-0.0846 0.54036,-0.0912 0.88542,-0.32552 0.36458,-0.25391 0.53385,-0.57943 0.16927,-0.32552 0.16927,-0.83984 z"
         style="fill:#ff0000;fill-opacity:1;stroke:none;stroke-width:0.37795275;stroke-miterlimit:4;stroke-dasharray:none"
         id="path10261"
         inkscape:connector-curvature="0" />
    </g>
    <g
       id="g4583"
       inkscape:label="0"
       transform="translate(6.0302951,-224.88982)"
       style="stroke:#ff0000;stroke-opacity:1">
      <path
         id="path4559"
         style="fill:none;stroke:#ff0000;stroke-opacity:1"
         d="M 321.25984,1122.5197 H 0 v 211.6535 h 321.25984 z"
         inkscape:connector-curvature="0" />
      <path
         id="path4561"
         style="fill:none;stroke:#000000;stroke-opacity:1"
         d="m 18.330709,1135.748 a 5.1023625,5.1023625 0 1 0 -10.204725,0 5.1023625,5.1023625 0 1 0 10.204725,0 z"
         inkscape:connector-curvature="0" />
      <path
         id="path4563"
         style="fill:none;stroke:#000000;stroke-opacity:1"
         d="m 237.54331,1135.748 a 5.102365,5.102365 0 1 0 -10.20473,0 5.102365,5.102365 0 1 0 10.20473,0 z"
         inkscape:connector-curvature="0" />
      <path
         id="path4565"
         style="fill:none;stroke:#000000;stroke-opacity:1"
         d="m 18.330709,1320.9449 a 5.1023625,5.1023625 0 1 0 -10.204725,0 5.1023625,5.1023625 0 1 0 10.204725,0 z"
         inkscape:connector-curvature="0" />
      <path
         id="path4567"
         style="fill:none;stroke:#000000;stroke-opacity:1"
         d="m 237.54331,1320.9449 a 5.102365,5.102365 0 1 0 -10.20473,0 5.102365,5.102365 0 1 0 10.20473,0 z"
         inkscape:connector-curvature="0" />
      <path
         id="path4569"
         style="fill:none;stroke:#ff0000;stroke-opacity:1"
         d="m 328.8189,1141.4173 h -60.47244 v 49.1339 h 60.47244 z"
         inkscape:connector-curvature="0" />
      <path
         id="path4571"
         style="fill:none;stroke:#ff0000;stroke-opacity:1"
         d="m 268.34646,1201.8898 v 49.1338 h 60.47244 v -49.1338 z"
         inkscape:connector-curvature="0" />
      <path
         id="path4573"
         style="fill:none;stroke:#ff0000;stroke-opacity:1"
         d="m 328.8189,1266.1417 h -71.81102 v 49.1339 h 71.81102 z"
         inkscape:connector-curvature="0" />
      <path
         id="path4575"
         style="fill:none;stroke:#ff0000;stroke-opacity:1"
         d="m 222.99213,1307.7165 h -15.11811 v 34.0158 h 15.11811 z"
         inkscape:connector-curvature="0" />
      <path
         id="path4577"
         style="fill:none;stroke:#ff0000;stroke-opacity:1"
         d="m 158.74016,1315.1294 h -37.79528 v 26.4567 h 37.79528 z"
         inkscape:connector-curvature="0" />
      <path
         id="path4579"
         style="fill:none;stroke:#ff0000;stroke-opacity:1"
         d="M 45.354331,1319.0551 H 26.456693 v 22.6772 h 18.897638 z"
         inkscape:connector-curvature="0" />
      <path
         id="path4581"
         style="fill:none;stroke:#ff0000;stroke-opacity:1"
         d="M 170.07874,1130.0787 H 34.015749 v 15.1182 H 170.07874 Z"
         inkscape:connector-curvature="0" />
    </g>
  </g>
</svg>
