<?xml version="1.0" encoding="UTF-8" standalone="no"?>
<!-- Generator: Adobe Illustrator 19.0.0, SVG Export Plug-In . SVG Version: 6.00 Build 0)  -->

<svg
   xmlns:dc="http://purl.org/dc/elements/1.1/"
   xmlns:cc="http://creativecommons.org/ns#"
   xmlns:rdf="http://www.w3.org/1999/02/22-rdf-syntax-ns#"
   xmlns:svg="http://www.w3.org/2000/svg"
   xmlns="http://www.w3.org/2000/svg"
   xmlns:sodipodi="http://sodipodi.sourceforge.net/DTD/sodipodi-0.dtd"
   xmlns:inkscape="http://www.inkscape.org/namespaces/inkscape"
   version="1.1"
   id="Layer_1"
   x="0px"
   y="0px"
   viewBox="0 0 536.6929 1141.4174"
   xml:space="preserve"
   sodipodi:docname="candycane_v1.svg"
   inkscape:version="0.92.1 r15371"
   width="142mm"
   height="302mm"><metadata
     id="metadata5646"><rdf:RDF><cc:Work
         rdf:about=""><dc:format>image/svg+xml</dc:format><dc:type
           rdf:resource="http://purl.org/dc/dcmitype/StillImage" /><dc:title></dc:title></cc:Work></rdf:RDF></metadata><defs
     id="defs5644" /><sodipodi:namedview
     pagecolor="#ffffff"
     bordercolor="#666666"
     borderopacity="1"
     objecttolerance="10"
     gridtolerance="10"
     guidetolerance="10"
     inkscape:pageopacity="0"
     inkscape:pageshadow="2"
     inkscape:window-width="1920"
     inkscape:window-height="1017"
     id="namedview5642"
     showgrid="false"
     inkscape:zoom="0.33119333"
     inkscape:cx="451.15117"
     inkscape:cy="20.82773"
     inkscape:window-x="-8"
     inkscape:window-y="-8"
     inkscape:window-maximized="1"
     inkscape:current-layer="g5607"
     units="mm" /><g
     id="g5609"
     style="fill:none;stroke:#000000;stroke-opacity:1"
     transform="translate(0,629.41736)"><g
       id="g5607"
       style="fill:none;stroke:#000000;stroke-opacity:1"><path
         d="m 266.34048,-622.62054 c -70.24098,0.49755 -136.25849,28.38814 -185.891038,78.53407 -49.632524,50.14593 -76.8422856,116.44696 -76.6169942,186.68935 l 0.5027063,158.05529 c 0.072133,23.1121 9.1455719,44.78113 25.5477929,61.01543 16.400792,16.23287 38.162053,25.08286 61.275095,24.91856 23.090358,-0.16424 44.764708,-9.30573 61.034258,-25.74359 16.26956,-16.43785 25.18899,-38.20655 25.11274,-61.29452 l -0.50413,-158.05387 c -0.0758,-24.12314 9.27791,-46.90371 26.3431,-64.14543 17.06521,-17.24171 39.74689,-26.82802 63.87238,-27.00037 24.09995,-0.17222 46.81617,9.07841 63.96096,26.04767 17.1448,16.96927 26.6287,39.58909 26.70593,63.69096 l 2.49552,783.19637 c 0.0736,23.11067 9.14698,44.77969 25.54778,61.01258 16.39937,16.23148 38.16065,25.08428 61.27511,24.92139 23.08894,-0.16565 44.76469,-9.30855 61.03284,-25.74499 16.26815,-16.43642 25.18615,-38.2037 25.11556,-61.29454 l -2.49698,-783.20345 c -0.224,-70.26648 -27.86886,-136.20443 -77.84661,-185.6705 -49.97775,-49.46607 -116.20093,-76.4295 -186.46602,-75.93041 z"
         id="path5605"
         style="fill:none;stroke:#000000;stroke-width:3.77952766;stroke-linecap:square;stroke-miterlimit:4;stroke-dasharray:none;stroke-opacity:1"
         inkscape:connector-curvature="0"
         sodipodi:nodetypes="csccscsccscsccscscssc" /></g></g><g
     id="g5611"
     transform="translate(0,629.41736)" /><g
     id="g5613"
     transform="translate(0,629.41736)" /><g
     id="g5615"
     transform="translate(0,629.41736)" /><g
     id="g5617"
     transform="translate(0,629.41736)" /><g
     id="g5619"
     transform="translate(0,629.41736)" /><g
     id="g5621"
     transform="translate(0,629.41736)" /><g
     id="g5623"
     transform="translate(0,629.41736)" /><g
     id="g5625"
     transform="translate(0,629.41736)" /><g
     id="g5627"
     transform="translate(0,629.41736)" /><g
     id="g5629"
     transform="translate(0,629.41736)" /><g
     id="g5631"
     transform="translate(0,629.41736)" /><g
     id="g5633"
     transform="translate(0,629.41736)" /><g
     id="g5635"
     transform="translate(0,629.41736)" /><g
     id="g5637"
     transform="translate(0,629.41736)" /><g
     id="g5639"
     transform="translate(0,629.41736)" /></svg>