<?xml version="1.0" encoding="UTF-8" standalone="no"?>
<svg
   xmlns:dc="http://purl.org/dc/elements/1.1/"
   xmlns:cc="http://creativecommons.org/ns#"
   xmlns:rdf="http://www.w3.org/1999/02/22-rdf-syntax-ns#"
   xmlns:svg="http://www.w3.org/2000/svg"
   xmlns="http://www.w3.org/2000/svg"
   xmlns:sodipodi="http://sodipodi.sourceforge.net/DTD/sodipodi-0.dtd"
   xmlns:inkscape="http://www.inkscape.org/namespaces/inkscape"
   sodipodi:docname="arcade_button_20mm.svg"
   inkscape:version="1.0beta2 (a2ee240, 2020-03-12)"
   id="svg8"
   version="1.1"
   viewBox="0 0 28 28"
   height="28mm"
   width="28mm">
  <defs
     id="defs2">
    <rect
       id="rect915"
       height="49.037949"
       width="63.345779"
       y="1147.9036"
       x="21.949361" />
    <rect
       id="rect886"
       height="49.771683"
       width="53.929516"
       y="1161.8446"
       x="34.789722" />
    <rect
       id="rect875"
       height="84.01265"
       width="74.596382"
       y="1160.8663"
       x="36.257191" />
    <rect
       id="rect885"
       height="43.657227"
       width="84.134933"
       y="1162.5782"
       x="26.35177" />
    <marker
       id="DistanceX"
       orient="auto"
       refX="0"
       refY="0"
       style="overflow:visible">
      <path
         inkscape:connector-curvature="0"
         d="M 3,-3 -3,3 M 0,-5 V 5"
         style="stroke:#000000;stroke-width:0.5"
         id="path4487" />
    </marker>
    <pattern
       height="8"
       id="Hatch"
       patternUnits="userSpaceOnUse"
       width="8"
       x="0"
       y="0">
      <path
         d="M8 4 l-4,4"
         linecap="square"
         stroke="#000000"
         stroke-width="0.25"
         id="path4490" />
      <path
         d="M6 2 l-4,4"
         linecap="square"
         stroke="#000000"
         stroke-width="0.25"
         id="path4492" />
      <path
         d="M4 0 l-4,4"
         linecap="square"
         stroke="#000000"
         stroke-width="0.25"
         id="path4494" />
    </pattern>
    <symbol
       id="*MODEL_SPACE" />
    <symbol
       id="*PAPER_SPACE" />
  </defs>
  <sodipodi:namedview
     inkscape:document-rotation="0"
     inkscape:window-maximized="1"
     inkscape:window-y="-12"
     inkscape:window-x="-12"
     inkscape:window-height="2050"
     inkscape:window-width="3240"
     showgrid="false"
     inkscape:current-layer="g4503"
     inkscape:document-units="mm"
     inkscape:cy="41.278609"
     inkscape:cx="54.570606"
     inkscape:zoom="8.1773405"
     inkscape:pageshadow="2"
     inkscape:pageopacity="0.0"
     borderopacity="1.0"
     bordercolor="#666666"
     pagecolor="#ffffff"
     id="base" />
  <metadata
     id="metadata5">
    <rdf:RDF>
      <cc:Work
         rdf:about="">
        <dc:format>image/svg+xml</dc:format>
        <dc:type
           rdf:resource="http://purl.org/dc/dcmitype/StillImage" />
        <dc:title></dc:title>
      </cc:Work>
    </rdf:RDF>
  </metadata>
  <g
     transform="translate(0,-289.15)"
     id="layer1"
     inkscape:groupmode="layer"
     inkscape:label="Layer 1">
    <g
       style="fill:none;stroke:#0f0000;stroke-width:1.00157;stroke-miterlimit:4;stroke-dasharray:none;stroke-opacity:1"
       transform="matrix(0.26458333,0,0,0.26458333,0.14600821,-7.6420557)"
       inkscape:label="0"
       id="g4503">
      <ellipse
         ry="45.92482"
         rx="45.924816"
         cy="1174.3546"
         cx="52.184235"
         id="path866"
         style="fill:none;stroke:#000000;stroke-width:0.74879;stroke-linecap:square;stroke-miterlimit:4;stroke-dasharray:none;stroke-dashoffset:9.44882;stroke-opacity:1" />
      <circle
         r="51.735714"
         style="fill:none;stroke:#ff0000;stroke-width:0.843533;stroke-linecap:square;stroke-miterlimit:4;stroke-dasharray:none;stroke-dashoffset:9.44882;stroke-opacity:1"
         id="path866-5"
         cx="52.184235"
         cy="1174.3546" />
      <g
         style="font-style:normal;font-weight:normal;font-size:10.6667px;line-height:1.25;font-family:sans-serif;letter-spacing:0px;word-spacing:0px;white-space:pre;shape-inside:url(#rect915);fill:#000000;fill-opacity:1;stroke:none"
         id="text913"
         transform="translate(-1.4674698,10.516867)"
         aria-label="24mm
Button">
        <path
           id="path921"
           style="text-align:center;text-anchor:middle;fill:#ff0000;fill-opacity:1"
           d="m 42.54391,1157.6359 h -5.250016 v -1.0886 q 0.546876,-0.4687 1.093753,-0.9375 0.552085,-0.4687 1.026045,-0.9323 1.000003,-0.9687 1.369796,-1.5365 0.369793,-0.5729 0.369793,-1.2343 0,-0.6042 -0.401043,-0.9427 -0.395835,-0.3438 -1.109379,-0.3438 -0.473959,0 -1.026044,0.1667 -0.552086,0.1666 -1.078129,0.5104 h -0.05208 v -1.0938 q 0.369793,-0.1823 0.984378,-0.3333 0.619793,-0.151 1.19792,-0.151 1.192712,0 1.869798,0.5781 0.677085,0.5729 0.677085,1.5573 0,0.4427 -0.114583,0.8281 -0.109376,0.3802 -0.328126,0.724 -0.203126,0.3229 -0.479169,0.6354 -0.270834,0.3125 -0.66146,0.6927 -0.557293,0.5469 -1.151045,1.0625 -0.593752,0.5104 -1.109379,0.9479 h 4.171888 z" />
        <path
           id="path923"
           style="text-align:center;text-anchor:middle;fill:#ff0000;fill-opacity:1"
           d="m 49.512682,1155.4536 h -1.151045 v 2.1823 h -1.000003 v -2.1823 H 43.64808 v -1.198 l 3.755221,-4.375 h 0.958336 v 4.7396 h 1.151045 z m -2.151048,-0.8334 v -3.5 l -3.005218,3.5 z" />
        <path
           id="path925"
           style="text-align:center;text-anchor:middle;fill:#ff0000;fill-opacity:1"
           d="m 59.49188,1157.6359 h -0.97917 v -3.3126 q 0,-0.375 -0.03646,-0.7239 -0.03125,-0.349 -0.140625,-0.5573 -0.119792,-0.224 -0.343752,-0.3386 -0.223959,-0.1145 -0.645835,-0.1145 -0.41146,0 -0.822919,0.2083 -0.41146,0.2031 -0.822919,0.5208 0.01563,0.1198 0.02604,0.2813 0.01042,0.1562 0.01042,0.3125 v 3.724 h -0.97917 v -3.3126 q 0,-0.3854 -0.03646,-0.7291 -0.03125,-0.349 -0.140626,-0.5573 -0.119792,-0.224 -0.343751,-0.3334 -0.223959,-0.1145 -0.645835,-0.1145 -0.401043,0 -0.807294,0.1979 -0.401043,0.1979 -0.802086,0.5052 v 4.3438 h -0.97917 v -5.8178 h 0.97917 v 0.6459 q 0.458335,-0.3802 0.911461,-0.5938 0.458335,-0.2135 0.973961,-0.2135 0.593752,0 1.005212,0.25 0.416668,0.25 0.619794,0.6927 0.593751,-0.5 1.083336,-0.7188 0.489585,-0.2239 1.046879,-0.2239 0.958336,0 1.411462,0.5833 0.458335,0.5781 0.458335,1.6198 z" />
        <path
           id="path927"
           style="text-align:center;text-anchor:middle;fill:#ff0000;fill-opacity:1"
           d="m 69.866913,1157.6359 h -0.97917 v -3.3126 q 0,-0.375 -0.03646,-0.7239 -0.03125,-0.349 -0.140625,-0.5573 -0.119792,-0.224 -0.343751,-0.3386 -0.223959,-0.1145 -0.645835,-0.1145 -0.41146,0 -0.82292,0.2083 -0.411459,0.2031 -0.822919,0.5208 0.01563,0.1198 0.02604,0.2813 0.01042,0.1562 0.01042,0.3125 v 3.724 h -0.979169 v -3.3126 q 0,-0.3854 -0.03646,-0.7291 -0.03125,-0.349 -0.140625,-0.5573 -0.119792,-0.224 -0.343751,-0.3334 -0.223959,-0.1145 -0.645836,-0.1145 -0.401043,0 -0.807294,0.1979 -0.401043,0.1979 -0.802086,0.5052 v 4.3438 h -0.97917 v -5.8178 h 0.97917 v 0.6459 q 0.458335,-0.3802 0.911461,-0.5938 0.458335,-0.2135 0.973962,-0.2135 0.593752,0 1.005211,0.25 0.416668,0.25 0.619794,0.6927 0.593752,-0.5 1.083337,-0.7188 0.489585,-0.2239 1.046878,-0.2239 0.958336,0 1.411463,0.5833 0.458335,0.5781 0.458335,1.6198 z" />
        <path
           id="path929"
           style="text-align:center;text-anchor:middle;fill:#ff0000;fill-opacity:1"
           d="m 42.658494,1168.5838 q 0,0.5781 -0.218751,1.0208 -0.21875,0.4427 -0.588543,0.7292 -0.437502,0.3438 -0.963545,0.4896 -0.520835,0.1458 -1.328129,0.1458 h -2.750009 v -7.7552 h 2.296882 q 0.848961,0 1.270838,0.062 0.421876,0.062 0.807294,0.2604 0.427085,0.224 0.619794,0.5781 0.192709,0.349 0.192709,0.8386 0,0.5521 -0.281251,0.9427 -0.281251,0.3854 -0.750003,0.6198 v 0.042 q 0.786461,0.1614 1.239588,0.6927 0.453126,0.526 0.453126,1.3333 z m -1.73438,-3.4948 q 0,-0.2813 -0.09375,-0.474 -0.09375,-0.1927 -0.302084,-0.3125 -0.244792,-0.1406 -0.593752,-0.1718 -0.348959,-0.036 -0.864586,-0.036 H 37.84077 v 2.2396 h 1.333338 q 0.484377,0 0.770836,-0.047 0.286459,-0.052 0.531251,-0.2083 0.244793,-0.1563 0.343752,-0.4011 0.104167,-0.25 0.104167,-0.5885 z m 0.66146,3.5365 q 0,-0.4688 -0.140625,-0.7448 -0.140626,-0.2761 -0.510419,-0.4688 -0.250001,-0.1302 -0.609377,-0.1666 -0.354167,-0.042 -0.864586,-0.042 H 37.84077 v 2.8854 h 1.364588 q 0.677086,0 1.109379,-0.068 0.432293,-0.073 0.708335,-0.2604 0.291668,-0.2031 0.427085,-0.4636 0.135417,-0.2604 0.135417,-0.6718 z" />
        <path
           id="path931"
           style="text-align:center;text-anchor:middle;fill:#ff0000;fill-opacity:1"
           d="m 48.866847,1170.9692 h -0.97917 v -0.6458 q -0.494793,0.3906 -0.94792,0.5989 -0.453126,0.2084 -1.000003,0.2084 -0.916669,0 -1.427088,-0.5573 -0.510418,-0.5625 -0.510418,-1.6458 v -3.7761 h 0.97917 v 3.3125 q 0,0.4427 0.04167,0.7604 0.04167,0.3125 0.177083,0.5365 0.140626,0.2292 0.364585,0.3333 0.223959,0.1042 0.651044,0.1042 0.380209,0 0.828127,-0.1979 0.453127,-0.1979 0.843753,-0.5052 v -4.3438 h 0.97917 z" />
        <path
           id="path933"
           style="text-align:center;text-anchor:middle;fill:#ff0000;fill-opacity:1"
           d="m 53.814779,1170.9171 q -0.276043,0.073 -0.604169,0.1198 -0.322918,0.047 -0.578127,0.047 -0.890628,0 -1.354171,-0.4792 -0.463543,-0.4791 -0.463543,-1.5364 v -3.0938 h -0.66146 v -0.8229 h 0.66146 v -1.6719 h 0.97917 v 1.6719 h 2.02084 v 0.8229 h -2.02084 v 2.6511 q 0,0.4583 0.02083,0.7187 0.02083,0.2552 0.145834,0.4792 0.114584,0.2083 0.312501,0.3073 0.203126,0.094 0.614585,0.094 0.239585,0 0.500002,-0.068 0.260418,-0.073 0.375001,-0.1198 h 0.05208 z" />
        <path
           id="path935"
           style="text-align:center;text-anchor:middle;fill:#ff0000;fill-opacity:1"
           d="m 58.023126,1170.9171 q -0.276043,0.073 -0.604169,0.1198 -0.322917,0.047 -0.578126,0.047 -0.890628,0 -1.354171,-0.4792 -0.463543,-0.4791 -0.463543,-1.5364 v -3.0938 h -0.661461 v -0.8229 h 0.661461 v -1.6719 h 0.979169 v 1.6719 h 2.02084 v 0.8229 h -2.02084 v 2.6511 q 0,0.4583 0.02083,0.7187 0.02083,0.2552 0.145833,0.4792 0.114584,0.2083 0.312501,0.3073 0.203126,0.094 0.614586,0.094 0.239584,0 0.500001,-0.068 0.260418,-0.073 0.375002,-0.1198 h 0.05208 z" />
        <path
           id="path937"
           style="text-align:center;text-anchor:middle;fill:#ff0000;fill-opacity:1"
           d="m 64.168979,1168.063 q 0,1.4218 -0.729169,2.2448 -0.729168,0.8229 -1.953131,0.8229 -1.234379,0 -1.963548,-0.8229 -0.72396,-0.823 -0.72396,-2.2448 0,-1.4219 0.72396,-2.2448 0.729169,-0.8282 1.963548,-0.8282 1.223963,0 1.953131,0.8282 0.729169,0.8229 0.729169,2.2448 z m -1.010419,0 q 0,-1.1302 -0.44271,-1.6771 -0.44271,-0.5521 -1.229171,-0.5521 -0.796877,0 -1.239587,0.5521 -0.437501,0.5469 -0.437501,1.6771 0,1.0937 0.442709,1.6614 0.44271,0.5625 1.234379,0.5625 0.781253,0 1.223963,-0.5573 0.447918,-0.5625 0.447918,-1.6666 z" />
        <path
           id="path939"
           style="text-align:center;text-anchor:middle;fill:#ff0000;fill-opacity:1"
           d="m 70.554416,1170.9692 h -0.97917 v -3.3125 q 0,-0.401 -0.04687,-0.75 -0.04687,-0.3542 -0.171875,-0.5521 -0.130209,-0.2187 -0.375001,-0.3229 -0.244793,-0.1094 -0.635419,-0.1094 -0.401043,0 -0.838544,0.198 -0.437502,0.1979 -0.838545,0.5052 v 4.3437 h -0.97917 v -5.8177 h 0.97917 v 0.6458 q 0.458335,-0.3802 0.94792,-0.5937 0.489585,-0.2136 1.005211,-0.2136 0.942712,0 1.437505,0.5677 0.494793,0.5678 0.494793,1.6355 z" />
      </g>
    </g>
  </g>
</svg>
