<?xml version="1.0" encoding="UTF-8" standalone="no"?>
<svg
   xmlns:dc="http://purl.org/dc/elements/1.1/"
   xmlns:cc="http://creativecommons.org/ns#"
   xmlns:rdf="http://www.w3.org/1999/02/22-rdf-syntax-ns#"
   xmlns:svg="http://www.w3.org/2000/svg"
   xmlns="http://www.w3.org/2000/svg"
   xmlns:sodipodi="http://sodipodi.sourceforge.net/DTD/sodipodi-0.dtd"
   xmlns:inkscape="http://www.inkscape.org/namespaces/inkscape"
   width="33.700001mm"
   height="33.799999mm"
   viewBox="0 0 33.700001 33.799999"
   version="1.1"
   id="svg8"
   inkscape:version="1.0beta2 (a2ee240, 2020-03-12)"
   sodipodi:docname="arcade_button_30mm.svg">
  <defs
     id="defs2">
    <rect
       x="26.351771"
       y="1162.5783"
       width="84.134935"
       height="43.657227"
       id="rect885" />
    <marker
       style="overflow:visible"
       refY="0"
       refX="0"
       orient="auto"
       id="DistanceX">
      <path
         id="path4487"
         style="stroke:#000000;stroke-width:0.5"
         d="M 3,-3 -3,3 M 0,-5 V 5"
         inkscape:connector-curvature="0" />
    </marker>
    <pattern
       y="0"
       x="0"
       width="8"
       patternUnits="userSpaceOnUse"
       id="Hatch"
       height="8">
      <path
         id="path4490"
         stroke-width="0.25"
         stroke="#000000"
         linecap="square"
         d="M8 4 l-4,4" />
      <path
         id="path4492"
         stroke-width="0.25"
         stroke="#000000"
         linecap="square"
         d="M6 2 l-4,4" />
      <path
         id="path4494"
         stroke-width="0.25"
         stroke="#000000"
         linecap="square"
         d="M4 0 l-4,4" />
    </pattern>
    <symbol
       id="*MODEL_SPACE" />
    <symbol
       id="*PAPER_SPACE" />
  </defs>
  <sodipodi:namedview
     id="base"
     pagecolor="#ffffff"
     bordercolor="#666666"
     borderopacity="1.0"
     inkscape:pageopacity="0.0"
     inkscape:pageshadow="2"
     inkscape:zoom="8.1773405"
     inkscape:cx="51.118616"
     inkscape:cy="61.606895"
     inkscape:document-units="mm"
     inkscape:current-layer="g4503"
     showgrid="false"
     inkscape:window-width="3240"
     inkscape:window-height="2050"
     inkscape:window-x="-12"
     inkscape:window-y="-12"
     inkscape:window-maximized="1"
     inkscape:document-rotation="0" />
  <metadata
     id="metadata5">
    <rdf:RDF>
      <cc:Work
         rdf:about="">
        <dc:format>image/svg+xml</dc:format>
        <dc:type
           rdf:resource="http://purl.org/dc/dcmitype/StillImage" />
        <dc:title />
      </cc:Work>
    </rdf:RDF>
  </metadata>
  <g
     inkscape:label="Layer 1"
     inkscape:groupmode="layer"
     id="layer1"
     transform="translate(0,-289.15)">
    <g
       id="g4503"
       inkscape:label="0"
       transform="matrix(0.26458333,0,0,0.26458333,0.14600821,-7.6420557)"
       style="fill:none;stroke:#0f0000;stroke-width:1.00157;stroke-miterlimit:4;stroke-dasharray:none;stroke-opacity:1">
      <circle
         style="fill:none;stroke:#000000;stroke-width:0.932167;stroke-linecap:square;stroke-miterlimit:4;stroke-dasharray:none;stroke-dashoffset:9.44882;stroke-opacity:1"
         id="path866"
         cx="63.040695"
         cy="1185.405"
         r="57.171711" />
      <circle
         cy="1185.3529"
         cx="62.955891"
         id="path866-5"
         style="fill:none;stroke:#ff0000;stroke-width:1.01774;stroke-linecap:square;stroke-miterlimit:4;stroke-dasharray:none;stroke-dashoffset:9.44882;stroke-opacity:1"
         r="62.420265" />
      <g
         style="font-style:normal;font-weight:normal;font-size:10.6667px;line-height:1.25;font-family:sans-serif;letter-spacing:0px;word-spacing:0px;white-space:pre;shape-inside:url(#rect885);fill:#ff0000;fill-opacity:1;stroke:none"
         id="text883"
         aria-label="Adafruit
Arcade Button
30mm">
        <path
           id="path865"
           d="m 33.507835,1172.3097 h -1.098962 l -0.760419,-2.1615 h -3.354177 l -0.760419,2.1615 H 26.48698 l 2.822925,-7.7553 h 1.375005 z m -2.17709,-3.0469 -1.359379,-3.8073 -1.364588,3.8073 z" />
        <path
           id="path867"
           d="m 39.325562,1172.3097 h -0.97917 v -0.6094 q -0.421876,0.3646 -0.880211,0.5677 -0.458335,0.2031 -0.994795,0.2031 -1.04167,0 -1.656255,-0.802 -0.609377,-0.8021 -0.609377,-2.224 0,-0.7396 0.208334,-1.3177 0.213542,-0.5782 0.572919,-0.9844 0.354167,-0.3958 0.822919,-0.6042 0.47396,-0.2083 0.97917,-0.2083 0.458334,0 0.812502,0.099 0.354168,0.094 0.744794,0.2968 v -2.5208 h 0.97917 z m -0.97917,-1.4323 v -3.3386 q -0.395834,-0.1771 -0.708335,-0.2448 -0.312501,-0.068 -0.682294,-0.068 -0.822919,0 -1.281254,0.5729 -0.458335,0.573 -0.458335,1.6251 0,1.0364 0.354168,1.5781 0.354168,0.5364 1.13542,0.5364 0.416668,0 0.843753,-0.1822 0.427084,-0.1875 0.796877,-0.4792 z" />
        <path
           id="path869"
           d="m 45.773499,1172.3097 h -0.973962 v -0.6198 q -0.130208,0.088 -0.354168,0.25 -0.21875,0.1562 -0.427084,0.25 -0.244793,0.1198 -0.562502,0.1979 -0.317709,0.083 -0.744794,0.083 -0.786461,0 -1.333338,-0.5208 -0.546876,-0.5208 -0.546876,-1.3281 0,-0.6615 0.281251,-1.0677 0.286459,-0.4115 0.812502,-0.6459 0.531252,-0.2343 1.276046,-0.3177 0.744794,-0.083 1.598963,-0.125 v -0.151 q 0,-0.3334 -0.119792,-0.5521 -0.114583,-0.2188 -0.333334,-0.3438 -0.208334,-0.1198 -0.500002,-0.1614 -0.291667,-0.042 -0.609377,-0.042 -0.385418,0 -0.859377,0.1042 -0.47396,0.099 -0.97917,0.2916 h -0.05208 v -0.9947 q 0.28646,-0.078 0.828128,-0.1719 0.541668,-0.094 1.067712,-0.094 0.614585,0 1.067711,0.1042 0.458335,0.099 0.79167,0.3437 0.328126,0.2396 0.500001,0.6198 0.171876,0.3802 0.171876,0.9427 z m -0.973962,-1.4323 v -1.6198 q -0.447918,0.026 -1.057295,0.078 -0.604168,0.052 -0.958336,0.1511 -0.421876,0.1197 -0.682294,0.375 -0.260417,0.25 -0.260417,0.6927 0,0.5 0.302084,0.7552 0.302084,0.25 0.921878,0.25 0.515626,0 0.942711,-0.1979 0.427085,-0.2032 0.791669,-0.4844 z" />
        <path
           id="path871"
           d="m 50.799556,1165.1534 h -0.05208 q -0.161459,-0.047 -0.421877,-0.094 -0.260417,-0.052 -0.458334,-0.052 -0.630211,0 -0.91667,0.2812 -0.281251,0.2761 -0.281251,1.0052 v 0.198 h 1.765631 v 0.8229 h -1.734381 v 4.9948 h -0.979169 v -4.9948 h -0.661461 v -0.8229 h 0.661461 v -0.1928 q 0,-1.0364 0.515626,-1.5885 0.515627,-0.5573 1.489588,-0.5573 0.328126,0 0.588544,0.031 0.265626,0.031 0.484376,0.073 z" />
        <path
           id="path873"
           d="m 55.049571,1167.5597 h -0.05208 q -0.218751,-0.052 -0.427085,-0.073 -0.203126,-0.026 -0.484376,-0.026 -0.453127,0 -0.875003,0.2031 -0.421877,0.1979 -0.812503,0.5157 v 4.1302 h -0.97917 v -5.8177 h 0.97917 v 0.8593 q 0.583335,-0.4687 1.026045,-0.6614 0.447918,-0.1979 0.911461,-0.1979 0.255209,0 0.369793,0.016 0.114584,0.01 0.343751,0.047 z" />
        <path
           id="path875"
           d="m 60.804797,1172.3097 h -0.97917 v -0.6459 q -0.494793,0.3907 -0.94792,0.599 -0.453126,0.2083 -1.000003,0.2083 -0.916669,0 -1.427088,-0.5573 -0.510418,-0.5625 -0.510418,-1.6458 v -3.776 h 0.97917 v 3.3125 q 0,0.4427 0.04167,0.7604 0.04167,0.3125 0.177083,0.5364 0.140626,0.2292 0.364585,0.3334 0.223959,0.1041 0.651044,0.1041 0.380209,0 0.828127,-0.1979 0.453127,-0.1979 0.843753,-0.5052 v -4.3437 h 0.97917 z" />
        <path
           id="path877"
           d="m 63.783972,1165.518 h -1.10417 v -1.0156 h 1.10417 z m -0.0625,6.7917 h -0.97917 v -5.8177 h 0.97917 z" />
        <path
           id="path879"
           d="m 68.69024,1172.2576 q -0.276042,0.073 -0.604168,0.1198 -0.322918,0.047 -0.578127,0.047 -0.890628,0 -1.354171,-0.4792 -0.463543,-0.4792 -0.463543,-1.5365 v -3.0937 H 65.02877 v -0.8229 h 0.661461 v -1.6719 H 66.6694 v 1.6719 h 2.02084 v 0.8229 H 66.6694 v 2.651 q 0,0.4584 0.02083,0.7188 0.02083,0.2552 0.145834,0.4791 0.114583,0.2084 0.312501,0.3073 0.203125,0.094 0.614585,0.094 0.239584,0 0.500001,-0.068 0.260418,-0.073 0.375002,-0.1198 h 0.05208 z" />
        <path
           id="path881"
           d="m 33.507835,1185.6431 h -1.098962 l -0.760419,-2.1615 h -3.354177 l -0.760419,2.1615 H 26.48698 l 2.822925,-7.7553 h 1.375005 z m -2.17709,-3.0469 -1.359379,-3.8073 -1.364588,3.8073 z" />
        <path
           id="path883"
           d="m 38.237017,1180.893 h -0.05208 q -0.21875,-0.052 -0.427084,-0.073 -0.203126,-0.026 -0.484377,-0.026 -0.453126,0 -0.875003,0.2031 -0.421876,0.1979 -0.812502,0.5156 v 4.1303 h -0.97917 v -5.8178 h 0.97917 v 0.8594 q 0.583335,-0.4687 1.026045,-0.6615 0.447918,-0.1979 0.911461,-0.1979 0.255209,0 0.369793,0.016 0.114583,0.01 0.343751,0.047 z" />
        <path
           id="path885"
           d="m 43.471408,1185.2785 q -0.489585,0.2343 -0.932294,0.3646 -0.437502,0.1302 -0.932295,0.1302 -0.63021,0 -1.156254,-0.1823 -0.526043,-0.1875 -0.901044,-0.5625 -0.38021,-0.375 -0.588544,-0.948 -0.208334,-0.5729 -0.208334,-1.3385 0,-1.4271 0.781253,-2.2396 0.786461,-0.8125 2.072923,-0.8125 0.500002,0 0.97917,0.1406 0.484376,0.1407 0.885419,0.3438 v 1.0885 h -0.05208 q -0.447918,-0.3489 -0.927086,-0.5364 -0.47396,-0.1875 -0.927087,-0.1875 -0.833336,0 -1.317712,0.5625 -0.479168,0.5573 -0.479168,1.6406 0,1.0521 0.468751,1.6198 0.47396,0.5625 1.328129,0.5625 0.296876,0 0.604169,-0.078 0.307293,-0.078 0.552085,-0.2032 0.213542,-0.1093 0.401043,-0.2291 0.1875,-0.125 0.296876,-0.2136 h 0.05208 z" />
        <path
           id="path887"
           d="m 49.252676,1185.6431 h -0.973961 v -0.6198 q -0.130209,0.088 -0.354168,0.25 -0.218751,0.1562 -0.427085,0.25 -0.244792,0.1198 -0.562501,0.1979 -0.31771,0.083 -0.744795,0.083 -0.78646,0 -1.333337,-0.5208 -0.546877,-0.5209 -0.546877,-1.3282 0,-0.6614 0.281251,-1.0677 0.286459,-0.4114 0.812503,-0.6458 0.531251,-0.2344 1.276045,-0.3177 0.744794,-0.083 1.598964,-0.125 v -0.1511 q 0,-0.3333 -0.119792,-0.552 -0.114584,-0.2188 -0.333335,-0.3438 -0.208334,-0.1198 -0.500001,-0.1614 -0.291668,-0.042 -0.609377,-0.042 -0.385418,0 -0.859378,0.1042 -0.47396,0.099 -0.97917,0.2916 h -0.05208 v -0.9948 q 0.286459,-0.078 0.828127,-0.1718 0.541669,-0.094 1.067712,-0.094 0.614585,0 1.067712,0.1042 0.458335,0.099 0.791669,0.3437 0.328126,0.2396 0.500002,0.6198 0.171875,0.3802 0.171875,0.9427 z m -0.973961,-1.4323 v -1.6198 q -0.447918,0.026 -1.057295,0.078 -0.604169,0.052 -0.958337,0.151 -0.421876,0.1198 -0.682293,0.375 -0.260418,0.25 -0.260418,0.6927 0,0.5 0.302084,0.7552 0.302085,0.2501 0.921878,0.2501 0.515627,0 0.942712,-0.198 0.427084,-0.2031 0.791669,-0.4843 z" />
        <path
           id="path889"
           d="m 55.86728,1185.6431 h -0.979169 v -0.6094 q -0.421877,0.3646 -0.880211,0.5677 -0.458335,0.2031 -0.994795,0.2031 -1.04167,0 -1.656255,-0.8021 -0.609377,-0.8021 -0.609377,-2.2239 0,-0.7396 0.208334,-1.3178 0.213542,-0.5781 0.572918,-0.9843 0.354168,-0.3959 0.822919,-0.6042 0.47396,-0.2083 0.97917,-0.2083 0.458335,0 0.812503,0.099 0.354167,0.094 0.744794,0.2969 v -2.5208 h 0.979169 z m -0.979169,-1.4323 v -3.3386 q -0.395835,-0.1771 -0.708336,-0.2448 -0.312501,-0.068 -0.682294,-0.068 -0.822919,0 -1.281254,0.5729 -0.458335,0.5729 -0.458335,1.625 0,1.0365 0.354168,1.5782 0.354168,0.5364 1.135421,0.5364 0.416668,0 0.843752,-0.1823 0.427085,-0.1875 0.796878,-0.4791 z" />
        <path
           id="path891"
           d="m 62.664178,1182.8358 h -4.286472 q 0,0.5364 0.161459,0.9375 0.161458,0.3958 0.442709,0.651 0.270834,0.25 0.640627,0.375 0.375001,0.125 0.82292,0.125 0.593751,0 1.192712,-0.2344 0.604168,-0.2396 0.859377,-0.4687 h 0.05208 v 1.0677 q -0.494793,0.2083 -1.01042,0.3489 -0.515627,0.1407 -1.083337,0.1407 -1.447921,0 -2.260424,-0.7813 -0.812502,-0.7864 -0.812502,-2.2292 0,-1.427 0.776044,-2.2656 0.781252,-0.8385 2.05209,-0.8385 1.177087,0 1.812506,0.6875 0.640627,0.6875 0.640627,1.9531 z m -0.953128,-0.75 q -0.0052,-0.7709 -0.390627,-1.1928 -0.380209,-0.4218 -1.161462,-0.4218 -0.78646,0 -1.255212,0.4635 -0.463543,0.4635 -0.526043,1.1511 z" />
        <path
           id="path893"
           d="m 73.825671,1183.2576 q 0,0.5782 -0.218751,1.0209 -0.21875,0.4427 -0.588543,0.7291 -0.437502,0.3438 -0.963545,0.4896 -0.520835,0.1459 -1.328129,0.1459 h -2.750009 v -7.7553 h 2.296882 q 0.848961,0 1.270838,0.062 0.421876,0.062 0.807294,0.2604 0.427085,0.224 0.619794,0.5782 0.192709,0.3489 0.192709,0.8385 0,0.5521 -0.281251,0.9427 -0.281251,0.3854 -0.750003,0.6198 v 0.042 q 0.786461,0.1614 1.239588,0.6927 0.453126,0.526 0.453126,1.3333 z m -1.73438,-3.4948 q 0,-0.2812 -0.09375,-0.4739 -0.09375,-0.1927 -0.302084,-0.3125 -0.244792,-0.1407 -0.593752,-0.1719 -0.348959,-0.036 -0.864586,-0.036 h -1.229171 v 2.2396 h 1.333338 q 0.484377,0 0.770836,-0.047 0.286459,-0.052 0.531251,-0.2083 0.244793,-0.1562 0.343752,-0.401 0.104167,-0.25 0.104167,-0.5886 z m 0.66146,3.5365 q 0,-0.4688 -0.140625,-0.7448 -0.140626,-0.276 -0.510419,-0.4687 -0.250001,-0.1303 -0.609377,-0.1667 -0.354167,-0.042 -0.864586,-0.042 h -1.619797 v 2.8854 h 1.364588 q 0.677086,0 1.109379,-0.068 0.432293,-0.073 0.708335,-0.2604 0.291668,-0.2031 0.427085,-0.4635 0.135417,-0.2604 0.135417,-0.6719 z" />
        <path
           id="path895"
           d="m 80.034024,1185.6431 h -0.97917 v -0.6459 q -0.494793,0.3906 -0.94792,0.599 -0.453126,0.2083 -1.000003,0.2083 -0.916669,0 -1.427088,-0.5573 -0.510418,-0.5625 -0.510418,-1.6458 v -3.7761 h 0.97917 v 3.3125 q 0,0.4427 0.04167,0.7605 0.04167,0.3125 0.177084,0.5364 0.140625,0.2292 0.364584,0.3334 0.223959,0.1041 0.651044,0.1041 0.380209,0 0.828127,-0.1979 0.453127,-0.1979 0.843753,-0.5052 v -4.3438 h 0.97917 z" />
        <path
           id="path897"
           d="m 84.981958,1185.591 q -0.276043,0.073 -0.604169,0.1198 -0.322918,0.047 -0.578127,0.047 -0.890628,0 -1.354171,-0.4791 -0.463543,-0.4792 -0.463543,-1.5365 v -3.0938 h -0.66146 v -0.8229 h 0.66146 v -1.6719 h 0.97917 v 1.6719 h 2.02084 v 0.8229 h -2.02084 v 2.6511 q 0,0.4583 0.02083,0.7187 0.02083,0.2553 0.145834,0.4792 0.114584,0.2084 0.312501,0.3073 0.203126,0.094 0.614585,0.094 0.239584,0 0.500002,-0.068 0.260417,-0.073 0.375001,-0.1198 h 0.05208 z" />
        <path
           id="path899"
           d="m 89.190305,1185.591 q -0.276043,0.073 -0.604169,0.1198 -0.322917,0.047 -0.578126,0.047 -0.890628,0 -1.354171,-0.4791 -0.463544,-0.4792 -0.463544,-1.5365 v -3.0938 h -0.66146 v -0.8229 h 0.66146 v -1.6719 h 0.97917 v 1.6719 h 2.02084 v 0.8229 h -2.02084 v 2.6511 q 0,0.4583 0.02083,0.7187 0.02083,0.2553 0.145833,0.4792 0.114584,0.2084 0.312501,0.3073 0.203126,0.094 0.614586,0.094 0.239584,0 0.500001,-0.068 0.260418,-0.073 0.375001,-0.1198 h 0.05208 z" />
        <path
           id="path901"
           d="m 95.336155,1182.7368 q 0,1.4219 -0.729169,2.2448 -0.729169,0.8229 -1.953132,0.8229 -1.234378,0 -1.963547,-0.8229 -0.723961,-0.8229 -0.723961,-2.2448 0,-1.4219 0.723961,-2.2448 0.729169,-0.8281 1.963547,-0.8281 1.223963,0 1.953132,0.8281 0.729169,0.8229 0.729169,2.2448 z m -1.01042,0 q 0,-1.1302 -0.44271,-1.6771 -0.44271,-0.5521 -1.229171,-0.5521 -0.796877,0 -1.239587,0.5521 -0.437501,0.5469 -0.437501,1.6771 0,1.0937 0.44271,1.6615 0.442709,0.5625 1.234378,0.5625 0.781253,0 1.223963,-0.5573 0.447918,-0.5625 0.447918,-1.6667 z" />
        <path
           id="path903"
           d="m 101.72159,1185.6431 h -0.97917 v -3.3126 q 0,-0.401 -0.0469,-0.75 -0.0469,-0.3541 -0.17188,-0.552 -0.13021,-0.2188 -0.375,-0.323 -0.244793,-0.1093 -0.635419,-0.1093 -0.401043,0 -0.838544,0.1979 -0.437502,0.1979 -0.838545,0.5052 v 4.3438 h -0.979169 v -5.8178 h 0.979169 v 0.6459 q 0.458335,-0.3802 0.94792,-0.5938 0.489585,-0.2135 1.005212,-0.2135 0.942706,0 1.437506,0.5677 0.49479,0.5677 0.49479,1.6354 z" />
        <path
           id="path905"
           d="m 31.75783,1195.242 q 0.25,0.224 0.411459,0.5625 0.161459,0.3386 0.161459,0.875 0,0.5313 -0.192709,0.974 -0.192709,0.4427 -0.541668,0.7708 -0.390626,0.3646 -0.921878,0.5417 -0.526044,0.1719 -1.156254,0.1719 -0.645835,0 -1.270837,-0.1563 -0.625002,-0.151 -1.026045,-0.3333 v -1.0885 h 0.07813 q 0.44271,0.2916 1.04167,0.4843 0.59896,0.1927 1.156254,0.1927 0.328126,0 0.697919,-0.1093 0.369792,-0.1094 0.59896,-0.323 0.239584,-0.2291 0.354168,-0.5052 0.119792,-0.276 0.119792,-0.6979 0,-0.4166 -0.135417,-0.6875 -0.130209,-0.276 -0.364585,-0.4323 -0.234376,-0.1614 -0.56771,-0.2187 -0.333334,-0.062 -0.718752,-0.062 h -0.468752 v -0.8646 h 0.364585 q 0.791669,0 1.26042,-0.3281 0.47396,-0.3334 0.47396,-0.9688 0,-0.2812 -0.119792,-0.4896 -0.119792,-0.2135 -0.333334,-0.3489 -0.223959,-0.1355 -0.479168,-0.1875 -0.25521,-0.052 -0.578127,-0.052 -0.494793,0 -1.052087,0.1771 -0.557293,0.177 -1.052087,0.5 h -0.05208 v -1.0886 q 0.369793,-0.1823 0.984378,-0.3333 0.619794,-0.1563 1.197921,-0.1563 0.56771,0 1.000003,0.1042 0.432293,0.1042 0.781252,0.3333 0.375001,0.25 0.56771,0.6042 0.192709,0.3542 0.192709,0.8281 0,0.6459 -0.458335,1.1302 -0.453126,0.4792 -1.07292,0.6042 v 0.073 q 0.250001,0.042 0.572919,0.1771 0.322918,0.1302 0.546877,0.3281 z" />
        <path
           id="path907"
           d="m 39.221395,1195.0962 q 0,2.0886 -0.656252,3.0677 -0.651044,0.974 -2.026048,0.974 -1.395838,0 -2.041674,-0.9896 -0.640627,-0.9896 -0.640627,-3.0417 0,-2.0677 0.651044,-3.0521 0.651044,-0.9896 2.031257,-0.9896 1.395837,0 2.036464,1.0053 0.645836,1 0.645836,3.026 z m -1.369796,2.3646 q 0.182292,-0.4219 0.244792,-0.9896 0.06771,-0.5729 0.06771,-1.375 0,-0.7917 -0.06771,-1.375 -0.0625,-0.5833 -0.250001,-0.9896 -0.182292,-0.401 -0.500001,-0.6042 -0.312501,-0.2031 -0.807294,-0.2031 -0.489585,0 -0.812503,0.2031 -0.317709,0.2032 -0.50521,0.6146 -0.177084,0.3855 -0.244792,1.0052 -0.0625,0.6198 -0.0625,1.3594 0,0.8125 0.05729,1.3594 0.05729,0.5469 0.244793,0.9792 0.171875,0.4062 0.484376,0.6198 0.31771,0.2135 0.838545,0.2135 0.489584,0 0.812502,-0.2031 0.322918,-0.2031 0.500002,-0.6146 z" />
        <path
           id="path909"
           d="m 49.388093,1198.9764 h -0.979169 v -3.3125 q 0,-0.375 -0.03646,-0.7239 -0.03125,-0.349 -0.140625,-0.5573 -0.119792,-0.224 -0.343751,-0.3386 -0.223959,-0.1146 -0.645836,-0.1146 -0.411459,0 -0.822919,0.2084 -0.41146,0.2031 -0.822919,0.5208 0.01563,0.1198 0.02604,0.2813 0.01042,0.1562 0.01042,0.3125 v 3.7239 h -0.97917 v -3.3125 q 0,-0.3854 -0.03646,-0.7292 -0.03125,-0.3489 -0.140626,-0.5572 -0.119792,-0.224 -0.343751,-0.3334 -0.223959,-0.1146 -0.645835,-0.1146 -0.401043,0 -0.807294,0.198 -0.401043,0.1979 -0.802086,0.5052 v 4.3437 h -0.97917 v -5.8177 h 0.97917 v 0.6458 q 0.458335,-0.3802 0.911461,-0.5937 0.458335,-0.2136 0.973962,-0.2136 0.593751,0 1.005211,0.25 0.416668,0.25 0.619794,0.6928 0.593752,-0.5 1.083336,-0.7188 0.489585,-0.224 1.046879,-0.224 0.958336,0 1.411463,0.5834 0.458334,0.5781 0.458334,1.6198 z" />
        <path
           id="path911"
           d="m 59.763126,1198.9764 h -0.97917 v -3.3125 q 0,-0.375 -0.03646,-0.7239 -0.03125,-0.349 -0.140626,-0.5573 -0.119792,-0.224 -0.343751,-0.3386 -0.223959,-0.1146 -0.645835,-0.1146 -0.41146,0 -0.82292,0.2084 -0.411459,0.2031 -0.822919,0.5208 0.01563,0.1198 0.02604,0.2813 0.01042,0.1562 0.01042,0.3125 v 3.7239 h -0.97917 v -3.3125 q 0,-0.3854 -0.03646,-0.7292 -0.03125,-0.3489 -0.140625,-0.5572 -0.119792,-0.224 -0.343751,-0.3334 -0.223959,-0.1146 -0.645836,-0.1146 -0.401043,0 -0.807294,0.198 -0.401043,0.1979 -0.802086,0.5052 v 4.3437 h -0.979169 v -5.8177 h 0.979169 v 0.6458 q 0.458335,-0.3802 0.911462,-0.5937 0.458334,-0.2136 0.973961,-0.2136 0.593752,0 1.005211,0.25 0.416668,0.25 0.619794,0.6928 0.593752,-0.5 1.083337,-0.7188 0.489585,-0.224 1.046878,-0.224 0.958337,0 1.411463,0.5834 0.458335,0.5781 0.458335,1.6198 z" />
      </g>
    </g>
  </g>
</svg>
