<?xml version="1.0" encoding="UTF-8" standalone="no"?>
<svg
   xmlns:dc="http://purl.org/dc/elements/1.1/"
   xmlns:cc="http://creativecommons.org/ns#"
   xmlns:rdf="http://www.w3.org/1999/02/22-rdf-syntax-ns#"
   xmlns:svg="http://www.w3.org/2000/svg"
   xmlns="http://www.w3.org/2000/svg"
   xmlns:sodipodi="http://sodipodi.sourceforge.net/DTD/sodipodi-0.dtd"
   xmlns:inkscape="http://www.inkscape.org/namespaces/inkscape"
   sodipodi:docname="ebay_button_10mm_shaft.svg"
   inkscape:version="1.0beta2 (a2ee240, 2020-03-12)"
   id="svg8"
   version="1.1"
   viewBox="0 0 12.7 12.7"
   height="12.7mm"
   width="12.7mm">
  <defs
     id="defs2">
    <rect
       id="rect885"
       height="43.657227"
       width="84.134933"
       y="1162.5782"
       x="26.35177" />
    <marker
       id="DistanceX"
       orient="auto"
       refX="0"
       refY="0"
       style="overflow:visible">
      <path
         inkscape:connector-curvature="0"
         d="M 3,-3 -3,3 M 0,-5 V 5"
         style="stroke:#000000;stroke-width:0.5"
         id="path4487" />
    </marker>
    <pattern
       height="8"
       id="Hatch"
       patternUnits="userSpaceOnUse"
       width="8"
       x="0"
       y="0">
      <path
         d="M8 4 l-4,4"
         linecap="square"
         stroke="#000000"
         stroke-width="0.25"
         id="path4490" />
      <path
         d="M6 2 l-4,4"
         linecap="square"
         stroke="#000000"
         stroke-width="0.25"
         id="path4492" />
      <path
         d="M4 0 l-4,4"
         linecap="square"
         stroke="#000000"
         stroke-width="0.25"
         id="path4494" />
    </pattern>
    <symbol
       id="*MODEL_SPACE" />
    <symbol
       id="*PAPER_SPACE" />
  </defs>
  <sodipodi:namedview
     inkscape:document-rotation="0"
     inkscape:window-maximized="1"
     inkscape:window-y="-12"
     inkscape:window-x="-12"
     inkscape:window-height="2050"
     inkscape:window-width="3240"
     showgrid="false"
     inkscape:current-layer="g4503"
     inkscape:document-units="mm"
     inkscape:cy="52.588894"
     inkscape:cx="62.956239"
     inkscape:zoom="11.564506"
     inkscape:pageshadow="2"
     inkscape:pageopacity="0.0"
     borderopacity="1.0"
     bordercolor="#666666"
     pagecolor="#ffffff"
     id="base" />
  <metadata
     id="metadata5">
    <rdf:RDF>
      <cc:Work
         rdf:about="">
        <dc:format>image/svg+xml</dc:format>
        <dc:type
           rdf:resource="http://purl.org/dc/dcmitype/StillImage" />
        <dc:title></dc:title>
      </cc:Work>
    </rdf:RDF>
  </metadata>
  <g
     transform="translate(0,-289.15)"
     id="layer1"
     inkscape:groupmode="layer"
     inkscape:label="Layer 1">
    <g
       style="fill:none;stroke:#0f0000;stroke-width:1.00157;stroke-miterlimit:4;stroke-dasharray:none;stroke-opacity:1"
       transform="matrix(0.26458333,0,0,0.26458333,3.899266,-5.7654268)"
       inkscape:label="0"
       id="g4503">
      <circle
         r="18.744823"
         cy="1138.6719"
         cx="9.2422066"
         id="path866"
         style="fill:none;stroke:#000000;stroke-width:0.305629;stroke-linecap:square;stroke-miterlimit:4;stroke-dasharray:none;stroke-dashoffset:9.44882;stroke-opacity:1" />
      <circle
         r="23.43103"
         style="fill:none;stroke:#ff0000;stroke-width:0.382035;stroke-linecap:square;stroke-miterlimit:4;stroke-dasharray:none;stroke-dashoffset:9.44882;stroke-opacity:1"
         id="path866-5"
         cx="9.2422066"
         cy="1138.6719" />
      <g
         style="font-style:normal;font-weight:normal;font-size:10.6667px;line-height:0;font-family:sans-serif;letter-spacing:0px;word-spacing:0px;white-space:pre;shape-inside:url(#rect885);fill:#ff0000;fill-opacity:1;stroke:none"
         id="text883"
         transform="matrix(0.82406607,0,0,0.81530466,-26.025594,182.59457)"
         aria-label="Generic 
Button
10mm shaft">
        <path
           inkscape:connector-curvature="0"
           id="path893"
           style="font-size:5.33333px;line-height:1.05"
           d="m 30.106769,1166.6241 q -0.317709,0.1458 -0.695312,0.2552 -0.375,0.1068 -0.726563,0.1068 -0.453124,0 -0.830728,-0.125 -0.377604,-0.125 -0.643229,-0.375 -0.268229,-0.2526 -0.414062,-0.6302 -0.145834,-0.3802 -0.145834,-0.8881 0,-0.9296 0.541667,-1.4661 0.54427,-0.5391 1.492186,-0.5391 0.330729,0 0.674479,0.081 0.346354,0.078 0.744791,0.2682 v 0.612 h -0.04687 q -0.08073,-0.062 -0.234374,-0.1641 -0.153646,-0.1016 -0.302084,-0.1693 -0.179687,-0.081 -0.408853,-0.1328 -0.226563,-0.055 -0.515625,-0.055 -0.651041,0 -1.03125,0.4193 -0.377603,0.4167 -0.377603,1.1302 0,0.7526 0.395833,1.1719 0.395833,0.4167 1.078124,0.4167 0.25,0 0.497395,-0.05 0.25,-0.049 0.4375,-0.1276 v -0.9505 H 28.55729 v -0.4532 h 1.549479 z" />
        <path
           inkscape:connector-curvature="0"
           id="path895"
           style="font-size:5.33333px;line-height:1.05"
           d="m 33.403642,1165.5069 h -2.143228 q 0,0.2682 0.08073,0.4688 0.08073,0.1979 0.221354,0.3255 0.135416,0.125 0.320312,0.1875 0.1875,0.062 0.411458,0.062 0.296875,0 0.596354,-0.1172 0.302083,-0.1198 0.429687,-0.2344 h 0.02604 v 0.5339 q -0.247396,0.1041 -0.505208,0.1744 -0.257812,0.07 -0.541666,0.07 -0.723958,0 -1.130208,-0.3907 -0.40625,-0.3932 -0.40625,-1.1145 0,-0.7136 0.388021,-1.1329 0.390624,-0.4192 1.026041,-0.4192 0.588541,0 0.906249,0.3437 0.320313,0.3438 0.320313,0.9766 z m -0.476563,-0.375 q -0.0026,-0.3854 -0.195312,-0.5963 -0.190104,-0.211 -0.580729,-0.211 -0.393229,0 -0.627604,0.2318 -0.23177,0.2318 -0.26302,0.5755 z" />
        <path
           inkscape:connector-curvature="0"
           id="path897"
           style="font-size:5.33333px;line-height:1.05"
           d="m 36.578118,1166.9106 h -0.489583 v -1.6563 q 0,-0.2005 -0.02344,-0.375 -0.02344,-0.1771 -0.08594,-0.276 -0.0651,-0.1094 -0.1875,-0.1615 -0.122396,-0.055 -0.317709,-0.055 -0.20052,0 -0.41927,0.099 -0.21875,0.099 -0.419271,0.2526 v 2.1719 h -0.489583 v -2.9089 h 0.489583 v 0.3229 q 0.229167,-0.1901 0.473958,-0.2969 0.244792,-0.1067 0.502604,-0.1067 0.471354,0 0.71875,0.2838 0.247395,0.2839 0.247395,0.8177 z" />
        <path
           inkscape:connector-curvature="0"
           id="path899"
           style="font-size:5.33333px;line-height:1.05"
           d="m 39.955721,1165.5069 h -2.143228 q 0,0.2682 0.08073,0.4688 0.08073,0.1979 0.221354,0.3255 0.135417,0.125 0.320312,0.1875 0.1875,0.062 0.411458,0.062 0.296875,0 0.596354,-0.1172 0.302083,-0.1198 0.429687,-0.2344 h 0.02604 v 0.5339 q -0.247396,0.1041 -0.505208,0.1744 -0.257812,0.07 -0.541666,0.07 -0.723958,0 -1.130208,-0.3907 -0.40625,-0.3932 -0.40625,-1.1145 0,-0.7136 0.388021,-1.1329 0.390625,-0.4192 1.026041,-0.4192 0.588541,0 0.906249,0.3437 0.320313,0.3438 0.320313,0.9766 z m -0.476562,-0.375 q -0.0026,-0.3854 -0.195313,-0.5963 -0.190104,-0.211 -0.580729,-0.211 -0.393229,0 -0.627603,0.2318 -0.231771,0.2318 -0.263021,0.5755 z" />
        <path
           inkscape:connector-curvature="0"
           id="path901"
           style="font-size:5.33333px;line-height:1.05"
           d="m 42.513011,1164.5356 h -0.02604 q -0.109375,-0.026 -0.213542,-0.036 -0.101562,-0.013 -0.242187,-0.013 -0.226562,0 -0.4375,0.1015 -0.210937,0.099 -0.406249,0.2578 v 2.0652 h -0.489584 v -2.9089 h 0.489584 v 0.4297 q 0.291666,-0.2344 0.51302,-0.3307 0.223958,-0.099 0.455729,-0.099 0.127604,0 0.184896,0.01 0.05729,0.01 0.171875,0.023 z" />
        <path
           inkscape:connector-curvature="0"
           id="path903"
           style="font-size:5.33333px;line-height:1.05"
           d="m 43.505199,1163.5147 h -0.552083 v -0.5078 h 0.552083 z m -0.03125,3.3959 h -0.489583 v -2.9089 h 0.489583 z" />
        <path
           inkscape:connector-curvature="0"
           id="path905"
           style="font-size:5.33333px;line-height:1.05"
           d="m 46.598946,1166.7283 q -0.244792,0.1171 -0.466146,0.1823 -0.218749,0.065 -0.466145,0.065 -0.315104,0 -0.578125,-0.091 -0.26302,-0.094 -0.45052,-0.2812 -0.190104,-0.1875 -0.294271,-0.474 -0.104167,-0.2865 -0.104167,-0.6693 0,-0.7135 0.390625,-1.1198 0.393229,-0.4062 1.036458,-0.4062 0.25,0 0.489583,0.07 0.242187,0.07 0.442708,0.1719 v 0.5442 h -0.02604 q -0.223958,-0.1744 -0.463541,-0.2682 -0.236979,-0.094 -0.463541,-0.094 -0.416667,0 -0.658854,0.2812 -0.239583,0.2787 -0.239583,0.8203 0,0.5261 0.234374,0.8099 0.236979,0.2813 0.664063,0.2813 0.148437,0 0.302083,-0.039 0.153645,-0.039 0.276041,-0.1015 0.106771,-0.055 0.200521,-0.1146 0.09375,-0.062 0.148437,-0.1068 h 0.02604 z" />
        <path
           inkscape:connector-curvature="0"
           id="path907"
           style="font-size:5.33333px;line-height:1.05"
           d="m 29.796873,1171.3178 q 0,0.2891 -0.109375,0.5104 -0.109375,0.2214 -0.294271,0.3646 -0.21875,0.1719 -0.48177,0.2448 -0.260417,0.073 -0.664062,0.073 h -1.374999 v -3.8776 h 1.148436 q 0.424479,0 0.635417,0.031 0.210937,0.031 0.403645,0.1302 0.213542,0.112 0.309896,0.289 0.09635,0.1745 0.09635,0.4193 0,0.2761 -0.140625,0.4714 -0.140625,0.1927 -0.375,0.3099 v 0.021 q 0.393229,0.081 0.619792,0.3464 0.226562,0.263 0.226562,0.6666 z m -0.867187,-1.7474 q 0,-0.1406 -0.04687,-0.237 -0.04687,-0.096 -0.151042,-0.1562 -0.122395,-0.07 -0.296874,-0.086 -0.174479,-0.018 -0.432292,-0.018 H 27.38802 v 1.1198 h 0.666666 q 0.242188,0 0.385417,-0.023 0.143229,-0.026 0.265625,-0.1042 0.122396,-0.078 0.171875,-0.2005 0.05208,-0.125 0.05208,-0.2943 z m 0.330729,1.7683 q 0,-0.2344 -0.07031,-0.3724 -0.07031,-0.1381 -0.255208,-0.2344 -0.125,-0.065 -0.304687,-0.083 -0.177083,-0.021 -0.432291,-0.021 H 27.38802 v 1.4427 h 0.682291 q 0.338542,0 0.554688,-0.034 0.216145,-0.036 0.354166,-0.1302 0.145833,-0.1016 0.213542,-0.2318 0.06771,-0.1302 0.06771,-0.3359 z" />
        <path
           inkscape:connector-curvature="0"
           id="path909"
           style="font-size:5.33333px;line-height:1.05"
           d="m 32.901038,1172.5105 h -0.489583 v -0.3229 q -0.247396,0.1953 -0.473958,0.2995 -0.226563,0.1042 -0.5,0.1042 -0.458333,0 -0.713541,-0.2787 -0.255208,-0.2812 -0.255208,-0.8229 v -1.888 h 0.489583 v 1.6562 q 0,0.2214 0.02083,0.3802 0.02083,0.1563 0.08854,0.2683 0.07031,0.1145 0.182291,0.1666 0.111979,0.052 0.325521,0.052 0.190104,0 0.414062,-0.099 0.226562,-0.099 0.421875,-0.2527 v -2.1718 h 0.489583 z" />
        <path
           inkscape:connector-curvature="0"
           id="path911"
           style="font-size:5.33333px;line-height:1.05"
           d="m 35.374995,1172.4845 q -0.138021,0.036 -0.302083,0.06 -0.161458,0.023 -0.289062,0.023 -0.445313,0 -0.677083,-0.2396 -0.231771,-0.2395 -0.231771,-0.7682 v -1.5469 h -0.330729 v -0.4114 h 0.330729 v -0.836 h 0.489583 v 0.836 h 1.010416 v 0.4114 h -1.010416 v 1.3256 q 0,0.2291 0.01042,0.3593 0.01042,0.1276 0.07292,0.2396 0.05729,0.1042 0.15625,0.1537 0.101563,0.047 0.307292,0.047 0.119791,0 0.249999,-0.034 0.130209,-0.036 0.1875,-0.06 H 35.375 Z" />
        <path
           inkscape:connector-curvature="0"
           id="path913"
           style="font-size:5.33333px;line-height:1.05"
           d="m 37.47916,1172.4845 q -0.138021,0.036 -0.302083,0.06 -0.161458,0.023 -0.289062,0.023 -0.445313,0 -0.677083,-0.2396 -0.231771,-0.2395 -0.231771,-0.7682 v -1.5469 h -0.330729 v -0.4114 h 0.330729 v -0.836 h 0.489583 v 0.836 h 1.010416 v 0.4114 h -1.010416 v 1.3256 q 0,0.2291 0.01042,0.3593 0.01042,0.1276 0.07292,0.2396 0.05729,0.1042 0.15625,0.1537 0.101563,0.047 0.307292,0.047 0.119791,0 0.25,-0.034 0.130208,-0.036 0.187499,-0.06 h 0.02604 z" />
        <path
           inkscape:connector-curvature="0"
           id="path915"
           style="font-size:5.33333px;line-height:1.05"
           d="m 40.552075,1171.0574 q 0,0.7109 -0.364584,1.1224 -0.364583,0.4115 -0.976561,0.4115 -0.617188,0 -0.981771,-0.4115 -0.361979,-0.4115 -0.361979,-1.1224 0,-0.7109 0.361979,-1.1224 0.364583,-0.4141 0.981771,-0.4141 0.611978,0 0.976561,0.4141 0.364584,0.4115 0.364584,1.1224 z m -0.505208,0 q 0,-0.5651 -0.221354,-0.8385 -0.221355,-0.2761 -0.614583,-0.2761 -0.398438,0 -0.619792,0.2761 -0.21875,0.2734 -0.21875,0.8385 0,0.5469 0.221354,0.8307 0.221354,0.2813 0.617188,0.2813 0.390624,0 0.611978,-0.2787 0.223959,-0.2812 0.223959,-0.8333 z" />
        <path
           inkscape:connector-curvature="0"
           id="path917"
           style="font-size:5.33333px;line-height:1.05"
           d="m 43.744782,1172.5105 h -0.489583 v -1.6562 q 0,-0.2005 -0.02344,-0.375 -0.02344,-0.1771 -0.08594,-0.2761 -0.0651,-0.1093 -0.1875,-0.1614 -0.122396,-0.055 -0.317708,-0.055 -0.200521,0 -0.419271,0.099 -0.21875,0.099 -0.419271,0.2527 v 2.1718 h -0.489583 v -2.9088 h 0.489583 v 0.3229 q 0.229167,-0.1901 0.473959,-0.2969 0.244791,-0.1068 0.502603,-0.1068 0.471354,0 0.71875,0.2839 0.247396,0.2839 0.247396,0.8177 z" />
        <path
           inkscape:connector-curvature="0"
           id="path919"
           style="font-size:5.33333px;line-height:1.05"
           d="M 29.174477,1178.1105 H 27.07552 v -0.3958 h 0.807292 v -2.599 H 27.07552 v -0.3542 q 0.164063,0 0.351563,-0.026 0.1875,-0.029 0.283854,-0.081 0.119791,-0.065 0.1875,-0.1641 0.07031,-0.1016 0.08073,-0.2708 h 0.403645 v 3.4948 h 0.791666 z" />
        <path
           inkscape:connector-curvature="0"
           id="path921"
           style="font-size:5.33333px;line-height:1.05"
           d="m 32.786455,1176.1704 q 0,1.0443 -0.328125,1.5339 -0.325521,0.4869 -1.01302,0.4869 -0.697917,0 -1.020833,-0.4948 -0.320313,-0.4948 -0.320313,-1.5208 0,-1.0338 0.325521,-1.526 0.325521,-0.4948 1.015625,-0.4948 0.697916,0 1.018228,0.5026 0.322917,0.5 0.322917,1.513 z m -0.684896,1.1823 q 0.09115,-0.2109 0.122396,-0.4948 0.03385,-0.2865 0.03385,-0.6875 0,-0.3958 -0.03385,-0.6875 -0.03125,-0.2917 -0.125,-0.4948 -0.09115,-0.2005 -0.25,-0.3021 -0.15625,-0.1015 -0.403645,-0.1015 -0.244792,0 -0.40625,0.1015 -0.158854,0.1016 -0.252604,0.3073 -0.08854,0.1927 -0.122396,0.5026 -0.03125,0.3099 -0.03125,0.6797 0,0.4063 0.02865,0.6797 0.02865,0.2734 0.122396,0.4896 0.08594,0.2031 0.242187,0.3099 0.158854,0.1067 0.419271,0.1067 0.244791,0 0.406249,-0.1015 0.161458,-0.1016 0.25,-0.3073 z" />
        <path
           inkscape:connector-curvature="0"
           id="path923"
           style="font-size:5.33333px;line-height:1.05"
           d="m 37.869785,1178.1105 h -0.489583 v -1.6562 q 0,-0.1875 -0.01823,-0.362 -0.01563,-0.1745 -0.07031,-0.2787 -0.0599,-0.112 -0.171875,-0.1692 -0.111979,-0.057 -0.322916,-0.057 -0.205729,0 -0.411458,0.1041 -0.205729,0.1016 -0.411458,0.2604 0.0078,0.06 0.01302,0.1407 0.0052,0.078 0.0052,0.1562 v 1.862 h -0.489583 v -1.6562 q 0,-0.1928 -0.01823,-0.3646 -0.01563,-0.1745 -0.07031,-0.2787 -0.0599,-0.112 -0.171875,-0.1666 -0.111979,-0.057 -0.322916,-0.057 -0.200521,0 -0.403646,0.099 -0.200521,0.099 -0.401041,0.2526 v 2.1719 h -0.489583 v -2.9089 h 0.489583 v 0.323 q 0.229166,-0.1901 0.455729,-0.2969 0.229166,-0.1068 0.486979,-0.1068 0.296874,0 0.502603,0.125 0.208334,0.125 0.309896,0.3464 0.296875,-0.25 0.541666,-0.3594 0.244792,-0.112 0.523438,-0.112 0.479166,0 0.705728,0.2917 0.229167,0.289 0.229167,0.8099 z" />
        <path
           inkscape:connector-curvature="0"
           id="path925"
           style="font-size:5.33333px;line-height:1.05"
           d="m 43.057282,1178.1105 h -0.489583 v -1.6562 q 0,-0.1875 -0.01823,-0.362 -0.01563,-0.1745 -0.07031,-0.2787 -0.0599,-0.112 -0.171875,-0.1692 -0.111979,-0.057 -0.322917,-0.057 -0.205729,0 -0.411458,0.1041 -0.205729,0.1016 -0.411458,0.2604 0.0078,0.06 0.01302,0.1407 0.0052,0.078 0.0052,0.1562 v 1.862 h -0.489583 v -1.6562 q 0,-0.1928 -0.01823,-0.3646 -0.01563,-0.1745 -0.07031,-0.2787 -0.0599,-0.112 -0.171875,-0.1666 -0.111979,-0.057 -0.322917,-0.057 -0.20052,0 -0.403645,0.099 -0.200521,0.099 -0.401042,0.2526 v 2.1719 h -0.489583 v -2.9089 h 0.489583 v 0.323 q 0.229167,-0.1901 0.455729,-0.2969 0.229167,-0.1068 0.486979,-0.1068 0.296875,0 0.502604,0.125 0.208333,0.125 0.309896,0.3464 0.296875,-0.25 0.541666,-0.3594 0.244792,-0.112 0.523437,-0.112 0.479167,0 0.705729,0.2917 0.229166,0.289 0.229166,0.8099 z" />
        <path
           inkscape:connector-curvature="0"
           id="path927"
           style="font-size:5.33333px;line-height:1.05"
           d="m 47.953113,1177.272 q 0,0.3984 -0.330729,0.6536 -0.328124,0.2552 -0.898437,0.2552 -0.322916,0 -0.593749,-0.076 -0.268229,-0.078 -0.450521,-0.1693 v -0.5495 h 0.02604 q 0.231771,0.1745 0.515625,0.2787 0.283853,0.1016 0.54427,0.1016 0.322916,0 0.505208,-0.1042 0.182292,-0.1042 0.182292,-0.3281 0,-0.1719 -0.09896,-0.2605 -0.09896,-0.089 -0.380208,-0.151 -0.104166,-0.023 -0.273437,-0.055 -0.166667,-0.031 -0.304687,-0.068 -0.382813,-0.1016 -0.544271,-0.2969 -0.158854,-0.1979 -0.158854,-0.4843 0,-0.1797 0.07292,-0.3386 0.07552,-0.1588 0.226562,-0.2838 0.145833,-0.1224 0.369791,-0.1927 0.226563,-0.073 0.505208,-0.073 0.260417,0 0.526042,0.065 0.268229,0.062 0.445312,0.1537 v 0.5234 h -0.02604 q -0.1875,-0.138 -0.455729,-0.2317 -0.268229,-0.096 -0.526041,-0.096 -0.268229,0 -0.453125,0.1042 -0.184895,0.1015 -0.184895,0.3047 0,0.1796 0.111979,0.2708 0.109375,0.091 0.354166,0.1484 0.135417,0.031 0.302083,0.062 0.169271,0.031 0.28125,0.057 0.341146,0.078 0.526042,0.2682 0.184895,0.1928 0.184895,0.5105 z" />
        <path
           inkscape:connector-curvature="0"
           id="path929"
           style="font-size:5.33333px;line-height:1.05"
           d="m 51.088528,1178.1105 h -0.489583 v -1.6562 q 0,-0.2006 -0.02344,-0.375 -0.02344,-0.1771 -0.08594,-0.2761 -0.0651,-0.1094 -0.1875,-0.1614 -0.122396,-0.055 -0.317708,-0.055 -0.200521,0 -0.419271,0.099 -0.21875,0.099 -0.41927,0.2526 v 2.1719 h -0.489583 v -4.0521 h 0.489583 v 1.4662 q 0.229166,-0.1901 0.473958,-0.2969 0.244791,-0.1068 0.502604,-0.1068 0.471353,0 0.718749,0.2839 0.247396,0.2838 0.247396,0.8177 z" />
        <path
           inkscape:connector-curvature="0"
           id="path931"
           style="font-size:5.33333px;line-height:1.05"
           d="m 54.291651,1178.1105 h -0.486979 v -0.3099 q -0.0651,0.044 -0.177083,0.125 -0.109375,0.078 -0.213542,0.125 -0.122395,0.06 -0.281249,0.099 -0.158855,0.042 -0.372396,0.042 -0.393229,0 -0.666666,-0.2604 -0.273438,-0.2604 -0.273438,-0.664 0,-0.3308 0.140625,-0.5339 0.143229,-0.2057 0.40625,-0.3229 0.265625,-0.1172 0.63802,-0.1589 0.372396,-0.042 0.799479,-0.062 v -0.075 q 0,-0.1667 -0.0599,-0.276 -0.05729,-0.1094 -0.166666,-0.1719 -0.104167,-0.06 -0.25,-0.081 -0.145833,-0.021 -0.304687,-0.021 -0.192709,0 -0.429688,0.052 -0.236979,0.049 -0.489583,0.1458 h -0.02604 v -0.4974 q 0.143229,-0.039 0.414062,-0.086 0.270833,-0.047 0.533854,-0.047 0.307291,0 0.533854,0.052 0.229166,0.05 0.395833,0.1719 0.164062,0.1198 0.25,0.3099 0.08594,0.1901 0.08594,0.4713 z m -0.486979,-0.7161 v -0.8099 q -0.223958,0.013 -0.528645,0.039 -0.302084,0.026 -0.479167,0.076 -0.210937,0.06 -0.341145,0.1875 -0.130209,0.125 -0.130209,0.3464 0,0.25 0.151042,0.3776 0.151042,0.125 0.460937,0.125 0.257813,0 0.471354,-0.099 0.213542,-0.1015 0.395833,-0.2421 z" />
        <path
           inkscape:connector-curvature="0"
           id="path933"
           style="font-size:5.33333px;line-height:1.05"
           d="m 56.804669,1174.5324 h -0.02604 q -0.08073,-0.024 -0.210937,-0.047 -0.130208,-0.026 -0.229166,-0.026 -0.315104,0 -0.458334,0.1406 -0.140624,0.138 -0.140624,0.5026 v 0.099 h 0.882812 v 0.4115 h -0.867187 v 2.4974 H 55.26561 v -2.4974 h -0.330729 v -0.4115 h 0.330729 v -0.096 q 0,-0.5182 0.257812,-0.7943 0.257812,-0.2786 0.744791,-0.2786 0.164063,0 0.294271,0.016 0.132812,0.016 0.242187,0.036 z" />
        <path
           inkscape:connector-curvature="0"
           id="path935"
           style="font-size:5.33333px;line-height:1.05"
           d="m 58.624982,1178.0845 q -0.138021,0.036 -0.302084,0.06 -0.161458,0.023 -0.289062,0.023 -0.445312,0 -0.677083,-0.2396 -0.23177,-0.2396 -0.23177,-0.7682 v -1.5469 h -0.330729 v -0.4115 h 0.330729 v -0.8359 h 0.489583 v 0.8359 h 1.010416 v 0.4115 h -1.010416 v 1.3255 q 0,0.2292 0.01042,0.3594 0.01042,0.1276 0.07292,0.2396 0.05729,0.1042 0.15625,0.1536 0.101562,0.047 0.307291,0.047 0.119792,0 0.25,-0.034 0.130208,-0.037 0.1875,-0.06 h 0.02604 z" />
      </g>
    </g>
  </g>
</svg>
