<?xml version="1.0" encoding="UTF-8" standalone="no"?>
<!-- Created with Inkscape (http://www.inkscape.org/) -->

<svg
   xmlns:dc="http://purl.org/dc/elements/1.1/"
   xmlns:cc="http://creativecommons.org/ns#"
   xmlns:rdf="http://www.w3.org/1999/02/22-rdf-syntax-ns#"
   xmlns:svg="http://www.w3.org/2000/svg"
   xmlns="http://www.w3.org/2000/svg"
   xmlns:sodipodi="http://sodipodi.sourceforge.net/DTD/sodipodi-0.dtd"
   xmlns:inkscape="http://www.inkscape.org/namespaces/inkscape"
   width="1in"
   height="1in"
   viewBox="0 0 25.400001 25.4"
   version="1.1"
   id="svg4507"
   inkscape:version="0.92.1 r15371"
   sodipodi:docname="pixel_hole_12mm_1in.svg">
  <defs
     id="defs4501" />
  <sodipodi:namedview
     id="base"
     pagecolor="#ffffff"
     bordercolor="#666666"
     borderopacity="1.0"
     inkscape:pageopacity="0.0"
     inkscape:pageshadow="2"
     inkscape:zoom="3.41073"
     inkscape:cx="-73.415952"
     inkscape:cy="92.731202"
     inkscape:document-units="mm"
     inkscape:current-layer="g5094"
     showgrid="false"
     units="in"
     inkscape:window-width="1920"
     inkscape:window-height="1017"
     inkscape:window-x="-8"
     inkscape:window-y="-8"
     inkscape:window-maximized="1" />
  <metadata
     id="metadata4504">
    <rdf:RDF>
      <cc:Work
         rdf:about="">
        <dc:format>image/svg+xml</dc:format>
        <dc:type
           rdf:resource="http://purl.org/dc/dcmitype/StillImage" />
        <dc:title />
      </cc:Work>
    </rdf:RDF>
  </metadata>
  <g
     inkscape:label="Layer 1"
     inkscape:groupmode="layer"
     id="layer1"
     transform="translate(0,-271.59998)">
    <g
       id="g5094"
       transform="translate(-26.364273,-2.5527719)">
      <circle
         r="5.940033"
         cy="286.87219"
         cx="39.111797"
         id="path5056"
         style="fill:none;fill-opacity:1;stroke:#000000;stroke-width:0.11993437;stroke-linecap:round;stroke-linejoin:round;stroke-miterlimit:4;stroke-dasharray:none;stroke-dashoffset:0;stroke-opacity:1" />
      <path
         inkscape:connector-curvature="0"
         id="path5058"
         d="m 45.005495,286.87219 c 2.285275,0 2.341012,0 2.341012,0"
         style="fill:none;stroke:#090000;stroke-width:0.1;stroke-linecap:butt;stroke-linejoin:miter;stroke-miterlimit:4;stroke-dasharray:none;stroke-opacity:1" />
      <path
         inkscape:connector-curvature="0"
         id="path5058-5"
         d="m 30.839359,286.87219 c 2.285275,0 2.341012,0 2.341012,0"
         style="fill:none;stroke:#090000;stroke-width:0.1;stroke-linecap:butt;stroke-linejoin:miter;stroke-miterlimit:4;stroke-dasharray:none;stroke-opacity:1" />
      <circle
         r="12.649695"
         cy="286.87219"
         cx="39.111797"
         id="path5056-1"
         style="fill:none;fill-opacity:1;stroke:#f80000;stroke-width:0.101;stroke-linecap:round;stroke-linejoin:round;stroke-miterlimit:4;stroke-dasharray:0.808,0.808;stroke-dashoffset:0;stroke-opacity:1" />
      <path
         style="fill:none;stroke:none;stroke-width:0.26458332px;stroke-linecap:butt;stroke-linejoin:miter;stroke-opacity:1"
         d="m 31.292898,296.78621 c 1.319085,0.93846 2.742744,1.75188 4.301407,2.21635 2.8057,0.82799 5.896338,0.59577 8.584838,-0.53564 0.847571,-0.34622 1.619942,-0.8384 2.345442,-1.39138 0.158243,-0.1136 0.314023,-0.23104 0.460869,-0.35919"
         id="path4514"
         inkscape:connector-curvature="0" />
      <g
         aria-label="1&quot; diameter"
         transform="translate(0.02324823,-0.22693966)"
         style="font-style:normal;font-weight:normal;font-size:4.23333311px;line-height:1.25;font-family:sans-serif;letter-spacing:0px;word-spacing:0px;fill:#000000;fill-opacity:1;stroke:none;stroke-width:0.26458332"
         id="text4522">
        <path
           d="m 32.53457,297.6164 -0.931688,-0.60465 0.114029,-0.17571 0.358342,0.23256 0.748694,-1.15362 -0.358342,-0.23257 0.102027,-0.1572 q 0.07282,0.0473 0.163554,0.0897 0.09148,0.0413 0.149253,0.0459 0.07193,0.006 0.13049,-0.0188 0.06047,-0.0248 0.113854,-0.097 l 0.179171,0.11628 -1.006761,1.55127 0.351406,0.22806 z"
           style="font-size:2.82222223px;fill:#ff0000;fill-opacity:1;stroke-width:0.26458332"
           id="path4491" />
        <path
           d="m 34.733818,296.37567 -0.424414,0.67824 -0.160922,-0.0848 0.319571,-0.73349 z m -0.470575,-0.24799 -0.424413,0.67823 -0.160922,-0.0848 0.31957,-0.73349 z"
           style="font-size:2.82222223px;fill:#ff0000;fill-opacity:1;stroke-width:0.26458332"
           id="path4493" />
        <path
           d="m 36.292991,299.20411 -0.248939,-0.0717 0.04465,-0.15492 q -0.133969,0.0618 -0.265376,0.0798 -0.131408,0.0181 -0.267795,-0.0213 -0.26483,-0.0763 -0.362312,-0.32527 -0.09616,-0.24856 0.008,-0.61006 0.05419,-0.18803 0.149512,-0.31974 0.09665,-0.13134 0.21778,-0.20829 0.119044,-0.0747 0.253482,-0.0933 0.135761,-0.0182 0.264204,0.0188 0.116525,0.0336 0.199316,0.0847 0.08317,0.0498 0.167602,0.13005 l 0.184697,-0.64089 0.24894,0.0717 z m -0.143998,-0.43588 0.24461,-0.84878 q -0.08766,-0.074 -0.162148,-0.11413 -0.07449,-0.0401 -0.168503,-0.0672 -0.209215,-0.0603 -0.367717,0.0518 -0.158501,0.11207 -0.235586,0.37955 -0.07594,0.2635 -0.02558,0.42716 0.05074,0.16234 0.249359,0.21958 0.105932,0.0305 0.227868,0.0155 0.122318,-0.0164 0.237702,-0.0634 z"
           style="font-size:2.82222223px;fill:#ff0000;fill-opacity:1;stroke-width:0.26458332"
           id="path4495" />
        <path
           d="m 37.379755,297.5684 -0.2878,-0.0502 0.04617,-0.26472 0.2878,0.0502 z m -0.325032,1.7674 -0.255219,-0.0445 0.264467,-1.51637 0.255218,0.0445 z"
           style="font-size:2.82222223px;fill:#ff0000;fill-opacity:1;stroke-width:0.26458332"
           id="path4497" />
        <path
           d="m 38.745847,299.50772 -0.256998,-0.0189 0.01204,-0.16354 q -0.03608,0.0208 -0.09831,0.0591 -0.06076,0.037 -0.117552,0.0577 -0.06692,0.0269 -0.152271,0.0413 -0.08545,0.0158 -0.198147,0.008 -0.207522,-0.0153 -0.341705,-0.16334 -0.134183,-0.14806 -0.118497,-0.36108 0.01285,-0.17454 0.09496,-0.27627 0.08358,-0.10301 0.226943,-0.15463 0.144734,-0.0515 0.342881,-0.059 0.198146,-0.008 0.424344,-0.002 l 0.0029,-0.0399 q 0.0065,-0.0879 -0.02088,-0.148 -0.02598,-0.06 -0.08128,-0.0972 -0.05264,-0.0357 -0.128797,-0.0523 -0.07615,-0.0167 -0.159986,-0.0228 -0.101699,-0.007 -0.228786,0.0108 -0.126986,0.0169 -0.264039,0.0579 l -0.01374,-0.001 0.01933,-0.26249 q 0.0771,-0.0151 0.221856,-0.0293 0.144751,-0.0142 0.283557,-0.004 0.162169,0.0119 0.279711,0.0482 0.119017,0.035 0.202217,0.10609 0.08193,0.0696 0.119891,0.17325 0.03796,0.10367 0.02704,0.2521 z m -0.229167,-0.39686 0.03147,-0.42742 q -0.118697,-0.002 -0.280504,7e-5 -0.160433,0.002 -0.255809,0.0212 -0.113648,0.0234 -0.187322,0.0857 -0.07357,0.0609 -0.08218,0.17773 -0.0097,0.13193 0.06504,0.20514 0.07485,0.0718 0.238397,0.0839 0.136057,0.01 0.252597,-0.0339 0.116641,-0.0453 0.218308,-0.11243 z"
           style="font-size:2.82222223px;fill:#ff0000;fill-opacity:1;stroke-width:0.26458332"
           id="path4499" />
        <path
           d="m 41.486915,299.32278 -0.257815,0.0255 -0.08621,-0.87218 q -0.0098,-0.0987 -0.02844,-0.18967 -0.01731,-0.0911 -0.05153,-0.14308 -0.03737,-0.0559 -0.09932,-0.0802 -0.06195,-0.0243 -0.17303,-0.0134 -0.108337,0.0107 -0.211252,0.0763 -0.10305,0.0642 -0.203118,0.15855 0.0072,0.0311 0.01418,0.0734 0.0068,0.0409 0.01088,0.082 l 0.09692,0.98052 -0.257815,0.0255 -0.08621,-0.87218 q -0.01003,-0.10148 -0.02858,-0.19104 -0.01731,-0.0911 -0.05153,-0.14307 -0.03737,-0.0559 -0.09918,-0.0788 -0.06195,-0.0243 -0.17303,-0.0134 -0.105594,0.0104 -0.207409,0.0731 -0.100443,0.0626 -0.198039,0.15389 l 0.113053,1.14371 -0.257815,0.0255 -0.151415,-1.5318 0.257814,-0.0255 0.01681,0.17005 q 0.110784,-0.11204 0.224534,-0.18006 0.115121,-0.0682 0.250885,-0.0816 0.156335,-0.0155 0.271179,0.0397 0.116215,0.055 0.18122,0.16626 0.143321,-0.1471 0.266535,-0.21744 0.123078,-0.0717 0.269813,-0.0862 0.252329,-0.0249 0.38682,0.11686 0.135726,0.14029 0.162837,0.41456 z"
           style="font-size:2.82222223px;fill:#ff0000;fill-opacity:1;stroke-width:0.26458332"
           id="path4501" />
        <path
           d="m 43.020502,298.13126 -1.094236,0.29814 q 0.03731,0.13695 0.106424,0.22809 0.06875,0.0898 0.158296,0.13541 0.08653,0.045 0.18962,0.0512 0.104423,0.006 0.218766,-0.0253 0.151571,-0.0413 0.28817,-0.14279 0.137566,-0.10318 0.186775,-0.17943 l 0.0133,-0.004 0.07426,0.27256 q -0.111819,0.0876 -0.233666,0.15936 -0.121846,0.0718 -0.266769,0.11125 -0.36962,0.10071 -0.631373,-0.0422 -0.262114,-0.14425 -0.36246,-0.51254 -0.09926,-0.3643 0.04052,-0.63234 0.141111,-0.2684 0.465526,-0.35679 0.300483,-0.0819 0.510509,0.0494 0.211356,0.13095 0.299385,0.45403 z m -0.295477,-0.12516 q -0.05494,-0.19642 -0.182676,-0.27731 -0.126401,-0.0813 -0.325837,-0.0269 -0.200765,0.0547 -0.288185,0.20564 -0.08609,0.15057 -0.05423,0.33042 z"
           style="font-size:2.82222223px;fill:#ff0000;fill-opacity:1;stroke-width:0.26458332"
           id="path4503" />
        <path
           d="m 44.322532,298.40142 q -0.06106,0.0445 -0.137463,0.0875 -0.07512,0.0426 -0.138041,0.067 -0.219589,0.0855 -0.379874,0.0119 -0.160285,-0.0737 -0.261775,-0.33433 l -0.296972,-0.76279 -0.163086,0.0635 -0.07899,-0.2029 0.163087,-0.0635 -0.160485,-0.41221 0.24142,-0.094 0.160485,0.41221 0.498249,-0.19398 0.07899,0.20289 -0.49825,0.19398 0.254476,0.65363 q 0.044,0.11301 0.07413,0.17522 0.02963,0.0609 0.08195,0.10414 0.04825,0.0404 0.106546,0.0458 0.05908,0.004 0.160529,-0.0359 0.05907,-0.023 0.116778,-0.0647 0.05721,-0.043 0.08096,-0.0655 l 0.01284,-0.005 z"
           style="font-size:2.82222223px;fill:#ff0000;fill-opacity:1;stroke-width:0.26458332"
           id="path4505" />
        <path
           d="m 45.381028,297.01405 -0.99023,0.55288 q 0.0692,0.12393 0.158222,0.19575 0.08835,0.0706 0.186246,0.0933 0.09481,0.0228 0.196362,0.004 0.102754,-0.0195 0.206228,-0.0773 0.137165,-0.0766 0.245302,-0.20798 0.108668,-0.13328 0.138065,-0.21914 l 0.01203,-0.007 0.137718,0.24666 q -0.08743,0.11195 -0.18841,0.21094 -0.100977,0.099 -0.232126,0.17222 -0.334488,0.18676 -0.622956,0.11108 -0.28914,-0.0769 -0.475227,-0.41017 -0.184072,-0.32967 -0.112955,-0.62348 0.07232,-0.29449 0.365901,-0.45841 0.271922,-0.15182 0.507389,-0.075 0.23667,0.0762 0.399916,0.36857 z m -0.316923,-0.0503 q -0.100629,-0.1774 -0.244081,-0.22514 -0.142249,-0.0484 -0.322728,0.0523 -0.181683,0.10144 -0.230181,0.26898 -0.04729,0.16688 0.02694,0.33376 z"
           style="font-size:2.82222223px;fill:#ff0000;fill-opacity:1;stroke-width:0.26458332"
           id="path4507" />
        <path
           d="m 46.092973,295.83957 -0.01114,0.008 q -0.05491,0.0229 -0.102718,0.0509 -0.04751,0.026 -0.107677,0.0698 -0.09694,0.0705 -0.155564,0.17968 -0.05944,0.10802 -0.09354,0.2368 l 0.64302,0.88358 -0.209473,0.15244 -0.905741,-1.24458 0.209472,-0.15244 0.133794,0.18384 q 0.05181,-0.19109 0.11652,-0.30124 0.06501,-0.11208 0.164175,-0.18425 0.0546,-0.0397 0.08154,-0.0542 0.02614,-0.0156 0.08084,-0.0435 z"
           style="font-size:2.82222223px;fill:#ff0000;fill-opacity:1;stroke-width:0.26458332"
           id="path4509" />
      </g>
    </g>
  </g>
</svg>
