<?xml version="1.0" encoding="UTF-8" standalone="no"?>
<!-- Created with Inkscape (http://www.inkscape.org/) -->

<svg
   xmlns:dc="http://purl.org/dc/elements/1.1/"
   xmlns:cc="http://creativecommons.org/ns#"
   xmlns:rdf="http://www.w3.org/1999/02/22-rdf-syntax-ns#"
   xmlns:svg="http://www.w3.org/2000/svg"
   xmlns="http://www.w3.org/2000/svg"
   xmlns:sodipodi="http://sodipodi.sourceforge.net/DTD/sodipodi-0.dtd"
   xmlns:inkscape="http://www.inkscape.org/namespaces/inkscape"
   width="2in"
   height="2in"
   viewBox="0 0 50.800002 50.8"
   version="1.1"
   id="svg4507"
   inkscape:version="0.92.1 r15371"
   sodipodi:docname="pixel_hole_12mm_2in.svg">
  <defs
     id="defs4501" />
  <sodipodi:namedview
     id="base"
     pagecolor="#ffffff"
     bordercolor="#666666"
     borderopacity="1.0"
     inkscape:pageopacity="0.0"
     inkscape:pageshadow="2"
     inkscape:zoom="2.8451985"
     inkscape:cx="30.802817"
     inkscape:cy="68.824343"
     inkscape:document-units="mm"
     inkscape:current-layer="g5094"
     showgrid="false"
     units="in"
     inkscape:window-width="1920"
     inkscape:window-height="1017"
     inkscape:window-x="-8"
     inkscape:window-y="-8"
     inkscape:window-maximized="1" />
  <metadata
     id="metadata4504">
    <rdf:RDF>
      <cc:Work
         rdf:about="">
        <dc:format>image/svg+xml</dc:format>
        <dc:type
           rdf:resource="http://purl.org/dc/dcmitype/StillImage" />
        <dc:title></dc:title>
      </cc:Work>
    </rdf:RDF>
  </metadata>
  <g
     inkscape:label="Layer 1"
     inkscape:groupmode="layer"
     id="layer1"
     transform="translate(0,-246.19998)">
    <g
       id="g5094"
       transform="translate(-26.364273,-2.5527719)">
      <g
         id="g4531"
         transform="translate(12.757737,-12.740032)">
        <circle
           style="fill:none;fill-opacity:1;stroke:#000000;stroke-width:0.11993437;stroke-linecap:round;stroke-linejoin:round;stroke-miterlimit:4;stroke-dasharray:none;stroke-dashoffset:0;stroke-opacity:1"
           id="path5056"
           cx="39.111797"
           cy="286.87219"
           r="5.940033" />
        <path
           style="fill:none;stroke:#090000;stroke-width:0.1;stroke-linecap:butt;stroke-linejoin:miter;stroke-miterlimit:4;stroke-dasharray:none;stroke-opacity:1"
           d="m 45.005495,286.87219 c 2.285275,0 2.341012,0 2.341012,0"
           id="path5058"
           inkscape:connector-curvature="0" />
        <path
           style="fill:none;stroke:#090000;stroke-width:0.1;stroke-linecap:butt;stroke-linejoin:miter;stroke-miterlimit:4;stroke-dasharray:none;stroke-opacity:1"
           d="m 30.839359,286.87219 c 2.285275,0 2.341012,0 2.341012,0"
           id="path5058-5"
           inkscape:connector-curvature="0" />
      </g>
      <circle
         r="25.299002"
         cy="274.13217"
         cx="51.85067"
         id="path5056-1"
         style="fill:none;fill-opacity:1;stroke:#f80000;stroke-width:0.20199689;stroke-linecap:round;stroke-linejoin:round;stroke-miterlimit:4;stroke-dasharray:1.61597514, 1.61597514;stroke-dashoffset:0;stroke-opacity:1" />
      <path
         style="fill:none;stroke:none;stroke-width:0.26458332px;stroke-linecap:butt;stroke-linejoin:miter;stroke-opacity:1"
         d="m 44.050635,284.04619 c 1.319085,0.93846 2.742744,1.75188 4.301407,2.21635 2.8057,0.82799 5.896338,0.59577 8.584838,-0.53564 0.847571,-0.34622 1.619942,-0.8384 2.345442,-1.39138 0.158243,-0.1136 0.314023,-0.23104 0.460869,-0.35919"
         id="path4514"
         inkscape:connector-curvature="0" />
      <text
         xml:space="preserve"
         style="font-style:normal;font-weight:normal;font-size:4.23333311px;line-height:1.25;font-family:sans-serif;letter-spacing:0px;word-spacing:0px;fill:#000000;fill-opacity:1;stroke:none;stroke-width:0.26458332"
         id="text4522"
         y="20.589985"
         transform="translate(-0.5027992,-0.42420735)"
         x="4.6005645"><tspan
   id="tspan4520"
   style="font-size:2.82222223px;fill:#ff0000;fill-opacity:1;stroke-width:0.26458332">2&quot; diameter</tspan></text>
      <text
         xml:space="preserve"
         style="font-style:normal;font-weight:normal;font-size:4.23333311px;line-height:1.25;font-family:sans-serif;letter-spacing:0px;word-spacing:0px;fill:#000000;fill-opacity:1;stroke:none;stroke-width:0.26458332"
         id="text4553"
         y="20.589985"
         transform="translate(-0.5027992,-0.42420735)"
         x="4.6005645"><tspan
   id="tspan4549"
   style="font-size:2.82222223px;fill:#ff0000;fill-opacity:1;stroke-width:0.26458332">2&quot; diameter</tspan></text>
      <g
         aria-label="2&quot; diameter"
         transform="rotate(-5.7304516,-88.681689,157.73717)"
         style="font-style:normal;font-weight:normal;font-size:2.56234884px;line-height:1.25;font-family:sans-serif;letter-spacing:0px;word-spacing:0px;fill:#000000;fill-opacity:1;stroke:none;stroke-width:0.1601468"
         id="text4559">
        <path
           d="m 31.162064,310.8553 -1.197479,-0.39568 0.08204,-0.24829 q 0.160065,-0.0657 0.320131,-0.1314 0.161253,-0.0653 0.304295,-0.13532 0.301102,-0.14559 0.428235,-0.24721 0.127525,-0.10281 0.177377,-0.25368 0.04553,-0.13781 -0.02043,-0.24525 -0.06438,-0.10824 -0.227131,-0.16202 -0.108106,-0.0357 -0.246592,-0.0393 -0.138487,-0.004 -0.28438,0.0352 l -0.01188,-0.004 0.08243,-0.24948 q 0.09809,-0.0137 0.24965,-0.002 0.152752,0.0123 0.284617,0.0558 0.272047,0.0899 0.382912,0.27279 0.111258,0.18171 0.03707,0.40623 -0.03336,0.10098 -0.08855,0.18026 -0.0536,0.0785 -0.129405,0.1404 -0.07067,0.0583 -0.157183,0.10881 -0.08533,0.0509 -0.20308,0.10815 -0.168329,0.0827 -0.34262,0.1556 -0.173897,0.0717 -0.32448,0.1326 l 0.951569,0.31442 z"
           style="fill:#ff0000;fill-opacity:1;stroke-width:0.1601468"
           id="path4586"
           inkscape:connector-curvature="0" />
        <path
           d="m 32.851326,309.41551 -0.283834,0.66866 -0.156384,-0.0531 0.181947,-0.70326 z m -0.457306,-0.15526 -0.283833,0.66866 -0.156384,-0.0531 0.181947,-0.70326 z"
           style="fill:#ff0000;fill-opacity:1;stroke-width:0.1601468"
           id="path4588"
           inkscape:connector-curvature="0" />
        <path
           d="m 34.647949,311.77449 -0.231316,-0.0427 0.02654,-0.14396 q -0.115544,0.0677 -0.232668,0.0958 -0.117123,0.028 -0.243855,0.005 -0.246081,-0.0454 -0.356331,-0.26163 -0.10902,-0.21602 -0.04709,-0.55192 0.03222,-0.17472 0.106614,-0.30222 0.07563,-0.12728 0.178223,-0.20759 0.10091,-0.0781 0.220721,-0.10688 0.121042,-0.0286 0.240391,-0.007 0.108276,0.02 0.187633,0.0588 0.07958,0.0376 0.163017,0.10258 l 0.109804,-0.59552 0.231317,0.0426 z m -0.168927,-0.38101 0.145423,-0.78869 q -0.0858,-0.0591 -0.156672,-0.0887 -0.07088,-0.0296 -0.158234,-0.0457 -0.194404,-0.0358 -0.327636,0.0795 -0.133231,0.11539 -0.179059,0.36393 -0.04515,0.24485 0.01493,0.38824 0.0603,0.14216 0.244861,0.17619 0.09843,0.0181 0.207266,-0.006 0.10906,-0.0257 0.209124,-0.0785 z"
           style="fill:#ff0000;fill-opacity:1;stroke-width:0.1601468"
           id="path4590"
           inkscape:connector-curvature="0" />
        <path
           d="m 35.604396,310.27226 -0.262118,-0.0406 0.03734,-0.2411 0.262118,0.0406 z m -0.264538,1.60997 -0.232445,-0.036 0.213893,-1.38106 0.232445,0.036 z"
           style="fill:#ff0000;fill-opacity:1;stroke-width:0.1601468"
           id="path4592"
           inkscape:connector-curvature="0" />
        <path
           d="m 36.874891,312.08358 -0.232278,-0.028 0.01784,-0.14781 q -0.0336,0.0174 -0.09166,0.0494 -0.05667,0.031 -0.109052,0.0473 -0.06183,0.0215 -0.139848,0.031 -0.07817,0.0107 -0.180023,-0.002 -0.187562,-0.0226 -0.302991,-0.1626 -0.115429,-0.13996 -0.09219,-0.33249 0.01904,-0.15775 0.09781,-0.24654 0.08016,-0.0899 0.212366,-0.13063 0.133444,-0.0406 0.313468,-0.039 0.180023,0.002 0.384932,0.0162 l 0.0043,-0.036 q 0.0096,-0.0795 -0.01268,-0.13512 -0.02103,-0.0555 -0.0696,-0.0916 -0.04624,-0.0346 -0.114596,-0.0529 -0.06836,-0.0183 -0.14413,-0.0275 -0.09192,-0.0111 -0.20795,10e-5 -0.115883,0.01 -0.241917,0.0414 l -0.01242,-0.001 0.02864,-0.23725 q 0.07057,-0.0104 0.202447,-0.0172 0.13188,-0.007 0.257335,0.008 0.146571,0.0177 0.251638,0.0556 0.106458,0.0368 0.178907,0.10478 0.07136,0.0666 0.101401,0.1622 0.03004,0.0956 0.01385,0.22978 z m -0.191043,-0.36962 0.04663,-0.38631 q -0.107573,-0.007 -0.254402,-0.0118 -0.145586,-0.005 -0.2329,0.008 -0.104061,0.0164 -0.173515,0.0698 -0.0693,0.0521 -0.08205,0.15771 -0.0144,0.11924 0.0503,0.1888 0.06485,0.0683 0.21266,0.0862 0.122971,0.0149 0.230523,-0.0201 0.107703,-0.0361 0.202749,-0.0927 z"
           style="fill:#ff0000;fill-opacity:1;stroke-width:0.1601468"
           id="path4594"
           inkscape:connector-curvature="0" />
        <path
           d="m 39.361827,312.21211 -0.235066,-0.008 0.02835,-0.79523 q 0.0032,-0.09 -0.0026,-0.17411 -0.0045,-0.084 -0.02899,-0.13499 -0.02684,-0.0548 -0.07963,-0.0842 -0.05279,-0.0294 -0.154063,-0.033 -0.09878,-0.004 -0.199339,0.043 -0.100516,0.0452 -0.202014,0.11799 0.0027,0.0289 0.0038,0.0677 0.0012,0.0376 -1.74e-4,0.0751 l -0.03188,0.89401 -0.235066,-0.008 0.02835,-0.79523 q 0.0033,-0.0925 -0.0025,-0.17536 -0.0045,-0.084 -0.02899,-0.13499 -0.02684,-0.0548 -0.07967,-0.083 -0.05279,-0.0294 -0.154063,-0.033 -0.09628,-0.003 -0.195499,0.0406 -0.09797,0.0441 -0.196878,0.11442 l -0.03718,1.04279 -0.235066,-0.008 0.0498,-1.39664 0.235066,0.008 -0.0055,0.15504 q 0.113285,-0.0874 0.223894,-0.13473 0.111859,-0.0473 0.235643,-0.0429 0.142541,0.005 0.239179,0.0686 0.09789,0.0636 0.142862,0.1716 0.14682,-0.11495 0.266226,-0.16328 0.11945,-0.0496 0.253238,-0.0448 0.230064,0.008 0.333852,0.15212 0.105083,0.14271 0.09617,0.39278 z"
           style="fill:#ff0000;fill-opacity:1;stroke-width:0.1601468"
           id="path4596"
           inkscape:connector-curvature="0" />
        <path
           d="m 40.951983,311.46345 -1.028581,0.0478 q 0.006,0.12873 0.04921,0.22316 0.04316,0.0932 0.1135,0.15128 0.06778,0.057 0.157912,0.0828 0.09138,0.0258 0.198863,0.0208 0.142477,-0.007 0.283586,-0.0695 0.142302,-0.0642 0.200983,-0.12208 l 0.0125,-5.8e-4 0.01192,0.25621 q -0.116404,0.0555 -0.238564,0.095 -0.12216,0.0395 -0.258388,0.0458 -0.347443,0.0162 -0.551132,-0.16223 -0.203749,-0.17965 -0.219855,-0.52584 -0.01593,-0.34244 0.160926,-0.55233 0.178108,-0.20993 0.483058,-0.22412 0.282453,-0.0131 0.442604,0.14474 0.1614,0.15782 0.175529,0.46152 z m -0.237085,-0.16933 q -0.0099,-0.18491 -0.107051,-0.28185 -0.09594,-0.097 -0.283414,-0.0883 -0.188719,0.009 -0.296025,0.12524 -0.106057,0.11641 -0.113379,0.28208 z"
           style="fill:#ff0000;fill-opacity:1;stroke-width:0.1601468"
           id="path4598"
           inkscape:connector-curvature="0" />
        <path
           d="m 42.059068,312.01118 q -0.06412,0.0243 -0.141328,0.0438 -0.07597,0.0193 -0.136938,0.0257 -0.212773,0.0224 -0.335552,-0.0805 -0.12278,-0.10283 -0.149343,-0.35542 l -0.07772,-0.7391 -0.158025,0.0166 -0.02067,-0.1966 0.158024,-0.0166 -0.042,-0.39942 0.233925,-0.0246 0.042,0.39941 0.482783,-0.0508 0.02067,0.1966 -0.482783,0.0508 0.0666,0.63334 q 0.01151,0.1095 0.02303,0.17119 0.01139,0.0604 0.04688,0.11081 0.03261,0.0469 0.08238,0.0656 0.05088,0.0173 0.149181,0.007 0.05724,-0.006 0.11775,-0.0287 0.06038,-0.024 0.08658,-0.038 l 0.01244,-0.001 z"
           style="fill:#ff0000;fill-opacity:1;stroke-width:0.1601468"
           id="path4600"
           inkscape:connector-curvature="0" />
        <path
           d="m 43.387584,311.13113 -1.015771,0.16875 q 0.02112,0.12713 0.07517,0.21581 0.05384,0.0874 0.130541,0.13685 0.07402,0.0486 0.166574,0.0636 0.09378,0.0149 0.199929,-0.003 0.140702,-0.0234 0.273412,-0.10249 0.133738,-0.0806 0.185193,-0.14492 l 0.01234,-0.002 0.04204,0.25302 q -0.10905,0.0689 -0.225703,0.12247 -0.116652,0.0536 -0.251183,0.076 -0.343116,0.057 -0.566413,-0.0962 -0.223503,-0.15438 -0.280301,-0.49626 -0.05618,-0.33818 0.0947,-0.56744 0.152121,-0.22947 0.453273,-0.2795 0.278936,-0.0463 0.456579,0.0916 0.178877,0.1377 0.228703,0.43762 z m -0.255391,-0.14021 q -0.03158,-0.18246 -0.139523,-0.26726 -0.106708,-0.085 -0.291842,-0.0542 -0.186369,0.031 -0.2792,0.15927 -0.0916,0.12809 -0.07934,0.29347 z"
           style="fill:#ff0000;fill-opacity:1;stroke-width:0.1601468"
           id="path4602"
           inkscape:connector-curvature="0" />
        <path
           d="m 44.424558,310.40966 -0.01219,0.003 q -0.05402,-3.8e-4 -0.103907,0.006 -0.04895,0.005 -0.114786,0.0201 -0.106066,0.0245 -0.193852,0.0948 -0.08807,0.0691 -0.162352,0.16456 l 0.222958,0.96678 -0.2292,0.0529 -0.314052,-1.36179 0.229199,-0.0529 0.04639,0.20116 q 0.11124,-0.14121 0.204465,-0.21022 0.09416,-0.0705 0.202667,-0.0955 0.05974,-0.0138 0.0874,-0.0163 0.02738,-0.004 0.08299,-0.008 z"
           style="fill:#ff0000;fill-opacity:1;stroke-width:0.1601468"
           id="path4604"
           inkscape:connector-curvature="0" />
      </g>
      <path
         style="fill:none;stroke:none;stroke-width:0.26458332px;stroke-linecap:butt;stroke-linejoin:miter;stroke-opacity:1"
         d="m 42.525998,297.68629 c 0.795413,0.14748 1.952809,0.75453 3.12911,1.00727 2.081349,0.44718 4.296243,0.75296 5.735718,0.74438 1.66631,0.0574 3.417183,-0.0881 5.059265,-0.43114 0.735927,-0.15904 1.992698,-0.46892 2.709567,-0.70105 0.158392,-0.0415 1.996093,-0.69828 2.158655,-0.71808"
         id="path4570"
         inkscape:connector-curvature="0"
         sodipodi:nodetypes="cscccc" />
    </g>
  </g>
</svg>
