<?xml version="1.0" encoding="UTF-8" standalone="no"?>
<svg
   xmlns:dc="http://purl.org/dc/elements/1.1/"
   xmlns:cc="http://creativecommons.org/ns#"
   xmlns:rdf="http://www.w3.org/1999/02/22-rdf-syntax-ns#"
   xmlns:svg="http://www.w3.org/2000/svg"
   xmlns="http://www.w3.org/2000/svg"
   xmlns:sodipodi="http://sodipodi.sourceforge.net/DTD/sodipodi-0.dtd"
   xmlns:inkscape="http://www.inkscape.org/namespaces/inkscape"
   version="1.1"
   width="61mm"
   height="10mm"
   viewBox="0 0 300mm 200mm"
   xml:space="preserve"
   id="svg12"
   sodipodi:docname="40_pin_cable_slot.svg"
   inkscape:version="0.92.1 r15371"><metadata
     id="metadata16"><rdf:RDF><cc:Work
         rdf:about=""><dc:format>image/svg+xml</dc:format><dc:type
           rdf:resource="http://purl.org/dc/dcmitype/StillImage" /><dc:title></dc:title></cc:Work></rdf:RDF></metadata><sodipodi:namedview
     pagecolor="#ffffff"
     bordercolor="#666666"
     borderopacity="1"
     objecttolerance="10"
     gridtolerance="10"
     guidetolerance="10"
     inkscape:pageopacity="0"
     inkscape:pageshadow="2"
     inkscape:window-width="1920"
     inkscape:window-height="1017"
     id="namedview14"
     showgrid="false"
     inkscape:zoom="2.2227896"
     inkscape:cx="223.37384"
     inkscape:cy="16.528307"
     inkscape:window-x="-8"
     inkscape:window-y="-8"
     inkscape:window-maximized="1"
     inkscape:current-layer="svg12" /><desc
     id="desc2">Created with Fabric.js 2.0.0-beta7</desc><defs
     id="defs4" /><g
     id="g6"
     transform="translate(0,-718.11024)" /><g
     transform="translate(115.45231,18.674304)"
     style="fill:none;stroke:#000000;stroke-opacity:1"
     id="g10"><rect
       x="-113.38583"
       y="-17.007874"
       rx="0"
       ry="0"
       width="226.77165"
       height="34.015747"
       style="opacity:1;fill:none;fill-opacity:0;fill-rule:nonzero;stroke:#000000;stroke-width:1;stroke-linecap:butt;stroke-linejoin:miter;stroke-miterlimit:10;stroke-dasharray:none;stroke-opacity:1"
       id="rect8" /></g><flowRoot
     xml:space="preserve"
     id="flowRoot4493"
     style="fill:black;fill-opacity:1;stroke:none;font-family:sans-serif;font-style:normal;font-weight:normal;font-size:10.66666667px;line-height:1.25;letter-spacing:0px;word-spacing:0px;"><flowRegion
       id="flowRegion4495"
       style="font-size:10.66666667px;"><rect
         id="rect4497"
         width="211.27676"
         height="21.023598"
         x="9.5751047"
         y="8.2373457"
         style="font-size:10.66666667px;" /></flowRegion><flowPara
       id="flowPara4499"></flowPara></flowRoot><g
     aria-label="40 Pin Cable Slot"
     style="font-style:normal;font-weight:normal;font-size:16px;line-height:1.25;font-family:sans-serif;letter-spacing:0px;word-spacing:0px;fill:#ff0000;fill-opacity:1;stroke:none"
     id="text4503"><path
       d="m 78.89753,21.002219 h -1.151042 v 2.182292 h -1 v -2.182292 h -3.713542 v -1.197916 l 3.755209,-4.375 h 0.958333 v 4.739583 h 1.151042 z m -2.151042,-0.833333 v -3.5 l -3.005208,3.5 z"
       style="font-size:10.66666698px;fill:#ff0000;fill-opacity:1"
       id="path4509" /><path
       d="m 85.501697,19.304303 q 0,2.088541 -0.65625,3.067708 -0.651042,0.973959 -2.026042,0.973959 -1.395833,0 -2.041667,-0.989584 -0.640625,-0.989583 -0.640625,-3.041667 0,-2.067708 0.651042,-3.052083 0.651042,-0.989583 2.03125,-0.989583 1.395833,0 2.036458,1.005208 0.645834,1 0.645834,3.026042 z m -1.369792,2.364583 q 0.182292,-0.421875 0.244792,-0.989583 0.06771,-0.572917 0.06771,-1.375 0,-0.791667 -0.06771,-1.375 -0.0625,-0.583334 -0.25,-0.989584 -0.182292,-0.401041 -0.5,-0.604166 -0.3125,-0.203125 -0.807292,-0.203125 -0.489583,0 -0.8125,0.203125 -0.317708,0.203125 -0.505208,0.614583 -0.177084,0.385417 -0.244792,1.005208 -0.0625,0.619792 -0.0625,1.359375 0,0.8125 0.05729,1.359375 0.05729,0.546875 0.244791,0.979167 0.171875,0.40625 0.484375,0.619792 0.317709,0.213541 0.838542,0.213541 0.489583,0 0.8125,-0.203125 0.322917,-0.203125 0.5,-0.614583 z"
       style="font-size:10.66666698px;fill:#ff0000;fill-opacity:1"
       id="path4511" /><path
       d="m 96.079822,17.773053 q 0,0.515625 -0.182292,0.958333 -0.177083,0.4375 -0.5,0.760417 -0.401041,0.401041 -0.947916,0.604166 -0.546875,0.197917 -1.380209,0.197917 h -1.03125 v 2.890625 h -1.03125 v -7.755208 h 2.104167 q 0.697917,0 1.182292,0.119791 0.484375,0.114584 0.859375,0.364584 0.442708,0.296875 0.682291,0.739583 0.244792,0.442708 0.244792,1.119792 z m -1.072917,0.02604 q 0,-0.401041 -0.140625,-0.697916 -0.140625,-0.296875 -0.427083,-0.484375 -0.25,-0.161459 -0.572917,-0.229167 -0.317708,-0.07292 -0.807291,-0.07292 h -1.020834 v 3.098959 h 0.869792 q 0.625,0 1.015625,-0.109375 0.390625,-0.114584 0.635417,-0.359375 0.244791,-0.25 0.34375,-0.526042 0.104166,-0.276042 0.104166,-0.619792 z"
       style="font-size:10.66666698px;fill:#ff0000;fill-opacity:1"
       id="path4513" /><path
       d="m 98.418364,16.392844 h -1.104167 v -1.015625 h 1.104167 z m -0.0625,6.791667 h -0.979167 v -5.817708 h 0.979167 z"
       style="font-size:10.66666698px;fill:#ff0000;fill-opacity:1"
       id="path4515" /><path
       d="m 105.1267,23.184511 h -0.97917 v -3.3125 q 0,-0.401042 -0.0469,-0.75 -0.0469,-0.354167 -0.17188,-0.552083 -0.13021,-0.21875 -0.375,-0.322917 -0.24479,-0.109375 -0.63542,-0.109375 -0.40104,0 -0.83854,0.197917 -0.4375,0.197916 -0.83854,0.505208 v 4.34375 h -0.97917 v -5.817708 h 0.97917 v 0.645833 q 0.45833,-0.380208 0.94792,-0.59375 0.48958,-0.213542 1.00521,-0.213542 0.9427,0 1.4375,0.567709 0.49479,0.567708 0.49479,1.635416 z"
       style="font-size:10.66666698px;fill:#ff0000;fill-opacity:1"
       id="path4517" /><path
       d="m 116.82982,22.622011 q -0.28646,0.125 -0.52083,0.234375 -0.22917,0.109375 -0.60417,0.229167 -0.31771,0.09896 -0.69271,0.166667 -0.36979,0.07292 -0.8177,0.07292 -0.84375,0 -1.53646,-0.234375 -0.6875,-0.239583 -1.19792,-0.744792 -0.5,-0.494791 -0.78125,-1.255208 -0.28125,-0.765625 -0.28125,-1.776042 0,-0.958333 0.27083,-1.713541 0.27084,-0.755209 0.78125,-1.276042 0.4948,-0.505208 1.19271,-0.770833 0.70313,-0.265625 1.55729,-0.265625 0.625,0 1.2448,0.151041 0.625,0.151042 1.38541,0.53125 v 1.223959 h -0.0781 q -0.64063,-0.536459 -1.27084,-0.78125 -0.6302,-0.244792 -1.34895,-0.244792 -0.58855,0 -1.0625,0.192708 -0.46875,0.1875 -0.83855,0.588542 -0.35937,0.390625 -0.5625,0.989583 -0.19791,0.59375 -0.19791,1.375 0,0.817709 0.21875,1.40625 0.22396,0.588542 0.57291,0.958334 0.36459,0.385416 0.84896,0.572916 0.48959,0.182292 1.03125,0.182292 0.74479,0 1.39584,-0.255208 0.65104,-0.255209 1.21875,-0.765625 h 0.0729 z"
       style="font-size:10.66666698px;fill:#ff0000;fill-opacity:1"
       id="path4519" /><path
       d="m 122.74128,23.184511 h -0.97396 v -0.619792 q -0.13021,0.08854 -0.35417,0.250001 -0.21875,0.15625 -0.42708,0.25 -0.24479,0.119791 -0.5625,0.197916 -0.31771,0.08333 -0.74479,0.08333 -0.78646,0 -1.33333,-0.520834 -0.54688,-0.520833 -0.54688,-1.328125 0,-0.661458 0.28125,-1.067708 0.28646,-0.411459 0.8125,-0.645834 0.53125,-0.234375 1.27604,-0.317708 0.74479,-0.08333 1.59896,-0.125 v -0.151042 q 0,-0.333333 -0.11979,-0.552083 -0.11458,-0.21875 -0.33333,-0.34375 -0.20834,-0.119792 -0.5,-0.161458 -0.29167,-0.04167 -0.60938,-0.04167 -0.38542,0 -0.85937,0.104167 -0.47396,0.09896 -0.97917,0.291666 h -0.0521 v -0.994791 q 0.28645,-0.07813 0.82812,-0.171875 0.54167,-0.09375 1.06771,-0.09375 0.61458,0 1.06771,0.104166 0.45833,0.09896 0.79166,0.34375 0.32813,0.239584 0.5,0.619792 0.17188,0.380208 0.17188,0.942708 z m -0.97396,-1.432292 v -1.619791 q -0.44792,0.02604 -1.05729,0.07813 -0.60417,0.05208 -0.95833,0.151041 -0.42188,0.119792 -0.6823,0.375 -0.26041,0.25 -0.26041,0.692709 0,0.5 0.30208,0.755208 0.30208,0.25 0.92188,0.25 0.51562,0 0.9427,-0.197917 0.42709,-0.203125 0.79167,-0.484375 z"
       style="font-size:10.66666698px;fill:#ff0000;fill-opacity:1"
       id="path4521" /><path
       d="m 129.75691,20.231386 q 0,0.729167 -0.20834,1.3125 -0.20312,0.583333 -0.55208,0.979167 -0.36979,0.411458 -0.8125,0.619792 -0.44271,0.203125 -0.97396,0.203125 -0.49479,0 -0.86458,-0.119792 -0.36979,-0.114583 -0.72917,-0.3125 l -0.0625,0.270833 h -0.91667 v -8.104167 h 0.97917 v 2.895834 q 0.41146,-0.338542 0.875,-0.552084 0.46354,-0.21875 1.04167,-0.21875 1.03125,0 1.625,0.791667 0.59896,0.791667 0.59896,2.234375 z m -1.01042,0.02604 q 0,-1.041667 -0.34375,-1.578125 -0.34375,-0.541667 -1.10938,-0.541667 -0.42708,0 -0.86458,0.1875 -0.4375,0.182292 -0.8125,0.473958 v 3.333334 q 0.41667,0.1875 0.71354,0.260416 0.30209,0.07292 0.68229,0.07292 0.8125,0 1.27084,-0.53125 0.46354,-0.536458 0.46354,-1.677083 z"
       style="font-size:10.66666698px;fill:#ff0000;fill-opacity:1"
       id="path4523" /><path
       d="m 132.27253,23.184511 h -0.97917 v -8.104167 h 0.97917 z"
       style="font-size:10.66666698px;fill:#ff0000;fill-opacity:1"
       id="path4525" /><path
       d="m 139.04857,20.377219 h -4.28645 q 0,0.536459 0.16145,0.9375 0.16146,0.395834 0.44271,0.651042 0.27084,0.25 0.64063,0.375 0.375,0.125 0.82291,0.125 0.59375,0 1.19271,-0.234375 0.60417,-0.239583 0.85938,-0.46875 h 0.0521 v 1.067709 q -0.49479,0.208333 -1.01042,0.348958 -0.51562,0.140625 -1.08333,0.140625 -1.44792,0 -2.26042,-0.78125 -0.8125,-0.786459 -0.8125,-2.229167 0,-1.427083 0.77605,-2.265625 0.78125,-0.838542 2.05208,-0.838542 1.17708,0 1.8125,0.6875 0.64062,0.6875 0.64062,1.953125 z m -0.95312,-0.75 q -0.005,-0.770833 -0.39063,-1.192708 -0.3802,-0.421875 -1.16145,-0.421875 -0.78646,0 -1.25521,0.463542 -0.46354,0.463541 -0.52604,1.151041 z"
       style="font-size:10.66666698px;fill:#ff0000;fill-opacity:1"
       id="path4527" /><path
       d="m 149.99649,20.970969 q 0,0.453125 -0.21354,0.895834 -0.20834,0.442708 -0.58855,0.75 -0.41666,0.333333 -0.97395,0.520833 -0.55209,0.1875 -1.33334,0.1875 -0.83854,0 -1.51041,-0.15625 -0.66667,-0.15625 -1.35938,-0.463541 v -1.291667 h 0.0729 q 0.58854,0.489583 1.35937,0.755208 0.77084,0.265625 1.44792,0.265625 0.95833,0 1.48958,-0.359375 0.53646,-0.359375 0.53646,-0.958333 0,-0.515625 -0.25521,-0.760417 -0.25,-0.244792 -0.76562,-0.380208 -0.39063,-0.104167 -0.84896,-0.171875 -0.45313,-0.06771 -0.96354,-0.171875 -1.03125,-0.21875 -1.53125,-0.744792 -0.49479,-0.53125 -0.49479,-1.380208 0,-0.973959 0.82291,-1.59375 0.82292,-0.625 2.08854,-0.625 0.81771,0 1.5,0.15625 0.6823,0.15625 1.20834,0.385416 v 1.21875 h -0.0729 q -0.44271,-0.375 -1.16667,-0.619791 -0.71875,-0.25 -1.47395,-0.25 -0.82813,0 -1.33334,0.34375 -0.5,0.34375 -0.5,0.885416 0,0.484375 0.25,0.760417 0.25,0.276042 0.88021,0.421875 0.33333,0.07292 0.94792,0.177083 0.61458,0.104167 1.04166,0.213542 0.86459,0.229167 1.30209,0.692708 0.4375,0.463542 0.4375,1.296875 z"
       style="font-size:10.66666698px;fill:#ff0000;fill-opacity:1"
       id="path4529" /><path
       d="m 152.5642,23.184511 h -0.97917 v -8.104167 h 0.97917 z"
       style="font-size:10.66666698px;fill:#ff0000;fill-opacity:1"
       id="path4531" /><path
       d="m 159.42878,20.278261 q 0,1.421875 -0.72917,2.244792 -0.72916,0.822917 -1.95312,0.822917 -1.23438,0 -1.96354,-0.822917 -0.72396,-0.822917 -0.72396,-2.244792 0,-1.421875 0.72396,-2.244792 0.72916,-0.828125 1.96354,-0.828125 1.22396,0 1.95312,0.828125 0.72917,0.822917 0.72917,2.244792 z m -1.01042,0 q 0,-1.130208 -0.44271,-1.677083 -0.4427,-0.552084 -1.22916,-0.552084 -0.79688,0 -1.23959,0.552084 -0.4375,0.546875 -0.4375,1.677083 0,1.09375 0.44271,1.661458 0.44271,0.5625 1.23438,0.5625 0.78125,0 1.22396,-0.557291 0.44791,-0.5625 0.44791,-1.666667 z"
       style="font-size:10.66666698px;fill:#ff0000;fill-opacity:1"
       id="path4533" /><path
       d="m 163.97045,23.132428 q -0.27604,0.07292 -0.60417,0.119792 -0.32291,0.04687 -0.57812,0.04687 -0.89063,0 -1.35417,-0.479167 -0.46354,-0.479167 -0.46354,-1.536459 v -3.09375 h -0.66146 v -0.822916 h 0.66146 v -1.671875 h 0.97917 v 1.671875 h 2.02083 v 0.822916 h -2.02083 v 2.651042 q 0,0.458333 0.0208,0.71875 0.0208,0.255208 0.14583,0.479167 0.11459,0.208333 0.3125,0.307291 0.20313,0.09375 0.61459,0.09375 0.23958,0 0.5,-0.06771 0.26041,-0.07292 0.375,-0.119792 h 0.0521 z"
       style="font-size:10.66666698px;fill:#ff0000;fill-opacity:1"
       id="path4535" /></g></svg>