<?xml version="1.0" encoding="UTF-8" standalone="no"?>
<!-- Created with Inkscape (http://www.inkscape.org/) -->

<svg
   xmlns:dc="http://purl.org/dc/elements/1.1/"
   xmlns:cc="http://creativecommons.org/ns#"
   xmlns:rdf="http://www.w3.org/1999/02/22-rdf-syntax-ns#"
   xmlns:svg="http://www.w3.org/2000/svg"
   xmlns="http://www.w3.org/2000/svg"
   xmlns:sodipodi="http://sodipodi.sourceforge.net/DTD/sodipodi-0.dtd"
   xmlns:inkscape="http://www.inkscape.org/namespaces/inkscape"
   width="11.3mm"
   height="7.8499999mm"
   viewBox="0 0 11.3 7.8499999"
   version="1.1"
   id="svg8"
   inkscape:version="0.92.1 r15371"
   sodipodi:docname="cable_hole.svg">
  <defs
     id="defs2">
    <marker
       style="overflow:visible"
       refY="0"
       refX="0"
       orient="auto"
       id="DistanceX">
      <path
         id="path4487"
         style="stroke:#000000;stroke-width:0.5"
         d="M 3,-3 -3,3 M 0,-5 V 5"
         inkscape:connector-curvature="0" />
    </marker>
    <pattern
       y="0"
       x="0"
       width="8"
       patternUnits="userSpaceOnUse"
       id="Hatch"
       height="8">
      <path
         id="path4490"
         stroke-width="0.25"
         stroke="#000000"
         linecap="square"
         d="M8 4 l-4,4" />
      <path
         id="path4492"
         stroke-width="0.25"
         stroke="#000000"
         linecap="square"
         d="M6 2 l-4,4" />
      <path
         id="path4494"
         stroke-width="0.25"
         stroke="#000000"
         linecap="square"
         d="M4 0 l-4,4" />
    </pattern>
    <symbol
       id="*MODEL_SPACE" />
    <symbol
       id="*PAPER_SPACE" />
  </defs>
  <sodipodi:namedview
     id="base"
     pagecolor="#ffffff"
     bordercolor="#666666"
     borderopacity="1.0"
     inkscape:pageopacity="0.0"
     inkscape:pageshadow="2"
     inkscape:zoom="19.294002"
     inkscape:cx="22.160999"
     inkscape:cy="14.091415"
     inkscape:document-units="mm"
     inkscape:current-layer="layer1"
     showgrid="false"
     inkscape:window-width="1920"
     inkscape:window-height="1017"
     inkscape:window-x="-8"
     inkscape:window-y="-8"
     inkscape:window-maximized="1" />
  <metadata
     id="metadata5">
    <rdf:RDF>
      <cc:Work
         rdf:about="">
        <dc:format>image/svg+xml</dc:format>
        <dc:type
           rdf:resource="http://purl.org/dc/dcmitype/StillImage" />
        <dc:title />
      </cc:Work>
    </rdf:RDF>
  </metadata>
  <g
     inkscape:label="Layer 1"
     inkscape:groupmode="layer"
     id="layer1"
     transform="translate(0,-289.15)">
    <g
       id="g4503"
       inkscape:label="0"
       transform="matrix(0.26458333,0,0,0.26458333,0.14600821,-7.6420557)"
       style="stroke:#140000;stroke-width:1.00157475;stroke-miterlimit:4;stroke-dasharray:none;stroke-opacity:1">
      <path
         id="path4501"
         style="fill:none;stroke:#140000;stroke-width:1.00157475;stroke-miterlimit:4;stroke-dasharray:none;stroke-opacity:1"
         d="M 30.23622,1122.5197 H 11.338583 A 11.338583,11.338583 0 0 0 0,1133.8583 v 5.6693 a 11.338583,11.338583 0 0 0 11.338583,11.3385 H 30.23622 a 11.338583,11.338583 0 0 0 11.338583,-11.3385 v -5.6693 A 11.338583,11.338583 0 0 0 30.23622,1122.5197 Z"
         inkscape:connector-curvature="0" />
    </g>
    <g
       id="g4558"
       transform="matrix(1.1659144,0,0,1.1659144,-1.1690013,-49.015139)">
      <circle
         r="2.4710877"
         cy="292.99069"
         cx="5.7511411"
         id="path4527"
         style="fill:none;fill-opacity:1;stroke:#ff0000;stroke-width:0.26499999;stroke-miterlimit:4;stroke-dasharray:none;stroke-dashoffset:0;stroke-opacity:1" />
      <path
         inkscape:connector-curvature="0"
         id="path4529"
         d="m 3.1840204,295.01079 c 5.0862051,-0.005 5.0862051,-0.005 5.0862051,-0.005 v 0"
         style="fill:none;stroke:#ff0000;stroke-width:0.5;stroke-linecap:round;stroke-linejoin:round;stroke-miterlimit:4;stroke-dasharray:none;stroke-opacity:1" />
      <circle
         r="1.8632201"
         cy="292.99323"
         cx="5.7489872"
         id="path4527-3"
         style="fill:none;fill-opacity:1;stroke:#ff0000;stroke-width:0.60000002;stroke-miterlimit:4;stroke-dasharray:none;stroke-dashoffset:0;stroke-opacity:1" />
      <rect
         y="290.69391"
         x="5.5572357"
         height="1.2218035"
         width="0.35471717"
         id="rect4546"
         style="fill:#ffffff;fill-opacity:1;stroke:none;stroke-width:0.60000002;stroke-linecap:round;stroke-linejoin:round;stroke-miterlimit:4;stroke-dasharray:none;stroke-dashoffset:0;stroke-opacity:1" />
    </g>
    <g
       aria-label="Crimp"
       style="font-style:normal;font-weight:normal;font-size:4.23333311px;line-height:1.25;font-family:sans-serif;letter-spacing:0px;word-spacing:0px;fill:#000000;fill-opacity:1;stroke:none;stroke-width:0.26458332"
       id="text4562">
      <path
         d="m 4.9652687,292.88235 q -0.018948,0.008 -0.034451,0.0155 -0.015158,0.007 -0.039963,0.0152 -0.021015,0.007 -0.04582,0.011 -0.02446,0.005 -0.054088,0.005 -0.055811,0 -0.1016303,-0.0155 -0.045475,-0.0158 -0.079237,-0.0493 -0.033073,-0.0327 -0.051677,-0.083 -0.018603,-0.0506 -0.018603,-0.11747 0,-0.0634 0.017914,-0.11335 0.017914,-0.0499 0.051677,-0.0844 0.032728,-0.0334 0.078893,-0.051 0.046509,-0.0176 0.1030083,-0.0176 0.041341,0 0.082338,0.01 0.041341,0.01 0.09164,0.0351 v 0.081 h -0.00517 q -0.042375,-0.0355 -0.08406,-0.0517 -0.041686,-0.0162 -0.089228,-0.0162 -0.03893,0 -0.07028,0.0128 -0.031006,0.0124 -0.055466,0.0389 -0.023771,0.0258 -0.037207,0.0654 -0.013091,0.0393 -0.013091,0.091 0,0.0541 0.014469,0.093 0.014814,0.0389 0.037896,0.0634 0.024116,0.0255 0.056155,0.0379 0.032384,0.0121 0.068213,0.0121 0.049265,0 0.092329,-0.0169 0.043064,-0.0169 0.080615,-0.0507 h 0.00482 z"
         style="font-size:0.70555562px;fill:#ff0000;fill-opacity:1;stroke-width:0.26458332"
         id="path4564"
         inkscape:connector-curvature="0" />
      <path
         d="m 5.2973759,292.60536 h -0.00345 q -0.014469,-0.003 -0.02825,-0.005 -0.013436,-0.002 -0.032039,-0.002 -0.029972,0 -0.057878,0.0134 -0.027905,0.0131 -0.053744,0.0341 v 0.2732 h -0.064768 v -0.38482 h 0.064768 v 0.0568 q 0.038585,-0.031 0.067868,-0.0438 0.029628,-0.0131 0.060289,-0.0131 0.016881,0 0.02446,0.001 0.00758,6.9e-4 0.022738,0.003 z"
         style="font-size:0.70555562px;fill:#ff0000;fill-opacity:1;stroke-width:0.26458332"
         id="path4566"
         inkscape:connector-curvature="0" />
      <path
         d="M 5.428634,292.47032 H 5.355598 v -0.0672 h 0.073036 z m -0.00413,0.44924 H 5.359736 v -0.38482 h 0.064768 z"
         style="font-size:0.70555562px;fill:#ff0000;fill-opacity:1;stroke-width:0.26458332"
         id="path4568"
         inkscape:connector-curvature="0" />
      <path
         d="M 6.112141,292.91956 H 6.047373 v -0.21911 q 0,-0.0248 -0.00241,-0.0479 -0.00207,-0.0231 -0.0093,-0.0369 -0.00792,-0.0148 -0.022738,-0.0224 -0.014814,-0.008 -0.042719,-0.008 -0.027216,0 -0.054432,0.0138 -0.027216,0.0134 -0.054432,0.0344 0.00103,0.008 0.00172,0.0186 6.89e-4,0.0103 6.89e-4,0.0207 v 0.24633 H 5.798983 v -0.21911 q 0,-0.0255 -0.00241,-0.0482 -0.00207,-0.0231 -0.0093,-0.0369 -0.00792,-0.0148 -0.022738,-0.022 -0.014814,-0.008 -0.042719,-0.008 -0.026527,0 -0.053399,0.0131 -0.026527,0.0131 -0.053055,0.0334 v 0.28733 H 5.550594 v -0.38482 h 0.064768 v 0.0427 q 0.030317,-0.0251 0.060289,-0.0393 0.030317,-0.0141 0.064423,-0.0141 0.039274,0 0.06649,0.0165 0.027561,0.0165 0.040997,0.0458 0.039274,-0.0331 0.071658,-0.0475 0.032384,-0.0148 0.069246,-0.0148 0.06339,0 0.093362,0.0386 0.030317,0.0382 0.030317,0.10715 z"
         style="font-size:0.70555562px;fill:#ff0000;fill-opacity:1;stroke-width:0.26458332"
         id="path4570"
         inkscape:connector-curvature="0" />
      <path
         d="m 6.5755064,292.7225 q 0,0.0468 -0.013436,0.0858 -0.013436,0.0386 -0.037896,0.0655 -0.022738,0.0255 -0.053743,0.0396 -0.030661,0.0138 -0.065112,0.0138 -0.029972,0 -0.054432,-0.007 -0.024116,-0.007 -0.049265,-0.0203 v 0.16123 h -0.064768 v -0.52675 h 0.064768 v 0.0403 q 0.025838,-0.0217 0.057878,-0.0362 0.032384,-0.0148 0.068902,-0.0148 0.069591,0 0.108176,0.0527 0.03893,0.0524 0.03893,0.14573 z m -0.066835,0.002 q 0,-0.0696 -0.023771,-0.10404 -0.023771,-0.0344 -0.073036,-0.0344 -0.027905,0 -0.056155,0.012 -0.02825,0.0121 -0.054088,0.0317 v 0.21807 q 0.027561,0.0124 0.047198,0.0169 0.019982,0.004 0.045131,0.004 0.054088,0 0.084405,-0.0365 0.030317,-0.0365 0.030317,-0.10817 z"
         style="font-size:0.70555562px;fill:#ff0000;fill-opacity:1;stroke-width:0.26458332"
         id="path4572"
         inkscape:connector-curvature="0" />
    </g>
    <g
       aria-label="Cable Hole"
       style="font-style:normal;font-weight:normal;font-size:4.23333311px;line-height:1.25;font-family:sans-serif;letter-spacing:0px;word-spacing:0px;fill:#000000;fill-opacity:1;stroke:none;stroke-width:0.26458332"
       id="text4577"
       transform="matrix(0.92615692,0,0,0.84951587,0.37274284,44.518998)">
      <path
         d="m 2.7416744,296.56282 q -0.037896,0.0165 -0.068902,0.031 -0.030317,0.0145 -0.079926,0.0303 -0.04203,0.0131 -0.09164,0.022 -0.04892,0.01 -0.108176,0.01 -0.1116211,0 -0.2032607,-0.031 -0.09095,-0.0317 -0.1584744,-0.0985 -0.066146,-0.0655 -0.1033528,-0.16606 -0.037207,-0.10128 -0.037207,-0.23495 0,-0.12678 0.035829,-0.22669 0.035829,-0.0999 0.1033529,-0.16881 0.065457,-0.0668 0.1577854,-0.10198 0.093018,-0.0351 0.2060167,-0.0351 0.082682,0 0.1646755,0.02 0.082682,0.02 0.1832791,0.0703 v 0.16192 h -0.010335 q -0.084749,-0.071 -0.1681206,-0.10336 -0.083371,-0.0324 -0.178456,-0.0324 -0.077859,0 -0.1405599,0.0255 -0.062012,0.0248 -0.110932,0.0779 -0.047542,0.0517 -0.074414,0.13092 -0.026183,0.0785 -0.026183,0.1819 0,0.10817 0.028939,0.18603 0.029628,0.0779 0.075792,0.12678 0.048231,0.051 0.1123101,0.0758 0.064768,0.0241 0.1364258,0.0241 0.09853,0 0.1846571,-0.0338 0.086127,-0.0338 0.1612305,-0.10129 h 0.00965 z"
         style="font-size:1.41111112px;fill:#ff0000;fill-opacity:1;stroke-width:0.26458332"
         id="path4579"
         inkscape:connector-curvature="0" />
      <path
         d="M 3.5237111,296.63724 H 3.3948645 v -0.082 q -0.017226,0.0117 -0.046853,0.0331 -0.028939,0.0207 -0.0565,0.0331 -0.032384,0.0159 -0.074414,0.0262 -0.04203,0.011 -0.09853,0.011 -0.1040418,0 -0.1763888,-0.0689 -0.072347,-0.0689 -0.072347,-0.1757 0,-0.0875 0.037207,-0.14125 0.037896,-0.0544 0.107487,-0.0854 0.07028,-0.031 0.1688096,-0.042 0.09853,-0.011 0.2115289,-0.0165 v -0.02 q 0,-0.0441 -0.015847,-0.073 -0.015159,-0.0289 -0.044097,-0.0455 -0.027561,-0.0159 -0.066146,-0.0214 -0.038585,-0.006 -0.080615,-0.006 -0.050987,0 -0.1136882,0.0138 -0.062701,0.0131 -0.1295356,0.0386 h -0.00689 v -0.1316 q 0.037896,-0.0103 0.1095541,-0.0227 0.071658,-0.0124 0.1412489,-0.0124 0.081304,0 0.1412489,0.0138 0.060634,0.0131 0.1047309,0.0455 0.043408,0.0317 0.066146,0.082 0.022738,0.0503 0.022738,0.12471 z m -0.1288466,-0.18948 v -0.21429 q -0.059256,0.003 -0.1398709,0.0103 -0.079926,0.007 -0.1267795,0.02 -0.055811,0.0159 -0.090261,0.0496 -0.034451,0.0331 -0.034451,0.0916 0,0.0661 0.039963,0.0999 0.039963,0.0331 0.1219563,0.0331 0.068213,0 0.1247125,-0.0262 0.0565,-0.0269 0.1047309,-0.0641 z"
         style="font-size:1.41111112px;fill:#ff0000;fill-opacity:1;stroke-width:0.26458332"
         id="path4581"
         inkscape:connector-curvature="0" />
      <path
         d="m 4.4518198,296.24656 q 0,0.0965 -0.027561,0.17364 -0.026872,0.0772 -0.073036,0.12953 -0.04892,0.0544 -0.107487,0.082 -0.058567,0.0269 -0.1288465,0.0269 -0.065457,0 -0.1143772,-0.0159 -0.04892,-0.0152 -0.096463,-0.0413 l -0.00827,0.0358 H 3.774514 v -1.07212 h 0.1295356 v 0.3831 q 0.054432,-0.0448 0.1157552,-0.073 0.061323,-0.0289 0.1378038,-0.0289 0.1364258,0 0.214974,0.10473 0.079237,0.10474 0.079237,0.29559 z m -0.1336697,0.003 q 0,-0.13781 -0.045475,-0.20877 -0.045475,-0.0717 -0.146761,-0.0717 -0.0565,0 -0.1143772,0.0248 -0.057878,0.0241 -0.107487,0.0627 v 0.44098 q 0.055121,0.0248 0.094396,0.0344 0.039963,0.01 0.090262,0.01 0.107487,0 0.1681207,-0.0703 0.061323,-0.071 0.061323,-0.22186 z"
         style="font-size:1.41111112px;fill:#ff0000;fill-opacity:1;stroke-width:0.26458332"
         id="path4583"
         inkscape:connector-curvature="0" />
      <path
         d="M 4.7846161,296.63724 H 4.6550805 v -1.07212 h 0.1295356 z"
         style="font-size:1.41111112px;fill:#ff0000;fill-opacity:1;stroke-width:0.26458332"
         id="path4585"
         inkscape:connector-curvature="0" />
      <path
         d="M 5.6810299,296.26586 H 5.1139671 q 0,0.071 0.02136,0.12402 0.02136,0.0524 0.058567,0.0861 0.035829,0.0331 0.084749,0.0496 0.049609,0.0165 0.108865,0.0165 0.078548,0 0.1577854,-0.031 0.079926,-0.0317 0.1136881,-0.062 h 0.00689 v 0.14124 q -0.065457,0.0276 -0.1336697,0.0462 -0.068213,0.0186 -0.1433159,0.0186 -0.1915474,0 -0.2990343,-0.10335 -0.107487,-0.10404 -0.107487,-0.2949 0,-0.18879 0.1026638,-0.29972 0.1033529,-0.11094 0.2714736,-0.11094 0.1557183,0 0.2397786,0.0909 0.084749,0.091 0.084749,0.25839 z m -0.1260905,-0.0992 q -6.891e-4,-0.10198 -0.051677,-0.15779 -0.050298,-0.0558 -0.1536512,-0.0558 -0.1040419,0 -0.1660536,0.0613 -0.061323,0.0613 -0.069591,0.15228 z"
         style="font-size:1.41111112px;fill:#ff0000;fill-opacity:1;stroke-width:0.26458332"
         id="path4587"
         inkscape:connector-curvature="0" />
      <path
         d="M 7.1686221,296.63724 H 7.0321964 v -0.5023 H 6.5202552 v 0.5023 H 6.3838294 v -1.02595 h 0.1364258 v 0.40239 h 0.5119412 v -0.40239 h 0.1364257 z"
         style="font-size:1.41111112px;fill:#ff0000;fill-opacity:1;stroke-width:0.26458332"
         id="path4589"
         inkscape:connector-curvature="0" />
      <path
         d="m 8.0905298,296.25276 q 0,0.18811 -0.096463,0.29697 -0.096463,0.10887 -0.2583821,0.10887 -0.1632976,0 -0.2597602,-0.10887 -0.095774,-0.10886 -0.095774,-0.29697 0,-0.1881 0.095774,-0.29696 0.096463,-0.10956 0.2597602,-0.10956 0.1619194,0 0.2583821,0.10956 0.096463,0.10886 0.096463,0.29696 z m -0.1336697,0 q 0,-0.14951 -0.058567,-0.22186 -0.058567,-0.073 -0.1626085,-0.073 -0.10542,0 -0.1639866,0.073 -0.057878,0.0724 -0.057878,0.22186 0,0.1447 0.058567,0.2198 0.058567,0.0744 0.1632976,0.0744 0.1033528,0 0.1619194,-0.0737 0.059256,-0.0744 0.059256,-0.22049 z"
         style="font-size:1.41111112px;fill:#ff0000;fill-opacity:1;stroke-width:0.26458332"
         id="path4591"
         inkscape:connector-curvature="0" />
      <path
         d="M 8.4226368,296.63724 H 8.2931012 v -1.07212 h 0.1295356 z"
         style="font-size:1.41111112px;fill:#ff0000;fill-opacity:1;stroke-width:0.26458332"
         id="path4593"
         inkscape:connector-curvature="0" />
      <path
         d="M 9.3190508,296.26586 H 8.7519881 q 0,0.071 0.02136,0.12402 0.02136,0.0524 0.058567,0.0861 0.035829,0.0331 0.084749,0.0496 0.049609,0.0165 0.108865,0.0165 0.078548,0 0.1577854,-0.031 0.079926,-0.0317 0.1136881,-0.062 h 0.00689 v 0.14124 q -0.065457,0.0276 -0.1336697,0.0462 -0.068213,0.0186 -0.143316,0.0186 -0.1915473,0 -0.2990342,-0.10335 -0.107487,-0.10404 -0.107487,-0.2949 0,-0.18879 0.1026638,-0.29972 0.1033529,-0.11094 0.2714735,-0.11094 0.1557184,0 0.2397787,0.0909 0.084749,0.091 0.084749,0.25839 z m -0.1260905,-0.0992 q -6.89e-4,-0.10198 -0.051676,-0.15779 -0.050298,-0.0558 -0.1536512,-0.0558 -0.1040419,0 -0.1660536,0.0613 -0.061323,0.0613 -0.069591,0.15228 z"
         style="font-size:1.41111112px;fill:#ff0000;fill-opacity:1;stroke-width:0.26458332"
         id="path4595"
         inkscape:connector-curvature="0" />
    </g>
  </g>
</svg>
