<?xml version="1.0" encoding="UTF-8" standalone="no"?>
<!-- Created with Inkscape (http://www.inkscape.org/) -->

<svg
   xmlns:dc="http://purl.org/dc/elements/1.1/"
   xmlns:cc="http://creativecommons.org/ns#"
   xmlns:rdf="http://www.w3.org/1999/02/22-rdf-syntax-ns#"
   xmlns:svg="http://www.w3.org/2000/svg"
   xmlns="http://www.w3.org/2000/svg"
   xmlns:sodipodi="http://sodipodi.sourceforge.net/DTD/sodipodi-0.dtd"
   xmlns:inkscape="http://www.inkscape.org/namespaces/inkscape"
   width="11.3mm"
   height="7.8499999mm"
   viewBox="0 0 11.3 7.8499999"
   version="1.1"
   id="svg8"
   inkscape:version="0.92.1 r15371"
   sodipodi:docname="cable_hole.svg">
  <defs
     id="defs2">
    <marker
       style="overflow:visible"
       refY="0"
       refX="0"
       orient="auto"
       id="DistanceX">
      <path
         id="path4487"
         style="stroke:#000000;stroke-width:0.5"
         d="M 3,-3 -3,3 M 0,-5 V 5"
         inkscape:connector-curvature="0" />
    </marker>
    <pattern
       y="0"
       x="0"
       width="8"
       patternUnits="userSpaceOnUse"
       id="Hatch"
       height="8">
      <path
         id="path4490"
         stroke-width="0.25"
         stroke="#000000"
         linecap="square"
         d="M8 4 l-4,4" />
      <path
         id="path4492"
         stroke-width="0.25"
         stroke="#000000"
         linecap="square"
         d="M6 2 l-4,4" />
      <path
         id="path4494"
         stroke-width="0.25"
         stroke="#000000"
         linecap="square"
         d="M4 0 l-4,4" />
    </pattern>
    <symbol
       id="*MODEL_SPACE" />
    <symbol
       id="*PAPER_SPACE" />
  </defs>
  <sodipodi:namedview
     id="base"
     pagecolor="#ffffff"
     bordercolor="#666666"
     borderopacity="1.0"
     inkscape:pageopacity="0.0"
     inkscape:pageshadow="2"
     inkscape:zoom="9.49375"
     inkscape:cx="67.779374"
     inkscape:cy="31.881824"
     inkscape:document-units="mm"
     inkscape:current-layer="layer1"
     showgrid="false"
     inkscape:window-width="1920"
     inkscape:window-height="1017"
     inkscape:window-x="-8"
     inkscape:window-y="-8"
     inkscape:window-maximized="1" />
  <metadata
     id="metadata5">
    <rdf:RDF>
      <cc:Work
         rdf:about="">
        <dc:format>image/svg+xml</dc:format>
        <dc:type
           rdf:resource="http://purl.org/dc/dcmitype/StillImage" />
        <dc:title></dc:title>
      </cc:Work>
    </rdf:RDF>
  </metadata>
  <g
     inkscape:label="Layer 1"
     inkscape:groupmode="layer"
     id="layer1"
     transform="translate(0,-289.15)">
    <g
       id="g4503"
       inkscape:label="0"
       transform="matrix(0.26458333,0,0,0.26458333,0.14600821,-7.6420557)"
       style="stroke:#0a0000;stroke-width:1.00157475;stroke-miterlimit:4;stroke-dasharray:none;stroke-opacity:1">
      <path
         id="path4501"
         style="fill:none;stroke:#0a0000;stroke-width:1.00157475;stroke-miterlimit:4;stroke-dasharray:none;stroke-opacity:1"
         d="M 30.23622,1122.5197 H 11.338583 A 11.338583,11.338583 0 0 0 0,1133.8583 v 5.6693 a 11.338583,11.338583 0 0 0 11.338583,11.3385 H 30.23622 a 11.338583,11.338583 0 0 0 11.338583,-11.3385 v -5.6693 A 11.338583,11.338583 0 0 0 30.23622,1122.5197 Z"
         inkscape:connector-curvature="0" />
    </g>
    <g
       id="g4558"
       transform="matrix(1.1659144,0,0,1.1659144,-1.1690013,-49.015139)">
      <circle
         r="2.4710877"
         cy="292.99069"
         cx="5.7511411"
         id="path4527"
         style="fill:none;fill-opacity:1;stroke:#ff0000;stroke-width:0.26499999;stroke-miterlimit:4;stroke-dasharray:none;stroke-dashoffset:0;stroke-opacity:1" />
      <path
         inkscape:connector-curvature="0"
         id="path4529"
         d="m 3.1840204,295.01079 c 5.0862051,-0.005 5.0862051,-0.005 5.0862051,-0.005 v 0"
         style="fill:none;stroke:#ff0000;stroke-width:0.5;stroke-linecap:round;stroke-linejoin:round;stroke-miterlimit:4;stroke-dasharray:none;stroke-opacity:1" />
      <circle
         r="1.8632201"
         cy="292.99323"
         cx="5.7489872"
         id="path4527-3"
         style="fill:none;fill-opacity:1;stroke:#ff0000;stroke-width:0.60000002;stroke-miterlimit:4;stroke-dasharray:none;stroke-dashoffset:0;stroke-opacity:1" />
      <rect
         y="290.69391"
         x="5.5572357"
         height="1.2218035"
         width="0.35471717"
         id="rect4546"
         style="fill:#ffffff;fill-opacity:1;stroke:none;stroke-width:0.60000002;stroke-linecap:round;stroke-linejoin:round;stroke-miterlimit:4;stroke-dasharray:none;stroke-dashoffset:0;stroke-opacity:1" />
    </g>
    <g
       aria-label="Crimp"
       style="font-style:normal;font-weight:normal;font-size:4.23333311px;line-height:1.25;font-family:sans-serif;letter-spacing:0px;word-spacing:0px;fill:#000000;fill-opacity:1;stroke:none;stroke-width:0.26458332"
       id="text4562">
      <path
         d="m 4.9652687,292.88235 q -0.018948,0.008 -0.034451,0.0155 -0.015158,0.007 -0.039963,0.0152 -0.021015,0.007 -0.04582,0.011 -0.02446,0.005 -0.054088,0.005 -0.055811,0 -0.1016303,-0.0155 -0.045475,-0.0158 -0.079237,-0.0493 -0.033073,-0.0327 -0.051677,-0.083 -0.018603,-0.0506 -0.018603,-0.11747 0,-0.0634 0.017914,-0.11335 0.017914,-0.0499 0.051677,-0.0844 0.032728,-0.0334 0.078893,-0.051 0.046509,-0.0176 0.1030083,-0.0176 0.041341,0 0.082338,0.01 0.041341,0.01 0.09164,0.0351 v 0.081 h -0.00517 q -0.042375,-0.0355 -0.08406,-0.0517 -0.041686,-0.0162 -0.089228,-0.0162 -0.03893,0 -0.07028,0.0128 -0.031006,0.0124 -0.055466,0.0389 -0.023771,0.0258 -0.037207,0.0654 -0.013091,0.0393 -0.013091,0.091 0,0.0541 0.014469,0.093 0.014814,0.0389 0.037896,0.0634 0.024116,0.0255 0.056155,0.0379 0.032384,0.0121 0.068213,0.0121 0.049265,0 0.092329,-0.0169 0.043064,-0.0169 0.080615,-0.0507 h 0.00482 z"
         style="font-size:0.70555562px;fill:#ff0000;fill-opacity:1;stroke-width:0.26458332"
         id="path4564"
         inkscape:connector-curvature="0" />
      <path
         d="m 5.2973759,292.60536 h -0.00345 q -0.014469,-0.003 -0.02825,-0.005 -0.013436,-0.002 -0.032039,-0.002 -0.029972,0 -0.057878,0.0134 -0.027905,0.0131 -0.053744,0.0341 v 0.2732 h -0.064768 v -0.38482 h 0.064768 v 0.0568 q 0.038585,-0.031 0.067868,-0.0438 0.029628,-0.0131 0.060289,-0.0131 0.016881,0 0.02446,0.001 0.00758,6.9e-4 0.022738,0.003 z"
         style="font-size:0.70555562px;fill:#ff0000;fill-opacity:1;stroke-width:0.26458332"
         id="path4566"
         inkscape:connector-curvature="0" />
      <path
         d="M 5.428634,292.47032 H 5.355598 v -0.0672 h 0.073036 z m -0.00413,0.44924 H 5.359736 v -0.38482 h 0.064768 z"
         style="font-size:0.70555562px;fill:#ff0000;fill-opacity:1;stroke-width:0.26458332"
         id="path4568"
         inkscape:connector-curvature="0" />
      <path
         d="M 6.112141,292.91956 H 6.047373 v -0.21911 q 0,-0.0248 -0.00241,-0.0479 -0.00207,-0.0231 -0.0093,-0.0369 -0.00792,-0.0148 -0.022738,-0.0224 -0.014814,-0.008 -0.042719,-0.008 -0.027216,0 -0.054432,0.0138 -0.027216,0.0134 -0.054432,0.0344 0.00103,0.008 0.00172,0.0186 6.89e-4,0.0103 6.89e-4,0.0207 v 0.24633 H 5.798983 v -0.21911 q 0,-0.0255 -0.00241,-0.0482 -0.00207,-0.0231 -0.0093,-0.0369 -0.00792,-0.0148 -0.022738,-0.022 -0.014814,-0.008 -0.042719,-0.008 -0.026527,0 -0.053399,0.0131 -0.026527,0.0131 -0.053055,0.0334 v 0.28733 H 5.550594 v -0.38482 h 0.064768 v 0.0427 q 0.030317,-0.0251 0.060289,-0.0393 0.030317,-0.0141 0.064423,-0.0141 0.039274,0 0.06649,0.0165 0.027561,0.0165 0.040997,0.0458 0.039274,-0.0331 0.071658,-0.0475 0.032384,-0.0148 0.069246,-0.0148 0.06339,0 0.093362,0.0386 0.030317,0.0382 0.030317,0.10715 z"
         style="font-size:0.70555562px;fill:#ff0000;fill-opacity:1;stroke-width:0.26458332"
         id="path4570"
         inkscape:connector-curvature="0" />
      <path
         d="m 6.5755064,292.7225 q 0,0.0468 -0.013436,0.0858 -0.013436,0.0386 -0.037896,0.0655 -0.022738,0.0255 -0.053743,0.0396 -0.030661,0.0138 -0.065112,0.0138 -0.029972,0 -0.054432,-0.007 -0.024116,-0.007 -0.049265,-0.0203 v 0.16123 h -0.064768 v -0.52675 h 0.064768 v 0.0403 q 0.025838,-0.0217 0.057878,-0.0362 0.032384,-0.0148 0.068902,-0.0148 0.069591,0 0.108176,0.0527 0.03893,0.0524 0.03893,0.14573 z m -0.066835,0.002 q 0,-0.0696 -0.023771,-0.10404 -0.023771,-0.0344 -0.073036,-0.0344 -0.027905,0 -0.056155,0.012 -0.02825,0.0121 -0.054088,0.0317 v 0.21807 q 0.027561,0.0124 0.047198,0.0169 0.019982,0.004 0.045131,0.004 0.054088,0 0.084405,-0.0365 0.030317,-0.0365 0.030317,-0.10817 z"
         style="font-size:0.70555562px;fill:#ff0000;fill-opacity:1;stroke-width:0.26458332"
         id="path4572"
         inkscape:connector-curvature="0" />
    </g>
    <text
       xml:space="preserve"
       style="font-style:normal;font-weight:normal;font-size:4.23333311px;line-height:1.25;font-family:sans-serif;letter-spacing:0px;word-spacing:0px;fill:#000000;fill-opacity:1;stroke:none;stroke-width:0.26458332"
       x="1.8114986"
       y="296.63724"
       id="text4577"><tspan
         sodipodi:role="line"
         id="tspan4575"
         x="1.8114986"
         y="296.63724"
         style="font-size:1.41111112px;fill:#ff0000;fill-opacity:1;stroke-width:0.26458332">Cable Hole</tspan></text>
  </g>
</svg>
