<?xml version="1.0" encoding="UTF-8" standalone="no"?>
<!-- Created with Inkscape (http://www.inkscape.org/) -->

<svg
   xmlns:dc="http://purl.org/dc/elements/1.1/"
   xmlns:cc="http://creativecommons.org/ns#"
   xmlns:rdf="http://www.w3.org/1999/02/22-rdf-syntax-ns#"
   xmlns:svg="http://www.w3.org/2000/svg"
   xmlns="http://www.w3.org/2000/svg"
   xmlns:sodipodi="http://sodipodi.sourceforge.net/DTD/sodipodi-0.dtd"
   xmlns:inkscape="http://www.inkscape.org/namespaces/inkscape"
   width="55mm"
   height="57mm"
   viewBox="0 0 55 57"
   version="1.1"
   id="svg8"
   sodipodi:docname="cfol_power_distro_4_v1-1.svg"
   inkscape:version="0.92.1 r15371">
  <defs
     id="defs2">
    <marker
       style="overflow:visible"
       refY="0"
       refX="0"
       orient="auto"
       id="DistanceX">
      <path
         id="path4487"
         style="stroke:#000000;stroke-width:0.5"
         d="M 3,-3 -3,3 M 0,-5 V 5"
         inkscape:connector-curvature="0" />
    </marker>
    <pattern
       y="0"
       x="0"
       width="8"
       patternUnits="userSpaceOnUse"
       id="Hatch"
       height="8">
      <path
         id="path4490"
         stroke-width="0.25"
         stroke="#000000"
         linecap="square"
         d="M8 4 l-4,4" />
      <path
         id="path4492"
         stroke-width="0.25"
         stroke="#000000"
         linecap="square"
         d="M6 2 l-4,4" />
      <path
         id="path4494"
         stroke-width="0.25"
         stroke="#000000"
         linecap="square"
         d="M4 0 l-4,4" />
    </pattern>
    <symbol
       id="*MODEL_SPACE" />
    <symbol
       id="*PAPER_SPACE" />
  </defs>
  <sodipodi:namedview
     id="base"
     pagecolor="#ffffff"
     bordercolor="#666666"
     borderopacity="1.0"
     inkscape:pageopacity="0.0"
     inkscape:pageshadow="2"
     inkscape:zoom="3.3565475"
     inkscape:cx="67.692615"
     inkscape:cy="104.81361"
     inkscape:document-units="mm"
     inkscape:current-layer="g4511"
     showgrid="false"
     inkscape:window-width="1920"
     inkscape:window-height="1017"
     inkscape:window-x="-8"
     inkscape:window-y="-8"
     inkscape:window-maximized="1" />
  <metadata
     id="metadata5">
    <rdf:RDF>
      <cc:Work
         rdf:about="">
        <dc:format>image/svg+xml</dc:format>
        <dc:type
           rdf:resource="http://purl.org/dc/dcmitype/StillImage" />
        <dc:title></dc:title>
      </cc:Work>
    </rdf:RDF>
  </metadata>
  <g
     inkscape:label="Layer 1"
     inkscape:groupmode="layer"
     id="layer1"
     transform="translate(0,-240)">
    <g
       id="g4511"
       inkscape:label="0"
       transform="matrix(0.26458333,0,0,0.26458333,1.0545178,-56.538071)">
      <path
         id="path4501"
         style="fill:none;stroke:#ff0000;stroke-opacity:1"
         d="M 201.63779,1122.5197 H 0 v 211.6535 h 201.63779 z"
         inkscape:connector-curvature="0" />
      <path
         id="path4503"
         style="fill:none;stroke:#000000"
         d="m 21.618898,1139.5276 a 4.611024,4.611024 0 1 0 -9.222048,0 4.611024,4.611024 0 1 0 9.222048,0 z"
         inkscape:connector-curvature="0" />
      <path
         id="path4505"
         style="fill:none;stroke:#000000"
         d="m 189.24094,1139.5276 a 4.611024,4.611024 0 1 0 -9.22204,0 4.611024,4.611024 0 1 0 9.22204,0 z"
         inkscape:connector-curvature="0" />
      <path
         id="path4507"
         style="fill:none;stroke:#000000"
         d="m 21.618898,1317.1654 a 4.611024,4.611024 0 1 0 -9.222048,0 4.611024,4.611024 0 1 0 9.222048,0 z"
         inkscape:connector-curvature="0" />
      <path
         id="path4509"
         style="fill:none;stroke:#000000"
         d="m 189.24094,1317.1654 a 4.611024,4.611024 0 1 0 -9.22204,0 4.611024,4.611024 0 1 0 9.22204,0 z"
         inkscape:connector-curvature="0" />
      <g
         aria-label="CFOL Power Distro 4 v1.1"
         transform="translate(-5.9855791,1124.7738)"
         style="font-style:normal;font-weight:normal;font-size:13.33333302px;line-height:1.25;font-family:sans-serif;letter-spacing:0px;word-spacing:0px;fill:#ff0000;fill-opacity:1;stroke:none"
         id="flowRoot5321">
        <path
           d="m 46.953125,18.785498 q -0.286458,0.125 -0.520833,0.234375 -0.229167,0.109375 -0.604167,0.229166 -0.317708,0.09896 -0.692708,0.166667 -0.369792,0.07292 -0.817709,0.07292 -0.84375,0 -1.536458,-0.234375 -0.6875,-0.239584 -1.197917,-0.744792 -0.5,-0.494792 -0.78125,-1.255208 -0.28125,-0.765625 -0.28125,-1.776042 0,-0.958333 0.270834,-1.713542 0.270833,-0.755208 0.78125,-1.276042 0.494791,-0.505208 1.192708,-0.770833 0.703125,-0.265625 1.557292,-0.265625 0.625,0 1.244792,0.151042 0.625,0.151041 1.385416,0.53125 v 1.223958 H 46.875 q -0.640625,-0.536458 -1.270833,-0.78125 -0.630209,-0.244792 -1.348959,-0.244792 -0.588541,0 -1.0625,0.192709 -0.46875,0.1875 -0.838541,0.588541 -0.359375,0.390626 -0.5625,0.989584 -0.197917,0.59375 -0.197917,1.375 0,0.817708 0.21875,1.40625 0.223958,0.588542 0.572917,0.958333 0.364583,0.385417 0.848958,0.572917 0.489583,0.182292 1.03125,0.182292 0.744792,0 1.395834,-0.255209 0.651041,-0.255208 1.21875,-0.765625 h 0.07292 z"
           style="font-size:10.66666698px;line-height:0.25;fill:#ff0000;fill-opacity:1"
           id="path5329" />
        <path
           d="m 53.375,12.509456 h -3.921875 v 2.1875 h 3.369792 v 0.916667 h -3.369792 v 3.734375 h -1.03125 V 11.592789 H 53.375 Z"
           style="font-size:10.66666698px;line-height:0.25;fill:#ff0000;fill-opacity:1"
           id="path5331" />
        <path
           d="m 60.328126,12.483414 q 0.473958,0.520833 0.723958,1.276042 0.255209,0.755208 0.255209,1.713542 0,0.958333 -0.260417,1.71875 -0.255208,0.755208 -0.71875,1.260416 -0.479167,0.526042 -1.135417,0.791667 -0.651042,0.265625 -1.489583,0.265625 -0.817709,0 -1.489584,-0.270833 -0.666666,-0.270834 -1.135416,-0.786459 -0.46875,-0.515625 -0.723959,-1.265625 -0.25,-0.75 -0.25,-1.713541 0,-0.947917 0.25,-1.697917 0.25,-0.755209 0.729167,-1.291667 0.458333,-0.510417 1.135417,-0.78125 0.682291,-0.270833 1.484375,-0.270833 0.833333,0 1.494791,0.276041 0.666667,0.270834 1.130209,0.776042 z m -0.09375,2.989584 q 0,-1.510417 -0.677084,-2.328126 -0.677083,-0.822916 -1.848958,-0.822916 -1.182292,0 -1.859375,0.822916 -0.671875,0.817709 -0.671875,2.328126 0,1.526041 0.6875,2.338541 0.6875,0.807292 1.84375,0.807292 1.15625,0 1.838542,-0.807292 0.6875,-0.8125 0.6875,-2.338541 z"
           style="font-size:10.66666698px;line-height:0.25;fill:#ff0000;fill-opacity:1"
           id="path5333" />
        <path
           d="m 67.84896,19.347998 h -4.90625 v -7.755209 h 1.03125 v 6.838542 h 3.875 z"
           style="font-size:10.66666698px;line-height:0.25;fill:#ff0000;fill-opacity:1"
           id="path5335" />
        <path
           d="m 77.703126,13.936539 q 0,0.515625 -0.182291,0.958334 -0.177084,0.4375 -0.5,0.760416 -0.401042,0.401042 -0.947917,0.604167 -0.546875,0.197917 -1.380208,0.197917 h -1.03125 v 2.890625 h -1.03125 v -7.755209 h 2.104166 q 0.697917,0 1.182292,0.119792 0.484375,0.114583 0.859375,0.364583 0.442708,0.296875 0.682292,0.739583 0.244791,0.442709 0.244791,1.119792 z m -1.072916,0.02604 q 0,-0.401042 -0.140625,-0.697917 -0.140625,-0.296875 -0.427084,-0.484375 -0.25,-0.161458 -0.572916,-0.229167 -0.317709,-0.07292 -0.807292,-0.07292 H 73.66146 v 3.098958 h 0.869791 q 0.625,0 1.015625,-0.109375 0.390625,-0.114583 0.635417,-0.359375 0.244792,-0.25 0.34375,-0.526041 0.104167,-0.276042 0.104167,-0.619792 z"
           style="font-size:10.66666698px;line-height:0.25;fill:#ff0000;fill-opacity:1"
           id="path5337" />
        <path
           d="m 83.697918,16.441748 q 0,1.421875 -0.729167,2.244791 -0.729166,0.822917 -1.953125,0.822917 -1.234375,0 -1.963541,-0.822917 -0.723959,-0.822916 -0.723959,-2.244791 0,-1.421875 0.723959,-2.244792 0.729166,-0.828125 1.963541,-0.828125 1.223959,0 1.953125,0.828125 0.729167,0.822917 0.729167,2.244792 z m -1.010417,0 q 0,-1.130209 -0.442708,-1.677084 -0.442708,-0.552083 -1.229167,-0.552083 -0.796875,0 -1.239583,0.552083 -0.4375,0.546875 -0.4375,1.677084 0,1.09375 0.442708,1.661458 0.442709,0.5625 1.234375,0.5625 0.78125,0 1.223959,-0.557292 0.447916,-0.5625 0.447916,-1.666666 z"
           style="font-size:10.66666698px;line-height:0.25;fill:#ff0000;fill-opacity:1"
           id="path5339" />
        <path
           d="m 92.536461,13.530289 -1.515625,5.817709 h -0.90625 l -1.494792,-4.484375 -1.484375,4.484375 h -0.901041 l -1.53125,-5.817709 h 1.020833 l 1.067708,4.505209 1.453125,-4.505209 h 0.807292 l 1.489583,4.505209 1.010417,-4.505209 z"
           style="font-size:10.66666698px;line-height:0.25;fill:#ff0000;fill-opacity:1"
           id="path5341" />
        <path
           d="M 98.817709,16.540706 H 94.53125 q 0,0.536458 0.161458,0.9375 0.161459,0.395833 0.442709,0.651042 0.270833,0.25 0.640625,0.375 0.375,0.125 0.822916,0.125 0.59375,0 1.192709,-0.234375 0.604166,-0.239584 0.859375,-0.46875 h 0.05208 v 1.067708 q -0.494792,0.208333 -1.010417,0.348958 -0.515625,0.140625 -1.083333,0.140625 -1.447917,0 -2.260417,-0.78125 -0.8125,-0.786458 -0.8125,-2.229166 0,-1.427084 0.776042,-2.265625 0.78125,-0.838542 2.052083,-0.838542 1.177084,0 1.8125,0.6875 0.640626,0.6875 0.640626,1.953125 z m -0.953126,-0.75 q -0.0052,-0.770833 -0.390625,-1.192708 -0.380208,-0.421875 -1.161458,-0.421875 -0.786458,0 -1.255208,0.463541 -0.463542,0.463542 -0.526042,1.151042 z"
           style="font-size:10.66666698px;line-height:0.25;fill:#ff0000;fill-opacity:1"
           id="path5343" />
        <path
           d="m 103.93229,14.597998 h -0.0521 q -0.21875,-0.05208 -0.42708,-0.07292 -0.20313,-0.02604 -0.48438,-0.02604 -0.45312,0 -0.875,0.203125 -0.42187,0.197917 -0.8125,0.515625 v 4.130209 h -0.97917 v -5.817709 h 0.97917 v 0.859375 q 0.58333,-0.46875 1.02604,-0.661458 0.44792,-0.197917 0.91146,-0.197917 0.25521,0 0.36979,0.01563 0.11459,0.01042 0.34375,0.04687 z"
           style="font-size:10.66666698px;line-height:0.25;fill:#ff0000;fill-opacity:1"
           id="path5345" />
        <path
           d="m 115.2448,15.478206 q 0,1.057292 -0.46354,1.916667 -0.45834,0.859375 -1.22396,1.333333 -0.53125,0.328125 -1.1875,0.473958 -0.65104,0.145834 -1.71875,0.145834 h -1.95834 v -7.755209 h 1.9375 q 1.13542,0 1.80209,0.166667 0.67187,0.161458 1.13541,0.447916 0.79167,0.494792 1.23438,1.317709 0.44271,0.822917 0.44271,1.953125 z m -1.07813,-0.01563 q 0,-0.911458 -0.31771,-1.536458 -0.3177,-0.625 -0.94791,-0.984376 -0.45834,-0.260416 -0.97396,-0.359375 -0.51563,-0.104166 -1.23438,-0.104166 h -0.96875 v 5.984375 h 0.96875 q 0.7448,0 1.29688,-0.109375 0.55729,-0.109375 1.02083,-0.40625 0.57813,-0.369792 0.86459,-0.973958 0.29166,-0.604167 0.29166,-1.510417 z"
           style="font-size:10.66666698px;line-height:0.25;fill:#ff0000;fill-opacity:1"
           id="path5347" />
        <path
           d="m 117.89584,12.556331 h -1.10417 v -1.015625 h 1.10417 z m -0.0625,6.791667 h -0.97917 v -5.817709 h 0.97917 z"
           style="font-size:10.66666698px;line-height:0.25;fill:#ff0000;fill-opacity:1"
           id="path5349" />
        <path
           d="m 123.89584,17.670914 q 0,0.796875 -0.66146,1.307292 -0.65625,0.510417 -1.79687,0.510417 -0.64584,0 -1.1875,-0.151042 -0.53646,-0.15625 -0.90105,-0.338542 v -1.098958 h 0.0521 q 0.46354,0.348958 1.03125,0.557292 0.56771,0.203125 1.08854,0.203125 0.64583,0 1.01042,-0.208334 0.36458,-0.208333 0.36458,-0.65625 0,-0.34375 -0.19792,-0.520833 -0.19791,-0.177083 -0.76041,-0.302083 -0.20834,-0.04687 -0.54688,-0.109375 -0.33333,-0.0625 -0.60937,-0.135417 -0.76563,-0.203125 -1.08855,-0.59375 -0.3177,-0.395833 -0.3177,-0.96875 0,-0.359375 0.14583,-0.677083 0.15104,-0.317709 0.45312,-0.567709 0.29167,-0.244791 0.73959,-0.385416 0.45312,-0.145834 1.01041,-0.145834 0.52084,0 1.05209,0.130209 0.53646,0.125 0.89062,0.307291 v 1.046875 h -0.0521 q -0.375,-0.276041 -0.91146,-0.463541 -0.53646,-0.192709 -1.05208,-0.192709 -0.53646,0 -0.90625,0.208334 -0.36979,0.203125 -0.36979,0.609375 0,0.359375 0.22395,0.541666 0.21875,0.182292 0.70834,0.296875 0.27083,0.0625 0.60416,0.125 0.33855,0.0625 0.5625,0.114584 0.6823,0.15625 1.05209,0.536458 0.36979,0.385417 0.36979,1.020833 z"
           style="font-size:10.66666698px;line-height:0.25;fill:#ff0000;fill-opacity:1"
           id="path5351" />
        <path
           d="m 128.32292,19.295914 q -0.27604,0.07292 -0.60416,0.119792 -0.32292,0.04687 -0.57813,0.04687 -0.89062,0 -1.35417,-0.479167 -0.46354,-0.479166 -0.46354,-1.536458 v -3.09375 h -0.66146 v -0.822917 h 0.66146 v -1.671875 h 0.97917 v 1.671875 h 2.02083 v 0.822917 h -2.02083 v 2.651042 q 0,0.458333 0.0208,0.71875 0.0208,0.255208 0.14584,0.479166 0.11458,0.208334 0.3125,0.307292 0.20312,0.09375 0.61458,0.09375 0.23958,0 0.5,-0.06771 0.26042,-0.07292 0.375,-0.119792 h 0.0521 z"
           style="font-size:10.66666698px;line-height:0.25;fill:#ff0000;fill-opacity:1"
           id="path5353" />
        <path
           d="m 133.14063,14.597998 h -0.0521 q -0.21875,-0.05208 -0.42708,-0.07292 -0.20313,-0.02604 -0.48438,-0.02604 -0.45312,0 -0.875,0.203125 -0.42187,0.197917 -0.8125,0.515625 v 4.130209 h -0.97916 v -5.817709 h 0.97916 v 0.859375 q 0.58334,-0.46875 1.02605,-0.661458 0.44791,-0.197917 0.91145,-0.197917 0.25521,0 0.3698,0.01563 0.11458,0.01042 0.34375,0.04687 z"
           style="font-size:10.66666698px;line-height:0.25;fill:#ff0000;fill-opacity:1"
           id="path5355" />
        <path
           d="m 139.03125,16.441748 q 0,1.421875 -0.72917,2.244791 -0.72916,0.822917 -1.95312,0.822917 -1.23438,0 -1.96354,-0.822917 -0.72396,-0.822916 -0.72396,-2.244791 0,-1.421875 0.72396,-2.244792 0.72916,-0.828125 1.96354,-0.828125 1.22396,0 1.95312,0.828125 0.72917,0.822917 0.72917,2.244792 z m -1.01042,0 q 0,-1.130209 -0.4427,-1.677084 -0.44271,-0.552083 -1.22917,-0.552083 -0.79688,0 -1.23958,0.552083 -0.4375,0.546875 -0.4375,1.677084 0,1.09375 0.4427,1.661458 0.44271,0.5625 1.23438,0.5625 0.78125,0 1.22396,-0.557292 0.44791,-0.5625 0.44791,-1.666666 z"
           style="font-size:10.66666698px;line-height:0.25;fill:#ff0000;fill-opacity:1"
           id="path5357" />
        <path
           d="m 149.60417,17.165706 h -1.15104 v 2.182292 h -1 v -2.182292 h -3.71354 v -1.197917 l 3.75521,-4.375 h 0.95833 v 4.739584 h 1.15104 z m -2.15104,-0.833333 v -3.500001 l -3.00521,3.500001 z"
           style="font-size:10.66666698px;line-height:0.25;fill:#ff0000;fill-opacity:1"
           id="path5359" />
        <path
           d="m 159.875,13.530289 -2.35416,5.817709 h -0.98438 l -2.33854,-5.817709 h 1.0625 l 1.80208,4.630209 1.78646,-4.630209 z"
           style="font-size:10.66666698px;line-height:0.25;fill:#ff0000;fill-opacity:1"
           id="path5361" />
        <path
           d="m 165.83854,19.347998 h -4.19791 v -0.791667 h 1.61458 v -5.197917 h -1.61458 v -0.708333 q 0.32812,0 0.70312,-0.05208 0.375,-0.05729 0.56771,-0.161458 0.23958,-0.130208 0.375,-0.328125 0.14063,-0.203125 0.16146,-0.541667 h 0.80729 v 6.989584 h 1.58333 z"
           style="font-size:10.66666698px;line-height:0.25;fill:#ff0000;fill-opacity:1"
           id="path5363" />
        <path
           d="m 169.54688,19.347998 h -1.2448 v -1.484375 h 1.2448 z"
           style="font-size:10.66666698px;line-height:0.25;fill:#ff0000;fill-opacity:1"
           id="path5365" />
        <path
           d="m 176.50521,19.347998 h -4.19792 v -0.791667 h 1.61459 v -5.197917 h -1.61459 v -0.708333 q 0.32813,0 0.70313,-0.05208 0.375,-0.05729 0.56771,-0.161458 0.23958,-0.130208 0.375,-0.328125 0.14062,-0.203125 0.16145,-0.541667 h 0.8073 v 6.989584 h 1.58333 z"
           style="font-size:10.66666698px;line-height:0.25;fill:#ff0000;fill-opacity:1"
           id="path5367" />
      </g>
    </g>
    <rect
       style="fill:none;fill-opacity:1;stroke:#ff0000;stroke-width:0.25;stroke-miterlimit:4;stroke-dasharray:none;stroke-dashoffset:0;stroke-opacity:1"
       id="rect4539"
       width="12.5"
       height="13.3"
       x="41.552647"
       y="249.09177" />
    <path
       style="fill:none;stroke:#ff0000;stroke-width:0.26458332px;stroke-linecap:butt;stroke-linejoin:miter;stroke-opacity:1"
       d="m 43.393733,255.73457 10.6021,0.0788"
       id="path4541"
       inkscape:connector-curvature="0" />
    <path
       style="fill:none;stroke:#ff0000;stroke-width:0.26458332px;stroke-linecap:butt;stroke-linejoin:miter;stroke-opacity:1"
       d="m 47.902857,251.24132 0.0073,2.16805"
       id="path4543"
       inkscape:connector-curvature="0" />
    <path
       style="fill:none;stroke:#ff0000;stroke-width:0.23595862px;stroke-linecap:butt;stroke-linejoin:miter;stroke-opacity:1"
       d="m 46.661375,252.30836 2.367934,0.009"
       id="path4545"
       inkscape:connector-curvature="0" />
    <path
       style="fill:none;stroke:#ff0000;stroke-width:0.23595864px;stroke-linecap:butt;stroke-linejoin:miter;stroke-opacity:1"
       d="m 46.778947,259.20416 2.367934,0.009"
       id="path4545-7"
       inkscape:connector-curvature="0" />
    <rect
       style="fill:none;fill-opacity:1;stroke:#ff0000;stroke-width:0.23285787;stroke-miterlimit:4;stroke-dasharray:none;stroke-dashoffset:0;stroke-opacity:1"
       id="rect4562"
       width="8.0671415"
       height="6.7671423"
       x="4.6734562"
       y="267.02887" />
    <path
       style="fill:none;stroke:#ff0000;stroke-width:0.17374869px;stroke-linecap:butt;stroke-linejoin:miter;stroke-opacity:1"
       d="m 6.5572571,270.97219 0.0046,1.49949"
       id="path4543-5"
       inkscape:connector-curvature="0" />
    <path
       style="fill:none;stroke:#ff0000;stroke-width:0.1549512px;stroke-linecap:butt;stroke-linejoin:miter;stroke-opacity:1"
       d="m 5.7831821,271.71019 1.476427,0.006"
       id="path4545-9"
       inkscape:connector-curvature="0" />
    <path
       style="fill:none;stroke:#ff0000;stroke-width:0.1549512px;stroke-linecap:butt;stroke-linejoin:miter;stroke-opacity:1"
       d="m 9.8160561,271.73912 1.4764269,0.006"
       id="path4545-9-5"
       inkscape:connector-curvature="0" />
    <rect
       style="fill:none;fill-opacity:1;stroke:#ff0000;stroke-width:0.23285787;stroke-miterlimit:4;stroke-dasharray:none;stroke-dashoffset:0;stroke-opacity:1"
       id="rect4562-8"
       width="8.0671415"
       height="6.7671423"
       x="13.4982"
       y="283.96179" />
    <path
       style="fill:none;stroke:#ff0000;stroke-width:0.17374869px;stroke-linecap:butt;stroke-linejoin:miter;stroke-opacity:1"
       d="m 15.382002,287.90512 0.0046,1.49949"
       id="path4543-5-2"
       inkscape:connector-curvature="0" />
    <path
       style="fill:none;stroke:#ff0000;stroke-width:0.1549512px;stroke-linecap:butt;stroke-linejoin:miter;stroke-opacity:1"
       d="m 14.607927,288.64312 1.476427,0.006"
       id="path4545-9-7"
       inkscape:connector-curvature="0" />
    <path
       style="fill:none;stroke:#ff0000;stroke-width:0.1549512px;stroke-linecap:butt;stroke-linejoin:miter;stroke-opacity:1"
       d="m 18.640801,288.67205 1.476427,0.006"
       id="path4545-9-5-5"
       inkscape:connector-curvature="0" />
    <rect
       style="fill:none;fill-opacity:1;stroke:#ff0000;stroke-width:0.23285787;stroke-miterlimit:4;stroke-dasharray:none;stroke-dashoffset:0;stroke-opacity:1"
       id="rect4562-8-5"
       width="8.0671415"
       height="6.7671423"
       x="22.386442"
       y="267.08496" />
    <path
       style="fill:none;stroke:#ff0000;stroke-width:0.17374869px;stroke-linecap:butt;stroke-linejoin:miter;stroke-opacity:1"
       d="m 24.270244,271.02827 0.0046,1.49949"
       id="path4543-5-2-9"
       inkscape:connector-curvature="0" />
    <path
       style="fill:none;stroke:#ff0000;stroke-width:0.1549512px;stroke-linecap:butt;stroke-linejoin:miter;stroke-opacity:1"
       d="m 23.496169,271.76627 1.476427,0.006"
       id="path4545-9-7-9"
       inkscape:connector-curvature="0" />
    <path
       style="fill:none;stroke:#ff0000;stroke-width:0.1549512px;stroke-linecap:butt;stroke-linejoin:miter;stroke-opacity:1"
       d="m 27.529043,271.7952 1.476428,0.006"
       id="path4545-9-5-5-8"
       inkscape:connector-curvature="0" />
    <rect
       style="fill:none;fill-opacity:1;stroke:#ff0000;stroke-width:0.23285787;stroke-miterlimit:4;stroke-dasharray:none;stroke-dashoffset:0;stroke-opacity:1"
       id="rect4562-8-5-7"
       width="8.0671415"
       height="6.7671423"
       x="30.997208"
       y="284.08914" />
    <path
       style="fill:none;stroke:#ff0000;stroke-width:0.17374869px;stroke-linecap:butt;stroke-linejoin:miter;stroke-opacity:1"
       d="m 32.881011,288.03243 0.0046,1.49949"
       id="path4543-5-2-9-8"
       inkscape:connector-curvature="0" />
    <path
       style="fill:none;stroke:#ff0000;stroke-width:0.1549512px;stroke-linecap:butt;stroke-linejoin:miter;stroke-opacity:1"
       d="m 32.106936,288.77043 1.476427,0.006"
       id="path4545-9-7-9-8"
       inkscape:connector-curvature="0" />
    <path
       style="fill:none;stroke:#ff0000;stroke-width:0.1549512px;stroke-linecap:butt;stroke-linejoin:miter;stroke-opacity:1"
       d="m 36.13981,288.79936 1.476428,0.006"
       id="path4545-9-5-5-8-7"
       inkscape:connector-curvature="0" />
  </g>
</svg>
