<?xml version="1.0" encoding="UTF-8" standalone="no"?>
<!-- Created with Inkscape (http://www.inkscape.org/) -->

<svg
   xmlns:dc="http://purl.org/dc/elements/1.1/"
   xmlns:cc="http://creativecommons.org/ns#"
   xmlns:rdf="http://www.w3.org/1999/02/22-rdf-syntax-ns#"
   xmlns:svg="http://www.w3.org/2000/svg"
   xmlns="http://www.w3.org/2000/svg"
   xmlns:sodipodi="http://sodipodi.sourceforge.net/DTD/sodipodi-0.dtd"
   xmlns:inkscape="http://www.inkscape.org/namespaces/inkscape"
   width="42mm"
   height="42mm"
   viewBox="0 0 42 42"
   version="1.1"
   id="svg5059"
   inkscape:version="0.92.1 r15371"
   sodipodi:docname="fan_40mm.svg">
  <defs
     id="defs5053" />
  <sodipodi:namedview
     id="base"
     pagecolor="#ffffff"
     bordercolor="#666666"
     borderopacity="1.0"
     inkscape:pageopacity="0.0"
     inkscape:pageshadow="2"
     inkscape:zoom="1.7751698"
     inkscape:cx="-112.39114"
     inkscape:cy="67.250382"
     inkscape:document-units="mm"
     inkscape:current-layer="layer1"
     showgrid="false"
     inkscape:window-width="1920"
     inkscape:window-height="1017"
     inkscape:window-x="-8"
     inkscape:window-y="-8"
     inkscape:window-maximized="1" />
  <metadata
     id="metadata5056">
    <rdf:RDF>
      <cc:Work
         rdf:about="">
        <dc:format>image/svg+xml</dc:format>
        <dc:type
           rdf:resource="http://purl.org/dc/dcmitype/StillImage" />
        <dc:title />
      </cc:Work>
    </rdf:RDF>
  </metadata>
  <g
     inkscape:label="Visuals"
     inkscape:groupmode="layer"
     id="layer1"
     transform="translate(0,-255)"
     style="display:inline">
    <path
       style="fill:none;stroke:#ff0000;stroke-width:0.26458332px;stroke-linecap:butt;stroke-linejoin:miter;stroke-opacity:1"
       d="m 19.33943,273.60287 h 3.161759 l 3.794112,-13.38478 c 0,0 -3.502416,-1.63878 -5.374991,-1.63358 -1.838992,0.005 -5.2696,1.63358 -5.2696,1.63358 z"
       id="path6579"
       inkscape:connector-curvature="0"
       sodipodi:nodetypes="cccacc" />
    <path
       style="display:inline;fill:none;stroke:#ff0000;stroke-width:0.26458332px;stroke-linecap:butt;stroke-linejoin:miter;stroke-opacity:1"
       d="m 19.33897,278.95167 h 3.161759 l 3.794113,13.38478 c 0,0 -3.502417,1.63878 -5.374992,1.63358 -1.838992,-0.005 -5.2696,-1.63358 -5.2696,-1.63358 z"
       id="path6579-3"
       inkscape:connector-curvature="0"
       sodipodi:nodetypes="cccacc" />
    <path
       style="display:inline;fill:none;stroke:#ff0000;stroke-width:0.26458332px;stroke-linecap:butt;stroke-linejoin:miter;stroke-opacity:1"
       d="m 23.563608,274.97971 v 3.16176 l 13.38478,3.79411 c 0,0 1.63878,-3.50242 1.63358,-5.37499 -0.005,-1.83899 -1.63358,-5.2696 -1.63358,-5.2696 z"
       id="path6579-1"
       inkscape:connector-curvature="0"
       sodipodi:nodetypes="cccacc" />
    <path
       style="display:inline;fill:none;stroke:#ff0000;stroke-width:0.26458332px;stroke-linecap:butt;stroke-linejoin:miter;stroke-opacity:1"
       d="m 18.4305,274.68738 v 3.16176 l -13.3847825,3.79411 c 0,0 -1.6387801,-3.50242 -1.6335801,-5.37499 0.005,-1.83899 1.6335801,-5.2696 1.6335801,-5.2696 z"
       id="path6579-1-4"
       inkscape:connector-curvature="0"
       sodipodi:nodetypes="cccacc" />
    <ellipse
       style="fill:none;fill-opacity:1;stroke:#ff0000;stroke-width:0.5;stroke-miterlimit:4;stroke-dasharray:none;stroke-dashoffset:0;stroke-opacity:1"
       id="path6626"
       cx="20.982445"
       cy="276.28217"
       rx="2.7830155"
       ry="2.8842137" />
  </g>
  <g
     inkscape:groupmode="layer"
     id="layer3"
     inkscape:label="Cuts">
    <path
       transform="translate(0,-255)"
       id="path4576"
       style="fill:none;stroke:#000000;stroke-width:0.26458332"
       d="m 6.9455188,260.51509 a 1.8750001,1.8750001 0 1 0 -3.75,0 1.8750001,1.8750001 0 1 0 3.75,0 z"
       inkscape:connector-curvature="0" />
    <path
       transform="translate(0,-255)"
       id="path4578"
       style="fill:none;stroke:#000000;stroke-width:0.26458332"
       d="m 6.9455188,292.51509 a 1.8750001,1.8750001 0 1 0 -3.75,0 1.8750001,1.8750001 0 1 0 3.75,0 z"
       inkscape:connector-curvature="0" />
    <path
       transform="translate(0,-255)"
       id="path4580"
       style="fill:none;stroke:#000000;stroke-width:0.26458332"
       d="m 38.945517,292.51509 a 1.8750002,1.8750002 0 1 0 -3.75,0 1.8750002,1.8750002 0 1 0 3.75,0 z"
       inkscape:connector-curvature="0" />
    <path
       transform="translate(0,-255)"
       id="path4584"
       style="fill:none;stroke:#000000;stroke-width:0.26458332"
       d="m 38.945517,260.51509 a 1.8750002,1.8750002 0 1 0 -3.75,0 1.8750002,1.8750002 0 1 0 3.75,0 z"
       inkscape:connector-curvature="0" />
    <path
       transform="translate(0,-255)"
       id="path4588"
       style="fill:none;stroke:#000000;stroke-width:0.26458332"
       d="m 40.570516,276.5151 a 19.5,19.5 0 1 0 -38.9999972,0 19.5,19.5 0 1 0 38.9999972,0 z"
       inkscape:connector-curvature="0" />
  </g>
</svg>
