<?xml version="1.0" encoding="UTF-8" standalone="no"?>
<svg
   xmlns:dc="http://purl.org/dc/elements/1.1/"
   xmlns:cc="http://creativecommons.org/ns#"
   xmlns:rdf="http://www.w3.org/1999/02/22-rdf-syntax-ns#"
   xmlns:svg="http://www.w3.org/2000/svg"
   xmlns="http://www.w3.org/2000/svg"
   xmlns:sodipodi="http://sodipodi.sourceforge.net/DTD/sodipodi-0.dtd"
   xmlns:inkscape="http://www.inkscape.org/namespaces/inkscape"
   width="822.70081"
   height="443.51965"
   version="1.1"
   id="svg6887"
   sodipodi:docname="meanwell_LRS_350.svg"
   inkscape:version="0.92.1 r15371">
  <metadata
     id="metadata6891">
    <rdf:RDF>
      <cc:Work
         rdf:about="">
        <dc:format>image/svg+xml</dc:format>
        <dc:type
           rdf:resource="http://purl.org/dc/dcmitype/StillImage" />
        <dc:title />
      </cc:Work>
    </rdf:RDF>
  </metadata>
  <sodipodi:namedview
     pagecolor="#ffffff"
     bordercolor="#666666"
     borderopacity="1"
     objecttolerance="10"
     gridtolerance="10"
     guidetolerance="10"
     inkscape:pageopacity="0"
     inkscape:pageshadow="2"
     inkscape:window-width="1920"
     inkscape:window-height="1017"
     id="namedview6889"
     showgrid="false"
     inkscape:zoom="0.71284945"
     inkscape:cx="289.17779"
     inkscape:cy="270.57654"
     inkscape:window-x="-8"
     inkscape:window-y="-8"
     inkscape:window-maximized="1"
     inkscape:current-layer="layer4"
     inkscape:measure-start="816.37,298.575"
     inkscape:measure-end="635.34,299.071"
     showguides="true"
     inkscape:guide-bbox="true">
    <sodipodi:guide
       position="693.3689,387.85013"
       orientation="1,0"
       id="guide4820"
       inkscape:locked="false" />
    <sodipodi:guide
       position="-148.79161,315.43821"
       orientation="0,1"
       id="guide4822"
       inkscape:locked="false" />
    <sodipodi:guide
       position="134.81062,125.68899"
       orientation="0,1"
       id="guide4824"
       inkscape:locked="false" />
    <sodipodi:guide
       position="127.96078,394.79374"
       orientation="1,0"
       id="guide4828"
       inkscape:locked="false" />
  </sodipodi:namedview>
  <desc
     id="desc6859">C:\Users\jason\Google Drive\Personal\jdeation\Compact Case\meanwell_LRS450.dxf - scale = 1.000000, origin = (0.000000, 0.000000), method = manual</desc>
  <defs
     id="defs6873">
    <marker
       id="DistanceX"
       orient="auto"
       refX="0"
       refY="0"
       style="overflow:visible">
      <path
         d="M 3,-3 -3,3 M 0,-5 V 5"
         style="stroke:#000000;stroke-width:0.5"
         id="path6861"
         inkscape:connector-curvature="0" />
    </marker>
    <pattern
       height="8"
       id="Hatch"
       patternUnits="userSpaceOnUse"
       width="8"
       x="0"
       y="0">
      <path
         d="M8 4 l-4,4"
         linecap="square"
         stroke="#000000"
         stroke-width="0.25"
         id="path6864" />
      <path
         d="M6 2 l-4,4"
         linecap="square"
         stroke="#000000"
         stroke-width="0.25"
         id="path6866" />
      <path
         d="M4 0 l-4,4"
         linecap="square"
         stroke="#000000"
         stroke-width="0.25"
         id="path6868" />
    </pattern>
    <symbol
       id="*MODEL_SPACE" />
    <symbol
       id="*PAPER_SPACE" />
  </defs>
  <g
     inkscape:groupmode="layer"
     id="layer4"
     inkscape:label="Non Cuts"
     style="display:inline">
    <g
       style="font-style:normal;font-weight:normal;font-size:40px;line-height:1.25;font-family:sans-serif;letter-spacing:0px;word-spacing:0px;display:inline;fill:#000000;fill-opacity:1;stroke:none"
       transform="matrix(4.8128965,0,0,4.8128965,534.64645,-1185.2331)"
       id="layer1"
       inkscape:label="Visuals">
      <path
         sodipodi:nodetypes="cccacc"
         inkscape:connector-curvature="0"
         id="path6579"
         d="m 19.33943,273.60287 h 3.161759 l 3.794112,-13.38478 c 0,0 -3.502416,-1.63878 -5.374991,-1.63358 -1.838992,0.005 -5.2696,1.63358 -5.2696,1.63358 z"
         style="fill:none;stroke:#ff0000;stroke-width:0.26458332px;stroke-linecap:butt;stroke-linejoin:miter;stroke-opacity:1" />
      <path
         sodipodi:nodetypes="cccacc"
         inkscape:connector-curvature="0"
         id="path6579-3"
         d="m 19.33897,278.95167 h 3.161759 l 3.794113,13.38478 c 0,0 -3.502417,1.63878 -5.374992,1.63358 -1.838992,-0.005 -5.2696,-1.63358 -5.2696,-1.63358 z"
         style="display:inline;fill:none;stroke:#ff0000;stroke-width:0.26458332px;stroke-linecap:butt;stroke-linejoin:miter;stroke-opacity:1" />
      <path
         sodipodi:nodetypes="cccacc"
         inkscape:connector-curvature="0"
         id="path6579-1"
         d="m 23.563608,274.97971 v 3.16176 l 13.38478,3.79411 c 0,0 1.63878,-3.50242 1.63358,-5.37499 -0.005,-1.83899 -1.63358,-5.2696 -1.63358,-5.2696 z"
         style="display:inline;fill:none;stroke:#ff0000;stroke-width:0.26458332px;stroke-linecap:butt;stroke-linejoin:miter;stroke-opacity:1" />
      <path
         sodipodi:nodetypes="cccacc"
         inkscape:connector-curvature="0"
         id="path6579-1-4"
         d="m 18.4305,274.68738 v 3.16176 l -13.3847825,3.79411 c 0,0 -1.6387801,-3.50242 -1.6335801,-5.37499 0.005,-1.83899 1.6335801,-5.2696 1.6335801,-5.2696 z"
         style="display:inline;fill:none;stroke:#ff0000;stroke-width:0.26458332px;stroke-linecap:butt;stroke-linejoin:miter;stroke-opacity:1" />
      <ellipse
         ry="2.8842137"
         rx="2.7830155"
         cy="276.28217"
         cx="20.982445"
         id="path6626"
         style="fill:none;fill-opacity:1;stroke:#ff0000;stroke-width:0.5;stroke-miterlimit:4;stroke-dasharray:none;stroke-dashoffset:0;stroke-opacity:1" />
    </g>
    <g
       transform="matrix(3.1967942,0,0,3.1967942,536.97079,45.086296)"
       style="font-style:normal;font-weight:normal;font-size:40px;line-height:1.25;font-family:sans-serif;letter-spacing:0px;word-spacing:0px;display:inline;fill:none;fill-opacity:1;stroke:#f50000;stroke-opacity:1"
       inkscape:label="Cuts"
       id="layer3">
      <path
         inkscape:connector-curvature="0"
         d="m 60.353394,31.44371 a 29.358,29.358 0 1 0 -58.715996,0 29.358,29.358 0 1 0 58.715996,0 z"
         style="fill:none;stroke:#f50000;stroke-width:0.39834037;stroke-opacity:1"
         id="path4588" />
    </g>
    <path
       transform="translate(0,-679.00021)"
       d="M 817.01535,685.01987 H 4.4169247 V 1119.6656 H 817.01535 Z"
       style="display:inline;fill:none;stroke:#e70000;stroke-opacity:1"
       id="path6875"
       inkscape:connector-curvature="0" />
  </g>
  <g
     inkscape:groupmode="layer"
     inkscape:label="0"
     id="g6885"
     transform="translate(0,-679.00021)"
     style="display:inline">
    <path
       d="m 134.81062,807.85447 a 7.559055,7.559055 0 1 0 -15.11811,0 7.559055,7.559055 0 1 0 15.11811,0 z"
       style="fill:none;stroke:#000000"
       id="path6877"
       inkscape:connector-curvature="0" />
    <path
       d="m 134.81062,996.83087 a 7.559055,7.559055 0 1 0 -15.11811,0 7.559055,7.559055 0 1 0 15.11811,0 z"
       style="fill:none;stroke:#000000"
       id="path6879"
       inkscape:connector-curvature="0" />
    <path
       d="m 701.73976,807.85447 a 7.55906,7.55906 0 1 0 -15.11812,0 7.55906,7.55906 0 1 0 15.11812,0 z"
       style="fill:none;stroke:#000000"
       id="path6881"
       inkscape:connector-curvature="0" />
    <path
       d="m 701.73976,996.83087 a 7.55906,7.55906 0 1 0 -15.11812,0 7.55906,7.55906 0 1 0 15.11812,0 z"
       style="fill:none;stroke:#000000"
       id="path6883"
       inkscape:connector-curvature="0" />
    <rect
       style="fill:none;fill-opacity:1;stroke:#ff0000;stroke-width:0.31668779;stroke-miterlimit:4;stroke-dasharray:none;stroke-dashoffset:0;stroke-opacity:1"
       id="rect7448"
       width="77.856552"
       height="36.933552"
       x="8.4169245"
       y="888.13251" />
    <ellipse
       style="fill:none;fill-opacity:1;stroke:#ff0000;stroke-width:0.31668779;stroke-miterlimit:4;stroke-dasharray:none;stroke-dashoffset:0;stroke-opacity:1"
       id="path7454"
       cx="44.890266"
       cy="907.16492"
       rx="17.854996"
       ry="11.491028" />
    <path
       style="fill:#ff0000;stroke:#ff0000;stroke-width:0.83790314px;stroke-linecap:butt;stroke-linejoin:miter;stroke-opacity:1"
       d="m 30.862057,907.8304 26.653595,-0.49244"
       id="path7456"
       inkscape:connector-curvature="0" />
    <rect
       style="fill:none;fill-opacity:1;stroke:#ff0000;stroke-width:0.31668779;stroke-miterlimit:4;stroke-dasharray:none;stroke-dashoffset:0;stroke-opacity:1"
       id="rect7448-4"
       width="77.856552"
       height="36.933552"
       x="8.4169235"
       y="925.0661" />
    <ellipse
       style="fill:none;fill-opacity:1;stroke:#ff0000;stroke-width:0.31668779;stroke-miterlimit:4;stroke-dasharray:none;stroke-dashoffset:0;stroke-opacity:1"
       id="path7454-5"
       cx="44.890266"
       cy="944.09845"
       rx="17.854996"
       ry="11.491028" />
    <path
       style="fill:#ff0000;stroke:#ff0000;stroke-width:0.83790314px;stroke-linecap:butt;stroke-linejoin:miter;stroke-opacity:1"
       d="m 30.862055,944.76394 26.653593,-0.49245"
       id="path7456-8"
       inkscape:connector-curvature="0" />
    <rect
       style="fill:none;fill-opacity:1;stroke:#ff0000;stroke-width:0.31668779;stroke-miterlimit:4;stroke-dasharray:none;stroke-dashoffset:0;stroke-opacity:1"
       id="rect7448-2"
       width="77.856552"
       height="36.933552"
       x="8.4169235"
       y="961.99963" />
    <ellipse
       style="fill:none;fill-opacity:1;stroke:#ff0000;stroke-width:0.31668779;stroke-miterlimit:4;stroke-dasharray:none;stroke-dashoffset:0;stroke-opacity:1"
       id="path7454-57"
       cx="44.890266"
       cy="981.03204"
       rx="17.854996"
       ry="11.491028" />
    <path
       style="fill:#ff0000;stroke:#ff0000;stroke-width:0.83790314px;stroke-linecap:butt;stroke-linejoin:miter;stroke-opacity:1"
       d="m 30.862056,981.6975 26.653595,-0.49245"
       id="path7456-1"
       inkscape:connector-curvature="0" />
    <rect
       style="fill:none;fill-opacity:1;stroke:#ff0000;stroke-width:0.31668779;stroke-miterlimit:4;stroke-dasharray:none;stroke-dashoffset:0;stroke-opacity:1"
       id="rect7448-1"
       width="77.856552"
       height="36.933552"
       x="8.4169235"
       y="998.93317" />
    <ellipse
       style="fill:none;fill-opacity:1;stroke:#ff0000;stroke-width:0.31668779;stroke-miterlimit:4;stroke-dasharray:none;stroke-dashoffset:0;stroke-opacity:1"
       id="path7454-3"
       cx="44.890266"
       cy="1017.9656"
       rx="17.854996"
       ry="11.491028" />
    <rect
       style="fill:none;fill-opacity:1;stroke:#ff0000;stroke-width:0.31668779;stroke-miterlimit:4;stroke-dasharray:none;stroke-dashoffset:0;stroke-opacity:1"
       id="rect7448-7"
       width="77.856552"
       height="36.933552"
       x="8.4169235"
       y="1035.8667" />
    <ellipse
       style="fill:none;fill-opacity:1;stroke:#ff0000;stroke-width:0.31668779;stroke-miterlimit:4;stroke-dasharray:none;stroke-dashoffset:0;stroke-opacity:1"
       id="path7454-0"
       cx="44.890266"
       cy="1054.8992"
       rx="17.854996"
       ry="11.491028" />
    <path
       style="fill:#ff0000;stroke:#ff0000;stroke-width:0.83790314px;stroke-linecap:butt;stroke-linejoin:miter;stroke-opacity:1"
       d="m 30.86206,1055.5646 26.653594,-0.4924"
       id="path7456-2"
       inkscape:connector-curvature="0" />
    <rect
       style="fill:none;fill-opacity:1;stroke:#ff0000;stroke-width:0.31668779;stroke-miterlimit:4;stroke-dasharray:none;stroke-dashoffset:0;stroke-opacity:1"
       id="rect7448-5"
       width="77.856552"
       height="36.933552"
       x="8.4169273"
       y="1072.8003" />
    <ellipse
       style="fill:none;fill-opacity:1;stroke:#ff0000;stroke-width:0.31668779;stroke-miterlimit:4;stroke-dasharray:none;stroke-dashoffset:0;stroke-opacity:1"
       id="path7454-04"
       cx="44.89027"
       cy="1091.8326"
       rx="17.854996"
       ry="11.491028" />
    <path
       style="fill:#ff0000;stroke:#ff0000;stroke-width:0.83790314px;stroke-linecap:butt;stroke-linejoin:miter;stroke-opacity:1"
       d="m 30.86206,1092.4981 26.653595,-0.4924"
       id="path7456-23"
       inkscape:connector-curvature="0" />
    <path
       style="fill:#ff0000;stroke:#ff0000;stroke-width:0.83790314px;stroke-linecap:butt;stroke-linejoin:miter;stroke-opacity:1"
       d="m 44.188858,1083.6341 v 16.7432"
       id="path7458-51"
       inkscape:connector-curvature="0" />
    <rect
       style="fill:none;fill-opacity:1;stroke:#ff0000;stroke-width:0.31668779;stroke-miterlimit:4;stroke-dasharray:none;stroke-dashoffset:0;stroke-opacity:1"
       id="rect7448-44"
       width="77.856552"
       height="36.933552"
       x="8.4169235"
       y="851.19897" />
    <ellipse
       style="fill:none;fill-opacity:1;stroke:#ff0000;stroke-width:0.31668779;stroke-miterlimit:4;stroke-dasharray:none;stroke-dashoffset:0;stroke-opacity:1"
       id="path7454-9"
       cx="44.890266"
       cy="870.23138"
       rx="17.854996"
       ry="11.491028" />
    <path
       style="fill:#ff0000;stroke:#ff0000;stroke-width:0.83790314px;stroke-linecap:butt;stroke-linejoin:miter;stroke-opacity:1"
       d="m 30.862057,870.89685 26.653595,-0.49244"
       id="path7456-7"
       inkscape:connector-curvature="0" />
    <path
       style="fill:#ff0000;stroke:#ff0000;stroke-width:0.83790314px;stroke-linecap:butt;stroke-linejoin:miter;stroke-opacity:1"
       d="m 44.188855,862.0328 v 16.74321"
       id="path7458-1"
       inkscape:connector-curvature="0" />
    <rect
       style="fill:none;fill-opacity:1;stroke:#ff0000;stroke-width:0.31668779;stroke-miterlimit:4;stroke-dasharray:none;stroke-dashoffset:0;stroke-opacity:1"
       id="rect7448-8"
       width="77.856552"
       height="36.933552"
       x="8.4169235"
       y="814.26544" />
    <ellipse
       style="fill:none;fill-opacity:1;stroke:#ff0000;stroke-width:0.31668779;stroke-miterlimit:4;stroke-dasharray:none;stroke-dashoffset:0;stroke-opacity:1"
       id="path7454-7"
       cx="44.890266"
       cy="833.29785"
       rx="17.854996"
       ry="11.491028" />
    <path
       style="fill:#ff0000;stroke:#ff0000;stroke-width:0.83790314px;stroke-linecap:butt;stroke-linejoin:miter;stroke-opacity:1"
       d="m 30.862054,833.9633 26.653595,-0.49244"
       id="path7456-4"
       inkscape:connector-curvature="0" />
    <path
       style="fill:#ff0000;stroke:#ff0000;stroke-width:0.83790314px;stroke-linecap:butt;stroke-linejoin:miter;stroke-opacity:1"
       d="m 44.188852,825.09925 v 16.74321"
       id="path7458-8"
       inkscape:connector-curvature="0" />
    <rect
       style="fill:none;fill-opacity:1;stroke:#ff0000;stroke-width:0.31668779;stroke-miterlimit:4;stroke-dasharray:none;stroke-dashoffset:0;stroke-opacity:1"
       id="rect7448-29"
       width="77.856552"
       height="36.933552"
       x="8.4169235"
       y="777.33191" />
    <ellipse
       style="fill:none;fill-opacity:1;stroke:#ff0000;stroke-width:0.31668779;stroke-miterlimit:4;stroke-dasharray:none;stroke-dashoffset:0;stroke-opacity:1"
       id="path7454-94"
       cx="44.890266"
       cy="796.36432"
       rx="17.854996"
       ry="11.491028" />
    <path
       style="fill:#ff0000;stroke:#ff0000;stroke-width:0.83790314px;stroke-linecap:butt;stroke-linejoin:miter;stroke-opacity:1"
       d="m 30.86206,797.02978 26.6536,-0.49244"
       id="path7456-35"
       inkscape:connector-curvature="0" />
    <path
       style="fill:#ff0000;stroke:#ff0000;stroke-width:0.83790314px;stroke-linecap:butt;stroke-linejoin:miter;stroke-opacity:1"
       d="m 44.18886,788.16573 v 16.74321"
       id="path7458-0"
       inkscape:connector-curvature="0" />
    <path
       style="fill:none;stroke:#ff0000;stroke-width:1px;stroke-linecap:butt;stroke-linejoin:miter;stroke-opacity:1"
       d="m 86.273478,684.83978 -0.70141,433.47162"
       id="path7595"
       inkscape:connector-curvature="0" />
    <g
       aria-label="Meanwell LRS-350"
       style="font-style:normal;font-weight:normal;font-size:40px;line-height:1.25;font-family:sans-serif;letter-spacing:0px;word-spacing:0px;fill:#000000;fill-opacity:1;stroke:none"
       id="text7599"
       transform="translate(-84,-4)">
      <g
         id="g7647">
        <path
           id="path7601"
           style="fill:none;fill-opacity:1;stroke:#ff0000;stroke-opacity:1"
           d="m 278.80537,1107.0889 h -3.86718 v -25.0586 l -8.08594,17.0508 h -2.30469 l -8.02734,-17.0508 v 25.0586 h -3.61328 v -29.0821 h 5.27343 l 7.75391,16.1914 7.5,-16.1914 h 5.37109 z"
           inkscape:connector-curvature="0" />
        <path
           id="path7603"
           style="fill:none;fill-opacity:1;stroke:#ff0000;stroke-opacity:1"
           d="m 304.62569,1096.5615 h -16.07422 q 0,2.0117 0.60547,3.5156 0.60547,1.4844 1.66015,2.4415 1.01563,0.9375 2.40235,1.4062 1.40625,0.4688 3.08593,0.4688 2.22657,0 4.47266,-0.879 2.26563,-0.8984 3.22266,-1.7578 h 0.19531 v 4.0039 q -1.85547,0.7813 -3.78906,1.3086 -1.9336,0.5274 -4.0625,0.5274 -5.42969,0 -8.47657,-2.9297 -3.04687,-2.9492 -3.04687,-8.3594 0,-5.3515 2.91016,-8.4961 2.92968,-3.1445 7.69531,-3.1445 4.41406,0 6.79687,2.5781 2.40235,2.5781 2.40235,7.3242 z m -3.57422,-2.8125 q -0.0195,-2.8906 -1.46485,-4.4726 -1.42578,-1.5821 -4.35546,-1.5821 -2.94922,0 -4.70704,1.7383 -1.73828,1.7383 -1.97265,4.3164 z"
           inkscape:connector-curvature="0" />
        <path
           id="path7605"
           style="fill:none;fill-opacity:1;stroke:#ff0000;stroke-opacity:1"
           d="m 327.14522,1107.0889 h -3.65235 v -2.3243 q -0.48828,0.3321 -1.32812,0.9375 -0.82031,0.586 -1.60156,0.9375 -0.91797,0.4493 -2.10938,0.7422 -1.1914,0.3125 -2.79297,0.3125 -2.94922,0 -5,-1.9531 -2.05078,-1.9531 -2.05078,-4.9805 0,-2.4804 1.05469,-4.0039 1.07422,-1.5429 3.04687,-2.4218 1.99219,-0.8789 4.78516,-1.1914 2.79297,-0.3125 5.99609,-0.4688 v -0.5664 q 0,-1.25 -0.44921,-2.0703 -0.42969,-0.8203 -1.25,-1.2891 -0.78125,-0.4492 -1.875,-0.6054 -1.09375,-0.1563 -2.28516,-0.1563 -1.44531,0 -3.22266,0.3906 -1.77734,0.3711 -3.67187,1.0938 h -0.19531 v -3.7305 q 1.07421,-0.293 3.10546,-0.6445 2.03125,-0.3516 4.00391,-0.3516 2.30469,0 4.00391,0.3906 1.71875,0.3711 2.96875,1.2891 1.23047,0.8984 1.875,2.3242 0.64453,1.4258 0.64453,3.5352 z m -3.65235,-5.3711 v -6.0742 q -1.67968,0.098 -3.96484,0.2929 -2.26562,0.1953 -3.59375,0.5664 -1.58203,0.4492 -2.55859,1.4063 -0.97657,0.9375 -0.97657,2.5976 0,1.875 1.13282,2.8321 1.13281,0.9375 3.45703,0.9375 1.93359,0 3.53515,-0.7422 1.60157,-0.7617 2.96875,-1.8164 z"
           inkscape:connector-curvature="0" />
        <path
           id="path7607"
           style="fill:none;fill-opacity:1;stroke:#ff0000;stroke-opacity:1"
           d="m 352.49678,1107.0889 h -3.67187 v -12.4219 q 0,-1.5039 -0.17579,-2.8125 -0.17578,-1.3281 -0.64453,-2.0703 -0.48828,-0.8203 -1.40625,-1.211 -0.91797,-0.4101 -2.38281,-0.4101 -1.50391,0 -3.14453,0.7422 -1.64063,0.7422 -3.14453,1.8945 v 16.2891 h -3.67188 v -21.8164 h 3.67188 v 2.4218 q 1.71875,-1.4257 3.55469,-2.2265 1.83593,-0.8008 3.76953,-0.8008 3.53515,0 5.39062,2.1289 1.85547,2.1289 1.85547,6.1328 z"
           inkscape:connector-curvature="0" />
        <path
           id="path7609"
           style="fill:none;fill-opacity:1;stroke:#ff0000;stroke-opacity:1"
           d="m 386.85225,1085.2725 -5.68359,21.8164 h -3.39844 l -5.60547,-16.8164 -5.56641,16.8164 h -3.3789 l -5.74219,-21.8164 h 3.82812 l 4.00391,16.8945 5.44922,-16.8945 h 3.02734 l 5.58594,16.8945 3.78906,-16.8945 z"
           inkscape:connector-curvature="0" />
        <path
           id="path7611"
           style="fill:none;fill-opacity:1;stroke:#ff0000;stroke-opacity:1"
           d="m 410.40694,1096.5615 h -16.07422 q 0,2.0117 0.60547,3.5156 0.60547,1.4844 1.66015,2.4415 1.01563,0.9375 2.40235,1.4062 1.40625,0.4688 3.08593,0.4688 2.22657,0 4.47266,-0.879 2.26563,-0.8984 3.22266,-1.7578 h 0.19531 v 4.0039 q -1.85547,0.7813 -3.78906,1.3086 -1.9336,0.5274 -4.0625,0.5274 -5.42969,0 -8.47657,-2.9297 -3.04687,-2.9492 -3.04687,-8.3594 0,-5.3515 2.91016,-8.4961 2.92968,-3.1445 7.69531,-3.1445 4.41406,0 6.79687,2.5781 2.40235,2.5781 2.40235,7.3242 z m -3.57422,-2.8125 q -0.0195,-2.8906 -1.46485,-4.4726 -1.42578,-1.5821 -4.35546,-1.5821 -2.94922,0 -4.70704,1.7383 -1.73828,1.7383 -1.97265,4.3164 z"
           inkscape:connector-curvature="0" />
        <path
           id="path7613"
           style="fill:none;fill-opacity:1;stroke:#ff0000;stroke-opacity:1"
           d="m 419.68428,1107.0889 h -3.67187 v -30.3907 h 3.67187 z"
           inkscape:connector-curvature="0" />
        <path
           id="path7615"
           style="fill:none;fill-opacity:1;stroke:#ff0000;stroke-opacity:1"
           d="m 430.54366,1107.0889 h -3.67188 v -30.3907 h 3.67188 z"
           inkscape:connector-curvature="0" />
        <path
           id="path7617"
           style="fill:none;fill-opacity:1;stroke:#ff0000;stroke-opacity:1"
           d="m 470.446,1107.0889 h -18.39844 v -29.0821 h 3.86719 v 25.6446 H 470.446 Z"
           inkscape:connector-curvature="0" />
        <path
           id="path7619"
           style="fill:none;fill-opacity:1;stroke:#ff0000;stroke-opacity:1"
           d="m 498.37569,1107.0889 h -5.01953 l -9.72657,-11.5625 h -5.44922 v 11.5625 h -3.86718 v -29.0821 h 8.14453 q 2.63672,0 4.39453,0.3516 1.75781,0.332 3.16406,1.2109 1.58203,0.9961 2.46094,2.5196 0.89844,1.5039 0.89844,3.8281 0,3.1445 -1.58203,5.2734 -1.58204,2.1094 -4.35547,3.1836 z m -9.04297,-20.8985 q 0,-1.25 -0.44922,-2.207 -0.42969,-0.9766 -1.44531,-1.6406 -0.83985,-0.5664 -1.99219,-0.7813 -1.15234,-0.2344 -2.71484,-0.2344 h -4.55079 v 10.9766 h 3.90625 q 1.83594,0 3.20313,-0.3125 1.36719,-0.332 2.32422,-1.2109 0.8789,-0.8203 1.28906,-1.875 0.42969,-1.0742 0.42969,-2.7149 z"
           inkscape:connector-curvature="0" />
        <path
           id="path7621"
           style="fill:none;fill-opacity:1;stroke:#ff0000;stroke-opacity:1"
           d="m 523.2585,1098.7881 q 0,1.6992 -0.80078,3.3594 -0.78125,1.6601 -2.20703,2.8125 -1.5625,1.25 -3.65235,1.9531 -2.07031,0.7031 -5,0.7031 -3.14453,0 -5.66406,-0.5859 -2.5,-0.586 -5.09766,-1.7383 v -4.8438 h 0.27344 q 2.20703,1.836 5.09766,2.8321 2.89062,0.9961 5.42969,0.9961 3.59375,0 5.58593,-1.3477 2.01172,-1.3476 2.01172,-3.5937 0,-1.9336 -0.95703,-2.8516 -0.9375,-0.918 -2.87109,-1.4258 -1.46485,-0.3906 -3.1836,-0.6445 -1.69922,-0.2539 -3.61328,-0.6445 -3.86719,-0.8204 -5.74219,-2.793 -1.85546,-1.9922 -1.85546,-5.1758 0,-3.6523 3.08593,-5.9766 3.08594,-2.3437 7.83203,-2.3437 3.06641,0 5.625,0.5859 2.5586,0.586 4.53125,1.4453 v 4.5704 h -0.27343 q -1.66016,-1.4063 -4.375,-2.3243 -2.69532,-0.9375 -5.52735,-0.9375 -3.10547,0 -5,1.2891 -1.875,1.2891 -1.875,3.3203 0,1.8164 0.9375,2.8516 0.9375,1.0351 3.30078,1.582 1.25,0.2734 3.55469,0.6641 2.30469,0.3906 3.90625,0.8007 3.24219,0.8594 4.88281,2.5977 1.64063,1.7383 1.64063,4.8633 z"
           inkscape:connector-curvature="0" />
        <path
           id="path7623"
           style="fill:none;fill-opacity:1;stroke:#ff0000;stroke-opacity:1"
           d="m 540.73897,1096.1318 h -12.1875 v -3.5351 h 12.1875 z"
           inkscape:connector-curvature="0" />
        <path
           id="path7625"
           style="fill:none;fill-opacity:1;stroke:#ff0000;stroke-opacity:1"
           d="m 564.03975,1093.085 q 0.9375,0.8398 1.54297,2.1093 0.60547,1.2696 0.60547,3.2813 0,1.9922 -0.72266,3.6523 -0.72266,1.6602 -2.03125,2.8907 -1.46484,1.3671 -3.45703,2.0312 -1.97266,0.6445 -4.33594,0.6445 -2.42187,0 -4.76562,-0.5859 -2.34375,-0.5664 -3.84766,-1.25 v -4.082 h 0.29297 q 1.66016,1.0937 3.90625,1.8164 2.24609,0.7226 4.33594,0.7226 1.23047,0 2.61718,-0.4101 1.38672,-0.4102 2.2461,-1.211 0.89844,-0.8593 1.32812,-1.8945 0.44922,-1.0352 0.44922,-2.6172 0,-1.5625 -0.50781,-2.5781 -0.48828,-1.0352 -1.36719,-1.6211 -0.8789,-0.6055 -2.1289,-0.8203 -1.25,-0.2344 -2.69532,-0.2344 h -1.75781 v -3.2422 h 1.36719 q 2.96875,0 4.72656,-1.2304 1.77734,-1.25 1.77734,-3.6329 0,-1.0546 -0.44921,-1.8359 -0.44922,-0.8008 -1.25,-1.3086 -0.83985,-0.5078 -1.79688,-0.7031 -0.95703,-0.1953 -2.16797,-0.1953 -1.85547,0 -3.94531,0.664 -2.08984,0.6641 -3.94531,1.875 h -0.19532 v -4.082 q 1.38672,-0.6836 3.69141,-1.25 2.32422,-0.5859 4.49219,-0.5859 2.1289,0 3.75,0.3906 1.62109,0.3906 2.92969,1.25 1.40625,0.9375 2.1289,2.2656 0.72266,1.3281 0.72266,3.1055 0,2.4219 -1.71875,4.2383 -1.69922,1.7968 -4.02344,2.2656 v 0.2734 q 0.9375,0.1563 2.14844,0.6641 1.21094,0.4883 2.05078,1.2305 z"
           inkscape:connector-curvature="0" />
        <path
           id="path7627"
           style="fill:none;fill-opacity:1;stroke:#ff0000;stroke-opacity:1"
           d="m 591.83272,1097.8506 q 0,2.0312 -0.74219,3.8867 -0.74219,1.8555 -2.03125,3.125 -1.40625,1.3672 -3.35937,2.1094 -1.9336,0.7226 -4.49219,0.7226 -2.38281,0 -4.58985,-0.5078 -2.20703,-0.4883 -3.73046,-1.1914 v -4.1211 h 0.27343 q 1.60157,1.0156 3.75,1.7383 2.14844,0.7031 4.21875,0.7031 1.38672,0 2.67578,-0.3906 1.3086,-0.3906 2.32422,-1.3672 0.85938,-0.8398 1.28907,-2.0117 0.44921,-1.1719 0.44921,-2.7148 0,-1.504 -0.52734,-2.5391 -0.50781,-1.0352 -1.42578,-1.6602 -1.01563,-0.7422 -2.48047,-1.0351 -1.44531,-0.3125 -3.24219,-0.3125 -1.71875,0 -3.32031,0.2344 -1.58203,0.2343 -2.73437,0.4687 v -14.9805 h 17.5 v 3.418 h -13.73047 v 7.7344 q 0.83984,-0.078 1.71875,-0.1172 0.8789,-0.039 1.52343,-0.039 2.36329,0 4.14063,0.4102 1.77734,0.3906 3.26172,1.4062 1.5625,1.0743 2.42187,2.7735 0.85938,1.6992 0.85938,4.2578 z"
           inkscape:connector-curvature="0" />
        <path
           id="path7629"
           style="fill:none;fill-opacity:1;stroke:#ff0000;stroke-opacity:1"
           d="m 617.49678,1092.5381 q 0,7.832 -2.46094,11.5039 -2.4414,3.6523 -7.59765,3.6523 -5.23438,0 -7.65625,-3.7109 -2.40235,-3.7109 -2.40235,-11.4063 0,-7.7539 2.44141,-11.4453 2.44141,-3.7109 7.61719,-3.7109 5.23437,0 7.63672,3.7695 2.42187,3.75 2.42187,11.3477 z m -5.13672,8.8672 q 0.6836,-1.5821 0.91797,-3.711 0.25391,-2.1484 0.25391,-5.1562 0,-2.9688 -0.25391,-5.1563 -0.23437,-2.1875 -0.9375,-3.7109 -0.68359,-1.5039 -1.875,-2.2656 -1.17187,-0.7617 -3.02734,-0.7617 -1.83594,0 -3.04688,0.7617 -1.1914,0.7617 -1.89453,2.3047 -0.66406,1.4453 -0.91797,3.7695 -0.23437,2.3242 -0.23437,5.0976 0,3.0469 0.21484,5.0977 0.21484,2.0508 0.91797,3.6719 0.64453,1.5234 1.81641,2.3242 1.1914,0.8008 3.14453,0.8008 1.83593,0 3.04687,-0.7617 1.21094,-0.7618 1.875,-2.3047 z"
           inkscape:connector-curvature="0" />
      </g>
      <g
         id="g4586"
         transform="matrix(3.7795276,0,0,3.7795276,504.63824,715.04712)" />
    </g>
    <path
       style="display:inline;fill:#ff0000;stroke:#ff0000;stroke-width:0.58288193px;stroke-linecap:butt;stroke-linejoin:miter;stroke-opacity:1"
       d="m 45.395617,1011.9409 0.499844,12.7061"
       id="path7456-2-6"
       inkscape:connector-curvature="0" />
  </g>
</svg>
