<?xml version="1.0" encoding="UTF-8" standalone="no"?>
<!-- Created with Inkscape (http://www.inkscape.org/) -->

<svg
   xmlns:dc="http://purl.org/dc/elements/1.1/"
   xmlns:cc="http://creativecommons.org/ns#"
   xmlns:rdf="http://www.w3.org/1999/02/22-rdf-syntax-ns#"
   xmlns:svg="http://www.w3.org/2000/svg"
   xmlns="http://www.w3.org/2000/svg"
   xmlns:sodipodi="http://sodipodi.sourceforge.net/DTD/sodipodi-0.dtd"
   xmlns:inkscape="http://www.inkscape.org/namespaces/inkscape"
   width="18.200001mm"
   height="15.8mm"
   viewBox="0 0 18.200001 15.800001"
   version="1.1"
   id="svg8"
   inkscape:version="0.92.3 (2405546, 2018-03-11)"
   sodipodi:docname="pg7-gland.svg">
  <defs
     id="defs2" />
  <sodipodi:namedview
     id="base"
     pagecolor="#ffffff"
     bordercolor="#666666"
     borderopacity="1.0"
     inkscape:pageopacity="0.0"
     inkscape:pageshadow="2"
     inkscape:zoom="3.959798"
     inkscape:cx="-4.7101869"
     inkscape:cy="105.71476"
     inkscape:document-units="mm"
     inkscape:current-layer="layer1"
     showgrid="false"
     inkscape:window-width="1920"
     inkscape:window-height="1017"
     inkscape:window-x="-8"
     inkscape:window-y="-8"
     inkscape:window-maximized="1" />
  <metadata
     id="metadata5">
    <rdf:RDF>
      <cc:Work
         rdf:about="">
        <dc:format>image/svg+xml</dc:format>
        <dc:type
           rdf:resource="http://purl.org/dc/dcmitype/StillImage" />
        <dc:title></dc:title>
      </cc:Work>
    </rdf:RDF>
  </metadata>
  <g
     inkscape:label="Layer 1"
     inkscape:groupmode="layer"
     id="layer1"
     transform="translate(0,-281.2)">
    <g
       id="g825"
       transform="translate(-9.8943451,35.608295)">
      <circle
         r="6.4344182"
         cy="253.60243"
         cx="18.947884"
         id="path817"
         style="fill:none;fill-opacity:1;stroke:#000000;stroke-width:0.13116314;stroke-miterlimit:4;stroke-dasharray:none;stroke-opacity:1" />
      <path
         transform="matrix(0.30455746,0.00166993,-0.00166993,0.30455746,6.072195,197.89902)"
         d="m 58.208334,207.9866 -29.396607,0.26761 -14.93006,-25.3244 14.466548,-25.59201 29.396607,-0.26761 14.93006,25.3244 z"
         inkscape:randomized="0"
         inkscape:rounded="0"
         inkscape:flatsided="true"
         sodipodi:arg2="1.5616932"
         sodipodi:arg1="1.0380944"
         sodipodi:r2="25.459265"
         sodipodi:r1="29.397825"
         sodipodi:cy="182.6622"
         sodipodi:cx="43.278275"
         sodipodi:sides="6"
         id="path821"
         style="fill:none;fill-opacity:1;stroke:#ff0000;stroke-width:0.26499999;stroke-miterlimit:4;stroke-dasharray:none;stroke-opacity:1"
         sodipodi:type="star" />
    </g>
    <g
       aria-label="PG7"
       style="font-style:normal;font-weight:normal;font-size:2.77166748px;line-height:1.25;font-family:sans-serif;letter-spacing:0px;word-spacing:0px;fill:#ff0000;fill-opacity:1;stroke:none;stroke-width:0.06929169"
       id="text829">
      <path
         d="m 8.0258003,287.69869 q 0,0.13399 -0.047367,0.24902 -0.046014,0.11368 -0.1299219,0.19759 -0.1042082,0.10421 -0.2463103,0.15699 -0.1421021,0.0514 -0.3586386,0.0514 H 6.9755982 v 0.75111 h -0.267964 v -2.01515 h 0.5467547 q 0.1813494,0 0.3072112,0.0311 0.1258619,0.0298 0.2233033,0.0947 0.115035,0.0771 0.1772893,0.19217 0.063608,0.11504 0.063608,0.29097 z m -0.2787908,0.007 q 0,-0.10421 -0.036541,-0.18135 -0.036541,-0.0771 -0.110975,-0.12586 -0.064961,-0.042 -0.1488688,-0.0596 -0.082555,-0.019 -0.2097698,-0.019 H 6.9755982 v 0.80525 h 0.22601 q 0.1624023,0 0.2639038,-0.0284 0.1015015,-0.0298 0.1651091,-0.0934 0.063608,-0.065 0.089321,-0.13669 0.027067,-0.0717 0.027067,-0.16105 z"
         style="fill:#ff0000;fill-opacity:1;stroke-width:0.06929169"
         id="path850"
         inkscape:connector-curvature="0" />
      <path
         d="m 10.061244,288.95596 q -0.1651095,0.0758 -0.3613457,0.13263 -0.1948829,0.0555 -0.3775856,0.0555 -0.2354835,0 -0.4317197,-0.065 -0.1962362,-0.065 -0.3342782,-0.19488 -0.1393954,-0.13127 -0.2151832,-0.32751 -0.075788,-0.19759 -0.075788,-0.46149 0,-0.48315 0.2814975,-0.76194 0.2828508,-0.28015 0.7754714,-0.28015 0.1718759,0 0.3505185,0.042 0.179996,0.0406 0.387059,0.13939 v 0.31804 h -0.02436 q -0.041954,-0.0325 -0.1218021,-0.0853 -0.079848,-0.0528 -0.156989,-0.088 -0.093381,-0.0419 -0.2124765,-0.069 -0.1177417,-0.0284 -0.2679639,-0.0284 -0.3383383,0 -0.5359279,0.21789 -0.1962362,0.21654 -0.1962362,0.58736 0,0.39112 0.2057097,0.60901 0.2057097,0.21653 0.5602882,0.21653 0.1299219,0 0.2584905,-0.0257 0.1299219,-0.0257 0.2273634,-0.0663 v -0.49397 h -0.539988 v -0.23548 h 0.8052458 z"
         style="fill:#ff0000;fill-opacity:1;stroke-width:0.06929169"
         id="path852"
         inkscape:connector-curvature="0" />
      <path
         d="m 11.846317,287.39148 -0.91216,1.71335 h -0.289618 l 0.970354,-1.77831 H 10.46725 v -0.23684 h 1.379067 z"
         style="fill:#ff0000;fill-opacity:1;stroke-width:0.06929169"
         id="path854"
         inkscape:connector-curvature="0" />
    </g>
    <g
       aria-label="Gland"
       style="font-style:normal;font-weight:normal;font-size:2.47800994px;line-height:1.25;font-family:sans-serif;letter-spacing:0px;word-spacing:0px;fill:#ff0000;fill-opacity:1;stroke:none;stroke-width:0.06195024"
       id="text837">
      <path
         d="m 7.2780243,291.71639 q -0.1476158,0.0678 -0.3230608,0.11858 -0.1742351,0.0496 -0.3375805,0.0496 -0.210534,0 -0.3859791,-0.0581 -0.175445,-0.0581 -0.2988615,-0.17424 -0.1246265,-0.11736 -0.1923846,-0.29281 -0.067758,-0.17665 -0.067758,-0.4126 0,-0.43195 0.2516729,-0.68121 0.2528829,-0.25046 0.6933104,-0.25046 0.1536657,0 0.3133812,0.0375 0.1609254,0.0363 0.3460502,0.12462 v 0.28435 h -0.02178 q -0.037509,-0.029 -0.1088969,-0.0762 -0.071388,-0.0472 -0.1403561,-0.0786 -0.083488,-0.0375 -0.1899646,-0.0617 -0.105267,-0.0254 -0.2395732,-0.0254 -0.3024915,0 -0.4791465,0.19481 -0.175445,0.19359 -0.175445,0.52512 0,0.34968 0.1839148,0.54449 0.1839148,0.19359 0.5009258,0.19359 0.1161567,0 0.2311035,-0.023 0.1161567,-0.023 0.2032742,-0.0593 V 291.1538 H 6.5580947 v -0.21054 h 0.7199296 z"
         style="fill:#ff0000;fill-opacity:1;stroke-width:0.06195024"
         id="path839"
         inkscape:connector-curvature="0" />
      <path
         d="M 7.9084165,291.84949 H 7.680943 v -1.88271 h 0.2274735 z"
         style="fill:#ff0000;fill-opacity:1;stroke-width:0.06195024"
         id="path841"
         inkscape:connector-curvature="0" />
      <path
         d="M 9.4111942,291.84949 H 9.1849306 v -0.14399 q -0.030249,0.0206 -0.082278,0.0581 -0.050819,0.0363 -0.099217,0.0581 -0.056868,0.0278 -0.1306763,0.046 -0.073808,0.0194 -0.1730251,0.0194 -0.1827048,0 -0.3097512,-0.121 -0.1270464,-0.121 -0.1270464,-0.30854 0,-0.15367 0.065338,-0.24804 0.066548,-0.0956 0.1887547,-0.15004 0.1234165,-0.0544 0.2964416,-0.0738 0.1730251,-0.0194 0.3714595,-0.029 v -0.0351 q 0,-0.0774 -0.027829,-0.12825 -0.026619,-0.0508 -0.077438,-0.0799 -0.048399,-0.0278 -0.1161567,-0.0375 -0.067758,-0.01 -0.141566,-0.01 -0.089537,0 -0.1996444,0.0242 -0.1101069,0.023 -0.2274736,0.0678 h -0.0121 v -0.23111 q 0.066548,-0.0181 0.1923845,-0.0399 0.1258365,-0.0218 0.248043,-0.0218 0.142776,0 0.248043,0.0242 0.106477,0.023 0.1839148,0.0799 0.076228,0.0557 0.1161567,0.14399 0.039929,0.0883 0.039929,0.219 z m -0.2262636,-0.33274 v -0.3763 q -0.1040571,0.006 -0.2456231,0.0181 -0.140356,0.0121 -0.2226337,0.0351 -0.098007,0.0278 -0.1585055,0.0871 -0.060498,0.0581 -0.060498,0.16093 0,0.11616 0.070178,0.17544 0.070178,0.0581 0.214164,0.0581 0.1197866,0 0.2190038,-0.046 0.099217,-0.0472 0.1839148,-0.11252 z"
         style="fill:#ff0000;fill-opacity:1;stroke-width:0.06195024"
         id="path843"
         inkscape:connector-curvature="0" />
      <path
         d="m 10.98173,291.84949 h -0.227474 v -0.76954 q 0,-0.0932 -0.01089,-0.17424 -0.01089,-0.0823 -0.03993,-0.12825 -0.03025,-0.0508 -0.08712,-0.075 -0.05687,-0.0254 -0.147616,-0.0254 -0.09317,0 -0.194804,0.046 -0.101637,0.046 -0.194805,0.11737 v 1.00911 H 9.8516217 v -1.35153 h 0.2274733 v 0.15003 q 0.106477,-0.0883 0.220214,-0.13793 0.113737,-0.0496 0.233523,-0.0496 0.219004,0 0.333951,0.13188 0.114947,0.13189 0.114947,0.37993 z"
         style="fill:#ff0000;fill-opacity:1;stroke-width:0.06195024"
         id="path845"
         inkscape:connector-curvature="0" />
      <path
         d="m 12.515966,291.84949 h -0.227473 v -0.14157 q -0.09801,0.0847 -0.204484,0.13189 -0.106477,0.0472 -0.231104,0.0472 -0.241993,0 -0.384769,-0.18634 -0.141566,-0.18633 -0.141566,-0.51665 0,-0.17182 0.0484,-0.30613 0.04961,-0.1343 0.133096,-0.22868 0.08228,-0.092 0.191175,-0.14035 0.110106,-0.0484 0.227473,-0.0484 0.106477,0 0.188755,0.023 0.08228,0.0218 0.173025,0.069 v -0.58562 h 0.227473 z m -0.227473,-0.33274 v -0.77559 q -0.09196,-0.0411 -0.164555,-0.0569 -0.0726,-0.0157 -0.158506,-0.0157 -0.191175,0 -0.297652,0.1331 -0.106477,0.13309 -0.106477,0.37751 0,0.24078 0.08228,0.36662 0.08228,0.12462 0.263773,0.12462 0.0968,0 0.196014,-0.0423 0.09922,-0.0436 0.185125,-0.11131 z"
         style="fill:#ff0000;fill-opacity:1;stroke-width:0.06195024"
         id="path847"
         inkscape:connector-curvature="0" />
    </g>
  </g>
</svg>
