<?xml version="1.0" encoding="UTF-8" standalone="no"?>
<!-- Created with Inkscape (http://www.inkscape.org/) -->

<svg
   xmlns:dc="http://purl.org/dc/elements/1.1/"
   xmlns:cc="http://creativecommons.org/ns#"
   xmlns:rdf="http://www.w3.org/1999/02/22-rdf-syntax-ns#"
   xmlns:svg="http://www.w3.org/2000/svg"
   xmlns="http://www.w3.org/2000/svg"
   xmlns:sodipodi="http://sodipodi.sourceforge.net/DTD/sodipodi-0.dtd"
   xmlns:inkscape="http://www.inkscape.org/namespaces/inkscape"
   width="22.1mm"
   height="19.200001mm"
   viewBox="0 0 22.100001 19.200001"
   version="1.1"
   id="svg8"
   inkscape:version="0.92.3 (2405546, 2018-03-11)"
   sodipodi:docname="pg9-gland.svg">
  <defs
     id="defs2" />
  <sodipodi:namedview
     id="base"
     pagecolor="#ffffff"
     bordercolor="#666666"
     borderopacity="1.0"
     inkscape:pageopacity="0.0"
     inkscape:pageshadow="2"
     inkscape:zoom="3.959798"
     inkscape:cx="-4.7101869"
     inkscape:cy="105.71476"
     inkscape:document-units="mm"
     inkscape:current-layer="layer1"
     showgrid="false"
     inkscape:window-width="1920"
     inkscape:window-height="1017"
     inkscape:window-x="-8"
     inkscape:window-y="-8"
     inkscape:window-maximized="1" />
  <metadata
     id="metadata5">
    <rdf:RDF>
      <cc:Work
         rdf:about="">
        <dc:format>image/svg+xml</dc:format>
        <dc:type
           rdf:resource="http://purl.org/dc/dcmitype/StillImage" />
        <dc:title></dc:title>
      </cc:Work>
    </rdf:RDF>
  </metadata>
  <g
     inkscape:label="Layer 1"
     inkscape:groupmode="layer"
     id="layer1"
     transform="translate(0,-277.8)">
    <g
       id="g825"
       transform="translate(-9.8943451,35.608295)">
      <circle
         r="7.9192843"
         cy="251.86676"
         cx="20.947882"
         id="path817"
         style="fill:none;fill-opacity:1;stroke:#000000;stroke-width:0.16143157;stroke-miterlimit:4;stroke-dasharray:none;stroke-opacity:1" />
      <path
         transform="matrix(0.3722369,0.00204103,-0.00204103,0.3722369,5.2109309,183.78481)"
         d="m 58.208334,207.9866 -29.396607,0.26761 -14.93006,-25.3244 14.466548,-25.59201 29.396607,-0.26761 14.93006,25.3244 z"
         inkscape:randomized="0"
         inkscape:rounded="0"
         inkscape:flatsided="true"
         sodipodi:arg2="1.5616932"
         sodipodi:arg1="1.0380944"
         sodipodi:r2="25.459265"
         sodipodi:r1="29.397825"
         sodipodi:cy="182.6622"
         sodipodi:cx="43.278275"
         sodipodi:sides="6"
         id="path821"
         style="fill:none;fill-opacity:1;stroke:#ff0000;stroke-width:0.26499999;stroke-miterlimit:4;stroke-dasharray:none;stroke-opacity:1"
         sodipodi:type="star" />
    </g>
    <g
       aria-label="Gland"
       style="font-style:normal;font-weight:normal;font-size:2.47800994px;line-height:1.25;font-family:sans-serif;letter-spacing:0px;word-spacing:0px;fill:#ff0000;fill-opacity:1;stroke:none;stroke-width:0.06195024"
       id="text837"
       transform="translate(1.6704345,-1.1358955)">
      <path
         d="m 7.2780243,291.71639 q -0.1476158,0.0678 -0.3230608,0.11858 -0.1742351,0.0496 -0.3375805,0.0496 -0.210534,0 -0.3859791,-0.0581 -0.175445,-0.0581 -0.2988615,-0.17424 -0.1246265,-0.11736 -0.1923846,-0.29281 -0.067758,-0.17665 -0.067758,-0.4126 0,-0.43195 0.2516729,-0.68121 0.2528829,-0.25046 0.6933104,-0.25046 0.1536657,0 0.3133812,0.0375 0.1609254,0.0363 0.3460502,0.12462 v 0.28435 h -0.02178 q -0.037509,-0.029 -0.1088969,-0.0762 -0.071388,-0.0472 -0.1403561,-0.0786 -0.083488,-0.0375 -0.1899646,-0.0617 -0.105267,-0.0254 -0.2395732,-0.0254 -0.3024915,0 -0.4791465,0.19481 -0.175445,0.19359 -0.175445,0.52512 0,0.34968 0.1839148,0.54449 0.1839148,0.19359 0.5009258,0.19359 0.1161567,0 0.2311035,-0.023 0.1161567,-0.023 0.2032742,-0.0593 V 291.1538 H 6.5580947 v -0.21054 h 0.7199296 z"
         style="fill:#ff0000;fill-opacity:1;stroke-width:0.06195024"
         id="path839"
         inkscape:connector-curvature="0" />
      <path
         d="M 7.9084165,291.84949 H 7.680943 v -1.88271 h 0.2274735 z"
         style="fill:#ff0000;fill-opacity:1;stroke-width:0.06195024"
         id="path841"
         inkscape:connector-curvature="0" />
      <path
         d="M 9.4111942,291.84949 H 9.1849306 v -0.14399 q -0.030249,0.0206 -0.082278,0.0581 -0.050819,0.0363 -0.099217,0.0581 -0.056868,0.0278 -0.1306763,0.046 -0.073808,0.0194 -0.1730251,0.0194 -0.1827048,0 -0.3097512,-0.121 -0.1270464,-0.121 -0.1270464,-0.30854 0,-0.15367 0.065338,-0.24804 0.066548,-0.0956 0.1887547,-0.15004 0.1234165,-0.0544 0.2964416,-0.0738 0.1730251,-0.0194 0.3714595,-0.029 v -0.0351 q 0,-0.0774 -0.027829,-0.12825 -0.026619,-0.0508 -0.077438,-0.0799 -0.048399,-0.0278 -0.1161567,-0.0375 -0.067758,-0.01 -0.141566,-0.01 -0.089537,0 -0.1996444,0.0242 -0.1101069,0.023 -0.2274736,0.0678 h -0.0121 v -0.23111 q 0.066548,-0.0181 0.1923845,-0.0399 0.1258365,-0.0218 0.248043,-0.0218 0.142776,0 0.248043,0.0242 0.106477,0.023 0.1839148,0.0799 0.076228,0.0557 0.1161567,0.14399 0.039929,0.0883 0.039929,0.219 z m -0.2262636,-0.33274 v -0.3763 q -0.1040571,0.006 -0.2456231,0.0181 -0.140356,0.0121 -0.2226337,0.0351 -0.098007,0.0278 -0.1585055,0.0871 -0.060498,0.0581 -0.060498,0.16093 0,0.11616 0.070178,0.17544 0.070178,0.0581 0.214164,0.0581 0.1197866,0 0.2190038,-0.046 0.099217,-0.0472 0.1839148,-0.11252 z"
         style="fill:#ff0000;fill-opacity:1;stroke-width:0.06195024"
         id="path843"
         inkscape:connector-curvature="0" />
      <path
         d="m 10.98173,291.84949 h -0.227474 v -0.76954 q 0,-0.0932 -0.01089,-0.17424 -0.01089,-0.0823 -0.03993,-0.12825 -0.03025,-0.0508 -0.08712,-0.075 -0.05687,-0.0254 -0.147616,-0.0254 -0.09317,0 -0.194804,0.046 -0.101637,0.046 -0.194805,0.11737 v 1.00911 H 9.8516217 v -1.35153 h 0.2274733 v 0.15003 q 0.106477,-0.0883 0.220214,-0.13793 0.113737,-0.0496 0.233523,-0.0496 0.219004,0 0.333951,0.13188 0.114947,0.13189 0.114947,0.37993 z"
         style="fill:#ff0000;fill-opacity:1;stroke-width:0.06195024"
         id="path845"
         inkscape:connector-curvature="0" />
      <path
         d="m 12.515966,291.84949 h -0.227473 v -0.14157 q -0.09801,0.0847 -0.204484,0.13189 -0.106477,0.0472 -0.231104,0.0472 -0.241993,0 -0.384769,-0.18634 -0.141566,-0.18633 -0.141566,-0.51665 0,-0.17182 0.0484,-0.30613 0.04961,-0.1343 0.133096,-0.22868 0.08228,-0.092 0.191175,-0.14035 0.110106,-0.0484 0.227473,-0.0484 0.106477,0 0.188755,0.023 0.08228,0.0218 0.173025,0.069 v -0.58562 h 0.227473 z m -0.227473,-0.33274 v -0.77559 q -0.09196,-0.0411 -0.164555,-0.0569 -0.0726,-0.0157 -0.158506,-0.0157 -0.191175,0 -0.297652,0.1331 -0.106477,0.13309 -0.106477,0.37751 0,0.24078 0.08228,0.36662 0.08228,0.12462 0.263773,0.12462 0.0968,0 0.196014,-0.0423 0.09922,-0.0436 0.185125,-0.11131 z"
         style="fill:#ff0000;fill-opacity:1;stroke-width:0.06195024"
         id="path847"
         inkscape:connector-curvature="0" />
    </g>
    <g
       aria-label="PG9"
       style="font-style:normal;font-weight:normal;font-size:4.30698824px;line-height:1.25;font-family:sans-serif;letter-spacing:0px;word-spacing:0px;fill:#ff0000;fill-opacity:1;stroke:none;stroke-width:0.1076747"
       id="text859">
      <path
         d="m 9.0286192,285.68306 q 0,0.2082 -0.073606,0.38696 -0.071503,0.17665 -0.2018901,0.30704 -0.1619327,0.16193 -0.3827499,0.24395 -0.2208173,0.0799 -0.5573007,0.0799 h -0.416398 v 1.16717 H 6.9802762 v -3.1314 h 0.8496207 q 0.2818049,0 0.4773859,0.0484 0.195581,0.0463 0.3469986,0.14721 0.1787568,0.11988 0.2754958,0.29863 0.098842,0.17876 0.098842,0.45215 z m -0.4332224,0.0105 q 0,-0.16193 -0.056782,-0.28181 -0.056782,-0.11987 -0.1724478,-0.19558 -0.100945,-0.0652 -0.2313323,-0.0925 -0.1282844,-0.0294 -0.3259684,-0.0294 H 7.3966745 v 1.2513 h 0.3512046 q 0.2523626,0 0.4100892,-0.0442 0.1577266,-0.0463 0.2565686,-0.14511 0.098842,-0.10094 0.1387995,-0.2124 0.04206,-0.11146 0.04206,-0.25026 z"
         style="fill:#ff0000;fill-opacity:1;stroke-width:0.1076747"
         id="path861"
         inkscape:connector-curvature="0" />
      <path
         d="m 12.191564,287.63677 q -0.256569,0.11777 -0.561507,0.2061 -0.302835,0.0862 -0.586743,0.0862 -0.365926,0 -0.670864,-0.10094 -0.304938,-0.10095 -0.5194463,-0.30284 -0.2166112,-0.20399 -0.3343804,-0.50893 -0.1177692,-0.30704 -0.1177692,-0.71713 0,-0.75078 0.4374285,-1.184 0.4395314,-0.43533 1.2050314,-0.43533 0.267084,0 0.544683,0.0652 0.279701,0.0631 0.601464,0.21661 v 0.49421 h -0.03786 q -0.06519,-0.0505 -0.189272,-0.13249 -0.124078,-0.082 -0.24395,-0.1367 -0.145109,-0.0652 -0.330175,-0.10725 -0.182962,-0.0442 -0.416398,-0.0442 -0.525755,0 -0.832796,0.33859 -0.3049385,0.33648 -0.3049385,0.91271 0,0.60777 0.3196595,0.94636 0.319659,0.33648 0.870651,0.33648 0.20189,0 0.401677,-0.04 0.20189,-0.04 0.353308,-0.10305 v -0.7676 h -0.839106 v -0.36593 h 1.251298 z"
         style="fill:#ff0000;fill-opacity:1;stroke-width:0.1076747"
         id="path863"
         inkscape:connector-curvature="0" />
      <path
         d="m 14.952831,286.11418 q 0,0.41009 -0.09464,0.74447 -0.09253,0.33438 -0.281804,0.56992 -0.191375,0.23975 -0.479489,0.37013 -0.288114,0.13039 -0.677173,0.13039 -0.109357,0 -0.206096,-0.0126 -0.09674,-0.0105 -0.172448,-0.0358 v -0.40168 h 0.02103 q 0.06099,0.0315 0.172448,0.061 0.11146,0.0273 0.248156,0.0273 0.464768,0 0.727646,-0.2776 0.264981,-0.2797 0.307041,-0.7697 -0.195581,0.11777 -0.368029,0.16824 -0.172448,0.0505 -0.376441,0.0505 -0.193478,0 -0.351204,-0.0378 -0.155624,-0.0379 -0.31335,-0.14722 -0.185066,-0.12828 -0.279702,-0.32596 -0.09253,-0.19769 -0.09253,-0.47318 0,-0.47949 0.315453,-0.78022 0.315453,-0.30074 0.769706,-0.30074 0.227126,0 0.420604,0.0715 0.193478,0.0694 0.338587,0.2103 0.178756,0.17455 0.275495,0.45004 0.09674,0.2734 0.09674,0.70872 z m -0.42481,-0.0904 q 0,-0.32597 -0.0673,-0.52365 -0.0673,-0.19768 -0.185065,-0.30704 -0.09884,-0.0946 -0.212406,-0.13459 -0.113563,-0.0421 -0.246053,-0.0421 -0.302835,0 -0.479489,0.18927 -0.174551,0.18927 -0.174551,0.53206 0,0.19979 0.05678,0.32597 0.05678,0.12618 0.191375,0.22082 0.09464,0.0652 0.208199,0.0883 0.113563,0.021 0.252362,0.021 0.164036,0 0.332278,-0.0442 0.168241,-0.0442 0.315453,-0.12828 0.0021,-0.0442 0.0042,-0.0862 0.0042,-0.0442 0.0042,-0.11146 z"
         style="fill:#ff0000;fill-opacity:1;stroke-width:0.1076747"
         id="path865"
         inkscape:connector-curvature="0" />
    </g>
  </g>
</svg>
