<?xml version="1.0" encoding="UTF-8" standalone="no"?>
<svg
   xmlns:dc="http://purl.org/dc/elements/1.1/"
   xmlns:cc="http://creativecommons.org/ns#"
   xmlns:rdf="http://www.w3.org/1999/02/22-rdf-syntax-ns#"
   xmlns:svg="http://www.w3.org/2000/svg"
   xmlns="http://www.w3.org/2000/svg"
   xmlns:sodipodi="http://sodipodi.sourceforge.net/DTD/sodipodi-0.dtd"
   xmlns:inkscape="http://www.inkscape.org/namespaces/inkscape"
   version="1.1"
   width="49mm"
   height="41mm"
   viewBox="0 0 300mm 200mm"
   xml:space="preserve"
   id="svg20"
   sodipodi:docname="temp_control_switch.svg"
   inkscape:version="0.92.1 r15371"><metadata
     id="metadata24"><rdf:RDF><cc:Work
         rdf:about=""><dc:format>image/svg+xml</dc:format><dc:type
           rdf:resource="http://purl.org/dc/dcmitype/StillImage" /><dc:title></dc:title></cc:Work></rdf:RDF></metadata><sodipodi:namedview
     pagecolor="#ffffff"
     bordercolor="#666666"
     borderopacity="1"
     objecttolerance="10"
     gridtolerance="10"
     guidetolerance="10"
     inkscape:pageopacity="0"
     inkscape:pageshadow="2"
     inkscape:window-width="1920"
     inkscape:window-height="1017"
     id="namedview22"
     showgrid="false"
     inkscape:zoom="4"
     inkscape:cx="126.78634"
     inkscape:cy="73.615336"
     inkscape:window-x="-8"
     inkscape:window-y="-8"
     inkscape:window-maximized="1"
     inkscape:current-layer="svg20" /><desc
     id="desc2">Created with Fabric.js 2.0.0-beta7</desc><defs
     id="defs4" /><g
     id="g6"
     transform="translate(0,-600.94503)" /><g
     transform="translate(92.60678,77.604892)"
     id="g18"><rect
       x="-91.04882"
       y="-76.081886"
       rx="0"
       ry="0"
       width="182.09764"
       height="152.16377"
       style="opacity:1;fill:#000000;fill-opacity:0;fill-rule:nonzero;stroke:#ff0000;stroke-width:1;stroke-linecap:butt;stroke-linejoin:miter;stroke-miterlimit:10;stroke-dasharray:none"
       id="rect8" /><circle
       cx="0"
       cy="0"
       r="5.1023622"
       style="opacity:1;fill:#000000;fill-opacity:0;fill-rule:nonzero;stroke:#000000;stroke-width:1;stroke-linecap:butt;stroke-linejoin:miter;stroke-miterlimit:10;stroke-dasharray:none"
       transform="translate(-76.69,-59.07)"
       id="circle10" /><circle
       cx="0"
       cy="0"
       r="5.1023622"
       style="opacity:1;fill:#000000;fill-opacity:0;fill-rule:nonzero;stroke:#000000;stroke-width:1;stroke-linecap:butt;stroke-linejoin:miter;stroke-miterlimit:10;stroke-dasharray:none"
       transform="translate(-76.69,59.53)"
       id="circle12" /><circle
       cx="0"
       cy="0"
       r="5.1023622"
       style="opacity:1;fill:#000000;fill-opacity:0;fill-rule:nonzero;stroke:#000000;stroke-width:1;stroke-linecap:butt;stroke-linejoin:miter;stroke-miterlimit:10;stroke-dasharray:none"
       transform="translate(74.76,-59.07)"
       id="circle14" /><circle
       cx="0"
       cy="0"
       r="5.1023622"
       style="opacity:1;fill:#000000;fill-opacity:0;fill-rule:nonzero;stroke:#000000;stroke-width:1;stroke-linecap:butt;stroke-linejoin:miter;stroke-miterlimit:10;stroke-dasharray:none"
       transform="translate(74.76,59.53)"
       id="circle16" /></g><rect
     style="fill:none;fill-opacity:1;stroke:#ff0000;stroke-width:0.80234081;stroke-miterlimit:4;stroke-dasharray:none;stroke-dashoffset:0;stroke-opacity:1"
     id="rect4501"
     width="86.436852"
     height="47.189476"
     x="48.321949"
     y="101.91592" /><flowRoot
     xml:space="preserve"
     id="flowRoot4503"
     style="font-style:normal;font-weight:normal;font-size:24px;line-height:1.25;font-family:sans-serif;letter-spacing:0px;word-spacing:0px;fill:#000000;fill-opacity:1;stroke:none"
     transform="translate(0,-600.94503)"><flowRegion
       id="flowRegion4505"
       style="font-size:24px"><rect
         id="rect4507"
         width="86.436859"
         height="47.189468"
         x="329.26517"
         y="251.89104"
         style="font-size:24px" /></flowRegion><flowPara
       id="flowPara4509"></flowPara></flowRoot><g
     aria-label="085"
     transform="matrix(0.89036341,0,0,1.1231369,-280.94322,-149.97502)"
     style="font-style:normal;font-weight:normal;font-size:45.86658096px;line-height:1.25;font-family:sans-serif;letter-spacing:0px;word-spacing:0px;fill:#000000;fill-opacity:1;stroke:none;stroke-width:2.86666131"
     id="text4513"><path
       d="m 399.39749,245.36326 q 0,8.98071 -2.82187,13.19112 -2.79948,4.18802 -8.71197,4.18802 -6.00207,0 -8.77915,-4.2552 -2.75468,-4.25521 -2.75468,-13.07915 0,-8.89113 2.79947,-13.12393 2.79948,-4.2552 8.73436,-4.2552 6.00207,0 8.75676,4.32239 2.77708,4.29999 2.77708,13.01195 z m -5.8901,10.16769 q 0.78385,-1.81406 1.0526,-4.2552 0.29115,-2.46354 0.29115,-5.91249 0,-3.40416 -0.29115,-5.91249 -0.26875,-2.50833 -1.07499,-4.2552 -0.78386,-1.72447 -2.15,-2.59791 -1.34375,-0.87344 -3.47135,-0.87344 -2.1052,0 -3.49374,0.87344 -1.36614,0.87344 -2.17239,2.6427 -0.76146,1.65729 -1.0526,4.32239 -0.26875,2.6651 -0.26875,5.8453 0,3.49375 0.24635,5.8453 0.24635,2.35156 1.0526,4.21041 0.73906,1.74688 2.08281,2.6651 1.36614,0.91823 3.60572,0.91823 2.10521,0 3.49375,-0.87344 1.38854,-0.87343 2.14999,-2.6427 z"
       style="fill:#ff0000;fill-opacity:1;stroke-width:2.86666131"
       id="path4515"
       inkscape:connector-curvature="0" /><path
       d="m 428.89274,252.75387 q 0,4.32239 -3.38176,7.18905 -3.35937,2.86666 -8.46561,2.86666 -5.41978,0 -8.64478,-2.79947 -3.20259,-2.79947 -3.20259,-7.16665 0,-2.77708 1.61249,-5.01666 1.6125,-2.26198 4.54635,-3.58333 v -0.13437 q -2.6875,-1.43333 -3.98645,-3.13541 -1.27656,-1.70208 -1.27656,-4.2552 0,-3.7625 3.09062,-6.27083 3.09062,-2.50832 7.86092,-2.50832 4.99426,0 7.9729,2.39635 2.97864,2.39635 2.97864,6.09165 0,2.26198 -1.41093,4.45676 -1.41094,2.1724 -4.14322,3.40416 v 0.13438 q 3.13541,1.34375 4.7927,3.31458 1.65728,1.97083 1.65728,5.01665 z m -5.3078,-16.28174 q 0,-2.39635 -1.85885,-3.80728 -1.83645,-1.43333 -4.70312,-1.43333 -2.82187,0 -4.63592,1.34374 -1.79167,1.34375 -1.79167,3.62812 0,1.6125 0.89583,2.79948 0.91823,1.16458 2.75469,2.08281 0.82864,0.40312 2.37395,1.0526 1.56771,0.64948 3.04583,1.075 2.21718,-1.47813 3.06822,-3.06823 0.85104,-1.5901 0.85104,-3.67291 z m 0.69427,16.70726 q 0,-2.06041 -0.91823,-3.29218 -0.89583,-1.25416 -3.53853,-2.50833 -1.0526,-0.4927 -2.30677,-0.91822 -1.25416,-0.42552 -3.33697,-1.18698 -2.01562,1.09739 -3.24739,2.97864 -1.20937,1.88125 -1.20937,4.2552 0,3.02343 2.0828,4.99426 2.08281,1.97083 5.28541,1.97083 3.26979,0 5.21822,-1.67968 1.97083,-1.67969 1.97083,-4.61354 z"
       style="fill:#ff0000;fill-opacity:1;stroke-width:2.86666131"
       id="path4517"
       inkscape:connector-curvature="0" /><path
       d="m 457.58175,251.45492 q 0,2.32916 -0.85104,4.45676 -0.85104,2.1276 -2.32916,3.58333 -1.6125,1.5677 -3.85208,2.41874 -2.21718,0.82865 -5.15103,0.82865 -2.73228,0 -5.26301,-0.58229 -2.53072,-0.5599 -4.27759,-1.36615 v -4.72551 h 0.31354 q 1.83645,1.16458 4.29999,1.99323 2.46354,0.80624 4.83749,0.80624 1.5901,0 3.06822,-0.44791 1.50052,-0.44792 2.6651,-1.56771 0.98542,-0.96302 1.47812,-2.30676 0.51511,-1.34375 0.51511,-3.11302 0,-1.72447 -0.60469,-2.91145 -0.58229,-1.18698 -1.63489,-1.90364 -1.16458,-0.85104 -2.84427,-1.18698 -1.65729,-0.35833 -3.7177,-0.35833 -1.97083,0 -3.80728,0.26875 -1.81406,0.26875 -3.13541,0.53749 v -17.17757 h 20.06663 v 3.91927 h -15.74425 v 8.86873 q 0.96302,-0.0896 1.97083,-0.13438 1.00781,-0.0448 1.74688,-0.0448 2.70989,0 4.7479,0.47031 2.03802,0.44792 3.7401,1.6125 1.79166,1.23177 2.77708,3.1802 0.98541,1.94844 0.98541,4.88229 z"
       style="fill:#ff0000;fill-opacity:1;stroke-width:2.86666131"
       id="path4519"
       inkscape:connector-curvature="0" /></g><rect
     style="fill:none;fill-opacity:1;stroke:#ff0000;stroke-width:0.64401692;stroke-miterlimit:4;stroke-dasharray:none;stroke-dashoffset:0;stroke-opacity:1"
     id="rect4501-0"
     width="86.595177"
     height="30.347799"
     x="32.759205"
     y="8.2567539" /><ellipse
     style="fill:none;fill-opacity:1;stroke:#ff0000;stroke-width:0.94488192;stroke-miterlimit:4;stroke-dasharray:none;stroke-dashoffset:0;stroke-opacity:1"
     id="path4537"
     cx="45.885212"
     cy="24.284235"
     rx="9"
     ry="9.5" /><ellipse
     style="fill:none;fill-opacity:1;stroke:#ff0000;stroke-width:0.94488192;stroke-miterlimit:4;stroke-dasharray:none;stroke-dashoffset:0;stroke-opacity:1"
     id="path4537-2"
     cx="65.885216"
     cy="24.284235"
     rx="9"
     ry="9.5" /><ellipse
     style="fill:none;fill-opacity:1;stroke:#ff0000;stroke-width:0.94488192;stroke-miterlimit:4;stroke-dasharray:none;stroke-dashoffset:0;stroke-opacity:1"
     id="path4537-4"
     cx="85.885216"
     cy="24.284235"
     rx="9"
     ry="9.5" /><ellipse
     style="fill:none;fill-opacity:1;stroke:#ff0000;stroke-width:0.94488192;stroke-miterlimit:4;stroke-dasharray:none;stroke-dashoffset:0;stroke-opacity:1"
     id="path4537-40"
     cx="105.88522"
     cy="24.284235"
     rx="9"
     ry="9.5" /><rect
     style="fill:none;fill-opacity:1;stroke:#ff0000;stroke-width:0.32321274;stroke-miterlimit:4;stroke-dasharray:none;stroke-dashoffset:0;stroke-opacity:1"
     id="rect4501-0-6"
     width="20.978273"
     height="31.552486"
     x="6.7015581"
     y="95.621376" /><ellipse
     style="fill:none;fill-opacity:1;stroke:#ff0000;stroke-width:0.14962888;stroke-miterlimit:4;stroke-dasharray:none;stroke-dashoffset:0;stroke-opacity:1"
     id="path4537-6"
     cx="13.268665"
     cy="102.43746"
     rx="1.6194519"
     ry="1.3239567" /><ellipse
     style="fill:none;fill-opacity:1;stroke:#ff0000;stroke-width:0.14962888;stroke-miterlimit:4;stroke-dasharray:none;stroke-dashoffset:0;stroke-opacity:1"
     id="path4537-6-0"
     cx="13.268665"
     cy="118.11672"
     rx="1.6194519"
     ry="1.3239567" /><g
     aria-label="Dc12v Heat Cool Temp Thermostat"
     transform="rotate(-90,145.42383,29.333086)"
     style="font-style:normal;font-weight:normal;font-size:10.66666698px;line-height:1.25;font-family:sans-serif;letter-spacing:0px;word-spacing:0px;fill:#000000;fill-opacity:1;stroke:none"
     id="flowRoot4611"><path
       d="m 31.945312,61.540117 q 0,0.792969 -0.347656,1.4375 -0.34375,0.644532 -0.917969,1 -0.398437,0.246094 -0.890625,0.355469 Q 29.300781,64.442461 28.5,64.442461 h -1.46875 v -5.816406 h 1.453125 q 0.851562,0 1.351562,0.125 0.503907,0.121094 0.851563,0.335937 0.59375,0.371094 0.925781,0.988282 0.332031,0.617187 0.332031,1.464843 z m -0.808593,-0.01172 q 0,-0.683594 -0.238282,-1.152344 -0.238281,-0.46875 -0.710937,-0.738281 -0.34375,-0.195313 -0.730469,-0.269532 -0.386719,-0.07813 -0.925781,-0.07813 h -0.726563 v 4.488282 h 0.726563 q 0.558594,0 0.972656,-0.08203 0.417969,-0.08203 0.765625,-0.304687 0.433594,-0.277344 0.648438,-0.730469 0.21875,-0.453125 0.21875,-1.132812 z"
       style="font-size:8px;fill:#ff0000;fill-opacity:1"
       id="path4619" /><path
       d="m 36.371094,64.169024 q -0.367188,0.175781 -0.699219,0.273437 -0.328125,0.09766 -0.699219,0.09766 -0.472656,0 -0.867187,-0.136718 -0.394532,-0.140625 -0.675782,-0.421875 -0.285156,-0.28125 -0.441406,-0.710938 -0.15625,-0.429687 -0.15625,-1.003906 0,-1.070313 0.585938,-1.679688 0.589843,-0.609375 1.554687,-0.609375 0.375,0 0.734375,0.105469 0.363281,0.105469 0.664063,0.257813 v 0.816406 h -0.03906 q -0.335937,-0.261719 -0.695312,-0.402344 -0.355469,-0.140625 -0.695313,-0.140625 -0.625,0 -0.988281,0.421875 -0.359375,0.417969 -0.359375,1.230469 0,0.789062 0.351562,1.214844 0.355469,0.421875 0.996094,0.421875 0.222656,0 0.453125,-0.05859 0.230469,-0.05859 0.414063,-0.152344 0.160156,-0.08203 0.300781,-0.171875 0.140625,-0.09375 0.222656,-0.160156 h 0.03906 z"
       style="font-size:8px;fill:#ff0000;fill-opacity:1"
       id="path4621" /><path
       d="m 40.828125,64.442461 h -3.148438 v -0.59375 h 1.210938 v -3.898437 h -1.210938 v -0.53125 q 0.246094,0 0.527344,-0.03906 0.28125,-0.04297 0.425781,-0.121094 0.179688,-0.09766 0.28125,-0.246093 0.105469,-0.152344 0.121094,-0.40625 h 0.605469 v 5.242187 h 1.1875 z"
       style="font-size:8px;fill:#ff0000;fill-opacity:1"
       id="path4623" /><path
       d="m 46.253906,64.442461 h -3.9375 v -0.816406 q 0.410156,-0.351563 0.820313,-0.703125 0.414062,-0.351563 0.769531,-0.699219 0.75,-0.726562 1.027344,-1.152344 0.277343,-0.429687 0.277343,-0.925781 0,-0.453125 -0.300781,-0.707031 -0.296875,-0.257813 -0.832031,-0.257813 -0.355469,0 -0.769531,0.125 -0.414063,0.125 -0.808594,0.382813 h -0.03906 v -0.820313 q 0.277344,-0.136718 0.738282,-0.25 0.464843,-0.113281 0.898437,-0.113281 0.894531,0 1.402344,0.433594 0.507812,0.429687 0.507812,1.167969 0,0.332031 -0.08594,0.621093 -0.08203,0.285157 -0.246094,0.542969 -0.152344,0.242188 -0.359375,0.476563 -0.203125,0.234375 -0.496094,0.519531 -0.417968,0.410156 -0.863281,0.796875 -0.445312,0.382812 -0.832031,0.710937 h 3.128906 z"
       style="font-size:8px;fill:#ff0000;fill-opacity:1"
       id="path4625" /><path
       d="m 51.277344,60.07918 -1.765625,4.363281 H 48.773437 L 47.019531,60.07918 h 0.796875 l 1.351563,3.472656 1.339843,-3.472656 z"
       style="font-size:8px;fill:#ff0000;fill-opacity:1"
       id="path4627" /><path
       d="m 59.558594,64.442461 h -0.773438 v -2.847656 h -2.902344 v 2.847656 h -0.773437 v -5.816406 h 0.773437 v 2.28125 h 2.902344 v -2.28125 h 0.773438 z"
       style="font-size:8px;fill:#ff0000;fill-opacity:1"
       id="path4629" /><path
       d="m 64.71875,62.336992 h -3.214844 q 0,0.402344 0.121094,0.703125 0.121094,0.296875 0.332031,0.488282 0.203125,0.1875 0.480469,0.28125 0.28125,0.09375 0.617187,0.09375 0.445313,0 0.894532,-0.175782 0.453125,-0.179687 0.644531,-0.351562 h 0.03906 v 0.800781 q -0.371093,0.15625 -0.757812,0.261719 -0.386719,0.105469 -0.8125,0.105469 -1.085938,0 -1.695313,-0.585938 -0.609375,-0.589844 -0.609375,-1.671875 0,-1.070312 0.582032,-1.699219 0.585937,-0.628906 1.539062,-0.628906 0.882813,0 1.359375,0.515625 0.480469,0.515625 0.480469,1.464844 z m -0.714844,-0.5625 Q 64,61.196367 63.710937,60.879961 q -0.285156,-0.316406 -0.871093,-0.316406 -0.589844,0 -0.941407,0.347656 -0.347656,0.347656 -0.394531,0.863281 z"
       style="font-size:8px;fill:#ff0000;fill-opacity:1"
       id="path4631" /><path
       d="m 69.222656,64.442461 h -0.730469 v -0.464844 q -0.09766,0.06641 -0.265625,0.1875 -0.164062,0.117188 -0.320312,0.1875 -0.183594,0.08984 -0.421875,0.148438 -0.238281,0.0625 -0.558594,0.0625 -0.589844,0 -1,-0.390625 -0.410156,-0.390625 -0.410156,-0.996094 0,-0.496094 0.210937,-0.800781 0.214844,-0.308594 0.609375,-0.484375 0.398438,-0.175781 0.957032,-0.238281 0.558593,-0.0625 1.199218,-0.09375 v -0.113282 q 0,-0.25 -0.08984,-0.414062 -0.08594,-0.164063 -0.25,-0.257813 -0.15625,-0.08984 -0.375,-0.121093 -0.21875,-0.03125 -0.457032,-0.03125 -0.289062,0 -0.644531,0.07813 -0.355469,0.07422 -0.734375,0.21875 h -0.03906 V 60.17293 q 0.214843,-0.05859 0.621093,-0.128906 0.40625,-0.07031 0.800782,-0.07031 0.460937,0 0.800781,0.07813 0.34375,0.07422 0.59375,0.257813 0.246094,0.179687 0.375,0.464843 0.128906,0.285157 0.128906,0.707032 z m -0.730469,-1.074219 v -1.214843 q -0.335937,0.01953 -0.792968,0.05859 -0.453125,0.03906 -0.71875,0.113282 -0.316407,0.08984 -0.511719,0.28125 -0.195313,0.1875 -0.195313,0.519531 0,0.375 0.226563,0.566406 0.226562,0.1875 0.691406,0.1875 0.386719,0 0.707031,-0.148437 0.320313,-0.152344 0.59375,-0.363282 z"
       style="font-size:8px;fill:#ff0000;fill-opacity:1"
       id="path4633" /><path
       d="m 72.910156,64.403399 q -0.207031,0.05469 -0.453125,0.08984 -0.242187,0.03516 -0.433594,0.03516 -0.667968,0 -1.015625,-0.359375 -0.347656,-0.359375 -0.347656,-1.152344 V 60.696367 H 70.164062 V 60.07918 h 0.496094 v -1.253906 h 0.734375 v 1.253906 h 1.515625 v 0.617187 h -1.515625 v 1.988282 q 0,0.34375 0.01563,0.539062 0.01563,0.191406 0.109375,0.359375 0.08594,0.15625 0.234375,0.230469 0.152344,0.07031 0.460938,0.07031 0.179687,0 0.375,-0.05078 0.195312,-0.05469 0.28125,-0.08984 h 0.03906 z"
       style="font-size:8px;fill:#ff0000;fill-opacity:1"
       id="path4635" /><path
       d="m 81.164062,64.020586 q -0.214843,0.09375 -0.390625,0.175781 -0.171875,0.08203 -0.453125,0.171875 -0.238281,0.07422 -0.519531,0.125 -0.277344,0.05469 -0.613281,0.05469 -0.632813,0 -1.152344,-0.175781 -0.515625,-0.179688 -0.898437,-0.558594 -0.375,-0.371094 -0.585938,-0.941406 -0.210937,-0.574219 -0.210937,-1.332032 0,-0.71875 0.203125,-1.285156 0.203125,-0.566406 0.585937,-0.957031 0.371094,-0.378906 0.894531,-0.578125 0.527344,-0.199219 1.167969,-0.199219 0.46875,0 0.933594,0.113281 0.46875,0.113282 1.039062,0.398438 v 0.917969 h -0.05859 Q 80.625,59.54793 80.152344,59.364336 q -0.472657,-0.183594 -1.011719,-0.183594 -0.441406,0 -0.796875,0.144532 -0.351563,0.140625 -0.628906,0.441406 -0.269532,0.292969 -0.421875,0.742187 -0.148438,0.445313 -0.148438,1.03125 0,0.613282 0.164063,1.054688 0.167968,0.441406 0.429687,0.71875 0.273438,0.289062 0.636719,0.429687 0.367187,0.136719 0.773437,0.136719 0.558594,0 1.046875,-0.191406 0.488282,-0.191406 0.914063,-0.574219 h 0.05469 z"
       style="font-size:8px;fill:#ff0000;fill-opacity:1"
       id="path4637" /><path
       d="m 85.925781,62.262774 q 0,1.066406 -0.546875,1.683593 -0.546875,0.617188 -1.464844,0.617188 -0.925781,0 -1.472656,-0.617188 -0.542969,-0.617187 -0.542969,-1.683593 0,-1.066407 0.542969,-1.683594 0.546875,-0.621094 1.472656,-0.621094 0.917969,0 1.464844,0.621094 0.546875,0.617187 0.546875,1.683594 z m -0.757812,0 q 0,-0.847657 -0.332032,-1.257813 -0.332031,-0.414062 -0.921875,-0.414062 -0.597656,0 -0.929687,0.414062 -0.328125,0.410156 -0.328125,1.257813 0,0.820312 0.332031,1.246093 0.332031,0.421875 0.925781,0.421875 0.585938,0 0.917969,-0.417968 0.335938,-0.421875 0.335938,-1.25 z"
       style="font-size:8px;fill:#ff0000;fill-opacity:1"
       id="path4639" /><path
       d="m 90.785156,62.262774 q 0,1.066406 -0.546875,1.683593 -0.546875,0.617188 -1.464844,0.617188 -0.925781,0 -1.472656,-0.617188 -0.542969,-0.617187 -0.542969,-1.683593 0,-1.066407 0.542969,-1.683594 0.546875,-0.621094 1.472656,-0.621094 0.917969,0 1.464844,0.621094 0.546875,0.617187 0.546875,1.683594 z m -0.757812,0 q 0,-0.847657 -0.332032,-1.257813 -0.332031,-0.414062 -0.921875,-0.414062 -0.597656,0 -0.929687,0.414062 -0.328125,0.410156 -0.328125,1.257813 0,0.820312 0.332031,1.246093 0.332031,0.421875 0.925781,0.421875 0.585938,0 0.917969,-0.417968 0.335938,-0.421875 0.335938,-1.25 z"
       style="font-size:8px;fill:#ff0000;fill-opacity:1"
       id="path4641" /><path
       d="m 92.667969,64.442461 h -0.734375 v -6.078125 h 0.734375 z"
       style="font-size:8px;fill:#ff0000;fill-opacity:1"
       id="path4643" /><path
       d="m 101.11719,59.313555 h -2.078128 v 5.128906 H 98.265625 V 59.313555 H 96.1875 v -0.6875 h 4.92969 z"
       style="font-size:8px;fill:#ff0000;fill-opacity:1"
       id="path4645" /><path
       d="m 104.64063,62.336992 h -3.21485 q 0,0.402344 0.1211,0.703125 0.12109,0.296875 0.33203,0.488282 0.20312,0.1875 0.48047,0.28125 0.28125,0.09375 0.61718,0.09375 0.44532,0 0.89453,-0.175782 0.45313,-0.179687 0.64454,-0.351562 h 0.0391 v 0.800781 q -0.3711,0.15625 -0.75781,0.261719 -0.38672,0.105469 -0.8125,0.105469 -1.08594,0 -1.69532,-0.585938 -0.60937,-0.589844 -0.60937,-1.671875 0,-1.070312 0.58203,-1.699219 0.58594,-0.628906 1.53906,-0.628906 0.88281,0 1.35938,0.515625 0.48047,0.515625 0.48047,1.464844 z m -0.71485,-0.5625 q -0.004,-0.578125 -0.29297,-0.894531 -0.28515,-0.316406 -0.87109,-0.316406 -0.58984,0 -0.94141,0.347656 -0.34765,0.347656 -0.39453,0.863281 z"
       style="font-size:8px;fill:#ff0000;fill-opacity:1"
       id="path4647" /><path
       d="m 112.12109,64.442461 h -0.73437 v -2.484375 q 0,-0.28125 -0.0273,-0.542969 -0.0234,-0.261718 -0.10547,-0.417968 -0.0898,-0.167969 -0.25782,-0.253907 -0.16796,-0.08594 -0.48437,-0.08594 -0.30859,0 -0.61719,0.15625 -0.30859,0.152344 -0.61719,0.390625 0.0117,0.08984 0.0195,0.210937 0.008,0.117188 0.008,0.234375 v 2.792969 h -0.73438 v -2.484375 q 0,-0.289062 -0.0273,-0.546875 -0.0234,-0.261719 -0.10547,-0.417969 -0.0898,-0.167968 -0.25781,-0.25 -0.16797,-0.08594 -0.48438,-0.08594 -0.30078,0 -0.60547,0.148437 -0.30078,0.148438 -0.60156,0.378907 v 3.257812 h -0.73437 V 60.07918 h 0.73437 v 0.484375 q 0.34375,-0.285156 0.6836,-0.445313 0.34375,-0.160156 0.73046,-0.160156 0.44532,0 0.75391,0.1875 0.3125,0.1875 0.46484,0.519531 0.44532,-0.375 0.8125,-0.539062 0.36719,-0.167969 0.78516,-0.167969 0.71875,0 1.05859,0.4375 0.34375,0.433594 0.34375,1.214844 z"
       style="font-size:8px;fill:#ff0000;fill-opacity:1"
       id="path4649" /><path
       d="m 117.375,62.208086 q 0,0.53125 -0.15234,0.972656 -0.15235,0.4375 -0.42969,0.742188 -0.25781,0.289062 -0.60938,0.449219 -0.34765,0.15625 -0.73828,0.15625 -0.33984,0 -0.61718,-0.07422 -0.27344,-0.07422 -0.5586,-0.230469 v 1.828125 h -0.73437 V 60.07918 h 0.73437 v 0.457031 q 0.29297,-0.246094 0.65625,-0.410156 0.36719,-0.167969 0.78125,-0.167969 0.78906,0 1.22656,0.597656 0.44141,0.59375 0.44141,1.652344 z m -0.75781,0.01953 q 0,-0.789062 -0.26953,-1.179687 -0.26953,-0.390625 -0.82813,-0.390625 -0.3164,0 -0.63672,0.136719 -0.32031,0.136718 -0.61328,0.359375 v 2.472656 q 0.3125,0.140625 0.53516,0.191406 0.22656,0.05078 0.51172,0.05078 0.61328,0 0.95703,-0.414062 0.34375,-0.414063 0.34375,-1.226563 z"
       style="font-size:8px;fill:#ff0000;fill-opacity:1"
       id="path4651" /><path
       d="m 125.53906,59.313555 h -2.07812 v 5.128906 h -0.77344 v -5.128906 h -2.07812 v -0.6875 h 4.92968 z"
       style="font-size:8px;fill:#ff0000;fill-opacity:1"
       id="path4653" /><path
       d="m 129.91797,64.442461 h -0.73438 v -2.484375 q 0,-0.300781 -0.0352,-0.5625 -0.0352,-0.265625 -0.12891,-0.414062 -0.0977,-0.164063 -0.28125,-0.242188 -0.18359,-0.08203 -0.47656,-0.08203 -0.30078,0 -0.62891,0.148437 -0.32812,0.148438 -0.6289,0.378907 v 3.257812 h -0.73438 v -6.078125 h 0.73438 v 2.199219 q 0.34375,-0.285156 0.71093,-0.445313 0.36719,-0.160156 0.75391,-0.160156 0.70703,0 1.07812,0.425781 0.3711,0.425782 0.3711,1.226563 z"
       style="font-size:8px;fill:#ff0000;fill-opacity:1"
       id="path4655" /><path
       d="m 134.98437,62.336992 h -3.21484 q 0,0.402344 0.12109,0.703125 0.1211,0.296875 0.33204,0.488282 0.20312,0.1875 0.48046,0.28125 0.28125,0.09375 0.61719,0.09375 0.44531,0 0.89453,-0.175782 0.45313,-0.179687 0.64453,-0.351562 h 0.0391 v 0.800781 q -0.3711,0.15625 -0.75782,0.261719 -0.38671,0.105469 -0.8125,0.105469 -1.08593,0 -1.69531,-0.585938 -0.60937,-0.589844 -0.60937,-1.671875 0,-1.070312 0.58203,-1.699219 0.58594,-0.628906 1.53906,-0.628906 0.88281,0 1.35938,0.515625 0.48046,0.515625 0.48046,1.464844 z m -0.71484,-0.5625 q -0.004,-0.578125 -0.29297,-0.894531 -0.28515,-0.316406 -0.87109,-0.316406 -0.58985,0 -0.94141,0.347656 -0.34765,0.347656 -0.39453,0.863281 z"
       style="font-size:8px;fill:#ff0000;fill-opacity:1"
       id="path4657" /><path
       d="m 138.82031,60.879961 h -0.0391 q -0.16406,-0.03906 -0.32031,-0.05469 -0.15235,-0.01953 -0.36328,-0.01953 -0.33985,0 -0.65625,0.152344 -0.31641,0.148438 -0.60938,0.386719 v 3.097656 h -0.73437 V 60.07918 h 0.73437 v 0.644531 q 0.4375,-0.351562 0.76953,-0.496094 0.33594,-0.148437 0.6836,-0.148437 0.1914,0 0.27734,0.01172 0.0859,0.0078 0.25781,0.03516 z"
       style="font-size:8px;fill:#ff0000;fill-opacity:1"
       id="path4659" /><path
       d="m 145.88672,64.442461 h -0.73438 v -2.484375 q 0,-0.28125 -0.0273,-0.542969 -0.0234,-0.261718 -0.10547,-0.417968 -0.0898,-0.167969 -0.25781,-0.253907 -0.16797,-0.08594 -0.48438,-0.08594 -0.30859,0 -0.61718,0.15625 -0.3086,0.152344 -0.61719,0.390625 0.0117,0.08984 0.0195,0.210937 0.008,0.117188 0.008,0.234375 v 2.792969 h -0.73437 v -2.484375 q 0,-0.289062 -0.0273,-0.546875 -0.0234,-0.261719 -0.10547,-0.417969 -0.0898,-0.167968 -0.25781,-0.25 -0.16797,-0.08594 -0.48437,-0.08594 -0.30078,0 -0.60547,0.148437 -0.30078,0.148438 -0.60156,0.378907 v 3.257812 h -0.73438 V 60.07918 h 0.73438 v 0.484375 q 0.34375,-0.285156 0.68359,-0.445313 0.34375,-0.160156 0.73047,-0.160156 0.44531,0 0.7539,0.1875 0.3125,0.1875 0.46485,0.519531 0.44531,-0.375 0.8125,-0.539062 0.36719,-0.167969 0.78515,-0.167969 0.71875,0 1.0586,0.4375 0.34375,0.433594 0.34375,1.214844 z"
       style="font-size:8px;fill:#ff0000;fill-opacity:1"
       id="path4661" /><path
       d="m 151.01953,62.262774 q 0,1.066406 -0.54687,1.683593 -0.54688,0.617188 -1.46485,0.617188 -0.92578,0 -1.47265,-0.617188 -0.54297,-0.617187 -0.54297,-1.683593 0,-1.066407 0.54297,-1.683594 0.54687,-0.621094 1.47265,-0.621094 0.91797,0 1.46485,0.621094 0.54687,0.617187 0.54687,1.683594 z m -0.75781,0 q 0,-0.847657 -0.33203,-1.257813 -0.33203,-0.414062 -0.92188,-0.414062 -0.59765,0 -0.92969,0.414062 -0.32812,0.410156 -0.32812,1.257813 0,0.820312 0.33203,1.246093 0.33203,0.421875 0.92578,0.421875 0.58594,0 0.91797,-0.417968 0.33594,-0.421875 0.33594,-1.25 z"
       style="font-size:8px;fill:#ff0000;fill-opacity:1"
       id="path4663" /><path
       d="m 155.27734,63.184649 q 0,0.597656 -0.49609,0.980468 -0.49219,0.382813 -1.34766,0.382813 -0.48437,0 -0.89062,-0.113281 -0.40235,-0.117188 -0.67578,-0.253907 v -0.824218 h 0.0391 q 0.34766,0.261718 0.77344,0.417968 0.42578,0.152344 0.8164,0.152344 0.48438,0 0.75782,-0.15625 0.27343,-0.15625 0.27343,-0.492187 0,-0.257813 -0.14843,-0.390625 -0.14844,-0.132813 -0.57032,-0.226563 -0.15625,-0.03516 -0.41015,-0.08203 -0.25,-0.04687 -0.45703,-0.101563 -0.57422,-0.152343 -0.81641,-0.445312 -0.23828,-0.296875 -0.23828,-0.726563 0,-0.269531 0.10937,-0.507812 0.11328,-0.238281 0.33985,-0.425781 0.21875,-0.183594 0.55468,-0.289063 0.33985,-0.109375 0.75782,-0.109375 0.39062,0 0.78906,0.09766 0.40234,0.09375 0.66797,0.230469 v 0.785156 h -0.0391 q -0.28125,-0.207031 -0.6836,-0.347656 -0.40234,-0.144531 -0.78906,-0.144531 -0.40234,0 -0.67969,0.15625 -0.27734,0.152344 -0.27734,0.457031 0,0.269531 0.16797,0.40625 0.16406,0.136719 0.53125,0.222656 0.20312,0.04687 0.45312,0.09375 0.25391,0.04687 0.42188,0.08594 0.51172,0.117187 0.78906,0.402344 0.27734,0.289062 0.27734,0.765625 z"
       style="font-size:8px;fill:#ff0000;fill-opacity:1"
       id="path4665" /><path
       d="m 158.59766,64.403399 q -0.20704,0.05469 -0.45313,0.08984 -0.24219,0.03516 -0.43359,0.03516 -0.66797,0 -1.01563,-0.359375 -0.34765,-0.359375 -0.34765,-1.152344 v -2.320313 h -0.4961 V 60.07918 h 0.4961 v -1.253906 h 0.73437 v 1.253906 h 1.51563 v 0.617187 h -1.51563 v 1.988282 q 0,0.34375 0.0156,0.539062 0.0156,0.191406 0.10937,0.359375 0.0859,0.15625 0.23438,0.230469 0.15234,0.07031 0.46093,0.07031 0.17969,0 0.375,-0.05078 0.19532,-0.05469 0.28125,-0.08984 h 0.0391 z"
       style="font-size:8px;fill:#ff0000;fill-opacity:1"
       id="path4667" /><path
       d="m 162.87891,64.442461 h -0.73047 v -0.464844 q -0.0977,0.06641 -0.26563,0.1875 -0.16406,0.117188 -0.32031,0.1875 -0.18359,0.08984 -0.42188,0.148438 -0.23828,0.0625 -0.55859,0.0625 -0.58984,0 -1,-0.390625 -0.41016,-0.390625 -0.41016,-0.996094 0,-0.496094 0.21094,-0.800781 0.21485,-0.308594 0.60938,-0.484375 0.39843,-0.175781 0.95703,-0.238281 0.55859,-0.0625 1.19922,-0.09375 v -0.113282 q 0,-0.25 -0.0898,-0.414062 -0.0859,-0.164063 -0.25,-0.257813 -0.15625,-0.08984 -0.375,-0.121093 -0.21875,-0.03125 -0.45703,-0.03125 -0.28906,0 -0.64453,0.07813 -0.35547,0.07422 -0.73437,0.21875 h -0.0391 V 60.17293 q 0.21485,-0.05859 0.6211,-0.128906 0.40625,-0.07031 0.80078,-0.07031 0.46094,0 0.80078,0.07813 0.34375,0.07422 0.59375,0.257813 0.24609,0.179687 0.375,0.464843 0.12891,0.285157 0.12891,0.707032 z m -0.73047,-1.074219 v -1.214843 q -0.33594,0.01953 -0.79297,0.05859 -0.45313,0.03906 -0.71875,0.113282 -0.31641,0.08984 -0.51172,0.28125 -0.19531,0.1875 -0.19531,0.519531 0,0.375 0.22656,0.566406 0.22656,0.1875 0.69141,0.1875 0.38671,0 0.70703,-0.148437 0.32031,-0.152344 0.59375,-0.363282 z"
       style="font-size:8px;fill:#ff0000;fill-opacity:1"
       id="path4669" /><path
       d="m 166.56641,64.403399 q -0.20704,0.05469 -0.45313,0.08984 -0.24219,0.03516 -0.43359,0.03516 -0.66797,0 -1.01563,-0.359375 -0.34765,-0.359375 -0.34765,-1.152344 v -2.320313 h -0.4961 V 60.07918 h 0.4961 v -1.253906 h 0.73437 v 1.253906 h 1.51563 v 0.617187 h -1.51563 v 1.988282 q 0,0.34375 0.0156,0.539062 0.0156,0.191406 0.10937,0.359375 0.0859,0.15625 0.23438,0.230469 0.15234,0.07031 0.46093,0.07031 0.17969,0 0.375,-0.05078 0.19532,-0.05469 0.28125,-0.08984 h 0.0391 z"
       style="font-size:8px;fill:#ff0000;fill-opacity:1"
       id="path4671" /></g></svg>