<?xml version="1.0" encoding="UTF-8" standalone="no"?>
<svg
   xmlns:dc="http://purl.org/dc/elements/1.1/"
   xmlns:cc="http://creativecommons.org/ns#"
   xmlns:rdf="http://www.w3.org/1999/02/22-rdf-syntax-ns#"
   xmlns:svg="http://www.w3.org/2000/svg"
   xmlns="http://www.w3.org/2000/svg"
   xmlns:sodipodi="http://sodipodi.sourceforge.net/DTD/sodipodi-0.dtd"
   xmlns:inkscape="http://www.inkscape.org/namespaces/inkscape"
   version="1.1"
   width="185mm"
   height="121mm"
   viewBox="0 0 246mm 246mm"
   xml:space="preserve"
   id="svg136"
   sodipodi:docname="falcon-f48_v2.svg"
   inkscape:version="0.92.3 (2405546, 2018-03-11)"><metadata
     id="metadata140"><rdf:RDF><cc:Work
         rdf:about=""><dc:format>image/svg+xml</dc:format><dc:type
           rdf:resource="http://purl.org/dc/dcmitype/StillImage" /><dc:title></dc:title></cc:Work></rdf:RDF></metadata><sodipodi:namedview
     pagecolor="#ffffff"
     bordercolor="#666666"
     borderopacity="1"
     objecttolerance="10"
     gridtolerance="10"
     guidetolerance="10"
     inkscape:pageopacity="0"
     inkscape:pageshadow="2"
     inkscape:window-width="1920"
     inkscape:window-height="1017"
     id="namedview138"
     showgrid="false"
     inkscape:zoom="0.86063527"
     inkscape:cx="288.55611"
     inkscape:cy="257.16112"
     inkscape:window-x="-8"
     inkscape:window-y="-8"
     inkscape:window-maximized="1"
     inkscape:current-layer="svg136" /><desc
     id="desc2">Created with Fabric.js 2.0.0-beta7</desc><defs
     id="defs4" /><g
     transform="translate(349.82985,230.22712)"
     id="g134"><rect
       x="-345.56"
       y="-225.675"
       rx="0"
       ry="0"
       width="691.12"
       height="451.35001"
       style="opacity:1;fill:#000000;fill-opacity:0;fill-rule:nonzero;stroke:#ff0000;stroke-width:1;stroke-linecap:butt;stroke-linejoin:miter;stroke-miterlimit:10;stroke-dasharray:none"
       id="rect124" /><circle
       cx="0"
       cy="0"
       r="6.7086616"
       style="opacity:1;fill:#000000;fill-opacity:0;fill-rule:nonzero;stroke:#000000;stroke-width:1;stroke-linecap:butt;stroke-linejoin:miter;stroke-miterlimit:10;stroke-dasharray:none"
       transform="translate(-240.57,-211.05)"
       id="circle126" /><circle
       cx="0"
       cy="0"
       r="6.7086616"
       style="opacity:1;fill:#000000;fill-opacity:0;fill-rule:nonzero;stroke:#000000;stroke-width:1;stroke-linecap:butt;stroke-linejoin:miter;stroke-miterlimit:10;stroke-dasharray:none"
       transform="translate(-288.49,172.42)"
       id="circle128" /><circle
       cx="0"
       cy="0"
       r="6.7086616"
       style="opacity:1;fill:#000000;fill-opacity:0;fill-rule:nonzero;stroke:#000000;stroke-width:1;stroke-linecap:butt;stroke-linejoin:miter;stroke-miterlimit:10;stroke-dasharray:none"
       transform="translate(238.68,-211.05)"
       id="circle130" /><circle
       cx="0"
       cy="0"
       r="6.7086616"
       style="opacity:1;fill:#000000;fill-opacity:0;fill-rule:nonzero;stroke:#000000;stroke-width:1;stroke-linecap:butt;stroke-linejoin:miter;stroke-miterlimit:10;stroke-dasharray:none"
       transform="translate(278.51,172.42)"
       id="circle132" /></g><rect
     style="fill:none;fill-opacity:1;stroke:#ff0000;stroke-width:0.72782093;stroke-miterlimit:4;stroke-dasharray:none;stroke-dashoffset:0;stroke-opacity:1"
     id="rect12029"
     width="22.36533"
     height="16.652346"
     x="453.79355"
     y="15.436356" /><rect
     style="fill:none;fill-opacity:1;stroke:#ff0000;stroke-width:0.72782093;stroke-miterlimit:4;stroke-dasharray:none;stroke-dashoffset:0;stroke-opacity:1"
     id="rect12029-7"
     width="22.36533"
     height="16.652346"
     x="481.77924"
     y="15.436356" /><rect
     style="fill:none;fill-opacity:1;stroke:#ff0000;stroke-width:0.72782093;stroke-miterlimit:4;stroke-dasharray:none;stroke-dashoffset:0;stroke-opacity:1"
     id="rect12029-5"
     width="22.36533"
     height="16.652346"
     x="537.75055"
     y="15.436356" /><rect
     style="fill:none;fill-opacity:1;stroke:#ff0000;stroke-width:0.72782093;stroke-miterlimit:4;stroke-dasharray:none;stroke-dashoffset:0;stroke-opacity:1"
     id="rect12029-6"
     width="22.36533"
     height="16.652346"
     x="509.76471"
     y="15.436356" /><g
     id="g12094"
     transform="matrix(3.7795276,0,0,3.3947026,3.055061,-624.55358)"><rect
       transform="rotate(-90)"
       y="72.741501"
       x="-203.76476"
       height="6.8088884"
       width="14.128291"
       id="rect12029-5-3-5"
       style="fill:none;fill-opacity:1;stroke:#ff0000;stroke-width:0.36989811;stroke-miterlimit:4;stroke-dasharray:none;stroke-dashoffset:0;stroke-opacity:1" /><path
       inkscape:connector-curvature="0"
       id="path12090"
       d="m 77.369809,191.43143 c -0.03309,10.51366 -0.03309,10.51366 -0.03309,10.51366"
       style="fill:#ff0000;fill-opacity:1;stroke:#ff0000;stroke-width:1.20000005;stroke-linecap:butt;stroke-linejoin:miter;stroke-miterlimit:4;stroke-dasharray:none;stroke-opacity:1" /></g><g
     aria-label="Falcon F48 Differential Controller v1.0"
     style="font-style:normal;font-weight:normal;font-size:16px;line-height:1.25;font-family:sans-serif;letter-spacing:0px;word-spacing:0px;fill:#000000;fill-opacity:1;stroke:none"
     id="flowRoot10214"
     transform="translate(108.05971,45.315363)"><path
       d="m 77.883463,106.8342 h -6.863281 v 3.82813 h 5.897135 v 1.60416 h -5.897135 v 6.53516 h -1.804687 v -13.57161 h 8.667968 z"
       style="font-size:18.66666603px;fill:#ff0000;fill-opacity:1"
       id="path10222"
       inkscape:connector-curvature="0" /><path
       d="m 86.797525,118.80165 h -1.704427 v -1.08464 q -0.227865,0.15495 -0.619792,0.4375 -0.382812,0.27344 -0.747395,0.4375 -0.428386,0.20964 -0.984375,0.34636 -0.55599,0.14583 -1.303386,0.14583 -1.376302,0 -2.333333,-0.91146 -0.957031,-0.91145 -0.957031,-2.32422 0,-1.15755 0.492187,-1.86848 0.501302,-0.72006 1.421875,-1.13021 0.929688,-0.41016 2.233073,-0.55599 1.303385,-0.14584 2.798177,-0.21875 v -0.26433 q 0,-0.58333 -0.209635,-0.96614 -0.200521,-0.38281 -0.583334,-0.60156 -0.364583,-0.20964 -0.875,-0.28256 -0.510416,-0.0729 -1.066406,-0.0729 -0.674479,0 -1.503906,0.18229 -0.829427,0.17318 -1.713542,0.51042 h -0.09114 v -1.74089 q 0.501302,-0.13672 1.449218,-0.30078 0.947917,-0.16406 1.86849,-0.16406 1.075521,0 1.868489,0.18229 0.802084,0.17318 1.385417,0.60156 0.574219,0.41927 0.875,1.08464 0.300781,0.66536 0.300781,1.64974 z m -1.704427,-2.50651 v -2.83464 q -0.783854,0.0456 -1.85026,0.13672 -1.057292,0.0912 -1.677084,0.26433 -0.738281,0.20963 -1.19401,0.65625 -0.455729,0.4375 -0.455729,1.21224 0,0.875 0.528646,1.32161 0.528646,0.4375 1.613281,0.4375 0.902344,0 1.649739,-0.34635 0.747396,-0.35547 1.385417,-0.84766 z"
       style="font-size:18.66666603px;fill:#ff0000;fill-opacity:1"
       id="path10224"
       inkscape:connector-curvature="0" /><path
       d="m 91.847004,118.80165 h -1.713542 v -14.18229 h 1.713542 z"
       style="font-size:18.66666603px;fill:#ff0000;fill-opacity:1"
       id="path10226"
       inkscape:connector-curvature="0" /><path
       d="m 102.71159,118.16363 q -0.85678,0.41016 -1.63151,0.63802 -0.76563,0.22786 -1.631515,0.22786 -1.102865,0 -2.023437,-0.31901 -0.920573,-0.32812 -1.576823,-0.98437 -0.665365,-0.65625 -1.029948,-1.65886 -0.364584,-1.0026 -0.364584,-2.34244 0,-2.4974 1.367188,-3.91927 1.376302,-1.42188 3.627604,-1.42188 0.874995,0 1.713545,0.2461 0.84765,0.24609 1.54948,0.60156 v 1.90495 h -0.0911 q -0.78385,-0.61068 -1.6224,-0.93881 -0.82942,-0.32812 -1.622392,-0.32812 -1.458333,0 -2.305989,0.98437 -0.838542,0.97526 -0.838542,2.8711 0,1.84114 0.820313,2.83463 0.829427,0.98438 2.324218,0.98438 0.519532,0 1.057292,-0.13672 0.53776,-0.13672 0.96615,-0.35547 0.37369,-0.19141 0.70182,-0.40104 0.32812,-0.21875 0.51953,-0.3737 h 0.0911 z"
       style="font-size:18.66666603px;fill:#ff0000;fill-opacity:1"
       id="path10228"
       inkscape:connector-curvature="0" /><path
       d="m 113.5944,113.71571 q 0,2.48828 -1.27604,3.92839 -1.27605,1.4401 -3.41797,1.4401 -2.16016,0 -3.4362,-1.4401 -1.26693,-1.44011 -1.26693,-3.92839 0,-2.48828 1.26693,-3.92838 1.27604,-1.44922 3.4362,-1.44922 2.14192,0 3.41797,1.44922 1.27604,1.4401 1.27604,3.92838 z m -1.76823,0 q 0,-1.97786 -0.77474,-2.93489 -0.77474,-0.96615 -2.15104,-0.96615 -1.39453,0 -2.16927,0.96615 -0.76563,0.95703 -0.76563,2.93489 0,1.91406 0.77474,2.90755 0.77474,0.98438 2.16016,0.98438 1.36719,0 2.14192,-0.97526 0.78386,-0.98438 0.78386,-2.91667 z"
       style="font-size:18.66666603px;fill:#ff0000;fill-opacity:1"
       id="path10230"
       inkscape:connector-curvature="0" /><path
       d="m 124.76888,118.80165 h -1.71354 v -5.79688 q 0,-0.70182 -0.082,-1.3125 -0.082,-0.61979 -0.30079,-0.96614 -0.22786,-0.38281 -0.65625,-0.5651 -0.42838,-0.19141 -1.11197,-0.19141 -0.70183,0 -1.46745,0.34635 -0.76563,0.34636 -1.46745,0.88412 v 7.60156 h -1.71354 v -10.18099 h 1.71354 v 1.13021 q 0.80208,-0.66537 1.65885,-1.03906 0.85677,-0.3737 1.75912,-0.3737 1.64974,0 2.51562,0.99349 0.86589,0.99349 0.86589,2.86198 z"
       style="font-size:18.66666603px;fill:#ff0000;fill-opacity:1"
       id="path10232"
       inkscape:connector-curvature="0" /><path
       d="m 143.43554,106.8342 h -6.86328 v 3.82813 h 5.89714 v 1.60416 h -5.89714 v 6.53516 h -1.80469 v -13.57161 h 8.66797 z"
       style="font-size:18.66666603px;fill:#ff0000;fill-opacity:1"
       id="path10234"
       inkscape:connector-curvature="0" /><path
       d="m 154.62825,114.98264 h -2.01432 v 3.81901 h -1.75 v -3.81901 h -6.4987 v -2.09635 l 6.57161,-7.65625 h 1.67709 v 8.29427 h 2.01432 z m -3.76432,-1.45833 v -6.125 l -5.25912,6.125 z"
       style="font-size:18.66666603px;fill:#ff0000;fill-opacity:1"
       id="path10236"
       inkscape:connector-curvature="0" /><path
       d="m 166.30404,115.0191 q 0,1.75911 -1.37631,2.92578 -1.36718,1.16667 -3.44531,1.16667 -2.20573,0 -3.51823,-1.13933 -1.30338,-1.13932 -1.30338,-2.91666 0,-1.13021 0.65625,-2.04167 0.65625,-0.92057 1.85026,-1.45833 v -0.0547 q -1.09375,-0.58333 -1.6224,-1.27604 -0.51953,-0.69271 -0.51953,-1.73177 0,-1.53125 1.25781,-2.55209 1.25782,-1.02083 3.19922,-1.02083 2.03255,0 3.24479,0.97526 1.21224,0.97526 1.21224,2.47917 0,0.92057 -0.57422,1.8138 -0.57421,0.88411 -1.68619,1.38542 v 0.0547 q 1.27604,0.54688 1.95052,1.34896 0.67448,0.80208 0.67448,2.04167 z m -2.16016,-6.6263 q 0,-0.97526 -0.75651,-1.54948 -0.7474,-0.58334 -1.91406,-0.58334 -1.14844,0 -1.88672,0.54688 -0.72917,0.54687 -0.72917,1.47656 0,0.65625 0.36459,1.13932 0.37369,0.47396 1.12109,0.84766 0.33724,0.16406 0.96614,0.42839 0.63803,0.26432 1.23959,0.4375 0.90234,-0.60157 1.2487,-1.2487 0.34635,-0.64714 0.34635,-1.49479 z m 0.28255,6.79947 q 0,-0.83854 -0.3737,-1.33984 -0.36458,-0.51042 -1.4401,-1.02083 -0.42839,-0.20052 -0.9388,-0.3737 -0.51042,-0.17318 -1.35807,-0.48307 -0.82032,0.44661 -1.32162,1.21224 -0.49219,0.76562 -0.49219,1.73177 0,1.23047 0.84766,2.03255 0.84766,0.80208 2.15104,0.80208 1.33073,0 2.1237,-0.68359 0.80208,-0.68359 0.80208,-1.87761 z"
       style="font-size:18.66666603px;fill:#ff0000;fill-opacity:1"
       id="path10238"
       inkscape:connector-curvature="0" /><path
       d="m 187.2858,112.02951 q 0,1.85026 -0.81119,3.35417 -0.80209,1.50391 -2.14193,2.33333 -0.92969,0.57422 -2.07813,0.82943 -1.13932,0.25521 -3.00781,0.25521 h -3.42708 v -13.57161 h 3.39062 q 1.98698,0 3.15365,0.29166 1.17578,0.28255 1.98698,0.78386 1.38542,0.86588 2.16015,2.30599 0.77474,1.4401 0.77474,3.41796 z m -1.88671,-0.0273 q 0,-1.59505 -0.55599,-2.6888 -0.55599,-1.09375 -1.65886,-1.72266 -0.80208,-0.45573 -1.70443,-0.6289 -0.90234,-0.1823 -2.16015,-0.1823 h -1.69531 v 10.47266 h 1.69531 q 1.30338,0 2.26953,-0.19141 0.97526,-0.1914 1.78646,-0.71093 1.01172,-0.64714 1.51302,-1.70443 0.51042,-1.05729 0.51042,-2.64323 z"
       style="font-size:18.66666603px;fill:#ff0000;fill-opacity:1"
       id="path10240"
       inkscape:connector-curvature="0" /><path
       d="m 191.92513,106.91623 h -1.9323 v -1.77734 h 1.9323 z m -0.10938,11.88542 h -1.71354 v -10.18099 h 1.71354 z"
       style="font-size:18.66666603px;fill:#ff0000;fill-opacity:1"
       id="path10242"
       inkscape:connector-curvature="0" /><path
       d="m 200.62955,106.27821 h -0.0911 q -0.28255,-0.082 -0.73828,-0.16406 -0.45573,-0.0911 -0.80209,-0.0911 -1.10286,0 -1.60416,0.49219 -0.49219,0.48307 -0.49219,1.75912 v 0.34635 h 3.08984 v 1.4401 h -3.03515 v 8.74089 h -1.71354 v -8.74089 h -1.15756 v -1.4401 h 1.15756 v -0.33724 q 0,-1.8138 0.90234,-2.77995 0.90234,-0.97526 2.60677,-0.97526 0.57422,0 1.02995,0.0547 0.46484,0.0547 0.84765,0.1276 z"
       style="font-size:18.66666603px;fill:#ff0000;fill-opacity:1"
       id="path10244"
       inkscape:connector-curvature="0" /><path
       d="m 207.19205,106.27821 h -0.0911 q -0.28255,-0.082 -0.73828,-0.16406 -0.45573,-0.0911 -0.80208,-0.0911 -1.10287,0 -1.60417,0.49219 -0.49219,0.48307 -0.49219,1.75912 v 0.34635 h 3.08985 v 1.4401 h -3.03516 v 8.74089 h -1.71354 v -8.74089 h -1.15755 v -1.4401 h 1.15755 v -0.33724 q 0,-1.8138 0.90234,-2.77995 0.90235,-0.97526 2.60677,-0.97526 0.57422,0 1.02995,0.0547 0.46484,0.0547 0.84766,0.1276 z"
       style="font-size:18.66666603px;fill:#ff0000;fill-opacity:1"
       id="path10246"
       inkscape:connector-curvature="0" /><path
       d="m 216.79882,113.88889 h -7.5013 q 0,0.9388 0.28255,1.64062 0.28255,0.69271 0.77474,1.13933 0.47396,0.4375 1.12109,0.65625 0.65625,0.21875 1.44011,0.21875 1.03906,0 2.08723,-0.41016 1.0573,-0.41927 1.50391,-0.82031 h 0.0911 v 1.86849 q -0.86589,0.36458 -1.76823,0.61068 -0.90235,0.24609 -1.89584,0.24609 -2.53385,0 -3.95572,-1.36719 -1.42188,-1.3763 -1.42188,-3.90104 0,-2.4974 1.35807,-3.96484 1.36719,-1.46745 3.59115,-1.46745 2.05989,0 3.17187,1.20312 1.1211,1.20313 1.1211,3.41797 z m -1.66797,-1.3125 q -0.009,-1.34896 -0.68359,-2.08724 -0.66537,-0.73828 -2.03256,-0.73828 -1.3763,0 -2.19661,0.8112 -0.8112,0.81119 -0.92057,2.01432 z"
       style="font-size:18.66666603px;fill:#ff0000;fill-opacity:1"
       id="path10248"
       inkscape:connector-curvature="0" /><path
       d="m 225.74934,110.48915 h -0.0911 q -0.38281,-0.0911 -0.7474,-0.1276 -0.35547,-0.0456 -0.84765,-0.0456 -0.79297,0 -1.53125,0.35547 -0.73829,0.34636 -1.42188,0.90235 v 7.22786 h -1.71354 v -10.18099 h 1.71354 v 1.50391 q 1.02083,-0.82032 1.79557,-1.15756 0.78386,-0.34635 1.59506,-0.34635 0.44661,0 0.64713,0.0273 0.20052,0.0182 0.60156,0.082 z"
       style="font-size:18.66666603px;fill:#ff0000;fill-opacity:1"
       id="path10250"
       inkscape:connector-curvature="0" /><path
       d="m 235.90299,113.88889 h -7.5013 q 0,0.9388 0.28255,1.64062 0.28255,0.69271 0.77474,1.13933 0.47396,0.4375 1.12109,0.65625 0.65625,0.21875 1.44011,0.21875 1.03906,0 2.08724,-0.41016 1.05729,-0.41927 1.5039,-0.82031 h 0.0911 v 1.86849 q -0.86589,0.36458 -1.76823,0.61068 -0.90234,0.24609 -1.89583,0.24609 -2.53386,0 -3.95573,-1.36719 -1.42188,-1.3763 -1.42188,-3.90104 0,-2.4974 1.35808,-3.96484 1.36718,-1.46745 3.59114,-1.46745 2.0599,0 3.17188,1.20312 1.12109,1.20313 1.12109,3.41797 z m -1.66797,-1.3125 q -0.009,-1.34896 -0.68359,-2.08724 -0.66537,-0.73828 -2.03256,-0.73828 -1.3763,0 -2.19661,0.8112 -0.8112,0.81119 -0.92057,2.01432 z"
       style="font-size:18.66666603px;fill:#ff0000;fill-opacity:1"
       id="path10252"
       inkscape:connector-curvature="0" /><path
       d="m 247.01367,118.80165 h -1.71354 v -5.79688 q 0,-0.70182 -0.082,-1.3125 -0.082,-0.61979 -0.30078,-0.96614 -0.22787,-0.38281 -0.65625,-0.5651 -0.42839,-0.19141 -1.11198,-0.19141 -0.70182,0 -1.46745,0.34635 -0.76562,0.34636 -1.46745,0.88412 v 7.60156 h -1.71354 v -10.18099 h 1.71354 v 1.13021 q 0.80209,-0.66537 1.65886,-1.03906 0.85677,-0.3737 1.75911,-0.3737 1.64974,0 2.51563,0.99349 0.86588,0.99349 0.86588,2.86198 z"
       style="font-size:18.66666603px;fill:#ff0000;fill-opacity:1"
       id="path10254"
       inkscape:connector-curvature="0" /><path
       d="m 255.59961,118.7105 q -0.48307,0.12761 -1.05729,0.20964 -0.56511,0.082 -1.01172,0.082 -1.55859,0 -2.36979,-0.83854 -0.8112,-0.83854 -0.8112,-2.6888 v -5.41407 h -1.15755 v -1.4401 h 1.15755 v -2.92578 h 1.71354 v 2.92578 h 3.53646 v 1.4401 h -3.53646 v 4.63933 q 0,0.80208 0.0365,1.25781 0.0365,0.44661 0.25521,0.83854 0.20052,0.36458 0.54687,0.53776 0.35547,0.16406 1.07552,0.16406 0.41927,0 0.875,-0.11849 0.45573,-0.1276 0.65625,-0.20963 h 0.0911 z"
       style="font-size:18.66666603px;fill:#ff0000;fill-opacity:1"
       id="path10256"
       inkscape:connector-curvature="0" /><path
       d="m 259.51888,106.91623 h -1.9323 v -1.77734 h 1.9323 z m -0.10938,11.88542 h -1.71354 v -10.18099 h 1.71354 z"
       style="font-size:18.66666603px;fill:#ff0000;fill-opacity:1"
       id="path10258"
       inkscape:connector-curvature="0" /><path
       d="m 270.65689,118.80165 h -1.70443 v -1.08464 q -0.22786,0.15495 -0.61979,0.4375 -0.38281,0.27344 -0.74739,0.4375 -0.42839,0.20964 -0.98438,0.34636 -0.55599,0.14583 -1.30338,0.14583 -1.37631,0 -2.33334,-0.91146 -0.95703,-0.91145 -0.95703,-2.32422 0,-1.15755 0.49219,-1.86848 0.5013,-0.72006 1.42187,-1.13021 0.92969,-0.41016 2.23308,-0.55599 1.30338,-0.14584 2.79817,-0.21875 v -0.26433 q 0,-0.58333 -0.20963,-0.96614 -0.20052,-0.38281 -0.58334,-0.60156 -0.36458,-0.20964 -0.875,-0.28256 -0.51041,-0.0729 -1.0664,-0.0729 -0.67448,0 -1.50391,0.18229 -0.82942,0.17318 -1.71354,0.51042 h -0.0911 v -1.74089 q 0.50131,-0.13672 1.44922,-0.30078 0.94792,-0.16406 1.86849,-0.16406 1.07552,0 1.86849,0.18229 0.80209,0.17318 1.38542,0.60156 0.57422,0.41927 0.875,1.08464 0.30078,0.66536 0.30078,1.64974 z m -1.70443,-2.50651 v -2.83464 q -0.78385,0.0456 -1.85026,0.13672 -1.05729,0.0912 -1.67708,0.26433 -0.73828,0.20963 -1.19401,0.65625 -0.45573,0.4375 -0.45573,1.21224 0,0.875 0.52865,1.32161 0.52864,0.4375 1.61328,0.4375 0.90234,0 1.64974,-0.34635 0.74739,-0.35547 1.38541,-0.84766 z"
       style="font-size:18.66666603px;fill:#ff0000;fill-opacity:1"
       id="path10260"
       inkscape:connector-curvature="0" /><path
       d="m 275.70638,118.80165 h -1.71355 v -14.18229 h 1.71355 z"
       style="font-size:18.66666603px;fill:#ff0000;fill-opacity:1"
       id="path10262"
       inkscape:connector-curvature="0" /><path
       d="m 296.2233,117.81727 q -0.50131,0.21875 -0.91146,0.41016 -0.40104,0.19141 -1.05729,0.40104 -0.55599,0.17318 -1.21224,0.29167 -0.64714,0.1276 -1.43099,0.1276 -1.47656,0 -2.6888,-0.41015 -1.20313,-0.41927 -2.09636,-1.30339 -0.875,-0.86588 -1.36719,-2.19661 -0.49218,-1.33985 -0.49218,-3.10808 0,-1.67708 0.47395,-2.99869 0.47396,-1.32162 1.36719,-2.23308 0.86589,-0.88411 2.08724,-1.34895 1.23047,-0.46485 2.72526,-0.46485 1.09375,0 2.17839,0.26432 1.09375,0.26433 2.42448,0.92969 v 2.14193 h -0.13672 q -1.1211,-0.9388 -2.22396,-1.36719 -1.10286,-0.42838 -2.36068,-0.42838 -1.02995,0 -1.85937,0.33724 -0.82031,0.32812 -1.46745,1.02994 -0.62891,0.6836 -0.98438,1.73177 -0.34635,1.03907 -0.34635,2.40625 0,1.43099 0.38281,2.46094 0.39193,1.02995 1.00261,1.67709 0.63802,0.67447 1.48567,1.0026 0.85678,0.31901 1.80469,0.31901 1.30339,0 2.44271,-0.44661 1.13932,-0.44662 2.13281,-1.33985 h 0.12761 z"
       style="font-size:18.66666603px;fill:#ff0000;fill-opacity:1"
       id="path10264"
       inkscape:connector-curvature="0" /><path
       d="m 307.33397,113.71571 q 0,2.48828 -1.27604,3.92839 -1.27604,1.4401 -3.41797,1.4401 -2.16016,0 -3.4362,-1.4401 -1.26693,-1.44011 -1.26693,-3.92839 0,-2.48828 1.26693,-3.92838 1.27604,-1.44922 3.4362,-1.44922 2.14193,0 3.41797,1.44922 1.27604,1.4401 1.27604,3.92838 z m -1.76823,0 q 0,-1.97786 -0.77474,-2.93489 -0.77474,-0.96615 -2.15104,-0.96615 -1.39453,0 -2.16927,0.96615 -0.76563,0.95703 -0.76563,2.93489 0,1.91406 0.77474,2.90755 0.77474,0.98438 2.16016,0.98438 1.36719,0 2.14193,-0.97526 0.78385,-0.98438 0.78385,-2.91667 z"
       style="font-size:18.66666603px;fill:#ff0000;fill-opacity:1"
       id="path10266"
       inkscape:connector-curvature="0" /><path
       d="m 318.50845,118.80165 h -1.71354 v -5.79688 q 0,-0.70182 -0.082,-1.3125 -0.082,-0.61979 -0.30078,-0.96614 -0.22787,-0.38281 -0.65625,-0.5651 -0.42839,-0.19141 -1.11198,-0.19141 -0.70182,0 -1.46745,0.34635 -0.76562,0.34636 -1.46745,0.88412 v 7.60156 h -1.71354 v -10.18099 h 1.71354 v 1.13021 q 0.80209,-0.66537 1.65886,-1.03906 0.85677,-0.3737 1.75911,-0.3737 1.64974,0 2.51563,0.99349 0.86588,0.99349 0.86588,2.86198 z"
       style="font-size:18.66666603px;fill:#ff0000;fill-opacity:1"
       id="path10268"
       inkscape:connector-curvature="0" /><path
       d="m 327.09439,118.7105 q -0.48307,0.12761 -1.05729,0.20964 -0.56511,0.082 -1.01172,0.082 -1.55859,0 -2.36979,-0.83854 -0.8112,-0.83854 -0.8112,-2.6888 v -5.41407 h -1.15755 v -1.4401 h 1.15755 v -2.92578 h 1.71354 v 2.92578 h 3.53646 v 1.4401 h -3.53646 v 4.63933 q 0,0.80208 0.0365,1.25781 0.0365,0.44661 0.25521,0.83854 0.20052,0.36458 0.54687,0.53776 0.35547,0.16406 1.07552,0.16406 0.41928,0 0.875,-0.11849 0.45573,-0.1276 0.65625,-0.20963 h 0.0911 z"
       style="font-size:18.66666603px;fill:#ff0000;fill-opacity:1"
       id="path10270"
       inkscape:connector-curvature="0" /><path
       d="m 335.52539,110.48915 h -0.0912 q -0.38281,-0.0911 -0.74739,-0.1276 -0.35547,-0.0456 -0.84766,-0.0456 -0.79297,0 -1.53125,0.35547 -0.73828,0.34636 -1.42187,0.90235 v 7.22786 h -1.71354 v -10.18099 h 1.71354 v 1.50391 q 1.02083,-0.82032 1.79557,-1.15756 0.78385,-0.34635 1.59505,-0.34635 0.44662,0 0.64714,0.0273 0.20052,0.0182 0.60156,0.082 z"
       style="font-size:18.66666603px;fill:#ff0000;fill-opacity:1"
       id="path10272"
       inkscape:connector-curvature="0" /><path
       d="m 345.83398,113.71571 q 0,2.48828 -1.27604,3.92839 -1.27604,1.4401 -3.41797,1.4401 -2.16015,0 -3.43619,-1.4401 -1.26693,-1.44011 -1.26693,-3.92839 0,-2.48828 1.26693,-3.92838 1.27604,-1.44922 3.43619,-1.44922 2.14193,0 3.41797,1.44922 1.27604,1.4401 1.27604,3.92838 z m -1.76823,0 q 0,-1.97786 -0.77473,-2.93489 -0.77474,-0.96615 -2.15105,-0.96615 -1.39453,0 -2.16927,0.96615 -0.76562,0.95703 -0.76562,2.93489 0,1.91406 0.77474,2.90755 0.77474,0.98438 2.16015,0.98438 1.36719,0 2.14193,-0.97526 0.78385,-0.98438 0.78385,-2.91667 z"
       style="font-size:18.66666603px;fill:#ff0000;fill-opacity:1"
       id="path10274"
       inkscape:connector-curvature="0" /><path
       d="m 350.2272,118.80165 h -1.71354 v -14.18229 h 1.71354 z"
       style="font-size:18.66666603px;fill:#ff0000;fill-opacity:1"
       id="path10276"
       inkscape:connector-curvature="0" /><path
       d="m 355.29492,118.80165 h -1.71354 v -14.18229 h 1.71354 z"
       style="font-size:18.66666603px;fill:#ff0000;fill-opacity:1"
       id="path10278"
       inkscape:connector-curvature="0" /><path
       d="m 367.15297,113.88889 h -7.5013 q 0,0.9388 0.28255,1.64062 0.28256,0.69271 0.77474,1.13933 0.47396,0.4375 1.1211,0.65625 0.65625,0.21875 1.4401,0.21875 1.03906,0 2.08724,-0.41016 1.05729,-0.41927 1.50391,-0.82031 h 0.0911 v 1.86849 q -0.86588,0.36458 -1.76823,0.61068 -0.90234,0.24609 -1.89583,0.24609 -2.53385,0 -3.95573,-1.36719 -1.42187,-1.3763 -1.42187,-3.90104 0,-2.4974 1.35807,-3.96484 1.36719,-1.46745 3.59115,-1.46745 2.05989,0 3.17187,1.20312 1.12109,1.20313 1.12109,3.41797 z m -1.66796,-1.3125 q -0.009,-1.34896 -0.6836,-2.08724 -0.66536,-0.73828 -2.03255,-0.73828 -1.3763,0 -2.19661,0.8112 -0.8112,0.81119 -0.92058,2.01432 z"
       style="font-size:18.66666603px;fill:#ff0000;fill-opacity:1"
       id="path10280"
       inkscape:connector-curvature="0" /><path
       d="m 376.10352,110.48915 h -0.0912 q -0.38281,-0.0911 -0.7474,-0.1276 -0.35547,-0.0456 -0.84765,-0.0456 -0.79297,0 -1.53125,0.35547 -0.73828,0.34636 -1.42188,0.90235 v 7.22786 h -1.71354 v -10.18099 h 1.71354 v 1.50391 q 1.02084,-0.82032 1.79558,-1.15756 0.78385,-0.34635 1.59505,-0.34635 0.44661,0 0.64713,0.0273 0.20052,0.0182 0.60157,0.082 z"
       style="font-size:18.66666603px;fill:#ff0000;fill-opacity:1"
       id="path10282"
       inkscape:connector-curvature="0" /><path
       d="m 393.10221,108.62066 -4.11979,10.18099 h -1.72265 l -4.09245,-10.18099 h 1.85937 l 3.15365,8.10286 3.1263,-8.10286 z"
       style="font-size:18.66666603px;fill:#ff0000;fill-opacity:1"
       id="path10284"
       inkscape:connector-curvature="0" /><path
       d="m 403.53841,118.80165 h -7.34635 v -1.38542 h 2.82552 v -9.09635 h -2.82552 v -1.23958 q 0.57422,0 1.23047,-0.0911 0.65625,-0.10026 0.99349,-0.28255 0.41927,-0.22787 0.65625,-0.57422 0.24609,-0.35547 0.28255,-0.94792 h 1.41276 v 12.23177 h 2.77083 z"
       style="font-size:18.66666603px;fill:#ff0000;fill-opacity:1"
       id="path10286"
       inkscape:connector-curvature="0" /><path
       d="m 410.02798,118.80165 h -2.17838 v -2.59766 h 2.17838 z"
       style="font-size:18.66666603px;fill:#ff0000;fill-opacity:1"
       id="path10288"
       inkscape:connector-curvature="0" /><path
       d="m 422.96158,112.01129 q 0,3.65494 -1.14844,5.36848 -1.13932,1.70443 -3.54557,1.70443 -2.44271,0 -3.57292,-1.73177 -1.12109,-1.73177 -1.12109,-5.32292 0,-3.61848 1.13932,-5.34114 1.13932,-1.73177 3.55469,-1.73177 2.44271,0 3.5638,1.75911 1.13021,1.75 1.13021,5.29558 z m -2.39714,4.13802 q 0.31901,-0.73829 0.42839,-1.73177 0.11849,-1.00261 0.11849,-2.40625 0,-1.38542 -0.11849,-2.40625 -0.10938,-1.02084 -0.4375,-1.73178 -0.31901,-0.70182 -0.875,-1.05729 -0.54688,-0.35547 -1.41276,-0.35547 -0.85677,0 -1.42188,0.35547 -0.55599,0.35547 -0.88411,1.07552 -0.3099,0.67448 -0.42839,1.75912 -0.10937,1.08463 -0.10937,2.3789 0,1.42188 0.10026,2.37891 0.10026,0.95703 0.42838,1.71354 0.30078,0.71094 0.84766,1.08464 0.55599,0.3737 1.46745,0.3737 0.85677,0 1.42187,-0.35547 0.56511,-0.35547 0.875,-1.07552 z"
       style="font-size:18.66666603px;fill:#ff0000;fill-opacity:1"
       id="path10290"
       inkscape:connector-curvature="0" /></g><g
     transform="matrix(3.7040847,0,0,3.7040847,-1591.4429,-1509.084)"
     inkscape:label="Layer 1"
     id="layer1"><rect
       y="409.99838"
       x="463.77545"
       height="15.540142"
       width="17.251316"
       id="rect815"
       style="fill:#ff000e;fill-opacity:1;stroke:none;stroke-width:0.12287691;stroke-miterlimit:4;stroke-dasharray:none;stroke-opacity:1" /><path
       d="m 463.97476,410.2204 c -0.0104,0 -0.0193,0.16917 -0.0193,0.37619 v 9.89188 c 0,0.20702 0.009,0.37284 0.0193,0.37284 h 3.72887 v 2.21009 c 0,0.20703 0.009,0.3762 0.0193,0.3762 h 1.68761 v 1.53832 c 0,0.20702 0.009,0.37284 0.0193,0.37284 h 5.9276 c 0.0104,0 0.0193,-0.16582 0.0193,-0.37284 v -1.53832 h 1.69091 c 0.0104,0 0.0193,-0.16917 0.0193,-0.3762 v -2.21009 h 3.72567 c 0.0104,0 0.0193,-0.16582 0.0193,-0.37284 v -9.89188 c 0,-0.20702 -0.009,-0.37619 -0.0193,-0.37619 h -16.83801 z m 1.23758,1.14201 h 1.199 c 0.0104,0 0.0193,0.16582 0.0193,0.37285 v 2.67367 c 0,0.20702 -0.009,0.37284 -0.0193,0.37284 h -1.199 c -0.0104,0 -0.0193,-0.16582 -0.0193,-0.37284 v -2.67367 c 0,-0.20703 0.009,-0.37285 0.0193,-0.37285 z m 1.88049,0 h 1.19898 c 0.0104,0 0.0193,0.16582 0.0193,0.37285 v 2.67367 c 0,0.20702 -0.009,0.37284 -0.0193,0.37284 h -1.19898 c -0.0104,0 -0.0193,-0.16582 -0.0193,-0.37284 v -2.67367 c 0,-0.20703 0.009,-0.37285 0.0193,-0.37285 z m 1.88046,0 h 1.199 c 0.0104,0 0.0193,0.16582 0.0193,0.37285 v 2.67367 c 0,0.20702 -0.009,0.37284 -0.0193,0.37284 h -1.199 c -0.0104,0 -0.0193,-0.16582 -0.0193,-0.37284 v -2.67367 c 0,-0.20703 0.009,-0.37285 0.0193,-0.37285 z m 1.88049,0 h 1.19899 c 0.0104,0 0.0193,0.16582 0.0193,0.37285 v 2.67367 c 0,0.20702 -0.009,0.37284 -0.0193,0.37284 h -1.19899 c -0.0104,0 -0.0193,-0.16582 -0.0193,-0.37284 v -2.67367 c 0,-0.20703 0.009,-0.37285 0.0193,-0.37285 z m 1.88048,0 h 1.20227 c 0.0104,0 0.016,0.16582 0.016,0.37285 v 2.67367 c 0,0.20702 -0.005,0.37284 -0.016,0.37284 h -1.20227 c -0.0104,0 -0.016,-0.16582 -0.016,-0.37284 v -2.67367 c 0,-0.20703 0.005,-0.37285 0.016,-0.37285 z m 1.88366,0 h 1.199 c 0.0104,0 0.016,0.16582 0.016,0.37285 v 2.67367 c 0,0.20702 -0.005,0.37284 -0.016,0.37284 h -1.199 c -0.0104,0 -0.0193,-0.16582 -0.0193,-0.37284 v -2.67367 c 0,-0.20703 0.009,-0.37285 0.0193,-0.37285 z m 1.88048,0 h 1.199 c 0.0104,0 0.0193,0.16582 0.0193,0.37285 v 2.67367 c 0,0.20702 -0.009,0.37284 -0.0193,0.37284 h -1.199 c -0.0104,0 -0.0193,-0.16582 -0.0193,-0.37284 v -2.67367 c 0,-0.20703 0.009,-0.37285 0.0193,-0.37285 z m 1.88047,0 h 1.199 c 0.0104,0 0.0193,0.16582 0.0193,0.37285 v 2.67367 c 0,0.20702 -0.009,0.37284 -0.0193,0.37284 h -1.199 c -0.0104,0 -0.0193,-0.16582 -0.0193,-0.37284 v -2.67367 c 0,-0.20703 0.009,-0.37285 0.0193,-0.37285 z"
       inkscape:connector-curvature="0"
       style="fill:#ffffff;fill-opacity:1;stroke:#fd0000;stroke-width:0.10514932;stroke-opacity:1"
       id="rect5794" /></g><g
     transform="matrix(3.7040847,0,0,3.7040847,-1521.5927,-1509.3447)"
     inkscape:label="Layer 1"
     id="layer1-3"><rect
       y="409.99838"
       x="463.77545"
       height="15.540142"
       width="17.251316"
       id="rect815-3"
       style="fill:#ff000e;fill-opacity:1;stroke:none;stroke-width:0.12287691;stroke-miterlimit:4;stroke-dasharray:none;stroke-opacity:1" /><path
       d="m 463.97476,410.2204 c -0.0104,0 -0.0193,0.16917 -0.0193,0.37619 v 9.89188 c 0,0.20702 0.009,0.37284 0.0193,0.37284 h 3.72887 v 2.21009 c 0,0.20703 0.009,0.3762 0.0193,0.3762 h 1.68761 v 1.53832 c 0,0.20702 0.009,0.37284 0.0193,0.37284 h 5.9276 c 0.0104,0 0.0193,-0.16582 0.0193,-0.37284 v -1.53832 h 1.69091 c 0.0104,0 0.0193,-0.16917 0.0193,-0.3762 v -2.21009 h 3.72567 c 0.0104,0 0.0193,-0.16582 0.0193,-0.37284 v -9.89188 c 0,-0.20702 -0.009,-0.37619 -0.0193,-0.37619 h -16.83801 z m 1.23758,1.14201 h 1.199 c 0.0104,0 0.0193,0.16582 0.0193,0.37285 v 2.67367 c 0,0.20702 -0.009,0.37284 -0.0193,0.37284 h -1.199 c -0.0104,0 -0.0193,-0.16582 -0.0193,-0.37284 v -2.67367 c 0,-0.20703 0.009,-0.37285 0.0193,-0.37285 z m 1.88049,0 h 1.19898 c 0.0104,0 0.0193,0.16582 0.0193,0.37285 v 2.67367 c 0,0.20702 -0.009,0.37284 -0.0193,0.37284 h -1.19898 c -0.0104,0 -0.0193,-0.16582 -0.0193,-0.37284 v -2.67367 c 0,-0.20703 0.009,-0.37285 0.0193,-0.37285 z m 1.88046,0 h 1.199 c 0.0104,0 0.0193,0.16582 0.0193,0.37285 v 2.67367 c 0,0.20702 -0.009,0.37284 -0.0193,0.37284 h -1.199 c -0.0104,0 -0.0193,-0.16582 -0.0193,-0.37284 v -2.67367 c 0,-0.20703 0.009,-0.37285 0.0193,-0.37285 z m 1.88049,0 h 1.19899 c 0.0104,0 0.0193,0.16582 0.0193,0.37285 v 2.67367 c 0,0.20702 -0.009,0.37284 -0.0193,0.37284 h -1.19899 c -0.0104,0 -0.0193,-0.16582 -0.0193,-0.37284 v -2.67367 c 0,-0.20703 0.009,-0.37285 0.0193,-0.37285 z m 1.88048,0 h 1.20227 c 0.0104,0 0.016,0.16582 0.016,0.37285 v 2.67367 c 0,0.20702 -0.005,0.37284 -0.016,0.37284 h -1.20227 c -0.0104,0 -0.016,-0.16582 -0.016,-0.37284 v -2.67367 c 0,-0.20703 0.005,-0.37285 0.016,-0.37285 z m 1.88366,0 h 1.199 c 0.0104,0 0.016,0.16582 0.016,0.37285 v 2.67367 c 0,0.20702 -0.005,0.37284 -0.016,0.37284 h -1.199 c -0.0104,0 -0.0193,-0.16582 -0.0193,-0.37284 v -2.67367 c 0,-0.20703 0.009,-0.37285 0.0193,-0.37285 z m 1.88048,0 h 1.199 c 0.0104,0 0.0193,0.16582 0.0193,0.37285 v 2.67367 c 0,0.20702 -0.009,0.37284 -0.0193,0.37284 h -1.199 c -0.0104,0 -0.0193,-0.16582 -0.0193,-0.37284 v -2.67367 c 0,-0.20703 0.009,-0.37285 0.0193,-0.37285 z m 1.88047,0 h 1.199 c 0.0104,0 0.0193,0.16582 0.0193,0.37285 v 2.67367 c 0,0.20702 -0.009,0.37284 -0.0193,0.37284 h -1.199 c -0.0104,0 -0.0193,-0.16582 -0.0193,-0.37284 v -2.67367 c 0,-0.20703 0.009,-0.37285 0.0193,-0.37285 z"
       inkscape:connector-curvature="0"
       style="fill:#ffffff;fill-opacity:1;stroke:#fd0000;stroke-width:0.10514932;stroke-opacity:1"
       id="rect5794-3" /></g><g
     transform="matrix(3.7040847,0,0,3.7040847,-1642.2429,-1279.5002)"
     inkscape:label="Layer 1"
     id="layer1-0"><rect
       y="409.99838"
       x="463.77545"
       height="15.540142"
       width="17.251316"
       id="rect815-6"
       style="fill:#ff000e;fill-opacity:1;stroke:none;stroke-width:0.12287691;stroke-miterlimit:4;stroke-dasharray:none;stroke-opacity:1" /><path
       d="m 463.97476,410.2204 c -0.0104,0 -0.0193,0.16917 -0.0193,0.37619 v 9.89188 c 0,0.20702 0.009,0.37284 0.0193,0.37284 h 3.72887 v 2.21009 c 0,0.20703 0.009,0.3762 0.0193,0.3762 h 1.68761 v 1.53832 c 0,0.20702 0.009,0.37284 0.0193,0.37284 h 5.9276 c 0.0104,0 0.0193,-0.16582 0.0193,-0.37284 v -1.53832 h 1.69091 c 0.0104,0 0.0193,-0.16917 0.0193,-0.3762 v -2.21009 h 3.72567 c 0.0104,0 0.0193,-0.16582 0.0193,-0.37284 v -9.89188 c 0,-0.20702 -0.009,-0.37619 -0.0193,-0.37619 h -16.83801 z m 1.23758,1.14201 h 1.199 c 0.0104,0 0.0193,0.16582 0.0193,0.37285 v 2.67367 c 0,0.20702 -0.009,0.37284 -0.0193,0.37284 h -1.199 c -0.0104,0 -0.0193,-0.16582 -0.0193,-0.37284 v -2.67367 c 0,-0.20703 0.009,-0.37285 0.0193,-0.37285 z m 1.88049,0 h 1.19898 c 0.0104,0 0.0193,0.16582 0.0193,0.37285 v 2.67367 c 0,0.20702 -0.009,0.37284 -0.0193,0.37284 h -1.19898 c -0.0104,0 -0.0193,-0.16582 -0.0193,-0.37284 v -2.67367 c 0,-0.20703 0.009,-0.37285 0.0193,-0.37285 z m 1.88046,0 h 1.199 c 0.0104,0 0.0193,0.16582 0.0193,0.37285 v 2.67367 c 0,0.20702 -0.009,0.37284 -0.0193,0.37284 h -1.199 c -0.0104,0 -0.0193,-0.16582 -0.0193,-0.37284 v -2.67367 c 0,-0.20703 0.009,-0.37285 0.0193,-0.37285 z m 1.88049,0 h 1.19899 c 0.0104,0 0.0193,0.16582 0.0193,0.37285 v 2.67367 c 0,0.20702 -0.009,0.37284 -0.0193,0.37284 h -1.19899 c -0.0104,0 -0.0193,-0.16582 -0.0193,-0.37284 v -2.67367 c 0,-0.20703 0.009,-0.37285 0.0193,-0.37285 z m 1.88048,0 h 1.20227 c 0.0104,0 0.016,0.16582 0.016,0.37285 v 2.67367 c 0,0.20702 -0.005,0.37284 -0.016,0.37284 h -1.20227 c -0.0104,0 -0.016,-0.16582 -0.016,-0.37284 v -2.67367 c 0,-0.20703 0.005,-0.37285 0.016,-0.37285 z m 1.88366,0 h 1.199 c 0.0104,0 0.016,0.16582 0.016,0.37285 v 2.67367 c 0,0.20702 -0.005,0.37284 -0.016,0.37284 h -1.199 c -0.0104,0 -0.0193,-0.16582 -0.0193,-0.37284 v -2.67367 c 0,-0.20703 0.009,-0.37285 0.0193,-0.37285 z m 1.88048,0 h 1.199 c 0.0104,0 0.0193,0.16582 0.0193,0.37285 v 2.67367 c 0,0.20702 -0.009,0.37284 -0.0193,0.37284 h -1.199 c -0.0104,0 -0.0193,-0.16582 -0.0193,-0.37284 v -2.67367 c 0,-0.20703 0.009,-0.37285 0.0193,-0.37285 z m 1.88047,0 h 1.199 c 0.0104,0 0.0193,0.16582 0.0193,0.37285 v 2.67367 c 0,0.20702 -0.009,0.37284 -0.0193,0.37284 h -1.199 c -0.0104,0 -0.0193,-0.16582 -0.0193,-0.37284 v -2.67367 c 0,-0.20703 0.009,-0.37285 0.0193,-0.37285 z"
       inkscape:connector-curvature="0"
       style="fill:#ffffff;fill-opacity:1;stroke:#fd0000;stroke-width:0.10514932;stroke-opacity:1"
       id="rect5794-7" /></g><g
     transform="matrix(3.7040847,0,0,3.7040847,-1642.2429,-1204.8795)"
     inkscape:label="Layer 1"
     id="layer1-0-5"><rect
       y="409.99838"
       x="463.77545"
       height="15.540142"
       width="17.251316"
       id="rect815-6-6"
       style="fill:#ff000e;fill-opacity:1;stroke:none;stroke-width:0.12287691;stroke-miterlimit:4;stroke-dasharray:none;stroke-opacity:1" /><path
       d="m 463.97476,410.2204 c -0.0104,0 -0.0193,0.16917 -0.0193,0.37619 v 9.89188 c 0,0.20702 0.009,0.37284 0.0193,0.37284 h 3.72887 v 2.21009 c 0,0.20703 0.009,0.3762 0.0193,0.3762 h 1.68761 v 1.53832 c 0,0.20702 0.009,0.37284 0.0193,0.37284 h 5.9276 c 0.0104,0 0.0193,-0.16582 0.0193,-0.37284 v -1.53832 h 1.69091 c 0.0104,0 0.0193,-0.16917 0.0193,-0.3762 v -2.21009 h 3.72567 c 0.0104,0 0.0193,-0.16582 0.0193,-0.37284 v -9.89188 c 0,-0.20702 -0.009,-0.37619 -0.0193,-0.37619 h -16.83801 z m 1.23758,1.14201 h 1.199 c 0.0104,0 0.0193,0.16582 0.0193,0.37285 v 2.67367 c 0,0.20702 -0.009,0.37284 -0.0193,0.37284 h -1.199 c -0.0104,0 -0.0193,-0.16582 -0.0193,-0.37284 v -2.67367 c 0,-0.20703 0.009,-0.37285 0.0193,-0.37285 z m 1.88049,0 h 1.19898 c 0.0104,0 0.0193,0.16582 0.0193,0.37285 v 2.67367 c 0,0.20702 -0.009,0.37284 -0.0193,0.37284 h -1.19898 c -0.0104,0 -0.0193,-0.16582 -0.0193,-0.37284 v -2.67367 c 0,-0.20703 0.009,-0.37285 0.0193,-0.37285 z m 1.88046,0 h 1.199 c 0.0104,0 0.0193,0.16582 0.0193,0.37285 v 2.67367 c 0,0.20702 -0.009,0.37284 -0.0193,0.37284 h -1.199 c -0.0104,0 -0.0193,-0.16582 -0.0193,-0.37284 v -2.67367 c 0,-0.20703 0.009,-0.37285 0.0193,-0.37285 z m 1.88049,0 h 1.19899 c 0.0104,0 0.0193,0.16582 0.0193,0.37285 v 2.67367 c 0,0.20702 -0.009,0.37284 -0.0193,0.37284 h -1.19899 c -0.0104,0 -0.0193,-0.16582 -0.0193,-0.37284 v -2.67367 c 0,-0.20703 0.009,-0.37285 0.0193,-0.37285 z m 1.88048,0 h 1.20227 c 0.0104,0 0.016,0.16582 0.016,0.37285 v 2.67367 c 0,0.20702 -0.005,0.37284 -0.016,0.37284 h -1.20227 c -0.0104,0 -0.016,-0.16582 -0.016,-0.37284 v -2.67367 c 0,-0.20703 0.005,-0.37285 0.016,-0.37285 z m 1.88366,0 h 1.199 c 0.0104,0 0.016,0.16582 0.016,0.37285 v 2.67367 c 0,0.20702 -0.005,0.37284 -0.016,0.37284 h -1.199 c -0.0104,0 -0.0193,-0.16582 -0.0193,-0.37284 v -2.67367 c 0,-0.20703 0.009,-0.37285 0.0193,-0.37285 z m 1.88048,0 h 1.199 c 0.0104,0 0.0193,0.16582 0.0193,0.37285 v 2.67367 c 0,0.20702 -0.009,0.37284 -0.0193,0.37284 h -1.199 c -0.0104,0 -0.0193,-0.16582 -0.0193,-0.37284 v -2.67367 c 0,-0.20703 0.009,-0.37285 0.0193,-0.37285 z m 1.88047,0 h 1.199 c 0.0104,0 0.0193,0.16582 0.0193,0.37285 v 2.67367 c 0,0.20702 -0.009,0.37284 -0.0193,0.37284 h -1.199 c -0.0104,0 -0.0193,-0.16582 -0.0193,-0.37284 v -2.67367 c 0,-0.20703 0.009,-0.37285 0.0193,-0.37285 z"
       inkscape:connector-curvature="0"
       style="fill:#ffffff;fill-opacity:1;stroke:#fd0000;stroke-width:0.10514932;stroke-opacity:1"
       id="rect5794-7-4" /></g><g
     transform="matrix(3.7040847,0,0,3.7040847,-1642.2429,-1130.2587)"
     inkscape:label="Layer 1"
     id="layer1-0-53"><rect
       y="409.99838"
       x="463.77545"
       height="15.540142"
       width="17.251316"
       id="rect815-6-5"
       style="fill:#ff000e;fill-opacity:1;stroke:none;stroke-width:0.12287691;stroke-miterlimit:4;stroke-dasharray:none;stroke-opacity:1" /><path
       d="m 463.97476,410.2204 c -0.0104,0 -0.0193,0.16917 -0.0193,0.37619 v 9.89188 c 0,0.20702 0.009,0.37284 0.0193,0.37284 h 3.72887 v 2.21009 c 0,0.20703 0.009,0.3762 0.0193,0.3762 h 1.68761 v 1.53832 c 0,0.20702 0.009,0.37284 0.0193,0.37284 h 5.9276 c 0.0104,0 0.0193,-0.16582 0.0193,-0.37284 v -1.53832 h 1.69091 c 0.0104,0 0.0193,-0.16917 0.0193,-0.3762 v -2.21009 h 3.72567 c 0.0104,0 0.0193,-0.16582 0.0193,-0.37284 v -9.89188 c 0,-0.20702 -0.009,-0.37619 -0.0193,-0.37619 h -16.83801 z m 1.23758,1.14201 h 1.199 c 0.0104,0 0.0193,0.16582 0.0193,0.37285 v 2.67367 c 0,0.20702 -0.009,0.37284 -0.0193,0.37284 h -1.199 c -0.0104,0 -0.0193,-0.16582 -0.0193,-0.37284 v -2.67367 c 0,-0.20703 0.009,-0.37285 0.0193,-0.37285 z m 1.88049,0 h 1.19898 c 0.0104,0 0.0193,0.16582 0.0193,0.37285 v 2.67367 c 0,0.20702 -0.009,0.37284 -0.0193,0.37284 h -1.19898 c -0.0104,0 -0.0193,-0.16582 -0.0193,-0.37284 v -2.67367 c 0,-0.20703 0.009,-0.37285 0.0193,-0.37285 z m 1.88046,0 h 1.199 c 0.0104,0 0.0193,0.16582 0.0193,0.37285 v 2.67367 c 0,0.20702 -0.009,0.37284 -0.0193,0.37284 h -1.199 c -0.0104,0 -0.0193,-0.16582 -0.0193,-0.37284 v -2.67367 c 0,-0.20703 0.009,-0.37285 0.0193,-0.37285 z m 1.88049,0 h 1.19899 c 0.0104,0 0.0193,0.16582 0.0193,0.37285 v 2.67367 c 0,0.20702 -0.009,0.37284 -0.0193,0.37284 h -1.19899 c -0.0104,0 -0.0193,-0.16582 -0.0193,-0.37284 v -2.67367 c 0,-0.20703 0.009,-0.37285 0.0193,-0.37285 z m 1.88048,0 h 1.20227 c 0.0104,0 0.016,0.16582 0.016,0.37285 v 2.67367 c 0,0.20702 -0.005,0.37284 -0.016,0.37284 h -1.20227 c -0.0104,0 -0.016,-0.16582 -0.016,-0.37284 v -2.67367 c 0,-0.20703 0.005,-0.37285 0.016,-0.37285 z m 1.88366,0 h 1.199 c 0.0104,0 0.016,0.16582 0.016,0.37285 v 2.67367 c 0,0.20702 -0.005,0.37284 -0.016,0.37284 h -1.199 c -0.0104,0 -0.0193,-0.16582 -0.0193,-0.37284 v -2.67367 c 0,-0.20703 0.009,-0.37285 0.0193,-0.37285 z m 1.88048,0 h 1.199 c 0.0104,0 0.0193,0.16582 0.0193,0.37285 v 2.67367 c 0,0.20702 -0.009,0.37284 -0.0193,0.37284 h -1.199 c -0.0104,0 -0.0193,-0.16582 -0.0193,-0.37284 v -2.67367 c 0,-0.20703 0.009,-0.37285 0.0193,-0.37285 z m 1.88047,0 h 1.199 c 0.0104,0 0.0193,0.16582 0.0193,0.37285 v 2.67367 c 0,0.20702 -0.009,0.37284 -0.0193,0.37284 h -1.199 c -0.0104,0 -0.0193,-0.16582 -0.0193,-0.37284 v -2.67367 c 0,-0.20703 0.009,-0.37285 0.0193,-0.37285 z"
       inkscape:connector-curvature="0"
       style="fill:#ffffff;fill-opacity:1;stroke:#fd0000;stroke-width:0.10514932;stroke-opacity:1"
       id="rect5794-7-6" /></g><g
     transform="matrix(3.7040847,0,0,3.7040847,-1497.0781,-1130.0684)"
     inkscape:label="Layer 1"
     id="layer1-0-53-5"><rect
       y="409.99838"
       x="463.77545"
       height="15.540142"
       width="17.251316"
       id="rect815-6-5-5"
       style="fill:#ff000e;fill-opacity:1;stroke:none;stroke-width:0.12287691;stroke-miterlimit:4;stroke-dasharray:none;stroke-opacity:1" /><path
       d="m 463.97476,410.2204 c -0.0104,0 -0.0193,0.16917 -0.0193,0.37619 v 9.89188 c 0,0.20702 0.009,0.37284 0.0193,0.37284 h 3.72887 v 2.21009 c 0,0.20703 0.009,0.3762 0.0193,0.3762 h 1.68761 v 1.53832 c 0,0.20702 0.009,0.37284 0.0193,0.37284 h 5.9276 c 0.0104,0 0.0193,-0.16582 0.0193,-0.37284 v -1.53832 h 1.69091 c 0.0104,0 0.0193,-0.16917 0.0193,-0.3762 v -2.21009 h 3.72567 c 0.0104,0 0.0193,-0.16582 0.0193,-0.37284 v -9.89188 c 0,-0.20702 -0.009,-0.37619 -0.0193,-0.37619 h -16.83801 z m 1.23758,1.14201 h 1.199 c 0.0104,0 0.0193,0.16582 0.0193,0.37285 v 2.67367 c 0,0.20702 -0.009,0.37284 -0.0193,0.37284 h -1.199 c -0.0104,0 -0.0193,-0.16582 -0.0193,-0.37284 v -2.67367 c 0,-0.20703 0.009,-0.37285 0.0193,-0.37285 z m 1.88049,0 h 1.19898 c 0.0104,0 0.0193,0.16582 0.0193,0.37285 v 2.67367 c 0,0.20702 -0.009,0.37284 -0.0193,0.37284 h -1.19898 c -0.0104,0 -0.0193,-0.16582 -0.0193,-0.37284 v -2.67367 c 0,-0.20703 0.009,-0.37285 0.0193,-0.37285 z m 1.88046,0 h 1.199 c 0.0104,0 0.0193,0.16582 0.0193,0.37285 v 2.67367 c 0,0.20702 -0.009,0.37284 -0.0193,0.37284 h -1.199 c -0.0104,0 -0.0193,-0.16582 -0.0193,-0.37284 v -2.67367 c 0,-0.20703 0.009,-0.37285 0.0193,-0.37285 z m 1.88049,0 h 1.19899 c 0.0104,0 0.0193,0.16582 0.0193,0.37285 v 2.67367 c 0,0.20702 -0.009,0.37284 -0.0193,0.37284 h -1.19899 c -0.0104,0 -0.0193,-0.16582 -0.0193,-0.37284 v -2.67367 c 0,-0.20703 0.009,-0.37285 0.0193,-0.37285 z m 1.88048,0 h 1.20227 c 0.0104,0 0.016,0.16582 0.016,0.37285 v 2.67367 c 0,0.20702 -0.005,0.37284 -0.016,0.37284 h -1.20227 c -0.0104,0 -0.016,-0.16582 -0.016,-0.37284 v -2.67367 c 0,-0.20703 0.005,-0.37285 0.016,-0.37285 z m 1.88366,0 h 1.199 c 0.0104,0 0.016,0.16582 0.016,0.37285 v 2.67367 c 0,0.20702 -0.005,0.37284 -0.016,0.37284 h -1.199 c -0.0104,0 -0.0193,-0.16582 -0.0193,-0.37284 v -2.67367 c 0,-0.20703 0.009,-0.37285 0.0193,-0.37285 z m 1.88048,0 h 1.199 c 0.0104,0 0.0193,0.16582 0.0193,0.37285 v 2.67367 c 0,0.20702 -0.009,0.37284 -0.0193,0.37284 h -1.199 c -0.0104,0 -0.0193,-0.16582 -0.0193,-0.37284 v -2.67367 c 0,-0.20703 0.009,-0.37285 0.0193,-0.37285 z m 1.88047,0 h 1.199 c 0.0104,0 0.0193,0.16582 0.0193,0.37285 v 2.67367 c 0,0.20702 -0.009,0.37284 -0.0193,0.37284 h -1.199 c -0.0104,0 -0.0193,-0.16582 -0.0193,-0.37284 v -2.67367 c 0,-0.20703 0.009,-0.37285 0.0193,-0.37285 z"
       inkscape:connector-curvature="0"
       style="fill:#ffffff;fill-opacity:1;stroke:#fd0000;stroke-width:0.10514932;stroke-opacity:1"
       id="rect5794-7-6-7" /></g><g
     transform="matrix(3.7040847,0,0,3.7040847,-1497.0781,-1204.6892)"
     inkscape:label="Layer 1"
     id="layer1-0-53-5-3"><rect
       y="409.99838"
       x="463.77545"
       height="15.540142"
       width="17.251316"
       id="rect815-6-5-5-6"
       style="fill:#ff000e;fill-opacity:1;stroke:none;stroke-width:0.12287691;stroke-miterlimit:4;stroke-dasharray:none;stroke-opacity:1" /><path
       d="m 463.97476,410.2204 c -0.0104,0 -0.0193,0.16917 -0.0193,0.37619 v 9.89188 c 0,0.20702 0.009,0.37284 0.0193,0.37284 h 3.72887 v 2.21009 c 0,0.20703 0.009,0.3762 0.0193,0.3762 h 1.68761 v 1.53832 c 0,0.20702 0.009,0.37284 0.0193,0.37284 h 5.9276 c 0.0104,0 0.0193,-0.16582 0.0193,-0.37284 v -1.53832 h 1.69091 c 0.0104,0 0.0193,-0.16917 0.0193,-0.3762 v -2.21009 h 3.72567 c 0.0104,0 0.0193,-0.16582 0.0193,-0.37284 v -9.89188 c 0,-0.20702 -0.009,-0.37619 -0.0193,-0.37619 h -16.83801 z m 1.23758,1.14201 h 1.199 c 0.0104,0 0.0193,0.16582 0.0193,0.37285 v 2.67367 c 0,0.20702 -0.009,0.37284 -0.0193,0.37284 h -1.199 c -0.0104,0 -0.0193,-0.16582 -0.0193,-0.37284 v -2.67367 c 0,-0.20703 0.009,-0.37285 0.0193,-0.37285 z m 1.88049,0 h 1.19898 c 0.0104,0 0.0193,0.16582 0.0193,0.37285 v 2.67367 c 0,0.20702 -0.009,0.37284 -0.0193,0.37284 h -1.19898 c -0.0104,0 -0.0193,-0.16582 -0.0193,-0.37284 v -2.67367 c 0,-0.20703 0.009,-0.37285 0.0193,-0.37285 z m 1.88046,0 h 1.199 c 0.0104,0 0.0193,0.16582 0.0193,0.37285 v 2.67367 c 0,0.20702 -0.009,0.37284 -0.0193,0.37284 h -1.199 c -0.0104,0 -0.0193,-0.16582 -0.0193,-0.37284 v -2.67367 c 0,-0.20703 0.009,-0.37285 0.0193,-0.37285 z m 1.88049,0 h 1.19899 c 0.0104,0 0.0193,0.16582 0.0193,0.37285 v 2.67367 c 0,0.20702 -0.009,0.37284 -0.0193,0.37284 h -1.19899 c -0.0104,0 -0.0193,-0.16582 -0.0193,-0.37284 v -2.67367 c 0,-0.20703 0.009,-0.37285 0.0193,-0.37285 z m 1.88048,0 h 1.20227 c 0.0104,0 0.016,0.16582 0.016,0.37285 v 2.67367 c 0,0.20702 -0.005,0.37284 -0.016,0.37284 h -1.20227 c -0.0104,0 -0.016,-0.16582 -0.016,-0.37284 v -2.67367 c 0,-0.20703 0.005,-0.37285 0.016,-0.37285 z m 1.88366,0 h 1.199 c 0.0104,0 0.016,0.16582 0.016,0.37285 v 2.67367 c 0,0.20702 -0.005,0.37284 -0.016,0.37284 h -1.199 c -0.0104,0 -0.0193,-0.16582 -0.0193,-0.37284 v -2.67367 c 0,-0.20703 0.009,-0.37285 0.0193,-0.37285 z m 1.88048,0 h 1.199 c 0.0104,0 0.0193,0.16582 0.0193,0.37285 v 2.67367 c 0,0.20702 -0.009,0.37284 -0.0193,0.37284 h -1.199 c -0.0104,0 -0.0193,-0.16582 -0.0193,-0.37284 v -2.67367 c 0,-0.20703 0.009,-0.37285 0.0193,-0.37285 z m 1.88047,0 h 1.199 c 0.0104,0 0.0193,0.16582 0.0193,0.37285 v 2.67367 c 0,0.20702 -0.009,0.37284 -0.0193,0.37284 h -1.199 c -0.0104,0 -0.0193,-0.16582 -0.0193,-0.37284 v -2.67367 c 0,-0.20703 0.009,-0.37285 0.0193,-0.37285 z"
       inkscape:connector-curvature="0"
       style="fill:#ffffff;fill-opacity:1;stroke:#fd0000;stroke-width:0.10514932;stroke-opacity:1"
       id="rect5794-7-6-7-6" /></g><g
     transform="matrix(3.7040847,0,0,3.7040847,-1497.0781,-1279.3099)"
     inkscape:label="Layer 1"
     id="layer1-0-53-5-7"><rect
       y="409.99838"
       x="463.77545"
       height="15.540142"
       width="17.251316"
       id="rect815-6-5-5-2"
       style="fill:#ff000e;fill-opacity:1;stroke:none;stroke-width:0.12287691;stroke-miterlimit:4;stroke-dasharray:none;stroke-opacity:1" /><path
       d="m 463.97476,410.2204 c -0.0104,0 -0.0193,0.16917 -0.0193,0.37619 v 9.89188 c 0,0.20702 0.009,0.37284 0.0193,0.37284 h 3.72887 v 2.21009 c 0,0.20703 0.009,0.3762 0.0193,0.3762 h 1.68761 v 1.53832 c 0,0.20702 0.009,0.37284 0.0193,0.37284 h 5.9276 c 0.0104,0 0.0193,-0.16582 0.0193,-0.37284 v -1.53832 h 1.69091 c 0.0104,0 0.0193,-0.16917 0.0193,-0.3762 v -2.21009 h 3.72567 c 0.0104,0 0.0193,-0.16582 0.0193,-0.37284 v -9.89188 c 0,-0.20702 -0.009,-0.37619 -0.0193,-0.37619 h -16.83801 z m 1.23758,1.14201 h 1.199 c 0.0104,0 0.0193,0.16582 0.0193,0.37285 v 2.67367 c 0,0.20702 -0.009,0.37284 -0.0193,0.37284 h -1.199 c -0.0104,0 -0.0193,-0.16582 -0.0193,-0.37284 v -2.67367 c 0,-0.20703 0.009,-0.37285 0.0193,-0.37285 z m 1.88049,0 h 1.19898 c 0.0104,0 0.0193,0.16582 0.0193,0.37285 v 2.67367 c 0,0.20702 -0.009,0.37284 -0.0193,0.37284 h -1.19898 c -0.0104,0 -0.0193,-0.16582 -0.0193,-0.37284 v -2.67367 c 0,-0.20703 0.009,-0.37285 0.0193,-0.37285 z m 1.88046,0 h 1.199 c 0.0104,0 0.0193,0.16582 0.0193,0.37285 v 2.67367 c 0,0.20702 -0.009,0.37284 -0.0193,0.37284 h -1.199 c -0.0104,0 -0.0193,-0.16582 -0.0193,-0.37284 v -2.67367 c 0,-0.20703 0.009,-0.37285 0.0193,-0.37285 z m 1.88049,0 h 1.19899 c 0.0104,0 0.0193,0.16582 0.0193,0.37285 v 2.67367 c 0,0.20702 -0.009,0.37284 -0.0193,0.37284 h -1.19899 c -0.0104,0 -0.0193,-0.16582 -0.0193,-0.37284 v -2.67367 c 0,-0.20703 0.009,-0.37285 0.0193,-0.37285 z m 1.88048,0 h 1.20227 c 0.0104,0 0.016,0.16582 0.016,0.37285 v 2.67367 c 0,0.20702 -0.005,0.37284 -0.016,0.37284 h -1.20227 c -0.0104,0 -0.016,-0.16582 -0.016,-0.37284 v -2.67367 c 0,-0.20703 0.005,-0.37285 0.016,-0.37285 z m 1.88366,0 h 1.199 c 0.0104,0 0.016,0.16582 0.016,0.37285 v 2.67367 c 0,0.20702 -0.005,0.37284 -0.016,0.37284 h -1.199 c -0.0104,0 -0.0193,-0.16582 -0.0193,-0.37284 v -2.67367 c 0,-0.20703 0.009,-0.37285 0.0193,-0.37285 z m 1.88048,0 h 1.199 c 0.0104,0 0.0193,0.16582 0.0193,0.37285 v 2.67367 c 0,0.20702 -0.009,0.37284 -0.0193,0.37284 h -1.199 c -0.0104,0 -0.0193,-0.16582 -0.0193,-0.37284 v -2.67367 c 0,-0.20703 0.009,-0.37285 0.0193,-0.37285 z m 1.88047,0 h 1.199 c 0.0104,0 0.0193,0.16582 0.0193,0.37285 v 2.67367 c 0,0.20702 -0.009,0.37284 -0.0193,0.37284 h -1.199 c -0.0104,0 -0.0193,-0.16582 -0.0193,-0.37284 v -2.67367 c 0,-0.20703 0.009,-0.37285 0.0193,-0.37285 z"
       inkscape:connector-curvature="0"
       style="fill:#ffffff;fill-opacity:1;stroke:#fd0000;stroke-width:0.10514932;stroke-opacity:1"
       id="rect5794-7-6-7-1" /></g><g
     transform="matrix(3.7040847,0,0,3.7040847,-1354.2372,-1280.148)"
     inkscape:label="Layer 1"
     id="layer1-0-53-5-36"><rect
       y="409.99838"
       x="463.77545"
       height="15.540142"
       width="17.251316"
       id="rect815-6-5-5-7"
       style="fill:#ff000e;fill-opacity:1;stroke:none;stroke-width:0.12287691;stroke-miterlimit:4;stroke-dasharray:none;stroke-opacity:1" /><path
       d="m 463.97476,410.2204 c -0.0104,0 -0.0193,0.16917 -0.0193,0.37619 v 9.89188 c 0,0.20702 0.009,0.37284 0.0193,0.37284 h 3.72887 v 2.21009 c 0,0.20703 0.009,0.3762 0.0193,0.3762 h 1.68761 v 1.53832 c 0,0.20702 0.009,0.37284 0.0193,0.37284 h 5.9276 c 0.0104,0 0.0193,-0.16582 0.0193,-0.37284 v -1.53832 h 1.69091 c 0.0104,0 0.0193,-0.16917 0.0193,-0.3762 v -2.21009 h 3.72567 c 0.0104,0 0.0193,-0.16582 0.0193,-0.37284 v -9.89188 c 0,-0.20702 -0.009,-0.37619 -0.0193,-0.37619 h -16.83801 z m 1.23758,1.14201 h 1.199 c 0.0104,0 0.0193,0.16582 0.0193,0.37285 v 2.67367 c 0,0.20702 -0.009,0.37284 -0.0193,0.37284 h -1.199 c -0.0104,0 -0.0193,-0.16582 -0.0193,-0.37284 v -2.67367 c 0,-0.20703 0.009,-0.37285 0.0193,-0.37285 z m 1.88049,0 h 1.19898 c 0.0104,0 0.0193,0.16582 0.0193,0.37285 v 2.67367 c 0,0.20702 -0.009,0.37284 -0.0193,0.37284 h -1.19898 c -0.0104,0 -0.0193,-0.16582 -0.0193,-0.37284 v -2.67367 c 0,-0.20703 0.009,-0.37285 0.0193,-0.37285 z m 1.88046,0 h 1.199 c 0.0104,0 0.0193,0.16582 0.0193,0.37285 v 2.67367 c 0,0.20702 -0.009,0.37284 -0.0193,0.37284 h -1.199 c -0.0104,0 -0.0193,-0.16582 -0.0193,-0.37284 v -2.67367 c 0,-0.20703 0.009,-0.37285 0.0193,-0.37285 z m 1.88049,0 h 1.19899 c 0.0104,0 0.0193,0.16582 0.0193,0.37285 v 2.67367 c 0,0.20702 -0.009,0.37284 -0.0193,0.37284 h -1.19899 c -0.0104,0 -0.0193,-0.16582 -0.0193,-0.37284 v -2.67367 c 0,-0.20703 0.009,-0.37285 0.0193,-0.37285 z m 1.88048,0 h 1.20227 c 0.0104,0 0.016,0.16582 0.016,0.37285 v 2.67367 c 0,0.20702 -0.005,0.37284 -0.016,0.37284 h -1.20227 c -0.0104,0 -0.016,-0.16582 -0.016,-0.37284 v -2.67367 c 0,-0.20703 0.005,-0.37285 0.016,-0.37285 z m 1.88366,0 h 1.199 c 0.0104,0 0.016,0.16582 0.016,0.37285 v 2.67367 c 0,0.20702 -0.005,0.37284 -0.016,0.37284 h -1.199 c -0.0104,0 -0.0193,-0.16582 -0.0193,-0.37284 v -2.67367 c 0,-0.20703 0.009,-0.37285 0.0193,-0.37285 z m 1.88048,0 h 1.199 c 0.0104,0 0.0193,0.16582 0.0193,0.37285 v 2.67367 c 0,0.20702 -0.009,0.37284 -0.0193,0.37284 h -1.199 c -0.0104,0 -0.0193,-0.16582 -0.0193,-0.37284 v -2.67367 c 0,-0.20703 0.009,-0.37285 0.0193,-0.37285 z m 1.88047,0 h 1.199 c 0.0104,0 0.0193,0.16582 0.0193,0.37285 v 2.67367 c 0,0.20702 -0.009,0.37284 -0.0193,0.37284 h -1.199 c -0.0104,0 -0.0193,-0.16582 -0.0193,-0.37284 v -2.67367 c 0,-0.20703 0.009,-0.37285 0.0193,-0.37285 z"
       inkscape:connector-curvature="0"
       style="fill:#ffffff;fill-opacity:1;stroke:#fd0000;stroke-width:0.10514932;stroke-opacity:1"
       id="rect5794-7-6-7-5" /></g><g
     transform="matrix(3.7040847,0,0,3.7040847,-1354.2372,-1205.5273)"
     inkscape:label="Layer 1"
     id="layer1-0-53-5-5"><rect
       y="409.99838"
       x="463.77545"
       height="15.540142"
       width="17.251316"
       id="rect815-6-5-5-3"
       style="fill:#ff000e;fill-opacity:1;stroke:none;stroke-width:0.12287691;stroke-miterlimit:4;stroke-dasharray:none;stroke-opacity:1" /><path
       d="m 463.97476,410.2204 c -0.0104,0 -0.0193,0.16917 -0.0193,0.37619 v 9.89188 c 0,0.20702 0.009,0.37284 0.0193,0.37284 h 3.72887 v 2.21009 c 0,0.20703 0.009,0.3762 0.0193,0.3762 h 1.68761 v 1.53832 c 0,0.20702 0.009,0.37284 0.0193,0.37284 h 5.9276 c 0.0104,0 0.0193,-0.16582 0.0193,-0.37284 v -1.53832 h 1.69091 c 0.0104,0 0.0193,-0.16917 0.0193,-0.3762 v -2.21009 h 3.72567 c 0.0104,0 0.0193,-0.16582 0.0193,-0.37284 v -9.89188 c 0,-0.20702 -0.009,-0.37619 -0.0193,-0.37619 h -16.83801 z m 1.23758,1.14201 h 1.199 c 0.0104,0 0.0193,0.16582 0.0193,0.37285 v 2.67367 c 0,0.20702 -0.009,0.37284 -0.0193,0.37284 h -1.199 c -0.0104,0 -0.0193,-0.16582 -0.0193,-0.37284 v -2.67367 c 0,-0.20703 0.009,-0.37285 0.0193,-0.37285 z m 1.88049,0 h 1.19898 c 0.0104,0 0.0193,0.16582 0.0193,0.37285 v 2.67367 c 0,0.20702 -0.009,0.37284 -0.0193,0.37284 h -1.19898 c -0.0104,0 -0.0193,-0.16582 -0.0193,-0.37284 v -2.67367 c 0,-0.20703 0.009,-0.37285 0.0193,-0.37285 z m 1.88046,0 h 1.199 c 0.0104,0 0.0193,0.16582 0.0193,0.37285 v 2.67367 c 0,0.20702 -0.009,0.37284 -0.0193,0.37284 h -1.199 c -0.0104,0 -0.0193,-0.16582 -0.0193,-0.37284 v -2.67367 c 0,-0.20703 0.009,-0.37285 0.0193,-0.37285 z m 1.88049,0 h 1.19899 c 0.0104,0 0.0193,0.16582 0.0193,0.37285 v 2.67367 c 0,0.20702 -0.009,0.37284 -0.0193,0.37284 h -1.19899 c -0.0104,0 -0.0193,-0.16582 -0.0193,-0.37284 v -2.67367 c 0,-0.20703 0.009,-0.37285 0.0193,-0.37285 z m 1.88048,0 h 1.20227 c 0.0104,0 0.016,0.16582 0.016,0.37285 v 2.67367 c 0,0.20702 -0.005,0.37284 -0.016,0.37284 h -1.20227 c -0.0104,0 -0.016,-0.16582 -0.016,-0.37284 v -2.67367 c 0,-0.20703 0.005,-0.37285 0.016,-0.37285 z m 1.88366,0 h 1.199 c 0.0104,0 0.016,0.16582 0.016,0.37285 v 2.67367 c 0,0.20702 -0.005,0.37284 -0.016,0.37284 h -1.199 c -0.0104,0 -0.0193,-0.16582 -0.0193,-0.37284 v -2.67367 c 0,-0.20703 0.009,-0.37285 0.0193,-0.37285 z m 1.88048,0 h 1.199 c 0.0104,0 0.0193,0.16582 0.0193,0.37285 v 2.67367 c 0,0.20702 -0.009,0.37284 -0.0193,0.37284 h -1.199 c -0.0104,0 -0.0193,-0.16582 -0.0193,-0.37284 v -2.67367 c 0,-0.20703 0.009,-0.37285 0.0193,-0.37285 z m 1.88047,0 h 1.199 c 0.0104,0 0.0193,0.16582 0.0193,0.37285 v 2.67367 c 0,0.20702 -0.009,0.37284 -0.0193,0.37284 h -1.199 c -0.0104,0 -0.0193,-0.16582 -0.0193,-0.37284 v -2.67367 c 0,-0.20703 0.009,-0.37285 0.0193,-0.37285 z"
       inkscape:connector-curvature="0"
       style="fill:#ffffff;fill-opacity:1;stroke:#fd0000;stroke-width:0.10514932;stroke-opacity:1"
       id="rect5794-7-6-7-2" /></g><g
     transform="matrix(3.7040847,0,0,3.7040847,-1354.2372,-1130.9065)"
     inkscape:label="Layer 1"
     id="layer1-0-53-5-2"><rect
       y="409.99838"
       x="463.77545"
       height="15.540142"
       width="17.251316"
       id="rect815-6-5-5-4"
       style="fill:#ff000e;fill-opacity:1;stroke:none;stroke-width:0.12287691;stroke-miterlimit:4;stroke-dasharray:none;stroke-opacity:1" /><path
       d="m 463.97476,410.2204 c -0.0104,0 -0.0193,0.16917 -0.0193,0.37619 v 9.89188 c 0,0.20702 0.009,0.37284 0.0193,0.37284 h 3.72887 v 2.21009 c 0,0.20703 0.009,0.3762 0.0193,0.3762 h 1.68761 v 1.53832 c 0,0.20702 0.009,0.37284 0.0193,0.37284 h 5.9276 c 0.0104,0 0.0193,-0.16582 0.0193,-0.37284 v -1.53832 h 1.69091 c 0.0104,0 0.0193,-0.16917 0.0193,-0.3762 v -2.21009 h 3.72567 c 0.0104,0 0.0193,-0.16582 0.0193,-0.37284 v -9.89188 c 0,-0.20702 -0.009,-0.37619 -0.0193,-0.37619 h -16.83801 z m 1.23758,1.14201 h 1.199 c 0.0104,0 0.0193,0.16582 0.0193,0.37285 v 2.67367 c 0,0.20702 -0.009,0.37284 -0.0193,0.37284 h -1.199 c -0.0104,0 -0.0193,-0.16582 -0.0193,-0.37284 v -2.67367 c 0,-0.20703 0.009,-0.37285 0.0193,-0.37285 z m 1.88049,0 h 1.19898 c 0.0104,0 0.0193,0.16582 0.0193,0.37285 v 2.67367 c 0,0.20702 -0.009,0.37284 -0.0193,0.37284 h -1.19898 c -0.0104,0 -0.0193,-0.16582 -0.0193,-0.37284 v -2.67367 c 0,-0.20703 0.009,-0.37285 0.0193,-0.37285 z m 1.88046,0 h 1.199 c 0.0104,0 0.0193,0.16582 0.0193,0.37285 v 2.67367 c 0,0.20702 -0.009,0.37284 -0.0193,0.37284 h -1.199 c -0.0104,0 -0.0193,-0.16582 -0.0193,-0.37284 v -2.67367 c 0,-0.20703 0.009,-0.37285 0.0193,-0.37285 z m 1.88049,0 h 1.19899 c 0.0104,0 0.0193,0.16582 0.0193,0.37285 v 2.67367 c 0,0.20702 -0.009,0.37284 -0.0193,0.37284 h -1.19899 c -0.0104,0 -0.0193,-0.16582 -0.0193,-0.37284 v -2.67367 c 0,-0.20703 0.009,-0.37285 0.0193,-0.37285 z m 1.88048,0 h 1.20227 c 0.0104,0 0.016,0.16582 0.016,0.37285 v 2.67367 c 0,0.20702 -0.005,0.37284 -0.016,0.37284 h -1.20227 c -0.0104,0 -0.016,-0.16582 -0.016,-0.37284 v -2.67367 c 0,-0.20703 0.005,-0.37285 0.016,-0.37285 z m 1.88366,0 h 1.199 c 0.0104,0 0.016,0.16582 0.016,0.37285 v 2.67367 c 0,0.20702 -0.005,0.37284 -0.016,0.37284 h -1.199 c -0.0104,0 -0.0193,-0.16582 -0.0193,-0.37284 v -2.67367 c 0,-0.20703 0.009,-0.37285 0.0193,-0.37285 z m 1.88048,0 h 1.199 c 0.0104,0 0.0193,0.16582 0.0193,0.37285 v 2.67367 c 0,0.20702 -0.009,0.37284 -0.0193,0.37284 h -1.199 c -0.0104,0 -0.0193,-0.16582 -0.0193,-0.37284 v -2.67367 c 0,-0.20703 0.009,-0.37285 0.0193,-0.37285 z m 1.88047,0 h 1.199 c 0.0104,0 0.0193,0.16582 0.0193,0.37285 v 2.67367 c 0,0.20702 -0.009,0.37284 -0.0193,0.37284 h -1.199 c -0.0104,0 -0.0193,-0.16582 -0.0193,-0.37284 v -2.67367 c 0,-0.20703 0.009,-0.37285 0.0193,-0.37285 z"
       inkscape:connector-curvature="0"
       style="fill:#ffffff;fill-opacity:1;stroke:#fd0000;stroke-width:0.10514932;stroke-opacity:1"
       id="rect5794-7-6-7-62" /></g><g
     transform="matrix(3.7040847,0,0,3.7040847,-1213.8536,-1279.8241)"
     inkscape:label="Layer 1"
     id="layer1-0-53-5-9"><rect
       y="409.99838"
       x="463.77545"
       height="15.540142"
       width="17.251316"
       id="rect815-6-5-5-9"
       style="fill:#ff000e;fill-opacity:1;stroke:none;stroke-width:0.12287691;stroke-miterlimit:4;stroke-dasharray:none;stroke-opacity:1" /><path
       d="m 463.97476,410.2204 c -0.0104,0 -0.0193,0.16917 -0.0193,0.37619 v 9.89188 c 0,0.20702 0.009,0.37284 0.0193,0.37284 h 3.72887 v 2.21009 c 0,0.20703 0.009,0.3762 0.0193,0.3762 h 1.68761 v 1.53832 c 0,0.20702 0.009,0.37284 0.0193,0.37284 h 5.9276 c 0.0104,0 0.0193,-0.16582 0.0193,-0.37284 v -1.53832 h 1.69091 c 0.0104,0 0.0193,-0.16917 0.0193,-0.3762 v -2.21009 h 3.72567 c 0.0104,0 0.0193,-0.16582 0.0193,-0.37284 v -9.89188 c 0,-0.20702 -0.009,-0.37619 -0.0193,-0.37619 h -16.83801 z m 1.23758,1.14201 h 1.199 c 0.0104,0 0.0193,0.16582 0.0193,0.37285 v 2.67367 c 0,0.20702 -0.009,0.37284 -0.0193,0.37284 h -1.199 c -0.0104,0 -0.0193,-0.16582 -0.0193,-0.37284 v -2.67367 c 0,-0.20703 0.009,-0.37285 0.0193,-0.37285 z m 1.88049,0 h 1.19898 c 0.0104,0 0.0193,0.16582 0.0193,0.37285 v 2.67367 c 0,0.20702 -0.009,0.37284 -0.0193,0.37284 h -1.19898 c -0.0104,0 -0.0193,-0.16582 -0.0193,-0.37284 v -2.67367 c 0,-0.20703 0.009,-0.37285 0.0193,-0.37285 z m 1.88046,0 h 1.199 c 0.0104,0 0.0193,0.16582 0.0193,0.37285 v 2.67367 c 0,0.20702 -0.009,0.37284 -0.0193,0.37284 h -1.199 c -0.0104,0 -0.0193,-0.16582 -0.0193,-0.37284 v -2.67367 c 0,-0.20703 0.009,-0.37285 0.0193,-0.37285 z m 1.88049,0 h 1.19899 c 0.0104,0 0.0193,0.16582 0.0193,0.37285 v 2.67367 c 0,0.20702 -0.009,0.37284 -0.0193,0.37284 h -1.19899 c -0.0104,0 -0.0193,-0.16582 -0.0193,-0.37284 v -2.67367 c 0,-0.20703 0.009,-0.37285 0.0193,-0.37285 z m 1.88048,0 h 1.20227 c 0.0104,0 0.016,0.16582 0.016,0.37285 v 2.67367 c 0,0.20702 -0.005,0.37284 -0.016,0.37284 h -1.20227 c -0.0104,0 -0.016,-0.16582 -0.016,-0.37284 v -2.67367 c 0,-0.20703 0.005,-0.37285 0.016,-0.37285 z m 1.88366,0 h 1.199 c 0.0104,0 0.016,0.16582 0.016,0.37285 v 2.67367 c 0,0.20702 -0.005,0.37284 -0.016,0.37284 h -1.199 c -0.0104,0 -0.0193,-0.16582 -0.0193,-0.37284 v -2.67367 c 0,-0.20703 0.009,-0.37285 0.0193,-0.37285 z m 1.88048,0 h 1.199 c 0.0104,0 0.0193,0.16582 0.0193,0.37285 v 2.67367 c 0,0.20702 -0.009,0.37284 -0.0193,0.37284 h -1.199 c -0.0104,0 -0.0193,-0.16582 -0.0193,-0.37284 v -2.67367 c 0,-0.20703 0.009,-0.37285 0.0193,-0.37285 z m 1.88047,0 h 1.199 c 0.0104,0 0.0193,0.16582 0.0193,0.37285 v 2.67367 c 0,0.20702 -0.009,0.37284 -0.0193,0.37284 h -1.199 c -0.0104,0 -0.0193,-0.16582 -0.0193,-0.37284 v -2.67367 c 0,-0.20703 0.009,-0.37285 0.0193,-0.37285 z"
       inkscape:connector-curvature="0"
       style="fill:#ffffff;fill-opacity:1;stroke:#fd0000;stroke-width:0.10514932;stroke-opacity:1"
       id="rect5794-7-6-7-56" /></g><g
     transform="matrix(3.7040847,0,0,3.7040847,-1213.8536,-1205.2034)"
     inkscape:label="Layer 1"
     id="layer1-0-53-5-9-9"><rect
       y="409.99838"
       x="463.77545"
       height="15.540142"
       width="17.251316"
       id="rect815-6-5-5-9-8"
       style="fill:#ff000e;fill-opacity:1;stroke:none;stroke-width:0.12287691;stroke-miterlimit:4;stroke-dasharray:none;stroke-opacity:1" /><path
       d="m 463.97476,410.2204 c -0.0104,0 -0.0193,0.16917 -0.0193,0.37619 v 9.89188 c 0,0.20702 0.009,0.37284 0.0193,0.37284 h 3.72887 v 2.21009 c 0,0.20703 0.009,0.3762 0.0193,0.3762 h 1.68761 v 1.53832 c 0,0.20702 0.009,0.37284 0.0193,0.37284 h 5.9276 c 0.0104,0 0.0193,-0.16582 0.0193,-0.37284 v -1.53832 h 1.69091 c 0.0104,0 0.0193,-0.16917 0.0193,-0.3762 v -2.21009 h 3.72567 c 0.0104,0 0.0193,-0.16582 0.0193,-0.37284 v -9.89188 c 0,-0.20702 -0.009,-0.37619 -0.0193,-0.37619 h -16.83801 z m 1.23758,1.14201 h 1.199 c 0.0104,0 0.0193,0.16582 0.0193,0.37285 v 2.67367 c 0,0.20702 -0.009,0.37284 -0.0193,0.37284 h -1.199 c -0.0104,0 -0.0193,-0.16582 -0.0193,-0.37284 v -2.67367 c 0,-0.20703 0.009,-0.37285 0.0193,-0.37285 z m 1.88049,0 h 1.19898 c 0.0104,0 0.0193,0.16582 0.0193,0.37285 v 2.67367 c 0,0.20702 -0.009,0.37284 -0.0193,0.37284 h -1.19898 c -0.0104,0 -0.0193,-0.16582 -0.0193,-0.37284 v -2.67367 c 0,-0.20703 0.009,-0.37285 0.0193,-0.37285 z m 1.88046,0 h 1.199 c 0.0104,0 0.0193,0.16582 0.0193,0.37285 v 2.67367 c 0,0.20702 -0.009,0.37284 -0.0193,0.37284 h -1.199 c -0.0104,0 -0.0193,-0.16582 -0.0193,-0.37284 v -2.67367 c 0,-0.20703 0.009,-0.37285 0.0193,-0.37285 z m 1.88049,0 h 1.19899 c 0.0104,0 0.0193,0.16582 0.0193,0.37285 v 2.67367 c 0,0.20702 -0.009,0.37284 -0.0193,0.37284 h -1.19899 c -0.0104,0 -0.0193,-0.16582 -0.0193,-0.37284 v -2.67367 c 0,-0.20703 0.009,-0.37285 0.0193,-0.37285 z m 1.88048,0 h 1.20227 c 0.0104,0 0.016,0.16582 0.016,0.37285 v 2.67367 c 0,0.20702 -0.005,0.37284 -0.016,0.37284 h -1.20227 c -0.0104,0 -0.016,-0.16582 -0.016,-0.37284 v -2.67367 c 0,-0.20703 0.005,-0.37285 0.016,-0.37285 z m 1.88366,0 h 1.199 c 0.0104,0 0.016,0.16582 0.016,0.37285 v 2.67367 c 0,0.20702 -0.005,0.37284 -0.016,0.37284 h -1.199 c -0.0104,0 -0.0193,-0.16582 -0.0193,-0.37284 v -2.67367 c 0,-0.20703 0.009,-0.37285 0.0193,-0.37285 z m 1.88048,0 h 1.199 c 0.0104,0 0.0193,0.16582 0.0193,0.37285 v 2.67367 c 0,0.20702 -0.009,0.37284 -0.0193,0.37284 h -1.199 c -0.0104,0 -0.0193,-0.16582 -0.0193,-0.37284 v -2.67367 c 0,-0.20703 0.009,-0.37285 0.0193,-0.37285 z m 1.88047,0 h 1.199 c 0.0104,0 0.0193,0.16582 0.0193,0.37285 v 2.67367 c 0,0.20702 -0.009,0.37284 -0.0193,0.37284 h -1.199 c -0.0104,0 -0.0193,-0.16582 -0.0193,-0.37284 v -2.67367 c 0,-0.20703 0.009,-0.37285 0.0193,-0.37285 z"
       inkscape:connector-curvature="0"
       style="fill:#ffffff;fill-opacity:1;stroke:#fd0000;stroke-width:0.10514932;stroke-opacity:1"
       id="rect5794-7-6-7-56-1" /></g><g
     transform="matrix(3.7040847,0,0,3.7040847,-1213.8536,-1130.5826)"
     inkscape:label="Layer 1"
     id="layer1-0-53-5-9-3"><rect
       y="409.99838"
       x="463.77545"
       height="15.540142"
       width="17.251316"
       id="rect815-6-5-5-9-89"
       style="fill:#ff000e;fill-opacity:1;stroke:none;stroke-width:0.12287691;stroke-miterlimit:4;stroke-dasharray:none;stroke-opacity:1" /><path
       d="m 463.97476,410.2204 c -0.0104,0 -0.0193,0.16917 -0.0193,0.37619 v 9.89188 c 0,0.20702 0.009,0.37284 0.0193,0.37284 h 3.72887 v 2.21009 c 0,0.20703 0.009,0.3762 0.0193,0.3762 h 1.68761 v 1.53832 c 0,0.20702 0.009,0.37284 0.0193,0.37284 h 5.9276 c 0.0104,0 0.0193,-0.16582 0.0193,-0.37284 v -1.53832 h 1.69091 c 0.0104,0 0.0193,-0.16917 0.0193,-0.3762 v -2.21009 h 3.72567 c 0.0104,0 0.0193,-0.16582 0.0193,-0.37284 v -9.89188 c 0,-0.20702 -0.009,-0.37619 -0.0193,-0.37619 h -16.83801 z m 1.23758,1.14201 h 1.199 c 0.0104,0 0.0193,0.16582 0.0193,0.37285 v 2.67367 c 0,0.20702 -0.009,0.37284 -0.0193,0.37284 h -1.199 c -0.0104,0 -0.0193,-0.16582 -0.0193,-0.37284 v -2.67367 c 0,-0.20703 0.009,-0.37285 0.0193,-0.37285 z m 1.88049,0 h 1.19898 c 0.0104,0 0.0193,0.16582 0.0193,0.37285 v 2.67367 c 0,0.20702 -0.009,0.37284 -0.0193,0.37284 h -1.19898 c -0.0104,0 -0.0193,-0.16582 -0.0193,-0.37284 v -2.67367 c 0,-0.20703 0.009,-0.37285 0.0193,-0.37285 z m 1.88046,0 h 1.199 c 0.0104,0 0.0193,0.16582 0.0193,0.37285 v 2.67367 c 0,0.20702 -0.009,0.37284 -0.0193,0.37284 h -1.199 c -0.0104,0 -0.0193,-0.16582 -0.0193,-0.37284 v -2.67367 c 0,-0.20703 0.009,-0.37285 0.0193,-0.37285 z m 1.88049,0 h 1.19899 c 0.0104,0 0.0193,0.16582 0.0193,0.37285 v 2.67367 c 0,0.20702 -0.009,0.37284 -0.0193,0.37284 h -1.19899 c -0.0104,0 -0.0193,-0.16582 -0.0193,-0.37284 v -2.67367 c 0,-0.20703 0.009,-0.37285 0.0193,-0.37285 z m 1.88048,0 h 1.20227 c 0.0104,0 0.016,0.16582 0.016,0.37285 v 2.67367 c 0,0.20702 -0.005,0.37284 -0.016,0.37284 h -1.20227 c -0.0104,0 -0.016,-0.16582 -0.016,-0.37284 v -2.67367 c 0,-0.20703 0.005,-0.37285 0.016,-0.37285 z m 1.88366,0 h 1.199 c 0.0104,0 0.016,0.16582 0.016,0.37285 v 2.67367 c 0,0.20702 -0.005,0.37284 -0.016,0.37284 h -1.199 c -0.0104,0 -0.0193,-0.16582 -0.0193,-0.37284 v -2.67367 c 0,-0.20703 0.009,-0.37285 0.0193,-0.37285 z m 1.88048,0 h 1.199 c 0.0104,0 0.0193,0.16582 0.0193,0.37285 v 2.67367 c 0,0.20702 -0.009,0.37284 -0.0193,0.37284 h -1.199 c -0.0104,0 -0.0193,-0.16582 -0.0193,-0.37284 v -2.67367 c 0,-0.20703 0.009,-0.37285 0.0193,-0.37285 z m 1.88047,0 h 1.199 c 0.0104,0 0.0193,0.16582 0.0193,0.37285 v 2.67367 c 0,0.20702 -0.009,0.37284 -0.0193,0.37284 h -1.199 c -0.0104,0 -0.0193,-0.16582 -0.0193,-0.37284 v -2.67367 c 0,-0.20703 0.009,-0.37285 0.0193,-0.37285 z"
       inkscape:connector-curvature="0"
       style="fill:#ffffff;fill-opacity:1;stroke:#fd0000;stroke-width:0.10514932;stroke-opacity:1"
       id="rect5794-7-6-7-56-4" /></g><g
     transform="matrix(3.7040847,0,0,3.7040847,-1097.6205,-1343.9924)"
     inkscape:label="Layer 1"
     id="layer1-0-53-5-9-4"><rect
       y="409.99838"
       x="463.77545"
       height="15.540142"
       width="17.251316"
       id="rect815-6-5-5-9-3"
       style="fill:#ff000e;fill-opacity:1;stroke:none;stroke-width:0.12287691;stroke-miterlimit:4;stroke-dasharray:none;stroke-opacity:1" /><path
       d="m 463.97476,410.2204 c -0.0104,0 -0.0193,0.16917 -0.0193,0.37619 v 9.89188 c 0,0.20702 0.009,0.37284 0.0193,0.37284 h 3.72887 v 2.21009 c 0,0.20703 0.009,0.3762 0.0193,0.3762 h 1.68761 v 1.53832 c 0,0.20702 0.009,0.37284 0.0193,0.37284 h 5.9276 c 0.0104,0 0.0193,-0.16582 0.0193,-0.37284 v -1.53832 h 1.69091 c 0.0104,0 0.0193,-0.16917 0.0193,-0.3762 v -2.21009 h 3.72567 c 0.0104,0 0.0193,-0.16582 0.0193,-0.37284 v -9.89188 c 0,-0.20702 -0.009,-0.37619 -0.0193,-0.37619 h -16.83801 z m 1.23758,1.14201 h 1.199 c 0.0104,0 0.0193,0.16582 0.0193,0.37285 v 2.67367 c 0,0.20702 -0.009,0.37284 -0.0193,0.37284 h -1.199 c -0.0104,0 -0.0193,-0.16582 -0.0193,-0.37284 v -2.67367 c 0,-0.20703 0.009,-0.37285 0.0193,-0.37285 z m 1.88049,0 h 1.19898 c 0.0104,0 0.0193,0.16582 0.0193,0.37285 v 2.67367 c 0,0.20702 -0.009,0.37284 -0.0193,0.37284 h -1.19898 c -0.0104,0 -0.0193,-0.16582 -0.0193,-0.37284 v -2.67367 c 0,-0.20703 0.009,-0.37285 0.0193,-0.37285 z m 1.88046,0 h 1.199 c 0.0104,0 0.0193,0.16582 0.0193,0.37285 v 2.67367 c 0,0.20702 -0.009,0.37284 -0.0193,0.37284 h -1.199 c -0.0104,0 -0.0193,-0.16582 -0.0193,-0.37284 v -2.67367 c 0,-0.20703 0.009,-0.37285 0.0193,-0.37285 z m 1.88049,0 h 1.19899 c 0.0104,0 0.0193,0.16582 0.0193,0.37285 v 2.67367 c 0,0.20702 -0.009,0.37284 -0.0193,0.37284 h -1.19899 c -0.0104,0 -0.0193,-0.16582 -0.0193,-0.37284 v -2.67367 c 0,-0.20703 0.009,-0.37285 0.0193,-0.37285 z m 1.88048,0 h 1.20227 c 0.0104,0 0.016,0.16582 0.016,0.37285 v 2.67367 c 0,0.20702 -0.005,0.37284 -0.016,0.37284 h -1.20227 c -0.0104,0 -0.016,-0.16582 -0.016,-0.37284 v -2.67367 c 0,-0.20703 0.005,-0.37285 0.016,-0.37285 z m 1.88366,0 h 1.199 c 0.0104,0 0.016,0.16582 0.016,0.37285 v 2.67367 c 0,0.20702 -0.005,0.37284 -0.016,0.37284 h -1.199 c -0.0104,0 -0.0193,-0.16582 -0.0193,-0.37284 v -2.67367 c 0,-0.20703 0.009,-0.37285 0.0193,-0.37285 z m 1.88048,0 h 1.199 c 0.0104,0 0.0193,0.16582 0.0193,0.37285 v 2.67367 c 0,0.20702 -0.009,0.37284 -0.0193,0.37284 h -1.199 c -0.0104,0 -0.0193,-0.16582 -0.0193,-0.37284 v -2.67367 c 0,-0.20703 0.009,-0.37285 0.0193,-0.37285 z m 1.88047,0 h 1.199 c 0.0104,0 0.0193,0.16582 0.0193,0.37285 v 2.67367 c 0,0.20702 -0.009,0.37284 -0.0193,0.37284 h -1.199 c -0.0104,0 -0.0193,-0.16582 -0.0193,-0.37284 v -2.67367 c 0,-0.20703 0.009,-0.37285 0.0193,-0.37285 z"
       inkscape:connector-curvature="0"
       style="fill:#ffffff;fill-opacity:1;stroke:#fd0000;stroke-width:0.10514932;stroke-opacity:1"
       id="rect5794-7-6-7-56-18" /></g><g
     transform="matrix(3.7040847,0,0,3.7040847,-1097.6205,-1413.8604)"
     inkscape:label="Layer 1"
     id="layer1-0-53-5-9-34"><rect
       y="409.99838"
       x="463.77545"
       height="15.540142"
       width="17.251316"
       id="rect815-6-5-5-9-7"
       style="fill:#ff000e;fill-opacity:1;stroke:none;stroke-width:0.12287691;stroke-miterlimit:4;stroke-dasharray:none;stroke-opacity:1" /><path
       d="m 463.97476,410.2204 c -0.0104,0 -0.0193,0.16917 -0.0193,0.37619 v 9.89188 c 0,0.20702 0.009,0.37284 0.0193,0.37284 h 3.72887 v 2.21009 c 0,0.20703 0.009,0.3762 0.0193,0.3762 h 1.68761 v 1.53832 c 0,0.20702 0.009,0.37284 0.0193,0.37284 h 5.9276 c 0.0104,0 0.0193,-0.16582 0.0193,-0.37284 v -1.53832 h 1.69091 c 0.0104,0 0.0193,-0.16917 0.0193,-0.3762 v -2.21009 h 3.72567 c 0.0104,0 0.0193,-0.16582 0.0193,-0.37284 v -9.89188 c 0,-0.20702 -0.009,-0.37619 -0.0193,-0.37619 h -16.83801 z m 1.23758,1.14201 h 1.199 c 0.0104,0 0.0193,0.16582 0.0193,0.37285 v 2.67367 c 0,0.20702 -0.009,0.37284 -0.0193,0.37284 h -1.199 c -0.0104,0 -0.0193,-0.16582 -0.0193,-0.37284 v -2.67367 c 0,-0.20703 0.009,-0.37285 0.0193,-0.37285 z m 1.88049,0 h 1.19898 c 0.0104,0 0.0193,0.16582 0.0193,0.37285 v 2.67367 c 0,0.20702 -0.009,0.37284 -0.0193,0.37284 h -1.19898 c -0.0104,0 -0.0193,-0.16582 -0.0193,-0.37284 v -2.67367 c 0,-0.20703 0.009,-0.37285 0.0193,-0.37285 z m 1.88046,0 h 1.199 c 0.0104,0 0.0193,0.16582 0.0193,0.37285 v 2.67367 c 0,0.20702 -0.009,0.37284 -0.0193,0.37284 h -1.199 c -0.0104,0 -0.0193,-0.16582 -0.0193,-0.37284 v -2.67367 c 0,-0.20703 0.009,-0.37285 0.0193,-0.37285 z m 1.88049,0 h 1.19899 c 0.0104,0 0.0193,0.16582 0.0193,0.37285 v 2.67367 c 0,0.20702 -0.009,0.37284 -0.0193,0.37284 h -1.19899 c -0.0104,0 -0.0193,-0.16582 -0.0193,-0.37284 v -2.67367 c 0,-0.20703 0.009,-0.37285 0.0193,-0.37285 z m 1.88048,0 h 1.20227 c 0.0104,0 0.016,0.16582 0.016,0.37285 v 2.67367 c 0,0.20702 -0.005,0.37284 -0.016,0.37284 h -1.20227 c -0.0104,0 -0.016,-0.16582 -0.016,-0.37284 v -2.67367 c 0,-0.20703 0.005,-0.37285 0.016,-0.37285 z m 1.88366,0 h 1.199 c 0.0104,0 0.016,0.16582 0.016,0.37285 v 2.67367 c 0,0.20702 -0.005,0.37284 -0.016,0.37284 h -1.199 c -0.0104,0 -0.0193,-0.16582 -0.0193,-0.37284 v -2.67367 c 0,-0.20703 0.009,-0.37285 0.0193,-0.37285 z m 1.88048,0 h 1.199 c 0.0104,0 0.0193,0.16582 0.0193,0.37285 v 2.67367 c 0,0.20702 -0.009,0.37284 -0.0193,0.37284 h -1.199 c -0.0104,0 -0.0193,-0.16582 -0.0193,-0.37284 v -2.67367 c 0,-0.20703 0.009,-0.37285 0.0193,-0.37285 z m 1.88047,0 h 1.199 c 0.0104,0 0.0193,0.16582 0.0193,0.37285 v 2.67367 c 0,0.20702 -0.009,0.37284 -0.0193,0.37284 h -1.199 c -0.0104,0 -0.0193,-0.16582 -0.0193,-0.37284 v -2.67367 c 0,-0.20703 0.009,-0.37285 0.0193,-0.37285 z"
       inkscape:connector-curvature="0"
       style="fill:#ffffff;fill-opacity:1;stroke:#fd0000;stroke-width:0.10514932;stroke-opacity:1"
       id="rect5794-7-6-7-56-6" /></g><g
     transform="matrix(3.7040847,0,0,3.7040847,-1097.6205,-1483.7285)"
     inkscape:label="Layer 1"
     id="layer1-0-53-5-9-48"><rect
       y="409.99838"
       x="463.77545"
       height="15.540142"
       width="17.251316"
       id="rect815-6-5-5-9-2"
       style="fill:#ff000e;fill-opacity:1;stroke:none;stroke-width:0.12287691;stroke-miterlimit:4;stroke-dasharray:none;stroke-opacity:1" /><path
       d="m 463.97476,410.2204 c -0.0104,0 -0.0193,0.16917 -0.0193,0.37619 v 9.89188 c 0,0.20702 0.009,0.37284 0.0193,0.37284 h 3.72887 v 2.21009 c 0,0.20703 0.009,0.3762 0.0193,0.3762 h 1.68761 v 1.53832 c 0,0.20702 0.009,0.37284 0.0193,0.37284 h 5.9276 c 0.0104,0 0.0193,-0.16582 0.0193,-0.37284 v -1.53832 h 1.69091 c 0.0104,0 0.0193,-0.16917 0.0193,-0.3762 v -2.21009 h 3.72567 c 0.0104,0 0.0193,-0.16582 0.0193,-0.37284 v -9.89188 c 0,-0.20702 -0.009,-0.37619 -0.0193,-0.37619 h -16.83801 z m 1.23758,1.14201 h 1.199 c 0.0104,0 0.0193,0.16582 0.0193,0.37285 v 2.67367 c 0,0.20702 -0.009,0.37284 -0.0193,0.37284 h -1.199 c -0.0104,0 -0.0193,-0.16582 -0.0193,-0.37284 v -2.67367 c 0,-0.20703 0.009,-0.37285 0.0193,-0.37285 z m 1.88049,0 h 1.19898 c 0.0104,0 0.0193,0.16582 0.0193,0.37285 v 2.67367 c 0,0.20702 -0.009,0.37284 -0.0193,0.37284 h -1.19898 c -0.0104,0 -0.0193,-0.16582 -0.0193,-0.37284 v -2.67367 c 0,-0.20703 0.009,-0.37285 0.0193,-0.37285 z m 1.88046,0 h 1.199 c 0.0104,0 0.0193,0.16582 0.0193,0.37285 v 2.67367 c 0,0.20702 -0.009,0.37284 -0.0193,0.37284 h -1.199 c -0.0104,0 -0.0193,-0.16582 -0.0193,-0.37284 v -2.67367 c 0,-0.20703 0.009,-0.37285 0.0193,-0.37285 z m 1.88049,0 h 1.19899 c 0.0104,0 0.0193,0.16582 0.0193,0.37285 v 2.67367 c 0,0.20702 -0.009,0.37284 -0.0193,0.37284 h -1.19899 c -0.0104,0 -0.0193,-0.16582 -0.0193,-0.37284 v -2.67367 c 0,-0.20703 0.009,-0.37285 0.0193,-0.37285 z m 1.88048,0 h 1.20227 c 0.0104,0 0.016,0.16582 0.016,0.37285 v 2.67367 c 0,0.20702 -0.005,0.37284 -0.016,0.37284 h -1.20227 c -0.0104,0 -0.016,-0.16582 -0.016,-0.37284 v -2.67367 c 0,-0.20703 0.005,-0.37285 0.016,-0.37285 z m 1.88366,0 h 1.199 c 0.0104,0 0.016,0.16582 0.016,0.37285 v 2.67367 c 0,0.20702 -0.005,0.37284 -0.016,0.37284 h -1.199 c -0.0104,0 -0.0193,-0.16582 -0.0193,-0.37284 v -2.67367 c 0,-0.20703 0.009,-0.37285 0.0193,-0.37285 z m 1.88048,0 h 1.199 c 0.0104,0 0.0193,0.16582 0.0193,0.37285 v 2.67367 c 0,0.20702 -0.009,0.37284 -0.0193,0.37284 h -1.199 c -0.0104,0 -0.0193,-0.16582 -0.0193,-0.37284 v -2.67367 c 0,-0.20703 0.009,-0.37285 0.0193,-0.37285 z m 1.88047,0 h 1.199 c 0.0104,0 0.0193,0.16582 0.0193,0.37285 v 2.67367 c 0,0.20702 -0.009,0.37284 -0.0193,0.37284 h -1.199 c -0.0104,0 -0.0193,-0.16582 -0.0193,-0.37284 v -2.67367 c 0,-0.20703 0.009,-0.37285 0.0193,-0.37285 z"
       inkscape:connector-curvature="0"
       style="fill:#ffffff;fill-opacity:1;stroke:#fd0000;stroke-width:0.10514932;stroke-opacity:1"
       id="rect5794-7-6-7-56-9" /></g></svg>