<?xml version="1.0" encoding="UTF-8" standalone="no"?>
<!-- Created with Inkscape (http://www.inkscape.org/) -->

<svg
   xmlns:dc="http://purl.org/dc/elements/1.1/"
   xmlns:cc="http://creativecommons.org/ns#"
   xmlns:rdf="http://www.w3.org/1999/02/22-rdf-syntax-ns#"
   xmlns:svg="http://www.w3.org/2000/svg"
   xmlns="http://www.w3.org/2000/svg"
   xmlns:sodipodi="http://sodipodi.sourceforge.net/DTD/sodipodi-0.dtd"
   xmlns:inkscape="http://www.inkscape.org/namespaces/inkscape"
   width="525mm"
   height="375mm"
   viewBox="0 0 525 375"
   version="1.1"
   id="svg8"
   inkscape:version="0.92.1 r15371"
   sodipodi:docname="bud_32026.svg">
  <defs
     id="defs2">
    <marker
       style="overflow:visible"
       refY="0"
       refX="0"
       orient="auto"
       id="DistanceX">
      <path
         id="path4487"
         style="stroke:#000000;stroke-width:0.5"
         d="M 3,-3 -3,3 M 0,-5 V 5"
         inkscape:connector-curvature="0" />
    </marker>
    <pattern
       y="0"
       x="0"
       width="8"
       patternUnits="userSpaceOnUse"
       id="Hatch"
       height="8">
      <path
         id="path4490"
         stroke-width="0.25"
         stroke="#000000"
         linecap="square"
         d="M8 4 l-4,4" />
      <path
         id="path4492"
         stroke-width="0.25"
         stroke="#000000"
         linecap="square"
         d="M6 2 l-4,4" />
      <path
         id="path4494"
         stroke-width="0.25"
         stroke="#000000"
         linecap="square"
         d="M4 0 l-4,4" />
    </pattern>
    <symbol
       id="*MODEL_SPACE" />
    <symbol
       id="*PAPER_SPACE" />
    <marker
       style="overflow:visible"
       refY="0"
       refX="0"
       orient="auto"
       id="DistanceX-5">
      <path
         id="path4553"
         style="stroke:#000000;stroke-width:0.5"
         d="M 3,-3 -3,3 M 0,-5 V 5"
         inkscape:connector-curvature="0" />
    </marker>
    <pattern
       y="0"
       x="0"
       width="8"
       patternUnits="userSpaceOnUse"
       id="Hatch-4"
       height="8">
      <path
         id="path4556"
         stroke-width="0.25"
         stroke="#000000"
         linecap="square"
         d="M8 4 l-4,4" />
      <path
         id="path4558"
         stroke-width="0.25"
         stroke="#000000"
         linecap="square"
         d="M6 2 l-4,4" />
      <path
         id="path4560"
         stroke-width="0.25"
         stroke="#000000"
         linecap="square"
         d="M4 0 l-4,4" />
    </pattern>
    <symbol
       id="*MODEL_SPACE-1" />
    <symbol
       id="*PAPER_SPACE-0" />
  </defs>
  <sodipodi:namedview
     id="base"
     pagecolor="#ffffff"
     bordercolor="#666666"
     borderopacity="1.0"
     inkscape:pageopacity="0.0"
     inkscape:pageshadow="2"
     inkscape:zoom="2.8451985"
     inkscape:cx="1120.081"
     inkscape:cy="7.2071522"
     inkscape:document-units="mm"
     inkscape:current-layer="layer1"
     showgrid="false"
     inkscape:window-width="1920"
     inkscape:window-height="1017"
     inkscape:window-x="-8"
     inkscape:window-y="-8"
     inkscape:window-maximized="1" />
  <metadata
     id="metadata5">
    <rdf:RDF>
      <cc:Work
         rdf:about="">
        <dc:format>image/svg+xml</dc:format>
        <dc:type
           rdf:resource="http://purl.org/dc/dcmitype/StillImage" />
        <dc:title />
      </cc:Work>
    </rdf:RDF>
  </metadata>
  <g
     inkscape:label="Layer 1"
     inkscape:groupmode="layer"
     id="layer1"
     transform="translate(0,78)">
    <g
       id="g4519"
       inkscape:label="0"
       transform="matrix(-0.26458333,0,0,-0.26458333,0.48791342,220.12098)">
      <path
         id="path4501"
         style="fill:none;stroke:#000000"
         d="M -18.897638,-288.68031 A 18.897638,18.897638 0 0 1 0,-269.78268 V 1103.622 a 18.897638,18.897638 0 0 1 -18.897638,18.8977 H -1008.3024 A 18.897638,18.897638 0 0 1 -1027.2,1103.622 V -269.78268 a 18.897638,18.897638 0 0 1 18.8976,-18.89763 z"
         inkscape:connector-curvature="0" />
      <path
         id="path4503"
         style="fill:none;stroke:#000000"
         d="m -792.68031,-262.22362 a 7.748035,7.748035 0 1 0 -15.49607,0 7.748035,7.748035 0 1 0 15.49607,0 z"
         inkscape:connector-curvature="0" />
      <path
         id="path4505"
         style="fill:none;stroke:#000000"
         d="m -143.43307,-262.22362 a 7.7480315,7.7480315 0 1 0 -15.49606,0 7.7480315,7.7480315 0 1 0 15.49606,0 z"
         inkscape:connector-curvature="0" />
      <path
         id="path4507"
         style="fill:none;stroke:#000000"
         d="m -792.68031,1096.063 a 7.748035,7.748035 0 1 0 -15.49607,0 7.748035,7.748035 0 1 0 15.49607,0 z"
         inkscape:connector-curvature="0" />
      <path
         id="path4509"
         style="fill:none;stroke:#000000"
         d="m -143.43307,1096.063 a 7.7480315,7.7480315 0 1 0 -15.49606,0 7.7480315,7.7480315 0 1 0 15.49606,0 z"
         inkscape:connector-curvature="0" />
      <path
         id="path4511"
         style="fill:none;stroke:#000000"
         d="m -941.33291,-197.71842 a 6.4252,6.4252 0 1 0 -12.8504,0 6.4252,6.4252 0 1 0 12.8504,0 z"
         inkscape:connector-curvature="0" />
      <path
         id="path4513"
         style="fill:none;stroke:#000000"
         d="m -941.3348,1031.5616 a 6.4252,6.4252 0 1 0 -12.8504,0 6.4252,6.4252 0 1 0 12.8504,0 z"
         inkscape:connector-curvature="0" />
      <path
         id="path4515"
         style="fill:none;stroke:#000000"
         d="m -73.014803,1031.5597 a 6.425197,6.425197 0 1 0 -12.850394,0 6.425197,6.425197 0 1 0 12.850394,0 z"
         inkscape:connector-curvature="0" />
      <path
         id="path4517"
         style="fill:none;stroke:#000000"
         d="m -73.012913,-197.72031 a 6.425197,6.425197 0 1 0 -12.850394,0 6.425197,6.425197 0 1 0 12.850394,0 z"
         inkscape:connector-curvature="0" />
    </g>
    <g
       id="g4569"
       inkscape:label="0"
       transform="matrix(-0.26458333,0,0,-0.26458333,272.2715,220.08262)">
      <path
         id="path4567"
         style="fill:none;stroke:#000000"
         d="m 0,1103.622 c 3.4241734e-5,10.4369 -8.4607365,18.8977 -18.897638,18.8977 H -143.62205 l 0.18878,-26.4013 c 0.031,-4.2901 -3.43013,-7.7887 -7.72033,-7.8039 -4.2902,-0.015 -7.77605,3.4587 -7.77553,7.7489 v 26.4567 h -633.75118 v -26.4567 c 0,-4.2791 -3.46891,-7.748 -7.74804,-7.748 -4.27912,0 -7.74803,3.4689 -7.74803,7.748 v 26.4567 l -124.53543,-4e-4 c -10.4369,0 -18.89767,-8.4608 -18.89764,-18.8977 V -269.78268 c 0,-10.43687 8.46077,-18.89763 18.89764,-18.89763 h 124.53543 v 26.45669 c 0,4.27912 3.46891,7.74803 7.74803,7.74803 4.27913,0 7.74804,-3.46891 7.74804,-7.74803 v -26.45669 h 30.04724 v 56.69291 c 0,10.43688 8.46076,18.89764 18.89764,18.89764 h 535.86141 c 10.43688,0 18.89764,-8.46076 18.89764,-18.89764 v -56.69291 h 30.04725 v 26.45669 c 0.003,4.27724 3.47079,7.74321 7.74803,7.74321 4.27724,0 7.74537,-3.46597 7.74803,-7.74321 v -26.45669 H -18.897638 C -8.4607639,-288.68031 0,-280.21955 0,-269.78268"
         inkscape:connector-curvature="0"
         sodipodi:nodetypes="csccscccssscccsscsssccsssscccsccsc" />
    </g>
    <g
       aria-label="Bud Box 32026 Double Decker Mounting Plates by JDeation.com "
       transform="matrix(0.26458333,0,0,0.26458333,-7.2519953,-54.982798)"
       style="font-style:normal;font-weight:normal;font-size:16px;line-height:1.25;font-family:sans-serif;letter-spacing:0px;word-spacing:0px;fill:#fb0000;fill-opacity:1;stroke:none"
       id="flowRoot4599">
      <path
         d="m 230.4707,1312.4745 q 0,0.9395 -0.35547,1.6589 -0.35546,0.7194 -0.95638,1.1849 -0.71093,0.5586 -1.56575,0.7956 -0.84635,0.2369 -2.1582,0.2369 h -4.46875 v -12.6022 h 3.73242 q 1.37956,0 2.0651,0.1016 0.68555,0.1015 1.31185,0.4232 0.69401,0.3639 1.00716,0.9394 0.31315,0.5671 0.31315,1.3626 0,0.8972 -0.45703,1.5319 -0.45703,0.6263 -1.21875,1.0072 v 0.068 q 1.278,0.2624 2.01433,1.1257 0.73632,0.8548 0.73632,2.1666 z m -2.81836,-5.679 q 0,-0.457 -0.15234,-0.7702 -0.15234,-0.3131 -0.49089,-0.5078 -0.39778,-0.2285 -0.96484,-0.2793 -0.56706,-0.059 -1.40495,-0.059 h -1.99739 v 3.6393 h 2.16666 q 0.78711,0 1.25261,-0.076 0.46549,-0.085 0.86328,-0.3385 0.39779,-0.2539 0.55859,-0.6517 0.16927,-0.4063 0.16927,-0.9564 z m 1.07487,5.7467 q 0,-0.7617 -0.22851,-1.2102 -0.22852,-0.4486 -0.82943,-0.7618 -0.40625,-0.2116 -0.99023,-0.2708 -0.57552,-0.068 -1.40495,-0.068 h -2.63216 v 4.6888 h 2.21745 q 1.10026,0 1.80273,-0.11 0.70247,-0.1185 1.15104,-0.4232 0.47396,-0.3301 0.69401,-0.7533 0.22005,-0.4231 0.22005,-1.0918 z"
         style="font-size:17.33333397px"
         id="path4695" />
      <path
         d="m 240.55925,1316.3508 h -1.59115 v -1.0494 q -0.80404,0.6347 -1.54037,0.9733 -0.73632,0.3385 -1.625,0.3385 -1.48958,0 -2.31901,-0.9056 -0.82942,-0.9141 -0.82942,-2.6745 v -6.136 h 1.59114 v 5.3828 q 0,0.7194 0.0677,1.2356 0.0677,0.5079 0.28776,0.8718 0.22852,0.3724 0.59245,0.5417 0.36393,0.1692 1.05794,0.1692 0.61784,0 1.34571,-0.3216 0.73632,-0.3216 1.37109,-0.8209 v -7.0586 h 1.59115 z"
         style="font-size:17.33333397px"
         id="path4697" />
      <path
         d="m 251.35872,1316.3508 h -1.59114 v -0.9902 q -0.68555,0.5924 -1.43034,0.9225 -0.74479,0.3301 -1.61654,0.3301 -1.69271,0 -2.6914,-1.3034 -0.99024,-1.3034 -0.99024,-3.6139 0,-1.2018 0.33854,-2.1413 0.34701,-0.9394 0.93099,-1.5996 0.57552,-0.6432 1.33724,-0.9818 0.77019,-0.3385 1.59115,-0.3385 0.74479,0 1.32031,0.1608 0.57552,0.1523 1.21029,0.4824 v -4.0963 h 1.59114 z m -1.59114,-2.3274 v -5.4252 q -0.64323,-0.2877 -1.15104,-0.3978 -0.50782,-0.11 -1.10873,-0.11 -1.33724,0 -2.08203,0.931 -0.74479,0.931 -0.74479,2.6406 0,1.6843 0.57552,2.5645 0.57552,0.8717 1.84505,0.8717 0.67709,0 1.3711,-0.2962 0.69401,-0.3047 1.29492,-0.7786 z"
         style="font-size:17.33333397px"
         id="path4699" />
      <path
         d="m 270.2155,1312.4745 q 0,0.9395 -0.35547,1.6589 -0.35547,0.7194 -0.95638,1.1849 -0.71094,0.5586 -1.56576,0.7956 -0.84635,0.2369 -2.1582,0.2369 h -4.46875 v -12.6022 h 3.73242 q 1.37956,0 2.06511,0.1016 0.68554,0.1015 1.31184,0.4232 0.69401,0.3639 1.00717,0.9394 0.31315,0.5671 0.31315,1.3626 0,0.8972 -0.45703,1.5319 -0.45704,0.6263 -1.21875,1.0072 v 0.068 q 1.27799,0.2624 2.01432,1.1257 0.73633,0.8548 0.73633,2.1666 z m -2.81836,-5.679 q 0,-0.457 -0.15235,-0.7702 -0.15234,-0.3131 -0.49088,-0.5078 -0.39779,-0.2285 -0.96485,-0.2793 -0.56705,-0.059 -1.40494,-0.059 h -1.9974 v 3.6393 h 2.16667 q 0.78711,0 1.2526,-0.076 0.4655,-0.085 0.86328,-0.3385 0.39779,-0.2539 0.5586,-0.6517 0.16927,-0.4063 0.16927,-0.9564 z m 1.07487,5.7467 q 0,-0.7617 -0.22852,-1.2102 -0.22851,-0.4486 -0.82943,-0.7618 -0.40625,-0.2116 -0.99023,-0.2708 -0.57552,-0.068 -1.40495,-0.068 h -2.63216 v 4.6888 h 2.21745 q 1.10026,0 1.80273,-0.11 0.70248,-0.1185 1.15104,-0.4232 0.47396,-0.3301 0.69401,-0.7533 0.22006,-0.4231 0.22006,-1.0918 z"
         style="font-size:17.33333397px"
         id="path4701" />
      <path
         d="m 280.52409,1311.6282 q 0,2.3105 -1.1849,3.6478 -1.18489,1.3372 -3.17382,1.3372 -2.00586,0 -3.19076,-1.3372 -1.17643,-1.3373 -1.17643,-3.6478 0,-2.3106 1.17643,-3.6478 1.1849,-1.3457 3.19076,-1.3457 1.98893,0 3.17382,1.3457 1.1849,1.3372 1.1849,3.6478 z m -1.64193,0 q 0,-1.8366 -0.7194,-2.7253 -0.7194,-0.8971 -1.99739,-0.8971 -1.29493,0 -2.01433,0.8971 -0.71093,0.8887 -0.71093,2.7253 0,1.7773 0.7194,2.6998 0.7194,0.9141 2.00586,0.9141 1.26953,0 1.98893,-0.9056 0.72786,-0.9141 0.72786,-2.7083 z"
         style="font-size:17.33333397px"
         id="path4703" />
      <path
         d="m 291.01042,1316.3508 h -2.00586 l -2.68294,-3.6308 -2.69987,3.6308 h -1.85352 l 3.6901,-4.7142 -3.65625,-4.7395 h 2.00586 l 2.66602,3.5716 2.67448,-3.5716 h 1.86198 l -3.7155,4.6549 z"
         style="font-size:17.33333397px"
         id="path4705" />
      <path
         d="m 306.39713,1310.2825 q 0.40625,0.3639 0.66862,0.914 0.26237,0.5502 0.26237,1.4219 0,0.8633 -0.31315,1.5827 -0.31315,0.7194 -0.88021,1.2526 -0.63476,0.5924 -1.49804,0.8802 -0.85482,0.2793 -1.87891,0.2793 -1.04948,0 -2.0651,-0.2539 -1.01563,-0.2454 -1.66732,-0.5417 v -1.7688 h 0.12695 q 0.7194,0.4739 1.69271,0.7871 0.97331,0.3131 1.87891,0.3131 0.5332,0 1.13411,-0.1777 0.60091,-0.1778 0.97331,-0.5248 0.38932,-0.3724 0.57552,-0.8209 0.19466,-0.4486 0.19466,-1.1341 0,-0.6771 -0.22005,-1.1172 -0.21159,-0.4486 -0.59245,-0.7025 -0.38086,-0.2624 -0.92253,-0.3555 -0.54166,-0.1015 -1.16796,-0.1015 h -0.76172 v -1.405 h 0.59244 q 1.28646,0 2.04818,-0.5332 0.77018,-0.5417 0.77018,-1.5742 0,-0.457 -0.19466,-0.7956 -0.19466,-0.347 -0.54166,-0.567 -0.36394,-0.2201 -0.77865,-0.3047 -0.41471,-0.085 -0.93945,-0.085 -0.80404,0 -1.70964,0.2878 -0.9056,0.2878 -1.70963,0.8125 h -0.0846 v -1.7689 q 0.60091,-0.2962 1.59961,-0.5416 1.00716,-0.2539 1.94661,-0.2539 0.92253,0 1.625,0.1692 0.70248,0.1693 1.26954,0.5417 0.60937,0.4062 0.92252,0.9818 0.31315,0.5755 0.31315,1.3457 0,1.0494 -0.74479,1.8366 -0.73633,0.7786 -1.74349,0.9817 v 0.1185 q 0.40625,0.068 0.93099,0.2878 0.52474,0.2116 0.88867,0.5332 z"
         style="font-size:17.33333397px"
         id="path4707" />
      <path
         d="m 318.54232,1316.3508 h -8.53125 v -1.7688 q 0.88867,-0.7618 1.77734,-1.5235 0.89714,-0.7617 1.66732,-1.515 1.625,-1.5742 2.22591,-2.4967 0.60091,-0.931 0.60091,-2.0059 0,-0.9817 -0.65169,-1.5319 -0.64323,-0.5586 -1.80273,-0.5586 -0.77019,0 -1.66732,0.2709 -0.89714,0.2708 -1.75196,0.8294 h -0.0846 v -1.7773 q 0.60091,-0.2963 1.59961,-0.5417 1.00716,-0.2454 1.94661,-0.2454 1.93815,0 3.03841,0.9394 1.10026,0.931 1.10026,2.5306 0,0.7194 -0.18619,1.3457 -0.17774,0.6178 -0.53321,1.1764 -0.33007,0.5248 -0.77864,1.0326 -0.44011,0.5078 -1.07487,1.1256 -0.9056,0.8887 -1.87044,1.7266 -0.96485,0.8294 -1.80274,1.5404 h 6.7793 z"
         style="font-size:17.33333397px"
         id="path4709" />
      <path
         d="m 329.56185,1310.0455 q 0,3.3939 -1.0664,4.985 -1.05795,1.5827 -3.29232,1.5827 -2.26823,0 -3.31771,-1.6081 -1.04102,-1.608 -1.04102,-4.9427 0,-3.36 1.05795,-4.9596 1.05794,-1.6081 3.30078,-1.6081 2.26823,0 3.30924,1.6335 1.04948,1.625 1.04948,4.9173 z m -2.22591,3.8424 q 0.29622,-0.6855 0.39779,-1.608 0.11002,-0.931 0.11002,-2.2344 0,-1.2865 -0.11002,-2.2344 -0.10157,-0.9479 -0.40625,-1.6081 -0.29623,-0.6516 -0.8125,-0.9817 -0.50782,-0.3301 -1.31185,-0.3301 -0.79558,0 -1.32031,0.3301 -0.51628,0.3301 -0.82097,0.9987 -0.28776,0.6263 -0.39778,1.6334 -0.10157,1.0072 -0.10157,2.209 0,1.3203 0.0931,2.209 0.0931,0.8887 0.39779,1.5912 0.27929,0.6601 0.78711,1.0071 0.51627,0.347 1.36263,0.347 0.79557,0 1.32031,-0.3301 0.52474,-0.33 0.8125,-0.9987 z"
         style="font-size:17.33333397px"
         id="path4711" />
      <path
         d="m 340.61524,1316.3508 h -8.53125 v -1.7688 q 0.88867,-0.7618 1.77734,-1.5235 0.89714,-0.7617 1.66732,-1.515 1.625,-1.5742 2.22591,-2.4967 0.60091,-0.931 0.60091,-2.0059 0,-0.9817 -0.65169,-1.5319 -0.64323,-0.5586 -1.80273,-0.5586 -0.77019,0 -1.66732,0.2709 -0.89714,0.2708 -1.75195,0.8294 h -0.0846 v -1.7773 q 0.60091,-0.2963 1.59961,-0.5417 1.00716,-0.2454 1.94661,-0.2454 1.93816,0 3.03842,0.9394 1.10026,0.931 1.10026,2.5306 0,0.7194 -0.1862,1.3457 -0.17774,0.6178 -0.5332,1.1764 -0.33008,0.5248 -0.77865,1.0326 -0.4401,0.5078 -1.07487,1.1256 -0.9056,0.8887 -1.87044,1.7266 -0.96485,0.8294 -1.80274,1.5404 h 6.7793 z"
         style="font-size:17.33333397px"
         id="path4713" />
      <path
         d="m 351.83789,1312.2629 q 0,1.9213 -1.26953,3.14 -1.26107,1.2103 -3.09766,1.2103 -0.93099,0 -1.69271,-0.2878 -0.76171,-0.2877 -1.3457,-0.8548 -0.72786,-0.7024 -1.12565,-1.862 -0.38932,-1.1595 -0.38932,-2.7929 0,-1.6758 0.35547,-2.9707 0.36393,-1.2949 1.15104,-2.3021 0.74479,-0.9564 1.92122,-1.4896 1.17643,-0.5417 2.74219,-0.5417 0.49935,0 0.83789,0.042 0.33854,0.042 0.68555,0.1523 v 1.6165 h -0.0846 q -0.23698,-0.1269 -0.7194,-0.2369 -0.47396,-0.1185 -0.97331,-0.1185 -1.81966,0 -2.90299,1.1425 -1.08333,1.1342 -1.26107,3.0723 0.71094,-0.4316 1.39649,-0.6517 0.69401,-0.2285 1.5996,-0.2285 0.80404,0 1.41342,0.1524 0.61783,0.1438 1.26106,0.5924 0.7448,0.5163 1.11719,1.3034 0.38086,0.7871 0.38086,1.9127 z m -1.7181,0.068 q 0,-0.7872 -0.23698,-1.3034 -0.22851,-0.5163 -0.76172,-0.8972 -0.38932,-0.2708 -0.86328,-0.3554 -0.47396,-0.085 -0.99023,-0.085 -0.7194,0 -1.33724,0.1693 -0.61784,0.1693 -1.26953,0.5247 -0.0169,0.1862 -0.0254,0.364 -0.008,0.1692 -0.008,0.4316 0,1.3373 0.27084,2.1159 0.27929,0.7702 0.76172,1.2187 0.38932,0.3724 0.83789,0.5502 0.45703,0.1692 0.99023,0.1692 1.22721,0 1.92969,-0.7447 0.70247,-0.7533 0.70247,-2.1582 z"
         style="font-size:17.33333397px"
         id="path4715" />
      <path
         d="m 371.22788,1310.0624 q 0,1.7181 -0.75326,3.1146 -0.74479,1.3965 -1.98893,2.1667 -0.86328,0.5332 -1.92969,0.7702 -1.05794,0.2369 -2.79297,0.2369 h -3.18229 v -12.6022 h 3.14844 q 1.84505,0 2.92838,0.2709 1.0918,0.2623 1.84505,0.7278 1.28646,0.8041 2.00586,2.1413 0.71941,1.3372 0.71941,3.1738 z m -1.75196,-0.025 q 0,-1.4811 -0.51627,-2.4967 -0.51628,-1.0156 -1.54037,-1.5996 -0.74479,-0.4232 -1.58268,-0.584 -0.83789,-0.1693 -2.00586,-0.1693 h -1.57422 v 9.7246 h 1.57422 q 1.21029,0 2.10742,-0.1777 0.9056,-0.1777 1.65886,-0.6602 0.93945,-0.6009 1.40494,-1.5826 0.47396,-0.9818 0.47396,-2.4545 z"
         style="font-size:17.33333397px"
         id="path4717" />
      <path
         d="m 381.88347,1311.6282 q 0,2.3105 -1.1849,3.6478 -1.18489,1.3372 -3.17383,1.3372 -2.00585,0 -3.19075,-1.3372 -1.17643,-1.3373 -1.17643,-3.6478 0,-2.3106 1.17643,-3.6478 1.1849,-1.3457 3.19075,-1.3457 1.98894,0 3.17383,1.3457 1.1849,1.3372 1.1849,3.6478 z m -1.64193,0 q 0,-1.8366 -0.7194,-2.7253 -0.7194,-0.8971 -1.9974,-0.8971 -1.29492,0 -2.01432,0.8971 -0.71094,0.8887 -0.71094,2.7253 0,1.7773 0.71941,2.6998 0.7194,0.9141 2.00585,0.9141 1.26954,0 1.98894,-0.9056 0.72786,-0.9141 0.72786,-2.7083 z"
         style="font-size:17.33333397px"
         id="path4719" />
      <path
         d="m 392.19206,1316.3508 h -1.59115 v -1.0494 q -0.80403,0.6347 -1.54036,0.9733 -0.73633,0.3385 -1.625,0.3385 -1.48959,0 -2.31901,-0.9056 -0.82943,-0.9141 -0.82943,-2.6745 v -6.136 h 1.59115 v 5.3828 q 0,0.7194 0.0677,1.2356 0.0677,0.5079 0.28776,0.8718 0.22852,0.3724 0.59245,0.5417 0.36393,0.1692 1.05794,0.1692 0.61784,0 1.34571,-0.3216 0.73633,-0.3216 1.37109,-0.8209 v -7.0586 h 1.59115 z"
         style="font-size:17.33333397px"
         id="path4721" />
      <path
         d="m 403.64323,1311.552 q 0,1.1849 -0.33854,2.1328 -0.33008,0.9479 -0.89714,1.5912 -0.60091,0.6686 -1.32031,1.0071 -0.7194,0.3301 -1.58268,0.3301 -0.80404,0 -1.40495,-0.1947 -0.60091,-0.1862 -1.1849,-0.5078 l -0.10156,0.4401 h -1.48958 v -13.1692 h 1.59114 v 4.7057 q 0.66862,-0.5501 1.42188,-0.8971 0.75325,-0.3555 1.69271,-0.3555 1.67578,0 2.64062,1.2864 0.97331,1.2865 0.97331,3.6309 z m -1.64193,0.042 q 0,-1.6927 -0.55859,-2.5644 -0.5586,-0.8802 -1.80274,-0.8802 -0.69401,0 -1.40494,0.3047 -0.71094,0.2962 -1.32032,0.7701 v 5.4167 q 0.67709,0.3047 1.15951,0.4232 0.49088,0.1185 1.10872,0.1185 1.32032,0 2.06511,-0.8633 0.75325,-0.8718 0.75325,-2.7253 z"
         style="font-size:17.33333397px"
         id="path4723" />
      <path
         d="m 407.73112,1316.3508 h -1.59114 v -13.1692 h 1.59114 z"
         style="font-size:17.33333397px"
         id="path4725" />
      <path
         d="m 418.7422,1311.789 h -6.9655 q 0,0.8717 0.26237,1.5234 0.26237,0.6433 0.7194,1.058 0.44011,0.4062 1.04102,0.6093 0.60937,0.2032 1.33724,0.2032 0.96484,0 1.93815,-0.3809 0.98177,-0.3893 1.39648,-0.7617 h 0.0846 v 1.735 q -0.80404,0.3386 -1.64193,0.5671 -0.83789,0.2285 -1.76041,0.2285 -2.35287,0 -3.67318,-1.2695 -1.32031,-1.278 -1.32031,-3.6224 0,-2.3191 1.26106,-3.6817 1.26954,-1.3626 3.33464,-1.3626 1.91276,0 2.94531,1.1172 1.04102,1.1172 1.04102,3.1738 z m -1.54883,-1.2188 q -0.008,-1.2526 -0.63477,-1.9381 -0.61783,-0.6856 -1.88737,-0.6856 -1.27799,0 -2.03971,0.7533 -0.75325,0.7532 -0.85482,1.8704 z"
         style="font-size:17.33333397px"
         id="path4727" />
      <path
         d="m 438.02214,1310.0624 q 0,1.7181 -0.75325,3.1146 -0.7448,1.3965 -1.98894,2.1667 -0.86328,0.5332 -1.92968,0.7702 -1.05795,0.2369 -2.79297,0.2369 h -3.18229 v -12.6022 h 3.14843 q 1.84505,0 2.92839,0.2709 1.0918,0.2623 1.84505,0.7278 1.28646,0.8041 2.00586,2.1413 0.7194,1.3372 0.7194,3.1738 z m -1.75195,-0.025 q 0,-1.4811 -0.51628,-2.4967 -0.51627,-1.0156 -1.54036,-1.5996 -0.74479,-0.4232 -1.58269,-0.584 -0.83789,-0.1693 -2.00585,-0.1693 h -1.57422 v 9.7246 h 1.57422 q 1.21028,0 2.10742,-0.1777 0.9056,-0.1777 1.65885,-0.6602 0.93945,-0.6009 1.40495,-1.5826 0.47396,-0.9818 0.47396,-2.4545 z"
         style="font-size:17.33333397px"
         id="path4729" />
      <path
         d="m 448.53385,1311.789 h -6.96549 q 0,0.8717 0.26237,1.5234 0.26237,0.6433 0.7194,1.058 0.4401,0.4062 1.04102,0.6093 0.60937,0.2032 1.33724,0.2032 0.96484,0 1.93815,-0.3809 0.98177,-0.3893 1.39648,-0.7617 h 0.0846 v 1.735 q -0.80404,0.3386 -1.64193,0.5671 -0.83789,0.2285 -1.76042,0.2285 -2.35286,0 -3.67317,-1.2695 -1.32032,-1.278 -1.32032,-3.6224 0,-2.3191 1.26107,-3.6817 1.26953,-1.3626 3.33464,-1.3626 1.91276,0 2.94531,1.1172 1.04101,1.1172 1.04101,3.1738 z m -1.54882,-1.2188 q -0.008,-1.2526 -0.63477,-1.9381 -0.61784,-0.6856 -1.88737,-0.6856 -1.27799,0 -2.03971,0.7533 -0.75326,0.7532 -0.85482,1.8704 z"
         style="font-size:17.33333397px"
         id="path4731" />
      <path
         d="m 457.93686,1315.7584 q -0.79557,0.3808 -1.51497,0.5924 -0.71094,0.2116 -1.51498,0.2116 -1.02409,0 -1.8789,-0.2962 -0.85482,-0.3047 -1.4642,-0.9141 -0.61784,-0.6093 -0.95638,-1.5403 -0.33854,-0.931 -0.33854,-2.1752 0,-2.319 1.26953,-3.6393 1.278,-1.3203 3.36849,-1.3203 0.8125,0 1.59115,0.2285 0.78711,0.2285 1.4388,0.5586 v 1.7689 h -0.0846 q -0.72786,-0.5671 -1.50651,-0.8717 -0.77018,-0.3047 -1.50651,-0.3047 -1.35416,0 -2.14127,0.914 -0.77865,0.9056 -0.77865,2.666 0,1.7097 0.76172,2.6322 0.77018,0.9141 2.1582,0.9141 0.48242,0 0.98177,-0.127 0.49935,-0.1269 0.89714,-0.3301 0.347,-0.1777 0.65169,-0.3724 0.30469,-0.2031 0.48242,-0.347 h 0.0846 z"
         style="font-size:17.33333397px"
         id="path4733" />
      <path
         d="m 468.56707,1316.3508 h -2.09896 l -3.79167,-4.1386 -1.03255,0.9817 v 3.1569 h -1.59115 v -13.1692 h 1.59115 v 8.4466 l 4.5957,-4.7311 h 2.00586 l -4.39258,4.3671 z"
         style="font-size:17.33333397px"
         id="path4735" />
      <path
         d="m 477.98698,1311.789 h -6.9655 q 0,0.8717 0.26237,1.5234 0.26237,0.6433 0.71941,1.058 0.4401,0.4062 1.04101,0.6093 0.60938,0.2032 1.33724,0.2032 0.96484,0 1.93815,-0.3809 0.98177,-0.3893 1.39649,-0.7617 h 0.0846 v 1.735 q -0.80403,0.3386 -1.64193,0.5671 -0.83789,0.2285 -1.76041,0.2285 -2.35287,0 -3.67318,-1.2695 -1.32031,-1.278 -1.32031,-3.6224 0,-2.3191 1.26107,-3.6817 1.26953,-1.3626 3.33463,-1.3626 1.91276,0 2.94531,1.1172 1.04102,1.1172 1.04102,3.1738 z m -1.54883,-1.2188 q -0.008,-1.2526 -0.63476,-1.9381 -0.61784,-0.6856 -1.88737,-0.6856 -1.278,0 -2.03972,0.7533 -0.75325,0.7532 -0.85482,1.8704 z"
         style="font-size:17.33333397px"
         id="path4737" />
      <path
         d="m 486.29819,1308.6321 h -0.0846 q -0.35547,-0.085 -0.69401,-0.1185 -0.33008,-0.042 -0.78711,-0.042 -0.73633,0 -1.42187,0.3301 -0.68555,0.3216 -1.32032,0.8378 v 6.7116 h -1.59114 v -9.4537 h 1.59114 v 1.3964 q 0.94792,-0.7617 1.66732,-1.0748 0.72787,-0.3216 1.48112,-0.3216 0.41472,0 0.60091,0.025 0.1862,0.017 0.5586,0.076 z"
         style="font-size:17.33333397px"
         id="path4739" />
      <path
         d="m 505.25652,1316.3508 h -1.67578 v -10.8587 l -3.50391,7.3887 h -0.99869 l -3.47852,-7.3887 v 10.8587 h -1.56576 v -12.6022 h 2.28516 l 3.36003,7.0163 3.25,-7.0163 h 2.32747 z"
         style="font-size:17.33333397px"
         id="path4741" />
      <path
         d="m 516.5892,1311.6282 q 0,2.3105 -1.18489,3.6478 -1.1849,1.3372 -3.17383,1.3372 -2.00586,0 -3.19076,-1.3372 -1.17643,-1.3373 -1.17643,-3.6478 0,-2.3106 1.17643,-3.6478 1.1849,-1.3457 3.19076,-1.3457 1.98893,0 3.17383,1.3457 1.18489,1.3372 1.18489,3.6478 z m -1.64192,0 q 0,-1.8366 -0.7194,-2.7253 -0.71941,-0.8971 -1.9974,-0.8971 -1.29492,0 -2.01432,0.8971 -0.71094,0.8887 -0.71094,2.7253 0,1.7773 0.7194,2.6998 0.7194,0.9141 2.00586,0.9141 1.26953,0 1.98893,-0.9056 0.72787,-0.9141 0.72787,-2.7083 z"
         style="font-size:17.33333397px"
         id="path4743" />
      <path
         d="m 526.89781,1316.3508 h -1.59115 v -1.0494 q -0.80404,0.6347 -1.54036,0.9733 -0.73633,0.3385 -1.625,0.3385 -1.48959,0 -2.31901,-0.9056 -0.82943,-0.9141 -0.82943,-2.6745 v -6.136 h 1.59114 v 5.3828 q 0,0.7194 0.0677,1.2356 0.0677,0.5079 0.28776,0.8718 0.22852,0.3724 0.59245,0.5417 0.36393,0.1692 1.05794,0.1692 0.61784,0 1.34571,-0.3216 0.73633,-0.3216 1.37109,-0.8209 v -7.0586 h 1.59115 z"
         style="font-size:17.33333397px"
         id="path4745" />
      <path
         d="m 537.93427,1316.3508 h -1.59115 v -5.3828 q 0,-0.6517 -0.0762,-1.2187 -0.0762,-0.5755 -0.2793,-0.8972 -0.21159,-0.3554 -0.60937,-0.5247 -0.39779,-0.1777 -1.03256,-0.1777 -0.65169,0 -1.36263,0.3216 -0.71093,0.3216 -1.36263,0.8209 v 7.0586 h -1.59114 v -9.4537 h 1.59114 v 1.0494 q 0.74479,-0.6178 1.54037,-0.9648 0.79557,-0.347 1.63346,-0.347 1.5319,0 2.33594,0.9225 0.80404,0.9225 0.80404,2.6576 z"
         style="font-size:17.33333397px"
         id="path4747" />
      <path
         d="m 545.90692,1316.2662 q -0.44857,0.1185 -0.98177,0.1947 -0.52474,0.076 -0.93945,0.076 -1.44727,0 -2.20052,-0.7786 -0.75326,-0.7787 -0.75326,-2.4968 v -5.0273 h -1.07487 v -1.3372 h 1.07487 v -2.7168 h 1.59115 v 2.7168 h 3.28385 v 1.3372 h -3.28385 v 4.3079 q 0,0.7448 0.0339,1.168 0.0339,0.4147 0.23698,0.7787 0.1862,0.3385 0.50781,0.4993 0.33008,0.1523 0.9987,0.1523 0.38932,0 0.8125,-0.11 0.42318,-0.1185 0.60938,-0.1946 h 0.0846 z"
         style="font-size:17.33333397px"
         id="path4749" />
      <path
         d="m 549.54623,1305.3144 h -1.79427 v -1.6504 h 1.79427 z m -0.10156,11.0364 h -1.59114 v -9.4537 h 1.59114 z"
         style="font-size:17.33333397px"
         id="path4751" />
      <path
         d="m 560.44727,1316.3508 h -1.59115 v -5.3828 q 0,-0.6517 -0.0762,-1.2187 -0.0762,-0.5755 -0.2793,-0.8972 -0.21159,-0.3554 -0.60937,-0.5247 -0.39779,-0.1777 -1.03256,-0.1777 -0.65169,0 -1.36263,0.3216 -0.71093,0.3216 -1.36263,0.8209 v 7.0586 h -1.59114 v -9.4537 h 1.59114 v 1.0494 q 0.7448,-0.6178 1.54037,-0.9648 0.79557,-0.347 1.63346,-0.347 1.5319,0 2.33594,0.9225 0.80404,0.9225 0.80404,2.6576 z"
         style="font-size:17.33333397px"
         id="path4753" />
      <path
         d="m 571.17904,1315.276 q 0,2.4036 -1.0918,3.5293 -1.0918,1.1256 -3.36003,1.1256 -0.75325,0 -1.47265,-0.11 -0.71094,-0.1016 -1.40495,-0.2962 v -1.625 h 0.0846 q 0.38933,0.1523 1.23568,0.3724 0.84636,0.2285 1.69271,0.2285 0.8125,0 1.3457,-0.1947 0.53321,-0.1946 0.82943,-0.5417 0.29622,-0.33 0.42318,-0.7955 0.12695,-0.4655 0.12695,-1.041 v -0.8633 q -0.7194,0.5755 -1.37956,0.8633 -0.65169,0.2793 -1.66731,0.2793 -1.69271,0 -2.69141,-1.2188 -0.99023,-1.2272 -0.99023,-3.4531 0,-1.2188 0.33854,-2.099 0.347,-0.8887 0.93945,-1.5319 0.55013,-0.6009 1.33724,-0.931 0.78711,-0.3385 1.56575,-0.3385 0.82097,0 1.3711,0.1693 0.55859,0.1608 1.17643,0.4993 l 0.10156,-0.4062 h 1.48959 z m -1.59115,-1.5235 v -5.1543 q -0.63476,-0.2877 -1.18489,-0.4062 -0.54167,-0.127 -1.08334,-0.127 -1.31185,0 -2.0651,0.8802 -0.75326,0.8802 -0.75326,2.556 0,1.5912 0.5586,2.4121 0.55859,0.821 1.85351,0.821 0.69401,0 1.38802,-0.2624 0.70248,-0.2708 1.28646,-0.7194 z"
         style="font-size:17.33333397px"
         id="path4755" />
      <path
         d="m 588.77476,1307.5572 q 0,0.8379 -0.29622,1.5573 -0.28776,0.7109 -0.8125,1.2357 -0.6517,0.6517 -1.54037,0.9818 -0.88867,0.3216 -2.24284,0.3216 h -1.67578 v 4.6972 h -1.67578 v -12.6022 h 3.41927 q 1.13412,0 1.92123,0.1947 0.7871,0.1862 1.39648,0.5924 0.7194,0.4825 1.10872,1.2019 0.39779,0.7194 0.39779,1.8196 z m -1.74349,0.042 q 0,-0.6517 -0.22851,-1.1341 -0.22852,-0.4824 -0.69402,-0.7871 -0.40625,-0.2624 -0.93099,-0.3724 -0.51627,-0.1185 -1.31184,-0.1185 h -1.65886 v 5.0358 h 1.41341 q 1.01563,0 1.65039,-0.1777 0.63477,-0.1862 1.03256,-0.584 0.39778,-0.4062 0.55859,-0.8548 0.16927,-0.4486 0.16927,-1.0072 z"
         style="font-size:17.33333397px"
         id="path4757" />
      <path
         d="m 592.47333,1316.3508 h -1.59115 v -13.1692 h 1.59115 z"
         style="font-size:17.33333397px"
         id="path4759" />
      <path
         d="m 602.91733,1316.3508 h -1.58268 v -1.0071 q -0.21159,0.1439 -0.57552,0.4062 -0.35547,0.2539 -0.69402,0.4063 -0.39778,0.1946 -0.91406,0.3216 -0.51627,0.1354 -1.21028,0.1354 -1.278,0 -2.16667,-0.8463 -0.88867,-0.8464 -0.88867,-2.1583 0,-1.0748 0.45703,-1.735 0.46549,-0.6686 1.32031,-1.0495 0.86328,-0.3808 2.07357,-0.5162 1.21028,-0.1355 2.59831,-0.2032 v -0.2454 q 0,-0.5417 -0.19467,-0.8971 -0.18619,-0.3555 -0.54166,-0.5586 -0.33854,-0.1947 -0.8125,-0.2624 -0.47396,-0.068 -0.99024,-0.068 -0.6263,0 -1.39648,0.1693 -0.77018,0.1608 -1.59115,0.4739 h -0.0846 v -1.6165 q 0.46549,-0.127 1.3457,-0.2793 0.88021,-0.1524 1.73503,-0.1524 0.99869,0 1.73502,0.1693 0.74479,0.1608 1.28646,0.5586 0.5332,0.3893 0.8125,1.0072 0.2793,0.6178 0.2793,1.5319 z m -1.58268,-2.3274 v -2.6322 q -0.72787,0.042 -1.7181,0.127 -0.98177,0.085 -1.55729,0.2454 -0.68555,0.1947 -1.10873,0.6094 -0.42318,0.4062 -0.42318,1.1256 0,0.8125 0.49089,1.2272 0.49088,0.4063 1.49805,0.4063 0.83789,0 1.5319,-0.3216 0.69401,-0.3301 1.28646,-0.7871 z"
         style="font-size:17.33333397px"
         id="path4761" />
      <path
         d="m 610.90692,1316.2662 q -0.44857,0.1185 -0.98177,0.1947 -0.52474,0.076 -0.93945,0.076 -1.44727,0 -2.20052,-0.7786 -0.75326,-0.7787 -0.75326,-2.4968 v -5.0273 h -1.07487 v -1.3372 h 1.07487 v -2.7168 h 1.59115 v 2.7168 h 3.28385 v 1.3372 h -3.28385 v 4.3079 q 0,0.7448 0.0339,1.168 0.0339,0.4147 0.23698,0.7787 0.1862,0.3385 0.50781,0.4993 0.33008,0.1523 0.9987,0.1523 0.38932,0 0.8125,-0.11 0.42318,-0.1185 0.60938,-0.1946 h 0.0846 z"
         style="font-size:17.33333397px"
         id="path4763" />
      <path
         d="m 620.75001,1311.789 h -6.96549 q 0,0.8717 0.26237,1.5234 0.26237,0.6433 0.7194,1.058 0.4401,0.4062 1.04101,0.6093 0.60938,0.2032 1.33724,0.2032 0.96485,0 1.93815,-0.3809 0.98177,-0.3893 1.39649,-0.7617 h 0.0846 v 1.735 q -0.80403,0.3386 -1.64192,0.5671 -0.8379,0.2285 -1.76042,0.2285 -2.35287,0 -3.67318,-1.2695 -1.32031,-1.278 -1.32031,-3.6224 0,-2.3191 1.26107,-3.6817 1.26953,-1.3626 3.33463,-1.3626 1.91276,0 2.94531,1.1172 1.04102,1.1172 1.04102,3.1738 z m -1.54883,-1.2188 q -0.008,-1.2526 -0.63476,-1.9381 -0.61784,-0.6856 -1.88737,-0.6856 -1.278,0 -2.03972,0.7533 -0.75325,0.7532 -0.85481,1.8704 z"
         style="font-size:17.33333397px"
         id="path4765" />
      <path
         d="m 629.91604,1313.6256 q 0,1.2949 -1.07487,2.1243 -1.06641,0.8295 -2.91993,0.8295 -1.04947,0 -1.92968,-0.2455 -0.87175,-0.2539 -1.4642,-0.5501 v -1.7858 h 0.0846 q 0.75325,0.567 1.67578,0.9056 0.92253,0.33 1.76888,0.33 1.04948,0 1.64193,-0.3385 0.59245,-0.3385 0.59245,-1.0664 0,-0.5586 -0.32162,-0.8464 -0.32161,-0.2877 -1.23568,-0.4908 -0.33854,-0.076 -0.88867,-0.1778 -0.54166,-0.1015 -0.99023,-0.22 -1.24414,-0.3301 -1.76888,-0.9649 -0.51628,-0.6432 -0.51628,-1.5742 0,-0.584 0.23698,-1.1002 0.24544,-0.5163 0.73633,-0.9226 0.47396,-0.3978 1.20182,-0.6263 0.73633,-0.237 1.64193,-0.237 0.84635,0 1.70963,0.2116 0.87175,0.2032 1.44727,0.4994 v 1.7012 h -0.0846 q -0.60938,-0.4486 -1.48112,-0.7533 -0.87175,-0.3132 -1.70964,-0.3132 -0.87175,0 -1.47266,0.3386 -0.60091,0.3301 -0.60091,0.9902 0,0.584 0.36393,0.8802 0.35547,0.2963 1.15105,0.4825 0.4401,0.1015 0.98177,0.2031 0.55013,0.1015 0.91406,0.1862 1.10872,0.2539 1.70963,0.8717 0.60092,0.6263 0.60092,1.6589 z"
         style="font-size:17.33333397px"
         id="path4767" />
      <path
         d="m 646.6146,1311.552 q 0,1.1849 -0.33854,2.1328 -0.33008,0.9479 -0.89713,1.5912 -0.60091,0.6686 -1.32032,1.0071 -0.7194,0.3301 -1.58268,0.3301 -0.80403,0 -1.40495,-0.1947 -0.60091,-0.1862 -1.18489,-0.5078 l -0.10156,0.4401 h -1.48959 v -13.1692 h 1.59115 v 4.7057 q 0.66862,-0.5501 1.42187,-0.8971 0.75326,-0.3555 1.69271,-0.3555 1.67578,0 2.64063,1.2864 0.9733,1.2865 0.9733,3.6309 z m -1.64192,0.042 q 0,-1.6927 -0.5586,-2.5644 -0.55859,-0.8802 -1.80273,-0.8802 -0.69401,0 -1.40495,0.3047 -0.71094,0.2962 -1.32031,0.7701 v 5.4167 q 0.67708,0.3047 1.1595,0.4232 0.49089,0.1185 1.10873,0.1185 1.32031,0 2.0651,-0.8633 0.75326,-0.8718 0.75326,-2.7253 z"
         style="font-size:17.33333397px"
         id="path4769" />
      <path
         d="m 657.23635,1306.8971 -5.51823,12.9407 h -1.70117 l 1.76041,-3.944 -3.76627,-8.9967 h 1.72656 l 2.903,7.0078 2.92838,-7.0078 z"
         style="font-size:17.33333397px"
         id="path4771" />
      <path
         d="m 670.16018,1313.0754 q 0,1.6589 -1.01563,2.556 -1.00716,0.8972 -2.70833,0.8972 -0.40625,0 -1.08334,-0.076 -0.67708,-0.068 -1.13411,-0.1693 v -1.5657 h 0.0931 q 0.347,0.1185 0.85482,0.2454 0.50781,0.127 1.04101,0.127 0.77865,0 1.23568,-0.1778 0.46549,-0.1777 0.68555,-0.5078 0.22851,-0.3385 0.28776,-0.8294 0.0677,-0.4909 0.0677,-1.1341 v -7.3548 h -2.66602 v -1.3373 h 4.3418 z"
         style="font-size:17.33333397px"
         id="path4773" />
      <path
         d="m 684.07422,1310.0624 q 0,1.7181 -0.75326,3.1146 -0.74479,1.3965 -1.98893,2.1667 -0.86328,0.5332 -1.92969,0.7702 -1.05794,0.2369 -2.79296,0.2369 h -3.1823 v -12.6022 h 3.14844 q 1.84505,0 2.92839,0.2709 1.09179,0.2623 1.84505,0.7278 1.28646,0.8041 2.00586,2.1413 0.7194,1.3372 0.7194,3.1738 z m -1.75195,-0.025 q 0,-1.4811 -0.51628,-2.4967 -0.51628,-1.0156 -1.54036,-1.5996 -0.7448,-0.4232 -1.58269,-0.584 -0.83789,-0.1693 -2.00586,-0.1693 h -1.57422 v 9.7246 h 1.57422 q 1.21029,0 2.10743,-0.1777 0.90559,-0.1777 1.65885,-0.6602 0.93945,-0.6009 1.40495,-1.5826 0.47396,-0.9818 0.47396,-2.4545 z"
         style="font-size:17.33333397px"
         id="path4775" />
      <path
         d="m 694.58595,1311.789 h -6.9655 q 0,0.8717 0.26237,1.5234 0.26237,0.6433 0.7194,1.058 0.44011,0.4062 1.04102,0.6093 0.60937,0.2032 1.33724,0.2032 0.96484,0 1.93815,-0.3809 0.98177,-0.3893 1.39648,-0.7617 h 0.0846 v 1.735 q -0.80404,0.3386 -1.64193,0.5671 -0.83789,0.2285 -1.76041,0.2285 -2.35287,0 -3.67318,-1.2695 -1.32031,-1.278 -1.32031,-3.6224 0,-2.3191 1.26106,-3.6817 1.26954,-1.3626 3.33464,-1.3626 1.91276,0 2.94531,1.1172 1.04102,1.1172 1.04102,3.1738 z m -1.54883,-1.2188 q -0.008,-1.2526 -0.63477,-1.9381 -0.61783,-0.6856 -1.88737,-0.6856 -1.27799,0 -2.03971,0.7533 -0.75325,0.7532 -0.85482,1.8704 z"
         style="font-size:17.33333397px"
         id="path4777" />
      <path
         d="m 704.34442,1316.3508 h -1.58268 v -1.0071 q -0.21159,0.1439 -0.57552,0.4062 -0.35547,0.2539 -0.69401,0.4063 -0.39779,0.1946 -0.91406,0.3216 -0.51628,0.1354 -1.21029,0.1354 -1.278,0 -2.16667,-0.8463 -0.88867,-0.8464 -0.88867,-2.1583 0,-1.0748 0.45703,-1.735 0.4655,-0.6686 1.32031,-1.0495 0.86329,-0.3808 2.07357,-0.5162 1.21029,-0.1355 2.59831,-0.2032 v -0.2454 q 0,-0.5417 -0.19466,-0.8971 -0.1862,-0.3555 -0.54167,-0.5586 -0.33854,-0.1947 -0.8125,-0.2624 -0.47396,-0.068 -0.99023,-0.068 -0.62631,0 -1.39649,0.1693 -0.77018,0.1608 -1.59114,0.4739 h -0.0846 v -1.6165 q 0.4655,-0.127 1.3457,-0.2793 0.88021,-0.1524 1.73503,-0.1524 0.9987,0 1.73503,0.1693 0.74479,0.1608 1.28645,0.5586 0.53321,0.3893 0.8125,1.0072 0.2793,0.6178 0.2793,1.5319 z m -1.58268,-2.3274 v -2.6322 q -0.72787,0.042 -1.7181,0.127 -0.98177,0.085 -1.55729,0.2454 -0.68555,0.1947 -1.10873,0.6094 -0.42317,0.4062 -0.42317,1.1256 0,0.8125 0.49088,1.2272 0.49089,0.4063 1.49805,0.4063 0.83789,0 1.5319,-0.3216 0.69401,-0.3301 1.28646,-0.7871 z"
         style="font-size:17.33333397px"
         id="path4779" />
      <path
         d="m 712.33398,1316.2662 q -0.44856,0.1185 -0.98177,0.1947 -0.52474,0.076 -0.93945,0.076 -1.44727,0 -2.20052,-0.7786 -0.75326,-0.7787 -0.75326,-2.4968 v -5.0273 h -1.07487 v -1.3372 h 1.07487 v -2.7168 h 1.59115 v 2.7168 h 3.28385 v 1.3372 h -3.28385 v 4.3079 q 0,0.7448 0.0339,1.168 0.0339,0.4147 0.23698,0.7787 0.1862,0.3385 0.50782,0.4993 0.33007,0.1523 0.99869,0.1523 0.38933,0 0.8125,-0.11 0.42318,-0.1185 0.60938,-0.1946 h 0.0846 z"
         style="font-size:17.33333397px"
         id="path4781" />
      <path
         d="m 715.97333,1305.3144 h -1.79427 v -1.6504 h 1.79427 z m -0.10156,11.0364 h -1.59115 v -9.4537 h 1.59115 z"
         style="font-size:17.33333397px"
         id="path4783" />
      <path
         d="m 727.0267,1311.6282 q 0,2.3105 -1.18489,3.6478 -1.1849,1.3372 -3.17383,1.3372 -2.00586,0 -3.19076,-1.3372 -1.17643,-1.3373 -1.17643,-3.6478 0,-2.3106 1.17643,-3.6478 1.1849,-1.3457 3.19076,-1.3457 1.98893,0 3.17383,1.3457 1.18489,1.3372 1.18489,3.6478 z m -1.64192,0 q 0,-1.8366 -0.7194,-2.7253 -0.71941,-0.8971 -1.9974,-0.8971 -1.29492,0 -2.01432,0.8971 -0.71094,0.8887 -0.71094,2.7253 0,1.7773 0.7194,2.6998 0.7194,0.9141 2.00586,0.9141 1.26953,0 1.98893,-0.9056 0.72787,-0.9141 0.72787,-2.7083 z"
         style="font-size:17.33333397px"
         id="path4785" />
      <path
         d="m 737.40302,1316.3508 h -1.59115 v -5.3828 q 0,-0.6517 -0.0762,-1.2187 -0.0762,-0.5755 -0.2793,-0.8972 -0.21159,-0.3554 -0.60937,-0.5247 -0.39779,-0.1777 -1.03256,-0.1777 -0.65169,0 -1.36263,0.3216 -0.71093,0.3216 -1.36263,0.8209 v 7.0586 h -1.59114 v -9.4537 h 1.59114 v 1.0494 q 0.74479,-0.6178 1.54037,-0.9648 0.79557,-0.347 1.63346,-0.347 1.5319,0 2.33594,0.9225 0.80404,0.9225 0.80404,2.6576 z"
         style="font-size:17.33333397px"
         id="path4787" />
      <path
         d="m 743.06512,1316.3508 h -2.02278 v -2.4121 h 2.02278 z"
         style="font-size:17.33333397px"
         id="path4789" />
      <path
         d="m 753.75458,1315.7584 q -0.79557,0.3808 -1.51498,0.5924 -0.71093,0.2116 -1.51497,0.2116 -1.02409,0 -1.87891,-0.2962 -0.85481,-0.3047 -1.46419,-0.9141 -0.61784,-0.6093 -0.95638,-1.5403 -0.33854,-0.931 -0.33854,-2.1752 0,-2.319 1.26953,-3.6393 1.278,-1.3203 3.36849,-1.3203 0.8125,0 1.59115,0.2285 0.78711,0.2285 1.4388,0.5586 v 1.7689 h -0.0846 q -0.72786,-0.5671 -1.50651,-0.8717 -0.77018,-0.3047 -1.50651,-0.3047 -1.35417,0 -2.14127,0.914 -0.77865,0.9056 -0.77865,2.666 0,1.7097 0.76172,2.6322 0.77018,0.9141 2.1582,0.9141 0.48242,0 0.98177,-0.127 0.49935,-0.1269 0.89714,-0.3301 0.347,-0.1777 0.65169,-0.3724 0.30469,-0.2031 0.48242,-0.347 h 0.0846 z"
         style="font-size:17.33333397px"
         id="path4791" />
      <path
         d="m 763.86005,1311.6282 q 0,2.3105 -1.1849,3.6478 -1.1849,1.3372 -3.17383,1.3372 -2.00586,0 -3.19075,-1.3372 -1.17644,-1.3373 -1.17644,-3.6478 0,-2.3106 1.17644,-3.6478 1.18489,-1.3457 3.19075,-1.3457 1.98893,0 3.17383,1.3457 1.1849,1.3372 1.1849,3.6478 z m -1.64193,0 q 0,-1.8366 -0.7194,-2.7253 -0.7194,-0.8971 -1.9974,-0.8971 -1.29492,0 -2.01432,0.8971 -0.71094,0.8887 -0.71094,2.7253 0,1.7773 0.7194,2.6998 0.7194,0.9141 2.00586,0.9141 1.26953,0 1.98893,-0.9056 0.72787,-0.9141 0.72787,-2.7083 z"
         style="font-size:17.33333397px"
         id="path4793" />
      <path
         d="m 780.12695,1316.3508 h -1.59114 v -5.3828 q 0,-0.6094 -0.0593,-1.1764 -0.0508,-0.5671 -0.22851,-0.9056 -0.19466,-0.3639 -0.5586,-0.5501 -0.36393,-0.1862 -1.04948,-0.1862 -0.66862,0 -1.33724,0.3385 -0.66862,0.3301 -1.33723,0.8464 0.0254,0.1946 0.0423,0.457 0.0169,0.2539 0.0169,0.5078 v 6.0514 h -1.59115 v -5.3828 q 0,-0.6263 -0.0592,-1.1849 -0.0508,-0.567 -0.22852,-0.9056 -0.19466,-0.3639 -0.55859,-0.5416 -0.36393,-0.1862 -1.04948,-0.1862 -0.65169,0 -1.31185,0.3216 -0.65169,0.3216 -1.30338,0.8209 v 7.0586 h -1.59115 v -9.4537 h 1.59115 v 1.0494 q 0.74479,-0.6178 1.48112,-0.9648 0.74479,-0.347 1.58268,-0.347 0.96484,0 1.63346,0.4062 0.67709,0.4063 1.00716,1.1257 0.96485,-0.8125 1.76042,-1.168 0.79557,-0.3639 1.70117,-0.3639 1.55729,0 2.29362,0.9479 0.74479,0.9395 0.74479,2.6322 z"
         style="font-size:17.33333397px"
         id="path4795" />
    </g>
    <g
       aria-label="Bottom Plate"
       transform="matrix(0.26458333,0,0,0.26458333,16.700139,-73.788625)"
       style="font-style:normal;font-weight:normal;font-size:16px;line-height:1.25;font-family:sans-serif;letter-spacing:0px;word-spacing:0px;fill:#ff0000;fill-opacity:1;stroke:none"
       id="flowRoot4611">
      <path
         d="m 843.00391,1383.9765 q 0,0.9394 -0.35547,1.6588 -0.35547,0.7194 -0.95638,1.1849 -0.71094,0.5586 -1.56576,0.7956 -0.84635,0.237 -2.1582,0.237 h -4.46875 v -12.6022 h 3.73242 q 1.37956,0 2.06511,0.1015 0.68554,0.1016 1.31184,0.4232 0.69401,0.3639 1.00717,0.9395 0.31315,0.567 0.31315,1.3626 0,0.8971 -0.45703,1.5319 -0.45704,0.6263 -1.21875,1.0072 v 0.068 q 1.27799,0.2623 2.01432,1.1256 0.73633,0.8548 0.73633,2.1667 z m -2.81836,-5.6791 q 0,-0.457 -0.15235,-0.7701 -0.15234,-0.3132 -0.49088,-0.5078 -0.39779,-0.2286 -0.96485,-0.2793 -0.56705,-0.059 -1.40494,-0.059 h -1.9974 v 3.6393 h 2.16667 q 0.78711,0 1.2526,-0.076 0.4655,-0.085 0.86328,-0.3386 0.39779,-0.2539 0.5586,-0.6517 0.16927,-0.4062 0.16927,-0.9564 z m 1.07487,5.7468 q 0,-0.7617 -0.22852,-1.2103 -0.22851,-0.4486 -0.82943,-0.7617 -0.40625,-0.2116 -0.99023,-0.2708 -0.57552,-0.068 -1.40495,-0.068 h -2.63216 v 4.6888 h 2.21745 q 1.10026,0 1.80273,-0.11 0.70248,-0.1185 1.15104,-0.4232 0.47396,-0.33 0.69401,-0.7532 0.22006,-0.4232 0.22006,-1.0918 z"
         style="font-size:17.33333397px"
         id="path4672" />
      <path
         d="m 853.3125,1383.1301 q 0,2.3106 -1.1849,3.6478 -1.18489,1.3373 -3.17382,1.3373 -2.00586,0 -3.19076,-1.3373 -1.17643,-1.3372 -1.17643,-3.6478 0,-2.3105 1.17643,-3.6478 1.1849,-1.3457 3.19076,-1.3457 1.98893,0 3.17382,1.3457 1.1849,1.3373 1.1849,3.6478 z m -1.64193,0 q 0,-1.8366 -0.7194,-2.7252 -0.7194,-0.8972 -1.99739,-0.8972 -1.29493,0 -2.01433,0.8972 -0.71093,0.8886 -0.71093,2.7252 0,1.7774 0.7194,2.6999 0.7194,0.9141 2.00586,0.9141 1.26953,0 1.98893,-0.9056 0.72786,-0.9141 0.72786,-2.7084 z"
         style="font-size:17.33333397px"
         id="path4674" />
      <path
         d="m 860.69271,1387.7682 q -0.44857,0.1184 -0.98177,0.1946 -0.52474,0.076 -0.93945,0.076 -1.44727,0 -2.20053,-0.7787 -0.75325,-0.7786 -0.75325,-2.4967 v -5.0273 h -1.07487 v -1.3373 h 1.07487 v -2.7168 h 1.59114 v 2.7168 h 3.28386 v 1.3373 h -3.28386 v 4.3079 q 0,0.7448 0.0339,1.168 0.0338,0.4147 0.23698,0.7786 0.1862,0.3386 0.50781,0.4994 0.33008,0.1523 0.9987,0.1523 0.38932,0 0.8125,-0.11 0.42318,-0.1185 0.60937,-0.1947 h 0.0846 z"
         style="font-size:17.33333397px"
         id="path4676" />
      <path
         d="m 867.53125,1387.7682 q -0.44857,0.1184 -0.98177,0.1946 -0.52474,0.076 -0.93945,0.076 -1.44727,0 -2.20052,-0.7787 -0.75326,-0.7786 -0.75326,-2.4967 v -5.0273 h -1.07487 v -1.3373 h 1.07487 v -2.7168 h 1.59115 v 2.7168 h 3.28385 v 1.3373 h -3.28385 v 4.3079 q 0,0.7448 0.0339,1.168 0.0339,0.4147 0.23698,0.7786 0.1862,0.3386 0.50781,0.4994 0.33008,0.1523 0.9987,0.1523 0.38932,0 0.8125,-0.11 0.42318,-0.1185 0.60937,-0.1947 h 0.0846 z"
         style="font-size:17.33333397px"
         id="path4678" />
      <path
         d="m 877.51823,1383.1301 q 0,2.3106 -1.1849,3.6478 -1.18489,1.3373 -3.17382,1.3373 -2.00586,0 -3.19076,-1.3373 -1.17643,-1.3372 -1.17643,-3.6478 0,-2.3105 1.17643,-3.6478 1.1849,-1.3457 3.19076,-1.3457 1.98893,0 3.17382,1.3457 1.1849,1.3373 1.1849,3.6478 z m -1.64193,0 q 0,-1.8366 -0.7194,-2.7252 -0.7194,-0.8972 -1.99739,-0.8972 -1.29493,0 -2.01433,0.8972 -0.71093,0.8886 -0.71093,2.7252 0,1.7774 0.7194,2.6999 0.7194,0.9141 2.00586,0.9141 1.26953,0 1.98893,-0.9056 0.72786,-0.9141 0.72786,-2.7084 z"
         style="font-size:17.33333397px"
         id="path4680" />
      <path
         d="m 893.78516,1387.8528 h -1.59115 v -5.3828 q 0,-0.6094 -0.0592,-1.1765 -0.0508,-0.567 -0.22852,-0.9056 -0.19466,-0.3639 -0.55859,-0.5501 -0.36394,-0.1862 -1.04948,-0.1862 -0.66862,0 -1.33724,0.3386 -0.66862,0.33 -1.33724,0.8463 0.0254,0.1947 0.0423,0.457 0.0169,0.2539 0.0169,0.5079 v 6.0514 h -1.59114 v -5.3828 q 0,-0.6263 -0.0593,-1.1849 -0.0508,-0.5671 -0.22851,-0.9056 -0.19466,-0.364 -0.5586,-0.5417 -0.36393,-0.1862 -1.04948,-0.1862 -0.65169,0 -1.31185,0.3216 -0.65169,0.3216 -1.30338,0.821 v 7.0586 h -1.59115 v -9.4538 h 1.59115 v 1.0495 q 0.74479,-0.6178 1.48112,-0.9649 0.74479,-0.347 1.58268,-0.347 0.96485,0 1.63347,0.4063 0.67708,0.4062 1.00716,1.1256 0.96484,-0.8125 1.76041,-1.1679 0.79558,-0.364 1.70118,-0.364 1.55729,0 2.29362,0.948 0.74479,0.9394 0.74479,2.6321 z"
         style="font-size:17.33333397px"
         id="path4682" />
      <path
         d="m 911.31315,1379.0592 q 0,0.8379 -0.29622,1.5573 -0.28776,0.7109 -0.8125,1.2356 -0.6517,0.6517 -1.54037,0.9818 -0.88867,0.3216 -2.24284,0.3216 h -1.67578 v 4.6973 h -1.67578 v -12.6022 h 3.41927 q 1.13412,0 1.92123,0.1946 0.78711,0.1862 1.39648,0.5925 0.7194,0.4824 1.10872,1.2018 0.39779,0.7194 0.39779,1.8197 z m -1.74349,0.042 q 0,-0.6517 -0.22851,-1.1341 -0.22852,-0.4825 -0.69401,-0.7871 -0.40625,-0.2624 -0.93099,-0.3724 -0.51628,-0.1185 -1.31185,-0.1185 h -1.65886 v 5.0358 h 1.41341 q 1.01563,0 1.6504,-0.1778 0.63476,-0.1861 1.03255,-0.5839 0.39778,-0.4063 0.55859,-0.8549 0.16927,-0.4485 0.16927,-1.0071 z"
         style="font-size:17.33333397px"
         id="path4684" />
      <path
         d="m 915.01172,1387.8528 h -1.59115 v -13.1693 h 1.59115 z"
         style="font-size:17.33333397px"
         id="path4686" />
      <path
         d="m 925.45573,1387.8528 h -1.58268 v -1.0072 q -0.21159,0.1439 -0.57552,0.4063 -0.35547,0.2539 -0.69401,0.4062 -0.39779,0.1947 -0.91406,0.3216 -0.51628,0.1355 -1.21029,0.1355 -1.27799,0 -2.16666,-0.8464 -0.88868,-0.8464 -0.88868,-2.1582 0,-1.0749 0.45703,-1.735 0.4655,-0.6686 1.32032,-1.0495 0.86328,-0.3809 2.07356,-0.5163 1.21029,-0.1354 2.59831,-0.2031 v -0.2454 q 0,-0.5417 -0.19466,-0.8972 -0.1862,-0.3555 -0.54167,-0.5586 -0.33854,-0.1946 -0.8125,-0.2623 -0.47395,-0.068 -0.99023,-0.068 -0.6263,0 -1.39648,0.1693 -0.77019,0.1608 -1.59115,0.474 h -0.0846 v -1.6166 q 0.4655,-0.1269 1.34571,-0.2793 0.88021,-0.1523 1.73502,-0.1523 0.9987,0 1.73503,0.1693 0.74479,0.1608 1.28646,0.5586 0.5332,0.3893 0.8125,1.0071 0.27929,0.6179 0.27929,1.5319 z m -1.58268,-2.3275 v -2.6321 q -0.72786,0.042 -1.7181,0.1269 -0.98177,0.085 -1.55729,0.2454 -0.68555,0.1947 -1.10872,0.6094 -0.42318,0.4063 -0.42318,1.1257 0,0.8125 0.49089,1.2272 0.49088,0.4062 1.49804,0.4062 0.83789,0 1.5319,-0.3216 0.69401,-0.3301 1.28646,-0.7871 z"
         style="font-size:17.33333397px"
         id="path4688" />
      <path
         d="m 933.44531,1387.7682 q -0.44856,0.1184 -0.98177,0.1946 -0.52474,0.076 -0.93945,0.076 -1.44727,0 -2.20052,-0.7787 -0.75326,-0.7786 -0.75326,-2.4967 v -5.0273 h -1.07487 v -1.3373 h 1.07487 v -2.7168 h 1.59115 v 2.7168 h 3.28385 v 1.3373 h -3.28385 v 4.3079 q 0,0.7448 0.0338,1.168 0.0339,0.4147 0.23698,0.7786 0.1862,0.3386 0.50781,0.4994 0.33008,0.1523 0.9987,0.1523 0.38933,0 0.8125,-0.11 0.42318,-0.1185 0.60938,-0.1947 h 0.0846 z"
         style="font-size:17.33333397px"
         id="path4690" />
      <path
         d="m 943.28842,1383.2909 h -6.9655 q 0,0.8718 0.26237,1.5235 0.26237,0.6432 0.7194,1.0579 0.44011,0.4063 1.04102,0.6094 0.60937,0.2031 1.33724,0.2031 0.96484,0 1.93815,-0.3808 0.98177,-0.3894 1.39648,-0.7618 h 0.0846 v 1.7351 q -0.80404,0.3385 -1.64193,0.567 -0.83789,0.2285 -1.76041,0.2285 -2.35287,0 -3.67318,-1.2695 -1.32031,-1.278 -1.32031,-3.6224 0,-2.319 1.26106,-3.6816 1.26953,-1.3627 3.33464,-1.3627 1.91276,0 2.94531,1.1172 1.04102,1.1172 1.04102,3.1739 z m -1.54883,-1.2187 q -0.008,-1.2526 -0.63477,-1.9382 -0.61784,-0.6855 -1.88737,-0.6855 -1.27799,0 -2.03971,0.7532 -0.75326,0.7533 -0.85482,1.8705 z"
         style="font-size:17.33333397px"
         id="path4692" />
    </g>
    <g
       aria-label="Top Plate"
       transform="matrix(0.26458333,0,0,0.26458333,273.14506,-74.475036)"
       style="font-style:normal;font-weight:normal;font-size:16px;line-height:1.25;font-family:sans-serif;letter-spacing:0px;word-spacing:0px;fill:#ff0000;fill-opacity:1;stroke:none"
       id="flowRoot4611-4">
      <path
         d="m 842.48763,1376.7402 h -4.5026 v 11.1126 h -1.67579 v -11.1126 h -4.5026 v -1.4896 h 10.68099 z"
         style="font-size:17.33333397px"
         id="path4655"
         inkscape:connector-curvature="0" />
      <path
         d="m 850.26563,1383.1301 q 0,2.3106 -1.1849,3.6478 -1.1849,1.3373 -3.17383,1.3373 -2.00586,0 -3.19075,-1.3373 -1.17644,-1.3372 -1.17644,-3.6478 0,-2.3105 1.17644,-3.6478 1.18489,-1.3457 3.19075,-1.3457 1.98893,0 3.17383,1.3457 1.1849,1.3373 1.1849,3.6478 z m -1.64193,0 q 0,-1.8366 -0.7194,-2.7252 -0.7194,-0.8972 -1.9974,-0.8972 -1.29492,0 -2.01432,0.8972 -0.71094,0.8886 -0.71094,2.7252 0,1.7774 0.7194,2.6999 0.7194,0.9141 2.00586,0.9141 1.26953,0 1.98893,-0.9056 0.72787,-0.9141 0.72787,-2.7084 z"
         style="font-size:17.33333397px"
         id="path4657"
         inkscape:connector-curvature="0" />
      <path
         d="m 861.05664,1383.0116 q 0,1.1511 -0.33008,2.1075 -0.33007,0.9479 -0.93099,1.608 -0.55859,0.6263 -1.32031,0.9733 -0.75325,0.3386 -1.59961,0.3386 -0.73633,0 -1.33724,-0.1608 -0.59245,-0.1608 -1.21028,-0.4994 v 3.961 h -1.59115 v -12.9408 h 1.59115 v 0.9902 q 0.63476,-0.5332 1.42187,-0.8886 0.79557,-0.364 1.69271,-0.364 1.70963,0 2.65755,1.295 0.95638,1.2864 0.95638,3.58 z m -1.64193,0.042 q 0,-1.7097 -0.58398,-2.556 -0.58398,-0.8464 -1.79427,-0.8464 -0.68555,0 -1.37956,0.2962 -0.69401,0.2963 -1.32877,0.7787 v 5.3574 q 0.67708,0.3047 1.1595,0.4147 0.49089,0.11 1.10873,0.11 1.32877,0 2.07356,-0.8971 0.74479,-0.8971 0.74479,-2.6575 z"
         style="font-size:17.33333397px"
         id="path4659"
         inkscape:connector-curvature="0" />
      <path
         d="m 878.00065,1379.0592 q 0,0.8379 -0.29622,1.5573 -0.28776,0.7109 -0.8125,1.2356 -0.6517,0.6517 -1.54037,0.9818 -0.88867,0.3216 -2.24284,0.3216 h -1.67578 v 4.6973 h -1.67578 v -12.6022 h 3.41927 q 1.13412,0 1.92123,0.1946 0.78711,0.1862 1.39648,0.5925 0.7194,0.4824 1.10872,1.2018 0.39779,0.7194 0.39779,1.8197 z m -1.74349,0.042 q 0,-0.6517 -0.22851,-1.1341 -0.22852,-0.4825 -0.69401,-0.7871 -0.40625,-0.2624 -0.93099,-0.3724 -0.51628,-0.1185 -1.31185,-0.1185 h -1.65886 v 5.0358 h 1.41341 q 1.01563,0 1.6504,-0.1778 0.63476,-0.1861 1.03255,-0.5839 0.39778,-0.4063 0.55859,-0.8549 0.16927,-0.4485 0.16927,-1.0071 z"
         style="font-size:17.33333397px"
         id="path4661"
         inkscape:connector-curvature="0" />
      <path
         d="m 881.69922,1387.8528 h -1.59115 v -13.1693 h 1.59115 z"
         style="font-size:17.33333397px"
         id="path4663"
         inkscape:connector-curvature="0" />
      <path
         d="m 892.14323,1387.8528 h -1.58268 v -1.0072 q -0.21159,0.1439 -0.57552,0.4063 -0.35547,0.2539 -0.69401,0.4062 -0.39779,0.1947 -0.91407,0.3216 -0.51627,0.1355 -1.21028,0.1355 -1.278,0 -2.16667,-0.8464 -0.88867,-0.8464 -0.88867,-2.1582 0,-1.0749 0.45703,-1.735 0.4655,-0.6686 1.32031,-1.0495 0.86328,-0.3809 2.07357,-0.5163 1.21029,-0.1354 2.59831,-0.2031 v -0.2454 q 0,-0.5417 -0.19466,-0.8972 -0.1862,-0.3555 -0.54167,-0.5586 -0.33854,-0.1946 -0.8125,-0.2623 -0.47396,-0.068 -0.99023,-0.068 -0.62631,0 -1.39649,0.1693 -0.77018,0.1608 -1.59114,0.474 h -0.0846 v -1.6166 q 0.46549,-0.1269 1.3457,-0.2793 0.88021,-0.1523 1.73503,-0.1523 0.9987,0 1.73503,0.1693 0.74479,0.1608 1.28645,0.5586 0.53321,0.3893 0.8125,1.0071 0.2793,0.6179 0.2793,1.5319 z m -1.58268,-2.3275 v -2.6321 q -0.72787,0.042 -1.7181,0.1269 -0.98177,0.085 -1.55729,0.2454 -0.68555,0.1947 -1.10873,0.6094 -0.42317,0.4063 -0.42317,1.1257 0,0.8125 0.49088,1.2272 0.49089,0.4062 1.49805,0.4062 0.83789,0 1.5319,-0.3216 0.69401,-0.3301 1.28646,-0.7871 z"
         style="font-size:17.33333397px"
         id="path4665"
         inkscape:connector-curvature="0" />
      <path
         d="m 900.13281,1387.7682 q -0.44856,0.1184 -0.98177,0.1946 -0.52474,0.076 -0.93945,0.076 -1.44727,0 -2.20052,-0.7787 -0.75326,-0.7786 -0.75326,-2.4967 v -5.0273 h -1.07487 v -1.3373 h 1.07487 v -2.7168 h 1.59115 v 2.7168 h 3.28385 v 1.3373 h -3.28385 v 4.3079 q 0,0.7448 0.0338,1.168 0.0339,0.4147 0.23698,0.7786 0.1862,0.3386 0.50781,0.4994 0.33008,0.1523 0.9987,0.1523 0.38933,0 0.8125,-0.11 0.42318,-0.1185 0.60938,-0.1947 h 0.0846 z"
         style="font-size:17.33333397px"
         id="path4667"
         inkscape:connector-curvature="0" />
      <path
         d="m 909.97592,1383.2909 h -6.9655 q 0,0.8718 0.26237,1.5235 0.26237,0.6432 0.7194,1.0579 0.44011,0.4063 1.04102,0.6094 0.60937,0.2031 1.33724,0.2031 0.96484,0 1.93815,-0.3808 0.98177,-0.3894 1.39648,-0.7618 h 0.0846 v 1.7351 q -0.80404,0.3385 -1.64193,0.567 -0.83789,0.2285 -1.76041,0.2285 -2.35287,0 -3.67318,-1.2695 -1.32031,-1.278 -1.32031,-3.6224 0,-2.319 1.26106,-3.6816 1.26953,-1.3627 3.33464,-1.3627 1.91276,0 2.94531,1.1172 1.04102,1.1172 1.04102,3.1739 z m -1.54883,-1.2187 q -0.008,-1.2526 -0.63477,-1.9382 -0.61784,-0.6855 -1.88737,-0.6855 -1.27799,0 -2.03971,0.7532 -0.75326,0.7533 -0.85482,1.8705 z"
         style="font-size:17.33333397px"
         id="path4669"
         inkscape:connector-curvature="0" />
    </g>
  </g>
</svg>
