<?xml version="1.0" encoding="UTF-8" standalone="no"?>
<!-- Created with Inkscape (http://www.inkscape.org/) -->

<svg
   xmlns:dc="http://purl.org/dc/elements/1.1/"
   xmlns:cc="http://creativecommons.org/ns#"
   xmlns:rdf="http://www.w3.org/1999/02/22-rdf-syntax-ns#"
   xmlns:svg="http://www.w3.org/2000/svg"
   xmlns="http://www.w3.org/2000/svg"
   xmlns:sodipodi="http://sodipodi.sourceforge.net/DTD/sodipodi-0.dtd"
   xmlns:inkscape="http://www.inkscape.org/namespaces/inkscape"
   width="937.32281"
   height="899.52759"
   viewBox="0 0 248 238"
   version="1.1"
   id="svg10270"
   inkscape:version="0.92.1 r15371"
   sodipodi:docname="cg1500_v1.svg">
  <defs
     id="defs10264">
    <marker
       style="overflow:visible"
       refY="0"
       refX="0"
       orient="auto"
       id="DistanceX">
      <path
         id="path10817"
         style="stroke:#000000;stroke-width:0.5"
         d="M 3,-3 -3,3 M 0,-5 V 5"
         inkscape:connector-curvature="0" />
    </marker>
    <pattern
       y="0"
       x="0"
       width="8"
       patternUnits="userSpaceOnUse"
       id="Hatch"
       height="8">
      <path
         id="path10820"
         stroke-width="0.25"
         stroke="#000000"
         linecap="square"
         d="M8 4 l-4,4" />
      <path
         id="path10822"
         stroke-width="0.25"
         stroke="#000000"
         linecap="square"
         d="M6 2 l-4,4" />
      <path
         id="path10824"
         stroke-width="0.25"
         stroke="#000000"
         linecap="square"
         d="M4 0 l-4,4" />
    </pattern>
    <symbol
       id="*MODEL_SPACE" />
    <symbol
       id="*PAPER_SPACE" />
  </defs>
  <sodipodi:namedview
     id="base"
     pagecolor="#ffffff"
     bordercolor="#666666"
     borderopacity="1.0"
     inkscape:pageopacity="0.0"
     inkscape:pageshadow="2"
     inkscape:zoom="0.83913688"
     inkscape:cx="449.23481"
     inkscape:cy="465.10198"
     inkscape:document-units="mm"
     inkscape:current-layer="layer1"
     showgrid="false"
     inkscape:window-width="1920"
     inkscape:window-height="1017"
     inkscape:window-x="-8"
     inkscape:window-y="-8"
     inkscape:window-maximized="1"
     units="px" />
  <metadata
     id="metadata10267">
    <rdf:RDF>
      <cc:Work
         rdf:about="">
        <dc:format>image/svg+xml</dc:format>
        <dc:type
           rdf:resource="http://purl.org/dc/dcmitype/StillImage" />
        <dc:title></dc:title>
      </cc:Work>
    </rdf:RDF>
  </metadata>
  <g
     inkscape:label="Layer 1"
     inkscape:groupmode="layer"
     id="layer1"
     transform="translate(0,-59)">
    <g
       id="g10841"
       inkscape:label="0"
       transform="matrix(-0.26458333,0,0,-0.26458333,1.3486319,357.12218)">
      <path
         id="path10831"
         style="fill:none;stroke:#000000"
         d="m -918.4252,1122.5197 a 11.338583,11.338583 0 0 1 -11.33858,-11.3386 V 241.88976 a 11.338583,11.338583 0 0 1 11.33858,-11.33858 h 232.44095 a 11.338583,11.338583 0 0 1 11.33858,11.33858 v 28.34646 a 11.338583,11.338583 0 0 0 11.33858,11.33858 h 351.49607 a 11.338583,11.338583 0 0 0 11.33858,-11.33858 v -28.34646 a 11.338583,11.338583 0 0 1 11.33858,-11.33858 H -11.338583 A 11.338583,11.338583 0 0 1 0,241.88976 v 869.29134 a 11.338583,11.338583 0 0 1 -11.338583,11.3386 z"
         inkscape:connector-curvature="0" />
      <path
         id="path10833"
         style="fill:none;stroke:#000000"
         d="m -22.393701,241.88976 a 5.952756,5.952756 0 1 0 -11.905512,0 5.952756,5.952756 0 1 0 11.905512,0 z"
         inkscape:connector-curvature="0" />
      <path
         id="path10835"
         style="fill:none;stroke:#000000"
         d="m -22.393701,1079.0551 a 5.952756,5.952756 0 1 0 -11.905512,0 5.952756,5.952756 0 1 0 11.905512,0 z"
         inkscape:connector-curvature="0" />
      <path
         id="path10837"
         style="fill:none;stroke:#000000"
         d="m -895.46457,241.88976 a 5.952756,5.952756 0 1 0 -11.90551,0 5.952756,5.952756 0 1 0 11.90551,0 z"
         inkscape:connector-curvature="0" />
      <path
         id="path10839"
         style="fill:none;stroke:#000000"
         d="m -895.46457,1079.0551 a 5.952756,5.952756 0 1 0 -11.90551,0 5.952756,5.952756 0 1 0 11.90551,0 z"
         inkscape:connector-curvature="0" />
    </g>
  </g>
</svg>
