<?xml version="1.0" encoding="UTF-8" standalone="no"?>
<!-- Created with Inkscape (http://www.inkscape.org/) -->

<svg
   xmlns:dc="http://purl.org/dc/elements/1.1/"
   xmlns:cc="http://creativecommons.org/ns#"
   xmlns:rdf="http://www.w3.org/1999/02/22-rdf-syntax-ns#"
   xmlns:svg="http://www.w3.org/2000/svg"
   xmlns="http://www.w3.org/2000/svg"
   xmlns:sodipodi="http://sodipodi.sourceforge.net/DTD/sodipodi-0.dtd"
   xmlns:inkscape="http://www.inkscape.org/namespaces/inkscape"
   width="247mm"
   height="246mm"
   viewBox="0 0 247 246"
   version="1.1"
   id="svg8"
   inkscape:version="0.92.1 r15371"
   sodipodi:docname="cg1500_bottom_plate_v1.svg">
  <defs
     id="defs2">
    <marker
       style="overflow:visible"
       refY="0"
       refX="0"
       orient="auto"
       id="DistanceX">
      <path
         id="path4487"
         style="stroke:#000000;stroke-width:0.5"
         d="M 3,-3 -3,3 M 0,-5 V 5"
         inkscape:connector-curvature="0" />
    </marker>
    <pattern
       y="0"
       x="0"
       width="8"
       patternUnits="userSpaceOnUse"
       id="Hatch"
       height="8">
      <path
         id="path4490"
         stroke-width="0.25"
         stroke="#000000"
         linecap="square"
         d="M8 4 l-4,4" />
      <path
         id="path4492"
         stroke-width="0.25"
         stroke="#000000"
         linecap="square"
         d="M6 2 l-4,4" />
      <path
         id="path4494"
         stroke-width="0.25"
         stroke="#000000"
         linecap="square"
         d="M4 0 l-4,4" />
    </pattern>
    <symbol
       id="*MODEL_SPACE" />
    <symbol
       id="*PAPER_SPACE" />
    <marker
       style="overflow:visible"
       refY="0"
       refX="0"
       orient="auto"
       id="DistanceX-5">
      <path
         id="path4550"
         style="stroke:#000000;stroke-width:0.5"
         d="M 3,-3 -3,3 M 0,-5 V 5"
         inkscape:connector-curvature="0" />
    </marker>
    <pattern
       y="0"
       x="0"
       width="8"
       patternUnits="userSpaceOnUse"
       id="Hatch-0"
       height="8">
      <path
         id="path4553"
         stroke-width="0.25"
         stroke="#000000"
         linecap="square"
         d="M8 4 l-4,4" />
      <path
         id="path4555"
         stroke-width="0.25"
         stroke="#000000"
         linecap="square"
         d="M6 2 l-4,4" />
      <path
         id="path4557"
         stroke-width="0.25"
         stroke="#000000"
         linecap="square"
         d="M4 0 l-4,4" />
    </pattern>
    <symbol
       id="*MODEL_SPACE-5" />
    <symbol
       id="*PAPER_SPACE-7" />
    <marker
       style="overflow:visible"
       refY="0"
       refX="0"
       orient="auto"
       id="DistanceX-1">
      <path
         id="path4619"
         style="stroke:#000000;stroke-width:0.5"
         d="M 3,-3 -3,3 M 0,-5 V 5"
         inkscape:connector-curvature="0" />
    </marker>
    <pattern
       y="0"
       x="0"
       width="8"
       patternUnits="userSpaceOnUse"
       id="Hatch-8"
       height="8">
      <path
         id="path4622"
         stroke-width="0.25"
         stroke="#000000"
         linecap="square"
         d="M8 4 l-4,4" />
      <path
         id="path4624"
         stroke-width="0.25"
         stroke="#000000"
         linecap="square"
         d="M6 2 l-4,4" />
      <path
         id="path4626"
         stroke-width="0.25"
         stroke="#000000"
         linecap="square"
         d="M4 0 l-4,4" />
    </pattern>
    <symbol
       id="*MODEL_SPACE-4" />
    <symbol
       id="*PAPER_SPACE-4" />
  </defs>
  <sodipodi:namedview
     id="base"
     pagecolor="#ffffff"
     bordercolor="#666666"
     borderopacity="1.0"
     inkscape:pageopacity="0.0"
     inkscape:pageshadow="2"
     inkscape:zoom="0.71129962"
     inkscape:cx="493.48275"
     inkscape:cy="513.36435"
     inkscape:document-units="mm"
     inkscape:current-layer="layer1"
     showgrid="false"
     inkscape:window-width="1920"
     inkscape:window-height="1017"
     inkscape:window-x="-8"
     inkscape:window-y="-8"
     inkscape:window-maximized="1" />
  <metadata
     id="metadata5">
    <rdf:RDF>
      <cc:Work
         rdf:about="">
        <dc:format>image/svg+xml</dc:format>
        <dc:type
           rdf:resource="http://purl.org/dc/dcmitype/StillImage" />
        <dc:title />
      </cc:Work>
    </rdf:RDF>
  </metadata>
  <g
     inkscape:label="Layer 1"
     inkscape:groupmode="layer"
     id="layer1"
     transform="translate(0,-51)">
    <g
       id="g4685"
       inkscape:label="0"
       transform="matrix(0.26458333,0,0,0.26458333,1.5417011,-244.86718)">
      <path
         id="path4633"
         style="fill:none;stroke:#000000"
         d="M 891.9685,1122.5197 H 30.23622 A 30.23622,30.23622 0 0 0 0,1152.7559 v 861.7323 a 30.23622,30.23622 0 0 0 30.23622,30.2362 H 891.9685 a 30.23622,30.23622 0 0 0 30.23622,-30.2362 v -861.7323 a 30.23622,30.23622 0 0 0 -30.23622,-30.2362 z"
         inkscape:connector-curvature="0" />
      <path
         id="path4635"
         style="fill:none;stroke:#000000"
         d="m 34.204724,1165.6063 a 6.425197,6.425197 0 1 0 -12.850393,0 6.425197,6.425197 0 1 0 12.850393,0 z"
         inkscape:connector-curvature="0" />
      <path
         id="path4637"
         style="fill:none;stroke:#000000"
         d="m 899.71654,1165.6063 a 6.4252,6.4252 0 1 0 -12.8504,0 6.4252,6.4252 0 1 0 12.8504,0 z"
         inkscape:connector-curvature="0" />
      <path
         id="path4639"
         style="fill:none;stroke:#000000"
         d="m 34.204724,2006.5512 a 6.425197,6.425197 0 1 0 -12.850393,0 6.425197,6.425197 0 1 0 12.850393,0 z"
         inkscape:connector-curvature="0" />
      <path
         id="path4641"
         style="fill:none;stroke:#000000"
         d="m 899.71654,2006.5512 a 6.4252,6.4252 0 1 0 -12.8504,0 6.4252,6.4252 0 1 0 12.8504,0 z"
         inkscape:connector-curvature="0" />
      <path
         id="path4643"
         style="fill:none;stroke:#000000"
         d="m 25.322835,1273.7008 a 6.425197,6.425197 0 1 0 -12.850394,0 6.425197,6.425197 0 1 0 12.850394,0 z"
         inkscape:connector-curvature="0" />
      <path
         id="path4645"
         style="fill:none;stroke:#000000"
         d="m 909.73228,1542.9921 a 6.425197,6.425197 0 1 0 -12.85039,0 6.425197,6.425197 0 1 0 12.85039,0 z"
         inkscape:connector-curvature="0" />
      <path
         id="path4647"
         style="fill:none;stroke:#000000"
         d="m 25.322835,1893.5433 a 6.425197,6.425197 0 1 0 -12.850394,0 6.425197,6.425197 0 1 0 12.850394,0 z"
         inkscape:connector-curvature="0" />
      <path
         id="path4649"
         style="fill:none;stroke:#000000"
         d="m 835.27559,2029.6063 h 15.11811 v -15.1181 h -15.11811 z"
         inkscape:connector-curvature="0" />
      <path
         id="path4651"
         style="fill:none;stroke:#000000"
         d="m 79.370079,2014.4882 h -15.11811 v 15.1181 h 15.11811 z"
         inkscape:connector-curvature="0" />
      <path
         id="path4653"
         style="fill:none;stroke:#000000"
         d="m 170.07874,2029.6063 v -15.1181 h -15.11811 v 15.1181 z"
         inkscape:connector-curvature="0" />
      <path
         id="path4655"
         style="fill:none;stroke:#000000"
         d="m 109.6063,2014.4882 v 15.1181 h 15.11811 v -15.1181 z"
         inkscape:connector-curvature="0" />
      <path
         id="path4657"
         style="fill:none;stroke:#000000"
         d="m 668.97638,2014.4882 h -15.11811 v 15.1181 h 15.11811 z"
         inkscape:connector-curvature="0" />
      <path
         id="path4659"
         style="fill:none;stroke:#000000"
         d="m 623.62205,2029.6063 v -15.1181 h -15.11811 v 15.1181 z"
         inkscape:connector-curvature="0" />
      <path
         id="path4661"
         style="fill:none;stroke:#000000"
         d="m 427.08661,2029.6063 h 15.11811 v -15.1181 h -15.11811 z"
         inkscape:connector-curvature="0" />
      <path
         id="path4663"
         style="fill:none;stroke:#000000"
         d="m 200.31496,2014.4882 v 15.1181 h 15.11811 v -15.1181 z"
         inkscape:connector-curvature="0" />
      <path
         id="path4665"
         style="fill:none;stroke:#000000"
         d="m 260.7874,2014.4882 h -15.11811 v 15.1181 h 15.11811 z"
         inkscape:connector-curvature="0" />
      <path
         id="path4667"
         style="fill:none;stroke:#000000"
         d="m 487.55905,2029.6063 v -15.1181 h -15.11811 v 15.1181 z"
         inkscape:connector-curvature="0" />
      <path
         id="path4669"
         style="fill:none;stroke:#000000"
         d="m 789.92126,2014.4882 v 15.1181 h 15.11811 v -15.1181 z"
         inkscape:connector-curvature="0" />
      <path
         id="path4671"
         style="fill:none;stroke:#000000"
         d="m 563.14961,2014.4882 v 15.1181 h 15.11811 v -15.1181 z"
         inkscape:connector-curvature="0" />
      <path
         id="path4673"
         style="fill:none;stroke:#000000"
         d="m 291.02362,2014.4882 v 15.1181 h 15.11811 v -15.1181 z"
         inkscape:connector-curvature="0" />
      <path
         id="path4675"
         style="fill:none;stroke:#000000"
         d="m 759.68504,2029.6063 v -15.1181 h -15.11811 v 15.1181 z"
         inkscape:connector-curvature="0" />
      <path
         id="path4677"
         style="fill:none;stroke:#000000"
         d="m 351.49606,2029.6063 v -15.1181 h -15.11811 v 15.1181 z"
         inkscape:connector-curvature="0" />
      <path
         id="path4679"
         style="fill:none;stroke:#000000"
         d="m 381.73228,2014.4882 v 15.1181 h 15.11811 v -15.1181 z"
         inkscape:connector-curvature="0" />
      <path
         id="path4681"
         style="fill:none;stroke:#000000"
         d="m 517.79528,2029.6063 h 15.11811 v -15.1181 h -15.11811 z"
         inkscape:connector-curvature="0" />
      <path
         id="path4683"
         style="fill:none;stroke:#000000"
         d="M 714.33071,2014.4882 H 699.2126 v 15.1181 h 15.11811 z"
         inkscape:connector-curvature="0" />
    </g>
    <rect
       style="fill:none;fill-opacity:1;stroke:#009300;stroke-width:0.24871261;stroke-miterlimit:4;stroke-dasharray:none;stroke-dashoffset:0;stroke-opacity:1"
       id="rect6132"
       width="245.94243"
       height="245.12158"
       x="0.5747242"
       y="51.553413" />
  </g>
</svg>
