<?xml version="1.0" encoding="UTF-8" standalone="no"?>
<!-- Created with Inkscape (http://www.inkscape.org/) -->

<svg
   xmlns:dc="http://purl.org/dc/elements/1.1/"
   xmlns:cc="http://creativecommons.org/ns#"
   xmlns:rdf="http://www.w3.org/1999/02/22-rdf-syntax-ns#"
   xmlns:svg="http://www.w3.org/2000/svg"
   xmlns="http://www.w3.org/2000/svg"
   xmlns:sodipodi="http://sodipodi.sourceforge.net/DTD/sodipodi-0.dtd"
   xmlns:inkscape="http://www.inkscape.org/namespaces/inkscape"
   width="490mm"
   height="246mm"
   viewBox="0 0 490 246"
   version="1.1"
   id="svg8"
   inkscape:version="0.92.1 r15371"
   sodipodi:docname="cg1500_double_v1.svg">
  <defs
     id="defs2">
    <marker
       style="overflow:visible"
       refY="0"
       refX="0"
       orient="auto"
       id="DistanceX">
      <path
         id="path4487"
         style="stroke:#000000;stroke-width:0.5"
         d="M 3,-3 -3,3 M 0,-5 V 5"
         inkscape:connector-curvature="0" />
    </marker>
    <pattern
       y="0"
       x="0"
       width="8"
       patternUnits="userSpaceOnUse"
       id="Hatch"
       height="8">
      <path
         id="path4490"
         stroke-width="0.25"
         stroke="#000000"
         linecap="square"
         d="M8 4 l-4,4" />
      <path
         id="path4492"
         stroke-width="0.25"
         stroke="#000000"
         linecap="square"
         d="M6 2 l-4,4" />
      <path
         id="path4494"
         stroke-width="0.25"
         stroke="#000000"
         linecap="square"
         d="M4 0 l-4,4" />
    </pattern>
    <symbol
       id="*MODEL_SPACE" />
    <symbol
       id="*PAPER_SPACE" />
    <marker
       style="overflow:visible"
       refY="0"
       refX="0"
       orient="auto"
       id="DistanceX-5">
      <path
         id="path4550"
         style="stroke:#000000;stroke-width:0.5"
         d="M 3,-3 -3,3 M 0,-5 V 5"
         inkscape:connector-curvature="0" />
    </marker>
    <pattern
       y="0"
       x="0"
       width="8"
       patternUnits="userSpaceOnUse"
       id="Hatch-0"
       height="8">
      <path
         id="path4553"
         stroke-width="0.25"
         stroke="#000000"
         linecap="square"
         d="M8 4 l-4,4" />
      <path
         id="path4555"
         stroke-width="0.25"
         stroke="#000000"
         linecap="square"
         d="M6 2 l-4,4" />
      <path
         id="path4557"
         stroke-width="0.25"
         stroke="#000000"
         linecap="square"
         d="M4 0 l-4,4" />
    </pattern>
    <symbol
       id="*MODEL_SPACE-5" />
    <symbol
       id="*PAPER_SPACE-7" />
    <marker
       style="overflow:visible"
       refY="0"
       refX="0"
       orient="auto"
       id="DistanceX-1">
      <path
         id="path4619"
         style="stroke:#000000;stroke-width:0.5"
         d="M 3,-3 -3,3 M 0,-5 V 5"
         inkscape:connector-curvature="0" />
    </marker>
    <pattern
       y="0"
       x="0"
       width="8"
       patternUnits="userSpaceOnUse"
       id="Hatch-8"
       height="8">
      <path
         id="path4622"
         stroke-width="0.25"
         stroke="#000000"
         linecap="square"
         d="M8 4 l-4,4" />
      <path
         id="path4624"
         stroke-width="0.25"
         stroke="#000000"
         linecap="square"
         d="M6 2 l-4,4" />
      <path
         id="path4626"
         stroke-width="0.25"
         stroke="#000000"
         linecap="square"
         d="M4 0 l-4,4" />
    </pattern>
    <symbol
       id="*MODEL_SPACE-4" />
    <symbol
       id="*PAPER_SPACE-4" />
    <marker
       style="overflow:visible"
       refY="0"
       refX="0"
       orient="auto"
       id="DistanceX-3">
      <path
         id="path4748"
         style="stroke:#000000;stroke-width:0.5"
         d="M 3,-3 -3,3 M 0,-5 V 5"
         inkscape:connector-curvature="0" />
    </marker>
    <pattern
       y="0"
       x="0"
       width="8"
       patternUnits="userSpaceOnUse"
       id="Hatch-2"
       height="8">
      <path
         id="path4751"
         stroke-width="0.25"
         stroke="#000000"
         linecap="square"
         d="M8 4 l-4,4" />
      <path
         id="path4753"
         stroke-width="0.25"
         stroke="#000000"
         linecap="square"
         d="M6 2 l-4,4" />
      <path
         id="path4755"
         stroke-width="0.25"
         stroke="#000000"
         linecap="square"
         d="M4 0 l-4,4" />
    </pattern>
    <symbol
       id="*MODEL_SPACE-51" />
    <symbol
       id="*PAPER_SPACE-5" />
    <marker
       style="overflow:visible"
       refY="0.0"
       refX="0.0"
       orient="auto"
       id="DistanceX-7">
      <path
         id="path4578"
         style="stroke:#000000; stroke-width:0.5"
         d="M 3,-3 L -3,3 M 0,-5 L  0,5" />
    </marker>
    <pattern
       y="0"
       x="0"
       width="8"
       patternUnits="userSpaceOnUse"
       id="Hatch-7"
       height="8">
      <path
         id="path4581"
         stroke-width="0.25"
         stroke="#000000"
         linecap="square"
         d="M8 4 l-4,4" />
      <path
         id="path4583"
         stroke-width="0.25"
         stroke="#000000"
         linecap="square"
         d="M6 2 l-4,4" />
      <path
         id="path4585"
         stroke-width="0.25"
         stroke="#000000"
         linecap="square"
         d="M4 0 l-4,4" />
    </pattern>
    <symbol
       id="*MODEL_SPACE-7" />
    <symbol
       id="*PAPER_SPACE-8" />
    <marker
       style="overflow:visible"
       refY="0.0"
       refX="0.0"
       orient="auto"
       id="DistanceX-36">
      <path
         id="path4689"
         style="stroke:#000000; stroke-width:0.5"
         d="M 3,-3 L -3,3 M 0,-5 L  0,5" />
    </marker>
    <pattern
       y="0"
       x="0"
       width="8"
       patternUnits="userSpaceOnUse"
       id="Hatch-9"
       height="8">
      <path
         id="path4692"
         stroke-width="0.25"
         stroke="#000000"
         linecap="square"
         d="M8 4 l-4,4" />
      <path
         id="path4694"
         stroke-width="0.25"
         stroke="#000000"
         linecap="square"
         d="M6 2 l-4,4" />
      <path
         id="path4696"
         stroke-width="0.25"
         stroke="#000000"
         linecap="square"
         d="M4 0 l-4,4" />
    </pattern>
    <symbol
       id="*MODEL_SPACE-55" />
    <symbol
       id="*PAPER_SPACE-2" />
  </defs>
  <sodipodi:namedview
     id="base"
     pagecolor="#ffffff"
     bordercolor="#666666"
     borderopacity="1.0"
     inkscape:pageopacity="0.0"
     inkscape:pageshadow="2"
     inkscape:zoom="0.59335938"
     inkscape:cx="877.63266"
     inkscape:cy="351.14708"
     inkscape:document-units="mm"
     inkscape:current-layer="layer1"
     showgrid="false"
     inkscape:window-width="1920"
     inkscape:window-height="1017"
     inkscape:window-x="-8"
     inkscape:window-y="-8"
     inkscape:window-maximized="1" />
  <metadata
     id="metadata5">
    <rdf:RDF>
      <cc:Work
         rdf:about="">
        <dc:format>image/svg+xml</dc:format>
        <dc:type
           rdf:resource="http://purl.org/dc/dcmitype/StillImage" />
        <dc:title></dc:title>
      </cc:Work>
    </rdf:RDF>
  </metadata>
  <g
     inkscape:label="Layer 1"
     inkscape:groupmode="layer"
     id="layer1"
     transform="translate(0,-51)">
    <rect
       style="fill:none;fill-opacity:1;stroke:#00f000;stroke-width:0.25520492;stroke-miterlimit:4;stroke-dasharray:none;stroke-dashoffset:0;stroke-opacity:1"
       id="rect4880"
       width="489.1203"
       height="245.06497"
       x="0.63310814"
       y="51.61726" />
    <g
       id="g4644"
       inkscape:label="0"
       transform="matrix(0.26458333,0,0,0.26458333,0.94665643,-244.86717)">
      <path
         id="path4592"
         style="fill:none;stroke:#000000"
         d="M 891.9685,1122.5197 H 30.23622 A 30.23622,30.23622 0 0 0 0,1152.7559 v 861.7323 a 30.23622,30.23622 0 0 0 30.23622,30.2362 H 891.9685 a 30.23622,30.23622 0 0 0 30.23622,-30.2362 v -861.7323 a 30.23622,30.23622 0 0 0 -30.23622,-30.2362 z"
         inkscape:connector-curvature="0" />
      <path
         id="path4594"
         style="fill:none;stroke:#000000"
         d="m 36.661417,1165.6063 a 6.425197,6.425197 0 1 0 -12.850393,0 6.425197,6.425197 0 1 0 12.850393,0 z"
         inkscape:connector-curvature="0" />
      <path
         id="path4596"
         style="fill:none;stroke:#000000"
         d="m 900.28346,1165.6063 a 6.425197,6.425197 0 1 0 -12.85039,0 6.425197,6.425197 0 1 0 12.85039,0 z"
         inkscape:connector-curvature="0" />
      <path
         id="path4598"
         style="fill:none;stroke:#000000"
         d="m 36.661417,2004.6614 a 6.425197,6.425197 0 1 0 -12.850393,0 6.425197,6.425197 0 1 0 12.850393,0 z"
         inkscape:connector-curvature="0" />
      <path
         id="path4600"
         style="fill:none;stroke:#000000"
         d="m 900.28346,2004.6614 a 6.425197,6.425197 0 1 0 -12.85039,0 6.425197,6.425197 0 1 0 12.85039,0 z"
         inkscape:connector-curvature="0" />
      <path
         id="path4602"
         style="fill:none;stroke:#000000"
         d="m 25.322835,1273.7008 a 6.425197,6.425197 0 1 0 -12.850394,0 6.425197,6.425197 0 1 0 12.850394,0 z"
         inkscape:connector-curvature="0" />
      <path
         id="path4604"
         style="fill:none;stroke:#000000"
         d="m 909.73228,1542.9921 a 6.425197,6.425197 0 1 0 -12.85039,0 6.425197,6.425197 0 1 0 12.85039,0 z"
         inkscape:connector-curvature="0" />
      <path
         id="path4606"
         style="fill:none;stroke:#000000"
         d="m 25.322835,1893.5433 a 6.425197,6.425197 0 1 0 -12.850394,0 6.425197,6.425197 0 1 0 12.850394,0 z"
         inkscape:connector-curvature="0" />
      <path
         id="path4608"
         style="fill:none;stroke:#000000"
         d="m 835.27559,2029.6063 h 15.11811 v -15.1181 h -15.11811 z"
         inkscape:connector-curvature="0" />
      <path
         id="path4610"
         style="fill:none;stroke:#000000"
         d="m 79.370079,2014.4882 h -15.11811 v 15.1181 h 15.11811 z"
         inkscape:connector-curvature="0" />
      <path
         id="path4612"
         style="fill:none;stroke:#000000"
         d="m 170.07874,2029.6063 v -15.1181 h -15.11811 v 15.1181 z"
         inkscape:connector-curvature="0" />
      <path
         id="path4614"
         style="fill:none;stroke:#000000"
         d="m 109.6063,2014.4882 v 15.1181 h 15.11811 v -15.1181 z"
         inkscape:connector-curvature="0" />
      <path
         id="path4616"
         style="fill:none;stroke:#000000"
         d="m 668.97638,2014.4882 h -15.11811 v 15.1181 h 15.11811 z"
         inkscape:connector-curvature="0" />
      <path
         id="path4618"
         style="fill:none;stroke:#000000"
         d="m 623.62205,2029.6063 v -15.1181 h -15.11811 v 15.1181 z"
         inkscape:connector-curvature="0" />
      <path
         id="path4620"
         style="fill:none;stroke:#000000"
         d="m 427.08661,2029.6063 h 15.11811 v -15.1181 h -15.11811 z"
         inkscape:connector-curvature="0" />
      <path
         id="path4622-4"
         style="fill:none;stroke:#000000"
         d="m 200.31496,2014.4882 v 15.1181 h 15.11811 v -15.1181 z"
         inkscape:connector-curvature="0" />
      <path
         id="path4624-7"
         style="fill:none;stroke:#000000"
         d="m 260.7874,2014.4882 h -15.11811 v 15.1181 h 15.11811 z"
         inkscape:connector-curvature="0" />
      <path
         id="path4626-9"
         style="fill:none;stroke:#000000"
         d="m 487.55905,2029.6063 v -15.1181 h -15.11811 v 15.1181 z"
         inkscape:connector-curvature="0" />
      <path
         id="path4628"
         style="fill:none;stroke:#000000"
         d="m 789.92126,2014.4882 v 15.1181 h 15.11811 v -15.1181 z"
         inkscape:connector-curvature="0" />
      <path
         id="path4630"
         style="fill:none;stroke:#000000"
         d="m 563.14961,2014.4882 v 15.1181 h 15.11811 v -15.1181 z"
         inkscape:connector-curvature="0" />
      <path
         id="path4632"
         style="fill:none;stroke:#000000"
         d="m 291.02362,2014.4882 v 15.1181 h 15.11811 v -15.1181 z"
         inkscape:connector-curvature="0" />
      <path
         id="path4634"
         style="fill:none;stroke:#000000"
         d="m 759.68504,2029.6063 v -15.1181 h -15.11811 v 15.1181 z"
         inkscape:connector-curvature="0" />
      <path
         id="path4636"
         style="fill:none;stroke:#000000"
         d="m 351.49606,2029.6063 v -15.1181 h -15.11811 v 15.1181 z"
         inkscape:connector-curvature="0" />
      <path
         id="path4638"
         style="fill:none;stroke:#000000"
         d="m 381.73228,2014.4882 v 15.1181 h 15.11811 v -15.1181 z"
         inkscape:connector-curvature="0" />
      <path
         id="path4640"
         style="fill:none;stroke:#000000"
         d="m 517.79528,2029.6063 h 15.11811 v -15.1181 h -15.11811 z"
         inkscape:connector-curvature="0" />
      <path
         id="path4642"
         style="fill:none;stroke:#000000"
         d="M 714.33071,2014.4882 H 699.2126 v 15.1181 h 15.11811 z"
         inkscape:connector-curvature="0" />
    </g>
    <g
       id="g4753"
       inkscape:label="0"
       transform="matrix(0.26458333,0,0,0.26458333,245.27799,-244.85578)">
      <path
         id="path4703"
         style="fill:none;stroke:#000000"
         d="M 891.9685,1122.5197 H 30.23622 A 30.23622,30.23622 0 0 0 0,1152.7559 v 755.9055 a 7.559055,7.559055 0 0 0 7.559055,7.5591 H 914.62253 a 7.559055,7.559055 0 0 0 7.58219,-7.5348 v -755.9298 a 30.23622,30.23622 0 0 0 -30.23622,-30.2362 z"
         inkscape:connector-curvature="0" />
      <path
         id="path4705"
         style="fill:none;stroke:#000000"
         d="m 36.661417,1165.6063 a 6.425197,6.425197 0 1 0 -12.850393,0 6.425197,6.425197 0 1 0 12.850393,0 z"
         inkscape:connector-curvature="0" />
      <path
         id="path4707"
         style="fill:none;stroke:#000000"
         d="m 900.28346,1165.6063 a 6.425197,6.425197 0 1 0 -12.85039,0 6.425197,6.425197 0 1 0 12.85039,0 z"
         inkscape:connector-curvature="0" />
      <path
         id="path4709"
         style="fill:none;stroke:#000000"
         d="m 25.322835,1273.7008 a 6.425197,6.425197 0 1 0 -12.850394,0 6.425197,6.425197 0 1 0 12.850394,0 z"
         inkscape:connector-curvature="0" />
      <path
         id="path4711"
         style="fill:none;stroke:#000000"
         d="m 909.73228,1542.9921 a 6.425197,6.425197 0 1 0 -12.85039,0 6.425197,6.425197 0 1 0 12.85039,0 z"
         inkscape:connector-curvature="0" />
      <path
         id="path4713"
         style="fill:none;stroke:#000000"
         d="m 25.322835,1893.5433 a 6.425197,6.425197 0 1 0 -12.850394,0 6.425197,6.425197 0 1 0 12.850394,0 z"
         inkscape:connector-curvature="0" />
      <path
         id="path4715"
         style="fill:none;stroke:#000000"
         d="M 71.811024,1885.9843 H 56.692913 v 15.1181 h 15.118111 z"
         inkscape:connector-curvature="0" />
      <path
         id="path4717"
         style="fill:none;stroke:#000000"
         d="m 102.04724,1885.9843 v 15.1181 h 15.11811 v -15.1181 z"
         inkscape:connector-curvature="0" />
      <path
         id="path4719"
         style="fill:none;stroke:#000000"
         d="m 147.40157,1885.9843 v 15.1181 h 15.11811 v -15.1181 z"
         inkscape:connector-curvature="0" />
      <path
         id="path4721"
         style="fill:none;stroke:#000000"
         d="m 207.87402,1901.1024 v -15.1181 h -15.11811 v 15.1181 z"
         inkscape:connector-curvature="0" />
      <path
         id="path4723"
         style="fill:none;stroke:#000000"
         d="m 238.11024,1901.1024 h 15.11811 v -15.1181 h -15.11811 z"
         inkscape:connector-curvature="0" />
      <path
         id="path4725"
         style="fill:none;stroke:#000000"
         d="m 298.58268,1901.1024 v -15.1181 h -15.11811 v 15.1181 z"
         inkscape:connector-curvature="0" />
      <path
         id="path4727"
         style="fill:none;stroke:#000000"
         d="M 343.93701,1885.9843 H 328.8189 v 15.1181 h 15.11811 z"
         inkscape:connector-curvature="0" />
      <path
         id="path4729"
         style="fill:none;stroke:#000000"
         d="m 389.29134,1901.1024 v -15.1181 h -15.11811 v 15.1181 z"
         inkscape:connector-curvature="0" />
      <path
         id="path4731"
         style="fill:none;stroke:#000000"
         d="m 434.64567,1901.1024 v -15.1181 h -15.11811 v 15.1181 z"
         inkscape:connector-curvature="0" />
      <path
         id="path4733"
         style="fill:none;stroke:#000000"
         d="m 480,1885.9843 h -15.11811 v 15.1181 H 480 Z"
         inkscape:connector-curvature="0" />
      <path
         id="path4735"
         style="fill:none;stroke:#000000"
         d="m 525.35433,1901.1024 v -15.1181 h -15.11811 v 15.1181 z"
         inkscape:connector-curvature="0" />
      <path
         id="path4737"
         style="fill:none;stroke:#000000"
         d="m 570.70866,1885.9843 h -15.11811 v 15.1181 h 15.11811 z"
         inkscape:connector-curvature="0" />
      <path
         id="path4739"
         style="fill:none;stroke:#000000"
         d="m 616.06299,1901.1024 v -15.1181 h -15.11811 v 15.1181 z"
         inkscape:connector-curvature="0" />
      <path
         id="path4741"
         style="fill:none;stroke:#000000"
         d="m 646.29921,1901.1024 h 15.11811 v -15.1181 h -15.11811 z"
         inkscape:connector-curvature="0" />
      <path
         id="path4743"
         style="fill:none;stroke:#000000"
         d="m 706.77165,1885.9843 h -15.11811 v 15.1181 h 15.11811 z"
         inkscape:connector-curvature="0" />
      <path
         id="path4745"
         style="fill:none;stroke:#000000"
         d="m 752.12598,1885.9843 h -15.11811 v 15.1181 h 15.11811 z"
         inkscape:connector-curvature="0" />
      <path
         id="path4747"
         style="fill:none;stroke:#000000"
         d="m 782.36221,1885.9843 v 15.1181 h 15.11811 v -15.1181 z"
         inkscape:connector-curvature="0" />
      <path
         id="path4749"
         style="fill:none;stroke:#000000"
         d="m 842.83465,1901.1024 v -15.1181 h -15.11811 v 15.1181 z"
         inkscape:connector-curvature="0" />
      <path
         id="path4751-7"
         style="fill:none;stroke:#000000"
         d="m 873.07087,1885.9843 v 15.1181 h 15.11811 v -15.1181 z"
         inkscape:connector-curvature="0" />
    </g>
    <g
       aria-label="&lt;-BOTTOM - CG1500 Double Decker Mounting Plate v2 - TOP /\"
       style="font-style:normal;font-weight:normal;font-size:5.64444447px;line-height:1.25;font-family:sans-serif;letter-spacing:0px;word-spacing:0px;fill:#ff0000;fill-opacity:1;stroke:none;stroke-width:0.26458332"
       id="text4797">
      <path
         d="m 251.88338,269.98027 -3.97564,-1.76733 v -0.42719 l 3.97564,-1.76734 v 0.62012 l -3.13504,1.36081 3.13504,1.36081 z"
         style="font-size:7.05555534px;fill:#ff0000;fill-opacity:1;stroke-width:0.26458332"
         id="path4799" />
      <path
         d="m 255.4835,268.31285 h -2.14974 v -0.62357 h 2.14974 z"
         style="font-size:7.05555534px;fill:#ff0000;fill-opacity:1;stroke-width:0.26458332"
         id="path4801" />
      <path
         d="m 260.57535,268.66769 q 0,0.38241 -0.14469,0.67524 -0.14469,0.29283 -0.3893,0.48231 -0.28938,0.22738 -0.63734,0.32384 -0.34451,0.0965 -0.8785,0.0965 h -1.81901 v -5.12974 h 1.51929 q 0.56155,0 0.8406,0.0413 0.27905,0.0413 0.53399,0.17225 0.2825,0.14814 0.40997,0.38241 0.12747,0.23082 0.12747,0.55466 0,0.36518 -0.18604,0.62356 -0.18603,0.25494 -0.49609,0.40997 v 0.0276 q 0.52021,0.1068 0.81993,0.4582 0.29972,0.34795 0.29972,0.88194 z m -1.14721,-2.31166 q 0,-0.18603 -0.062,-0.3135 -0.062,-0.12747 -0.19982,-0.20671 -0.16192,-0.093 -0.39274,-0.11369 -0.23082,-0.0241 -0.57189,-0.0241 h -0.81304 v 1.48139 h 0.88194 q 0.3204,0 0.50988,-0.031 0.18948,-0.0344 0.3514,-0.1378 0.16192,-0.10335 0.22737,-0.26527 0.0689,-0.16537 0.0689,-0.3893 z m 0.43752,2.33922 q 0,-0.31006 -0.093,-0.49265 -0.093,-0.18259 -0.33762,-0.31006 -0.16537,-0.0861 -0.40308,-0.11024 -0.23427,-0.0276 -0.57189,-0.0276 h -1.07142 v 1.90858 h 0.90262 q 0.44786,0 0.7338,-0.0448 0.28594,-0.0482 0.46853,-0.17226 0.19293,-0.13436 0.2825,-0.30661 0.0896,-0.17226 0.0896,-0.44442 z"
         style="font-size:7.05555534px;fill:#ff0000;fill-opacity:1;stroke-width:0.26458332"
         id="path4803" />
      <path
         d="m 265.36748,265.70491 q 0.3135,0.34451 0.47887,0.84405 0.16881,0.49954 0.16881,1.13343 0,0.6339 -0.17226,1.13688 -0.16881,0.49954 -0.47542,0.83372 -0.31695,0.34795 -0.75103,0.52365 -0.43064,0.1757 -0.9853,0.1757 -0.54088,0 -0.98529,-0.17914 -0.44098,-0.17915 -0.75103,-0.52021 -0.31006,-0.34107 -0.47887,-0.83716 -0.16537,-0.49609 -0.16537,-1.13344 0,-0.627 0.16537,-1.1231 0.16536,-0.49954 0.48231,-0.85438 0.30317,-0.33762 0.75103,-0.51677 0.45131,-0.17914 0.98185,-0.17914 0.55122,0 0.98875,0.18259 0.44097,0.17914 0.74758,0.51332 z m -0.062,1.97748 q 0,-0.99907 -0.44786,-1.53995 -0.44787,-0.54433 -1.22301,-0.54433 -0.78204,0 -1.2299,0.54433 -0.44442,0.54088 -0.44442,1.53995 0,1.00942 0.45475,1.54685 0.45476,0.53399 1.21957,0.53399 0.76481,0 1.21612,-0.53399 0.45475,-0.53743 0.45475,-1.54685 z"
         style="font-size:7.05555534px;fill:#ff0000;fill-opacity:1;stroke-width:0.26458332"
         id="path4805" />
      <path
         d="m 270.59025,265.72213 h -1.83279 v 4.52341 h -0.68213 v -4.52341 h -1.83279 v -0.60633 h 4.34771 z"
         style="font-size:7.05555534px;fill:#ff0000;fill-opacity:1;stroke-width:0.26458332"
         id="path4807" />
      <path
         d="m 274.71058,265.72213 h -1.83279 v 4.52341 h -0.68213 v -4.52341 h -1.83279 v -0.60633 h 4.34771 z"
         style="font-size:7.05555534px;fill:#ff0000;fill-opacity:1;stroke-width:0.26458332"
         id="path4809" />
      <path
         d="m 279.06518,265.70491 q 0.31351,0.34451 0.47887,0.84405 0.16881,0.49954 0.16881,1.13343 0,0.6339 -0.17226,1.13688 -0.1688,0.49954 -0.47542,0.83372 -0.31695,0.34795 -0.75103,0.52365 -0.43064,0.1757 -0.9853,0.1757 -0.54088,0 -0.98529,-0.17914 -0.44098,-0.17915 -0.75103,-0.52021 -0.31006,-0.34107 -0.47887,-0.83716 -0.16537,-0.49609 -0.16537,-1.13344 0,-0.627 0.16537,-1.1231 0.16536,-0.49954 0.48231,-0.85438 0.30317,-0.33762 0.75103,-0.51677 0.45131,-0.17914 0.98185,-0.17914 0.55122,0 0.98875,0.18259 0.44097,0.17914 0.74758,0.51332 z m -0.062,1.97748 q 0,-0.99907 -0.44786,-1.53995 -0.44786,-0.54433 -1.22301,-0.54433 -0.78204,0 -1.2299,0.54433 -0.44442,0.54088 -0.44442,1.53995 0,1.00942 0.45476,1.54685 0.45475,0.53399 1.21956,0.53399 0.76481,0 1.21612,-0.53399 0.45475,-0.53743 0.45475,-1.54685 z"
         style="font-size:7.05555534px;fill:#ff0000;fill-opacity:1;stroke-width:0.26458332"
         id="path4811" />
      <path
         d="m 285.36281,270.24554 h -0.68212 v -4.42005 l -1.42627,3.00757 h -0.40653 l -1.41593,-3.00757 v 4.42005 h -0.63734 v -5.12974 h 0.93017 l 1.36771,2.85598 1.32291,-2.85598 h 0.9474 z"
         style="font-size:7.05555534px;fill:#ff0000;fill-opacity:1;stroke-width:0.26458332"
         id="path4813" />
      <path
         d="m 291.21603,268.31285 h -2.14974 v -0.62357 h 2.14974 z"
         style="font-size:7.05555534px;fill:#ff0000;fill-opacity:1;stroke-width:0.26458332"
         id="path4815" />
      <path
         d="m 298.88137,269.87347 q -0.18948,0.0827 -0.34451,0.15503 -0.15158,0.0723 -0.39963,0.15159 -0.21015,0.0654 -0.4582,0.11024 -0.2446,0.0482 -0.54088,0.0482 -0.5581,0 -1.0163,-0.15503 -0.45475,-0.15847 -0.79237,-0.49265 -0.33073,-0.32728 -0.51677,-0.83026 -0.18603,-0.50643 -0.18603,-1.17478 0,-0.6339 0.17914,-1.13344 0.17915,-0.49954 0.51677,-0.84405 0.32728,-0.33417 0.78892,-0.50987 0.46509,-0.1757 1.03009,-0.1757 0.41341,0 0.82338,0.0999 0.41341,0.0999 0.91639,0.3514 v 0.80959 h -0.0517 q -0.42374,-0.35484 -0.8406,-0.51676 -0.41686,-0.16192 -0.89228,-0.16192 -0.38929,0 -0.7028,0.12747 -0.31006,0.12402 -0.55466,0.3893 -0.23771,0.25838 -0.37207,0.65456 -0.13091,0.39274 -0.13091,0.90951 0,0.54088 0.14469,0.93017 0.14814,0.3893 0.37896,0.6339 0.24116,0.25494 0.56155,0.37896 0.32384,0.12058 0.68213,0.12058 0.49265,0 0.92329,-0.16881 0.43063,-0.16881 0.80615,-0.50643 h 0.0482 z"
         style="font-size:7.05555534px;fill:#ff0000;fill-opacity:1;stroke-width:0.26458332"
         id="path4817" />
      <path
         d="m 304.1317,269.86658 q -0.42031,0.19293 -0.91984,0.33762 -0.4961,0.14125 -0.96119,0.14125 -0.59944,0 -1.09898,-0.16536 -0.49954,-0.16537 -0.85094,-0.4961 -0.35485,-0.33417 -0.54777,-0.83371 -0.19293,-0.50298 -0.19293,-1.17478 0,-1.2299 0.71658,-1.93959 0.72003,-0.71313 1.97404,-0.71313 0.43753,0 0.89228,0.1068 0.4582,0.10335 0.9853,0.35484 v 0.8096 h -0.062 q -0.1068,-0.0827 -0.31006,-0.21704 -0.20326,-0.13436 -0.39963,-0.22393 -0.23771,-0.1068 -0.54088,-0.1757 -0.29972,-0.0723 -0.68213,-0.0723 -0.86127,0 -1.36426,0.55466 -0.49954,0.55122 -0.49954,1.49517 0,0.99564 0.52366,1.5503 0.52365,0.55121 1.42627,0.55121 0.33073,0 0.65801,-0.0655 0.33073,-0.0654 0.57878,-0.16881 v -1.25746 h -1.3746 v -0.59944 h 2.04984 z"
         style="font-size:7.05555534px;fill:#ff0000;fill-opacity:1;stroke-width:0.26458332"
         id="path4819" />
      <path
         d="m 308.36917,270.24554 h -2.77675 v -0.52365 h 1.06798 v -3.43821 h -1.06798 v -0.46853 q 0.21704,0 0.46509,-0.0344 0.24804,-0.0379 0.37551,-0.1068 0.15848,-0.0861 0.24805,-0.21704 0.093,-0.13436 0.1068,-0.35829 h 0.53399 v 4.62332 h 1.04731 z"
         style="font-size:7.05555534px;fill:#ff0000;fill-opacity:1;stroke-width:0.26458332"
         id="path4821" />
      <path
         d="m 313.11306,268.61601 q 0,0.35829 -0.13092,0.68558 -0.13091,0.32728 -0.35829,0.55121 -0.24804,0.24116 -0.59255,0.37207 -0.34107,0.12747 -0.79237,0.12747 -0.42031,0 -0.8096,-0.0896 -0.3893,-0.0861 -0.65801,-0.21015 v -0.72692 h 0.0482 q 0.28249,0.17915 0.66146,0.30662 0.37896,0.12402 0.74414,0.12402 0.2446,0 0.47197,-0.0689 0.23083,-0.0689 0.40997,-0.24116 0.15158,-0.14814 0.22738,-0.35484 0.0792,-0.20671 0.0792,-0.47887 0,-0.26527 -0.093,-0.44786 -0.0896,-0.18259 -0.2515,-0.29284 -0.17914,-0.13091 -0.43752,-0.18259 -0.25494,-0.0551 -0.57189,-0.0551 -0.30317,0 -0.58566,0.0413 -0.27906,0.0413 -0.48232,0.0827 v -2.64239 h 3.08681 v 0.60289 h -2.4219 v 1.36426 q 0.14813,-0.0138 0.30316,-0.0207 0.15503,-0.007 0.26872,-0.007 0.41686,0 0.73036,0.0723 0.3135,0.0689 0.57533,0.24805 0.27561,0.18948 0.42719,0.4892 0.15159,0.29973 0.15159,0.75103 z"
         style="font-size:7.05555534px;fill:#ff0000;fill-opacity:1;stroke-width:0.26458332"
         id="path4823" />
      <path
         d="m 317.63992,267.67895 q 0,1.38148 -0.43408,2.02916 -0.43064,0.64423 -1.34015,0.64423 -0.92328,0 -1.35047,-0.65457 -0.42375,-0.65456 -0.42375,-2.01193 0,-1.3677 0.43064,-2.01883 0.43063,-0.65457 1.34358,-0.65457 0.92329,0 1.34704,0.66491 0.42719,0.66146 0.42719,2.0016 z m -0.90606,1.56407 q 0.12058,-0.27905 0.16192,-0.65457 0.0448,-0.37896 0.0448,-0.9095 0,-0.52366 -0.0448,-0.90951 -0.0413,-0.38585 -0.16537,-0.65456 -0.12058,-0.26528 -0.33073,-0.39964 -0.2067,-0.13435 -0.53399,-0.13435 -0.32384,0 -0.53743,0.13435 -0.21015,0.13436 -0.33418,0.40653 -0.11713,0.25493 -0.16191,0.6649 -0.0414,0.40997 -0.0414,0.89917 0,0.53743 0.0379,0.89917 0.0379,0.36173 0.16192,0.64768 0.11369,0.26871 0.32039,0.40996 0.21015,0.14125 0.55466,0.14125 0.32384,0 0.53744,-0.13436 0.21359,-0.13436 0.33073,-0.40652 z"
         style="font-size:7.05555534px;fill:#ff0000;fill-opacity:1;stroke-width:0.26458332"
         id="path4825" />
      <path
         d="m 322.13232,267.67895 q 0,1.38148 -0.43408,2.02916 -0.43064,0.64423 -1.34015,0.64423 -0.92328,0 -1.35047,-0.65457 -0.42375,-0.65456 -0.42375,-2.01193 0,-1.3677 0.43064,-2.01883 0.43063,-0.65457 1.34358,-0.65457 0.92329,0 1.34704,0.66491 0.42719,0.66146 0.42719,2.0016 z m -0.90606,1.56407 q 0.12058,-0.27905 0.16192,-0.65457 0.0448,-0.37896 0.0448,-0.9095 0,-0.52366 -0.0448,-0.90951 -0.0413,-0.38585 -0.16537,-0.65456 -0.12057,-0.26528 -0.33073,-0.39964 -0.2067,-0.13435 -0.53399,-0.13435 -0.32383,0 -0.53743,0.13435 -0.21015,0.13436 -0.33417,0.40653 -0.11714,0.25493 -0.16192,0.6649 -0.0413,0.40997 -0.0413,0.89917 0,0.53743 0.0379,0.89917 0.0379,0.36173 0.16192,0.64768 0.11369,0.26871 0.32039,0.40996 0.21016,0.14125 0.55466,0.14125 0.32384,0 0.53744,-0.13436 0.2136,-0.13436 0.33073,-0.40652 z"
         style="font-size:7.05555534px;fill:#ff0000;fill-opacity:1;stroke-width:0.26458332"
         id="path4827" />
      <path
         d="m 330.10771,267.68584 q 0,0.69935 -0.30661,1.26779 -0.30317,0.56844 -0.8096,0.88195 -0.3514,0.21704 -0.78548,0.3135 -0.43064,0.0965 -1.13688,0.0965 h -1.29536 v -5.12974 h 1.28158 q 0.75103,0 1.192,0.11024 0.44442,0.1068 0.75103,0.29628 0.52366,0.32728 0.81649,0.87161 0.29283,0.54432 0.29283,1.29191 z m -0.71313,-0.0103 q 0,-0.60289 -0.21015,-1.0163 -0.21015,-0.41341 -0.62701,-0.65112 -0.30317,-0.17226 -0.64423,-0.23771 -0.34107,-0.0689 -0.81649,-0.0689 h -0.64079 v 3.95842 h 0.64079 q 0.49265,0 0.85783,-0.0723 0.36862,-0.0724 0.67524,-0.26872 0.3824,-0.2446 0.57188,-0.64423 0.19293,-0.39963 0.19293,-0.99908 z"
         style="font-size:7.05555534px;fill:#ff0000;fill-opacity:1;stroke-width:0.26458332"
         id="path4829" />
      <path
         d="m 334.44509,268.32318 q 0,0.94051 -0.48231,1.48484 -0.48232,0.54432 -1.29192,0.54432 -0.81648,0 -1.2988,-0.54432 -0.47886,-0.54433 -0.47886,-1.48484 0,-0.94051 0.47886,-1.48483 0.48232,-0.54778 1.2988,-0.54778 0.8096,0 1.29192,0.54778 0.48231,0.54432 0.48231,1.48483 z m -0.66835,0 q 0,-0.74758 -0.29283,-1.10932 -0.29284,-0.36518 -0.81305,-0.36518 -0.5271,0 -0.81993,0.36518 -0.28939,0.36174 -0.28939,1.10932 0,0.72347 0.29284,1.09899 0.29283,0.37207 0.81648,0.37207 0.51677,0 0.8096,-0.36863 0.29628,-0.37207 0.29628,-1.10243 z"
         style="font-size:7.05555534px;fill:#ff0000;fill-opacity:1;stroke-width:0.26458332"
         id="path4831" />
      <path
         d="m 338.64121,270.24554 h -0.64767 v -0.42719 q -0.32729,0.25838 -0.62701,0.39619 -0.29972,0.1378 -0.66146,0.1378 -0.60634,0 -0.94396,-0.36862 -0.33762,-0.37207 -0.33762,-1.08865 v -2.4977 h 0.64768 v 2.19108 q 0,0.29284 0.0276,0.50299 0.0276,0.2067 0.11714,0.35484 0.093,0.15159 0.24115,0.22049 0.14814,0.0689 0.43064,0.0689 0.25149,0 0.54777,-0.13091 0.29972,-0.13092 0.55811,-0.33418 v -2.87321 h 0.64767 z"
         style="font-size:7.05555534px;fill:#ff0000;fill-opacity:1;stroke-width:0.26458332"
         id="path4833" />
      <path
         d="m 343.30243,268.29218 q 0,0.48231 -0.13781,0.86816 -0.13435,0.38585 -0.36518,0.64768 -0.2446,0.27216 -0.53743,0.40996 -0.29283,0.13436 -0.64423,0.13436 -0.32729,0 -0.57189,-0.0792 -0.2446,-0.0758 -0.48231,-0.20671 l -0.0413,0.17914 h -0.60634 v -5.36056 h 0.64768 v 1.91547 q 0.27216,-0.22393 0.57877,-0.36518 0.30662,-0.1447 0.68902,-0.1447 0.68213,0 1.07487,0.52366 0.39619,0.52365 0.39619,1.47795 z m -0.66835,0.0172 q 0,-0.68902 -0.22738,-1.04386 -0.22737,-0.35829 -0.7338,-0.35829 -0.2825,0 -0.57189,0.12402 -0.28939,0.12058 -0.53743,0.3135 v 2.20487 q 0.27561,0.12402 0.47198,0.17225 0.19981,0.0482 0.4513,0.0482 0.53744,0 0.84061,-0.3514 0.30661,-0.35484 0.30661,-1.10932 z"
         style="font-size:7.05555534px;fill:#ff0000;fill-opacity:1;stroke-width:0.26458332"
         id="path4835" />
      <path
         d="m 344.96641,270.24554 h -0.64768 v -5.36056 h 0.64768 z"
         style="font-size:7.05555534px;fill:#ff0000;fill-opacity:1;stroke-width:0.26458332"
         id="path4837" />
      <path
         d="m 349.44848,268.38864 h -2.83531 q 0,0.35484 0.10679,0.62012 0.1068,0.26182 0.29284,0.43063 0.17914,0.16537 0.42374,0.24805 0.24805,0.0827 0.54433,0.0827 0.39274,0 0.78893,-0.15503 0.39963,-0.15847 0.56844,-0.31006 h 0.0344 v 0.70625 q -0.32729,0.1378 -0.66835,0.23082 -0.34106,0.093 -0.71658,0.093 -0.95774,0 -1.49517,-0.51677 -0.53744,-0.52021 -0.53744,-1.4745 0,-0.94395 0.51332,-1.49861 0.51677,-0.55467 1.35737,-0.55467 0.77859,0 1.19889,0.45476 0.42375,0.45475 0.42375,1.29191 z m -0.63045,-0.4961 q -0.003,-0.50987 -0.25838,-0.78892 -0.2515,-0.27906 -0.76826,-0.27906 -0.52021,0 -0.83027,0.30662 -0.30661,0.30661 -0.34795,0.76136 z"
         style="font-size:7.05555534px;fill:#ff0000;fill-opacity:1;stroke-width:0.26458332"
         id="path4839" />
      <path
         d="m 357.29641,267.68584 q 0,0.69935 -0.30661,1.26779 -0.30317,0.56844 -0.8096,0.88195 -0.3514,0.21704 -0.78548,0.3135 -0.43064,0.0965 -1.13688,0.0965 h -1.29536 v -5.12974 h 1.28157 q 0.75104,0 1.19201,0.11024 0.44442,0.1068 0.75103,0.29628 0.52365,0.32728 0.81649,0.87161 0.29283,0.54432 0.29283,1.29191 z m -0.71314,-0.0103 q 0,-0.60289 -0.21015,-1.0163 -0.21015,-0.41341 -0.627,-0.65112 -0.30317,-0.17226 -0.64424,-0.23771 -0.34106,-0.0689 -0.81648,-0.0689 h -0.64079 v 3.95842 h 0.64079 q 0.49264,0 0.85782,-0.0723 0.36863,-0.0724 0.67524,-0.26872 0.38241,-0.2446 0.57189,-0.64423 0.19292,-0.39963 0.19292,-0.99908 z"
         style="font-size:7.05555534px;fill:#ff0000;fill-opacity:1;stroke-width:0.26458332"
         id="path4841" />
      <path
         d="m 361.57522,268.38864 h -2.83531 q 0,0.35484 0.10679,0.62012 0.1068,0.26182 0.29284,0.43063 0.17914,0.16537 0.42374,0.24805 0.24805,0.0827 0.54433,0.0827 0.39274,0 0.78893,-0.15503 0.39963,-0.15847 0.56844,-0.31006 h 0.0344 v 0.70625 q -0.32729,0.1378 -0.66835,0.23082 -0.34107,0.093 -0.71658,0.093 -0.95774,0 -1.49517,-0.51677 -0.53744,-0.52021 -0.53744,-1.4745 0,-0.94395 0.51332,-1.49861 0.51677,-0.55467 1.35737,-0.55467 0.77859,0 1.19889,0.45476 0.42375,0.45475 0.42375,1.29191 z m -0.63045,-0.4961 q -0.003,-0.50987 -0.25838,-0.78892 -0.2515,-0.27906 -0.76826,-0.27906 -0.52021,0 -0.83027,0.30662 -0.30661,0.30661 -0.34795,0.76136 z"
         style="font-size:7.05555534px;fill:#ff0000;fill-opacity:1;stroke-width:0.26458332"
         id="path4843" />
      <path
         d="m 365.40271,270.00439 q -0.32383,0.15503 -0.61667,0.24115 -0.28939,0.0861 -0.61667,0.0861 -0.41686,0 -0.76481,-0.12058 -0.34796,-0.12402 -0.596,-0.37207 -0.25149,-0.24804 -0.3893,-0.627 -0.1378,-0.37896 -0.1378,-0.88539 0,-0.94396 0.51676,-1.48139 0.52021,-0.53744 1.37115,-0.53744 0.33073,0 0.64768,0.093 0.32039,0.093 0.58566,0.22737 v 0.72003 h -0.0344 q -0.29627,-0.23082 -0.61322,-0.35485 -0.31351,-0.12402 -0.61323,-0.12402 -0.55122,0 -0.87161,0.37207 -0.31695,0.36863 -0.31695,1.08521 0,0.69591 0.31006,1.07142 0.3135,0.37207 0.8785,0.37207 0.19637,0 0.39963,-0.0517 0.20326,-0.0517 0.36518,-0.13435 0.14125,-0.0724 0.26527,-0.15159 0.12403,-0.0827 0.19637,-0.14125 h 0.0344 z"
         style="font-size:7.05555534px;fill:#ff0000;fill-opacity:1;stroke-width:0.26458332"
         id="path4845" />
      <path
         d="m 369.72976,270.24554 h -0.85438 l -1.54341,-1.68465 -0.4203,0.39963 v 1.28502 h -0.64768 v -5.36056 h 0.64768 v 3.4382 l 1.87069,-1.92581 h 0.81649 l -1.78801,1.77767 z"
         style="font-size:7.05555534px;fill:#ff0000;fill-opacity:1;stroke-width:0.26458332"
         id="path4847" />
      <path
         d="m 373.56415,268.38864 h -2.83531 q 0,0.35484 0.10679,0.62012 0.1068,0.26182 0.29284,0.43063 0.17914,0.16537 0.42374,0.24805 0.24805,0.0827 0.54433,0.0827 0.39274,0 0.78893,-0.15503 0.39963,-0.15847 0.56844,-0.31006 h 0.0344 v 0.70625 q -0.32729,0.1378 -0.66835,0.23082 -0.34107,0.093 -0.71658,0.093 -0.95774,0 -1.49517,-0.51677 -0.53744,-0.52021 -0.53744,-1.4745 0,-0.94395 0.51332,-1.49861 0.51677,-0.55467 1.35737,-0.55467 0.77859,0 1.19889,0.45476 0.42375,0.45475 0.42375,1.29191 z m -0.63045,-0.4961 q -0.003,-0.50987 -0.25839,-0.78892 -0.25149,-0.27906 -0.76825,-0.27906 -0.52021,0 -0.83027,0.30662 -0.30661,0.30661 -0.34795,0.76136 z"
         style="font-size:7.05555534px;fill:#ff0000;fill-opacity:1;stroke-width:0.26458332"
         id="path4849" />
      <path
         d="m 376.94724,267.10362 h -0.0345 q -0.14469,-0.0344 -0.28249,-0.0482 -0.13436,-0.0172 -0.3204,-0.0172 -0.29972,0 -0.57877,0.13436 -0.27906,0.13091 -0.53744,0.34106 v 2.73196 H 374.546 v -3.84817 h 0.64768 v 0.56844 q 0.38585,-0.31005 0.67869,-0.43752 0.29627,-0.13092 0.60289,-0.13092 0.16881,0 0.2446,0.0103 0.0758,0.007 0.22738,0.031 z"
         style="font-size:7.05555534px;fill:#ff0000;fill-opacity:1;stroke-width:0.26458332"
         id="path4851" />
      <path
         d="m 384.66424,270.24554 h -0.68213 v -4.42005 l -1.42626,3.00757 h -0.40653 l -1.41593,-3.00757 v 4.42005 h -0.63734 v -5.12974 h 0.93017 l 1.36771,2.85598 1.32291,-2.85598 h 0.9474 z"
         style="font-size:7.05555534px;fill:#ff0000;fill-opacity:1;stroke-width:0.26458332"
         id="path4853" />
      <path
         d="m 389.27723,268.32318 q 0,0.94051 -0.48232,1.48484 -0.48231,0.54432 -1.29191,0.54432 -0.81649,0 -1.2988,-0.54432 -0.47887,-0.54433 -0.47887,-1.48484 0,-0.94051 0.47887,-1.48483 0.48231,-0.54778 1.2988,-0.54778 0.8096,0 1.29191,0.54778 0.48232,0.54432 0.48232,1.48483 z m -0.66835,0 q 0,-0.74758 -0.29283,-1.10932 -0.29284,-0.36518 -0.81305,-0.36518 -0.5271,0 -0.81993,0.36518 -0.28939,0.36174 -0.28939,1.10932 0,0.72347 0.29283,1.09899 0.29284,0.37207 0.81649,0.37207 0.51677,0 0.8096,-0.36863 0.29628,-0.37207 0.29628,-1.10243 z"
         style="font-size:7.05555534px;fill:#ff0000;fill-opacity:1;stroke-width:0.26458332"
         id="path4855" />
      <path
         d="m 393.47336,270.24554 h -0.64768 v -0.42719 q -0.32728,0.25838 -0.62701,0.39619 -0.29972,0.1378 -0.66145,0.1378 -0.60634,0 -0.94396,-0.36862 -0.33762,-0.37207 -0.33762,-1.08865 v -2.4977 h 0.64768 v 2.19108 q 0,0.29284 0.0276,0.50299 0.0276,0.2067 0.11713,0.35484 0.093,0.15159 0.24116,0.22049 0.14814,0.0689 0.43064,0.0689 0.25149,0 0.54777,-0.13091 0.29972,-0.13092 0.5581,-0.33418 v -2.87321 h 0.64768 z"
         style="font-size:7.05555534px;fill:#ff0000;fill-opacity:1;stroke-width:0.26458332"
         id="path4857" />
      <path
         d="m 397.96576,270.24554 h -0.64767 v -2.19108 q 0,-0.26527 -0.031,-0.49609 -0.031,-0.23427 -0.11369,-0.36518 -0.0861,-0.14469 -0.24804,-0.2136 -0.16192,-0.0723 -0.42031,-0.0723 -0.26527,0 -0.55466,0.13091 -0.28938,0.13091 -0.55466,0.33417 v 2.87321 h -0.64767 v -3.84817 h 0.64767 v 0.42719 q 0.30317,-0.25149 0.62701,-0.39274 0.32384,-0.14125 0.6649,-0.14125 0.62357,0 0.95085,0.37552 0.32728,0.37552 0.32728,1.08176 z"
         style="font-size:7.05555534px;fill:#ff0000;fill-opacity:1;stroke-width:0.26458332"
         id="path4859" />
      <path
         d="m 401.21104,270.21109 q -0.18259,0.0482 -0.39963,0.0792 -0.21359,0.031 -0.3824,0.031 -0.58911,0 -0.89573,-0.31695 -0.30661,-0.31695 -0.30661,-1.01631 v -2.04638 h -0.43753 v -0.54433 h 0.43753 v -1.10587 h 0.64768 v 1.10587 h 1.33669 v 0.54433 h -1.33669 v 1.75355 q 0,0.30317 0.0138,0.47542 0.0138,0.16881 0.0965,0.31695 0.0758,0.13781 0.20671,0.20326 0.13435,0.062 0.40652,0.062 0.15847,0 0.33073,-0.0448 0.17225,-0.0482 0.24804,-0.0792 h 0.0345 z"
         style="font-size:7.05555534px;fill:#ff0000;fill-opacity:1;stroke-width:0.26458332"
         id="path4861" />
      <path
         d="m 402.69243,265.75314 h -0.73036 v -0.67179 h 0.73036 z m -0.0413,4.4924 h -0.64768 v -3.84817 h 0.64768 z"
         style="font-size:7.05555534px;fill:#ff0000;fill-opacity:1;stroke-width:0.26458332"
         id="path4863" />
      <path
         d="m 407.12972,270.24554 h -0.64768 v -2.19108 q 0,-0.26527 -0.031,-0.49609 -0.031,-0.23427 -0.11369,-0.36518 -0.0861,-0.14469 -0.24805,-0.2136 -0.16192,-0.0723 -0.4203,-0.0723 -0.26527,0 -0.55466,0.13091 -0.28939,0.13091 -0.55466,0.33417 v 2.87321 H 403.912 v -3.84817 h 0.64768 v 0.42719 q 0.30317,-0.25149 0.62701,-0.39274 0.32384,-0.14125 0.6649,-0.14125 0.62356,0 0.95085,0.37552 0.32728,0.37552 0.32728,1.08176 z"
         style="font-size:7.05555534px;fill:#ff0000;fill-opacity:1;stroke-width:0.26458332"
         id="path4865" />
      <path
         d="m 411.4981,269.80802 q 0,0.9784 -0.44442,1.4366 -0.44441,0.4582 -1.3677,0.4582 -0.30661,0 -0.59945,-0.0448 -0.28938,-0.0413 -0.57188,-0.12057 V 270.876 h 0.0344 q 0.15847,0.062 0.50298,0.15158 0.34451,0.093 0.68902,0.093 0.33073,0 0.54777,-0.0792 0.21704,-0.0792 0.33762,-0.22048 0.12058,-0.13436 0.17226,-0.32384 0.0517,-0.18948 0.0517,-0.42375 v -0.3514 q -0.29283,0.23427 -0.56155,0.3514 -0.26527,0.11369 -0.67868,0.11369 -0.68902,0 -1.09554,-0.4961 -0.40308,-0.49953 -0.40308,-1.40559 0,-0.4961 0.13781,-0.85439 0.14124,-0.36173 0.3824,-0.62356 0.22393,-0.2446 0.54433,-0.37896 0.32039,-0.13781 0.63734,-0.13781 0.33417,0 0.5581,0.0689 0.22738,0.0654 0.47887,0.20326 l 0.0413,-0.16537 h 0.60634 z m -0.64768,-0.62012 v -2.09806 q -0.25838,-0.11714 -0.48231,-0.16537 -0.22049,-0.0517 -0.44097,-0.0517 -0.53399,0 -0.84061,0.35829 -0.30661,0.35829 -0.30661,1.04041 0,0.64768 0.22738,0.98186 0.22737,0.33417 0.75447,0.33417 0.2825,0 0.565,-0.1068 0.28594,-0.11024 0.52365,-0.29283 z"
         style="font-size:7.05555534px;fill:#ff0000;fill-opacity:1;stroke-width:0.26458332"
         id="path4867" />
      <path
         d="m 418.66045,266.66609 q 0,0.34106 -0.12058,0.6339 -0.11713,0.28939 -0.33073,0.50298 -0.26527,0.26527 -0.62701,0.39963 -0.36173,0.13092 -0.91295,0.13092 h -0.68213 v 1.91202 h -0.68213 v -5.12974 h 1.39182 q 0.46165,0 0.78204,0.0792 0.32039,0.0758 0.56844,0.24116 0.29283,0.19637 0.45131,0.4892 0.16192,0.29284 0.16192,0.7407 z m -0.70969,0.0172 q 0,-0.26528 -0.093,-0.46165 -0.093,-0.19637 -0.2825,-0.32039 -0.16536,-0.1068 -0.37896,-0.15159 -0.21015,-0.0482 -0.53399,-0.0482 h -0.67524 v 2.04984 h 0.57533 q 0.41342,0 0.6718,-0.0724 0.25838,-0.0758 0.4203,-0.23771 0.16192,-0.16537 0.22738,-0.34796 0.0689,-0.18259 0.0689,-0.40996 z"
         style="font-size:7.05555534px;fill:#ff0000;fill-opacity:1;stroke-width:0.26458332"
         id="path4869" />
      <path
         d="m 420.16595,270.24554 h -0.64768 v -5.36056 h 0.64768 z"
         style="font-size:7.05555534px;fill:#ff0000;fill-opacity:1;stroke-width:0.26458332"
         id="path4871" />
      <path
         d="m 424.41721,270.24554 h -0.64424 v -0.40996 q -0.0861,0.0586 -0.23426,0.16536 -0.1447,0.10336 -0.2825,0.16537 -0.16192,0.0792 -0.37207,0.13091 -0.21015,0.0551 -0.49265,0.0551 -0.52021,0 -0.88194,-0.34451 -0.36174,-0.34451 -0.36174,-0.8785 0,-0.43752 0.18604,-0.70624 0.18948,-0.27216 0.53743,-0.42719 0.3514,-0.15503 0.84405,-0.21015 0.49265,-0.0551 1.05764,-0.0827 v -0.0999 q 0,-0.22049 -0.0792,-0.36518 -0.0758,-0.1447 -0.22049,-0.22738 -0.1378,-0.0792 -0.33073,-0.1068 -0.19292,-0.0276 -0.40308,-0.0276 -0.25493,0 -0.56844,0.0689 -0.3135,0.0655 -0.64767,0.19293 h -0.0345 v -0.65801 q 0.18948,-0.0517 0.54777,-0.11369 0.35829,-0.062 0.70625,-0.062 0.40652,0 0.70624,0.0689 0.30317,0.0654 0.52366,0.22737 0.21704,0.15848 0.33073,0.40997 0.11369,0.25149 0.11369,0.62356 z m -0.64424,-0.9474 v -1.07142 q -0.29628,0.0172 -0.69935,0.0517 -0.39963,0.0345 -0.6339,0.0999 -0.27905,0.0792 -0.45131,0.24805 -0.17225,0.16536 -0.17225,0.4582 0,0.33073 0.19981,0.49954 0.19982,0.16536 0.60979,0.16536 0.34106,0 0.62356,-0.13091 0.2825,-0.13436 0.52365,-0.3204 z"
         style="font-size:7.05555534px;fill:#ff0000;fill-opacity:1;stroke-width:0.26458332"
         id="path4873" />
      <path
         d="m 427.66937,270.21109 q -0.18259,0.0482 -0.39963,0.0792 -0.21359,0.031 -0.3824,0.031 -0.58912,0 -0.89573,-0.31695 -0.30661,-0.31695 -0.30661,-1.01631 v -2.04638 h -0.43753 v -0.54433 h 0.43753 v -1.10587 h 0.64768 v 1.10587 h 1.33669 v 0.54433 h -1.33669 v 1.75355 q 0,0.30317 0.0138,0.47542 0.0138,0.16881 0.0965,0.31695 0.0758,0.13781 0.2067,0.20326 0.13436,0.062 0.40653,0.062 0.15847,0 0.33072,-0.0448 0.17226,-0.0482 0.24805,-0.0792 h 0.0344 z"
         style="font-size:7.05555534px;fill:#ff0000;fill-opacity:1;stroke-width:0.26458332"
         id="path4875" />
      <path
         d="m 431.67601,268.38864 h -2.83531 q 0,0.35484 0.1068,0.62012 0.10679,0.26182 0.29283,0.43063 0.17914,0.16537 0.42375,0.24805 0.24804,0.0827 0.54432,0.0827 0.39274,0 0.78893,-0.15503 0.39963,-0.15847 0.56844,-0.31006 h 0.0344 v 0.70625 q -0.32728,0.1378 -0.66835,0.23082 -0.34106,0.093 -0.71658,0.093 -0.95774,0 -1.49517,-0.51677 -0.53744,-0.52021 -0.53744,-1.4745 0,-0.94395 0.51332,-1.49861 0.51677,-0.55467 1.35737,-0.55467 0.77859,0 1.19889,0.45476 0.42375,0.45475 0.42375,1.29191 z m -0.63045,-0.4961 q -0.003,-0.50987 -0.25838,-0.78892 -0.25149,-0.27906 -0.76826,-0.27906 -0.52021,0 -0.83027,0.30662 -0.30661,0.30661 -0.34795,0.76136 z"
         style="font-size:7.05555534px;fill:#ff0000;fill-opacity:1;stroke-width:0.26458332"
         id="path4877" />
      <path
         d="m 438.4663,266.39737 -1.55719,3.84817 h -0.65112 l -1.54685,-3.84817 h 0.7028 l 1.19201,3.06269 1.18166,-3.06269 z"
         style="font-size:7.05555534px;fill:#ff0000;fill-opacity:1;stroke-width:0.26458332"
         id="path4879" />
      <path
         d="m 442.70377,270.24554 h -3.47266 v -0.72002 q 0.36174,-0.31006 0.72347,-0.62012 0.36518,-0.31006 0.67869,-0.61667 0.66146,-0.64079 0.90606,-1.0163 0.2446,-0.37896 0.2446,-0.81649 0,-0.39963 -0.26527,-0.62356 -0.26183,-0.22738 -0.73381,-0.22738 -0.3135,0 -0.67868,0.11024 -0.36518,0.11025 -0.71314,0.33762 h -0.0344 v -0.72347 q 0.2446,-0.12058 0.65112,-0.22048 0.40997,-0.0999 0.79238,-0.0999 0.78892,0 1.23679,0.38241 0.44786,0.37896 0.44786,1.03008 0,0.29283 -0.0758,0.54777 -0.0723,0.25149 -0.21704,0.47887 -0.13436,0.21359 -0.31695,0.4203 -0.17915,0.2067 -0.43753,0.4582 -0.36863,0.36173 -0.76137,0.7028 -0.39274,0.33762 -0.7338,0.627 h 2.75952 z"
         style="font-size:7.05555534px;fill:#ff0000;fill-opacity:1;stroke-width:0.26458332"
         id="path4881" />
      <path
         d="m 448.32616,268.31285 h -2.14974 v -0.62357 h 2.14974 z"
         style="font-size:7.05555534px;fill:#ff0000;fill-opacity:1;stroke-width:0.26458332"
         id="path4883" />
      <path
         d="m 455.68833,265.72213 h -1.83279 v 4.52341 h -0.68213 v -4.52341 h -1.83279 v -0.60633 h 4.34771 z"
         style="font-size:7.05555534px;fill:#ff0000;fill-opacity:1;stroke-width:0.26458332"
         id="path4885" />
      <path
         d="m 460.04294,265.70491 q 0.3135,0.34451 0.47886,0.84405 0.16881,0.49954 0.16881,1.13343 0,0.6339 -0.17225,1.13688 -0.16881,0.49954 -0.47542,0.83372 -0.31695,0.34795 -0.75103,0.52365 -0.43064,0.1757 -0.9853,0.1757 -0.54088,0 -0.9853,-0.17914 -0.44097,-0.17915 -0.75103,-0.52021 -0.31006,-0.34107 -0.47887,-0.83716 -0.16536,-0.49609 -0.16536,-1.13344 0,-0.627 0.16536,-1.1231 0.16537,-0.49954 0.48232,-0.85438 0.30316,-0.33762 0.75103,-0.51677 0.4513,-0.17914 0.98185,-0.17914 0.55121,0 0.98874,0.18259 0.44097,0.17914 0.74759,0.51332 z m -0.062,1.97748 q 0,-0.99907 -0.44786,-1.53995 -0.44786,-0.54433 -1.22301,-0.54433 -0.78203,0 -1.2299,0.54433 -0.44441,0.54088 -0.44441,1.53995 0,1.00942 0.45475,1.54685 0.45475,0.53399 1.21956,0.53399 0.76481,0 1.21612,-0.53399 0.45475,-0.53743 0.45475,-1.54685 z"
         style="font-size:7.05555534px;fill:#ff0000;fill-opacity:1;stroke-width:0.26458332"
         id="path4887" />
      <path
         d="m 465.1279,266.66609 q 0,0.34106 -0.12058,0.6339 -0.11713,0.28939 -0.33073,0.50298 -0.26527,0.26527 -0.627,0.39963 -0.36174,0.13092 -0.91295,0.13092 h -0.68213 v 1.91202 h -0.68213 v -5.12974 h 1.39182 q 0.46164,0 0.78203,0.0792 0.3204,0.0758 0.56844,0.24116 0.29284,0.19637 0.45131,0.4892 0.16192,0.29284 0.16192,0.7407 z m -0.70969,0.0172 q 0,-0.26528 -0.093,-0.46165 -0.093,-0.19637 -0.28249,-0.32039 -0.16537,-0.1068 -0.37896,-0.15159 -0.21016,-0.0482 -0.53399,-0.0482 h -0.67524 v 2.04984 h 0.57533 q 0.41341,0 0.67179,-0.0724 0.25838,-0.0758 0.4203,-0.23771 0.16192,-0.16537 0.22738,-0.34796 0.0689,-0.18259 0.0689,-0.40996 z"
         style="font-size:7.05555534px;fill:#ff0000;fill-opacity:1;stroke-width:0.26458332"
         id="path4889" />
      <path
         d="m 470.78474,264.88498 -2.47013,6.40787 h -0.596 l 2.4598,-6.40787 z"
         style="font-size:7.05555534px;fill:#ff0000;fill-opacity:1;stroke-width:0.26458332"
         id="path4891" />
      <path
         d="m 474.34008,271.29285 h -0.596 l -2.47013,-6.40787 h 0.60633 z"
         style="font-size:7.05555534px;fill:#ff0000;fill-opacity:1;stroke-width:0.26458332"
         id="path4893" />
    </g>
  </g>
</svg>
