<?xml version="1.0" encoding="UTF-8" standalone="no"?>
<!-- Created with Inkscape (http://www.inkscape.org/) -->

<svg
   xmlns:dc="http://purl.org/dc/elements/1.1/"
   xmlns:cc="http://creativecommons.org/ns#"
   xmlns:rdf="http://www.w3.org/1999/02/22-rdf-syntax-ns#"
   xmlns:svg="http://www.w3.org/2000/svg"
   xmlns="http://www.w3.org/2000/svg"
   xmlns:sodipodi="http://sodipodi.sourceforge.net/DTD/sodipodi-0.dtd"
   xmlns:inkscape="http://www.inkscape.org/namespaces/inkscape"
   width="490mm"
   height="246mm"
   viewBox="0 0 490 246"
   version="1.1"
   id="svg8"
   inkscape:version="0.92.1 r15371"
   sodipodi:docname="cg1500_double_full_top_v1.svg">
  <defs
     id="defs2">
    <marker
       style="overflow:visible"
       refY="0"
       refX="0"
       orient="auto"
       id="DistanceX">
      <path
         id="path4487"
         style="stroke:#000000;stroke-width:0.5"
         d="M 3,-3 -3,3 M 0,-5 V 5"
         inkscape:connector-curvature="0" />
    </marker>
    <pattern
       y="0"
       x="0"
       width="8"
       patternUnits="userSpaceOnUse"
       id="Hatch"
       height="8">
      <path
         id="path4490"
         stroke-width="0.25"
         stroke="#000000"
         linecap="square"
         d="M8 4 l-4,4" />
      <path
         id="path4492"
         stroke-width="0.25"
         stroke="#000000"
         linecap="square"
         d="M6 2 l-4,4" />
      <path
         id="path4494"
         stroke-width="0.25"
         stroke="#000000"
         linecap="square"
         d="M4 0 l-4,4" />
    </pattern>
    <symbol
       id="*MODEL_SPACE" />
    <symbol
       id="*PAPER_SPACE" />
    <marker
       style="overflow:visible"
       refY="0"
       refX="0"
       orient="auto"
       id="DistanceX-5">
      <path
         id="path4550"
         style="stroke:#000000;stroke-width:0.5"
         d="M 3,-3 -3,3 M 0,-5 V 5"
         inkscape:connector-curvature="0" />
    </marker>
    <pattern
       y="0"
       x="0"
       width="8"
       patternUnits="userSpaceOnUse"
       id="Hatch-0"
       height="8">
      <path
         id="path4553"
         stroke-width="0.25"
         stroke="#000000"
         linecap="square"
         d="M8 4 l-4,4" />
      <path
         id="path4555"
         stroke-width="0.25"
         stroke="#000000"
         linecap="square"
         d="M6 2 l-4,4" />
      <path
         id="path4557"
         stroke-width="0.25"
         stroke="#000000"
         linecap="square"
         d="M4 0 l-4,4" />
    </pattern>
    <symbol
       id="*MODEL_SPACE-5" />
    <symbol
       id="*PAPER_SPACE-7" />
    <marker
       style="overflow:visible"
       refY="0"
       refX="0"
       orient="auto"
       id="DistanceX-1">
      <path
         id="path4619"
         style="stroke:#000000;stroke-width:0.5"
         d="M 3,-3 -3,3 M 0,-5 V 5"
         inkscape:connector-curvature="0" />
    </marker>
    <pattern
       y="0"
       x="0"
       width="8"
       patternUnits="userSpaceOnUse"
       id="Hatch-8"
       height="8">
      <path
         id="path4622"
         stroke-width="0.25"
         stroke="#000000"
         linecap="square"
         d="M8 4 l-4,4" />
      <path
         id="path4624"
         stroke-width="0.25"
         stroke="#000000"
         linecap="square"
         d="M6 2 l-4,4" />
      <path
         id="path4626"
         stroke-width="0.25"
         stroke="#000000"
         linecap="square"
         d="M4 0 l-4,4" />
    </pattern>
    <symbol
       id="*MODEL_SPACE-4" />
    <symbol
       id="*PAPER_SPACE-4" />
    <marker
       style="overflow:visible"
       refY="0"
       refX="0"
       orient="auto"
       id="DistanceX-3">
      <path
         id="path4748"
         style="stroke:#000000;stroke-width:0.5"
         d="M 3,-3 -3,3 M 0,-5 V 5"
         inkscape:connector-curvature="0" />
    </marker>
    <pattern
       y="0"
       x="0"
       width="8"
       patternUnits="userSpaceOnUse"
       id="Hatch-2"
       height="8">
      <path
         id="path4751"
         stroke-width="0.25"
         stroke="#000000"
         linecap="square"
         d="M8 4 l-4,4" />
      <path
         id="path4753"
         stroke-width="0.25"
         stroke="#000000"
         linecap="square"
         d="M6 2 l-4,4" />
      <path
         id="path4755"
         stroke-width="0.25"
         stroke="#000000"
         linecap="square"
         d="M4 0 l-4,4" />
    </pattern>
    <symbol
       id="*MODEL_SPACE-51" />
    <symbol
       id="*PAPER_SPACE-5" />
    <marker
       style="overflow:visible"
       refY="0.0"
       refX="0.0"
       orient="auto"
       id="DistanceX-7">
      <path
         id="path4578"
         style="stroke:#000000; stroke-width:0.5"
         d="M 3,-3 L -3,3 M 0,-5 L  0,5" />
    </marker>
    <pattern
       y="0"
       x="0"
       width="8"
       patternUnits="userSpaceOnUse"
       id="Hatch-7"
       height="8">
      <path
         id="path4581"
         stroke-width="0.25"
         stroke="#000000"
         linecap="square"
         d="M8 4 l-4,4" />
      <path
         id="path4583"
         stroke-width="0.25"
         stroke="#000000"
         linecap="square"
         d="M6 2 l-4,4" />
      <path
         id="path4585"
         stroke-width="0.25"
         stroke="#000000"
         linecap="square"
         d="M4 0 l-4,4" />
    </pattern>
    <symbol
       id="*MODEL_SPACE-7" />
    <symbol
       id="*PAPER_SPACE-8" />
    <marker
       style="overflow:visible"
       refY="0.0"
       refX="0.0"
       orient="auto"
       id="DistanceX-36">
      <path
         id="path4689"
         style="stroke:#000000; stroke-width:0.5"
         d="M 3,-3 L -3,3 M 0,-5 L  0,5" />
    </marker>
    <pattern
       y="0"
       x="0"
       width="8"
       patternUnits="userSpaceOnUse"
       id="Hatch-9"
       height="8">
      <path
         id="path4692"
         stroke-width="0.25"
         stroke="#000000"
         linecap="square"
         d="M8 4 l-4,4" />
      <path
         id="path4694"
         stroke-width="0.25"
         stroke="#000000"
         linecap="square"
         d="M6 2 l-4,4" />
      <path
         id="path4696"
         stroke-width="0.25"
         stroke="#000000"
         linecap="square"
         d="M4 0 l-4,4" />
    </pattern>
    <symbol
       id="*MODEL_SPACE-55" />
    <symbol
       id="*PAPER_SPACE-2" />
    <marker
       style="overflow:visible"
       refY="0.0"
       refX="0.0"
       orient="auto"
       id="DistanceX-4">
      <path
         id="path4904"
         style="stroke:#000000; stroke-width:0.5"
         d="M 3,-3 L -3,3 M 0,-5 L  0,5" />
    </marker>
    <pattern
       y="0"
       x="0"
       width="8"
       patternUnits="userSpaceOnUse"
       id="Hatch-3"
       height="8">
      <path
         id="path4907"
         stroke-width="0.25"
         stroke="#000000"
         linecap="square"
         d="M8 4 l-4,4" />
      <path
         id="path4909"
         stroke-width="0.25"
         stroke="#000000"
         linecap="square"
         d="M6 2 l-4,4" />
      <path
         id="path4911"
         stroke-width="0.25"
         stroke="#000000"
         linecap="square"
         d="M4 0 l-4,4" />
    </pattern>
    <symbol
       id="*MODEL_SPACE-6" />
    <symbol
       id="*PAPER_SPACE-6" />
    <marker
       style="overflow:visible"
       refY="0.0"
       refX="0.0"
       orient="auto"
       id="DistanceX-360">
      <path
         id="path6336"
         style="stroke:#000000; stroke-width:0.5"
         d="M 3,-3 L -3,3 M 0,-5 L  0,5" />
    </marker>
    <pattern
       y="0"
       x="0"
       width="8"
       patternUnits="userSpaceOnUse"
       id="Hatch-5"
       height="8">
      <path
         id="path6339"
         stroke-width="0.25"
         stroke="#000000"
         linecap="square"
         d="M8 4 l-4,4" />
      <path
         id="path6341"
         stroke-width="0.25"
         stroke="#000000"
         linecap="square"
         d="M6 2 l-4,4" />
      <path
         id="path6343"
         stroke-width="0.25"
         stroke="#000000"
         linecap="square"
         d="M4 0 l-4,4" />
    </pattern>
    <symbol
       id="*MODEL_SPACE-8" />
    <symbol
       id="*PAPER_SPACE-9" />
    <marker
       style="overflow:visible"
       refY="0.0"
       refX="0.0"
       orient="auto"
       id="DistanceX-41">
      <path
         id="path4743"
         style="stroke:#000000; stroke-width:0.5"
         d="M 3,-3 L -3,3 M 0,-5 L  0,5" />
    </marker>
    <pattern
       y="0"
       x="0"
       width="8"
       patternUnits="userSpaceOnUse"
       id="Hatch-22"
       height="8">
      <path
         id="path4746"
         stroke-width="0.25"
         stroke="#000000"
         linecap="square"
         d="M8 4 l-4,4" />
      <path
         id="path4748-5"
         stroke-width="0.25"
         stroke="#000000"
         linecap="square"
         d="M6 2 l-4,4" />
      <path
         id="path4750-9"
         stroke-width="0.25"
         stroke="#000000"
         linecap="square"
         d="M4 0 l-4,4" />
    </pattern>
    <symbol
       id="*MODEL_SPACE-0" />
    <symbol
       id="*PAPER_SPACE-42" />
    <marker
       style="overflow:visible"
       refY="0.0"
       refX="0.0"
       orient="auto"
       id="DistanceX-78">
      <path
         id="path4908"
         style="stroke:#000000; stroke-width:0.5"
         d="M 3,-3 L -3,3 M 0,-5 L  0,5" />
    </marker>
    <pattern
       y="0"
       x="0"
       width="8"
       patternUnits="userSpaceOnUse"
       id="Hatch-1"
       height="8">
      <path
         id="path4911-2"
         stroke-width="0.25"
         stroke="#000000"
         linecap="square"
         d="M8 4 l-4,4" />
      <path
         id="path4913"
         stroke-width="0.25"
         stroke="#000000"
         linecap="square"
         d="M6 2 l-4,4" />
      <path
         id="path4915"
         stroke-width="0.25"
         stroke="#000000"
         linecap="square"
         d="M4 0 l-4,4" />
    </pattern>
    <symbol
       id="*MODEL_SPACE-3" />
    <symbol
       id="*PAPER_SPACE-86" />
  </defs>
  <sodipodi:namedview
     id="base"
     pagecolor="#ffffff"
     bordercolor="#666666"
     borderopacity="1.0"
     inkscape:pageopacity="0.0"
     inkscape:pageshadow="2"
     inkscape:zoom="8.1773409"
     inkscape:cx="57.458374"
     inkscape:cy="918.95389"
     inkscape:document-units="mm"
     inkscape:current-layer="layer1"
     showgrid="false"
     inkscape:window-width="1920"
     inkscape:window-height="1017"
     inkscape:window-x="-8"
     inkscape:window-y="-8"
     inkscape:window-maximized="1" />
  <metadata
     id="metadata5">
    <rdf:RDF>
      <cc:Work
         rdf:about="">
        <dc:format>image/svg+xml</dc:format>
        <dc:type
           rdf:resource="http://purl.org/dc/dcmitype/StillImage" />
        <dc:title />
      </cc:Work>
    </rdf:RDF>
  </metadata>
  <g
     inkscape:label="Layer 1"
     inkscape:groupmode="layer"
     id="layer1"
     transform="translate(0,-51)">
    <rect
       style="fill:none;fill-opacity:1;stroke:#00f000;stroke-width:0.25520492;stroke-miterlimit:4;stroke-dasharray:none;stroke-dashoffset:0;stroke-opacity:1"
       id="rect4880"
       width="489.1203"
       height="245.06497"
       x="0.63310814"
       y="51.61726" />
    <g
       aria-label="&lt;-BOTTOM - CG1500 Double Decker Mounting Plate v2 - TOP /\"
       style="font-style:normal;font-weight:normal;font-size:5.64444447px;line-height:1.25;font-family:sans-serif;letter-spacing:0px;word-spacing:0px;fill:#ff0000;fill-opacity:1;stroke:none;stroke-width:0.26458332"
       id="text4797"
       transform="translate(0,9.8099626)">
      <g
         aria-label="Top Shelf"
         transform="matrix(0.26458333,0,0,0.26458333,188.37646,52.69714)"
         style="font-style:normal;font-weight:normal;font-size:21.33333397px;line-height:1.25;font-family:sans-serif;letter-spacing:0px;word-spacing:0px;fill:#ff0000;fill-opacity:1;stroke:none;stroke-width:0.26458332"
         id="flowRoot9598-1">
        <path
           d="m 1021.0085,837.82568 h -4.849 v 11.96745 h -1.8047 v -11.96745 h -4.8489 v -1.60417 h 11.5026 z"
           style="font-size:18.66666603px;fill:#ff0000;fill-opacity:1"
           id="path9660"
           inkscape:connector-curvature="0" />
        <path
           d="m 1029.3848,844.70719 q 0,2.48828 -1.2761,3.92838 -1.276,1.44011 -3.4179,1.44011 -2.1602,0 -3.4362,-1.44011 -1.267,-1.4401 -1.267,-3.92838 0,-2.48828 1.267,-3.92839 1.276,-1.44922 3.4362,-1.44922 2.1419,0 3.4179,1.44922 1.2761,1.44011 1.2761,3.92839 z m -1.7683,0 q 0,-1.97787 -0.7747,-2.9349 -0.7747,-0.96614 -2.151,-0.96614 -1.3946,0 -2.1693,0.96614 -0.7656,0.95703 -0.7656,2.9349 0,1.91406 0.7747,2.90755 0.7747,0.98438 2.1602,0.98438 1.3671,0 2.1419,-0.97527 0.7838,-0.98437 0.7838,-2.91666 z"
           style="font-size:18.66666603px;fill:#ff0000;fill-opacity:1"
           id="path9662"
           inkscape:connector-curvature="0" />
        <path
           d="m 1041.0059,844.57958 q 0,1.23959 -0.3555,2.26954 -0.3555,1.02083 -1.0026,1.73177 -0.6016,0.67448 -1.4219,1.04817 -0.8112,0.36459 -1.7226,0.36459 -0.793,0 -1.4401,-0.17318 -0.6381,-0.17318 -1.3034,-0.53776 v 4.26562 h -1.7136 v -13.93619 h 1.7136 v 1.0664 q 0.6836,-0.57422 1.5312,-0.95703 0.8568,-0.39193 1.8229,-0.39193 1.8412,0 2.862,1.39454 1.03,1.38541 1.03,3.85546 z m -1.7683,0.0456 q 0,-1.84115 -0.6289,-2.75261 -0.6289,-0.91146 -1.9323,-0.91146 -0.7382,0 -1.4856,0.31901 -0.7474,0.31902 -1.431,0.83855 v 5.76953 q 0.7291,0.32812 1.2487,0.44661 0.5286,0.11849 1.194,0.11849 1.431,0 2.233,-0.96614 0.8021,-0.96615 0.8021,-2.86198 z"
           style="font-size:18.66666603px;fill:#ff0000;fill-opacity:1"
           id="path9664"
           inkscape:connector-curvature="0" />
        <path
           d="m 1060.2376,845.91943 q 0,0.79297 -0.3737,1.56771 -0.3646,0.77474 -1.0299,1.3125 -0.7292,0.58333 -1.7044,0.91145 -0.9662,0.32813 -2.3334,0.32813 -1.4674,0 -2.6432,-0.27344 -1.1667,-0.27344 -2.3789,-0.8112 v -2.26041 h 0.1276 q 1.0299,0.85677 2.3789,1.32161 1.349,0.46485 2.5339,0.46485 1.677,0 2.6067,-0.62891 0.9388,-0.62891 0.9388,-1.67708 0,-0.90235 -0.4466,-1.33073 -0.4375,-0.42839 -1.3398,-0.66537 -0.6836,-0.18229 -1.4857,-0.30078 -0.793,-0.11849 -1.6862,-0.30078 -1.8047,-0.38281 -2.6797,-1.30339 -0.8659,-0.92968 -0.8659,-2.41536 0,-1.70443 1.4401,-2.78906 1.4401,-1.09375 3.655,-1.09375 1.431,0 2.625,0.27344 1.194,0.27343 2.1146,0.67447 v 2.13282 h -0.1276 q -0.7748,-0.65625 -2.0417,-1.08464 -1.2578,-0.4375 -2.5794,-0.4375 -1.4493,0 -2.3334,0.60156 -0.875,0.60157 -0.875,1.54948 0,0.84766 0.4375,1.33073 0.4375,0.48307 1.5404,0.73828 0.5833,0.12761 1.6588,0.3099 1.0756,0.18229 1.823,0.3737 1.513,0.40104 2.2786,1.21224 0.7656,0.81119 0.7656,2.26953 z"
           style="font-size:18.66666603px;fill:#ff0000;fill-opacity:1"
           id="path9666"
           inkscape:connector-curvature="0" />
        <path
           d="m 1071.5124,849.79313 h -1.7136 v -5.79688 q 0,-0.70182 -0.082,-1.3125 -0.082,-0.61979 -0.3008,-0.96615 -0.2279,-0.38281 -0.6562,-0.5651 -0.4284,-0.19141 -1.112,-0.19141 -0.7018,0 -1.4675,0.34636 -0.7656,0.34635 -1.4674,0.88411 v 7.60157 h -1.7136 v -14.1823 h 1.7136 v 5.13151 q 0.8021,-0.66536 1.6588,-1.03906 0.8568,-0.3737 1.7592,-0.3737 1.6497,0 2.5156,0.99349 0.8659,0.99349 0.8659,2.86198 z"
           style="font-size:18.66666603px;fill:#ff0000;fill-opacity:1"
           id="path9668"
           inkscape:connector-curvature="0" />
        <path
           d="m 1083.334,844.88037 h -7.5013 q 0,0.9388 0.2825,1.64062 0.2826,0.69271 0.7748,1.13932 0.4739,0.4375 1.1211,0.65625 0.6562,0.21875 1.4401,0.21875 1.039,0 2.0872,-0.41015 1.0573,-0.41927 1.5039,-0.82032 h 0.091 v 1.86849 q -0.8659,0.36459 -1.7683,0.61068 -0.9023,0.24609 -1.8958,0.24609 -2.5339,0 -3.9557,-1.36718 -1.4219,-1.3763 -1.4219,-3.90104 0,-2.4974 1.3581,-3.96485 1.3672,-1.46745 3.5911,-1.46745 2.0599,0 3.1719,1.20313 1.1211,1.20312 1.1211,3.41797 z m -1.668,-1.3125 q -0.01,-1.34896 -0.6836,-2.08724 -0.6653,-0.73829 -2.0325,-0.73829 -1.3763,0 -2.1966,0.8112 -0.8112,0.8112 -0.9206,2.01433 z"
           style="font-size:18.66666603px;fill:#ff0000;fill-opacity:1"
           id="path9670"
           inkscape:connector-curvature="0" />
        <path
           d="m 1087.6634,849.79313 h -1.7135 v -14.1823 h 1.7135 z"
           style="font-size:18.66666603px;fill:#ff0000;fill-opacity:1"
           id="path9672"
           inkscape:connector-curvature="0" />
        <path
           d="m 1096.4772,837.26969 h -0.091 q -0.2826,-0.082 -0.7383,-0.16406 -0.4557,-0.0911 -0.8021,-0.0911 -1.1029,0 -1.6042,0.49219 -0.4922,0.48307 -0.4922,1.75911 v 0.34636 h 3.0899 v 1.4401 h -3.0352 v 8.74089 h -1.7135 v -8.74089 h -1.1576 v -1.4401 h 1.1576 v -0.33724 q 0,-1.81381 0.9023,-2.77995 0.9024,-0.97526 2.6068,-0.97526 0.5742,0 1.03,0.0547 0.4648,0.0547 0.8476,0.1276 z"
           style="font-size:18.66666603px;fill:#ff0000;fill-opacity:1"
           id="path9674"
           inkscape:connector-curvature="0" />
      </g>
      <g
         aria-label="Bottom Shelf"
         transform="matrix(0.26458333,0,0,0.26458333,-64.192224,52.9526)"
         style="font-style:normal;font-weight:normal;font-size:21.33333397px;line-height:1.25;font-family:sans-serif;letter-spacing:0px;word-spacing:0px;fill:#ff0000;fill-opacity:1;stroke:none;stroke-width:0.26458332"
         id="flowRoot9598-1-0">
        <path
           d="m 1021.5645,845.61865 q 0,1.01172 -0.3829,1.78645 -0.3828,0.77474 -1.0299,1.27605 -0.7656,0.60156 -1.6862,0.85677 -0.9115,0.25521 -2.3242,0.25521 h -4.8125 v -13.57162 h 4.0195 q 1.4857,0 2.224,0.10938 0.7382,0.10937 1.4127,0.45573 0.7474,0.39192 1.0847,1.01171 0.3372,0.61068 0.3372,1.46745 0,0.96615 -0.4922,1.64974 -0.4922,0.67448 -1.3125,1.08464 v 0.0729 q 1.3763,0.28256 2.1693,1.21224 0.793,0.92058 0.793,2.33334 z m -3.0352,-6.11589 q 0,-0.49219 -0.1641,-0.82943 -0.164,-0.33724 -0.5286,-0.54687 -0.4284,-0.24609 -1.0391,-0.30078 -0.6107,-0.0638 -1.513,-0.0638 h -2.151 v 3.91927 h 2.3333 q 0.8477,0 1.349,-0.082 0.5013,-0.0911 0.9296,-0.36459 0.4284,-0.27344 0.6016,-0.70182 0.1823,-0.4375 0.1823,-1.02995 z m 1.1575,6.1888 q 0,-0.82031 -0.246,-1.30338 -0.2461,-0.48308 -0.8933,-0.82031 -0.4375,-0.22787 -1.0664,-0.29167 -0.6198,-0.0729 -1.513,-0.0729 h -2.8346 v 5.04948 h 2.388 q 1.1849,0 1.9414,-0.11849 0.7565,-0.1276 1.2396,-0.45573 0.5104,-0.35547 0.7474,-0.8112 0.2369,-0.45572 0.2369,-1.17578 z"
           style="font-size:18.66666603px;fill:#ff0000;fill-opacity:1"
           id="path9746"
           inkscape:connector-curvature="0" />
        <path
           d="m 1032.666,844.70719 q 0,2.48828 -1.276,3.92838 -1.2761,1.44011 -3.418,1.44011 -2.1602,0 -3.4362,-1.44011 -1.2669,-1.4401 -1.2669,-3.92838 0,-2.48828 1.2669,-3.92839 1.276,-1.44922 3.4362,-1.44922 2.1419,0 3.418,1.44922 1.276,1.44011 1.276,3.92839 z m -1.7682,0 q 0,-1.97787 -0.7748,-2.9349 -0.7747,-0.96614 -2.151,-0.96614 -1.3945,0 -2.1693,0.96614 -0.7656,0.95703 -0.7656,2.9349 0,1.91406 0.7747,2.90755 0.7748,0.98438 2.1602,0.98438 1.3672,0 2.1419,-0.97527 0.7839,-0.98437 0.7839,-2.91666 z"
           style="font-size:18.66666603px;fill:#ff0000;fill-opacity:1"
           id="path9748"
           inkscape:connector-curvature="0" />
        <path
           d="m 1040.6139,849.70198 q -0.483,0.1276 -1.0573,0.20964 -0.5651,0.082 -1.0117,0.082 -1.5586,0 -2.3698,-0.83855 -0.8112,-0.83854 -0.8112,-2.6888 v -5.41406 h -1.1575 v -1.4401 h 1.1575 v -2.92578 h 1.7136 v 2.92578 h 3.5364 v 1.4401 h -3.5364 v 4.63932 q 0,0.80209 0.036,1.25782 0.036,0.44661 0.2552,0.83854 0.2006,0.36458 0.5469,0.53776 0.3555,0.16406 1.0755,0.16406 0.4193,0 0.875,-0.11849 0.4558,-0.1276 0.6563,-0.20963 h 0.091 z"
           style="font-size:18.66666603px;fill:#ff0000;fill-opacity:1"
           id="path9750"
           inkscape:connector-curvature="0" />
        <path
           d="m 1047.9785,849.70198 q -0.4831,0.1276 -1.0573,0.20964 -0.5651,0.082 -1.0117,0.082 -1.5586,0 -2.3698,-0.83855 -0.8112,-0.83854 -0.8112,-2.6888 v -5.41406 h -1.1575 v -1.4401 h 1.1575 v -2.92578 h 1.7136 v 2.92578 h 3.5364 v 1.4401 h -3.5364 v 4.63932 q 0,0.80209 0.036,1.25782 0.037,0.44661 0.2552,0.83854 0.2005,0.36458 0.5469,0.53776 0.3555,0.16406 1.0755,0.16406 0.4193,0 0.875,-0.11849 0.4557,-0.1276 0.6563,-0.20963 h 0.091 z"
           style="font-size:18.66666603px;fill:#ff0000;fill-opacity:1"
           id="path9752"
           inkscape:connector-curvature="0" />
        <path
           d="m 1058.7337,844.70719 q 0,2.48828 -1.276,3.92838 -1.2761,1.44011 -3.418,1.44011 -2.1601,0 -3.4362,-1.44011 -1.2669,-1.4401 -1.2669,-3.92838 0,-2.48828 1.2669,-3.92839 1.2761,-1.44922 3.4362,-1.44922 2.1419,0 3.418,1.44922 1.276,1.44011 1.276,3.92839 z m -1.7682,0 q 0,-1.97787 -0.7747,-2.9349 -0.7748,-0.96614 -2.1511,-0.96614 -1.3945,0 -2.1693,0.96614 -0.7656,0.95703 -0.7656,2.9349 0,1.91406 0.7748,2.90755 0.7747,0.98438 2.1601,0.98438 1.3672,0 2.1419,-0.97527 0.7839,-0.98437 0.7839,-2.91666 z"
           style="font-size:18.66666603px;fill:#ff0000;fill-opacity:1"
           id="path9754"
           inkscape:connector-curvature="0" />
        <path
           d="m 1076.252,849.79313 h -1.7136 v -5.79688 q 0,-0.65625 -0.064,-1.26693 -0.055,-0.61067 -0.2461,-0.97526 -0.2096,-0.39192 -0.6015,-0.59244 -0.392,-0.20053 -1.1303,-0.20053 -0.72,0 -1.4401,0.36459 -0.72,0.35547 -1.4401,0.91146 0.027,0.20963 0.046,0.49218 0.018,0.27344 0.018,0.54688 v 6.51693 h -1.7135 v -5.79688 q 0,-0.67448 -0.064,-1.27604 -0.055,-0.61068 -0.2461,-0.97526 -0.2096,-0.39193 -0.6016,-0.58333 -0.3919,-0.20053 -1.1302,-0.20053 -0.7018,0 -1.4127,0.34636 -0.7019,0.34635 -1.4037,0.88411 v 7.60157 h -1.7135 v -10.18099 h 1.7135 v 1.1302 q 0.8021,-0.66536 1.5951,-1.03906 0.8021,-0.3737 1.7044,-0.3737 1.0391,0 1.7591,0.4375 0.7292,0.4375 1.0847,1.21224 1.039,-0.875 1.8958,-1.25781 0.8568,-0.39193 1.832,-0.39193 1.6771,0 2.4701,1.02084 0.8021,1.01172 0.8021,2.83463 z"
           style="font-size:18.66666603px;fill:#ff0000;fill-opacity:1"
           id="path9756"
           inkscape:connector-curvature="0" />
        <path
           d="m 1096.1126,845.91943 q 0,0.79297 -0.3737,1.56771 -0.3646,0.77474 -1.0299,1.3125 -0.7292,0.58333 -1.7044,0.91145 -0.9662,0.32813 -2.3334,0.32813 -1.4674,0 -2.6432,-0.27344 -1.1667,-0.27344 -2.3789,-0.8112 v -2.26041 h 0.1276 q 1.0299,0.85677 2.3789,1.32161 1.349,0.46485 2.5339,0.46485 1.677,0 2.6067,-0.62891 0.9388,-0.62891 0.9388,-1.67708 0,-0.90235 -0.4466,-1.33073 -0.4375,-0.42839 -1.3398,-0.66537 -0.6836,-0.18229 -1.4857,-0.30078 -0.793,-0.11849 -1.6862,-0.30078 -1.8047,-0.38281 -2.6797,-1.30339 -0.8659,-0.92968 -0.8659,-2.41536 0,-1.70443 1.4401,-2.78906 1.4401,-1.09375 3.655,-1.09375 1.431,0 2.625,0.27344 1.194,0.27343 2.1146,0.67447 v 2.13282 h -0.1276 q -0.7748,-0.65625 -2.0417,-1.08464 -1.2578,-0.4375 -2.5794,-0.4375 -1.4493,0 -2.3334,0.60156 -0.875,0.60157 -0.875,1.54948 0,0.84766 0.4375,1.33073 0.4375,0.48307 1.5404,0.73828 0.5833,0.12761 1.6588,0.3099 1.0756,0.18229 1.823,0.3737 1.513,0.40104 2.2786,1.21224 0.7656,0.81119 0.7656,2.26953 z"
           style="font-size:18.66666603px;fill:#ff0000;fill-opacity:1"
           id="path9758"
           inkscape:connector-curvature="0" />
        <path
           d="m 1107.3874,849.79313 h -1.7136 v -5.79688 q 0,-0.70182 -0.082,-1.3125 -0.082,-0.61979 -0.3008,-0.96615 -0.2279,-0.38281 -0.6562,-0.5651 -0.4284,-0.19141 -1.112,-0.19141 -0.7018,0 -1.4675,0.34636 -0.7656,0.34635 -1.4674,0.88411 v 7.60157 h -1.7136 v -14.1823 h 1.7136 v 5.13151 q 0.8021,-0.66536 1.6588,-1.03906 0.8568,-0.3737 1.7592,-0.3737 1.6497,0 2.5156,0.99349 0.8659,0.99349 0.8659,2.86198 z"
           style="font-size:18.66666603px;fill:#ff0000;fill-opacity:1"
           id="path9760"
           inkscape:connector-curvature="0" />
        <path
           d="m 1119.209,844.88037 h -7.5013 q 0,0.9388 0.2825,1.64062 0.2826,0.69271 0.7748,1.13932 0.4739,0.4375 1.1211,0.65625 0.6562,0.21875 1.4401,0.21875 1.039,0 2.0872,-0.41015 1.0573,-0.41927 1.5039,-0.82032 h 0.091 v 1.86849 q -0.8659,0.36459 -1.7683,0.61068 -0.9023,0.24609 -1.8958,0.24609 -2.5339,0 -3.9557,-1.36718 -1.4219,-1.3763 -1.4219,-3.90104 0,-2.4974 1.3581,-3.96485 1.3672,-1.46745 3.5911,-1.46745 2.0599,0 3.1719,1.20313 1.1211,1.20312 1.1211,3.41797 z m -1.668,-1.3125 q -0.01,-1.34896 -0.6836,-2.08724 -0.6653,-0.73829 -2.0325,-0.73829 -1.3763,0 -2.1966,0.8112 -0.8112,0.8112 -0.9206,2.01433 z"
           style="font-size:18.66666603px;fill:#ff0000;fill-opacity:1"
           id="path9762"
           inkscape:connector-curvature="0" />
        <path
           d="m 1123.5384,849.79313 h -1.7135 v -14.1823 h 1.7135 z"
           style="font-size:18.66666603px;fill:#ff0000;fill-opacity:1"
           id="path9764"
           inkscape:connector-curvature="0" />
        <path
           d="m 1132.3522,837.26969 h -0.091 q -0.2826,-0.082 -0.7383,-0.16406 -0.4557,-0.0911 -0.8021,-0.0911 -1.1029,0 -1.6042,0.49219 -0.4922,0.48307 -0.4922,1.75911 v 0.34636 h 3.0899 v 1.4401 h -3.0352 v 8.74089 h -1.7135 v -8.74089 h -1.1576 v -1.4401 h 1.1576 v -0.33724 q 0,-1.81381 0.9023,-2.77995 0.9024,-0.97526 2.6068,-0.97526 0.5742,0 1.03,0.0547 0.4648,0.0547 0.8476,0.1276 z"
           style="font-size:18.66666603px;fill:#ff0000;fill-opacity:1"
           id="path9766"
           inkscape:connector-curvature="0" />
      </g>
      <g
         aria-label="CG1500 Double Decker Large Top - v1"
         transform="matrix(0.26458333,0,0,0.26458333,1.8022768,49.200671)"
         style="font-style:normal;font-weight:normal;font-size:18.66666603px;line-height:1.25;font-family:sans-serif;letter-spacing:0px;word-spacing:0px;fill:#ff0000;fill-opacity:1;stroke:none"
         id="flowRoot4742">
        <path
           d="m 61.509765,862.8622 q -0.501302,0.21875 -0.911458,0.41015 -0.401042,0.19141 -1.057292,0.40104 -0.555989,0.17318 -1.212239,0.29167 -0.647136,0.12761 -1.43099,0.12761 -1.476562,0 -2.688802,-0.41016 -1.203125,-0.41927 -2.096354,-1.30339 -0.875,-0.86588 -1.367187,-2.19661 -0.492188,-1.33984 -0.492188,-3.10807 0,-1.67709 0.473958,-2.9987 0.473959,-1.32162 1.367188,-2.23307 0.865885,-0.88412 2.087239,-1.34896 1.230469,-0.46485 2.725261,-0.46485 1.09375,0 2.178385,0.26433 1.09375,0.26432 2.424479,0.92968 v 2.14193 h -0.136719 q -1.121093,-0.9388 -2.223958,-1.36719 -1.102864,-0.42838 -2.360677,-0.42838 -1.029948,0 -1.859375,0.33724 -0.820312,0.32812 -1.467448,1.02995 -0.628906,0.68359 -0.984375,1.73177 -0.346354,1.03906 -0.346354,2.40625 0,1.43099 0.382813,2.46093 0.391927,1.02995 1.002604,1.67709 0.638021,0.67448 1.485677,1.0026 0.856771,0.31901 1.804687,0.31901 1.303386,0 2.442709,-0.44661 1.139322,-0.44662 2.132812,-1.33985 h 0.127604 z"
           style="fill:#ff0000;fill-opacity:1"
           id="path4750" />
        <path
           d="m 75.40039,862.84397 q -1.111979,0.51041 -2.433594,0.89323 -1.3125,0.37369 -2.542968,0.37369 -1.585938,0 -2.907552,-0.4375 -1.321615,-0.4375 -2.251302,-1.3125 -0.938803,-0.88411 -1.449219,-2.20572 -0.510417,-1.33073 -0.510417,-3.10808 0,-3.2539 1.895833,-5.13151 1.904948,-1.88672 5.222657,-1.88672 1.157552,0 2.360677,0.28256 1.212239,0.27343 2.60677,0.9388 v 2.14192 h -0.164062 q -0.282552,-0.21875 -0.820313,-0.57421 -0.53776,-0.35547 -1.057291,-0.59245 -0.628907,-0.28255 -1.43099,-0.46485 -0.792969,-0.1914 -1.804687,-0.1914 -2.278646,0 -3.609375,1.46745 -1.321615,1.45833 -1.321615,3.95573 0,2.63411 1.385417,4.10156 1.385417,1.45833 3.773437,1.45833 0.875,0 1.740886,-0.17318 0.875,-0.17317 1.53125,-0.44661 v -3.32682 h -3.636719 v -1.58594 h 5.423177 z"
           style="fill:#ff0000;fill-opacity:1"
           id="path4752" />
        <path
           d="m 86.611327,863.84657 h -7.346354 v -1.38542 h 2.825521 v -9.09635 h -2.825521 v -1.23958 q 0.574219,0 1.230469,-0.0911 0.65625,-0.10026 0.993489,-0.28255 0.419271,-0.22786 0.65625,-0.57422 0.246094,-0.35547 0.282553,-0.94792 h 1.41276 v 12.23177 h 2.770833 z"
           style="fill:#ff0000;fill-opacity:1"
           id="path4754" />
        <path
           d="m 99.162108,859.53537 q 0,0.94792 -0.346354,1.81381 -0.346355,0.86588 -0.947917,1.45833 -0.65625,0.63802 -1.567708,0.98437 -0.902344,0.33724 -2.096354,0.33724 -1.11198,0 -2.141927,-0.23698 -1.029948,-0.22786 -1.740886,-0.55599 v -1.92317 h 0.127604 q 0.747396,0.47396 1.75,0.8112 1.002604,0.32812 1.96875,0.32812 0.647136,0 1.248698,-0.18229 0.610677,-0.18229 1.084636,-0.63802 0.401041,-0.39193 0.601562,-0.9388 0.209635,-0.54688 0.209635,-1.26693 0,-0.70182 -0.246093,-1.1849 -0.23698,-0.48307 -0.665365,-0.77474 -0.473958,-0.34635 -1.157552,-0.48307 -0.674479,-0.14583 -1.513021,-0.14583 -0.802083,0 -1.549479,0.10937 -0.738281,0.10938 -1.276041,0.21875 v -6.99088 h 8.166666 v 1.59505 H 92.66341 v 3.60937 q 0.391927,-0.0364 0.802083,-0.0547 0.410157,-0.0182 0.710938,-0.0182 1.102864,0 1.932291,0.1914 0.829427,0.1823 1.522136,0.65625 0.729166,0.50131 1.130208,1.29427 0.401042,0.79297 0.401042,1.98698 z"
           style="fill:#ff0000;fill-opacity:1"
           id="path4756" />
        <path
           d="m 111.13867,857.05621 q 0,3.65495 -1.14844,5.36849 -1.13932,1.70442 -3.54557,1.70442 -2.44271,0 -3.57292,-1.73177 -1.12109,-1.73177 -1.12109,-5.32291 0,-3.61849 1.13932,-5.34115 1.13933,-1.73177 3.55469,-1.73177 2.44271,0 3.5638,1.75911 1.13021,1.75 1.13021,5.29558 z m -2.39713,4.13802 q 0.31901,-0.73828 0.42838,-1.73177 0.11849,-1.00261 0.11849,-2.40625 0,-1.38542 -0.11849,-2.40625 -0.10937,-1.02084 -0.4375,-1.73177 -0.31901,-0.70183 -0.875,-1.0573 -0.54687,-0.35546 -1.41276,-0.35546 -0.85677,0 -1.42187,0.35546 -0.55599,0.35547 -0.88412,1.07553 -0.30989,0.67447 -0.42838,1.75911 -0.10938,1.08464 -0.10938,2.37891 0,1.42187 0.10026,2.3789 0.10026,0.95703 0.42839,1.71354 0.30078,0.71094 0.84765,1.08464 0.55599,0.3737 1.46745,0.3737 0.85677,0 1.42188,-0.35547 0.5651,-0.35547 0.875,-1.07552 z"
           style="fill:#ff0000;fill-opacity:1"
           id="path4758" />
        <path
           d="m 123.02409,857.05621 q 0,3.65495 -1.14844,5.36849 -1.13932,1.70442 -3.54557,1.70442 -2.44271,0 -3.57292,-1.73177 -1.12109,-1.73177 -1.12109,-5.32291 0,-3.61849 1.13932,-5.34115 1.13932,-1.73177 3.55469,-1.73177 2.4427,0 3.5638,1.75911 1.13021,1.75 1.13021,5.29558 z m -2.39714,4.13802 q 0.31901,-0.73828 0.42839,-1.73177 0.11849,-1.00261 0.11849,-2.40625 0,-1.38542 -0.11849,-2.40625 -0.10938,-1.02084 -0.4375,-1.73177 -0.31901,-0.70183 -0.875,-1.0573 -0.54688,-0.35546 -1.41276,-0.35546 -0.85678,0 -1.42188,0.35546 -0.55599,0.35547 -0.88411,1.07553 -0.3099,0.67447 -0.42839,1.75911 -0.10937,1.08464 -0.10937,2.37891 0,1.42187 0.10026,2.3789 0.10026,0.95703 0.42838,1.71354 0.30078,0.71094 0.84766,1.08464 0.55599,0.3737 1.46745,0.3737 0.85677,0 1.42187,-0.35547 0.5651,-0.35547 0.875,-1.07552 z"
           style="fill:#ff0000;fill-opacity:1"
           id="path4760" />
        <path
           d="m 144.12434,857.07444 q 0,1.85026 -0.81119,3.35416 -0.80209,1.50391 -2.14193,2.33334 -0.92969,0.57421 -2.07813,0.82942 -1.13932,0.25521 -3.00781,0.25521 h -3.42708 v -13.57161 h 3.39062 q 1.98698,0 3.15365,0.29166 1.17578,0.28256 1.98698,0.78386 1.38541,0.86588 2.16015,2.30599 0.77474,1.4401 0.77474,3.41797 z m -1.88672,-0.0273 q 0,-1.59505 -0.55598,-2.6888 -0.55599,-1.09375 -1.65886,-1.72266 -0.80208,-0.45572 -1.70443,-0.6289 -0.90234,-0.18229 -2.16015,-0.18229 h -1.69531 v 10.47265 h 1.69531 q 1.30338,0 2.26953,-0.1914 0.97526,-0.19141 1.78646,-0.71094 1.01172,-0.64714 1.51302,-1.70443 0.51041,-1.05729 0.51041,-2.64323 z"
           style="fill:#ff0000;fill-opacity:1"
           id="path4762" />
        <path
           d="m 155.59961,858.76063 q 0,2.48829 -1.27604,3.92839 -1.27604,1.4401 -3.41797,1.4401 -2.16016,0 -3.4362,-1.4401 -1.26693,-1.4401 -1.26693,-3.92839 0,-2.48828 1.26693,-3.92838 1.27604,-1.44922 3.4362,-1.44922 2.14193,0 3.41797,1.44922 1.27604,1.4401 1.27604,3.92838 z m -1.76823,0 q 0,-1.97786 -0.77474,-2.93489 -0.77474,-0.96615 -2.15104,-0.96615 -1.39453,0 -2.16927,0.96615 -0.76563,0.95703 -0.76563,2.93489 0,1.91407 0.77474,2.90756 0.77474,0.98437 2.16016,0.98437 1.36719,0 2.14193,-0.97526 0.78385,-0.98437 0.78385,-2.91667 z"
           style="fill:#ff0000;fill-opacity:1"
           id="path4764" />
        <path
           d="m 166.70117,863.84657 h -1.71354 v -1.13021 q -0.86589,0.6836 -1.65886,1.04818 -0.79297,0.36458 -1.75,0.36458 -1.60416,0 -2.49739,-0.97526 -0.89323,-0.98437 -0.89323,-2.8802 v -6.60808 h 1.71354 v 5.79688 q 0,0.77474 0.0729,1.33073 0.0729,0.54687 0.30989,0.9388 0.2461,0.40104 0.63802,0.58333 0.39193,0.18229 1.13933,0.18229 0.66536,0 1.44921,-0.34635 0.79297,-0.34636 1.47657,-0.88412 v -7.60156 h 1.71354 z"
           style="fill:#ff0000;fill-opacity:1"
           id="path4766" />
        <path
           d="m 179.0332,858.6786 q 0,1.27604 -0.36458,2.29688 -0.35547,1.02083 -0.96615,1.71354 -0.64713,0.72005 -1.42187,1.08463 -0.77474,0.35547 -1.70443,0.35547 -0.86589,0 -1.51302,-0.20963 -0.64714,-0.20052 -1.27604,-0.54688 l -0.10938,0.47396 h -1.60416 v -14.18229 h 1.71354 v 5.06771 q 0.72005,-0.59245 1.53125,-0.96615 0.81119,-0.38281 1.82291,-0.38281 1.80469,0 2.84375,1.38542 1.04818,1.38541 1.04818,3.91015 z m -1.76823,0.0456 q 0,-1.82292 -0.60156,-2.76172 -0.60156,-0.94792 -1.94141,-0.94792 -0.74739,0 -1.51302,0.32813 -0.76562,0.31901 -1.42187,0.82942 v 5.83334 q 0.72916,0.32812 1.24869,0.45572 0.52865,0.12761 1.19401,0.12761 1.42188,0 2.22396,-0.92969 0.8112,-0.9388 0.8112,-2.93489 z"
           style="fill:#ff0000;fill-opacity:1"
           id="path4768" />
        <path
           d="m 183.43555,863.84657 h -1.71354 v -14.18229 h 1.71354 z"
           style="fill:#ff0000;fill-opacity:1"
           id="path4770" />
        <path
           d="m 195.29361,858.93381 h -7.5013 q 0,0.9388 0.28255,1.64063 0.28256,0.6927 0.77474,1.13932 0.47396,0.4375 1.1211,0.65625 0.65625,0.21875 1.4401,0.21875 1.03906,0 2.08724,-0.41016 1.05729,-0.41927 1.50391,-0.82031 h 0.0911 v 1.86849 q -0.86588,0.36458 -1.76823,0.61068 -0.90234,0.24609 -1.89583,0.24609 -2.53385,0 -3.95573,-1.36719 -1.42187,-1.3763 -1.42187,-3.90104 0,-2.49739 1.35807,-3.96484 1.36719,-1.46745 3.59115,-1.46745 2.05989,0 3.17187,1.20313 1.12109,1.20312 1.12109,3.41796 z m -1.66796,-1.3125 q -0.009,-1.34896 -0.6836,-2.08724 -0.66536,-0.73828 -2.03255,-0.73828 -1.3763,0 -2.19661,0.8112 -0.8112,0.8112 -0.92058,2.01432 z"
           style="fill:#ff0000;fill-opacity:1"
           id="path4772" />
        <path
           d="m 216.05664,857.07444 q 0,1.85026 -0.8112,3.35416 -0.80208,1.50391 -2.14192,2.33334 -0.92969,0.57421 -2.07813,0.82942 -1.13932,0.25521 -3.00781,0.25521 h -3.42709 v -13.57161 h 3.39063 q 1.98698,0 3.15365,0.29166 1.17578,0.28256 1.98697,0.78386 1.38542,0.86588 2.16016,2.30599 0.77474,1.4401 0.77474,3.41797 z m -1.88672,-0.0273 q 0,-1.59505 -0.55599,-2.6888 -0.55599,-1.09375 -1.65885,-1.72266 -0.80209,-0.45572 -1.70443,-0.6289 -0.90234,-0.18229 -2.16016,-0.18229 h -1.69531 v 10.47265 h 1.69531 q 1.30339,0 2.26954,-0.1914 0.97526,-0.19141 1.78645,-0.71094 1.01172,-0.64714 1.51302,-1.70443 0.51042,-1.05729 0.51042,-2.64323 z"
           style="fill:#ff0000;fill-opacity:1"
           id="path4774" />
        <path
           d="m 227.37694,858.93381 h -7.5013 q 0,0.9388 0.28255,1.64063 0.28255,0.6927 0.77474,1.13932 0.47396,0.4375 1.1211,0.65625 0.65625,0.21875 1.4401,0.21875 1.03906,0 2.08724,-0.41016 1.05729,-0.41927 1.50391,-0.82031 h 0.0911 v 1.86849 q -0.86588,0.36458 -1.76823,0.61068 -0.90234,0.24609 -1.89583,0.24609 -2.53385,0 -3.95573,-1.36719 -1.42187,-1.3763 -1.42187,-3.90104 0,-2.49739 1.35807,-3.96484 1.36719,-1.46745 3.59114,-1.46745 2.0599,0 3.17188,1.20313 1.12109,1.20312 1.12109,3.41796 z m -1.66797,-1.3125 q -0.009,-1.34896 -0.68359,-2.08724 -0.66536,-0.73828 -2.03255,-0.73828 -1.3763,0 -2.19662,0.8112 -0.81119,0.8112 -0.92057,2.01432 z"
           style="fill:#ff0000;fill-opacity:1"
           id="path4776" />
        <path
           d="m 237.50325,863.20855 q -0.85677,0.41016 -1.63151,0.63802 -0.76563,0.22787 -1.63151,0.22787 -1.10287,0 -2.02344,-0.31901 -0.92057,-0.32813 -1.57682,-0.98438 -0.66537,-0.65625 -1.02995,-1.65885 -0.36458,-1.00261 -0.36458,-2.34245 0,-2.4974 1.36719,-3.91927 1.3763,-1.42188 3.6276,-1.42188 0.875,0 1.71354,0.2461 0.84766,0.24609 1.54948,0.60156 v 1.90495 h -0.0911 q -0.78385,-0.61068 -1.62239,-0.9388 -0.82943,-0.32813 -1.6224,-0.32813 -1.45833,0 -2.30599,0.98438 -0.83854,0.97526 -0.83854,2.87109 0,1.84114 0.82031,2.83463 0.82943,0.98438 2.32422,0.98438 0.51953,0 1.05729,-0.13672 0.53776,-0.13672 0.96615,-0.35547 0.3737,-0.1914 0.70182,-0.40104 0.32813,-0.21875 0.51953,-0.3737 h 0.0911 z"
           style="fill:#ff0000;fill-opacity:1"
           id="path4778" />
        <path
           d="m 248.95117,863.84657 h -2.26042 l -4.08333,-4.45703 -1.11198,1.05729 v 3.39974 h -1.71354 v -14.18229 h 1.71354 v 9.09635 l 4.94922,-5.09505 h 2.16015 l -4.73047,4.70313 z"
           style="fill:#ff0000;fill-opacity:1"
           id="path4780" />
        <path
           d="m 259.09569,858.93381 h -7.5013 q 0,0.9388 0.28255,1.64063 0.28255,0.6927 0.77474,1.13932 0.47396,0.4375 1.1211,0.65625 0.65625,0.21875 1.4401,0.21875 1.03906,0 2.08724,-0.41016 1.05729,-0.41927 1.50391,-0.82031 h 0.0911 v 1.86849 q -0.86588,0.36458 -1.76823,0.61068 -0.90234,0.24609 -1.89583,0.24609 -2.53385,0 -3.95573,-1.36719 -1.42187,-1.3763 -1.42187,-3.90104 0,-2.49739 1.35807,-3.96484 1.36719,-1.46745 3.59114,-1.46745 2.0599,0 3.17188,1.20313 1.12109,1.20312 1.12109,3.41796 z m -1.66797,-1.3125 q -0.009,-1.34896 -0.68359,-2.08724 -0.66536,-0.73828 -2.03255,-0.73828 -1.3763,0 -2.19662,0.8112 -0.81119,0.8112 -0.92057,2.01432 z"
           style="fill:#ff0000;fill-opacity:1"
           id="path4782" />
        <path
           d="m 268.04622,855.53407 h -0.0912 q -0.38281,-0.0911 -0.74739,-0.1276 -0.35547,-0.0456 -0.84766,-0.0456 -0.79297,0 -1.53125,0.35547 -0.73828,0.34636 -1.42187,0.90235 v 7.22786 h -1.71355 v -10.18099 h 1.71355 v 1.50391 q 1.02083,-0.82031 1.79557,-1.15755 0.78385,-0.34636 1.59505,-0.34636 0.44662,0 0.64714,0.0274 0.20052,0.0182 0.60156,0.082 z"
           style="fill:#ff0000;fill-opacity:1"
           id="path4784" />
        <path
           d="m 284.96289,863.84657 h -8.58594 v -13.57161 h 1.80469 v 11.96744 h 6.78125 z"
           style="fill:#ff0000;fill-opacity:1"
           id="path4786" />
        <path
           d="m 294.54231,863.84657 h -1.70442 v -1.08463 q -0.22787,0.15494 -0.6198,0.4375 -0.38281,0.27343 -0.74739,0.4375 -0.42839,0.20963 -0.98438,0.34635 -0.55599,0.14583 -1.30338,0.14583 -1.3763,0 -2.33334,-0.91145 -0.95703,-0.91146 -0.95703,-2.32422 0,-1.15756 0.49219,-1.86849 0.5013,-0.72005 1.42188,-1.13021 0.92968,-0.41016 2.23307,-0.55599 1.30338,-0.14583 2.79818,-0.21875 v -0.26432 q 0,-0.58334 -0.20964,-0.96615 -0.20052,-0.38281 -0.58333,-0.60156 -0.36459,-0.20964 -0.875,-0.28255 -0.51042,-0.0729 -1.06641,-0.0729 -0.67448,0 -1.50391,0.18229 -0.82942,0.17318 -1.71354,0.51042 h -0.0911 v -1.74089 q 0.5013,-0.13672 1.44922,-0.30078 0.94791,-0.16406 1.86848,-0.16406 1.07553,0 1.86849,0.18229 0.80209,0.17318 1.38542,0.60156 0.57422,0.41927 0.875,1.08464 0.30078,0.66536 0.30078,1.64974 z m -1.70442,-2.50651 v -2.83463 q -0.78386,0.0456 -1.85027,0.13671 -1.05729,0.0911 -1.67708,0.26433 -0.73828,0.20963 -1.19401,0.65625 -0.45573,0.4375 -0.45573,1.21224 0,0.875 0.52865,1.32161 0.52864,0.4375 1.61328,0.4375 0.90234,0 1.64974,-0.34635 0.74739,-0.35547 1.38542,-0.84766 z"
           style="fill:#ff0000;fill-opacity:1"
           id="path4788" />
        <path
           d="m 304.21288,855.53407 h -0.0911 q -0.38281,-0.0911 -0.7474,-0.1276 -0.35547,-0.0456 -0.84765,-0.0456 -0.79297,0 -1.53125,0.35547 -0.73828,0.34636 -1.42188,0.90235 v 7.22786 h -1.71354 v -10.18099 h 1.71354 v 1.50391 q 1.02084,-0.82031 1.79558,-1.15755 0.78385,-0.34636 1.59505,-0.34636 0.44661,0 0.64713,0.0274 0.20052,0.0182 0.60157,0.082 z"
           style="fill:#ff0000;fill-opacity:1"
           id="path4790" />
        <path
           d="m 314.1022,862.68902 q 0,2.58854 -1.17578,3.80078 -1.17578,1.21224 -3.61849,1.21224 -0.8112,0 -1.58594,-0.11849 -0.76563,-0.10937 -1.51302,-0.31901 v -1.75 h 0.0911 q 0.41928,0.16406 1.33073,0.40104 0.91146,0.2461 1.82292,0.2461 0.875,0 1.44922,-0.20964 0.57422,-0.20964 0.89323,-0.58333 0.31901,-0.35547 0.45573,-0.85677 0.13672,-0.50131 0.13672,-1.1211 v -0.92969 q -0.77474,0.6198 -1.48568,0.92969 -0.70182,0.30078 -1.79557,0.30078 -1.82292,0 -2.89844,-1.3125 -1.06641,-1.32161 -1.06641,-3.71875 0,-1.3125 0.36459,-2.26041 0.37369,-0.95703 1.01171,-1.64974 0.59245,-0.64714 1.44011,-1.00261 0.84766,-0.36458 1.6862,-0.36458 0.88411,0 1.47656,0.18229 0.60156,0.17318 1.26693,0.53776 l 0.10937,-0.4375 h 1.60417 z m -1.71354,-1.64063 v -5.55078 q -0.6836,-0.30989 -1.27605,-0.4375 -0.58333,-0.13672 -1.16666,-0.13672 -1.41276,0 -2.22396,0.94792 -0.8112,0.94792 -0.8112,2.75261 0,1.71354 0.60156,2.59765 0.60157,0.88412 1.9961,0.88412 0.74739,0 1.49479,-0.28256 0.75651,-0.29166 1.38542,-0.77474 z"
           style="fill:#ff0000;fill-opacity:1"
           id="path4792" />
        <path
           d="m 325.99672,858.93381 h -7.5013 q 0,0.9388 0.28255,1.64063 0.28256,0.6927 0.77474,1.13932 0.47396,0.4375 1.1211,0.65625 0.65625,0.21875 1.4401,0.21875 1.03906,0 2.08724,-0.41016 1.05729,-0.41927 1.50391,-0.82031 h 0.0911 v 1.86849 q -0.86588,0.36458 -1.76823,0.61068 -0.90234,0.24609 -1.89583,0.24609 -2.53385,0 -3.95573,-1.36719 -1.42187,-1.3763 -1.42187,-3.90104 0,-2.49739 1.35807,-3.96484 1.36719,-1.46745 3.59115,-1.46745 2.05989,0 3.17187,1.20313 1.12109,1.20312 1.12109,3.41796 z m -1.66796,-1.3125 q -0.009,-1.34896 -0.6836,-2.08724 -0.66536,-0.73828 -2.03255,-0.73828 -1.3763,0 -2.19661,0.8112 -0.8112,0.8112 -0.92058,2.01432 z"
           style="fill:#ff0000;fill-opacity:1"
           id="path4794" />
        <path
           d="m 344.97331,851.87912 h -4.84896 v 11.96745 h -1.80469 v -11.96745 h -4.84896 v -1.60416 h 11.50261 z"
           style="fill:#ff0000;fill-opacity:1"
           id="path4796" />
        <path
           d="m 353.34961,858.76063 q 0,2.48829 -1.27604,3.92839 -1.27604,1.4401 -3.41797,1.4401 -2.16016,0 -3.4362,-1.4401 -1.26693,-1.4401 -1.26693,-3.92839 0,-2.48828 1.26693,-3.92838 1.27604,-1.44922 3.4362,-1.44922 2.14193,0 3.41797,1.44922 1.27604,1.4401 1.27604,3.92838 z m -1.76823,0 q 0,-1.97786 -0.77474,-2.93489 -0.77474,-0.96615 -2.15104,-0.96615 -1.39453,0 -2.16927,0.96615 -0.76563,0.95703 -0.76563,2.93489 0,1.91407 0.77474,2.90756 0.77474,0.98437 2.16016,0.98437 1.36719,0 2.14193,-0.97526 0.78385,-0.98437 0.78385,-2.91667 z"
           style="fill:#ff0000;fill-opacity:1"
           id="path4798" />
        <path
           d="m 364.97069,858.63303 q 0,1.23958 -0.35547,2.26953 -0.35546,1.02083 -1.0026,1.73177 -0.60156,0.67448 -1.42188,1.04818 -0.81119,0.36458 -1.72265,0.36458 -0.79297,0 -1.44011,-0.17317 -0.63802,-0.17318 -1.30338,-0.53777 v 4.26563 h -1.71354 v -13.9362 h 1.71354 v 1.06641 q 0.68359,-0.57422 1.53125,-0.95703 0.85677,-0.39193 1.82292,-0.39193 1.84114,0 2.86197,1.39453 1.02995,1.38542 1.02995,3.85547 z m -1.76823,0.0456 q 0,-1.84114 -0.6289,-2.7526 -0.62891,-0.91146 -1.93229,-0.91146 -0.73829,0 -1.48568,0.31901 -0.7474,0.31901 -1.43099,0.83854 v 5.76953 q 0.72917,0.32813 1.2487,0.44662 0.52864,0.11849 1.19401,0.11849 1.43099,0 2.23307,-0.96615 0.80208,-0.96614 0.80208,-2.86198 z"
           style="fill:#ff0000;fill-opacity:1"
           id="path4800" />
        <path
           d="m 379.59961,858.73329 h -5.6875 v -1.64974 h 5.6875 z"
           style="fill:#ff0000;fill-opacity:1"
           id="path4802" />
        <path
           d="m 398.06574,853.66558 -4.11979,10.18099 h -1.72265 l -4.09245,-10.18099 h 1.85937 l 3.15365,8.10287 3.1263,-8.10287 z"
           style="fill:#ff0000;fill-opacity:1"
           id="path4804" />
        <path
           d="m 408.50194,863.84657 h -7.34635 v -1.38542 h 2.82552 v -9.09635 h -2.82552 v -1.23958 q 0.57422,0 1.23047,-0.0911 0.65625,-0.10026 0.99349,-0.28255 0.41927,-0.22786 0.65625,-0.57422 0.24609,-0.35547 0.28255,-0.94792 h 1.41276 v 12.23177 h 2.77083 z"
           style="fill:#ff0000;fill-opacity:1"
           id="path4806" />
      </g>
      <g
         aria-label="NOTE: No Top Shelf access to CG1500 bottom cutouts"
         transform="matrix(0.26458333,0,0,0.26458333,-0.68750003,49.656709)"
         style="font-style:normal;font-weight:normal;font-size:16px;line-height:1.25;font-family:sans-serif;letter-spacing:0px;word-spacing:0px;fill:#000000;fill-opacity:1;stroke:none"
         id="flowRoot4809">
        <path
           d="m 992.07357,859.62977 h -2.23308 l -6.43489,-12.14062 v 12.14062 h -1.6862 v -13.57161 h 2.79818 l 5.86979,11.08333 v -11.08333 h 1.6862 z"
           style="font-size:18.66666603px;fill:#ff0000;fill-opacity:1"
           id="path4817" />
        <path
           d="m 1005.8001,847.61675 q 0.8295,0.91146 1.267,2.23308 0.4466,1.32161 0.4466,2.99869 0,1.67709 -0.4558,3.00782 -0.4466,1.32161 -1.2578,2.20573 -0.8385,0.92057 -1.9869,1.38541 -1.1394,0.46485 -2.6068,0.46485 -1.43101,0 -2.60679,-0.47396 -1.16667,-0.47396 -1.98698,-1.3763 -0.82031,-0.90235 -1.26693,-2.21485 -0.4375,-1.3125 -0.4375,-2.9987 0,-1.65885 0.4375,-2.97135 0.4375,-1.32161 1.27604,-2.26042 0.80209,-0.89322 1.98698,-1.36718 1.19401,-0.47396 2.59768,-0.47396 1.4583,0 2.6159,0.48307 1.1666,0.47396 1.9778,1.35807 z m -0.164,5.23177 q 0,-2.64322 -1.1849,-4.07421 -1.1849,-1.44011 -3.2357,-1.44011 -2.06902,0 -3.25391,1.44011 -1.17578,1.43099 -1.17578,4.07421 0,2.67058 1.20312,4.09245 1.20313,1.41276 3.22657,1.41276 2.0234,0 3.2174,-1.41276 1.2032,-1.42187 1.2032,-4.09245 z"
           style="font-size:18.66666603px;fill:#ff0000;fill-opacity:1"
           id="path4819" />
        <path
           d="m 1019.6178,847.66233 h -4.8489 v 11.96744 h -1.8047 v -11.96744 h -4.849 v -1.60417 h 11.5026 z"
           style="font-size:18.66666603px;fill:#ff0000;fill-opacity:1"
           id="path4821" />
        <path
           d="m 1030.4004,859.62977 h -8.9414 v -13.57161 h 8.9414 v 1.60417 h -7.1367 v 3.71875 h 7.1367 v 1.60416 h -7.1367 v 5.04037 h 7.1367 z"
           style="font-size:18.66666603px;fill:#ff0000;fill-opacity:1"
           id="path4823" />
        <path
           d="m 1036.7806,852.04644 h -2.1784 v -2.59765 h 2.1784 z m 0,7.58333 h -2.1784 v -2.59765 h 2.1784 z"
           style="font-size:18.66666603px;fill:#ff0000;fill-opacity:1"
           id="path4825" />
        <path
           d="m 1058.6829,859.62977 h -2.233 l -6.4349,-12.14062 v 12.14062 h -1.6862 v -13.57161 h 2.7982 l 5.8697,11.08333 v -11.08333 h 1.6862 z"
           style="font-size:18.66666603px;fill:#ff0000;fill-opacity:1"
           id="path4827" />
        <path
           d="m 1070.8327,854.54384 q 0,2.48828 -1.2761,3.92838 -1.276,1.44011 -3.4179,1.44011 -2.1602,0 -3.4362,-1.44011 -1.267,-1.4401 -1.267,-3.92838 0,-2.48828 1.267,-3.92839 1.276,-1.44922 3.4362,-1.44922 2.1419,0 3.4179,1.44922 1.2761,1.44011 1.2761,3.92839 z m -1.7682,0 q 0,-1.97787 -0.7748,-2.9349 -0.7747,-0.96614 -2.151,-0.96614 -1.3946,0 -2.1693,0.96614 -0.7656,0.95703 -0.7656,2.9349 0,1.91406 0.7747,2.90755 0.7748,0.98437 2.1602,0.98437 1.3672,0 2.1419,-0.97526 0.7839,-0.98437 0.7839,-2.91666 z"
           style="font-size:18.66666603px;fill:#ff0000;fill-opacity:1"
           id="path4829" />
        <path
           d="m 1089.873,847.66233 h -4.8489 v 11.96744 h -1.8047 v -11.96744 h -4.849 v -1.60417 h 11.5026 z"
           style="font-size:18.66666603px;fill:#ff0000;fill-opacity:1"
           id="path4831" />
        <path
           d="m 1098.2493,854.54384 q 0,2.48828 -1.276,3.92838 -1.276,1.44011 -3.418,1.44011 -2.1601,0 -3.4362,-1.44011 -1.2669,-1.4401 -1.2669,-3.92838 0,-2.48828 1.2669,-3.92839 1.2761,-1.44922 3.4362,-1.44922 2.142,0 3.418,1.44922 1.276,1.44011 1.276,3.92839 z m -1.7682,0 q 0,-1.97787 -0.7747,-2.9349 -0.7748,-0.96614 -2.1511,-0.96614 -1.3945,0 -2.1692,0.96614 -0.7657,0.95703 -0.7657,2.9349 0,1.91406 0.7748,2.90755 0.7747,0.98437 2.1601,0.98437 1.3672,0 2.142,-0.97526 0.7838,-0.98437 0.7838,-2.91666 z"
           style="font-size:18.66666603px;fill:#ff0000;fill-opacity:1"
           id="path4833" />
        <path
           d="m 1109.8704,854.41623 q 0,1.23959 -0.3554,2.26953 -0.3555,1.02084 -1.0026,1.73178 -0.6016,0.67447 -1.4219,1.04817 -0.8112,0.36459 -1.7227,0.36459 -0.7929,0 -1.4401,-0.17318 -0.638,-0.17318 -1.3034,-0.53776 v 4.26562 h -1.7135 v -13.93619 h 1.7135 v 1.0664 q 0.6836,-0.57422 1.5313,-0.95703 0.8568,-0.39193 1.8229,-0.39193 1.8412,0 2.862,1.39453 1.0299,1.38542 1.0299,3.85547 z m -1.7682,0.0456 q 0,-1.84115 -0.6289,-2.75261 -0.6289,-0.91146 -1.9323,-0.91146 -0.7383,0 -1.4857,0.31901 -0.7474,0.31901 -1.431,0.83855 v 5.76953 q 0.7292,0.32812 1.2487,0.44661 0.5287,0.11849 1.1941,0.11849 1.4309,0 2.233,-0.96614 0.8021,-0.96615 0.8021,-2.86198 z"
           style="font-size:18.66666603px;fill:#ff0000;fill-opacity:1"
           id="path4835" />
        <path
           d="m 1129.1022,855.75608 q 0,0.79297 -0.3737,1.56771 -0.3646,0.77473 -1.0299,1.3125 -0.7292,0.58333 -1.7045,0.91145 -0.9661,0.32813 -2.3333,0.32813 -1.4674,0 -2.6432,-0.27344 -1.1667,-0.27344 -2.3789,-0.8112 v -2.26041 h 0.1276 q 1.0299,0.85677 2.3789,1.32161 1.3489,0.46484 2.5338,0.46484 1.6771,0 2.6068,-0.6289 0.9388,-0.62891 0.9388,-1.67708 0,-0.90235 -0.4466,-1.33073 -0.4375,-0.42839 -1.3399,-0.66537 -0.6835,-0.18229 -1.4856,-0.30078 -0.793,-0.11849 -1.6862,-0.30078 -1.8047,-0.38281 -2.6797,-1.30339 -0.8659,-0.92968 -0.8659,-2.41536 0,-1.70443 1.4401,-2.78906 1.4401,-1.09375 3.6549,-1.09375 1.431,0 2.625,0.27343 1.1941,0.27344 2.1146,0.67448 v 2.13282 h -0.1276 q -0.7747,-0.65625 -2.0416,-1.08464 -1.2579,-0.4375 -2.5795,-0.4375 -1.4492,0 -2.3333,0.60156 -0.875,0.60157 -0.875,1.54948 0,0.84766 0.4375,1.33073 0.4375,0.48307 1.5404,0.73828 0.5833,0.12761 1.6588,0.3099 1.0755,0.18229 1.8229,0.3737 1.5131,0.40104 2.2787,1.21224 0.7656,0.81119 0.7656,2.26953 z"
           style="font-size:18.66666603px;fill:#ff0000;fill-opacity:1"
           id="path4837" />
        <path
           d="m 1140.377,859.62977 h -1.7136 v -5.79687 q 0,-0.70182 -0.082,-1.3125 -0.082,-0.61979 -0.3008,-0.96615 -0.2279,-0.38281 -0.6563,-0.5651 -0.4283,-0.19141 -1.1119,-0.19141 -0.7019,0 -1.4675,0.34636 -0.7656,0.34635 -1.4674,0.88411 v 7.60156 h -1.7136 v -14.18229 h 1.7136 v 5.13151 q 0.8021,-0.66536 1.6588,-1.03906 0.8568,-0.3737 1.7591,-0.3737 1.6498,0 2.5157,0.99349 0.8659,0.99349 0.8659,2.86198 z"
           style="font-size:18.66666603px;fill:#ff0000;fill-opacity:1"
           id="path4839" />
        <path
           d="m 1152.1986,854.71701 h -7.5013 q 0,0.93881 0.2825,1.64063 0.2826,0.69271 0.7748,1.13932 0.4739,0.4375 1.1211,0.65625 0.6562,0.21875 1.4401,0.21875 1.039,0 2.0872,-0.41015 1.0573,-0.41927 1.5039,-0.82032 h 0.091 v 1.86849 q -0.8658,0.36459 -1.7682,0.61068 -0.9023,0.24609 -1.8958,0.24609 -2.5339,0 -3.9557,-1.36718 -1.4219,-1.37631 -1.4219,-3.90105 0,-2.49739 1.3581,-3.96484 1.3671,-1.46745 3.5911,-1.46745 2.0599,0 3.1719,1.20313 1.1211,1.20312 1.1211,3.41797 z m -1.668,-1.3125 q -0.01,-1.34895 -0.6836,-2.08724 -0.6654,-0.73828 -2.0325,-0.73828 -1.3763,0 -2.1967,0.8112 -0.8112,0.8112 -0.9205,2.01432 z"
           style="font-size:18.66666603px;fill:#ff0000;fill-opacity:1"
           id="path4841" />
        <path
           d="m 1156.528,859.62977 h -1.7136 v -14.18229 h 1.7136 z"
           style="font-size:18.66666603px;fill:#ff0000;fill-opacity:1"
           id="path4843" />
        <path
           d="m 1165.3418,847.10634 h -0.091 q -0.2826,-0.082 -0.7383,-0.16406 -0.4558,-0.0911 -0.8021,-0.0911 -1.1029,0 -1.6042,0.49219 -0.4922,0.48307 -0.4922,1.75911 v 0.34636 h 3.0899 v 1.4401 h -3.0352 v 8.74088 h -1.7135 v -8.74088 h -1.1576 v -1.4401 h 1.1576 v -0.33724 q 0,-1.81381 0.9023,-2.77995 0.9024,-0.97526 2.6068,-0.97526 0.5742,0 1.0299,0.0547 0.4649,0.0547 0.8477,0.1276 z"
           style="font-size:18.66666603px;fill:#ff0000;fill-opacity:1"
           id="path4845" />
        <path
           d="m 1180.9004,859.62977 h -1.7044 v -1.08463 q -0.2279,0.15495 -0.6198,0.4375 -0.3828,0.27344 -0.7474,0.4375 -0.4284,0.20963 -0.9844,0.34635 -0.556,0.14584 -1.3034,0.14584 -1.3763,0 -2.3333,-0.91146 -0.957,-0.91146 -0.957,-2.32422 0,-1.15755 0.4921,-1.86849 0.5013,-0.72005 1.4219,-1.13021 0.9297,-0.41015 2.2331,-0.55599 1.3034,-0.14583 2.7982,-0.21875 v -0.26432 q 0,-0.58333 -0.2097,-0.96615 -0.2005,-0.38281 -0.5833,-0.60156 -0.3646,-0.20963 -0.875,-0.28255 -0.5104,-0.0729 -1.0664,-0.0729 -0.6745,0 -1.5039,0.18229 -0.8294,0.17318 -1.7136,0.51042 h -0.091 v -1.74088 q 0.5013,-0.13672 1.4492,-0.30079 0.9479,-0.16406 1.8685,-0.16406 1.0755,0 1.8685,0.18229 0.8021,0.17318 1.3854,0.60157 0.5742,0.41927 0.875,1.08463 0.3008,0.66537 0.3008,1.64974 z m -1.7044,-2.50651 v -2.83463 q -0.7839,0.0456 -1.8503,0.13672 -1.0573,0.0911 -1.6771,0.26432 -0.7383,0.20964 -1.194,0.65625 -0.4557,0.4375 -0.4557,1.21224 0,0.875 0.5286,1.32161 0.5287,0.4375 1.6133,0.4375 0.9024,0 1.6497,-0.34635 0.7474,-0.35547 1.3855,-0.84766 z"
           style="font-size:18.66666603px;fill:#ff0000;fill-opacity:1"
           id="path4847" />
        <path
           d="m 1191.7467,858.99175 q -0.8567,0.41016 -1.6315,0.63802 -0.7656,0.22787 -1.6315,0.22787 -1.1029,0 -2.0234,-0.31901 -0.9206,-0.32813 -1.5768,-0.98438 -0.6654,-0.65625 -1.03,-1.65885 -0.3646,-1.0026 -0.3646,-2.34245 0,-2.49739 1.3672,-3.91927 1.3763,-1.42187 3.6276,-1.42187 0.875,0 1.7136,0.24609 0.8476,0.24609 1.5494,0.60156 v 1.90495 h -0.091 q -0.7839,-0.61068 -1.6224,-0.9388 -0.8294,-0.32813 -1.6224,-0.32813 -1.4583,0 -2.306,0.98438 -0.8385,0.97526 -0.8385,2.87109 0,1.84115 0.8203,2.83464 0.8294,0.98437 2.3242,0.98437 0.5195,0 1.0573,-0.13672 0.5377,-0.13672 0.9661,-0.35547 0.3737,-0.1914 0.7019,-0.40104 0.3281,-0.21875 0.5195,-0.37369 h 0.091 z"
           style="font-size:18.66666603px;fill:#ff0000;fill-opacity:1"
           id="path4849" />
        <path
           d="m 1201.4811,858.99175 q -0.8568,0.41016 -1.6315,0.63802 -0.7656,0.22787 -1.6315,0.22787 -1.1029,0 -2.0234,-0.31901 -0.9206,-0.32813 -1.5769,-0.98438 -0.6653,-0.65625 -1.0299,-1.65885 -0.3646,-1.0026 -0.3646,-2.34245 0,-2.49739 1.3672,-3.91927 1.3763,-1.42187 3.6276,-1.42187 0.875,0 1.7135,0.24609 0.8477,0.24609 1.5495,0.60156 v 1.90495 h -0.091 q -0.7839,-0.61068 -1.6224,-0.9388 -0.8295,-0.32813 -1.6224,-0.32813 -1.4584,0 -2.306,0.98438 -0.8386,0.97526 -0.8386,2.87109 0,1.84115 0.8204,2.83464 0.8294,0.98437 2.3242,0.98437 0.5195,0 1.0573,-0.13672 0.5377,-0.13672 0.9661,-0.35547 0.3737,-0.1914 0.7018,-0.40104 0.3282,-0.21875 0.5196,-0.37369 h 0.091 z"
           style="font-size:18.66666603px;fill:#ff0000;fill-opacity:1"
           id="path4851" />
        <path
           d="m 1212.209,854.71701 h -7.5013 q 0,0.93881 0.2825,1.64063 0.2826,0.69271 0.7748,1.13932 0.4739,0.4375 1.1211,0.65625 0.6562,0.21875 1.4401,0.21875 1.039,0 2.0872,-0.41015 1.0573,-0.41927 1.5039,-0.82032 h 0.091 v 1.86849 q -0.8659,0.36459 -1.7683,0.61068 -0.9023,0.24609 -1.8958,0.24609 -2.5339,0 -3.9557,-1.36718 -1.4219,-1.37631 -1.4219,-3.90105 0,-2.49739 1.3581,-3.96484 1.3671,-1.46745 3.5911,-1.46745 2.0599,0 3.1719,1.20313 1.1211,1.20312 1.1211,3.41797 z m -1.668,-1.3125 q -0.01,-1.34895 -0.6836,-2.08724 -0.6654,-0.73828 -2.0325,-0.73828 -1.3763,0 -2.1967,0.8112 -0.8112,0.8112 -0.9205,2.01432 z"
           style="font-size:18.66666603px;fill:#ff0000;fill-opacity:1"
           id="path4853" />
        <path
           d="m 1222.0801,856.69488 q 0,1.39453 -1.1576,2.28776 -1.1484,0.89323 -3.1445,0.89323 -1.1302,0 -2.0781,-0.26432 -0.9388,-0.27344 -1.5769,-0.59245 v -1.92318 h 0.091 q 0.8112,0.61068 1.8047,0.97526 0.9935,0.35547 1.9049,0.35547 1.1302,0 1.7683,-0.36458 0.638,-0.36459 0.638,-1.14844 0,-0.60156 -0.3464,-0.91146 -0.3463,-0.3099 -1.3307,-0.52865 -0.3646,-0.082 -0.957,-0.1914 -0.5834,-0.10938 -1.0664,-0.23698 -1.3399,-0.35547 -1.905,-1.03906 -0.556,-0.69271 -0.556,-1.69532 0,-0.6289 0.2552,-1.18489 0.2643,-0.55599 0.793,-0.99349 0.5104,-0.42839 1.2943,-0.67448 0.7929,-0.25521 1.7682,-0.25521 0.9114,0 1.8411,0.22787 0.9388,0.21875 1.5586,0.53776 v 1.83203 h -0.091 q -0.6563,-0.48308 -1.5951,-0.8112 -0.9388,-0.33724 -1.8411,-0.33724 -0.9388,0 -1.5859,0.36458 -0.6472,0.35547 -0.6472,1.06641 0,0.62891 0.3919,0.94792 0.3829,0.31901 1.2396,0.51953 0.474,0.10937 1.0573,0.21875 0.5925,0.10937 0.9844,0.20052 1.194,0.27344 1.8411,0.9388 0.6472,0.67448 0.6472,1.78646 z"
           style="font-size:18.66666603px;fill:#ff0000;fill-opacity:1"
           id="path4855" />
        <path
           d="m 1231.8144,856.69488 q 0,1.39453 -1.1575,2.28776 -1.1484,0.89323 -3.1445,0.89323 -1.1302,0 -2.0782,-0.26432 -0.9388,-0.27344 -1.5768,-0.59245 v -1.92318 h 0.091 q 0.8112,0.61068 1.8047,0.97526 0.9934,0.35547 1.9049,0.35547 1.1302,0 1.7682,-0.36458 0.638,-0.36459 0.638,-1.14844 0,-0.60156 -0.3463,-0.91146 -0.3464,-0.3099 -1.3307,-0.52865 -0.3646,-0.082 -0.9571,-0.1914 -0.5833,-0.10938 -1.0664,-0.23698 -1.3398,-0.35547 -1.9049,-1.03906 -0.556,-0.69271 -0.556,-1.69532 0,-0.6289 0.2552,-1.18489 0.2643,-0.55599 0.793,-0.99349 0.5104,-0.42839 1.2942,-0.67448 0.793,-0.25521 1.7683,-0.25521 0.9114,0 1.8411,0.22787 0.9388,0.21875 1.5586,0.53776 v 1.83203 h -0.091 q -0.6563,-0.48308 -1.5951,-0.8112 -0.9388,-0.33724 -1.8411,-0.33724 -0.9388,0 -1.586,0.36458 -0.6471,0.35547 -0.6471,1.06641 0,0.62891 0.3919,0.94792 0.3828,0.31901 1.2396,0.51953 0.474,0.10937 1.0573,0.21875 0.5924,0.10937 0.9844,0.20052 1.194,0.27344 1.8411,0.9388 0.6471,0.67448 0.6471,1.78646 z"
           style="font-size:18.66666603px;fill:#ff0000;fill-opacity:1"
           id="path4857" />
        <path
           d="m 1246.1243,859.53863 q -0.483,0.1276 -1.0573,0.20963 -0.5651,0.082 -1.0117,0.082 -1.5586,0 -2.3698,-0.83855 -0.8112,-0.83854 -0.8112,-2.6888 v -5.41406 h -1.1575 v -1.4401 h 1.1575 V 846.523 h 1.7136 v 2.92579 h 3.5364 v 1.4401 h -3.5364 v 4.63932 q 0,0.80209 0.036,1.25781 0.037,0.44662 0.2552,0.83855 0.2006,0.36458 0.5469,0.53776 0.3555,0.16406 1.0755,0.16406 0.4193,0 0.875,-0.11849 0.4558,-0.1276 0.6563,-0.20964 h 0.091 z"
           style="font-size:18.66666603px;fill:#ff0000;fill-opacity:1"
           id="path4859" />
        <path
           d="m 1256.8795,854.54384 q 0,2.48828 -1.276,3.92838 -1.276,1.44011 -3.418,1.44011 -2.1601,0 -3.4362,-1.44011 -1.2669,-1.4401 -1.2669,-3.92838 0,-2.48828 1.2669,-3.92839 1.2761,-1.44922 3.4362,-1.44922 2.142,0 3.418,1.44922 1.276,1.44011 1.276,3.92839 z m -1.7682,0 q 0,-1.97787 -0.7747,-2.9349 -0.7748,-0.96614 -2.1511,-0.96614 -1.3945,0 -2.1692,0.96614 -0.7657,0.95703 -0.7657,2.9349 0,1.91406 0.7748,2.90755 0.7747,0.98437 2.1601,0.98437 1.3672,0 2.142,-0.97526 0.7838,-0.98437 0.7838,-2.91666 z"
           style="font-size:18.66666603px;fill:#ff0000;fill-opacity:1"
           id="path4861" />
        <path
           d="m 1276.722,858.6454 q -0.5013,0.21875 -0.9115,0.41016 -0.401,0.1914 -1.0573,0.40104 -0.556,0.17317 -1.2122,0.29166 -0.6471,0.12761 -1.431,0.12761 -1.4766,0 -2.6888,-0.41016 -1.2031,-0.41927 -2.0964,-1.30338 -0.875,-0.86589 -1.3671,-2.19662 -0.4922,-1.33984 -0.4922,-3.10807 0,-1.67708 0.4739,-2.9987 0.474,-1.32161 1.3672,-2.23307 0.8659,-0.88412 2.0873,-1.34896 1.2304,-0.46484 2.7252,-0.46484 1.0938,0 2.1784,0.26432 1.0938,0.26432 2.4245,0.92969 v 2.14192 h -0.1367 q -1.1211,-0.9388 -2.224,-1.36718 -1.1029,-0.42839 -2.3607,-0.42839 -1.0299,0 -1.8593,0.33724 -0.8204,0.32813 -1.4675,1.02995 -0.6289,0.68359 -0.9844,1.73177 -0.3463,1.03906 -0.3463,2.40625 0,1.43099 0.3828,2.46094 0.3919,1.02994 1.0026,1.67708 0.638,0.67448 1.4857,1.0026 0.8567,0.31901 1.8047,0.31901 1.3033,0 2.4427,-0.44661 1.1393,-0.44661 2.1328,-1.33984 h 0.1276 z"
           style="font-size:18.66666603px;fill:#ff0000;fill-opacity:1"
           id="path4863" />
        <path
           d="m 1290.6126,858.62717 q -1.112,0.51042 -2.4336,0.89323 -1.3125,0.3737 -2.5429,0.3737 -1.586,0 -2.9076,-0.4375 -1.3216,-0.4375 -2.2513,-1.3125 -0.9388,-0.88412 -1.4492,-2.20573 -0.5104,-1.33073 -0.5104,-3.10807 0,-3.25391 1.8958,-5.13151 1.9049,-1.88672 5.2227,-1.88672 1.1575,0 2.3606,0.28255 1.2123,0.27344 2.6068,0.9388 v 2.14193 h -0.1641 q -0.2825,-0.21875 -0.8203,-0.57422 -0.5377,-0.35547 -1.0573,-0.59245 -0.6289,-0.28255 -1.431,-0.46484 -0.7929,-0.19141 -1.8046,-0.19141 -2.2787,0 -3.6094,1.46745 -1.3216,1.45833 -1.3216,3.95573 0,2.63411 1.3854,4.10156 1.3854,1.45833 3.7734,1.45833 0.875,0 1.7409,-0.17317 0.875,-0.17318 1.5313,-0.44662 v -3.32682 h -3.6368 v -1.58594 h 5.4232 z"
           style="font-size:18.66666603px;fill:#ff0000;fill-opacity:1"
           id="path4865" />
        <path
           d="m 1301.8236,859.62977 h -7.3464 v -1.38541 h 2.8255 V 849.148 h -2.8255 v -1.23958 q 0.5742,0 1.2305,-0.0911 0.6562,-0.10027 0.9935,-0.28256 0.4192,-0.22786 0.6562,-0.57422 0.2461,-0.35546 0.2826,-0.94791 h 1.4127 v 12.23177 h 2.7709 z"
           style="font-size:18.66666603px;fill:#ff0000;fill-opacity:1"
           id="path4867" />
        <path
           d="m 1314.3743,855.31858 q 0,0.94791 -0.3463,1.8138 -0.3464,0.86588 -0.9479,1.45833 -0.6563,0.63802 -1.5677,0.98438 -0.9024,0.33724 -2.0964,0.33724 -1.112,0 -2.1419,-0.23698 -1.03,-0.22787 -1.7409,-0.55599 v -1.92318 h 0.1276 q 0.7474,0.47396 1.75,0.8112 1.0026,0.32812 1.9687,0.32812 0.6472,0 1.2487,-0.18229 0.6107,-0.18229 1.0847,-0.63802 0.401,-0.39193 0.6015,-0.9388 0.2097,-0.54688 0.2097,-1.26693 0,-0.70182 -0.2461,-1.18489 -0.237,-0.48308 -0.6654,-0.77474 -0.4739,-0.34636 -1.1575,-0.48308 -0.6745,-0.14583 -1.5131,-0.14583 -0.802,0 -1.5494,0.10938 -0.7383,0.10937 -1.2761,0.21875 v -6.99089 h 8.1667 v 1.59505 h -6.4076 v 3.60938 q 0.392,-0.0365 0.8021,-0.0547 0.4102,-0.0182 0.711,-0.0182 1.1028,0 1.9323,0.19141 0.8294,0.18229 1.5221,0.65625 0.7292,0.5013 1.1302,1.29427 0.401,0.79297 0.401,1.98698 z"
           style="font-size:18.66666603px;fill:#ff0000;fill-opacity:1"
           id="path4869" />
        <path
           d="m 1326.3509,852.83941 q 0,3.65495 -1.1484,5.36849 -1.1394,1.70443 -3.5456,1.70443 -2.4427,0 -3.5729,-1.73177 -1.1211,-1.73177 -1.1211,-5.32292 0,-3.61849 1.1393,-5.34115 1.1393,-1.73177 3.5547,-1.73177 2.4427,0 3.5638,1.75912 1.1302,1.75 1.1302,5.29557 z m -2.3971,4.13802 q 0.319,-0.73828 0.4283,-1.73177 0.1185,-1.0026 0.1185,-2.40625 0,-1.38542 -0.1185,-2.40625 -0.1093,-1.02083 -0.4375,-1.73177 -0.319,-0.70182 -0.875,-1.05729 -0.5468,-0.35547 -1.4127,-0.35547 -0.8568,0 -1.4219,0.35547 -0.556,0.35547 -0.8841,1.07552 -0.3099,0.67448 -0.4284,1.75911 -0.1094,1.08464 -0.1094,2.37891 0,1.42187 0.1003,2.37891 0.1003,0.95703 0.4284,1.71354 0.3008,0.71093 0.8476,1.08463 0.556,0.3737 1.4675,0.3737 0.8568,0 1.4219,-0.35547 0.5651,-0.35547 0.875,-1.07552 z"
           style="font-size:18.66666603px;fill:#ff0000;fill-opacity:1"
           id="path4871" />
        <path
           d="m 1338.2363,852.83941 q 0,3.65495 -1.1484,5.36849 -1.1393,1.70443 -3.5456,1.70443 -2.4427,0 -3.5729,-1.73177 -1.1211,-1.73177 -1.1211,-5.32292 0,-3.61849 1.1393,-5.34115 1.1394,-1.73177 3.5547,-1.73177 2.4427,0 3.5638,1.75912 1.1302,1.75 1.1302,5.29557 z m -2.3971,4.13802 q 0.319,-0.73828 0.4284,-1.73177 0.1185,-1.0026 0.1185,-2.40625 0,-1.38542 -0.1185,-2.40625 -0.1094,-1.02083 -0.4375,-1.73177 -0.319,-0.70182 -0.875,-1.05729 -0.5469,-0.35547 -1.4128,-0.35547 -0.8568,0 -1.4219,0.35547 -0.5559,0.35547 -0.8841,1.07552 -0.3099,0.67448 -0.4284,1.75911 -0.1093,1.08464 -0.1093,2.37891 0,1.42187 0.1002,2.37891 0.1003,0.95703 0.4284,1.71354 0.3008,0.71093 0.8477,1.08463 0.556,0.3737 1.4674,0.3737 0.8568,0 1.4219,-0.35547 0.5651,-0.35547 0.875,-1.07552 z"
           style="font-size:18.66666603px;fill:#ff0000;fill-opacity:1"
           id="path4873" />
        <path
           d="m 1356.6933,854.46181 q 0,1.27604 -0.3645,2.29687 -0.3555,1.02083 -0.9662,1.71354 -0.6471,0.72005 -1.4219,1.08464 -0.7747,0.35547 -1.7044,0.35547 -0.8659,0 -1.513,-0.20964 -0.6471,-0.20052 -1.276,-0.54687 l -0.1094,0.47395 h -1.6042 v -14.18229 h 1.7136 v 5.06771 q 0.72,-0.59245 1.5312,-0.96614 0.8112,-0.38282 1.8229,-0.38282 1.8047,0 2.8438,1.38542 1.0481,1.38542 1.0481,3.91016 z m -1.7682,0.0456 q 0,-1.82292 -0.6015,-2.76172 -0.6016,-0.94792 -1.9414,-0.94792 -0.7474,0 -1.5131,0.32813 -0.7656,0.31901 -1.4218,0.82943 v 5.83333 q 0.7291,0.32812 1.2487,0.45573 0.5286,0.1276 1.194,0.1276 1.4218,0 2.2239,-0.92969 0.8112,-0.9388 0.8112,-2.93489 z"
           style="font-size:18.66666603px;fill:#ff0000;fill-opacity:1"
           id="path4875" />
        <path
           d="m 1368.041,854.54384 q 0,2.48828 -1.276,3.92838 -1.2761,1.44011 -3.418,1.44011 -2.1602,0 -3.4362,-1.44011 -1.2669,-1.4401 -1.2669,-3.92838 0,-2.48828 1.2669,-3.92839 1.276,-1.44922 3.4362,-1.44922 2.1419,0 3.418,1.44922 1.276,1.44011 1.276,3.92839 z m -1.7682,0 q 0,-1.97787 -0.7748,-2.9349 -0.7747,-0.96614 -2.151,-0.96614 -1.3945,0 -2.1693,0.96614 -0.7656,0.95703 -0.7656,2.9349 0,1.91406 0.7747,2.90755 0.7748,0.98437 2.1602,0.98437 1.3672,0 2.1419,-0.97526 0.7839,-0.98437 0.7839,-2.91666 z"
           style="font-size:18.66666603px;fill:#ff0000;fill-opacity:1"
           id="path4877" />
        <path
           d="m 1375.9889,859.53863 q -0.4831,0.1276 -1.0573,0.20963 -0.5651,0.082 -1.0117,0.082 -1.5586,0 -2.3698,-0.83855 -0.8112,-0.83854 -0.8112,-2.6888 v -5.41406 h -1.1575 v -1.4401 h 1.1575 V 846.523 h 1.7136 v 2.92579 h 3.5364 v 1.4401 h -3.5364 v 4.63932 q 0,0.80209 0.036,1.25781 0.036,0.44662 0.2552,0.83855 0.2006,0.36458 0.5469,0.53776 0.3555,0.16406 1.0755,0.16406 0.4193,0 0.875,-0.11849 0.4558,-0.1276 0.6563,-0.20964 h 0.091 z"
           style="font-size:18.66666603px;fill:#ff0000;fill-opacity:1"
           id="path4879" />
        <path
           d="m 1383.3535,859.53863 q -0.4831,0.1276 -1.0573,0.20963 -0.5651,0.082 -1.0117,0.082 -1.5586,0 -2.3698,-0.83855 -0.8112,-0.83854 -0.8112,-2.6888 v -5.41406 h -1.1575 v -1.4401 h 1.1575 V 846.523 h 1.7136 v 2.92579 h 3.5364 v 1.4401 h -3.5364 v 4.63932 q 0,0.80209 0.036,1.25781 0.037,0.44662 0.2552,0.83855 0.2005,0.36458 0.5469,0.53776 0.3555,0.16406 1.0755,0.16406 0.4193,0 0.875,-0.11849 0.4557,-0.1276 0.6563,-0.20964 h 0.091 z"
           style="font-size:18.66666603px;fill:#ff0000;fill-opacity:1"
           id="path4881" />
        <path
           d="m 1394.1087,854.54384 q 0,2.48828 -1.276,3.92838 -1.2761,1.44011 -3.418,1.44011 -2.1602,0 -3.4362,-1.44011 -1.2669,-1.4401 -1.2669,-3.92838 0,-2.48828 1.2669,-3.92839 1.276,-1.44922 3.4362,-1.44922 2.1419,0 3.418,1.44922 1.276,1.44011 1.276,3.92839 z m -1.7682,0 q 0,-1.97787 -0.7748,-2.9349 -0.7747,-0.96614 -2.151,-0.96614 -1.3945,0 -2.1693,0.96614 -0.7656,0.95703 -0.7656,2.9349 0,1.91406 0.7747,2.90755 0.7748,0.98437 2.1602,0.98437 1.3672,0 2.1419,-0.97526 0.7839,-0.98437 0.7839,-2.91666 z"
           style="font-size:18.66666603px;fill:#ff0000;fill-opacity:1"
           id="path4883" />
        <path
           d="m 1411.627,859.62977 h -1.7136 v -5.79687 q 0,-0.65625 -0.064,-1.26693 -0.055,-0.61067 -0.2461,-0.97526 -0.2096,-0.39192 -0.6015,-0.59245 -0.392,-0.20052 -1.1303,-0.20052 -0.72,0 -1.4401,0.36459 -0.72,0.35547 -1.4401,0.91146 0.027,0.20963 0.046,0.49218 0.018,0.27344 0.018,0.54688 v 6.51692 h -1.7135 v -5.79687 q 0,-0.67448 -0.064,-1.27604 -0.055,-0.61068 -0.2461,-0.97526 -0.2096,-0.39193 -0.6016,-0.58334 -0.3919,-0.20052 -1.1302,-0.20052 -0.7018,0 -1.4127,0.34636 -0.7019,0.34635 -1.4037,0.88411 v 7.60156 h -1.7135 v -10.18098 h 1.7135 v 1.1302 q 0.8021,-0.66536 1.5951,-1.03906 0.8021,-0.3737 1.7044,-0.3737 1.0391,0 1.7591,0.4375 0.7292,0.4375 1.0847,1.21224 1.039,-0.875 1.8958,-1.25781 0.8568,-0.39193 1.832,-0.39193 1.6771,0 2.4701,1.02084 0.8021,1.01172 0.8021,2.83463 z"
           style="font-size:18.66666603px;fill:#ff0000;fill-opacity:1"
           id="path4885" />
        <path
           d="m 1429.0176,858.99175 q -0.8568,0.41016 -1.6315,0.63802 -0.7657,0.22787 -1.6315,0.22787 -1.1029,0 -2.0235,-0.31901 -0.9206,-0.32813 -1.5768,-0.98438 -0.6654,-0.65625 -1.03,-1.65885 -0.3645,-1.0026 -0.3645,-2.34245 0,-2.49739 1.3672,-3.91927 1.3763,-1.42187 3.6276,-1.42187 0.875,0 1.7135,0.24609 0.8477,0.24609 1.5495,0.60156 v 1.90495 h -0.091 q -0.7838,-0.61068 -1.6224,-0.9388 -0.8294,-0.32813 -1.6224,-0.32813 -1.4583,0 -2.3059,0.98438 -0.8386,0.97526 -0.8386,2.87109 0,1.84115 0.8203,2.83464 0.8294,0.98437 2.3242,0.98437 0.5196,0 1.0573,-0.13672 0.5378,-0.13672 0.9662,-0.35547 0.3737,-0.1914 0.7018,-0.40104 0.3281,-0.21875 0.5195,-0.37369 h 0.091 z"
           style="font-size:18.66666603px;fill:#ff0000;fill-opacity:1"
           id="path4887" />
        <path
           d="m 1439.6634,859.62977 h -1.7135 v -1.1302 q -0.8659,0.68359 -1.6589,1.04817 -0.793,0.36459 -1.75,0.36459 -1.6042,0 -2.4974,-0.97526 -0.8932,-0.98438 -0.8932,-2.88021 v -6.60807 h 1.7135 v 5.79687 q 0,0.77474 0.073,1.33073 0.073,0.54687 0.3099,0.9388 0.2461,0.40104 0.6381,0.58333 0.3919,0.1823 1.1393,0.1823 0.6654,0 1.4492,-0.34636 0.793,-0.34635 1.4766,-0.88411 v -7.60156 h 1.7135 z"
           style="font-size:18.66666603px;fill:#ff0000;fill-opacity:1"
           id="path4889" />
        <path
           d="m 1448.3223,859.53863 q -0.4831,0.1276 -1.0573,0.20963 -0.5651,0.082 -1.0117,0.082 -1.5586,0 -2.3698,-0.83855 -0.8112,-0.83854 -0.8112,-2.6888 v -5.41406 h -1.1576 v -1.4401 h 1.1576 V 846.523 h 1.7135 v 2.92579 h 3.5365 v 1.4401 h -3.5365 v 4.63932 q 0,0.80209 0.036,1.25781 0.036,0.44662 0.2552,0.83855 0.2005,0.36458 0.5468,0.53776 0.3555,0.16406 1.0756,0.16406 0.4192,0 0.875,-0.11849 0.4557,-0.1276 0.6562,-0.20964 h 0.091 z"
           style="font-size:18.66666603px;fill:#ff0000;fill-opacity:1"
           id="path4891" />
        <path
           d="m 1459.0775,854.54384 q 0,2.48828 -1.2761,3.92838 -1.276,1.44011 -3.418,1.44011 -2.1601,0 -3.4362,-1.44011 -1.2669,-1.4401 -1.2669,-3.92838 0,-2.48828 1.2669,-3.92839 1.2761,-1.44922 3.4362,-1.44922 2.142,0 3.418,1.44922 1.2761,1.44011 1.2761,3.92839 z m -1.7683,0 q 0,-1.97787 -0.7747,-2.9349 -0.7748,-0.96614 -2.1511,-0.96614 -1.3945,0 -2.1692,0.96614 -0.7657,0.95703 -0.7657,2.9349 0,1.91406 0.7748,2.90755 0.7747,0.98437 2.1601,0.98437 1.3672,0 2.142,-0.97526 0.7838,-0.98437 0.7838,-2.91666 z"
           style="font-size:18.66666603px;fill:#ff0000;fill-opacity:1"
           id="path4893" />
        <path
           d="m 1470.179,859.62977 h -1.7135 v -1.1302 q -0.8659,0.68359 -1.6589,1.04817 -0.7929,0.36459 -1.75,0.36459 -1.6041,0 -2.4974,-0.97526 -0.8932,-0.98438 -0.8932,-2.88021 v -6.60807 h 1.7136 v 5.79687 q 0,0.77474 0.073,1.33073 0.073,0.54687 0.3099,0.9388 0.2461,0.40104 0.638,0.58333 0.3919,0.1823 1.1393,0.1823 0.6654,0 1.4492,-0.34636 0.793,-0.34635 1.4766,-0.88411 v -7.60156 h 1.7135 z"
           style="font-size:18.66666603px;fill:#ff0000;fill-opacity:1"
           id="path4895" />
        <path
           d="m 1478.8379,859.53863 q -0.4831,0.1276 -1.0573,0.20963 -0.5651,0.082 -1.0117,0.082 -1.5586,0 -2.3698,-0.83855 -0.8112,-0.83854 -0.8112,-2.6888 v -5.41406 h -1.1576 v -1.4401 h 1.1576 V 846.523 h 1.7135 v 2.92579 h 3.5365 v 1.4401 h -3.5365 v 4.63932 q 0,0.80209 0.036,1.25781 0.036,0.44662 0.2552,0.83855 0.2005,0.36458 0.5469,0.53776 0.3554,0.16406 1.0755,0.16406 0.4193,0 0.875,-0.11849 0.4557,-0.1276 0.6562,-0.20964 h 0.091 z"
           style="font-size:18.66666603px;fill:#ff0000;fill-opacity:1"
           id="path4897" />
        <path
           d="m 1488.1894,856.69488 q 0,1.39453 -1.1575,2.28776 -1.1485,0.89323 -3.1446,0.89323 -1.1302,0 -2.0781,-0.26432 -0.9388,-0.27344 -1.5768,-0.59245 v -1.92318 h 0.091 q 0.8112,0.61068 1.8047,0.97526 0.9935,0.35547 1.905,0.35547 1.1302,0 1.7682,-0.36458 0.638,-0.36459 0.638,-1.14844 0,-0.60156 -0.3463,-0.91146 -0.3464,-0.3099 -1.3308,-0.52865 -0.3645,-0.082 -0.957,-0.1914 -0.5833,-0.10938 -1.0664,-0.23698 -1.3398,-0.35547 -1.9049,-1.03906 -0.556,-0.69271 -0.556,-1.69532 0,-0.6289 0.2552,-1.18489 0.2643,-0.55599 0.793,-0.99349 0.5104,-0.42839 1.2942,-0.67448 0.793,-0.25521 1.7683,-0.25521 0.9114,0 1.8411,0.22787 0.9388,0.21875 1.5586,0.53776 v 1.83203 h -0.091 q -0.6562,-0.48308 -1.595,-0.8112 -0.9388,-0.33724 -1.8412,-0.33724 -0.9388,0 -1.5859,0.36458 -0.6471,0.35547 -0.6471,1.06641 0,0.62891 0.3919,0.94792 0.3828,0.31901 1.2396,0.51953 0.4739,0.10937 1.0573,0.21875 0.5924,0.10937 0.9844,0.20052 1.194,0.27344 1.8411,0.9388 0.6471,0.67448 0.6471,1.78646 z"
           style="font-size:18.66666603px;fill:#ff0000;fill-opacity:1"
           id="path4899" />
      </g>
    </g>
    <g
       id="g4809"
       inkscape:label="0"
       transform="matrix(-0.26458333,0,0,-0.26458333,1.1933342,349.33256)">
      <path
         id="path4757"
         style="fill:none;stroke:#000000"
         d="m -336.37795,230.55118 v -15.11811 h -15.11811 v 15.11811 z"
         inkscape:connector-curvature="0" />
      <path
         id="path4759"
         style="fill:none;stroke:#000000"
         d="m -744.56693,230.55118 v -15.11811 h -15.11811 v 15.11811 z"
         inkscape:connector-curvature="0" />
      <path
         id="path4761"
         style="fill:none;stroke:#000000"
         d="m -381.73228,215.43307 h -15.11811 v 15.11811 h 15.11811 z"
         inkscape:connector-curvature="0" />
      <path
         id="path4763"
         style="fill:none;stroke:#000000"
         d="m -306.14173,215.43307 v 15.11811 h 15.11811 v -15.11811 z"
         inkscape:connector-curvature="0" />
      <path
         id="path4765"
         style="fill:none;stroke:#000000"
         d="m -532.91339,230.55118 h 15.11811 v -15.11811 h -15.11811 z"
         inkscape:connector-curvature="0" />
      <path
         id="path4767"
         style="fill:none;stroke:#000000"
         d="m -472.44094,215.43307 h -15.11811 v 15.11811 h 15.11811 z"
         inkscape:connector-curvature="0" />
      <path
         id="path4769"
         style="fill:none;stroke:#000000"
         d="m -699.2126,230.55118 v -15.11811 h -15.11811 v 15.11811 z"
         inkscape:connector-curvature="0" />
      <path
         id="path4771"
         style="fill:none;stroke:#000000"
         d="m -427.08661,230.55118 v -15.11811 h -15.11811 v 15.11811 z"
         inkscape:connector-curvature="0" />
      <path
         id="path4773"
         style="fill:none;stroke:#000000"
         d="m -215.43307,230.55118 h 15.11811 v -15.11811 h -15.11811 z"
         inkscape:connector-curvature="0" />
      <path
         id="path4775"
         style="fill:none;stroke:#000000"
         d="m -563.14961,215.43307 h -15.11811 v 15.11811 h 15.11811 z"
         inkscape:connector-curvature="0" />
      <path
         id="path4777"
         style="fill:none;stroke:#000000"
         d="m -623.62205,230.55118 h 15.11811 v -15.11811 h -15.11811 z"
         inkscape:connector-curvature="0" />
      <path
         id="path4779"
         style="fill:none;stroke:#000000"
         d="m -805.03937,215.43307 v 15.11811 h 15.11811 v -15.11811 z"
         inkscape:connector-curvature="0" />
      <path
         id="path4781"
         style="fill:none;stroke:#000000"
         d="m -154.96063,230.55118 v -15.11811 h -15.11811 v 15.11811 z"
         inkscape:connector-curvature="0" />
      <path
         id="path4783"
         style="fill:none;stroke:#000000"
         d="m -245.66929,215.43307 h -15.11811 v 15.11811 h 15.11811 z"
         inkscape:connector-curvature="0" />
      <path
         id="path4785"
         style="fill:none;stroke:#000000"
         d="m -653.85827,215.43307 h -15.11811 v 15.11811 h 15.11811 z"
         inkscape:connector-curvature="0" />
      <path
         id="path4787"
         style="fill:none;stroke:#000000"
         d="m -79.370079,215.43307 v 15.11811 h 15.11811 v -15.11811 z"
         inkscape:connector-curvature="0" />
      <path
         id="path4789"
         style="fill:none;stroke:#000000"
         d="m -124.72441,215.43307 v 15.11811 h 15.11811 v -15.11811 z"
         inkscape:connector-curvature="0" />
      <path
         id="path4791"
         style="fill:none;stroke:#000000"
         d="m -850.3937,215.43307 v 15.11811 h 15.11811 v -15.11811 z"
         inkscape:connector-curvature="0" />
      <path
         id="path4793"
         style="fill:none;stroke:#000000"
         d="m -922.20472,230.55118 a 30.23622,30.23622 0 0 1 30.23622,-30.23622 H -30.23622 A 30.23622,30.23622 0 0 1 0,230.55118 v 861.73232 a 30.23622,30.23622 0 0 1 -30.23622,30.2362 H -891.9685 a 30.23622,30.23622 0 0 1 -30.23622,-30.2362 z"
         inkscape:connector-curvature="0" />
      <path
         id="path4795"
         style="fill:none;stroke:#000000"
         d="m -11.149606,351.49606 a 7.7480315,7.7480315 0 1 0 -15.496063,0 7.7480315,7.7480315 0 1 0 15.496063,0 z"
         inkscape:connector-curvature="0" />
      <path
         id="path4797"
         style="fill:none;stroke:#000000"
         d="m -895.55905,702.04724 a 7.748035,7.748035 0 1 0 -15.49607,0 7.748035,7.748035 0 1 0 15.49607,0 z"
         inkscape:connector-curvature="0" />
      <path
         id="path4799"
         style="fill:none;stroke:#000000"
         d="m -11.149606,971.33858 a 7.7480315,7.7480315 0 1 0 -15.496063,0 7.7480315,7.7480315 0 1 0 15.496063,0 z"
         inkscape:connector-curvature="0" />
      <path
         id="path4801"
         style="fill:none;stroke:#000000"
         d="m -887.43307,240.37795 a 6.425197,6.425197 0 1 0 -12.85039,0 6.425197,6.425197 0 1 0 12.85039,0 z"
         inkscape:connector-curvature="0" />
      <path
         id="path4803"
         style="fill:none;stroke:#000000"
         d="m -23.811024,240.37795 a 6.425197,6.425197 0 1 0 -12.850393,0 6.425197,6.425197 0 1 0 12.850393,0 z"
         inkscape:connector-curvature="0" />
      <path
         id="path4805"
         style="fill:none;stroke:#000000"
         d="m -887.43307,1079.4331 a 6.425197,6.425197 0 1 0 -12.85039,0 6.425197,6.425197 0 1 0 12.85039,0 z"
         inkscape:connector-curvature="0" />
      <path
         id="path4807"
         style="fill:none;stroke:#000000"
         d="m -23.811024,1079.4331 a 6.425197,6.425197 0 1 0 -12.850393,0 6.425197,6.425197 0 1 0 12.850393,0 z"
         inkscape:connector-curvature="0" />
    </g>
    <g
       id="g4968"
       inkscape:label="0"
       transform="matrix(-0.26458333,0,0,-0.26458333,245.22907,349.27002)">
      <path
         id="path4922"
         style="fill:none;stroke:#000000"
         d="m -850.3937,215.43307 v 15.11811 h 15.11811 v -15.11811 z"
         inkscape:connector-curvature="0" />
      <path
         id="path4924"
         style="fill:none;stroke:#000000"
         d="m -124.72441,215.43307 v 15.11811 h 15.11811 v -15.11811 z"
         inkscape:connector-curvature="0" />
      <path
         id="path4926"
         style="fill:none;stroke:#000000"
         d="m -79.370079,215.43307 v 15.11811 h 15.11811 v -15.11811 z"
         inkscape:connector-curvature="0" />
      <path
         id="path4928"
         style="fill:none;stroke:#000000"
         d="m -653.85827,215.43307 h -15.11811 v 15.11811 h 15.11811 z"
         inkscape:connector-curvature="0" />
      <path
         id="path4930"
         style="fill:none;stroke:#000000"
         d="m -245.66929,215.43307 h -15.11811 v 15.11811 h 15.11811 z"
         inkscape:connector-curvature="0" />
      <path
         id="path4932"
         style="fill:none;stroke:#000000"
         d="m -154.96063,230.55118 v -15.11811 h -15.11811 v 15.11811 z"
         inkscape:connector-curvature="0" />
      <path
         id="path4934"
         style="fill:none;stroke:#000000"
         d="m -805.03937,215.43307 v 15.11811 h 15.11811 v -15.11811 z"
         inkscape:connector-curvature="0" />
      <path
         id="path4936"
         style="fill:none;stroke:#000000"
         d="m -623.62205,230.55118 h 15.11811 v -15.11811 h -15.11811 z"
         inkscape:connector-curvature="0" />
      <path
         id="path4938"
         style="fill:none;stroke:#000000"
         d="m -563.14961,215.43307 h -15.11811 v 15.11811 h 15.11811 z"
         inkscape:connector-curvature="0" />
      <path
         id="path4940"
         style="fill:none;stroke:#000000"
         d="m -215.43307,230.55118 h 15.11811 v -15.11811 h -15.11811 z"
         inkscape:connector-curvature="0" />
      <path
         id="path4942"
         style="fill:none;stroke:#000000"
         d="m -427.08661,230.55118 v -15.11811 h -15.11811 v 15.11811 z"
         inkscape:connector-curvature="0" />
      <path
         id="path4944"
         style="fill:none;stroke:#000000"
         d="m -699.2126,230.55118 v -15.11811 h -15.11811 v 15.11811 z"
         inkscape:connector-curvature="0" />
      <path
         id="path4946"
         style="fill:none;stroke:#000000"
         d="m -472.44094,215.43307 h -15.11811 v 15.11811 h 15.11811 z"
         inkscape:connector-curvature="0" />
      <path
         id="path4948"
         style="fill:none;stroke:#000000"
         d="m -532.91339,230.55118 h 15.11811 v -15.11811 h -15.11811 z"
         inkscape:connector-curvature="0" />
      <path
         id="path4950"
         style="fill:none;stroke:#000000"
         d="m -306.14173,215.43307 v 15.11811 h 15.11811 v -15.11811 z"
         inkscape:connector-curvature="0" />
      <path
         id="path4952"
         style="fill:none;stroke:#000000"
         d="m -381.73228,215.43307 h -15.11811 v 15.11811 h 15.11811 z"
         inkscape:connector-curvature="0" />
      <path
         id="path4954"
         style="fill:none;stroke:#000000"
         d="m -744.56693,230.55118 v -15.11811 h -15.11811 v 15.11811 z"
         inkscape:connector-curvature="0" />
      <path
         id="path4956"
         style="fill:none;stroke:#000000"
         d="m -336.37795,230.55118 v -15.11811 h -15.11811 v 15.11811 z"
         inkscape:connector-curvature="0" />
      <path
         id="path4958"
         style="fill:none;stroke:#000000"
         d="M -30.23622,200.31496 A 30.23622,30.23622 0 0 1 0,230.55118 v 113.19685 h -18.897638 a 7.7480315,7.7480315 0 0 0 0,15.49606 H 0 v 604.34646 h -18.897638 a 7.7480315,7.7480315 0 0 0 0,15.49606 H 0 v 113.19689 a 30.23622,30.23622 0 0 1 -30.23622,30.2362 H -891.9685 a 30.23622,30.23622 0 0 1 -30.23622,-30.2362 V 990.74597 h 22.67716 a 7.559055,7.559055 0 0 0 7.55906,-7.55906 v -192.7559 a 7.559055,7.559055 0 0 0 -7.55906,-7.55906 h -22.67716 v -73.07667 h 18.89763 a 7.748035,7.748035 0 0 0 0,-15.49607 h -18.89763 v -80.94483 h 22.29921 a 7.937008,7.937008 0 0 0 7.93701,-7.93701 v -192 a 7.937008,7.937008 0 0 0 -7.93701,-7.937 h -22.29921 V 230.55118 a 30.23622,30.23622 0 0 1 30.23622,-30.23622 z"
         inkscape:connector-curvature="0" />
      <path
         id="path4960"
         style="fill:none;stroke:#000000"
         d="m -23.811024,1079.4331 a 6.425197,6.425197 0 1 0 -12.850393,0 6.425197,6.425197 0 1 0 12.850393,0 z"
         inkscape:connector-curvature="0" />
      <path
         id="path4962"
         style="fill:none;stroke:#000000"
         d="m -887.43307,1079.4331 a 6.425197,6.425197 0 1 0 -12.85039,0 6.425197,6.425197 0 1 0 12.85039,0 z"
         inkscape:connector-curvature="0" />
      <path
         id="path4964"
         style="fill:none;stroke:#000000"
         d="m -23.811024,240.37795 a 6.425197,6.425197 0 1 0 -12.850393,0 6.425197,6.425197 0 1 0 12.850393,0 z"
         inkscape:connector-curvature="0" />
      <path
         id="path4966"
         style="fill:none;stroke:#000000"
         d="m -887.43307,240.37795 a 6.425197,6.425197 0 1 0 -12.85039,0 6.425197,6.425197 0 1 0 12.85039,0 z"
         inkscape:connector-curvature="0" />
    </g>
  </g>
</svg>
