<?xml version="1.0" encoding="UTF-8" standalone="no"?>
<!-- Created with Inkscape (http://www.inkscape.org/) -->

<svg
   xmlns:dc="http://purl.org/dc/elements/1.1/"
   xmlns:cc="http://creativecommons.org/ns#"
   xmlns:rdf="http://www.w3.org/1999/02/22-rdf-syntax-ns#"
   xmlns:svg="http://www.w3.org/2000/svg"
   xmlns="http://www.w3.org/2000/svg"
   xmlns:sodipodi="http://sodipodi.sourceforge.net/DTD/sodipodi-0.dtd"
   xmlns:inkscape="http://www.inkscape.org/namespaces/inkscape"
   width="146mm"
   height="174mm"
   viewBox="0 0 146 174"
   version="1.1"
   id="svg8"
   inkscape:version="0.92.1 r15371"
   sodipodi:docname="cg500_bottom_plate_v1.svg">
  <defs
     id="defs2">
    <marker
       style="overflow:visible"
       refY="0"
       refX="0"
       orient="auto"
       id="DistanceX">
      <path
         id="path4487"
         style="stroke:#000000;stroke-width:0.5"
         d="M 3,-3 -3,3 M 0,-5 V 5"
         inkscape:connector-curvature="0" />
    </marker>
    <pattern
       y="0"
       x="0"
       width="8"
       patternUnits="userSpaceOnUse"
       id="Hatch"
       height="8">
      <path
         id="path4490"
         stroke-width="0.25"
         stroke="#000000"
         linecap="square"
         d="M8 4 l-4,4" />
      <path
         id="path4492"
         stroke-width="0.25"
         stroke="#000000"
         linecap="square"
         d="M6 2 l-4,4" />
      <path
         id="path4494"
         stroke-width="0.25"
         stroke="#000000"
         linecap="square"
         d="M4 0 l-4,4" />
    </pattern>
    <symbol
       id="*MODEL_SPACE" />
    <symbol
       id="*PAPER_SPACE" />
    <marker
       style="overflow:visible"
       refY="0"
       refX="0"
       orient="auto"
       id="DistanceX-4">
      <path
         id="path6486"
         style="stroke:#000000;stroke-width:0.5"
         d="M 3,-3 -3,3 M 0,-5 V 5"
         inkscape:connector-curvature="0" />
    </marker>
    <pattern
       y="0"
       x="0"
       width="8"
       patternUnits="userSpaceOnUse"
       id="Hatch-6"
       height="8">
      <path
         id="path6489"
         stroke-width="0.25"
         stroke="#000000"
         linecap="square"
         d="M8 4 l-4,4" />
      <path
         id="path6491"
         stroke-width="0.25"
         stroke="#000000"
         linecap="square"
         d="M6 2 l-4,4" />
      <path
         id="path6493"
         stroke-width="0.25"
         stroke="#000000"
         linecap="square"
         d="M4 0 l-4,4" />
    </pattern>
    <symbol
       id="*MODEL_SPACE-1" />
    <symbol
       id="*PAPER_SPACE-0" />
    <marker
       style="overflow:visible"
       refY="0.0"
       refX="0.0"
       orient="auto"
       id="DistanceX-3">
      <path
         id="path6014"
         style="stroke:#000000; stroke-width:0.5"
         d="M 3,-3 L -3,3 M 0,-5 L  0,5" />
    </marker>
    <pattern
       y="0"
       x="0"
       width="8"
       patternUnits="userSpaceOnUse"
       id="Hatch-9"
       height="8">
      <path
         id="path6017"
         stroke-width="0.25"
         stroke="#000000"
         linecap="square"
         d="M8 4 l-4,4" />
      <path
         id="path6019"
         stroke-width="0.25"
         stroke="#000000"
         linecap="square"
         d="M6 2 l-4,4" />
      <path
         id="path6021"
         stroke-width="0.25"
         stroke="#000000"
         linecap="square"
         d="M4 0 l-4,4" />
    </pattern>
    <symbol
       id="*MODEL_SPACE-5" />
    <symbol
       id="*PAPER_SPACE-9" />
  </defs>
  <sodipodi:namedview
     id="base"
     pagecolor="#ffffff"
     bordercolor="#666666"
     borderopacity="1.0"
     inkscape:pageopacity="0.0"
     inkscape:pageshadow="2"
     inkscape:zoom="0.71129962"
     inkscape:cx="425.88929"
     inkscape:cy="429.13107"
     inkscape:document-units="mm"
     inkscape:current-layer="layer1"
     showgrid="false"
     inkscape:window-width="1920"
     inkscape:window-height="1017"
     inkscape:window-x="-8"
     inkscape:window-y="-8"
     inkscape:window-maximized="1" />
  <metadata
     id="metadata5">
    <rdf:RDF>
      <cc:Work
         rdf:about="">
        <dc:format>image/svg+xml</dc:format>
        <dc:type
           rdf:resource="http://purl.org/dc/dcmitype/StillImage" />
        <dc:title />
      </cc:Work>
    </rdf:RDF>
  </metadata>
  <g
     inkscape:label="Layer 1"
     inkscape:groupmode="layer"
     id="layer1"
     transform="translate(0,-123)">
    <flowRoot
       xml:space="preserve"
       id="flowRoot4569"
       style="font-style:normal;font-weight:normal;font-size:12px;line-height:1.25;font-family:sans-serif;letter-spacing:0px;word-spacing:0px;fill:#ff0000;fill-opacity:1;stroke:none"><flowRegion
         id="flowRegion4571"
         style="font-size:12px;fill:#ff0000;fill-opacity:1"><rect
           id="rect4573"
           width="154.20671"
           height="42.13298"
           x="376.66885"
           y="1039.0964"
           style="font-size:12px;fill:#ff0000;fill-opacity:1" /></flowRegion><flowPara
         id="flowPara4575" /></flowRoot>    <g
       aria-label="CG500 Mounting Plate - v1"
       transform="matrix(0.26458333,0,0,0.26458333,-6.4312319,23.436027)"
       style="font-style:normal;font-weight:normal;font-size:16px;line-height:1.25;font-family:sans-serif;letter-spacing:0px;word-spacing:0px;fill:#ff0000;fill-opacity:1;stroke:none"
       id="flowRoot4577">
      <path
         d="m 390.47852,1026.9391 q -0.32227,0.1406 -0.58594,0.2637 -0.25781,0.123 -0.67969,0.2578 -0.35742,0.1113 -0.7793,0.1875 -0.41601,0.082 -0.91992,0.082 -0.94922,0 -1.72851,-0.2637 -0.77344,-0.2695 -1.34766,-0.8379 -0.5625,-0.5566 -0.87891,-1.4121 -0.3164,-0.8613 -0.3164,-1.998 0,-1.0781 0.30468,-1.9278 0.30469,-0.8496 0.87891,-1.4355 0.55664,-0.5684 1.3418,-0.8672 0.79101,-0.2988 1.75195,-0.2988 0.70313,0 1.40039,0.1699 0.70313,0.1699 1.5586,0.5977 v 1.3769 h -0.0879 q -0.7207,-0.6035 -1.42968,-0.8789 -0.70899,-0.2754 -1.51758,-0.2754 -0.66211,0 -1.19531,0.2168 -0.52735,0.211 -0.94336,0.6621 -0.4043,0.4395 -0.63282,1.1133 -0.22265,0.668 -0.22265,1.5469 0,0.9199 0.24609,1.582 0.25196,0.6621 0.64453,1.0781 0.41016,0.4336 0.95508,0.6446 0.55078,0.205 1.16016,0.205 0.83789,0 1.57031,-0.2871 0.73242,-0.2871 1.37109,-0.8613 h 0.082 z"
         style="font-size:12px"
         id="path4585"
         inkscape:connector-curvature="0" />
      <path
         d="m 399.4082,1026.9274 q -0.71484,0.3281 -1.56445,0.5742 -0.84375,0.2402 -1.63477,0.2402 -1.01953,0 -1.86914,-0.2812 -0.84961,-0.2813 -1.44726,-0.8438 -0.60352,-0.5683 -0.93164,-1.418 -0.32813,-0.8554 -0.32813,-1.998 0,-2.0918 1.21875,-3.2988 1.22461,-1.2129 3.35742,-1.2129 0.74414,0 1.51758,0.1816 0.7793,0.1758 1.67578,0.6035 v 1.377 h -0.10547 q -0.18164,-0.1406 -0.52734,-0.3691 -0.3457,-0.2286 -0.67969,-0.3809 -0.40429,-0.1816 -0.91992,-0.2988 -0.50976,-0.1231 -1.16015,-0.1231 -1.46485,0 -2.32032,0.9434 -0.84961,0.9375 -0.84961,2.5429 0,1.6934 0.89063,2.6368 0.89062,0.9375 2.42578,0.9375 0.5625,0 1.11914,-0.1114 0.5625,-0.1113 0.98438,-0.2871 v -2.1386 h -2.3379 v -1.0196 h 3.48633 z"
         style="font-size:12px"
         id="path4587"
         inkscape:connector-curvature="0" />
      <path
         d="m 407.04297,1024.8004 q 0,0.6094 -0.22266,1.166 -0.22265,0.5567 -0.60937,0.9375 -0.42188,0.4102 -1.00782,0.6328 -0.58007,0.2168 -1.34765,0.2168 -0.71485,0 -1.37695,-0.1523 -0.66211,-0.1465 -1.11915,-0.3574 v -1.2364 h 0.082 q 0.48046,0.3047 1.125,0.5215 0.64453,0.211 1.26562,0.211 0.41602,0 0.80274,-0.1172 0.39257,-0.1172 0.69726,-0.4102 0.25781,-0.2519 0.38672,-0.6035 0.13477,-0.3516 0.13477,-0.8144 0,-0.4512 -0.15821,-0.7618 -0.15234,-0.3105 -0.42773,-0.498 -0.30469,-0.2227 -0.74414,-0.3106 -0.4336,-0.094 -0.97266,-0.094 -0.51562,0 -0.99609,0.07 -0.47461,0.07 -0.82032,0.1406 v -4.4941 h 5.25 v 1.0254 h -4.11914 v 2.3203 q 0.25196,-0.023 0.51563,-0.035 0.26367,-0.012 0.45703,-0.012 0.70898,0 1.24219,0.1231 0.5332,0.1171 0.97851,0.4218 0.46875,0.3223 0.72657,0.8321 0.25781,0.5097 0.25781,1.2773 z"
         style="font-size:12px"
         id="path4589"
         inkscape:connector-curvature="0" />
      <path
         d="m 414.74219,1023.2067 q 0,2.3496 -0.73828,3.4511 -0.73243,1.0957 -2.2793,1.0957 -1.57031,0 -2.29688,-1.1132 -0.7207,-1.1133 -0.7207,-3.4219 0,-2.3262 0.73242,-3.4336 0.73242,-1.1133 2.28516,-1.1133 1.57031,0 2.29101,1.1309 0.72657,1.125 0.72657,3.4043 z m -1.54102,2.6601 q 0.20508,-0.4746 0.27539,-1.1133 0.0762,-0.6445 0.0762,-1.5468 0,-0.8907 -0.0762,-1.5469 -0.0703,-0.6563 -0.28125,-1.1133 -0.20508,-0.4512 -0.5625,-0.6797 -0.35156,-0.2285 -0.9082,-0.2285 -0.55078,0 -0.91406,0.2285 -0.35743,0.2285 -0.56836,0.6914 -0.19922,0.4336 -0.27539,1.1309 -0.0703,0.6972 -0.0703,1.5293 0,0.914 0.0645,1.5293 0.0645,0.6152 0.27539,1.1015 0.19336,0.4571 0.54492,0.6973 0.35742,0.2402 0.94336,0.2402 0.55078,0 0.91406,-0.2285 0.36328,-0.2285 0.5625,-0.6914 z"
         style="font-size:12px"
         id="path4591"
         inkscape:connector-curvature="0" />
      <path
         d="m 422.38281,1023.2067 q 0,2.3496 -0.73828,3.4511 -0.73242,1.0957 -2.2793,1.0957 -1.57031,0 -2.29687,-1.1132 -0.7207,-1.1133 -0.7207,-3.4219 0,-2.3262 0.73242,-3.4336 0.73242,-1.1133 2.28515,-1.1133 1.57032,0 2.29102,1.1309 0.72656,1.125 0.72656,3.4043 z m -1.54101,2.6601 q 0.20507,-0.4746 0.27539,-1.1133 0.0762,-0.6445 0.0762,-1.5468 0,-0.8907 -0.0762,-1.5469 -0.0703,-0.6563 -0.28125,-1.1133 -0.20508,-0.4512 -0.5625,-0.6797 -0.35157,-0.2285 -0.90821,-0.2285 -0.55078,0 -0.91406,0.2285 -0.35742,0.2285 -0.56836,0.6914 -0.19922,0.4336 -0.27539,1.1309 -0.0703,0.6972 -0.0703,1.5293 0,0.914 0.0645,1.5293 0.0645,0.6152 0.27539,1.1015 0.19336,0.4571 0.54492,0.6973 0.35743,0.2402 0.94336,0.2402 0.55079,0 0.91407,-0.2285 0.36328,-0.2285 0.5625,-0.6914 z"
         style="font-size:12px"
         id="path4593"
         inkscape:connector-curvature="0" />
      <path
         d="m 436.3457,1027.5719 h -1.16015 v -7.5176 l -2.42578,5.1153 h -0.69141 l -2.4082,-5.1153 v 7.5176 h -1.08399 v -8.7246 h 1.58203 l 2.32617,4.8574 2.25,-4.8574 h 1.61133 z"
         style="font-size:12px"
         id="path4595"
         inkscape:connector-curvature="0" />
      <path
         d="m 444.19141,1024.3024 q 0,1.5996 -0.82032,2.5254 -0.82031,0.9257 -2.19726,0.9257 -1.38867,0 -2.20899,-0.9257 -0.81445,-0.9258 -0.81445,-2.5254 0,-1.5996 0.81445,-2.5254 0.82032,-0.9317 2.20899,-0.9317 1.37695,0 2.19726,0.9317 0.82032,0.9258 0.82032,2.5254 z m -1.13672,0 q 0,-1.2715 -0.49805,-1.8868 -0.49805,-0.621 -1.38281,-0.621 -0.89649,0 -1.39453,0.621 -0.49219,0.6153 -0.49219,1.8868 0,1.2304 0.49805,1.8691 0.49804,0.6328 1.38867,0.6328 0.8789,0 1.37695,-0.6269 0.50391,-0.6328 0.50391,-1.875 z"
         style="font-size:12px"
         id="path4597"
         inkscape:connector-curvature="0" />
      <path
         d="m 451.32812,1027.5719 h -1.10156 v -0.7266 q -0.55664,0.4395 -1.0664,0.6739 -0.50977,0.2343 -1.125,0.2343 -1.03125,0 -1.60547,-0.6269 -0.57422,-0.6328 -0.57422,-1.8516 v -4.248 h 1.10156 v 3.7265 q 0,0.4981 0.0469,0.8555 0.0469,0.3516 0.19921,0.6035 0.15821,0.2578 0.41016,0.375 0.25195,0.1172 0.73242,0.1172 0.42774,0 0.93164,-0.2226 0.50977,-0.2227 0.94922,-0.5684 v -4.8867 h 1.10156 z"
         style="font-size:12px"
         id="path4599"
         inkscape:connector-curvature="0" />
      <path
         d="m 458.96875,1027.5719 h -1.10156 v -3.7266 q 0,-0.4511 -0.0527,-0.8437 -0.0527,-0.3985 -0.19336,-0.6211 -0.14648,-0.2461 -0.42187,-0.3633 -0.27539,-0.123 -0.71485,-0.123 -0.45117,0 -0.94335,0.2226 -0.49219,0.2227 -0.94336,0.5684 v 4.8867 h -1.10157 v -6.5449 h 1.10157 v 0.7265 q 0.51562,-0.4277 1.0664,-0.6679 0.55078,-0.2403 1.13086,-0.2403 1.06055,0 1.61719,0.6387 0.55664,0.6387 0.55664,1.8398 z"
         style="font-size:12px"
         id="path4601"
         inkscape:connector-curvature="0" />
      <path
         d="m 464.48828,1027.5133 q -0.31055,0.082 -0.67969,0.1348 -0.36328,0.053 -0.65039,0.053 -1.00195,0 -1.52343,-0.5391 -0.52149,-0.539 -0.52149,-1.7285 v -3.4804 h -0.74414 v -0.9258 h 0.74414 v -1.8809 h 1.10156 v 1.8809 h 2.27344 v 0.9258 h -2.27344 v 2.9824 q 0,0.5156 0.0234,0.8086 0.0234,0.2871 0.16406,0.539 0.12891,0.2344 0.35157,0.3457 0.22851,0.1055 0.6914,0.1055 0.26953,0 0.5625,-0.076 0.29297,-0.082 0.42188,-0.1347 h 0.0586 z"
         style="font-size:12px"
         id="path4603"
         inkscape:connector-curvature="0" />
      <path
         d="m 467.00781,1019.9313 h -1.24219 v -1.1426 h 1.24219 z m -0.0703,7.6406 h -1.10156 v -6.5449 h 1.10156 z"
         style="font-size:12px"
         id="path4605"
         inkscape:connector-curvature="0" />
      <path
         d="m 474.55469,1027.5719 h -1.10157 v -3.7266 q 0,-0.4511 -0.0527,-0.8437 -0.0527,-0.3985 -0.19336,-0.6211 -0.14648,-0.2461 -0.42187,-0.3633 -0.27539,-0.123 -0.71485,-0.123 -0.45117,0 -0.94336,0.2226 -0.49218,0.2227 -0.94336,0.5684 v 4.8867 h -1.10156 v -6.5449 h 1.10156 v 0.7265 q 0.51563,-0.4277 1.06641,-0.6679 0.55078,-0.2403 1.13086,-0.2403 1.06055,0 1.61719,0.6387 0.55664,0.6387 0.55664,1.8398 z"
         style="font-size:12px"
         id="path4607"
         inkscape:connector-curvature="0" />
      <path
         d="m 481.98437,1026.8278 q 0,1.664 -0.75585,2.4433 -0.75586,0.7793 -2.32618,0.7793 -0.52148,0 -1.01953,-0.076 -0.49219,-0.07 -0.97265,-0.205 v -1.125 h 0.0586 q 0.26953,0.1054 0.85547,0.2578 0.58594,0.1582 1.17187,0.1582 0.5625,0 0.93164,-0.1348 0.36914,-0.1348 0.57422,-0.375 0.20508,-0.2285 0.29297,-0.5508 0.0879,-0.3222 0.0879,-0.7207 v -0.5976 q -0.49804,0.3984 -0.95508,0.5976 -0.45117,0.1934 -1.15429,0.1934 -1.17188,0 -1.86328,-0.8438 -0.68555,-0.8496 -0.68555,-2.3906 0,-0.8437 0.23437,-1.4531 0.24024,-0.6152 0.65039,-1.0606 0.38086,-0.416 0.92579,-0.6445 0.54492,-0.2344 1.08398,-0.2344 0.56836,0 0.94922,0.1172 0.38672,0.1113 0.81445,0.3457 l 0.0703,-0.2812 h 1.03125 z m -1.10156,-1.0547 v -3.5684 q -0.43945,-0.1992 -0.82031,-0.2812 -0.375,-0.088 -0.75,-0.088 -0.9082,0 -1.42969,0.6093 -0.52148,0.6094 -0.52148,1.7696 0,1.1015 0.38672,1.6699 0.38672,0.5684 1.2832,0.5684 0.48047,0 0.96094,-0.1817 0.48633,-0.1875 0.89062,-0.498 z"
         style="font-size:12px"
         id="path4609"
         inkscape:connector-curvature="0" />
      <path
         d="m 494.16602,1021.484 q 0,0.5801 -0.20508,1.0781 -0.19922,0.4922 -0.5625,0.8555 -0.45117,0.4512 -1.06641,0.6797 -0.61523,0.2226 -1.55273,0.2226 h -1.16016 v 3.252 h -1.16016 v -8.7246 h 2.36719 q 0.78516,0 1.33008,0.1348 0.54492,0.1289 0.9668,0.4101 0.49804,0.334 0.76757,0.832 0.2754,0.4981 0.2754,1.2598 z m -1.20704,0.029 q 0,-0.4512 -0.1582,-0.7852 -0.1582,-0.3339 -0.48047,-0.5449 -0.28125,-0.1816 -0.64453,-0.2578 -0.35742,-0.082 -0.9082,-0.082 h -1.14844 v 3.4863 h 0.97852 q 0.70312,0 1.14257,-0.123 0.43946,-0.1289 0.71485,-0.4043 0.27539,-0.2813 0.38672,-0.5918 0.11718,-0.3106 0.11718,-0.6973 z"
         style="font-size:12px"
         id="path4611"
         inkscape:connector-curvature="0" />
      <path
         d="M 496.72656,1027.5719 H 495.625 v -9.1172 h 1.10156 z"
         style="font-size:12px"
         id="path4613"
         inkscape:connector-curvature="0" />
      <path
         d="m 503.95703,1027.5719 h -1.0957 v -0.6973 q -0.14649,0.1 -0.39844,0.2813 -0.24609,0.1758 -0.48047,0.2812 -0.27539,0.1348 -0.63281,0.2227 -0.35742,0.094 -0.83789,0.094 -0.88477,0 -1.5,-0.5859 -0.61524,-0.5859 -0.61524,-1.4941 0,-0.7442 0.31641,-1.2012 0.32227,-0.4629 0.91406,-0.7266 0.59766,-0.2636 1.43555,-0.3574 0.83789,-0.094 1.79883,-0.1406 v -0.1699 q 0,-0.375 -0.13477,-0.6211 -0.1289,-0.2461 -0.375,-0.3868 -0.23437,-0.1347 -0.5625,-0.1816 -0.32812,-0.047 -0.68554,-0.047 -0.4336,0 -0.9668,0.1172 -0.5332,0.1113 -1.10156,0.3281 h -0.0586 v -1.1191 q 0.32227,-0.088 0.93164,-0.1934 0.60938,-0.1054 1.20117,-0.1054 0.69141,0 1.20118,0.1172 0.51562,0.1113 0.89062,0.3867 0.36914,0.2695 0.5625,0.6972 0.19336,0.4278 0.19336,1.0606 z m -1.0957,-1.6113 v -1.8223 q -0.50391,0.029 -1.18946,0.088 -0.67968,0.059 -1.07812,0.1699 -0.47461,0.1348 -0.76758,0.4219 -0.29297,0.2812 -0.29297,0.7793 0,0.5625 0.33985,0.8496 0.33984,0.2812 1.03711,0.2812 0.58007,0 1.06054,-0.2226 0.48047,-0.2285 0.89063,-0.5449 z"
         style="font-size:12px"
         id="path4615"
         inkscape:connector-curvature="0" />
      <path
         d="m 509.48828,1027.5133 q -0.31055,0.082 -0.67969,0.1348 -0.36328,0.053 -0.65039,0.053 -1.00195,0 -1.52343,-0.5391 -0.52149,-0.539 -0.52149,-1.7285 v -3.4804 h -0.74414 v -0.9258 h 0.74414 v -1.8809 h 1.10156 v 1.8809 h 2.27344 v 0.9258 h -2.27344 v 2.9824 q 0,0.5156 0.0234,0.8086 0.0234,0.2871 0.16406,0.539 0.12891,0.2344 0.35157,0.3457 0.22851,0.1055 0.6914,0.1055 0.26953,0 0.5625,-0.076 0.29297,-0.082 0.42188,-0.1347 h 0.0586 z"
         style="font-size:12px"
         id="path4617"
         inkscape:connector-curvature="0" />
      <path
         d="m 516.30273,1024.4137 h -4.82226 q 0,0.6035 0.18164,1.0547 0.18164,0.4453 0.49805,0.7324 0.30468,0.2813 0.7207,0.4219 0.42187,0.1406 0.92578,0.1406 0.66797,0 1.3418,-0.2637 0.67968,-0.2695 0.96679,-0.5273 h 0.0586 v 1.2012 q -0.55664,0.2343 -1.13672,0.3925 -0.58008,0.1582 -1.21875,0.1582 -1.62891,0 -2.54297,-0.8789 -0.91406,-0.8847 -0.91406,-2.5078 0,-1.6054 0.87304,-2.5488 0.87891,-0.9434 2.3086,-0.9434 1.32422,0 2.03906,0.7735 0.7207,0.7734 0.7207,2.1972 z m -1.07226,-0.8438 q -0.006,-0.8671 -0.43945,-1.3418 -0.42774,-0.4746 -1.30665,-0.4746 -0.88476,0 -1.4121,0.5215 -0.52149,0.5215 -0.5918,1.2949 z"
         style="font-size:12px"
         id="path4619"
         inkscape:connector-curvature="0" />
      <path
         d="m 525.66016,1024.2848 h -3.65625 v -1.0606 h 3.65625 z"
         style="font-size:12px"
         id="path4621"
         inkscape:connector-curvature="0" />
      <path
         d="m 537.53125,1021.027 -2.64844,6.5449 h -1.10742 l -2.63086,-6.5449 h 1.19531 l 2.02735,5.209 2.00976,-5.209 z"
         style="font-size:12px"
         id="path4623"
         inkscape:connector-curvature="0" />
      <path
         d="m 544.24023,1027.5719 h -4.72265 v -0.8906 h 1.8164 v -5.8477 h -1.8164 v -0.7969 q 0.36914,0 0.79101,-0.059 0.42188,-0.064 0.63868,-0.1816 0.26953,-0.1465 0.42187,-0.3691 0.1582,-0.2286 0.18164,-0.6094 h 0.9082 v 7.8633 h 1.78125 z"
         style="font-size:12px"
         id="path4625"
         inkscape:connector-curvature="0" />
    </g>
    <rect
       style="fill:none;fill-opacity:1;stroke:#32ff00;stroke-width:0.4330149;stroke-miterlimit:4;stroke-dasharray:none;stroke-dashoffset:0;stroke-opacity:1"
       id="rect6576"
       width="144.60577"
       height="173.20886"
       x="0.33358756"
       y="123.6714"
       ry="0" />
    <g
       id="g6058"
       inkscape:label="0"
       transform="matrix(0.26458333,0,0,0.26458333,0.93619707,-172.74084)">
      <path
         id="path6028"
         style="fill:none;stroke:#000000"
         d="M 497.04567,1122.5197 H 45.354331 A 45.354331,45.354331 0 0 0 0,1167.874 v 582.3685 a 22.677165,22.677165 0 0 0 22.677165,22.6772 H 519.72284 A 22.677165,22.677165 0 0 0 542.4,1750.2425 V 1167.874 a 45.354331,45.354331 0 0 0 -45.35433,-45.3543 z"
         inkscape:connector-curvature="0" />
      <path
         id="path6030"
         style="fill:none;stroke:#000000"
         d="m 85.795276,1154.6958 a 6.425197,6.425197 0 1 0 -12.850394,0 6.425197,6.425197 0 1 0 12.850394,0 z"
         inkscape:connector-curvature="0" />
      <path
         id="path6032"
         style="fill:none;stroke:#000000"
         d="m 469.79528,1154.6958 a 6.4252,6.4252 0 1 0 -12.8504,0 6.4252,6.4252 0 1 0 12.8504,0 z"
         inkscape:connector-curvature="0" />
      <path
         id="path6034"
         style="fill:none;stroke:#000000"
         d="m 85.795276,1730.6958 a 6.425197,6.425197 0 1 0 -12.850394,0 6.425197,6.425197 0 1 0 12.850394,0 z"
         inkscape:connector-curvature="0" />
      <path
         id="path6036"
         style="fill:none;stroke:#000000"
         d="m 493.79528,1754.6958 a 6.4252,6.4252 0 1 0 -12.8504,0 6.4252,6.4252 0 1 0 12.8504,0 z"
         inkscape:connector-curvature="0" />
      <path
         id="path6038"
         style="fill:none;stroke:#000000"
         d="m 62.625262,1742.6835 h -15.11811 v 15.1181 h 15.11811 z"
         inkscape:connector-curvature="0" />
      <path
         id="path6040"
         style="fill:none;stroke:#000000"
         d="M 107.97959,1742.6835 H 92.861483 v 15.1181 h 15.118107 z"
         inkscape:connector-curvature="0" />
      <path
         id="path6042"
         style="fill:none;stroke:#000000"
         d="m 153.33392,1742.6835 h -15.11811 v 15.1181 h 15.11811 z"
         inkscape:connector-curvature="0" />
      <path
         id="path6044"
         style="fill:none;stroke:#000000"
         d="m 198.68825,1742.6835 h -15.11811 v 15.1181 h 15.11811 z"
         inkscape:connector-curvature="0" />
      <path
         id="path6046"
         style="fill:none;stroke:#000000"
         d="m 244.04258,1742.6835 h -15.11811 v 15.1181 h 15.11811 z"
         inkscape:connector-curvature="0" />
      <path
         id="path6048"
         style="fill:none;stroke:#000000"
         d="m 289.39692,1742.6835 h -15.11811 v 15.1181 h 15.11811 z"
         inkscape:connector-curvature="0" />
      <path
         id="path6050"
         style="fill:none;stroke:#000000"
         d="m 334.75125,1742.6835 h -15.11811 v 15.1181 h 15.11811 z"
         inkscape:connector-curvature="0" />
      <path
         id="path6052"
         style="fill:none;stroke:#000000"
         d="m 380.10558,1742.6835 h -15.11811 v 15.1181 h 15.11811 z"
         inkscape:connector-curvature="0" />
      <path
         id="path6054"
         style="fill:none;stroke:#000000"
         d="M 425.45991,1742.6835 H 410.3418 v 15.1181 h 15.11811 z"
         inkscape:connector-curvature="0" />
      <path
         id="path6056"
         style="fill:none;stroke:#000000"
         d="m 470.81424,1742.6835 h -15.11811 v 15.1181 h 15.11811 z"
         inkscape:connector-curvature="0" />
    </g>
  </g>
</svg>
