<?xml version="1.0" encoding="UTF-8" standalone="no"?>
<!-- Created with Inkscape (http://www.inkscape.org/) -->

<svg
   xmlns:dc="http://purl.org/dc/elements/1.1/"
   xmlns:cc="http://creativecommons.org/ns#"
   xmlns:rdf="http://www.w3.org/1999/02/22-rdf-syntax-ns#"
   xmlns:svg="http://www.w3.org/2000/svg"
   xmlns="http://www.w3.org/2000/svg"
   xmlns:sodipodi="http://sodipodi.sourceforge.net/DTD/sodipodi-0.dtd"
   xmlns:inkscape="http://www.inkscape.org/namespaces/inkscape"
   width="400mm"
   height="300mm"
   viewBox="0 0 400 300"
   version="1.1"
   id="svg8"
   inkscape:version="0.92.1 r15371"
   sodipodi:docname="compact_case_noholes_4-6thick_v2.svg">
  <defs
     id="defs2">
    <marker
       style="overflow:visible"
       refY="0"
       refX="0"
       orient="auto"
       id="DistanceX">
      <path
         id="path4487"
         style="stroke:#000000;stroke-width:0.5"
         d="M 3,-3 -3,3 M 0,-5 V 5"
         inkscape:connector-curvature="0" />
    </marker>
    <pattern
       y="0"
       x="0"
       width="8"
       patternUnits="userSpaceOnUse"
       id="Hatch"
       height="8">
      <path
         id="path4490"
         stroke-width="0.25"
         stroke="#000000"
         linecap="square"
         d="M8 4 l-4,4" />
      <path
         id="path4492"
         stroke-width="0.25"
         stroke="#000000"
         linecap="square"
         d="M6 2 l-4,4" />
      <path
         id="path4494"
         stroke-width="0.25"
         stroke="#000000"
         linecap="square"
         d="M4 0 l-4,4" />
    </pattern>
    <symbol
       id="*MODEL_SPACE" />
    <symbol
       id="*PAPER_SPACE" />
    <marker
       style="overflow:visible"
       refY="0"
       refX="0"
       orient="auto"
       id="DistanceX-8">
      <path
         id="path4532"
         style="stroke:#000000;stroke-width:0.5"
         d="M 3,-3 -3,3 M 0,-5 V 5"
         inkscape:connector-curvature="0" />
    </marker>
    <pattern
       y="0"
       x="0"
       width="8"
       patternUnits="userSpaceOnUse"
       id="Hatch-6"
       height="8">
      <path
         id="path4535"
         stroke-width="0.25"
         stroke="#000000"
         linecap="square"
         d="M8 4 l-4,4" />
      <path
         id="path4537"
         stroke-width="0.25"
         stroke="#000000"
         linecap="square"
         d="M6 2 l-4,4" />
      <path
         id="path4539"
         stroke-width="0.25"
         stroke="#000000"
         linecap="square"
         d="M4 0 l-4,4" />
    </pattern>
    <symbol
       id="*MODEL_SPACE-2" />
    <symbol
       id="*PAPER_SPACE-4" />
    <marker
       style="overflow:visible"
       refY="0"
       refX="0"
       orient="auto"
       id="DistanceX-0">
      <path
         id="path4592"
         style="stroke:#000000;stroke-width:0.5"
         d="M 3,-3 -3,3 M 0,-5 V 5"
         inkscape:connector-curvature="0" />
    </marker>
    <pattern
       y="0"
       x="0"
       width="8"
       patternUnits="userSpaceOnUse"
       id="Hatch-64"
       height="8">
      <path
         id="path4595"
         stroke-width="0.25"
         stroke="#000000"
         linecap="square"
         d="M8 4 l-4,4" />
      <path
         id="path4597"
         stroke-width="0.25"
         stroke="#000000"
         linecap="square"
         d="M6 2 l-4,4" />
      <path
         id="path4599"
         stroke-width="0.25"
         stroke="#000000"
         linecap="square"
         d="M4 0 l-4,4" />
    </pattern>
    <symbol
       id="*MODEL_SPACE-9" />
    <symbol
       id="*PAPER_SPACE-2" />
    <marker
       style="overflow:visible"
       refY="0"
       refX="0"
       orient="auto"
       id="DistanceX-3">
      <path
         id="path4673"
         style="stroke:#000000;stroke-width:0.5"
         d="M 3,-3 -3,3 M 0,-5 V 5"
         inkscape:connector-curvature="0" />
    </marker>
    <pattern
       y="0"
       x="0"
       width="8"
       patternUnits="userSpaceOnUse"
       id="Hatch-7"
       height="8">
      <path
         id="path4676"
         stroke-width="0.25"
         stroke="#000000"
         linecap="square"
         d="M8 4 l-4,4" />
      <path
         id="path4678"
         stroke-width="0.25"
         stroke="#000000"
         linecap="square"
         d="M6 2 l-4,4" />
      <path
         id="path4680"
         stroke-width="0.25"
         stroke="#000000"
         linecap="square"
         d="M4 0 l-4,4" />
    </pattern>
    <symbol
       id="*MODEL_SPACE-3" />
    <symbol
       id="*PAPER_SPACE-45" />
    <marker
       style="overflow:visible"
       refY="0"
       refX="0"
       orient="auto"
       id="DistanceX-9">
      <path
         id="path4769"
         style="stroke:#000000;stroke-width:0.5"
         d="M 3,-3 -3,3 M 0,-5 V 5"
         inkscape:connector-curvature="0" />
    </marker>
    <pattern
       y="0"
       x="0"
       width="8"
       patternUnits="userSpaceOnUse"
       id="Hatch-5"
       height="8">
      <path
         id="path4772"
         stroke-width="0.25"
         stroke="#000000"
         linecap="square"
         d="M8 4 l-4,4" />
      <path
         id="path4774"
         stroke-width="0.25"
         stroke="#000000"
         linecap="square"
         d="M6 2 l-4,4" />
      <path
         id="path4776"
         stroke-width="0.25"
         stroke="#000000"
         linecap="square"
         d="M4 0 l-4,4" />
    </pattern>
    <symbol
       id="*MODEL_SPACE-7" />
    <symbol
       id="*PAPER_SPACE-5" />
    <marker
       style="overflow:visible"
       refY="0"
       refX="0"
       orient="auto"
       id="DistanceX-7">
      <path
         id="path4871"
         style="stroke:#000000;stroke-width:0.5"
         d="M 3,-3 -3,3 M 0,-5 V 5"
         inkscape:connector-curvature="0" />
    </marker>
    <pattern
       y="0"
       x="0"
       width="8"
       patternUnits="userSpaceOnUse"
       id="Hatch-4"
       height="8">
      <path
         id="path4874"
         stroke-width="0.25"
         stroke="#000000"
         linecap="square"
         d="M8 4 l-4,4" />
      <path
         id="path4876"
         stroke-width="0.25"
         stroke="#000000"
         linecap="square"
         d="M6 2 l-4,4" />
      <path
         id="path4878"
         stroke-width="0.25"
         stroke="#000000"
         linecap="square"
         d="M4 0 l-4,4" />
    </pattern>
    <symbol
       id="*MODEL_SPACE-6" />
    <symbol
       id="*PAPER_SPACE-7" />
    <marker
       style="overflow:visible"
       refY="0"
       refX="0"
       orient="auto"
       id="DistanceX-4">
      <path
         id="path4979"
         style="stroke:#000000;stroke-width:0.5"
         d="M 3,-3 -3,3 M 0,-5 V 5"
         inkscape:connector-curvature="0" />
    </marker>
    <pattern
       y="0"
       x="0"
       width="8"
       patternUnits="userSpaceOnUse"
       id="Hatch-79"
       height="8">
      <path
         id="path4982"
         stroke-width="0.25"
         stroke="#000000"
         linecap="square"
         d="M8 4 l-4,4" />
      <path
         id="path4984"
         stroke-width="0.25"
         stroke="#000000"
         linecap="square"
         d="M6 2 l-4,4" />
      <path
         id="path4986"
         stroke-width="0.25"
         stroke="#000000"
         linecap="square"
         d="M4 0 l-4,4" />
    </pattern>
    <symbol
       id="*MODEL_SPACE-8" />
    <symbol
       id="*PAPER_SPACE-52" />
    <marker
       style="overflow:visible"
       refY="0"
       refX="0"
       orient="auto"
       id="DistanceX-91">
      <path
         id="path4629"
         style="stroke:#000000;stroke-width:0.5"
         d="M 3,-3 -3,3 M 0,-5 V 5"
         inkscape:connector-curvature="0" />
    </marker>
    <pattern
       y="0"
       x="0"
       width="8"
       patternUnits="userSpaceOnUse"
       id="Hatch-62"
       height="8">
      <path
         id="path4632"
         stroke-width="0.25"
         stroke="#000000"
         linecap="square"
         d="M8 4 l-4,4" />
      <path
         id="path4634"
         stroke-width="0.25"
         stroke="#000000"
         linecap="square"
         d="M6 2 l-4,4" />
      <path
         id="path4636"
         stroke-width="0.25"
         stroke="#000000"
         linecap="square"
         d="M4 0 l-4,4" />
    </pattern>
    <symbol
       id="*MODEL_SPACE-0" />
    <symbol
       id="*PAPER_SPACE-1" />
    <marker
       style="overflow:visible"
       refY="0"
       refX="0"
       orient="auto"
       id="DistanceX-37">
      <path
         id="path4692"
         style="stroke:#000000;stroke-width:0.5"
         d="M 3,-3 -3,3 M 0,-5 V 5"
         inkscape:connector-curvature="0" />
    </marker>
    <pattern
       y="0"
       x="0"
       width="8"
       patternUnits="userSpaceOnUse"
       id="Hatch-1"
       height="8">
      <path
         id="path4695"
         stroke-width="0.25"
         stroke="#000000"
         linecap="square"
         d="M8 4 l-4,4" />
      <path
         id="path4697"
         stroke-width="0.25"
         stroke="#000000"
         linecap="square"
         d="M6 2 l-4,4" />
      <path
         id="path4699"
         stroke-width="0.25"
         stroke="#000000"
         linecap="square"
         d="M4 0 l-4,4" />
    </pattern>
    <symbol
       id="*MODEL_SPACE-4" />
    <symbol
       id="*PAPER_SPACE-8" />
    <marker
       style="overflow:visible"
       refY="0"
       refX="0"
       orient="auto"
       id="DistanceX-1">
      <path
         id="path4740"
         style="stroke:#000000;stroke-width:0.5"
         d="M 3,-3 -3,3 M 0,-5 V 5"
         inkscape:connector-curvature="0" />
    </marker>
    <pattern
       y="0"
       x="0"
       width="8"
       patternUnits="userSpaceOnUse"
       id="Hatch-43"
       height="8">
      <path
         id="path4743"
         stroke-width="0.25"
         stroke="#000000"
         linecap="square"
         d="M8 4 l-4,4" />
      <path
         id="path4745"
         stroke-width="0.25"
         stroke="#000000"
         linecap="square"
         d="M6 2 l-4,4" />
      <path
         id="path4747"
         stroke-width="0.25"
         stroke="#000000"
         linecap="square"
         d="M4 0 l-4,4" />
    </pattern>
    <symbol
       id="*MODEL_SPACE-81" />
    <symbol
       id="*PAPER_SPACE-3" />
    <marker
       style="overflow:visible"
       refY="0"
       refX="0"
       orient="auto"
       id="DistanceX-2">
      <path
         id="path4779"
         style="stroke:#000000;stroke-width:0.5"
         d="M 3,-3 -3,3 M 0,-5 V 5"
         inkscape:connector-curvature="0" />
    </marker>
    <pattern
       y="0"
       x="0"
       width="8"
       patternUnits="userSpaceOnUse"
       id="Hatch-8"
       height="8">
      <path
         id="path4782"
         stroke-width="0.25"
         stroke="#000000"
         linecap="square"
         d="M8 4 l-4,4" />
      <path
         id="path4784"
         stroke-width="0.25"
         stroke="#000000"
         linecap="square"
         d="M6 2 l-4,4" />
      <path
         id="path4786"
         stroke-width="0.25"
         stroke="#000000"
         linecap="square"
         d="M4 0 l-4,4" />
    </pattern>
    <symbol
       id="*MODEL_SPACE-39" />
    <symbol
       id="*PAPER_SPACE-17" />
    <marker
       style="overflow:visible"
       refY="0"
       refX="0"
       orient="auto"
       id="DistanceX-24">
      <path
         id="path4863"
         style="stroke:#000000;stroke-width:0.5"
         d="M 3,-3 -3,3 M 0,-5 V 5"
         inkscape:connector-curvature="0" />
    </marker>
    <pattern
       y="0"
       x="0"
       width="8"
       patternUnits="userSpaceOnUse"
       id="Hatch-54"
       height="8">
      <path
         id="path4866"
         stroke-width="0.25"
         stroke="#000000"
         linecap="square"
         d="M8 4 l-4,4" />
      <path
         id="path4868"
         stroke-width="0.25"
         stroke="#000000"
         linecap="square"
         d="M6 2 l-4,4" />
      <path
         id="path4870"
         stroke-width="0.25"
         stroke="#000000"
         linecap="square"
         d="M4 0 l-4,4" />
    </pattern>
    <symbol
       id="*MODEL_SPACE-99" />
    <symbol
       id="*PAPER_SPACE-9" />
    <marker
       style="overflow:visible"
       refY="0"
       refX="0"
       orient="auto"
       id="DistanceX-96">
      <path
         id="path4935"
         style="stroke:#000000;stroke-width:0.5"
         d="M 3,-3 -3,3 M 0,-5 V 5"
         inkscape:connector-curvature="0" />
    </marker>
    <pattern
       y="0"
       x="0"
       width="8"
       patternUnits="userSpaceOnUse"
       id="Hatch-2"
       height="8">
      <path
         id="path4938"
         stroke-width="0.25"
         stroke="#000000"
         linecap="square"
         d="M8 4 l-4,4" />
      <path
         id="path4940"
         stroke-width="0.25"
         stroke="#000000"
         linecap="square"
         d="M6 2 l-4,4" />
      <path
         id="path4942"
         stroke-width="0.25"
         stroke="#000000"
         linecap="square"
         d="M4 0 l-4,4" />
    </pattern>
    <symbol
       id="*MODEL_SPACE-69" />
    <symbol
       id="*PAPER_SPACE-42" />
  </defs>
  <sodipodi:namedview
     id="base"
     pagecolor="#ffffff"
     bordercolor="#666666"
     borderopacity="1.0"
     inkscape:pageopacity="0.0"
     inkscape:pageshadow="2"
     inkscape:zoom="0.57421875"
     inkscape:cx="695.68957"
     inkscape:cy="561.89386"
     inkscape:document-units="mm"
     inkscape:current-layer="layer2"
     showgrid="false"
     inkscape:window-width="1920"
     inkscape:window-height="1017"
     inkscape:window-x="-8"
     inkscape:window-y="-8"
     inkscape:window-maximized="1"
     showguides="false"
     inkscape:measure-start="1377.5,682.209"
     inkscape:measure-end="1377.35,780.723" />
  <metadata
     id="metadata5">
    <rdf:RDF>
      <cc:Work
         rdf:about="">
        <dc:format>image/svg+xml</dc:format>
        <dc:type
           rdf:resource="http://purl.org/dc/dcmitype/StillImage" />
        <dc:title></dc:title>
      </cc:Work>
    </rdf:RDF>
  </metadata>
  <g
     inkscape:groupmode="layer"
     id="layer2"
     inkscape:label="Construction Lines"
     transform="translate(0,1)">
    <rect
       transform="translate(0,2)"
       style="fill:none;fill-opacity:1;stroke:#00ff00;stroke-width:0.5;stroke-miterlimit:4;stroke-dasharray:none;stroke-dashoffset:0;stroke-opacity:1"
       id="rect5624"
       width="400"
       height="300"
       x="0.25"
       y="-3.25" />
    <path
       style="fill:none;stroke:#00ff00;stroke-width:0.23146218px;stroke-linecap:butt;stroke-linejoin:miter;stroke-opacity:1"
       d="m 303.08084,92.427444 c 75,0 75,0 75,0 v 0"
       id="path5628"
       inkscape:connector-curvature="0" />
  </g>
  <g
     inkscape:label="Layer 1"
     inkscape:groupmode="layer"
     id="layer1"
     transform="translate(0,3)">
    <g
       id="g4663"
       inkscape:label="0"
       transform="matrix(0.26458333,0,0,0.26458333,281.19062,-180.696)">
      <path
         id="path4643"
         style="fill:none;stroke:#000000"
         d="m -249.44882,1062.0472 v -15.1181 h -15.11811 v 15.1181 z"
         inkscape:connector-curvature="0" />
      <path
         id="path4645"
         style="fill:none;stroke:#000000"
         d="m -249.44882,1001.5748 h -15.11811 v 15.1181 h 15.11811 z"
         inkscape:connector-curvature="0" />
      <path
         id="path4647"
         style="fill:none;stroke:#000000"
         d="m -249.44882,956.22047 h -15.11811 v 15.11811 h 15.11811 z"
         inkscape:connector-curvature="0" />
      <path
         id="path4649"
         style="fill:none;stroke:#000000"
         d="m -249.44882,925.98425 v -15.11811 h -15.11811 v 15.11811 z"
         inkscape:connector-curvature="0" />
      <path
         id="path4651"
         style="fill:none;stroke:#000000"
         d="m -249.44882,880.62992 v -15.11811 h -15.11811 v 15.11811 z"
         inkscape:connector-curvature="0" />
      <path
         id="path4653"
         style="fill:none;stroke:#000000"
         d="m -249.44882,816.37795 h -15.11811 v 15.11811 h 15.11811 z"
         inkscape:connector-curvature="0" />
      <path
         id="path4655"
         style="fill:none;stroke:#000000"
         d="m -264.56693,771.02362 v 15.11811 h 15.11811 v -15.11811 z"
         inkscape:connector-curvature="0" />
      <path
         id="path4657"
         style="fill:none;stroke:#000000"
         d="m -249.44882,725.66929 h -15.11811 v 15.11811 h 15.11811 z"
         inkscape:connector-curvature="0" />
      <path
         id="path4659"
         style="fill:none;stroke:#000000"
         d="m -1009.1339,890.07874 v 18.89764 h 11.33862 v -18.89764 z"
         inkscape:connector-curvature="0" />
      <path
         id="path4661"
         style="fill:none;stroke:#000000"
         d="m -170.07874,1122.5197 h -850.39366 v -56.6929 h -37.7953 V 952.44095 h 37.7953 V 846.61417 h -37.7953 V 733.22835 h 37.7953 v -56.69292 h 850.39366 v 37.79528 h 56.69291 v -37.79528 h 56.692917 l -2e-6,94.48819 H -234.33071 v 257.00788 h 177.637795 v 94.4882 h -56.692915 v -37.7953 h -56.69291 z"
         inkscape:connector-curvature="0" />
    </g>
    <g
       id="g4716"
       inkscape:label="0"
       transform="matrix(0.26458333,0,0,0.26458333,281.19062,-62.695974)">
      <path
         id="path4706"
         style="fill:none;stroke:#000000"
         d="m -1005.3543,1103.622 h 11.33854 v -18.8976 h -11.33854 z"
         inkscape:connector-curvature="0" />
      <path
         id="path4708"
         style="fill:none;stroke:#000000"
         d="m -997.79528,695.43307 h -11.33862 v 18.89764 h 11.33862 z"
         inkscape:connector-curvature="0" />
      <path
         id="path4710"
         style="fill:none;stroke:#000000"
         d="m -113.38583,1084.7244 h -56.69291 v 37.7953 h -850.39366 v -56.6929 h -37.7953 V 952.44095 h 37.7953 V 846.61417 h -37.7953 V 733.22835 h 37.7953 v -56.69292 h 850.39366 v 37.79528 h 56.69291 v -37.79528 h 56.692917 v 37.79528 H 0 v 370.39369 h -56.692913 v 37.7953 h -56.692917 z"
         inkscape:connector-curvature="0" />
      <path
         id="path4712"
         style="fill:none;stroke:#000000"
         d="m -37.795278,1065.8268 h 15.118111 v -15.1181 h -15.118111 z"
         inkscape:connector-curvature="0" />
      <path
         id="path4714"
         style="fill:none;stroke:#000000"
         d="m -36.34633,748.34646 h 15.11811 v -15.11811 h -15.11811 z"
         inkscape:connector-curvature="0" />
    </g>
    <g
       id="g4758"
       inkscape:label="0"
       transform="matrix(0.26458333,0,0,0.26458333,398.90993,-202.01921)">
      <path
         id="path4754"
         style="fill:none;stroke:#000000"
         d="m -222.99213,1203.137 h -211.65354 a 11.338583,11.338583 0 0 1 -11.33858,-11.3386 v -37.7952 h 37.79527 v -56.693 h -37.79527 v -56.6929 h 37.79527 v -56.69289 h -37.79527 V 927.2315 h 37.79527 v -56.69292 h -37.79527 v -56.69291 h 37.79527 v -56.69291 h 370.393704 v 56.69291 H 0 v 56.69291 H -37.795276 V 927.2315 H 0 v 56.69291 h -37.795276 v 56.69289 H 0 v 56.6929 h -37.795276 v 56.693 H 0 v 37.7952 a 11.338583,11.338583 0 0 1 -11.338583,11.3386 z"
         inkscape:connector-curvature="0" />
      <path
         id="path4756"
         style="fill:none;stroke:#000000"
         d="m -182.68346,1162.8283 a 40.308665,40.308665 0 1 0 -80.61733,0 40.308665,40.308665 0 1 0 80.61733,0 z"
         inkscape:connector-curvature="0" />
    </g>
    <g
       id="g4827"
       inkscape:label="0"
       transform="matrix(0.26458333,0,0,0.26458333,399.19062,-83.788475)">
      <path
         id="path4793"
         style="fill:none;stroke:#000000"
         d="m -427.08661,1139.644 h 18.89763 v -11.3385 h -18.89763 z"
         inkscape:connector-curvature="0" />
      <path
         id="path4795"
         style="fill:none;stroke:#000000"
         d="m -427.08661,1088.6204 v 11.3386 h 18.89763 v -11.3386 z"
         inkscape:connector-curvature="0" />
      <path
         id="path4797"
         style="fill:none;stroke:#000000"
         d="m -37.795276,1128.3055 v 11.3385 h 18.897638 v -11.3385 z"
         inkscape:connector-curvature="0" />
      <path
         id="path4799"
         style="fill:none;stroke:#000000"
         d="m -37.795276,1086.7307 v 11.3385 h 18.897638 v -11.3385 z"
         inkscape:connector-curvature="0" />
      <path
         id="path4801"
         style="fill:none;stroke:#000000"
         d="m -232.44094,999.68504 h 18.89763 v -11.33858 h -18.89763 z"
         inkscape:connector-curvature="0" />
      <path
         id="path4803"
         style="fill:none;stroke:#000000"
         d="m -213.54331,942.99213 v -11.33859 h -18.89763 v 11.33859 z"
         inkscape:connector-curvature="0" />
      <path
         id="path4805"
         style="fill:none;stroke:#000000"
         d="m -232.44094,891.9685 h 18.89763 v -11.33858 h -18.89763 z"
         inkscape:connector-curvature="0" />
      <path
         id="path4807"
         style="fill:none;stroke:#000000"
         d="M -56.692913,959.24409 H -170.07874 v 17.38583 h 113.385827 z"
         inkscape:connector-curvature="0" />
      <path
         id="path4809"
         style="fill:none;stroke:#000000"
         d="m -389.29134,959.24409 v 17.38583 h 113.38583 v -17.38583 z"
         inkscape:connector-curvature="0" />
      <path
         id="path4811"
         style="fill:none;stroke:#000000"
         d="m -445.98425,776.05039 a 18.897638,18.897638 0 0 1 18.89764,-18.89763 H -18.897638 A 18.897638,18.897638 0 0 1 0,776.05039 v 408.18901 a 18.897638,18.897638 0 0 1 -18.897638,18.8976 H -222.99213 -427.08661 a 18.897638,18.897638 0 0 1 -18.89764,-18.8976 z"
         inkscape:connector-curvature="0" />
      <path
         id="path4813"
         style="fill:none;stroke:#000000"
         d="m -170.07874,897.25984 v 17.38583 h 113.385827 v -17.38583 z"
         inkscape:connector-curvature="0" />
      <path
         id="path4815"
         style="fill:none;stroke:#000000"
         d="m -389.29134,897.25984 v 17.38583 h 113.38583 v -17.38583 z"
         inkscape:connector-curvature="0" />
      <path
         id="path4817"
         style="fill:none;stroke:#000000"
         d="m -170.07874,1152.7559 v 18.8976 h 11.33858 v -18.8976 z"
         inkscape:connector-curvature="0" />
      <path
         id="path4819"
         style="fill:none;stroke:#000000"
         d="m -287.24409,1152.7559 v 18.8976 h 11.33858 v -18.8976 z"
         inkscape:connector-curvature="0" />
      <path
         id="path4821"
         style="fill:none;stroke:#000000"
         d="M -56.692913,1105.1339 H -170.07874 v 17.3858 h 113.385827 z"
         inkscape:connector-curvature="0" />
      <path
         id="path4823"
         style="fill:none;stroke:#000000"
         d="m -389.29134,1105.1339 v 17.3858 h 113.38583 v -17.3858 z"
         inkscape:connector-curvature="0" />
      <path
         id="path4825"
         style="fill:none;stroke:#000000"
         d="m -182.68346,1162.8283 a 40.308665,40.308665 0 1 0 -80.61733,0 40.308665,40.308665 0 1 0 80.61733,0 z"
         inkscape:connector-curvature="0" />
    </g>
    <g
       id="g4903"
       inkscape:label="0"
       transform="matrix(0,0.26458333,-0.26458333,0,319.99146,279.63435)">
      <path
         id="path4877"
         style="fill:none;stroke:#000000"
         d="m -41.574804,1143.3071 h 18.897638 v -11.3386 h -18.897638 z"
         inkscape:connector-curvature="0" />
      <path
         id="path4879"
         style="fill:none;stroke:#000000"
         d="m -41.574804,1099.8425 h 18.897638 v -11.3386 h -18.897638 z"
         inkscape:connector-curvature="0" />
      <path
         id="path4881"
         style="fill:none;stroke:#000000"
         d="m 0,1154.0032 v 49.1338 h -158.74016 a 11.338583,11.338583 0 0 1 -11.33858,-11.3386 V 832.74331 a 75.590551,75.590551 0 0 1 75.590551,-75.59055 H 37.795276 a 11.338583,11.338583 0 0 1 11.338582,11.33858 V 1191.7984 A 11.338583,11.338583 0 0 1 37.795276,1203.137 H 17.385827 v -49.1338 z"
         inkscape:connector-curvature="0" />
      <path
         id="path4883"
         style="fill:none;stroke:#000000"
         d="m -149.29134,1006.8661 h 18.89764 v -11.33854 h -18.89764 z"
         inkscape:connector-curvature="0" />
      <path
         id="path4885"
         style="fill:none;stroke:#000000"
         d="m -113.38583,976.62992 h 56.692917 v -17.38583 h -56.692917 z"
         inkscape:connector-curvature="0" />
      <path
         id="path4887"
         style="fill:none;stroke:#000000"
         d="m 27.566684,991.48347 h 7.559055 V 968.8063 h -7.559055 z"
         inkscape:connector-curvature="0" />
      <path
         id="path4889"
         style="fill:none;stroke:#000000"
         d="m -149.29134,946.3937 h 18.89764 v -11.33858 h -18.89764 z"
         inkscape:connector-curvature="0" />
      <path
         id="path4891"
         style="fill:none;stroke:#000000"
         d="m -149.29134,885.92126 h 18.89764 v -11.33858 h -18.89764 z"
         inkscape:connector-curvature="0" />
      <path
         id="path4893"
         style="fill:none;stroke:#000000"
         d="m 0,1097.3102 h 17.385827 v -56.6929 H 0 Z"
         inkscape:connector-curvature="0" />
      <path
         id="path4895"
         style="fill:none;stroke:#000000"
         d="M 0,983.92441 H 17.385827 V 927.2315 H 0 Z"
         inkscape:connector-curvature="0" />
      <path
         id="path4897"
         style="fill:none;stroke:#000000"
         d="M 0,870.53858 H 17.385827 V 813.84567 H 0 Z"
         inkscape:connector-curvature="0" />
      <path
         id="path4899"
         style="fill:none;stroke:#000000"
         d="m -56.692913,914.64567 v -17.38583 h -56.692917 v 17.38583 z"
         inkscape:connector-curvature="0" />
      <path
         id="path4901"
         style="fill:none;stroke:#000000"
         d="m -56.692913,1122.5197 v -17.3858 h -56.692917 v 17.3858 z"
         inkscape:connector-curvature="0" />
    </g>
    <g
       id="g4975"
       inkscape:label="0"
       transform="matrix(0,0.26458333,-0.26458333,0,438.3245,279.59279)">
      <path
         id="path4949"
         style="fill:none;stroke:#000000"
         d="m -41.574804,1143.3071 h 18.897638 v -11.3386 h -18.897638 z"
         inkscape:connector-curvature="0" />
      <path
         id="path4951"
         style="fill:none;stroke:#000000"
         d="m -41.574804,1099.8425 h 18.897638 v -11.3386 h -18.897638 z"
         inkscape:connector-curvature="0" />
      <path
         id="path4953"
         style="fill:none;stroke:#000000"
         d="m 0,1154.0032 v 49.1338 h -158.74016 a 11.338583,11.338583 0 0 1 -11.33858,-11.3386 V 832.74331 a 75.590551,75.590551 0 0 1 75.590551,-75.59055 H 37.795276 a 11.338583,11.338583 0 0 1 11.338582,11.33858 V 1191.7984 A 11.338583,11.338583 0 0 1 37.795276,1203.137 H 17.385827 v -49.1338 z"
         inkscape:connector-curvature="0" />
      <path
         id="path4955"
         style="fill:none;stroke:#000000"
         d="m -149.29134,1006.8661 h 18.89764 v -11.33854 h -18.89764 z"
         inkscape:connector-curvature="0" />
      <path
         id="path4957"
         style="fill:none;stroke:#000000"
         d="m -113.38583,976.62992 h 56.692917 v -17.38583 h -56.692917 z"
         inkscape:connector-curvature="0" />
      <path
         id="path4959"
         style="fill:none;stroke:#000000"
         d="m 27.566684,991.48347 h 7.559055 V 968.8063 h -7.559055 z"
         inkscape:connector-curvature="0" />
      <path
         id="path4961"
         style="fill:none;stroke:#000000"
         d="m -149.29134,946.3937 h 18.89764 v -11.33858 h -18.89764 z"
         inkscape:connector-curvature="0" />
      <path
         id="path4963"
         style="fill:none;stroke:#000000"
         d="m -149.29134,885.92126 h 18.89764 v -11.33858 h -18.89764 z"
         inkscape:connector-curvature="0" />
      <path
         id="path4965"
         style="fill:none;stroke:#000000"
         d="m 0,1097.3102 h 17.385827 v -56.6929 H 0 Z"
         inkscape:connector-curvature="0" />
      <path
         id="path4967"
         style="fill:none;stroke:#000000"
         d="M 0,983.92441 H 17.385827 V 927.2315 H 0 Z"
         inkscape:connector-curvature="0" />
      <path
         id="path4969"
         style="fill:none;stroke:#000000"
         d="M 0,870.53858 H 17.385827 V 813.84567 H 0 Z"
         inkscape:connector-curvature="0" />
      <path
         id="path4971"
         style="fill:none;stroke:#000000"
         d="m -56.692913,914.64567 v -17.38583 h -56.692917 v 17.38583 z"
         inkscape:connector-curvature="0" />
      <path
         id="path4973"
         style="fill:none;stroke:#000000"
         d="m -56.692913,1122.5197 v -17.3858 h -56.692917 v 17.3858 z"
         inkscape:connector-curvature="0" />
    </g>
  </g>
</svg>
