<?xml version="1.0" encoding="UTF-8" standalone="no"?>
<!-- Created with Inkscape (http://www.inkscape.org/) -->

<svg
   xmlns:dc="http://purl.org/dc/elements/1.1/"
   xmlns:cc="http://creativecommons.org/ns#"
   xmlns:rdf="http://www.w3.org/1999/02/22-rdf-syntax-ns#"
   xmlns:svg="http://www.w3.org/2000/svg"
   xmlns="http://www.w3.org/2000/svg"
   xmlns:sodipodi="http://sodipodi.sourceforge.net/DTD/sodipodi-0.dtd"
   xmlns:inkscape="http://www.inkscape.org/namespaces/inkscape"
   width="402mm"
   height="299mm"
   viewBox="0 0 402 299"
   version="1.1"
   id="svg8"
   inkscape:version="0.92.1 r15371"
   sodipodi:docname="compact_case_noholes_4-6thick_v2.svg">
  <defs
     id="defs2">
    <marker
       style="overflow:visible"
       refY="0"
       refX="0"
       orient="auto"
       id="DistanceX">
      <path
         id="path4487"
         style="stroke:#000000;stroke-width:0.5"
         d="M 3,-3 -3,3 M 0,-5 V 5"
         inkscape:connector-curvature="0" />
    </marker>
    <pattern
       y="0"
       x="0"
       width="8"
       patternUnits="userSpaceOnUse"
       id="Hatch"
       height="8">
      <path
         id="path4490"
         stroke-width="0.25"
         stroke="#000000"
         linecap="square"
         d="M8 4 l-4,4" />
      <path
         id="path4492"
         stroke-width="0.25"
         stroke="#000000"
         linecap="square"
         d="M6 2 l-4,4" />
      <path
         id="path4494"
         stroke-width="0.25"
         stroke="#000000"
         linecap="square"
         d="M4 0 l-4,4" />
    </pattern>
    <symbol
       id="*MODEL_SPACE" />
    <symbol
       id="*PAPER_SPACE" />
    <marker
       style="overflow:visible"
       refY="0"
       refX="0"
       orient="auto"
       id="DistanceX-8">
      <path
         id="path4532"
         style="stroke:#000000;stroke-width:0.5"
         d="M 3,-3 -3,3 M 0,-5 V 5"
         inkscape:connector-curvature="0" />
    </marker>
    <pattern
       y="0"
       x="0"
       width="8"
       patternUnits="userSpaceOnUse"
       id="Hatch-6"
       height="8">
      <path
         id="path4535"
         stroke-width="0.25"
         stroke="#000000"
         linecap="square"
         d="M8 4 l-4,4" />
      <path
         id="path4537"
         stroke-width="0.25"
         stroke="#000000"
         linecap="square"
         d="M6 2 l-4,4" />
      <path
         id="path4539"
         stroke-width="0.25"
         stroke="#000000"
         linecap="square"
         d="M4 0 l-4,4" />
    </pattern>
    <symbol
       id="*MODEL_SPACE-2" />
    <symbol
       id="*PAPER_SPACE-4" />
    <marker
       style="overflow:visible"
       refY="0"
       refX="0"
       orient="auto"
       id="DistanceX-0">
      <path
         id="path4592"
         style="stroke:#000000;stroke-width:0.5"
         d="M 3,-3 -3,3 M 0,-5 V 5"
         inkscape:connector-curvature="0" />
    </marker>
    <pattern
       y="0"
       x="0"
       width="8"
       patternUnits="userSpaceOnUse"
       id="Hatch-64"
       height="8">
      <path
         id="path4595"
         stroke-width="0.25"
         stroke="#000000"
         linecap="square"
         d="M8 4 l-4,4" />
      <path
         id="path4597"
         stroke-width="0.25"
         stroke="#000000"
         linecap="square"
         d="M6 2 l-4,4" />
      <path
         id="path4599"
         stroke-width="0.25"
         stroke="#000000"
         linecap="square"
         d="M4 0 l-4,4" />
    </pattern>
    <symbol
       id="*MODEL_SPACE-9" />
    <symbol
       id="*PAPER_SPACE-2" />
    <marker
       style="overflow:visible"
       refY="0"
       refX="0"
       orient="auto"
       id="DistanceX-3">
      <path
         id="path4673"
         style="stroke:#000000;stroke-width:0.5"
         d="M 3,-3 -3,3 M 0,-5 V 5"
         inkscape:connector-curvature="0" />
    </marker>
    <pattern
       y="0"
       x="0"
       width="8"
       patternUnits="userSpaceOnUse"
       id="Hatch-7"
       height="8">
      <path
         id="path4676"
         stroke-width="0.25"
         stroke="#000000"
         linecap="square"
         d="M8 4 l-4,4" />
      <path
         id="path4678"
         stroke-width="0.25"
         stroke="#000000"
         linecap="square"
         d="M6 2 l-4,4" />
      <path
         id="path4680"
         stroke-width="0.25"
         stroke="#000000"
         linecap="square"
         d="M4 0 l-4,4" />
    </pattern>
    <symbol
       id="*MODEL_SPACE-3" />
    <symbol
       id="*PAPER_SPACE-45" />
    <marker
       style="overflow:visible"
       refY="0"
       refX="0"
       orient="auto"
       id="DistanceX-9">
      <path
         id="path4769"
         style="stroke:#000000;stroke-width:0.5"
         d="M 3,-3 -3,3 M 0,-5 V 5"
         inkscape:connector-curvature="0" />
    </marker>
    <pattern
       y="0"
       x="0"
       width="8"
       patternUnits="userSpaceOnUse"
       id="Hatch-5"
       height="8">
      <path
         id="path4772"
         stroke-width="0.25"
         stroke="#000000"
         linecap="square"
         d="M8 4 l-4,4" />
      <path
         id="path4774"
         stroke-width="0.25"
         stroke="#000000"
         linecap="square"
         d="M6 2 l-4,4" />
      <path
         id="path4776"
         stroke-width="0.25"
         stroke="#000000"
         linecap="square"
         d="M4 0 l-4,4" />
    </pattern>
    <symbol
       id="*MODEL_SPACE-7" />
    <symbol
       id="*PAPER_SPACE-5" />
    <marker
       style="overflow:visible"
       refY="0"
       refX="0"
       orient="auto"
       id="DistanceX-7">
      <path
         id="path4871"
         style="stroke:#000000;stroke-width:0.5"
         d="M 3,-3 -3,3 M 0,-5 V 5"
         inkscape:connector-curvature="0" />
    </marker>
    <pattern
       y="0"
       x="0"
       width="8"
       patternUnits="userSpaceOnUse"
       id="Hatch-4"
       height="8">
      <path
         id="path4874"
         stroke-width="0.25"
         stroke="#000000"
         linecap="square"
         d="M8 4 l-4,4" />
      <path
         id="path4876"
         stroke-width="0.25"
         stroke="#000000"
         linecap="square"
         d="M6 2 l-4,4" />
      <path
         id="path4878"
         stroke-width="0.25"
         stroke="#000000"
         linecap="square"
         d="M4 0 l-4,4" />
    </pattern>
    <symbol
       id="*MODEL_SPACE-6" />
    <symbol
       id="*PAPER_SPACE-7" />
    <marker
       style="overflow:visible"
       refY="0"
       refX="0"
       orient="auto"
       id="DistanceX-4">
      <path
         id="path4979"
         style="stroke:#000000;stroke-width:0.5"
         d="M 3,-3 -3,3 M 0,-5 V 5"
         inkscape:connector-curvature="0" />
    </marker>
    <pattern
       y="0"
       x="0"
       width="8"
       patternUnits="userSpaceOnUse"
       id="Hatch-79"
       height="8">
      <path
         id="path4982"
         stroke-width="0.25"
         stroke="#000000"
         linecap="square"
         d="M8 4 l-4,4" />
      <path
         id="path4984"
         stroke-width="0.25"
         stroke="#000000"
         linecap="square"
         d="M6 2 l-4,4" />
      <path
         id="path4986"
         stroke-width="0.25"
         stroke="#000000"
         linecap="square"
         d="M4 0 l-4,4" />
    </pattern>
    <symbol
       id="*MODEL_SPACE-8" />
    <symbol
       id="*PAPER_SPACE-52" />
  </defs>
  <sodipodi:namedview
     id="base"
     pagecolor="#ffffff"
     bordercolor="#666666"
     borderopacity="1.0"
     inkscape:pageopacity="0.0"
     inkscape:pageshadow="2"
     inkscape:zoom="0.57421875"
     inkscape:cx="655.90782"
     inkscape:cy="550.2868"
     inkscape:document-units="mm"
     inkscape:current-layer="layer1"
     showgrid="false"
     inkscape:window-width="1920"
     inkscape:window-height="1017"
     inkscape:window-x="-8"
     inkscape:window-y="-8"
     inkscape:window-maximized="1" />
  <metadata
     id="metadata5">
    <rdf:RDF>
      <cc:Work
         rdf:about="">
        <dc:format>image/svg+xml</dc:format>
        <dc:type
           rdf:resource="http://purl.org/dc/dcmitype/StillImage" />
        <dc:title></dc:title>
      </cc:Work>
    </rdf:RDF>
  </metadata>
  <g
     inkscape:label="Layer 1"
     inkscape:groupmode="layer"
     id="layer1"
     transform="translate(0,2)">
    <g
       id="g4505"
       inkscape:label="0"
       transform="matrix(0.26458333,0,0,0.26458333,282.2593,-201.19983)">
      <path
         id="path4501"
         style="fill:none;stroke:#000000"
         d="M 434.64567,1203.137 H 222.99213 11.338583 A 11.338583,11.338583 0 0 1 0,1191.7984 v -37.7952 h 37.795276 v -56.693 H 0 v -56.6929 H 37.795276 V 983.92441 H 0 V 927.2315 H 37.795276 V 870.53858 H 0 V 813.84567 H 37.795276 V 757.15276 H 408.18898 v 56.69291 h 37.79527 v 56.69291 h -37.79527 v 56.69292 h 37.79527 v 56.69291 h -37.79527 v 56.69289 h 37.79527 v 56.6929 h -37.79527 v 56.693 h 37.79527 v 37.7952 a 11.338583,11.338583 0 0 1 -11.33858,11.3386 z"
         inkscape:connector-curvature="0" />
      <path
         id="path4503"
         style="fill:none;stroke:#000000"
         d="m 263.30079,1162.8283 a 40.308665,40.308665 0 1 0 -80.61733,0 40.308665,40.308665 0 1 0 80.61733,0 z"
         inkscape:connector-curvature="0" />
    </g>
    <g
       id="g4556"
       inkscape:label="0"
       transform="matrix(0.26458333,0,0,0.26458333,281.28031,-61.146287)">
      <path
         id="path4546"
         style="fill:none;stroke:#000000"
         d="m -1005.3543,1103.622 h 11.33854 v -18.8976 h -11.33854 z"
         inkscape:connector-curvature="0" />
      <path
         id="path4548"
         style="fill:none;stroke:#000000"
         d="m -997.79528,695.43307 h -11.33862 v 18.89764 h 11.33862 z"
         inkscape:connector-curvature="0" />
      <path
         id="path4550"
         style="fill:none;stroke:#000000"
         d="m -113.38583,1084.7244 h -56.69291 v 37.7953 h -850.39366 v -56.6929 h -37.7953 V 952.44095 h 37.7953 V 846.61417 h -37.7953 V 733.22835 h 37.7953 v -56.69292 h 850.39366 v 37.79528 h 56.69291 v -37.79528 h 56.692917 v 37.79528 H 0 v 370.39369 h -56.692913 v 37.7953 h -56.692917 z"
         inkscape:connector-curvature="0" />
      <path
         id="path4552"
         style="fill:none;stroke:#000000"
         d="m -37.795278,1065.8268 h 15.118111 v -15.1181 h -15.118111 z"
         inkscape:connector-curvature="0" />
      <path
         id="path4554"
         style="fill:none;stroke:#000000"
         d="m -36.34633,748.34646 h 15.11811 v -15.11811 h -15.11811 z"
         inkscape:connector-curvature="0" />
    </g>
    <g
       id="g4626"
       inkscape:label="0"
       transform="matrix(0.26458333,0,0,0.26458333,281.3332,-180.10197)">
      <path
         id="path4606"
         style="fill:none;stroke:#000000"
         d="m -222.99213,1062.0472 v -15.1181 h -15.11811 v 15.1181 z"
         inkscape:connector-curvature="0" />
      <path
         id="path4608"
         style="fill:none;stroke:#000000"
         d="m -222.99213,1001.5748 h -15.11811 v 15.1181 h 15.11811 z"
         inkscape:connector-curvature="0" />
      <path
         id="path4610"
         style="fill:none;stroke:#000000"
         d="m -222.99213,956.22047 h -15.11811 v 15.11811 h 15.11811 z"
         inkscape:connector-curvature="0" />
      <path
         id="path4612"
         style="fill:none;stroke:#000000"
         d="m -222.99213,925.98425 v -15.11811 h -15.11811 v 15.11811 z"
         inkscape:connector-curvature="0" />
      <path
         id="path4614"
         style="fill:none;stroke:#000000"
         d="m -222.99213,880.62992 v -15.11811 h -15.11811 v 15.11811 z"
         inkscape:connector-curvature="0" />
      <path
         id="path4616"
         style="fill:none;stroke:#000000"
         d="m -222.99213,816.37795 h -15.11811 v 15.11811 h 15.11811 z"
         inkscape:connector-curvature="0" />
      <path
         id="path4618"
         style="fill:none;stroke:#000000"
         d="m -238.11024,771.02362 v 15.11811 h 15.11811 v -15.11811 z"
         inkscape:connector-curvature="0" />
      <path
         id="path4620"
         style="fill:none;stroke:#000000"
         d="m -222.99213,725.66929 h -15.11811 v 15.11811 h 15.11811 z"
         inkscape:connector-curvature="0" />
      <path
         id="path4622"
         style="fill:none;stroke:#000000"
         d="m -1009.1339,890.07874 v 18.89764 h 11.33863 v -18.89764 z"
         inkscape:connector-curvature="0" />
      <path
         id="path4624"
         style="fill:none;stroke:#000000"
         d="m -170.07874,1122.5197 h -850.39366 v -56.6929 h -37.7953 V 952.44095 h 37.7953 V 846.61417 h -37.7953 V 733.22835 h 37.7953 v -56.69292 h 850.39366 v 37.79528 h 56.69291 v -37.79528 h 56.692918 l -10e-7,94.48819 H -204.09449 v 257.00788 h 147.401577 v 94.4882 h -56.692917 v -37.7953 h -56.69291 z"
         inkscape:connector-curvature="0" />
    </g>
    <g
       id="g4713"
       inkscape:label="0"
       transform="matrix(0,0.26458333,-0.26458333,0,319.84838,281.93186)">
      <path
         id="path4687"
         style="fill:none;stroke:#000000"
         d="m -41.574804,1143.3071 h 18.897638 v -11.3386 h -18.897638 z"
         inkscape:connector-curvature="0" />
      <path
         id="path4689"
         style="fill:none;stroke:#000000"
         d="m -41.574804,1099.8425 h 18.897638 v -11.3386 h -18.897638 z"
         inkscape:connector-curvature="0" />
      <path
         id="path4691"
         style="fill:none;stroke:#000000"
         d="m 0,1154.0032 v 49.1338 h -158.74016 a 11.338583,11.338583 0 0 1 -11.33858,-11.3386 V 832.74331 a 75.590551,75.590551 0 0 1 75.590551,-75.59055 H 37.795276 a 11.338583,11.338583 0 0 1 11.338582,11.33858 V 1191.7984 A 11.338583,11.338583 0 0 1 37.795276,1203.137 H 17.385827 v -49.1338 z"
         inkscape:connector-curvature="0" />
      <path
         id="path4693"
         style="fill:none;stroke:#000000"
         d="m -149.29134,1006.8661 h 18.89764 v -11.33854 h -18.89764 z"
         inkscape:connector-curvature="0" />
      <path
         id="path4695"
         style="fill:none;stroke:#000000"
         d="m -113.38583,984.18898 h 56.692917 v -17.38583 h -56.692917 z"
         inkscape:connector-curvature="0" />
      <path
         id="path4697"
         style="fill:none;stroke:#000000"
         d="m 27.566684,991.48347 h 7.559055 V 968.8063 h -7.559055 z"
         inkscape:connector-curvature="0" />
      <path
         id="path4699"
         style="fill:none;stroke:#000000"
         d="m -149.29134,946.3937 h 18.89764 v -11.33858 h -18.89764 z"
         inkscape:connector-curvature="0" />
      <path
         id="path4701"
         style="fill:none;stroke:#000000"
         d="m -149.29134,885.92126 h 18.89764 v -11.33858 h -18.89764 z"
         inkscape:connector-curvature="0" />
      <path
         id="path4703"
         style="fill:none;stroke:#000000"
         d="m 0,1097.3102 h 17.385827 v -56.6929 H 0 Z"
         inkscape:connector-curvature="0" />
      <path
         id="path4705"
         style="fill:none;stroke:#000000"
         d="M 0,983.92441 H 17.385827 V 927.2315 H 0 Z"
         inkscape:connector-curvature="0" />
      <path
         id="path4707"
         style="fill:none;stroke:#000000"
         d="M 0,870.53858 H 17.385827 V 813.84567 H 0 Z"
         inkscape:connector-curvature="0" />
      <path
         id="path4709"
         style="fill:none;stroke:#000000"
         d="m -56.692913,914.64567 v -17.38583 h -56.692917 v 17.38583 z"
         inkscape:connector-curvature="0" />
      <path
         id="path4711"
         style="fill:none;stroke:#000000"
         d="m -56.692913,1122.5197 v -17.3858 h -56.692917 v 17.3858 z"
         inkscape:connector-curvature="0" />
    </g>
    <g
       id="g4809"
       inkscape:label="0"
       transform="matrix(0,0.26458333,-0.26458333,0,438.97833,281.92741)">
      <path
         id="path4783"
         style="fill:none;stroke:#000000"
         d="m -41.574804,1143.3071 h 18.897638 v -11.3386 h -18.897638 z"
         inkscape:connector-curvature="0" />
      <path
         id="path4785"
         style="fill:none;stroke:#000000"
         d="m -41.574804,1099.8425 h 18.897638 v -11.3386 h -18.897638 z"
         inkscape:connector-curvature="0" />
      <path
         id="path4787"
         style="fill:none;stroke:#000000"
         d="m 0,1154.0032 v 49.1338 h -158.74016 a 11.338583,11.338583 0 0 1 -11.33858,-11.3386 V 832.74331 a 75.590551,75.590551 0 0 1 75.590551,-75.59055 H 37.795276 a 11.338583,11.338583 0 0 1 11.338582,11.33858 V 1191.7984 A 11.338583,11.338583 0 0 1 37.795276,1203.137 H 17.385827 v -49.1338 z"
         inkscape:connector-curvature="0" />
      <path
         id="path4789"
         style="fill:none;stroke:#000000"
         d="m -149.29134,1006.8661 h 18.89764 v -11.33854 h -18.89764 z"
         inkscape:connector-curvature="0" />
      <path
         id="path4791"
         style="fill:none;stroke:#000000"
         d="m -113.38583,984.18898 h 56.692917 v -17.38583 h -56.692917 z"
         inkscape:connector-curvature="0" />
      <path
         id="path4793"
         style="fill:none;stroke:#000000"
         d="m 27.566684,991.48347 h 7.559055 V 968.8063 h -7.559055 z"
         inkscape:connector-curvature="0" />
      <path
         id="path4795"
         style="fill:none;stroke:#000000"
         d="m -149.29134,946.3937 h 18.89764 v -11.33858 h -18.89764 z"
         inkscape:connector-curvature="0" />
      <path
         id="path4797"
         style="fill:none;stroke:#000000"
         d="m -149.29134,885.92126 h 18.89764 v -11.33858 h -18.89764 z"
         inkscape:connector-curvature="0" />
      <path
         id="path4799"
         style="fill:none;stroke:#000000"
         d="m 0,1097.3102 h 17.385827 v -56.6929 H 0 Z"
         inkscape:connector-curvature="0" />
      <path
         id="path4801"
         style="fill:none;stroke:#000000"
         d="M 0,983.92441 H 17.385827 V 927.2315 H 0 Z"
         inkscape:connector-curvature="0" />
      <path
         id="path4803"
         style="fill:none;stroke:#000000"
         d="M 0,870.53858 H 17.385827 V 813.84567 H 0 Z"
         inkscape:connector-curvature="0" />
      <path
         id="path4805"
         style="fill:none;stroke:#000000"
         d="m -56.692913,914.64567 v -17.38583 h -56.692917 v 17.38583 z"
         inkscape:connector-curvature="0" />
      <path
         id="path4807"
         style="fill:none;stroke:#000000"
         d="m -56.692913,1122.5197 v -17.3858 h -56.692917 v 17.3858 z"
         inkscape:connector-curvature="0" />
    </g>
    <g
       id="g4911"
       inkscape:label="0"
       transform="matrix(0,0.26458333,-0.26458333,0,558.07798,282.33858)">
      <path
         id="path4885"
         style="fill:none;stroke:#000000"
         d="m -41.574804,1143.3071 h 18.897638 v -11.3386 h -18.897638 z"
         inkscape:connector-curvature="0" />
      <path
         id="path4887"
         style="fill:none;stroke:#000000"
         d="m -41.574804,1099.8425 h 18.897638 v -11.3386 h -18.897638 z"
         inkscape:connector-curvature="0" />
      <path
         id="path4889"
         style="fill:none;stroke:#000000"
         d="m 0,1154.0032 v 49.1338 h -158.74016 a 11.338583,11.338583 0 0 1 -11.33858,-11.3386 V 832.74331 a 75.590551,75.590551 0 0 1 75.590551,-75.59055 H 37.795276 a 11.338583,11.338583 0 0 1 11.338582,11.33858 V 1191.7984 A 11.338583,11.338583 0 0 1 37.795276,1203.137 H 17.385827 v -49.1338 z"
         inkscape:connector-curvature="0" />
      <path
         id="path4891"
         style="fill:none;stroke:#000000"
         d="m -149.29134,1006.8661 h 18.89764 v -11.33854 h -18.89764 z"
         inkscape:connector-curvature="0" />
      <path
         id="path4893"
         style="fill:none;stroke:#000000"
         d="m -113.38583,984.18898 h 56.692917 v -17.38583 h -56.692917 z"
         inkscape:connector-curvature="0" />
      <path
         id="path4895"
         style="fill:none;stroke:#000000"
         d="m 27.566684,991.48347 h 7.559055 V 968.8063 h -7.559055 z"
         inkscape:connector-curvature="0" />
      <path
         id="path4897"
         style="fill:none;stroke:#000000"
         d="m -149.29134,946.3937 h 18.89764 v -11.33858 h -18.89764 z"
         inkscape:connector-curvature="0" />
      <path
         id="path4899"
         style="fill:none;stroke:#000000"
         d="m -149.29134,885.92126 h 18.89764 v -11.33858 h -18.89764 z"
         inkscape:connector-curvature="0" />
      <path
         id="path4901"
         style="fill:none;stroke:#000000"
         d="m 0,1097.3102 h 17.385827 v -56.6929 H 0 Z"
         inkscape:connector-curvature="0" />
      <path
         id="path4903"
         style="fill:none;stroke:#000000"
         d="M 0,983.92441 H 17.385827 V 927.2315 H 0 Z"
         inkscape:connector-curvature="0" />
      <path
         id="path4905"
         style="fill:none;stroke:#000000"
         d="M 0,870.53858 H 17.385827 V 813.84567 H 0 Z"
         inkscape:connector-curvature="0" />
      <path
         id="path4907"
         style="fill:none;stroke:#000000"
         d="m -56.692913,914.64567 v -17.38583 h -56.692917 v 17.38583 z"
         inkscape:connector-curvature="0" />
      <path
         id="path4909"
         style="fill:none;stroke:#000000"
         d="m -56.692913,1122.5197 v -17.3858 h -56.692917 v 17.3858 z"
         inkscape:connector-curvature="0" />
    </g>
    <g
       id="g5029"
       inkscape:label="0"
       transform="matrix(0.26458333,0,0,0.26458333,282.34891,-82.004641)">
      <path
         id="path4993"
         style="fill:none;stroke:#000000"
         d="m 389.29134,1122.5197 v -17.3858 H 275.90551 v 17.3858 z"
         inkscape:connector-curvature="0" />
      <path
         id="path4995"
         style="fill:none;stroke:#000000"
         d="M 170.07874,1105.1339 H 56.692913 v 17.3858 H 170.07874 Z"
         inkscape:connector-curvature="0" />
      <path
         id="path4997"
         style="fill:none;stroke:#000000"
         d="m 287.24409,1171.6535 v -18.8976 h -11.33858 v 18.8976 z"
         inkscape:connector-curvature="0" />
      <path
         id="path4999"
         style="fill:none;stroke:#000000"
         d="m 170.07874,1171.6535 v -18.8976 h -11.33858 v 18.8976 z"
         inkscape:connector-curvature="0" />
      <path
         id="path5001"
         style="fill:none;stroke:#000000"
         d="M 389.29134,914.64567 V 897.25984 H 275.90551 v 17.38583 z"
         inkscape:connector-curvature="0" />
      <path
         id="path5003"
         style="fill:none;stroke:#000000"
         d="M 170.07874,914.64567 V 897.25984 H 56.692913 v 17.38583 z"
         inkscape:connector-curvature="0" />
      <path
         id="path5005"
         style="fill:none;stroke:#000000"
         d="m 427.08661,757.15276 a 18.897638,18.897638 0 0 1 18.89764,18.89763 v 408.18901 a 18.897638,18.897638 0 0 1 -18.89764,18.8976 H 222.99213 18.897638 A 18.897638,18.897638 0 0 1 0,1184.2394 V 776.05039 a 18.897638,18.897638 0 0 1 18.897638,-18.89763 z"
         inkscape:connector-curvature="0" />
      <path
         id="path5007"
         style="fill:none;stroke:#000000"
         d="M 389.29134,984.18898 V 966.80315 H 275.90551 v 17.38583 z"
         inkscape:connector-curvature="0" />
      <path
         id="path5009"
         style="fill:none;stroke:#000000"
         d="M 170.07874,966.80315 H 56.692913 v 17.38583 H 170.07874 Z"
         inkscape:connector-curvature="0" />
      <path
         id="path5011"
         style="fill:none;stroke:#000000"
         d="m 213.54331,950.55118 v 11.33858 h 18.89763 v -11.33858 z"
         inkscape:connector-curvature="0" />
      <path
         id="path5013"
         style="fill:none;stroke:#000000"
         d="m 213.54331,891.9685 h 18.89763 v -11.33858 h -18.89763 z"
         inkscape:connector-curvature="0" />
      <path
         id="path5015"
         style="fill:none;stroke:#000000"
         d="m 213.54331,920.31496 v 11.33858 h 18.89763 v -11.33858 z"
         inkscape:connector-curvature="0" />
      <path
         id="path5017"
         style="fill:none;stroke:#000000"
         d="m 213.54331,999.68504 h 18.89763 v -11.33858 h -18.89763 z"
         inkscape:connector-curvature="0" />
      <path
         id="path5019"
         style="fill:none;stroke:#000000"
         d="m 37.795276,1098.0692 v -11.3385 H 18.897638 v 11.3385 z"
         inkscape:connector-curvature="0" />
      <path
         id="path5021"
         style="fill:none;stroke:#000000"
         d="m 37.795276,1139.644 v -11.3385 H 18.897638 v 11.3385 z"
         inkscape:connector-curvature="0" />
      <path
         id="path5023"
         style="fill:none;stroke:#000000"
         d="m 427.08661,1099.959 v -11.3386 h -18.89763 v 11.3386 z"
         inkscape:connector-curvature="0" />
      <path
         id="path5025"
         style="fill:none;stroke:#000000"
         d="m 408.18898,1139.644 h 18.89763 v -11.3385 h -18.89763 z"
         inkscape:connector-curvature="0" />
      <path
         id="path5027"
         style="fill:none;stroke:#000000"
         d="m 263.30079,1162.8283 a 40.308665,40.308665 0 1 0 -80.61733,0 40.308665,40.308665 0 1 0 80.61733,0 z"
         inkscape:connector-curvature="0" />
    </g>
  </g>
</svg>
