<?xml version="1.0" encoding="UTF-8" standalone="no"?>
<!-- Created with Inkscape (http://www.inkscape.org/) -->

<svg
   xmlns:dc="http://purl.org/dc/elements/1.1/"
   xmlns:cc="http://creativecommons.org/ns#"
   xmlns:rdf="http://www.w3.org/1999/02/22-rdf-syntax-ns#"
   xmlns:svg="http://www.w3.org/2000/svg"
   xmlns="http://www.w3.org/2000/svg"
   xmlns:sodipodi="http://sodipodi.sourceforge.net/DTD/sodipodi-0.dtd"
   xmlns:inkscape="http://www.inkscape.org/namespaces/inkscape"
   width="326mm"
   height="434mm"
   viewBox="0 0 326 434"
   version="1.1"
   id="svg8"
   inkscape:version="0.92.1 r15371"
   sodipodi:docname="mtm_acr4_18_v1.svg">
  <defs
     id="defs2">
    <marker
       style="overflow:visible"
       refY="0"
       refX="0"
       orient="auto"
       id="DistanceX">
      <path
         id="path4487"
         style="stroke:#000000;stroke-width:0.5"
         d="M 3,-3 -3,3 M 0,-5 V 5"
         inkscape:connector-curvature="0" />
    </marker>
    <pattern
       y="0"
       x="0"
       width="8"
       patternUnits="userSpaceOnUse"
       id="Hatch"
       height="8">
      <path
         id="path4490"
         stroke-width="0.25"
         stroke="#000000"
         linecap="square"
         d="M8 4 l-4,4" />
      <path
         id="path4492"
         stroke-width="0.25"
         stroke="#000000"
         linecap="square"
         d="M6 2 l-4,4" />
      <path
         id="path4494"
         stroke-width="0.25"
         stroke="#000000"
         linecap="square"
         d="M4 0 l-4,4" />
    </pattern>
    <symbol
       id="*MODEL_SPACE" />
    <symbol
       id="*PAPER_SPACE" />
    <marker
       style="overflow:visible"
       refY="0"
       refX="0"
       orient="auto"
       id="DistanceX-7">
      <path
         id="path4541"
         style="stroke:#000000;stroke-width:0.5"
         d="M 3,-3 -3,3 M 0,-5 V 5"
         inkscape:connector-curvature="0" />
    </marker>
    <pattern
       y="0"
       x="0"
       width="8"
       patternUnits="userSpaceOnUse"
       id="Hatch-6"
       height="8">
      <path
         id="path4544"
         stroke-width="0.25"
         stroke="#000000"
         linecap="square"
         d="M8 4 l-4,4" />
      <path
         id="path4546"
         stroke-width="0.25"
         stroke="#000000"
         linecap="square"
         d="M6 2 l-4,4" />
      <path
         id="path4548"
         stroke-width="0.25"
         stroke="#000000"
         linecap="square"
         d="M4 0 l-4,4" />
    </pattern>
    <symbol
       id="*MODEL_SPACE-7" />
    <symbol
       id="*PAPER_SPACE-1" />
    <marker
       style="overflow:visible"
       refY="0"
       refX="0"
       orient="auto"
       id="DistanceX-4">
      <path
         id="path4664"
         style="stroke:#000000;stroke-width:0.5"
         d="M 3,-3 -3,3 M 0,-5 V 5"
         inkscape:connector-curvature="0" />
    </marker>
    <pattern
       y="0"
       x="0"
       width="8"
       patternUnits="userSpaceOnUse"
       id="Hatch-0"
       height="8">
      <path
         id="path4667"
         stroke-width="0.25"
         stroke="#000000"
         linecap="square"
         d="M8 4 l-4,4" />
      <path
         id="path4669"
         stroke-width="0.25"
         stroke="#000000"
         linecap="square"
         d="M6 2 l-4,4" />
      <path
         id="path4671"
         stroke-width="0.25"
         stroke="#000000"
         linecap="square"
         d="M4 0 l-4,4" />
    </pattern>
    <symbol
       id="*MODEL_SPACE-5" />
    <symbol
       id="*PAPER_SPACE-2" />
    <marker
       style="overflow:visible"
       refY="0"
       refX="0"
       orient="auto"
       id="DistanceX-41">
      <path
         id="path4766"
         style="stroke:#000000;stroke-width:0.5"
         d="M 3,-3 -3,3 M 0,-5 V 5"
         inkscape:connector-curvature="0" />
    </marker>
    <pattern
       y="0"
       x="0"
       width="8"
       patternUnits="userSpaceOnUse"
       id="Hatch-9"
       height="8">
      <path
         id="path4769"
         stroke-width="0.25"
         stroke="#000000"
         linecap="square"
         d="M8 4 l-4,4" />
      <path
         id="path4771"
         stroke-width="0.25"
         stroke="#000000"
         linecap="square"
         d="M6 2 l-4,4" />
      <path
         id="path4773"
         stroke-width="0.25"
         stroke="#000000"
         linecap="square"
         d="M4 0 l-4,4" />
    </pattern>
    <symbol
       id="*MODEL_SPACE-3" />
    <symbol
       id="*PAPER_SPACE-5" />
    <marker
       style="overflow:visible"
       refY="0.0"
       refX="0.0"
       orient="auto"
       id="DistanceX-1">
      <path
         id="path4877"
         style="stroke:#000000; stroke-width:0.5"
         d="M 3,-3 L -3,3 M 0,-5 L  0,5" />
    </marker>
    <pattern
       y="0"
       x="0"
       width="8"
       patternUnits="userSpaceOnUse"
       id="Hatch-2"
       height="8">
      <path
         id="path4880"
         stroke-width="0.25"
         stroke="#000000"
         linecap="square"
         d="M8 4 l-4,4" />
      <path
         id="path4882"
         stroke-width="0.25"
         stroke="#000000"
         linecap="square"
         d="M6 2 l-4,4" />
      <path
         id="path4884"
         stroke-width="0.25"
         stroke="#000000"
         linecap="square"
         d="M4 0 l-4,4" />
    </pattern>
    <symbol
       id="*MODEL_SPACE-1" />
    <symbol
       id="*PAPER_SPACE-3" />
    <marker
       style="overflow:visible"
       refY="0.0"
       refX="0.0"
       orient="auto"
       id="DistanceX-3">
      <path
         id="path5044"
         style="stroke:#000000; stroke-width:0.5"
         d="M 3,-3 L -3,3 M 0,-5 L  0,5" />
    </marker>
    <pattern
       y="0"
       x="0"
       width="8"
       patternUnits="userSpaceOnUse"
       id="Hatch-67"
       height="8">
      <path
         id="path5047"
         stroke-width="0.25"
         stroke="#000000"
         linecap="square"
         d="M8 4 l-4,4" />
      <path
         id="path5049"
         stroke-width="0.25"
         stroke="#000000"
         linecap="square"
         d="M6 2 l-4,4" />
      <path
         id="path5051"
         stroke-width="0.25"
         stroke="#000000"
         linecap="square"
         d="M4 0 l-4,4" />
    </pattern>
    <symbol
       id="*MODEL_SPACE-2" />
    <symbol
       id="*PAPER_SPACE-4" />
    <marker
       style="overflow:visible"
       refY="0.0"
       refX="0.0"
       orient="auto"
       id="DistanceX-6">
      <path
         id="path5116"
         style="stroke:#000000; stroke-width:0.5"
         d="M 3,-3 L -3,3 M 0,-5 L  0,5" />
    </marker>
    <pattern
       y="0"
       x="0"
       width="8"
       patternUnits="userSpaceOnUse"
       id="Hatch-99"
       height="8">
      <path
         id="path5119"
         stroke-width="0.25"
         stroke="#000000"
         linecap="square"
         d="M8 4 l-4,4" />
      <path
         id="path5121"
         stroke-width="0.25"
         stroke="#000000"
         linecap="square"
         d="M6 2 l-4,4" />
      <path
         id="path5123"
         stroke-width="0.25"
         stroke="#000000"
         linecap="square"
         d="M4 0 l-4,4" />
    </pattern>
    <symbol
       id="*MODEL_SPACE-8" />
    <symbol
       id="*PAPER_SPACE-56" />
    <marker
       style="overflow:visible"
       refY="0.0"
       refX="0.0"
       orient="auto"
       id="DistanceX-2">
      <path
         id="path5194"
         style="stroke:#000000; stroke-width:0.5"
         d="M 3,-3 L -3,3 M 0,-5 L  0,5" />
    </marker>
    <pattern
       y="0"
       x="0"
       width="8"
       patternUnits="userSpaceOnUse"
       id="Hatch-4"
       height="8">
      <path
         id="path5197"
         stroke-width="0.25"
         stroke="#000000"
         linecap="square"
         d="M8 4 l-4,4" />
      <path
         id="path5199"
         stroke-width="0.25"
         stroke="#000000"
         linecap="square"
         d="M6 2 l-4,4" />
      <path
         id="path5201"
         stroke-width="0.25"
         stroke="#000000"
         linecap="square"
         d="M4 0 l-4,4" />
    </pattern>
    <symbol
       id="*MODEL_SPACE-6" />
    <symbol
       id="*PAPER_SPACE-16" />
    <marker
       style="overflow:visible"
       refY="0.0"
       refX="0.0"
       orient="auto"
       id="DistanceX-0">
      <path
         id="path5290"
         style="stroke:#000000; stroke-width:0.5"
         d="M 3,-3 L -3,3 M 0,-5 L  0,5" />
    </marker>
    <pattern
       y="0"
       x="0"
       width="8"
       patternUnits="userSpaceOnUse"
       id="Hatch-26"
       height="8">
      <path
         id="path5293"
         stroke-width="0.25"
         stroke="#000000"
         linecap="square"
         d="M8 4 l-4,4" />
      <path
         id="path5295"
         stroke-width="0.25"
         stroke="#000000"
         linecap="square"
         d="M6 2 l-4,4" />
      <path
         id="path5297"
         stroke-width="0.25"
         stroke="#000000"
         linecap="square"
         d="M4 0 l-4,4" />
    </pattern>
    <symbol
       id="*MODEL_SPACE-59" />
    <symbol
       id="*PAPER_SPACE-58" />
    <marker
       style="overflow:visible"
       refY="0.0"
       refX="0.0"
       orient="auto"
       id="DistanceX-13">
      <path
         id="path5380"
         style="stroke:#000000; stroke-width:0.5"
         d="M 3,-3 L -3,3 M 0,-5 L  0,5" />
    </marker>
    <pattern
       y="0"
       x="0"
       width="8"
       patternUnits="userSpaceOnUse"
       id="Hatch-45"
       height="8">
      <path
         id="path5383"
         stroke-width="0.25"
         stroke="#000000"
         linecap="square"
         d="M8 4 l-4,4" />
      <path
         id="path5385"
         stroke-width="0.25"
         stroke="#000000"
         linecap="square"
         d="M6 2 l-4,4" />
      <path
         id="path5387"
         stroke-width="0.25"
         stroke="#000000"
         linecap="square"
         d="M4 0 l-4,4" />
    </pattern>
    <symbol
       id="*MODEL_SPACE-74" />
    <symbol
       id="*PAPER_SPACE-8" />
  </defs>
  <sodipodi:namedview
     id="base"
     pagecolor="#ffffff"
     bordercolor="#666666"
     borderopacity="1.0"
     inkscape:pageopacity="0.0"
     inkscape:pageshadow="2"
     inkscape:zoom="0.41956844"
     inkscape:cx="618.31343"
     inkscape:cy="998.92634"
     inkscape:document-units="mm"
     inkscape:current-layer="layer1"
     showgrid="false"
     inkscape:window-width="1920"
     inkscape:window-height="1017"
     inkscape:window-x="-8"
     inkscape:window-y="-8"
     inkscape:window-maximized="1" />
  <metadata
     id="metadata5">
    <rdf:RDF>
      <cc:Work
         rdf:about="">
        <dc:format>image/svg+xml</dc:format>
        <dc:type
           rdf:resource="http://purl.org/dc/dcmitype/StillImage" />
        <dc:title></dc:title>
      </cc:Work>
    </rdf:RDF>
  </metadata>
  <g
     inkscape:label="Layer 1"
     inkscape:groupmode="layer"
     id="layer1"
     transform="translate(0,137)">
    <rect
       style="fill:none;fill-opacity:1;stroke:#00ff00;stroke-width:0.23387611;stroke-miterlimit:4;stroke-dasharray:none;stroke-dashoffset:0;stroke-opacity:1"
       id="rect4836"
       width="325.2807"
       height="433.10495"
       x="0.42091569"
       y="-136.44632" />
    <g
       aria-label="Top Shelf"
       transform="matrix(0.26458333,0,0,0.26458333,4.2333335,-136.3863)"
       style="font-style:normal;font-weight:normal;font-size:16px;line-height:1.25;font-family:sans-serif;letter-spacing:0px;word-spacing:0px;fill:#ff0000;fill-opacity:1;stroke:none"
       id="flowRoot4838">
      <path
         d="m 1120.5234,771.1383 h -4.1562 v 10.25781 h -1.5469 V 771.1383 h -4.1562 v -1.375 h 9.8593 z"
         id="path4846"
         inkscape:connector-curvature="0" />
      <path
         d="m 1127.7031,777.03674 q 0,2.13281 -1.0937,3.36719 -1.0938,1.23437 -2.9297,1.23437 -1.8516,0 -2.9453,-1.23437 -1.086,-1.23438 -1.086,-3.36719 0,-2.13281 1.086,-3.36719 1.0937,-1.24219 2.9453,-1.24219 1.8359,0 2.9297,1.24219 1.0937,1.23438 1.0937,3.36719 z m -1.5156,0 q 0,-1.69531 -0.6641,-2.51563 -0.664,-0.82812 -1.8437,-0.82812 -1.1953,0 -1.8594,0.82812 -0.6562,0.82032 -0.6562,2.51563 0,1.64062 0.664,2.49219 0.6641,0.84375 1.8516,0.84375 1.1719,0 1.8359,-0.83594 0.6719,-0.84375 0.6719,-2.5 z"
         id="path4848"
         inkscape:connector-curvature="0" />
      <path
         d="m 1137.6641,776.92736 q 0,1.0625 -0.3047,1.94532 -0.3047,0.875 -0.8594,1.48437 -0.5156,0.57813 -1.2187,0.89844 -0.6954,0.3125 -1.4766,0.3125 -0.6797,0 -1.2344,-0.14844 -0.5469,-0.14844 -1.1172,-0.46094 v 3.65625 h -1.4687 v -11.94531 h 1.4687 v 0.91406 q 0.586,-0.49218 1.3125,-0.82031 0.7344,-0.33594 1.5625,-0.33594 1.5782,0 2.4532,1.19532 0.8828,1.1875 0.8828,3.30468 z m -1.5157,0.0391 q 0,-1.57813 -0.539,-2.35938 -0.5391,-0.78125 -1.6563,-0.78125 -0.6328,0 -1.2734,0.27344 -0.6406,0.27344 -1.2266,0.71875 v 4.94531 q 0.625,0.28125 1.0703,0.38281 0.4532,0.10157 1.0235,0.10157 1.2265,0 1.914,-0.82813 0.6875,-0.82812 0.6875,-2.45312 z"
         id="path4850"
         inkscape:connector-curvature="0" />
      <path
         d="m 1154.1484,778.0758 q 0,0.67969 -0.3203,1.34375 -0.3125,0.66406 -0.8828,1.125 -0.625,0.5 -1.4609,0.78125 -0.8281,0.28125 -2,0.28125 -1.2578,0 -2.2656,-0.23437 -1,-0.23438 -2.0391,-0.69532 v -1.9375 h 0.1094 q 0.8828,0.73438 2.039,1.13282 1.1563,0.39843 2.1719,0.39843 1.4375,0 2.2344,-0.53906 0.8047,-0.53906 0.8047,-1.4375 0,-0.77344 -0.3828,-1.14062 -0.375,-0.36719 -1.1485,-0.57032 -0.5859,-0.15625 -1.2734,-0.25781 -0.6797,-0.10156 -1.4453,-0.25781 -1.5469,-0.32813 -2.2969,-1.11719 -0.7422,-0.79687 -0.7422,-2.07031 0,-1.46094 1.2344,-2.39063 1.2344,-0.9375 3.1328,-0.9375 1.2266,0 2.25,0.23438 1.0234,0.23437 1.8125,0.57812 v 1.82813 h -0.1094 q -0.664,-0.5625 -1.75,-0.92969 -1.0781,-0.375 -2.2109,-0.375 -1.2422,0 -2,0.51563 -0.75,0.51562 -0.75,1.32812 0,0.72656 0.375,1.14063 0.375,0.41406 1.3203,0.63281 0.5,0.10937 1.4219,0.26562 0.9218,0.15625 1.5625,0.32032 1.2968,0.34375 1.9531,1.03906 0.6562,0.69531 0.6562,1.94531 z"
         id="path4852"
         inkscape:connector-curvature="0" />
      <path
         d="m 1163.8125,781.39611 h -1.4687 v -4.96875 q 0,-0.60156 -0.07,-1.125 -0.07,-0.53125 -0.2578,-0.82812 -0.1953,-0.32813 -0.5625,-0.48438 -0.3672,-0.16406 -0.9531,-0.16406 -0.6016,0 -1.2578,0.29688 -0.6563,0.29687 -1.2578,0.75781 v 6.51562 h -1.4688 v -12.15625 h 1.4688 v 4.39844 q 0.6875,-0.57031 1.4219,-0.89062 0.7343,-0.32032 1.5078,-0.32032 1.414,0 2.1562,0.85157 0.7422,0.85156 0.7422,2.45312 z"
         id="path4854"
         inkscape:connector-curvature="0" />
      <path
         d="m 1173.9453,777.18518 h -6.4297 q 0,0.80468 0.2422,1.40625 0.2422,0.59375 0.6641,0.97656 0.4062,0.375 0.9609,0.5625 0.5625,0.1875 1.2344,0.1875 0.8906,0 1.7891,-0.35156 0.9062,-0.35938 1.289,-0.70313 h 0.078 v 1.60156 q -0.7421,0.3125 -1.5156,0.52344 -0.7734,0.21094 -1.625,0.21094 -2.1719,0 -3.3906,-1.17188 -1.2188,-1.17968 -1.2188,-3.34375 0,-2.14062 1.1641,-3.39843 1.1719,-1.25782 3.0781,-1.25782 1.7657,0 2.7188,1.03125 0.9609,1.03125 0.9609,2.92969 z m -1.4297,-1.125 q -0.01,-1.15625 -0.5859,-1.78907 -0.5703,-0.63281 -1.7422,-0.63281 -1.1797,0 -1.8828,0.69531 -0.6953,0.69532 -0.7891,1.72657 z"
         id="path4856"
         inkscape:connector-curvature="0" />
      <path
         d="m 1177.6563,781.39611 h -1.4688 v -12.15625 h 1.4688 z"
         id="path4858"
         inkscape:connector-curvature="0" />
      <path
         d="m 1185.2109,770.66174 h -0.078 q -0.2422,-0.0703 -0.6328,-0.14063 -0.3906,-0.0781 -0.6875,-0.0781 -0.9453,0 -1.375,0.42187 -0.4219,0.41407 -0.4219,1.50782 v 0.29687 h 2.6485 v 1.23438 h -2.6016 v 7.49218 h -1.4687 v -7.49218 h -0.9922 v -1.23438 h 0.9922 v -0.28906 q 0,-1.55469 0.7734,-2.38281 0.7734,-0.83594 2.2344,-0.83594 0.4922,0 0.8828,0.0469 0.3984,0.0469 0.7265,0.10938 z"
         id="path4860"
         inkscape:connector-curvature="0" />
    </g>
    <g
       id="g4901"
       inkscape:label="0"
       transform="matrix(0.26458333,0,0,0.26458333,324.90477,-0.8767892)">
      <path
         id="path4891"
         style="fill:none;stroke:#000000"
         d="m -83.338583,306.51968 v 18.89764 a 7.748031,7.748031 0 1 0 15.492121,-0.24714 v -18.6505 h 11.153549 A 56.692913,56.692913 0 0 1 0,363.2126 v 702.6142 a 56.692913,56.692913 0 0 1 -56.692913,56.6929 H -67.84252 v -18.8977 a 7.7480315,7.7480315 0 0 0 -15.496063,0 v 18.8977 H -521.38583 v -18.8977 a 7.7480315,7.7480315 0 0 0 -15.49606,0 v 18.8977 h -150.23622 v -18.8977 a 7.7480315,7.7480315 0 0 0 -15.49606,0 v 18.8977 h -438.04723 v -18.8977 a 7.74805,7.74805 0 0 0 -15.4961,0 v 18.8977 h -11.1496 A 56.692913,56.692913 0 0 1 -1224,1065.8268 V 363.2126 a 56.692913,56.692913 0 0 1 56.6929,-56.69292 h 11.1496 v 18.89764 a 7.74805,7.74805 0 0 0 15.4961,0 v -18.89764 h 438.04723 v 18.89764 a 7.7480315,7.7480315 0 0 0 15.49606,0 v -18.89764 h 150.23622 v 18.89764 a 7.7480315,7.7480315 0 0 0 15.49606,0 v -18.89764 z"
         inkscape:connector-curvature="0" />
      <path
         id="path4893"
         style="fill:none;stroke:#000000"
         d="m -1068.2835,344.31496 a 6.4252,6.4252 0 1 0 -12.8504,0 6.4252,6.4252 0 1 0 12.8504,0 z"
         inkscape:connector-curvature="0" />
      <path
         id="path4895"
         style="fill:none;stroke:#000000"
         d="m -1068.2835,1084.7244 a 6.4252,6.4252 0 1 0 -12.8504,0 6.4252,6.4252 0 1 0 12.8504,0 z"
         inkscape:connector-curvature="0" />
      <path
         id="path4897"
         style="fill:none;stroke:#000000"
         d="m -142.86614,344.31496 a 6.425197,6.425197 0 1 0 -12.85039,0 6.425197,6.425197 0 1 0 12.85039,0 z"
         inkscape:connector-curvature="0" />
      <path
         id="path4899"
         style="fill:none;stroke:#000000"
         d="m -142.86614,1084.7244 a 6.425197,6.425197 0 1 0 -12.85039,0 6.425197,6.425197 0 1 0 12.85039,0 z"
         inkscape:connector-curvature="0" />
    </g>
    <g
       aria-label="MTM ACR4-18 v1.0 by Jdeation.com
Bottom Plate"
       transform="matrix(0.26458333,0,0,0.26458333,3.3443055,-132.98683)"
       style="font-style:normal;font-weight:normal;font-size:16px;line-height:1.25;font-family:sans-serif;letter-spacing:0px;word-spacing:0px;fill:#000000;fill-opacity:1;stroke:none"
       id="flowRoot4953">
      <path
         d="m 184.66797,1595.9254 h -1.54688 v -10.0234 l -3.23437,6.8203 h -0.92188 l -3.21093,-6.8203 v 10.0234 h -1.44532 v -11.6328 h 2.10938 l 3.10156,6.4766 3,-6.4766 h 2.14844 z"
         style="fill:#ff0000;fill-opacity:1"
         id="path4963" />
      <path
         d="m 196.10547,1585.6676 h -4.15625 v 10.2578 h -1.54688 v -10.2578 h -4.15625 v -1.375 h 9.85938 z"
         style="fill:#ff0000;fill-opacity:1"
         id="path4965" />
      <path
         d="m 208.04297,1595.9254 h -1.54688 v -10.0234 l -3.23437,6.8203 h -0.92188 l -3.21093,-6.8203 v 10.0234 h -1.44532 v -11.6328 h 2.10938 l 3.10156,6.4766 3,-6.4766 h 2.14844 z"
         style="fill:#ff0000;fill-opacity:1"
         id="path4967" />
      <path
         d="m 225.98047,1595.9254 h -1.64844 l -1.14062,-3.2422 h -5.03125 l -1.14063,3.2422 h -1.57031 l 4.23437,-11.6328 h 2.0625 z m -3.26563,-4.5703 -2.03906,-5.7109 -2.04687,5.7109 z"
         style="fill:#ff0000;fill-opacity:1"
         id="path4969" />
      <path
         d="m 236.73047,1595.0817 q -0.42969,0.1875 -0.78125,0.3515 -0.34375,0.1641 -0.90625,0.3438 -0.47656,0.1484 -1.03906,0.25 -0.55469,0.1093 -1.22657,0.1093 -1.26562,0 -2.30468,-0.3515 -1.03125,-0.3594 -1.79688,-1.1172 -0.75,-0.7422 -1.17187,-1.8828 -0.42188,-1.1485 -0.42188,-2.6641 0,-1.4375 0.40625,-2.5703 0.40625,-1.1328 1.17188,-1.9141 0.74218,-0.7578 1.78906,-1.1562 1.05469,-0.3984 2.33594,-0.3984 0.9375,0 1.86718,0.2265 0.9375,0.2266 2.07813,0.7969 v 1.8359 h -0.11719 q -0.96094,-0.8047 -1.90625,-1.1718 -0.94531,-0.3672 -2.02344,-0.3672 -0.88281,0 -1.59375,0.289 -0.70312,0.2813 -1.25781,0.8828 -0.53906,0.586 -0.84375,1.4844 -0.29687,0.8906 -0.29687,2.0625 0,1.2266 0.32812,2.1094 0.33594,0.8828 0.85938,1.4375 0.54687,0.5781 1.27343,0.8594 0.73438,0.2734 1.54688,0.2734 1.11719,0 2.09375,-0.3828 0.97656,-0.3828 1.82812,-1.1484 h 0.10938 z"
         style="fill:#ff0000;fill-opacity:1"
         id="path4971" />
      <path
         d="m 248.55859,1595.9254 h -2.00781 l -3.89062,-4.625 h -2.17969 v 4.625 h -1.54688 v -11.6328 h 3.25782 q 1.05468,0 1.75781,0.1406 0.70312,0.1328 1.26562,0.4844 0.63282,0.3984 0.98438,1.0078 0.35937,0.6016 0.35937,1.5313 0,1.2578 -0.63281,2.1093 -0.63281,0.8438 -1.74219,1.2735 z m -3.61718,-8.3594 q 0,-0.5 -0.17969,-0.8828 -0.17188,-0.3906 -0.57813,-0.6562 -0.33593,-0.2266 -0.79687,-0.3125 -0.46094,-0.094 -1.08594,-0.094 h -1.82031 v 4.3906 h 1.5625 q 0.73437,0 1.28125,-0.125 0.54687,-0.1328 0.92969,-0.4843 0.35156,-0.3282 0.51562,-0.75 0.17188,-0.4297 0.17188,-1.086 z"
         style="fill:#ff0000;fill-opacity:1"
         id="path4973" />
      <path
         d="m 257.89453,1592.652 h -1.72656 v 3.2734 h -1.5 v -3.2734 h -5.57031 v -1.7969 l 5.63281,-6.5625 h 1.4375 v 7.1094 h 1.72656 z m -3.22656,-1.25 v -5.25 l -4.50781,5.25 z"
         style="fill:#ff0000;fill-opacity:1"
         id="path4975" />
      <path
         d="m 264.75391,1591.5426 h -4.875 v -1.4141 h 4.875 z"
         style="fill:#ff0000;fill-opacity:1"
         id="path4977" />
      <path
         d="m 274.43359,1595.9254 h -6.29687 v -1.1875 h 2.42187 v -7.7969 h -2.42187 v -1.0625 q 0.49219,0 1.05469,-0.078 0.5625,-0.086 0.85156,-0.2422 0.35937,-0.1953 0.5625,-0.4922 0.21094,-0.3047 0.24219,-0.8125 h 1.21093 v 10.4844 h 2.375 z"
         style="fill:#ff0000;fill-opacity:1"
         id="path4979" />
      <path
         d="m 285.37109,1592.6832 q 0,1.5078 -1.17968,2.5078 -1.17188,1 -2.95313,1 -1.89062,0 -3.01562,-0.9765 -1.11719,-0.9766 -1.11719,-2.5 0,-0.9688 0.5625,-1.75 0.5625,-0.7891 1.58594,-1.25 v -0.047 q -0.9375,-0.5 -1.39063,-1.0938 -0.44531,-0.5937 -0.44531,-1.4843 0,-1.3125 1.07812,-2.1875 1.07813,-0.875 2.74219,-0.875 1.74219,0 2.78125,0.8359 1.03906,0.8359 1.03906,2.125 0,0.7891 -0.49218,1.5547 -0.49219,0.7578 -1.44532,1.1875 v 0.047 q 1.09375,0.4687 1.67188,1.1562 0.57812,0.6875 0.57812,1.75 z m -1.85156,-5.6797 q 0,-0.8359 -0.64844,-1.3281 -0.64062,-0.5 -1.64062,-0.5 -0.98438,0 -1.61719,0.4688 -0.625,0.4687 -0.625,1.2656 0,0.5625 0.3125,0.9765 0.32031,0.4063 0.96094,0.7266 0.28906,0.1406 0.82812,0.3672 0.54688,0.2266 1.0625,0.375 0.77344,-0.5156 1.07032,-1.0703 0.29687,-0.5547 0.29687,-1.2813 z m 0.24219,5.8282 q 0,-0.7188 -0.32031,-1.1485 -0.3125,-0.4375 -1.23438,-0.875 -0.36719,-0.1719 -0.80469,-0.3203 -0.4375,-0.1484 -1.16406,-0.4141 -0.70312,0.3829 -1.13281,1.0391 -0.42188,0.6563 -0.42188,1.4844 0,1.0547 0.72657,1.7422 0.72656,0.6875 1.84375,0.6875 1.14062,0 1.82031,-0.586 0.6875,-0.5859 0.6875,-1.6093 z"
         style="fill:#ff0000;fill-opacity:1"
         id="path4981" />
      <path
         d="m 300.95703,1587.1988 -3.53125,8.7266 h -1.47656 l -3.50781,-8.7266 h 1.59375 l 2.70312,6.9454 2.67969,-6.9454 z"
         style="fill:#ff0000;fill-opacity:1"
         id="path4983" />
      <path
         d="m 309.90234,1595.9254 h -6.29687 v -1.1875 h 2.42187 v -7.7969 h -2.42187 v -1.0625 q 0.49219,0 1.05469,-0.078 0.5625,-0.086 0.85156,-0.2422 0.35937,-0.1953 0.5625,-0.4922 0.21094,-0.3047 0.24219,-0.8125 h 1.21093 v 10.4844 h 2.375 z"
         style="fill:#ff0000;fill-opacity:1"
         id="path4985" />
      <path
         d="m 315.46484,1595.9254 h -1.86718 v -2.2266 h 1.86718 z"
         style="fill:#ff0000;fill-opacity:1"
         id="path4987" />
      <path
         d="m 326.55078,1590.1051 q 0,3.1328 -0.98437,4.6016 -0.97657,1.4609 -3.03907,1.4609 -2.09375,0 -3.0625,-1.4844 -0.96093,-1.4844 -0.96093,-4.5625 0,-3.1015 0.97656,-4.5781 0.97656,-1.4844 3.04687,-1.4844 2.09375,0 3.05469,1.5078 0.96875,1.5 0.96875,4.5391 z m -2.05469,3.5469 q 0.27344,-0.6328 0.36719,-1.4844 0.10156,-0.8594 0.10156,-2.0625 0,-1.1875 -0.10156,-2.0625 -0.0937,-0.875 -0.375,-1.4844 -0.27344,-0.6015 -0.75,-0.9062 -0.46875,-0.3047 -1.21094,-0.3047 -0.73437,0 -1.21875,0.3047 -0.47656,0.3047 -0.75781,0.9218 -0.26562,0.5782 -0.36719,1.5079 -0.0937,0.9296 -0.0937,2.039 0,1.2188 0.0859,2.0391 0.0859,0.8203 0.36719,1.4687 0.25781,0.6094 0.72656,0.9297 0.47656,0.3203 1.25781,0.3203 0.73438,0 1.21875,-0.3047 0.48438,-0.3046 0.75,-0.9218 z"
         style="fill:#ff0000;fill-opacity:1"
         id="path4989" />
      <path
         d="m 342.37109,1591.4957 q 0,1.0938 -0.3125,1.9688 -0.30468,0.875 -0.82812,1.4687 -0.55469,0.6172 -1.21875,0.9297 -0.66406,0.3047 -1.46094,0.3047 -0.74219,0 -1.29687,-0.1797 -0.55469,-0.1719 -1.09375,-0.4687 l -0.0937,0.4062 h -1.375 v -12.1562 h 1.46875 v 4.3437 q 0.61718,-0.5078 1.3125,-0.8281 0.69531,-0.3281 1.5625,-0.3281 1.54687,0 2.4375,1.1875 0.89843,1.1875 0.89843,3.3515 z m -1.51562,0.039 q 0,-1.5625 -0.51563,-2.3672 -0.51562,-0.8125 -1.66406,-0.8125 -0.64062,0 -1.29687,0.2812 -0.65625,0.2735 -1.21875,0.711 v 5 q 0.625,0.2812 1.07031,0.3906 0.45312,0.1094 1.02344,0.1094 1.21875,0 1.90625,-0.7969 0.69531,-0.8047 0.69531,-2.5156 z"
         style="fill:#ff0000;fill-opacity:1"
         id="path4991" />
      <path
         d="m 352.17578,1587.1988 -5.09375,11.9454 h -1.57031 l 1.625,-3.6407 -3.47656,-8.3047 h 1.59375 l 2.67968,6.4688 2.70313,-6.4688 z"
         style="fill:#ff0000;fill-opacity:1"
         id="path4993" />
      <path
         d="m 364.10547,1592.902 q 0,1.5312 -0.9375,2.3593 -0.92969,0.8282 -2.5,0.8282 -0.375,0 -1,-0.07 -0.625,-0.062 -1.04688,-0.1563 v -1.4453 h 0.0859 q 0.32031,0.1094 0.78906,0.2266 0.46875,0.1171 0.96094,0.1171 0.71875,0 1.14063,-0.164 0.42968,-0.1641 0.63281,-0.4688 0.21094,-0.3125 0.26562,-0.7656 0.0625,-0.4531 0.0625,-1.0469 v -6.789 h -2.46093 v -1.2344 h 4.00781 z"
         style="fill:#ff0000;fill-opacity:1"
         id="path4995" />
      <path
         d="m 374.08203,1595.9254 h -1.46875 v -0.9141 q -0.63281,0.5469 -1.32031,0.8516 -0.6875,0.3047 -1.49219,0.3047 -1.5625,0 -2.48437,-1.2031 -0.91407,-1.2032 -0.91407,-3.336 0,-1.1093 0.3125,-1.9765 0.32032,-0.8672 0.85938,-1.4766 0.53125,-0.5937 1.23437,-0.9062 0.71094,-0.3125 1.46875,-0.3125 0.6875,0 1.21875,0.1484 0.53125,0.1406 1.11719,0.4453 v -3.7812 h 1.46875 z m -1.46875,-2.1484 v -5.0078 q -0.59375,-0.2657 -1.0625,-0.3672 -0.46875,-0.1016 -1.02344,-0.1016 -1.23437,0 -1.92187,0.8594 -0.6875,0.8594 -0.6875,2.4375 0,1.5547 0.53125,2.3672 0.53125,0.8047 1.70312,0.8047 0.625,0 1.26563,-0.2735 0.64062,-0.2812 1.19531,-0.7187 z"
         style="fill:#ff0000;fill-opacity:1"
         id="path4997" />
      <path
         d="m 384.27734,1591.7145 h -6.42968 q 0,0.8047 0.24218,1.4062 0.24219,0.5938 0.66407,0.9766 0.40625,0.375 0.96093,0.5625 0.5625,0.1875 1.23438,0.1875 0.89062,0 1.78906,-0.3516 0.90625,-0.3594 1.28906,-0.7031 h 0.0781 v 1.6016 q -0.74219,0.3125 -1.51563,0.5234 -0.77343,0.2109 -1.625,0.2109 -2.17187,0 -3.39062,-1.1718 -1.21875,-1.1797 -1.21875,-3.3438 0,-2.1406 1.16406,-3.3984 1.17188,-1.2578 3.07813,-1.2578 1.76562,0 2.71875,1.0312 0.96093,1.0313 0.96093,2.9297 z m -1.42968,-1.125 q -0.008,-1.1563 -0.58594,-1.7891 -0.57031,-0.6328 -1.74219,-0.6328 -1.17969,0 -1.88281,0.6953 -0.69531,0.6953 -0.78906,1.7266 z"
         style="fill:#ff0000;fill-opacity:1"
         id="path4999" />
      <path
         d="m 393.28516,1595.9254 h -1.46094 v -0.9297 q -0.19531,0.1328 -0.53125,0.375 -0.32813,0.2344 -0.64063,0.375 -0.36718,0.1797 -0.84375,0.2969 -0.47656,0.125 -1.11718,0.125 -1.17969,0 -2,-0.7813 -0.82032,-0.7812 -0.82032,-1.9921 0,-0.9922 0.42188,-1.6016 0.42969,-0.6172 1.21875,-0.9688 0.79687,-0.3515 1.91406,-0.4765 1.11719,-0.125 2.39844,-0.1875 v -0.2266 q 0,-0.5 -0.17969,-0.8281 -0.17187,-0.3281 -0.5,-0.5156 -0.3125,-0.1797 -0.75,-0.2422 -0.4375,-0.062 -0.91406,-0.062 -0.57813,0 -1.28906,0.1562 -0.71094,0.1485 -1.46875,0.4375 h -0.0781 v -1.4922 q 0.42969,-0.1171 1.24219,-0.2578 0.8125,-0.1406 1.60156,-0.1406 0.92188,0 1.60156,0.1563 0.6875,0.1484 1.1875,0.5156 0.49219,0.3594 0.75,0.9297 0.25782,0.5703 0.25782,1.414 z m -1.46094,-2.1484 v -2.4297 q -0.67188,0.039 -1.58594,0.1172 -0.90625,0.078 -1.4375,0.2265 -0.63281,0.1797 -1.02344,0.5625 -0.39062,0.375 -0.39062,1.0391 0,0.75 0.45312,1.1328 0.45313,0.375 1.38282,0.375 0.77343,0 1.41406,-0.2969 0.64062,-0.3047 1.1875,-0.7265 z"
         style="fill:#ff0000;fill-opacity:1"
         id="path5001" />
      <path
         d="m 400.66016,1595.8473 q -0.41407,0.1094 -0.90625,0.1797 -0.48438,0.07 -0.86719,0.07 -1.33594,0 -2.03125,-0.7188 -0.69531,-0.7187 -0.69531,-2.3047 v -4.6406 h -0.99219 v -1.2344 h 0.99219 v -2.5078 h 1.46875 v 2.5078 h 3.03125 v 1.2344 h -3.03125 v 3.9766 q 0,0.6875 0.0312,1.0781 0.0312,0.3828 0.21875,0.7188 0.17187,0.3125 0.46875,0.4609 0.30468,0.1406 0.92187,0.1406 0.35938,0 0.75,-0.1015 0.39063,-0.1094 0.5625,-0.1797 h 0.0781 z"
         style="fill:#ff0000;fill-opacity:1"
         id="path5003" />
      <path
         d="m 404.01953,1585.7379 h -1.65625 v -1.5234 h 1.65625 z m -0.0937,10.1875 h -1.46875 v -8.7266 h 1.46875 z"
         style="fill:#ff0000;fill-opacity:1"
         id="path5005" />
      <path
         d="m 414.22266,1591.566 q 0,2.1328 -1.09375,3.3672 -1.09375,1.2344 -2.92969,1.2344 -1.85156,0 -2.94531,-1.2344 -1.08594,-1.2344 -1.08594,-3.3672 0,-2.1328 1.08594,-3.3672 1.09375,-1.2421 2.94531,-1.2421 1.83594,0 2.92969,1.2421 1.09375,1.2344 1.09375,3.3672 z m -1.51563,0 q 0,-1.6953 -0.66406,-2.5156 -0.66406,-0.8281 -1.84375,-0.8281 -1.19531,0 -1.85938,0.8281 -0.65625,0.8203 -0.65625,2.5156 0,1.6407 0.66407,2.4922 0.66406,0.8438 1.85156,0.8438 1.17187,0 1.83594,-0.836 0.67187,-0.8437 0.67187,-2.5 z"
         style="fill:#ff0000;fill-opacity:1"
         id="path5007" />
      <path
         d="m 423.80078,1595.9254 h -1.46875 v -4.9687 q 0,-0.6016 -0.0703,-1.125 -0.0703,-0.5313 -0.25781,-0.8282 -0.19532,-0.3281 -0.5625,-0.4843 -0.36719,-0.1641 -0.95313,-0.1641 -0.60156,0 -1.25781,0.2969 -0.65625,0.2968 -1.25781,0.7578 v 6.5156 h -1.46875 v -8.7266 h 1.46875 v 0.9688 q 0.6875,-0.5703 1.42187,-0.8906 0.73438,-0.3203 1.50781,-0.3203 1.41407,0 2.15625,0.8515 0.74219,0.8516 0.74219,2.4531 z"
         style="fill:#ff0000;fill-opacity:1"
         id="path5009" />
      <path
         d="m 429.02734,1595.9254 h -1.86718 v -2.2266 h 1.86718 z"
         style="fill:#ff0000;fill-opacity:1"
         id="path5011" />
      <path
         d="m 438.89453,1595.3785 q -0.73437,0.3516 -1.39844,0.5469 -0.65625,0.1953 -1.39843,0.1953 -0.94532,0 -1.73438,-0.2734 -0.78906,-0.2813 -1.35156,-0.8438 -0.57031,-0.5625 -0.88281,-1.4218 -0.3125,-0.8594 -0.3125,-2.0079 0,-2.1406 1.17187,-3.3593 1.17969,-1.2188 3.10938,-1.2188 0.75,0 1.46875,0.211 0.72656,0.2109 1.32812,0.5156 v 1.6328 h -0.0781 q -0.67188,-0.5234 -1.39063,-0.8047 -0.71094,-0.2812 -1.39062,-0.2812 -1.25,0 -1.97657,0.8437 -0.71875,0.8359 -0.71875,2.4609 0,1.5782 0.70313,2.4297 0.71094,0.8438 1.99219,0.8438 0.44531,0 0.90625,-0.1172 0.46093,-0.1172 0.82812,-0.3047 0.32031,-0.1641 0.60156,-0.3437 0.28125,-0.1875 0.44532,-0.3204 h 0.0781 z"
         style="fill:#ff0000;fill-opacity:1"
         id="path5013" />
      <path
         d="m 448.22266,1591.566 q 0,2.1328 -1.09375,3.3672 -1.09375,1.2344 -2.92969,1.2344 -1.85156,0 -2.94531,-1.2344 -1.08594,-1.2344 -1.08594,-3.3672 0,-2.1328 1.08594,-3.3672 1.09375,-1.2421 2.94531,-1.2421 1.83594,0 2.92969,1.2421 1.09375,1.2344 1.09375,3.3672 z m -1.51563,0 q 0,-1.6953 -0.66406,-2.5156 -0.66406,-0.8281 -1.84375,-0.8281 -1.19531,0 -1.85938,0.8281 -0.65625,0.8203 -0.65625,2.5156 0,1.6407 0.66407,2.4922 0.66406,0.8438 1.85156,0.8438 1.17187,0 1.83594,-0.836 0.67187,-0.8437 0.67187,-2.5 z"
         style="fill:#ff0000;fill-opacity:1"
         id="path5015" />
      <path
         d="m 463.23828,1595.9254 h -1.46875 v -4.9687 q 0,-0.5625 -0.0547,-1.086 -0.0469,-0.5234 -0.21093,-0.8359 -0.17969,-0.336 -0.51563,-0.5078 -0.33594,-0.1719 -0.96875,-0.1719 -0.61719,0 -1.23437,0.3125 -0.61719,0.3047 -1.23438,0.7812 0.0234,0.1797 0.0391,0.4219 0.0156,0.2344 0.0156,0.4688 v 5.5859 h -1.46875 v -4.9687 q 0,-0.5782 -0.0547,-1.0938 -0.0469,-0.5234 -0.21094,-0.8359 -0.17968,-0.336 -0.51562,-0.5 -0.33594,-0.1719 -0.96875,-0.1719 -0.60156,0 -1.21094,0.2969 -0.60156,0.2968 -1.20312,0.7578 v 6.5156 h -1.46875 v -8.7266 h 1.46875 v 0.9688 q 0.6875,-0.5703 1.36718,-0.8906 0.6875,-0.3203 1.46094,-0.3203 0.89063,0 1.50781,0.375 0.625,0.375 0.92969,1.039 0.89063,-0.75 1.625,-1.0781 0.73438,-0.3359 1.57031,-0.3359 1.4375,0 2.11719,0.875 0.6875,0.8671 0.6875,2.4296 z"
         style="fill:#ff0000;fill-opacity:1"
         id="path5017" />
      <path
         d="m 183.08203,1612.3473 q 0,0.8672 -0.32812,1.5312 -0.32813,0.6641 -0.88282,1.0938 -0.65625,0.5156 -1.44531,0.7344 -0.78125,0.2187 -1.99219,0.2187 h -4.125 v -11.6328 h 3.44532 q 1.27343,0 1.90625,0.094 0.63281,0.094 1.21093,0.3907 0.64063,0.3359 0.92969,0.8672 0.28906,0.5234 0.28906,1.2578 0,0.8281 -0.42187,1.414 -0.42188,0.5782 -1.125,0.9297 v 0.062 q 1.17969,0.2422 1.85937,1.0391 0.67969,0.789 0.67969,2 z m -2.60156,-5.2422 q 0,-0.4219 -0.14063,-0.7109 -0.14062,-0.2891 -0.45312,-0.4688 -0.36719,-0.2109 -0.89063,-0.2578 -0.52343,-0.055 -1.29687,-0.055 h -1.84375 v 3.3594 h 2 q 0.72656,0 1.15625,-0.07 0.42969,-0.078 0.79687,-0.3125 0.36719,-0.2344 0.51563,-0.6016 0.15625,-0.375 0.15625,-0.8828 z m 0.99219,5.3047 q 0,-0.7031 -0.21094,-1.1172 -0.21094,-0.4141 -0.76563,-0.7031 -0.375,-0.1953 -0.91406,-0.25 -0.53125,-0.062 -1.29687,-0.062 h -2.42969 v 4.3281 h 2.04687 q 1.01563,0 1.66407,-0.1016 0.64843,-0.1093 1.0625,-0.3906 0.4375,-0.3047 0.64062,-0.6953 0.20313,-0.3906 0.20313,-1.0078 z"
         style="fill:#ff0000;fill-opacity:1"
         id="path5019" />
      <path
         d="m 192.59766,1611.566 q 0,2.1328 -1.09375,3.3672 -1.09375,1.2344 -2.92969,1.2344 -1.85156,0 -2.94531,-1.2344 -1.08594,-1.2344 -1.08594,-3.3672 0,-2.1328 1.08594,-3.3672 1.09375,-1.2421 2.94531,-1.2421 1.83594,0 2.92969,1.2421 1.09375,1.2344 1.09375,3.3672 z m -1.51563,0 q 0,-1.6953 -0.66406,-2.5156 -0.66406,-0.8281 -1.84375,-0.8281 -1.19531,0 -1.85938,0.8281 -0.65625,0.8203 -0.65625,2.5156 0,1.6407 0.66407,2.4922 0.66406,0.8438 1.85156,0.8438 1.17187,0 1.83594,-0.836 0.67187,-0.8437 0.67187,-2.5 z"
         style="fill:#ff0000;fill-opacity:1"
         id="path5021" />
      <path
         d="m 199.41016,1615.8473 q -0.41407,0.1094 -0.90625,0.1797 -0.48438,0.07 -0.86719,0.07 -1.33594,0 -2.03125,-0.7188 -0.69531,-0.7187 -0.69531,-2.3047 v -4.6406 h -0.99219 v -1.2344 h 0.99219 v -2.5078 h 1.46875 v 2.5078 h 3.03125 v 1.2344 h -3.03125 v 3.9766 q 0,0.6875 0.0312,1.0781 0.0312,0.3828 0.21875,0.7188 0.17187,0.3125 0.46875,0.4609 0.30468,0.1406 0.92187,0.1406 0.35938,0 0.75,-0.1015 0.39063,-0.1094 0.5625,-0.1797 h 0.0781 z"
         style="fill:#ff0000;fill-opacity:1"
         id="path5023" />
      <path
         d="m 205.72266,1615.8473 q -0.41407,0.1094 -0.90625,0.1797 -0.48438,0.07 -0.86719,0.07 -1.33594,0 -2.03125,-0.7188 -0.69531,-0.7187 -0.69531,-2.3047 v -4.6406 h -0.99219 v -1.2344 h 0.99219 v -2.5078 h 1.46875 v 2.5078 h 3.03125 v 1.2344 h -3.03125 v 3.9766 q 0,0.6875 0.0312,1.0781 0.0312,0.3828 0.21875,0.7188 0.17187,0.3125 0.46875,0.4609 0.30468,0.1406 0.92187,0.1406 0.35938,0 0.75,-0.1015 0.39063,-0.1094 0.5625,-0.1797 h 0.0781 z"
         style="fill:#ff0000;fill-opacity:1"
         id="path5025" />
      <path
         d="m 214.94141,1611.566 q 0,2.1328 -1.09375,3.3672 -1.09375,1.2344 -2.92969,1.2344 -1.85156,0 -2.94531,-1.2344 -1.08594,-1.2344 -1.08594,-3.3672 0,-2.1328 1.08594,-3.3672 1.09375,-1.2421 2.94531,-1.2421 1.83594,0 2.92969,1.2421 1.09375,1.2344 1.09375,3.3672 z m -1.51563,0 q 0,-1.6953 -0.66406,-2.5156 -0.66406,-0.8281 -1.84375,-0.8281 -1.19531,0 -1.85938,0.8281 -0.65625,0.8203 -0.65625,2.5156 0,1.6407 0.66407,2.4922 0.66406,0.8438 1.85156,0.8438 1.17187,0 1.83594,-0.836 0.67187,-0.8437 0.67187,-2.5 z"
         style="fill:#ff0000;fill-opacity:1"
         id="path5027" />
      <path
         d="m 229.95703,1615.9254 h -1.46875 v -4.9687 q 0,-0.5625 -0.0547,-1.086 -0.0469,-0.5234 -0.21093,-0.8359 -0.17969,-0.336 -0.51563,-0.5078 -0.33594,-0.1719 -0.96875,-0.1719 -0.61719,0 -1.23437,0.3125 -0.61719,0.3047 -1.23438,0.7812 0.0234,0.1797 0.0391,0.4219 0.0156,0.2344 0.0156,0.4688 v 5.5859 h -1.46875 v -4.9687 q 0,-0.5782 -0.0547,-1.0938 -0.0469,-0.5234 -0.21094,-0.8359 -0.17968,-0.336 -0.51562,-0.5 -0.33594,-0.1719 -0.96875,-0.1719 -0.60156,0 -1.21094,0.2969 -0.60156,0.2968 -1.20312,0.7578 v 6.5156 h -1.46875 v -8.7266 h 1.46875 v 0.9688 q 0.6875,-0.5703 1.36718,-0.8906 0.6875,-0.3203 1.46094,-0.3203 0.89063,0 1.50781,0.375 0.625,0.375 0.92969,1.039 0.89063,-0.75 1.625,-1.0781 0.73438,-0.3359 1.57031,-0.3359 1.4375,0 2.11719,0.875 0.6875,0.8671 0.6875,2.4296 z"
         style="fill:#ff0000;fill-opacity:1"
         id="path5029" />
      <path
         d="m 246.13672,1607.8082 q 0,0.7735 -0.27344,1.4375 -0.26562,0.6563 -0.75,1.1406 -0.60156,0.6016 -1.42187,0.9063 -0.82032,0.2969 -2.07032,0.2969 h -1.54687 v 4.3359 h -1.54688 v -11.6328 h 3.15625 q 1.04688,0 1.77344,0.1797 0.72656,0.1719 1.28906,0.5469 0.66407,0.4453 1.02344,1.1093 0.36719,0.6641 0.36719,1.6797 z m -1.60938,0.039 q 0,-0.6016 -0.21093,-1.0469 -0.21094,-0.4453 -0.64063,-0.7266 -0.375,-0.2421 -0.85937,-0.3437 -0.47657,-0.1094 -1.21094,-0.1094 h -1.53125 v 4.6485 h 1.30469 q 0.9375,0 1.52343,-0.1641 0.58594,-0.1719 0.95313,-0.5391 0.36719,-0.375 0.51562,-0.789 0.15625,-0.4141 0.15625,-0.9297 z"
         style="fill:#ff0000;fill-opacity:1"
         id="path5031" />
      <path
         d="m 249.55078,1615.9254 h -1.46875 v -12.1562 h 1.46875 z"
         style="fill:#ff0000;fill-opacity:1"
         id="path5033" />
      <path
         d="m 259.19141,1615.9254 h -1.46094 v -0.9297 q -0.19531,0.1328 -0.53125,0.375 -0.32813,0.2344 -0.64063,0.375 -0.36718,0.1797 -0.84375,0.2969 -0.47656,0.125 -1.11718,0.125 -1.17969,0 -2,-0.7813 -0.82032,-0.7812 -0.82032,-1.9921 0,-0.9922 0.42188,-1.6016 0.42969,-0.6172 1.21875,-0.9688 0.79687,-0.3515 1.91406,-0.4765 1.11719,-0.125 2.39844,-0.1875 v -0.2266 q 0,-0.5 -0.17969,-0.8281 -0.17187,-0.3281 -0.5,-0.5156 -0.3125,-0.1797 -0.75,-0.2422 -0.4375,-0.062 -0.91406,-0.062 -0.57813,0 -1.28906,0.1562 -0.71094,0.1485 -1.46875,0.4375 h -0.0781 v -1.4922 q 0.42969,-0.1171 1.24219,-0.2578 0.8125,-0.1406 1.60156,-0.1406 0.92188,0 1.60156,0.1563 0.6875,0.1484 1.1875,0.5156 0.49219,0.3594 0.75,0.9297 0.25782,0.5703 0.25782,1.414 z m -1.46094,-2.1484 v -2.4297 q -0.67188,0.039 -1.58594,0.1172 -0.90625,0.078 -1.4375,0.2265 -0.63281,0.1797 -1.02344,0.5625 -0.39062,0.375 -0.39062,1.0391 0,0.75 0.45312,1.1328 0.45313,0.375 1.38282,0.375 0.77343,0 1.41406,-0.2969 0.64062,-0.3047 1.1875,-0.7265 z"
         style="fill:#ff0000;fill-opacity:1"
         id="path5035" />
      <path
         d="m 266.56641,1615.8473 q -0.41407,0.1094 -0.90625,0.1797 -0.48438,0.07 -0.86719,0.07 -1.33594,0 -2.03125,-0.7188 -0.69531,-0.7187 -0.69531,-2.3047 v -4.6406 h -0.99219 v -1.2344 h 0.99219 v -2.5078 h 1.46875 v 2.5078 h 3.03125 v 1.2344 h -3.03125 v 3.9766 q 0,0.6875 0.0312,1.0781 0.0312,0.3828 0.21875,0.7188 0.17187,0.3125 0.46875,0.4609 0.30468,0.1406 0.92187,0.1406 0.35938,0 0.75,-0.1015 0.39063,-0.1094 0.5625,-0.1797 h 0.0781 z"
         style="fill:#ff0000;fill-opacity:1"
         id="path5037" />
      <path
         d="m 275.65234,1611.7145 h -6.42968 q 0,0.8047 0.24218,1.4062 0.24219,0.5938 0.66407,0.9766 0.40625,0.375 0.96093,0.5625 0.5625,0.1875 1.23438,0.1875 0.89062,0 1.78906,-0.3516 0.90625,-0.3594 1.28906,-0.7031 h 0.0781 v 1.6016 q -0.74219,0.3125 -1.51563,0.5234 -0.77343,0.2109 -1.625,0.2109 -2.17187,0 -3.39062,-1.1718 -1.21875,-1.1797 -1.21875,-3.3438 0,-2.1406 1.16406,-3.3984 1.17188,-1.2578 3.07813,-1.2578 1.76562,0 2.71875,1.0312 0.96093,1.0313 0.96093,2.9297 z m -1.42968,-1.125 q -0.008,-1.1563 -0.58594,-1.7891 -0.57031,-0.6328 -1.74219,-0.6328 -1.17969,0 -1.88281,0.6953 -0.69531,0.6953 -0.78906,1.7266 z"
         style="fill:#ff0000;fill-opacity:1"
         id="path5039" />
    </g>
    <g
       id="g5306"
       inkscape:label="0"
       transform="matrix(0.26458333,0,0,-0.26458333,161.05477,161.3232)">
      <path
         id="path5304"
         style="fill:none;stroke:#000000"
         d="m -83.338583,306.51968 v 18.89764 a 7.7480315,7.7480315 0 0 0 15.496063,0 v -18.89764 h 56.503937 A 11.338583,11.338583 0 0 1 0,317.85827 v 793.32283 a 11.338583,11.338583 0 0 1 -11.338583,11.3386 H -67.84252 v -18.8977 a 7.7480315,7.7480315 0 0 0 -15.496063,0 v 18.8977 H -521.38583 v -18.8977 a 7.7480315,7.7480315 0 0 0 -15.49606,0 v 18.8977 h -11.14961 a 56.692913,56.692913 0 0 1 -56.69291,-56.6929 V 363.2126 a 56.692913,56.692913 0 0 1 56.69291,-56.69292 h 11.14961 v 18.89764 a 7.7480315,7.7480315 0 0 0 15.49606,0 v -18.89764 h 30.04725 v 45.35434 A 11.338583,11.338583 0 0 0 -480,363.2126 h 355.27559 a 11.338583,11.338583 0 0 0 11.33858,-11.33858 v -45.35434 z"
         inkscape:connector-curvature="0" />
    </g>
    <g
       id="g5396"
       inkscape:label="0"
       transform="matrix(-0.26458333,0,0,-0.26458333,164.90373,161.32321)">
      <path
         id="path5394"
         style="fill:none;stroke:#000000"
         d="m -83.338583,306.51968 v 18.89764 a 7.7480315,7.7480315 0 0 0 15.496063,0 v -18.89764 h 56.503937 A 11.338583,11.338583 0 0 1 0,317.85827 v 793.32283 a 11.338583,11.338583 0 0 1 -11.338583,11.3386 H -67.84252 v -18.8977 a 7.7480315,7.7480315 0 0 0 -15.496063,0 v 18.8977 H -521.38583 v -18.8977 a 7.7480315,7.7480315 0 0 0 -15.49606,0 v 18.8977 h -11.14961 a 56.692913,56.692913 0 0 1 -56.69291,-56.6929 V 363.2126 a 56.692913,56.692913 0 0 1 56.69291,-56.69292 h 11.14961 v 18.89764 a 7.7480315,7.7480315 0 0 0 15.49606,0 v -18.89764 h 30.04725 v 45.35434 A 11.338583,11.338583 0 0 0 -480,363.2126 h 355.27559 a 11.338583,11.338583 0 0 0 11.33858,-11.33858 v -45.35434 z"
         inkscape:connector-curvature="0" />
    </g>
    <g
       aria-label="Top Shelf"
       transform="matrix(0.26458333,0,0,0.26458333,-286.33475,-136.3863)"
       style="font-style:normal;font-weight:normal;font-size:16px;line-height:1.25;font-family:sans-serif;letter-spacing:0px;word-spacing:0px;fill:#ff0000;fill-opacity:1;stroke:none"
       id="flowRoot4838-9">
      <path
         d="m 1120.5234,771.1383 h -4.1562 v 10.25781 h -1.5469 V 771.1383 h -4.1562 v -1.375 h 9.8593 z"
         id="path4846-7"
         inkscape:connector-curvature="0" />
      <path
         d="m 1127.7031,777.03674 q 0,2.13281 -1.0937,3.36719 -1.0938,1.23437 -2.9297,1.23437 -1.8516,0 -2.9453,-1.23437 -1.086,-1.23438 -1.086,-3.36719 0,-2.13281 1.086,-3.36719 1.0937,-1.24219 2.9453,-1.24219 1.8359,0 2.9297,1.24219 1.0937,1.23438 1.0937,3.36719 z m -1.5156,0 q 0,-1.69531 -0.6641,-2.51563 -0.664,-0.82812 -1.8437,-0.82812 -1.1953,0 -1.8594,0.82812 -0.6562,0.82032 -0.6562,2.51563 0,1.64062 0.664,2.49219 0.6641,0.84375 1.8516,0.84375 1.1719,0 1.8359,-0.83594 0.6719,-0.84375 0.6719,-2.5 z"
         id="path4848-5"
         inkscape:connector-curvature="0" />
      <path
         d="m 1137.6641,776.92736 q 0,1.0625 -0.3047,1.94532 -0.3047,0.875 -0.8594,1.48437 -0.5156,0.57813 -1.2187,0.89844 -0.6954,0.3125 -1.4766,0.3125 -0.6797,0 -1.2344,-0.14844 -0.5469,-0.14844 -1.1172,-0.46094 v 3.65625 h -1.4687 v -11.94531 h 1.4687 v 0.91406 q 0.586,-0.49218 1.3125,-0.82031 0.7344,-0.33594 1.5625,-0.33594 1.5782,0 2.4532,1.19532 0.8828,1.1875 0.8828,3.30468 z m -1.5157,0.0391 q 0,-1.57813 -0.539,-2.35938 -0.5391,-0.78125 -1.6563,-0.78125 -0.6328,0 -1.2734,0.27344 -0.6406,0.27344 -1.2266,0.71875 v 4.94531 q 0.625,0.28125 1.0703,0.38281 0.4532,0.10157 1.0235,0.10157 1.2265,0 1.914,-0.82813 0.6875,-0.82812 0.6875,-2.45312 z"
         id="path4850-7"
         inkscape:connector-curvature="0" />
      <path
         d="m 1154.1484,778.0758 q 0,0.67969 -0.3203,1.34375 -0.3125,0.66406 -0.8828,1.125 -0.625,0.5 -1.4609,0.78125 -0.8281,0.28125 -2,0.28125 -1.2578,0 -2.2656,-0.23437 -1,-0.23438 -2.0391,-0.69532 v -1.9375 h 0.1094 q 0.8828,0.73438 2.039,1.13282 1.1563,0.39843 2.1719,0.39843 1.4375,0 2.2344,-0.53906 0.8047,-0.53906 0.8047,-1.4375 0,-0.77344 -0.3828,-1.14062 -0.375,-0.36719 -1.1485,-0.57032 -0.5859,-0.15625 -1.2734,-0.25781 -0.6797,-0.10156 -1.4453,-0.25781 -1.5469,-0.32813 -2.2969,-1.11719 -0.7422,-0.79687 -0.7422,-2.07031 0,-1.46094 1.2344,-2.39063 1.2344,-0.9375 3.1328,-0.9375 1.2266,0 2.25,0.23438 1.0234,0.23437 1.8125,0.57812 v 1.82813 h -0.1094 q -0.664,-0.5625 -1.75,-0.92969 -1.0781,-0.375 -2.2109,-0.375 -1.2422,0 -2,0.51563 -0.75,0.51562 -0.75,1.32812 0,0.72656 0.375,1.14063 0.375,0.41406 1.3203,0.63281 0.5,0.10937 1.4219,0.26562 0.9218,0.15625 1.5625,0.32032 1.2968,0.34375 1.9531,1.03906 0.6562,0.69531 0.6562,1.94531 z"
         id="path4852-8"
         inkscape:connector-curvature="0" />
      <path
         d="m 1163.8125,781.39611 h -1.4687 v -4.96875 q 0,-0.60156 -0.07,-1.125 -0.07,-0.53125 -0.2578,-0.82812 -0.1953,-0.32813 -0.5625,-0.48438 -0.3672,-0.16406 -0.9531,-0.16406 -0.6016,0 -1.2578,0.29688 -0.6563,0.29687 -1.2578,0.75781 v 6.51562 h -1.4688 v -12.15625 h 1.4688 v 4.39844 q 0.6875,-0.57031 1.4219,-0.89062 0.7343,-0.32032 1.5078,-0.32032 1.414,0 2.1562,0.85157 0.7422,0.85156 0.7422,2.45312 z"
         id="path4854-6"
         inkscape:connector-curvature="0" />
      <path
         d="m 1173.9453,777.18518 h -6.4297 q 0,0.80468 0.2422,1.40625 0.2422,0.59375 0.6641,0.97656 0.4062,0.375 0.9609,0.5625 0.5625,0.1875 1.2344,0.1875 0.8906,0 1.7891,-0.35156 0.9062,-0.35938 1.289,-0.70313 h 0.078 v 1.60156 q -0.7421,0.3125 -1.5156,0.52344 -0.7734,0.21094 -1.625,0.21094 -2.1719,0 -3.3906,-1.17188 -1.2188,-1.17968 -1.2188,-3.34375 0,-2.14062 1.1641,-3.39843 1.1719,-1.25782 3.0781,-1.25782 1.7657,0 2.7188,1.03125 0.9609,1.03125 0.9609,2.92969 z m -1.4297,-1.125 q -0.01,-1.15625 -0.5859,-1.78907 -0.5703,-0.63281 -1.7422,-0.63281 -1.1797,0 -1.8828,0.69531 -0.6953,0.69532 -0.7891,1.72657 z"
         id="path4856-9"
         inkscape:connector-curvature="0" />
      <path
         d="m 1177.6563,781.39611 h -1.4688 v -12.15625 h 1.4688 z"
         id="path4858-9"
         inkscape:connector-curvature="0" />
      <path
         d="m 1185.2109,770.66174 h -0.078 q -0.2422,-0.0703 -0.6328,-0.14063 -0.3906,-0.0781 -0.6875,-0.0781 -0.9453,0 -1.375,0.42187 -0.4219,0.41407 -0.4219,1.50782 v 0.29687 h 2.6485 v 1.23438 h -2.6016 v 7.49218 h -1.4687 v -7.49218 h -0.9922 v -1.23438 h 0.9922 v -0.28906 q 0,-1.55469 0.7734,-2.38281 0.7734,-0.83594 2.2344,-0.83594 0.4922,0 0.8828,0.0469 0.3984,0.0469 0.7265,0.10938 z"
         id="path4860-6"
         inkscape:connector-curvature="0" />
    </g>
  </g>
</svg>
