<?xml version="1.0" encoding="UTF-8" standalone="no"?>
<!-- Created with Inkscape (http://www.inkscape.org/) -->

<svg
   xmlns:dc="http://purl.org/dc/elements/1.1/"
   xmlns:cc="http://creativecommons.org/ns#"
   xmlns:rdf="http://www.w3.org/1999/02/22-rdf-syntax-ns#"
   xmlns:svg="http://www.w3.org/2000/svg"
   xmlns="http://www.w3.org/2000/svg"
   xmlns:sodipodi="http://sodipodi.sourceforge.net/DTD/sodipodi-0.dtd"
   xmlns:inkscape="http://www.inkscape.org/namespaces/inkscape"
   width="278mm"
   height="292mm"
   viewBox="0 0 278 292"
   version="1.1"
   id="svg9682"
   inkscape:version="0.92.1 r15371"
   sodipodi:docname="mtm_30_double_plate_v1.svg"
   inkscape:export-filename="G:\My Drive\Personal\jdeation\Compact Case Photos\mtm30dd.png"
   inkscape:export-xdpi="96"
   inkscape:export-ydpi="96">
  <defs
     id="defs9676">
    <marker
       style="overflow:visible"
       refY="0"
       refX="0"
       orient="auto"
       id="DistanceX">
      <path
         id="path10229"
         style="stroke:#000000;stroke-width:0.5"
         d="M 3,-3 -3,3 M 0,-5 V 5"
         inkscape:connector-curvature="0" />
    </marker>
    <pattern
       y="0"
       x="0"
       width="8"
       patternUnits="userSpaceOnUse"
       id="Hatch"
       height="8">
      <path
         id="path10232"
         stroke-width="0.25"
         stroke="#000000"
         linecap="square"
         d="M8 4 l-4,4" />
      <path
         id="path10234"
         stroke-width="0.25"
         stroke="#000000"
         linecap="square"
         d="M6 2 l-4,4" />
      <path
         id="path10236"
         stroke-width="0.25"
         stroke="#000000"
         linecap="square"
         d="M4 0 l-4,4" />
    </pattern>
    <symbol
       id="*MODEL_SPACE" />
    <symbol
       id="*PAPER_SPACE" />
    <marker
       style="overflow:visible"
       refY="0"
       refX="0"
       orient="auto"
       id="DistanceX-1">
      <path
         id="path10283"
         style="stroke:#000000;stroke-width:0.5"
         d="M 3,-3 -3,3 M 0,-5 V 5"
         inkscape:connector-curvature="0" />
    </marker>
    <pattern
       y="0"
       x="0"
       width="8"
       patternUnits="userSpaceOnUse"
       id="Hatch-7"
       height="8">
      <path
         id="path10286"
         stroke-width="0.25"
         stroke="#000000"
         linecap="square"
         d="M8 4 l-4,4" />
      <path
         id="path10288"
         stroke-width="0.25"
         stroke="#000000"
         linecap="square"
         d="M6 2 l-4,4" />
      <path
         id="path10290"
         stroke-width="0.25"
         stroke="#000000"
         linecap="square"
         d="M4 0 l-4,4" />
    </pattern>
    <symbol
       id="*MODEL_SPACE-5" />
    <symbol
       id="*PAPER_SPACE-8" />
    <marker
       style="overflow:visible"
       refY="0"
       refX="0"
       orient="auto"
       id="DistanceX-5">
      <path
         id="path4573"
         style="stroke:#000000;stroke-width:0.5"
         d="M 3,-3 -3,3 M 0,-5 V 5"
         inkscape:connector-curvature="0" />
    </marker>
    <pattern
       y="0"
       x="0"
       width="8"
       patternUnits="userSpaceOnUse"
       id="Hatch-3"
       height="8">
      <path
         id="path4576"
         stroke-width="0.25"
         stroke="#000000"
         linecap="square"
         d="M8 4 l-4,4" />
      <path
         id="path4578"
         stroke-width="0.25"
         stroke="#000000"
         linecap="square"
         d="M6 2 l-4,4" />
      <path
         id="path4580"
         stroke-width="0.25"
         stroke="#000000"
         linecap="square"
         d="M4 0 l-4,4" />
    </pattern>
    <symbol
       id="*MODEL_SPACE-6" />
    <symbol
       id="*PAPER_SPACE-6" />
    <marker
       style="overflow:visible"
       refY="0"
       refX="0"
       orient="auto"
       id="DistanceX-7">
      <path
         id="path4639"
         style="stroke:#000000;stroke-width:0.5"
         d="M 3,-3 -3,3 M 0,-5 V 5"
         inkscape:connector-curvature="0" />
    </marker>
    <pattern
       y="0"
       x="0"
       width="8"
       patternUnits="userSpaceOnUse"
       id="Hatch-1"
       height="8">
      <path
         id="path4642"
         stroke-width="0.25"
         stroke="#000000"
         linecap="square"
         d="M8 4 l-4,4" />
      <path
         id="path4644"
         stroke-width="0.25"
         stroke="#000000"
         linecap="square"
         d="M6 2 l-4,4" />
      <path
         id="path4646"
         stroke-width="0.25"
         stroke="#000000"
         linecap="square"
         d="M4 0 l-4,4" />
    </pattern>
    <symbol
       id="*MODEL_SPACE-1" />
    <symbol
       id="*PAPER_SPACE-9" />
    <marker
       style="overflow:visible"
       refY="0"
       refX="0"
       orient="auto"
       id="DistanceX-10">
      <path
         id="path4653"
         style="stroke:#000000;stroke-width:0.5"
         d="M 3,-3 -3,3 M 0,-5 V 5"
         inkscape:connector-curvature="0" />
    </marker>
    <pattern
       y="0"
       x="0"
       width="8"
       patternUnits="userSpaceOnUse"
       id="Hatch-4"
       height="8">
      <path
         id="path4656"
         stroke-width="0.25"
         stroke="#000000"
         linecap="square"
         d="M8 4 l-4,4" />
      <path
         id="path4658"
         stroke-width="0.25"
         stroke="#000000"
         linecap="square"
         d="M6 2 l-4,4" />
      <path
         id="path4660"
         stroke-width="0.25"
         stroke="#000000"
         linecap="square"
         d="M4 0 l-4,4" />
    </pattern>
    <symbol
       id="*MODEL_SPACE-4" />
    <symbol
       id="*PAPER_SPACE-81" />
    <marker
       style="overflow:visible"
       refY="0"
       refX="0"
       orient="auto"
       id="DistanceX-2">
      <path
         id="path4743"
         style="stroke:#000000;stroke-width:0.5"
         d="M 3,-3 -3,3 M 0,-5 V 5"
         inkscape:connector-curvature="0" />
    </marker>
    <pattern
       y="0"
       x="0"
       width="8"
       patternUnits="userSpaceOnUse"
       id="Hatch-5"
       height="8">
      <path
         id="path4746"
         stroke-width="0.25"
         stroke="#000000"
         linecap="square"
         d="M8 4 l-4,4" />
      <path
         id="path4748"
         stroke-width="0.25"
         stroke="#000000"
         linecap="square"
         d="M6 2 l-4,4" />
      <path
         id="path4750"
         stroke-width="0.25"
         stroke="#000000"
         linecap="square"
         d="M4 0 l-4,4" />
    </pattern>
    <symbol
       id="*MODEL_SPACE-49" />
    <symbol
       id="*PAPER_SPACE-2" />
  </defs>
  <sodipodi:namedview
     id="base"
     pagecolor="#ffffff"
     bordercolor="#666666"
     borderopacity="1.0"
     inkscape:pageopacity="0.0"
     inkscape:pageshadow="2"
     inkscape:zoom="0.60293758"
     inkscape:cx="538.31482"
     inkscape:cy="533.2801"
     inkscape:document-units="mm"
     inkscape:current-layer="layer1"
     showgrid="false"
     inkscape:window-width="1920"
     inkscape:window-height="1017"
     inkscape:window-x="-8"
     inkscape:window-y="-8"
     inkscape:window-maximized="1" />
  <metadata
     id="metadata9679">
    <rdf:RDF>
      <cc:Work
         rdf:about="">
        <dc:format>image/svg+xml</dc:format>
        <dc:type
           rdf:resource="http://purl.org/dc/dcmitype/StillImage" />
        <dc:title></dc:title>
      </cc:Work>
    </rdf:RDF>
  </metadata>
  <g
     inkscape:label="Layer 1"
     inkscape:groupmode="layer"
     id="layer1"
     transform="translate(0,-5)">
    <g
       aria-label="MTM 30 Double Decker Plate v1.0 - Bottom Plate"
       transform="matrix(0.26458333,0,0,0.26458333,76.853484,16.255529)"
       style="font-style:normal;font-weight:normal;font-size:16px;line-height:1.25;font-family:sans-serif;letter-spacing:0px;word-spacing:0px;fill:#ff0000;fill-opacity:1;stroke:none"
       id="flowRoot10343">
      <path
         d="m 256.29297,1054.5856 h -1.54688 v -10.0235 l -3.23437,6.8203 h -0.92188 l -3.21093,-6.8203 v 10.0235 h -1.44532 v -11.6328 h 2.10938 l 3.10156,6.4765 3,-6.4765 h 2.14844 z"
         id="path10376"
         inkscape:connector-curvature="0" />
      <path
         d="m 267.73047,1044.3278 h -4.15625 v 10.2578 h -1.54688 v -10.2578 h -4.15625 v -1.375 h 9.85938 z"
         id="path10378"
         inkscape:connector-curvature="0" />
      <path
         d="m 279.66797,1054.5856 h -1.54688 v -10.0235 l -3.23437,6.8203 h -0.92188 l -3.21093,-6.8203 v 10.0235 h -1.44532 v -11.6328 h 2.10938 l 3.10156,6.4765 3,-6.4765 h 2.14844 z"
         id="path10380"
         inkscape:connector-curvature="0" />
      <path
         d="m 294.98047,1048.984 q 0.375,0.3359 0.61719,0.8438 0.24218,0.5078 0.24218,1.3125 0,0.7968 -0.28906,1.4609 -0.28906,0.6641 -0.8125,1.1562 -0.58594,0.5469 -1.38281,0.8125 -0.78906,0.2579 -1.73438,0.2579 -0.96875,0 -1.90625,-0.2344 -0.9375,-0.2266 -1.53906,-0.5 v -1.6328 h 0.11719 q 0.66406,0.4375 1.5625,0.7265 0.89844,0.2891 1.73437,0.2891 0.49219,0 1.04688,-0.1641 0.55469,-0.164 0.89844,-0.4843 0.35937,-0.3438 0.53125,-0.7579 0.17968,-0.414 0.17968,-1.0468 0,-0.625 -0.20312,-1.0313 -0.19531,-0.414 -0.54688,-0.6484 -0.35156,-0.2422 -0.85156,-0.3281 -0.5,-0.094 -1.07812,-0.094 h -0.70313 v -1.2969 h 0.54688 q 1.1875,0 1.89062,-0.4922 0.71094,-0.5 0.71094,-1.4531 0,-0.4219 -0.17969,-0.7344 -0.17969,-0.3203 -0.5,-0.5234 -0.33594,-0.2031 -0.71875,-0.2812 -0.38281,-0.078 -0.86719,-0.078 -0.74218,0 -1.57812,0.2657 -0.83594,0.2656 -1.57813,0.75 h -0.0781 v -1.6329 q 0.55469,-0.2734 1.47656,-0.5 0.92969,-0.2343 1.79688,-0.2343 0.85156,0 1.5,0.1562 0.64843,0.1563 1.17187,0.5 0.5625,0.375 0.85156,0.9063 0.28907,0.5312 0.28907,1.2422 0,0.9687 -0.6875,1.6953 -0.67969,0.7187 -1.60938,0.9062 v 0.1094 q 0.375,0.062 0.85938,0.2656 0.48437,0.1953 0.82031,0.4922 z"
         id="path10382"
         inkscape:connector-curvature="0" />
      <path
         d="m 306.17578,1048.7653 q 0,3.1328 -0.98437,4.6015 -0.97657,1.461 -3.03907,1.461 -2.09375,0 -3.0625,-1.4844 -0.96093,-1.4844 -0.96093,-4.5625 0,-3.1016 0.97656,-4.5781 0.97656,-1.4844 3.04687,-1.4844 2.09375,0 3.05469,1.5078 0.96875,1.5 0.96875,4.5391 z m -2.05469,3.5468 q 0.27344,-0.6328 0.36719,-1.4843 0.10156,-0.8594 0.10156,-2.0625 0,-1.1875 -0.10156,-2.0625 -0.0937,-0.875 -0.375,-1.4844 -0.27344,-0.6016 -0.75,-0.9063 -0.46875,-0.3047 -1.21094,-0.3047 -0.73437,0 -1.21875,0.3047 -0.47656,0.3047 -0.75781,0.9219 -0.26562,0.5781 -0.36719,1.5078 -0.0937,0.9297 -0.0937,2.0391 0,1.2187 0.0859,2.039 0.0859,0.8204 0.36719,1.4688 0.25781,0.6094 0.72656,0.9297 0.47656,0.3203 1.25781,0.3203 0.73438,0 1.21875,-0.3047 0.48438,-0.3047 0.75,-0.9219 z"
         id="path10384"
         inkscape:connector-curvature="0" />
      <path
         d="m 324.26172,1048.7809 q 0,1.5859 -0.69531,2.875 -0.6875,1.289 -1.83594,2 -0.79688,0.4922 -1.78125,0.7109 -0.97656,0.2188 -2.57813,0.2188 h -2.9375 v -11.6328 h 2.90625 q 1.70313,0 2.70313,0.25 1.00781,0.2421 1.70312,0.6718 1.1875,0.7422 1.85157,1.9766 0.66406,1.2344 0.66406,2.9297 z m -1.61719,-0.024 q 0,-1.3671 -0.47656,-2.3046 -0.47656,-0.9375 -1.42188,-1.4766 -0.6875,-0.3906 -1.46093,-0.5391 -0.77344,-0.1562 -1.85157,-0.1562 h -1.45312 v 8.9765 h 1.45312 q 1.11719,0 1.94532,-0.164 0.83593,-0.1641 1.53125,-0.6094 0.86718,-0.5547 1.29687,-1.4609 0.4375,-0.9063 0.4375,-2.2657 z"
         id="path10386"
         inkscape:connector-curvature="0" />
      <path
         d="m 334.09766,1050.2262 q 0,2.1328 -1.09375,3.3672 -1.09375,1.2344 -2.92969,1.2344 -1.85156,0 -2.94531,-1.2344 -1.08594,-1.2344 -1.08594,-3.3672 0,-2.1328 1.08594,-3.3672 1.09375,-1.2422 2.94531,-1.2422 1.83594,0 2.92969,1.2422 1.09375,1.2344 1.09375,3.3672 z m -1.51563,0 q 0,-1.6953 -0.66406,-2.5156 -0.66406,-0.8282 -1.84375,-0.8282 -1.19531,0 -1.85938,0.8282 -0.65625,0.8203 -0.65625,2.5156 0,1.6406 0.66407,2.4922 0.66406,0.8437 1.85156,0.8437 1.17187,0 1.83594,-0.8359 0.67187,-0.8438 0.67187,-2.5 z"
         id="path10388"
         inkscape:connector-curvature="0" />
      <path
         d="m 343.61328,1054.5856 h -1.46875 v -0.9688 q -0.74219,0.586 -1.42187,0.8985 -0.67969,0.3125 -1.5,0.3125 -1.375,0 -2.14063,-0.836 -0.76562,-0.8437 -0.76562,-2.4687 v -5.6641 h 1.46875 v 4.9688 q 0,0.664 0.0625,1.1406 0.0625,0.4687 0.26562,0.8047 0.21094,0.3437 0.54688,0.5 0.33593,0.1562 0.97656,0.1562 0.57031,0 1.24219,-0.2969 0.67968,-0.2968 1.26562,-0.7578 v -6.5156 h 1.46875 z"
         id="path10390"
         inkscape:connector-curvature="0" />
      <path
         d="m 354.18359,1050.1559 q 0,1.0937 -0.3125,1.9687 -0.30468,0.875 -0.82812,1.4688 -0.55469,0.6172 -1.21875,0.9297 -0.66406,0.3047 -1.46094,0.3047 -0.74219,0 -1.29687,-0.1797 -0.55469,-0.1719 -1.09375,-0.4688 l -0.0937,0.4063 h -1.375 v -12.1563 h 1.46875 v 4.3438 q 0.61718,-0.5078 1.3125,-0.8282 0.69531,-0.3281 1.5625,-0.3281 1.54687,0 2.4375,1.1875 0.89843,1.1875 0.89843,3.3516 z m -1.51562,0.039 q 0,-1.5625 -0.51563,-2.3671 -0.51562,-0.8125 -1.66406,-0.8125 -0.64062,0 -1.29687,0.2812 -0.65625,0.2734 -1.21875,0.7109 v 5 q 0.625,0.2813 1.07031,0.3907 0.45312,0.1093 1.02344,0.1093 1.21875,0 1.90625,-0.7968 0.69531,-0.8047 0.69531,-2.5157 z"
         id="path10392"
         inkscape:connector-curvature="0" />
      <path
         d="m 357.95703,1054.5856 h -1.46875 v -12.1563 h 1.46875 z"
         id="path10394"
         inkscape:connector-curvature="0" />
      <path
         d="m 368.12109,1050.3746 h -6.42968 q 0,0.8047 0.24218,1.4063 0.24219,0.5937 0.66407,0.9765 0.40625,0.375 0.96093,0.5625 0.5625,0.1875 1.23438,0.1875 0.89062,0 1.78906,-0.3515 0.90625,-0.3594 1.28906,-0.7031 h 0.0781 v 1.6015 q -0.74219,0.3125 -1.51563,0.5235 -0.77343,0.2109 -1.625,0.2109 -2.17187,0 -3.39062,-1.1719 -1.21875,-1.1797 -1.21875,-3.3437 0,-2.1407 1.16406,-3.3985 1.17188,-1.2578 3.07813,-1.2578 1.76562,0 2.71875,1.0313 0.96093,1.0312 0.96093,2.9297 z m -1.42968,-1.125 q -0.008,-1.1562 -0.58594,-1.789 -0.57031,-0.6328 -1.74219,-0.6328 -1.17969,0 -1.88281,0.6953 -0.69531,0.6953 -0.78906,1.7265 z"
         id="path10396"
         inkscape:connector-curvature="0" />
      <path
         d="m 385.91797,1048.7809 q 0,1.5859 -0.69531,2.875 -0.6875,1.289 -1.83594,2 -0.79688,0.4922 -1.78125,0.7109 -0.97656,0.2188 -2.57813,0.2188 h -2.9375 v -11.6328 h 2.90625 q 1.70313,0 2.70313,0.25 1.00781,0.2421 1.70312,0.6718 1.1875,0.7422 1.85157,1.9766 0.66406,1.2344 0.66406,2.9297 z m -1.61719,-0.024 q 0,-1.3671 -0.47656,-2.3046 -0.47656,-0.9375 -1.42188,-1.4766 -0.6875,-0.3906 -1.46093,-0.5391 -0.77344,-0.1562 -1.85157,-0.1562 h -1.45312 v 8.9765 h 1.45312 q 1.11719,0 1.94532,-0.164 0.83593,-0.1641 1.53125,-0.6094 0.86718,-0.5547 1.29687,-1.4609 0.4375,-0.9063 0.4375,-2.2657 z"
         id="path10398"
         inkscape:connector-curvature="0" />
      <path
         d="m 395.62109,1050.3746 h -6.42968 q 0,0.8047 0.24218,1.4063 0.24219,0.5937 0.66407,0.9765 0.40625,0.375 0.96093,0.5625 0.5625,0.1875 1.23438,0.1875 0.89062,0 1.78906,-0.3515 0.90625,-0.3594 1.28906,-0.7031 h 0.0781 v 1.6015 q -0.74219,0.3125 -1.51563,0.5235 -0.77343,0.2109 -1.625,0.2109 -2.17187,0 -3.39062,-1.1719 -1.21875,-1.1797 -1.21875,-3.3437 0,-2.1407 1.16406,-3.3985 1.17188,-1.2578 3.07813,-1.2578 1.76562,0 2.71875,1.0313 0.96093,1.0312 0.96093,2.9297 z m -1.42968,-1.125 q -0.008,-1.1562 -0.58594,-1.789 -0.57031,-0.6328 -1.74219,-0.6328 -1.17969,0 -1.88281,0.6953 -0.69531,0.6953 -0.78906,1.7265 z"
         id="path10400"
         inkscape:connector-curvature="0" />
      <path
         d="m 404.30078,1054.0387 q -0.73437,0.3516 -1.39844,0.5469 -0.65625,0.1953 -1.39843,0.1953 -0.94532,0 -1.73438,-0.2735 -0.78906,-0.2812 -1.35156,-0.8437 -0.57031,-0.5625 -0.88281,-1.4219 -0.3125,-0.8594 -0.3125,-2.0078 0,-2.1406 1.17187,-3.3594 1.17969,-1.2187 3.10938,-1.2187 0.75,0 1.46875,0.2109 0.72656,0.211 1.32812,0.5156 v 1.6329 h -0.0781 q -0.67188,-0.5235 -1.39063,-0.8047 -0.71094,-0.2813 -1.39062,-0.2813 -1.25,0 -1.97657,0.8438 -0.71875,0.8359 -0.71875,2.4609 0,1.5781 0.70313,2.4297 0.71094,0.8437 1.99219,0.8437 0.44531,0 0.90625,-0.1171 0.46093,-0.1172 0.82812,-0.3047 0.32031,-0.1641 0.60156,-0.3438 0.28125,-0.1875 0.44532,-0.3203 h 0.0781 z"
         id="path10402"
         inkscape:connector-curvature="0" />
      <path
         d="m 414.11328,1054.5856 h -1.9375 l -3.5,-3.8203 -0.95312,0.9062 v 2.9141 h -1.46875 v -12.1563 h 1.46875 v 7.7969 l 4.24218,-4.3672 h 1.85157 l -4.05469,4.0313 z"
         id="path10404"
         inkscape:connector-curvature="0" />
      <path
         d="m 422.80859,1050.3746 h -6.42968 q 0,0.8047 0.24218,1.4063 0.24219,0.5937 0.66407,0.9765 0.40625,0.375 0.96093,0.5625 0.5625,0.1875 1.23438,0.1875 0.89062,0 1.78906,-0.3515 0.90625,-0.3594 1.28906,-0.7031 h 0.0781 v 1.6015 q -0.74219,0.3125 -1.51563,0.5235 -0.77343,0.2109 -1.625,0.2109 -2.17187,0 -3.39062,-1.1719 -1.21875,-1.1797 -1.21875,-3.3437 0,-2.1407 1.16406,-3.3985 1.17188,-1.2578 3.07813,-1.2578 1.76562,0 2.71875,1.0313 0.96093,1.0312 0.96093,2.9297 z m -1.42968,-1.125 q -0.008,-1.1562 -0.58594,-1.789 -0.57031,-0.6328 -1.74219,-0.6328 -1.17969,0 -1.88281,0.6953 -0.69531,0.6953 -0.78906,1.7265 z"
         id="path10406"
         inkscape:connector-curvature="0" />
      <path
         d="m 430.48047,1047.4606 h -0.0781 q -0.32812,-0.078 -0.64062,-0.1094 -0.30469,-0.039 -0.72656,-0.039 -0.67969,0 -1.3125,0.3047 -0.63282,0.2969 -1.21875,0.7735 v 6.1953 h -1.46875 v -8.7266 h 1.46875 v 1.2891 q 0.875,-0.7032 1.53906,-0.9922 0.67187,-0.2969 1.36719,-0.2969 0.38281,0 0.55468,0.023 0.17188,0.016 0.51563,0.07 z"
         id="path10408"
         inkscape:connector-curvature="0" />
      <path
         d="m 445.23047,1046.4684 q 0,0.7734 -0.27344,1.4375 -0.26562,0.6562 -0.75,1.1406 -0.60156,0.6016 -1.42187,0.9063 -0.82032,0.2968 -2.07032,0.2968 h -1.54687 v 4.336 h -1.54688 v -11.6328 h 3.15625 q 1.04688,0 1.77344,0.1796 0.72656,0.1719 1.28906,0.5469 0.66407,0.4453 1.02344,1.1094 0.36719,0.6641 0.36719,1.6797 z m -1.60938,0.039 q 0,-0.6015 -0.21093,-1.0468 -0.21094,-0.4453 -0.64063,-0.7266 -0.375,-0.2422 -0.85937,-0.3437 -0.47657,-0.1094 -1.21094,-0.1094 h -1.53125 v 4.6484 h 1.30469 q 0.9375,0 1.52343,-0.164 0.58594,-0.1719 0.95313,-0.5391 0.36719,-0.375 0.51562,-0.7891 0.15625,-0.414 0.15625,-0.9297 z"
         id="path10410"
         inkscape:connector-curvature="0" />
      <path
         d="m 448.64453,1054.5856 h -1.46875 v -12.1563 h 1.46875 z"
         id="path10412"
         inkscape:connector-curvature="0" />
      <path
         d="m 458.28516,1054.5856 h -1.46094 v -0.9297 q -0.19531,0.1328 -0.53125,0.375 -0.32813,0.2344 -0.64063,0.375 -0.36718,0.1797 -0.84375,0.2969 -0.47656,0.125 -1.11718,0.125 -1.17969,0 -2,-0.7813 -0.82032,-0.7812 -0.82032,-1.9922 0,-0.9922 0.42188,-1.6015 0.42969,-0.6172 1.21875,-0.9688 0.79687,-0.3516 1.91406,-0.4766 1.11719,-0.125 2.39844,-0.1875 v -0.2265 q 0,-0.5 -0.17969,-0.8281 -0.17187,-0.3282 -0.5,-0.5157 -0.3125,-0.1797 -0.75,-0.2422 -0.4375,-0.062 -0.91406,-0.062 -0.57813,0 -1.28906,0.1563 -0.71094,0.1484 -1.46875,0.4375 h -0.0781 v -1.4922 q 0.42969,-0.1172 1.24219,-0.2578 0.8125,-0.1406 1.60156,-0.1406 0.92188,0 1.60156,0.1562 0.6875,0.1485 1.1875,0.5156 0.49219,0.3594 0.75,0.9297 0.25782,0.5703 0.25782,1.4141 z m -1.46094,-2.1485 v -2.4297 q -0.67188,0.039 -1.58594,0.1172 -0.90625,0.078 -1.4375,0.2266 -0.63281,0.1797 -1.02344,0.5625 -0.39062,0.375 -0.39062,1.0391 0,0.75 0.45312,1.1328 0.45313,0.375 1.38282,0.375 0.77343,0 1.41406,-0.2969 0.64062,-0.3047 1.1875,-0.7266 z"
         id="path10414"
         inkscape:connector-curvature="0" />
      <path
         d="m 465.66016,1054.5074 q -0.41407,0.1094 -0.90625,0.1797 -0.48438,0.07 -0.86719,0.07 -1.33594,0 -2.03125,-0.7187 -0.69531,-0.7188 -0.69531,-2.3047 v -4.6406 h -0.99219 v -1.2344 h 0.99219 v -2.5078 h 1.46875 v 2.5078 h 3.03125 v 1.2344 h -3.03125 v 3.9765 q 0,0.6875 0.0312,1.0782 0.0312,0.3828 0.21875,0.7187 0.17187,0.3125 0.46875,0.461 0.30468,0.1406 0.92187,0.1406 0.35938,0 0.75,-0.1016 0.39063,-0.1094 0.5625,-0.1797 h 0.0781 z"
         id="path10416"
         inkscape:connector-curvature="0" />
      <path
         d="m 474.74609,1050.3746 h -6.42968 q 0,0.8047 0.24218,1.4063 0.24219,0.5937 0.66407,0.9765 0.40625,0.375 0.96093,0.5625 0.5625,0.1875 1.23438,0.1875 0.89062,0 1.78906,-0.3515 0.90625,-0.3594 1.28906,-0.7031 h 0.0781 v 1.6015 q -0.74219,0.3125 -1.51563,0.5235 -0.77343,0.2109 -1.625,0.2109 -2.17187,0 -3.39062,-1.1719 -1.21875,-1.1797 -1.21875,-3.3437 0,-2.1407 1.16406,-3.3985 1.17188,-1.2578 3.07813,-1.2578 1.76562,0 2.71875,1.0313 0.96093,1.0312 0.96093,2.9297 z m -1.42968,-1.125 q -0.008,-1.1562 -0.58594,-1.789 -0.57031,-0.6328 -1.74219,-0.6328 -1.17969,0 -1.88281,0.6953 -0.69531,0.6953 -0.78906,1.7265 z"
         id="path10418"
         inkscape:connector-curvature="0" />
      <path
         d="m 490.14453,1045.859 -3.53125,8.7266 h -1.47656 l -3.50781,-8.7266 h 1.59375 l 2.70312,6.9453 2.67969,-6.9453 z"
         id="path10420"
         inkscape:connector-curvature="0" />
      <path
         d="m 499.08984,1054.5856 h -6.29687 v -1.1875 h 2.42187 v -7.7969 h -2.42187 v -1.0625 q 0.49219,0 1.05469,-0.078 0.5625,-0.086 0.85156,-0.2422 0.35937,-0.1953 0.5625,-0.4922 0.21094,-0.3047 0.24219,-0.8125 h 1.21093 v 10.4844 h 2.375 z"
         id="path10422"
         inkscape:connector-curvature="0" />
      <path
         d="m 504.65234,1054.5856 h -1.86718 v -2.2266 h 1.86718 z"
         id="path10424"
         inkscape:connector-curvature="0" />
      <path
         d="m 515.73828,1048.7653 q 0,3.1328 -0.98437,4.6015 -0.97657,1.461 -3.03907,1.461 -2.09375,0 -3.0625,-1.4844 -0.96093,-1.4844 -0.96093,-4.5625 0,-3.1016 0.97656,-4.5781 0.97656,-1.4844 3.04687,-1.4844 2.09375,0 3.05469,1.5078 0.96875,1.5 0.96875,4.5391 z m -2.05469,3.5468 q 0.27344,-0.6328 0.36719,-1.4843 0.10156,-0.8594 0.10156,-2.0625 0,-1.1875 -0.10156,-2.0625 -0.0937,-0.875 -0.375,-1.4844 -0.27344,-0.6016 -0.75,-0.9063 -0.46875,-0.3047 -1.21094,-0.3047 -0.73437,0 -1.21875,0.3047 -0.47656,0.3047 -0.75781,0.9219 -0.26562,0.5781 -0.36719,1.5078 -0.0937,0.9297 -0.0937,2.0391 0,1.2187 0.0859,2.039 0.0859,0.8204 0.36719,1.4688 0.25781,0.6094 0.72656,0.9297 0.47656,0.3203 1.25781,0.3203 0.73438,0 1.21875,-0.3047 0.48438,-0.3047 0.75,-0.9219 z"
         id="path10426"
         inkscape:connector-curvature="0" />
      <path
         d="m 528.50391,1050.2028 h -4.875 v -1.4141 h 4.875 z"
         id="path10428"
         inkscape:connector-curvature="0" />
      <path
         d="m 545.67578,1051.0074 q 0,0.8672 -0.32812,1.5313 -0.32813,0.6641 -0.88282,1.0937 -0.65625,0.5157 -1.44531,0.7344 -0.78125,0.2188 -1.99219,0.2188 h -4.125 v -11.6328 h 3.44532 q 1.27343,0 1.90625,0.094 0.63281,0.094 1.21093,0.3906 0.64063,0.336 0.92969,0.8672 0.28906,0.5235 0.28906,1.2578 0,0.8282 -0.42187,1.4141 -0.42188,0.5781 -1.125,0.9297 v 0.062 q 1.17969,0.2422 1.85937,1.039 0.67969,0.7891 0.67969,2 z m -2.60156,-5.2421 q 0,-0.4219 -0.14063,-0.711 -0.14062,-0.289 -0.45312,-0.4687 -0.36719,-0.211 -0.89063,-0.2578 -0.52343,-0.055 -1.29687,-0.055 h -1.84375 v 3.3593 h 2 q 0.72656,0 1.15625,-0.07 0.42969,-0.078 0.79687,-0.3125 0.36719,-0.2343 0.51563,-0.6015 0.15625,-0.375 0.15625,-0.8828 z m 0.99219,5.3046 q 0,-0.7031 -0.21094,-1.1171 -0.21094,-0.4141 -0.76563,-0.7032 -0.375,-0.1953 -0.91406,-0.25 -0.53125,-0.062 -1.29687,-0.062 h -2.42969 v 4.3282 h 2.04687 q 1.01563,0 1.66407,-0.1016 0.64843,-0.1094 1.0625,-0.3906 0.4375,-0.3047 0.64062,-0.6953 0.20313,-0.3907 0.20313,-1.0079 z"
         id="path10430"
         inkscape:connector-curvature="0" />
      <path
         d="m 555.19141,1050.2262 q 0,2.1328 -1.09375,3.3672 -1.09375,1.2344 -2.92969,1.2344 -1.85156,0 -2.94531,-1.2344 -1.08594,-1.2344 -1.08594,-3.3672 0,-2.1328 1.08594,-3.3672 1.09375,-1.2422 2.94531,-1.2422 1.83594,0 2.92969,1.2422 1.09375,1.2344 1.09375,3.3672 z m -1.51563,0 q 0,-1.6953 -0.66406,-2.5156 -0.66406,-0.8282 -1.84375,-0.8282 -1.19531,0 -1.85938,0.8282 -0.65625,0.8203 -0.65625,2.5156 0,1.6406 0.66407,2.4922 0.66406,0.8437 1.85156,0.8437 1.17187,0 1.83594,-0.8359 0.67187,-0.8438 0.67187,-2.5 z"
         id="path10432"
         inkscape:connector-curvature="0" />
      <path
         d="m 562.00391,1054.5074 q -0.41407,0.1094 -0.90625,0.1797 -0.48438,0.07 -0.86719,0.07 -1.33594,0 -2.03125,-0.7187 -0.69531,-0.7188 -0.69531,-2.3047 v -4.6406 h -0.99219 v -1.2344 h 0.99219 v -2.5078 h 1.46875 v 2.5078 h 3.03125 v 1.2344 h -3.03125 v 3.9765 q 0,0.6875 0.0312,1.0782 0.0312,0.3828 0.21875,0.7187 0.17187,0.3125 0.46875,0.461 0.30468,0.1406 0.92187,0.1406 0.35938,0 0.75,-0.1016 0.39063,-0.1094 0.5625,-0.1797 h 0.0781 z"
         id="path10434"
         inkscape:connector-curvature="0" />
      <path
         d="m 568.31641,1054.5074 q -0.41407,0.1094 -0.90625,0.1797 -0.48438,0.07 -0.86719,0.07 -1.33594,0 -2.03125,-0.7187 -0.69531,-0.7188 -0.69531,-2.3047 v -4.6406 h -0.99219 v -1.2344 h 0.99219 v -2.5078 h 1.46875 v 2.5078 h 3.03125 v 1.2344 h -3.03125 v 3.9765 q 0,0.6875 0.0312,1.0782 0.0312,0.3828 0.21875,0.7187 0.17187,0.3125 0.46875,0.461 0.30468,0.1406 0.92187,0.1406 0.35938,0 0.75,-0.1016 0.39063,-0.1094 0.5625,-0.1797 h 0.0781 z"
         id="path10436"
         inkscape:connector-curvature="0" />
      <path
         d="m 577.53516,1050.2262 q 0,2.1328 -1.09375,3.3672 -1.09375,1.2344 -2.92969,1.2344 -1.85156,0 -2.94531,-1.2344 -1.08594,-1.2344 -1.08594,-3.3672 0,-2.1328 1.08594,-3.3672 1.09375,-1.2422 2.94531,-1.2422 1.83594,0 2.92969,1.2422 1.09375,1.2344 1.09375,3.3672 z m -1.51563,0 q 0,-1.6953 -0.66406,-2.5156 -0.66406,-0.8282 -1.84375,-0.8282 -1.19531,0 -1.85938,0.8282 -0.65625,0.8203 -0.65625,2.5156 0,1.6406 0.66407,2.4922 0.66406,0.8437 1.85156,0.8437 1.17187,0 1.83594,-0.8359 0.67187,-0.8438 0.67187,-2.5 z"
         id="path10438"
         inkscape:connector-curvature="0" />
      <path
         d="m 592.55078,1054.5856 h -1.46875 v -4.9688 q 0,-0.5625 -0.0547,-1.0859 -0.0469,-0.5235 -0.21093,-0.836 -0.17969,-0.3359 -0.51563,-0.5078 -0.33594,-0.1718 -0.96875,-0.1718 -0.61719,0 -1.23437,0.3125 -0.61719,0.3046 -1.23438,0.7812 0.0234,0.1797 0.0391,0.4219 0.0156,0.2344 0.0156,0.4687 v 5.586 h -1.46875 v -4.9688 q 0,-0.5781 -0.0547,-1.0937 -0.0469,-0.5235 -0.21094,-0.836 -0.17968,-0.3359 -0.51562,-0.5 -0.33594,-0.1718 -0.96875,-0.1718 -0.60156,0 -1.21094,0.2968 -0.60156,0.2969 -1.20312,0.7578 v 6.5157 h -1.46875 v -8.7266 h 1.46875 v 0.9688 q 0.6875,-0.5704 1.36718,-0.8907 0.6875,-0.3203 1.46094,-0.3203 0.89063,0 1.50781,0.375 0.625,0.375 0.92969,1.0391 0.89063,-0.75 1.625,-1.0781 0.73438,-0.336 1.57031,-0.336 1.4375,0 2.11719,0.875 0.6875,0.8672 0.6875,2.4297 z"
         id="path10440"
         inkscape:connector-curvature="0" />
      <path
         d="m 608.73047,1046.4684 q 0,0.7734 -0.27344,1.4375 -0.26562,0.6562 -0.75,1.1406 -0.60156,0.6016 -1.42187,0.9063 -0.82032,0.2968 -2.07032,0.2968 h -1.54687 v 4.336 h -1.54688 v -11.6328 h 3.15625 q 1.04688,0 1.77344,0.1796 0.72656,0.1719 1.28906,0.5469 0.66407,0.4453 1.02344,1.1094 0.36719,0.6641 0.36719,1.6797 z m -1.60938,0.039 q 0,-0.6015 -0.21093,-1.0468 -0.21094,-0.4453 -0.64063,-0.7266 -0.375,-0.2422 -0.85937,-0.3437 -0.47657,-0.1094 -1.21094,-0.1094 h -1.53125 v 4.6484 h 1.30469 q 0.9375,0 1.52343,-0.164 0.58594,-0.1719 0.95313,-0.5391 0.36719,-0.375 0.51562,-0.7891 0.15625,-0.414 0.15625,-0.9297 z"
         id="path10442"
         inkscape:connector-curvature="0" />
      <path
         d="m 612.14453,1054.5856 h -1.46875 v -12.1563 h 1.46875 z"
         id="path10444"
         inkscape:connector-curvature="0" />
      <path
         d="m 621.78516,1054.5856 h -1.46094 v -0.9297 q -0.19531,0.1328 -0.53125,0.375 -0.32813,0.2344 -0.64063,0.375 -0.36718,0.1797 -0.84375,0.2969 -0.47656,0.125 -1.11718,0.125 -1.17969,0 -2,-0.7813 -0.82032,-0.7812 -0.82032,-1.9922 0,-0.9922 0.42188,-1.6015 0.42969,-0.6172 1.21875,-0.9688 0.79687,-0.3516 1.91406,-0.4766 1.11719,-0.125 2.39844,-0.1875 v -0.2265 q 0,-0.5 -0.17969,-0.8281 -0.17187,-0.3282 -0.5,-0.5157 -0.3125,-0.1797 -0.75,-0.2422 -0.4375,-0.062 -0.91406,-0.062 -0.57813,0 -1.28906,0.1563 -0.71094,0.1484 -1.46875,0.4375 h -0.0781 v -1.4922 q 0.42969,-0.1172 1.24219,-0.2578 0.8125,-0.1406 1.60156,-0.1406 0.92188,0 1.60156,0.1562 0.6875,0.1485 1.1875,0.5156 0.49219,0.3594 0.75,0.9297 0.25782,0.5703 0.25782,1.4141 z m -1.46094,-2.1485 v -2.4297 q -0.67188,0.039 -1.58594,0.1172 -0.90625,0.078 -1.4375,0.2266 -0.63281,0.1797 -1.02344,0.5625 -0.39062,0.375 -0.39062,1.0391 0,0.75 0.45312,1.1328 0.45313,0.375 1.38282,0.375 0.77343,0 1.41406,-0.2969 0.64062,-0.3047 1.1875,-0.7266 z"
         id="path10446"
         inkscape:connector-curvature="0" />
      <path
         d="m 629.16016,1054.5074 q -0.41407,0.1094 -0.90625,0.1797 -0.48438,0.07 -0.86719,0.07 -1.33594,0 -2.03125,-0.7187 -0.69531,-0.7188 -0.69531,-2.3047 v -4.6406 h -0.99219 v -1.2344 h 0.99219 v -2.5078 h 1.46875 v 2.5078 h 3.03125 v 1.2344 h -3.03125 v 3.9765 q 0,0.6875 0.0312,1.0782 0.0312,0.3828 0.21875,0.7187 0.17187,0.3125 0.46875,0.461 0.30468,0.1406 0.92187,0.1406 0.35938,0 0.75,-0.1016 0.39063,-0.1094 0.5625,-0.1797 h 0.0781 z"
         id="path10448"
         inkscape:connector-curvature="0" />
      <path
         d="m 638.24609,1050.3746 h -6.42968 q 0,0.8047 0.24218,1.4063 0.24219,0.5937 0.66407,0.9765 0.40625,0.375 0.96093,0.5625 0.5625,0.1875 1.23438,0.1875 0.89062,0 1.78906,-0.3515 0.90625,-0.3594 1.28906,-0.7031 h 0.0781 v 1.6015 q -0.74219,0.3125 -1.51563,0.5235 -0.77343,0.2109 -1.625,0.2109 -2.17187,0 -3.39062,-1.1719 -1.21875,-1.1797 -1.21875,-3.3437 0,-2.1407 1.16406,-3.3985 1.17188,-1.2578 3.07813,-1.2578 1.76562,0 2.71875,1.0313 0.96093,1.0312 0.96093,2.9297 z m -1.42968,-1.125 q -0.008,-1.1562 -0.58594,-1.789 -0.57031,-0.6328 -1.74219,-0.6328 -1.17969,0 -1.88281,0.6953 -0.69531,0.6953 -0.78906,1.7265 z"
         id="path10450"
         inkscape:connector-curvature="0" />
    </g>
    <g
       aria-label="Top Plate"
       transform="matrix(0.26458333,0,0,0.26458333,121.09948,8.4031152)"
       style="font-style:normal;font-weight:normal;font-size:16px;line-height:1.25;font-family:sans-serif;letter-spacing:0px;word-spacing:0px;fill:#ff0000;fill-opacity:1;stroke:none"
       id="flowRoot10351">
      <path
         d="m 400.85352,521.87854 h -4.15625 v 10.25781 h -1.54688 v -10.25781 h -4.15625 v -1.375 h 9.85938 z"
         id="path10359"
         inkscape:connector-curvature="0" />
      <path
         d="m 408.0332,527.77697 q 0,2.13282 -1.09375,3.36719 -1.09375,1.23438 -2.92968,1.23438 -1.85157,0 -2.94532,-1.23438 -1.08593,-1.23437 -1.08593,-3.36719 0,-2.13281 1.08593,-3.36718 1.09375,-1.24219 2.94532,-1.24219 1.83593,0 2.92968,1.24219 1.09375,1.23437 1.09375,3.36718 z m -1.51562,0 q 0,-1.69531 -0.66406,-2.51562 -0.66407,-0.82813 -1.84375,-0.82813 -1.19532,0 -1.85938,0.82813 -0.65625,0.82031 -0.65625,2.51562 0,1.64063 0.66406,2.49219 0.66407,0.84375 1.85157,0.84375 1.17187,0 1.83593,-0.83594 0.67188,-0.84375 0.67188,-2.5 z"
         id="path10361"
         inkscape:connector-curvature="0" />
      <path
         d="m 417.99414,527.6676 q 0,1.0625 -0.30469,1.94531 -0.30468,0.875 -0.85937,1.48438 -0.51563,0.57812 -1.21875,0.89843 -0.69531,0.3125 -1.47656,0.3125 -0.67969,0 -1.23438,-0.14843 -0.54687,-0.14844 -1.11719,-0.46094 v 3.65625 h -1.46875 v -11.94531 h 1.46875 v 0.91406 q 0.58594,-0.49219 1.3125,-0.82031 0.73438,-0.33594 1.5625,-0.33594 1.57813,0 2.45313,1.19531 0.88281,1.1875 0.88281,3.30469 z m -1.51562,0.0391 q 0,-1.57812 -0.53907,-2.35937 -0.53906,-0.78125 -1.65625,-0.78125 -0.63281,0 -1.27343,0.27343 -0.64063,0.27344 -1.22657,0.71875 v 4.94532 q 0.625,0.28125 1.07032,0.38281 0.45312,0.10156 1.02343,0.10156 1.22657,0 1.91407,-0.82812 0.6875,-0.82813 0.6875,-2.45313 z"
         id="path10363"
         inkscape:connector-curvature="0" />
      <path
         d="m 433.63477,524.01916 q 0,0.77344 -0.27344,1.4375 -0.26563,0.65625 -0.75,1.14063 -0.60156,0.60156 -1.42188,0.90625 -0.82031,0.29687 -2.07031,0.29687 h -1.54687 v 4.33594 h -1.54688 v -11.63281 h 3.15625 q 1.04688,0 1.77344,0.17968 0.72656,0.17188 1.28906,0.54688 0.66406,0.44531 1.02344,1.10937 0.36719,0.66407 0.36719,1.67969 z m -1.60938,0.0391 q 0,-0.60156 -0.21094,-1.04687 -0.21093,-0.44531 -0.64062,-0.72656 -0.375,-0.24219 -0.85938,-0.34375 -0.47656,-0.10938 -1.21093,-0.10938 h -1.53125 v 4.64844 h 1.30468 q 0.9375,0 1.52344,-0.16406 0.58594,-0.17188 0.95313,-0.53907 0.36718,-0.375 0.51562,-0.78906 0.15625,-0.41406 0.15625,-0.92969 z"
         id="path10365"
         inkscape:connector-curvature="0" />
      <path
         d="m 437.04883,532.13635 h -1.46875 V 519.9801 h 1.46875 z"
         id="path10367"
         inkscape:connector-curvature="0" />
      <path
         d="m 446.68945,532.13635 h -1.46093 v -0.92969 q -0.19532,0.13281 -0.53125,0.375 -0.32813,0.23438 -0.64063,0.375 -0.36719,0.17969 -0.84375,0.29688 -0.47656,0.125 -1.11719,0.125 -1.17968,0 -2,-0.78125 -0.82031,-0.78125 -0.82031,-1.99219 0,-0.99219 0.42188,-1.60156 0.42968,-0.61719 1.21875,-0.96875 0.79687,-0.35157 1.91406,-0.47657 1.11719,-0.125 2.39844,-0.1875 v -0.22656 q 0,-0.5 -0.17969,-0.82812 -0.17188,-0.32813 -0.5,-0.51563 -0.3125,-0.17969 -0.75,-0.24219 -0.4375,-0.0625 -0.91406,-0.0625 -0.57813,0 -1.28907,0.15625 -0.71093,0.14844 -1.46875,0.4375 h -0.0781 v -1.49218 q 0.42969,-0.11719 1.24219,-0.25782 0.8125,-0.14062 1.60156,-0.14062 0.92187,0 1.60156,0.15625 0.6875,0.14844 1.1875,0.51562 0.49219,0.35938 0.75,0.92969 0.25781,0.57031 0.25781,1.41406 z m -1.46093,-2.14844 v -2.42969 q -0.67188,0.0391 -1.58594,0.11719 -0.90625,0.0781 -1.4375,0.22656 -0.63281,0.17969 -1.02344,0.5625 -0.39062,0.375 -0.39062,1.03907 0,0.75 0.45312,1.13281 0.45313,0.375 1.38281,0.375 0.77344,0 1.41407,-0.29688 0.64062,-0.30468 1.1875,-0.72656 z"
         id="path10369"
         inkscape:connector-curvature="0" />
      <path
         d="m 454.06445,532.05822 q -0.41406,0.10938 -0.90625,0.17969 -0.48437,0.0703 -0.86718,0.0703 -1.33594,0 -2.03125,-0.71875 -0.69532,-0.71875 -0.69532,-2.30468 v -4.64063 h -0.99218 v -1.23437 h 0.99218 v -2.50782 h 1.46875 v 2.50782 h 3.03125 v 1.23437 h -3.03125 v 3.97656 q 0,0.6875 0.0312,1.07813 0.0312,0.38281 0.21875,0.71875 0.17188,0.3125 0.46875,0.46094 0.30469,0.14062 0.92188,0.14062 0.35937,0 0.75,-0.10156 0.39062,-0.10938 0.5625,-0.17969 h 0.0781 z"
         id="path10371"
         inkscape:connector-curvature="0" />
      <path
         d="m 463.15039,527.92541 h -6.42969 q 0,0.80469 0.24219,1.40625 0.24219,0.59375 0.66406,0.97656 0.40625,0.375 0.96094,0.5625 0.5625,0.1875 1.23438,0.1875 0.89062,0 1.78906,-0.35156 0.90625,-0.35937 1.28906,-0.70312 h 0.0781 v 1.60156 q -0.74219,0.3125 -1.51563,0.52344 -0.77344,0.21093 -1.625,0.21093 -2.17187,0 -3.39062,-1.17187 -1.21875,-1.17969 -1.21875,-3.34375 0,-2.14063 1.16406,-3.39844 1.17187,-1.25781 3.07812,-1.25781 1.76563,0 2.71875,1.03125 0.96094,1.03125 0.96094,2.92969 z m -1.42969,-1.125 q -0.008,-1.15625 -0.58593,-1.78906 -0.57032,-0.63281 -1.74219,-0.63281 -1.17969,0 -1.88281,0.69531 -0.69532,0.69531 -0.78907,1.72656 z"
         id="path10373"
         inkscape:connector-curvature="0" />
    </g>
    <g
       id="g4685"
       inkscape:label="0"
       transform="matrix(-0.26458333,0,0,0.26458333,0.51679245,-0.49964693)">
      <path
         id="path4667"
         style="fill:none;stroke:#000000"
         d="M -18.897638,574.48819 A 18.897638,18.897638 0 0 1 0,593.38583 V 1103.622 a 18.897638,18.897638 0 0 1 -18.897638,18.8977 H -1028.0315 a 18.897638,18.897638 0 0 1 -18.8976,-18.8977 V 593.38583 a 18.897638,18.897638 0 0 1 18.8976,-18.89764 z"
         inkscape:connector-curvature="0" />
      <path
         id="path4669"
         style="fill:none;stroke:#000000"
         d="m -86.740157,600.94488 a 7.7480315,7.7480315 0 1 0 -15.496063,0 7.7480315,7.7480315 0 1 0 15.496063,0 z"
         inkscape:connector-curvature="0" />
      <path
         id="path4671"
         style="fill:none;stroke:#000000"
         d="m -86.740157,1096.063 a 7.7480315,7.7480315 0 1 0 -15.496063,0 7.7480315,7.7480315 0 1 0 15.496063,0 z"
         inkscape:connector-curvature="0" />
      <path
         id="path4673"
         style="fill:none;stroke:#000000"
         d="m -944.69291,600.94488 a 7.748035,7.748035 0 1 0 -15.49607,0 7.748035,7.748035 0 1 0 15.49607,0 z"
         inkscape:connector-curvature="0" />
      <path
         id="path4675"
         style="fill:none;stroke:#000000"
         d="m -944.69291,1096.063 a 7.748035,7.748035 0 1 0 -15.49607,0 7.748035,7.748035 0 1 0 15.49607,0 z"
         inkscape:connector-curvature="0" />
      <path
         id="path4677"
         style="fill:none;stroke:#000000"
         d="m -1014.0472,600.94488 a 6.4252,6.4252 0 1 0 -12.8504,0 6.4252,6.4252 0 1 0 12.8504,0 z"
         inkscape:connector-curvature="0" />
      <path
         id="path4679"
         style="fill:none;stroke:#000000"
         d="m -1014.0472,1096.063 a 6.4252,6.4252 0 1 0 -12.8504,0 6.4252,6.4252 0 1 0 12.8504,0 z"
         inkscape:connector-curvature="0" />
      <path
         id="path4681"
         style="fill:none;stroke:#000000"
         d="m -20.031496,1096.063 a 6.425197,6.425197 0 1 0 -12.850394,0 6.425197,6.425197 0 1 0 12.850394,0 z"
         inkscape:connector-curvature="0" />
      <path
         id="path4683"
         style="fill:none;stroke:#000000"
         d="m -20.031496,600.94488 a 6.425197,6.425197 0 1 0 -12.850394,0 6.425197,6.425197 0 1 0 12.850394,0 z"
         inkscape:connector-curvature="0" />
    </g>
    <g
       id="g4767"
       inkscape:label="0"
       transform="matrix(-0.26458333,0,0,0.26458333,0.45689144,-145.51011)">
      <path
         id="path4757"
         style="fill:none;stroke:#000000"
         d="M -18.897638,1122.5197 C -8.4607365,1122.5197 3.4241734e-5,1114.0589 0,1103.622 V 593.38583 c 1.1045695e-6,-10.43688 -8.4607599,-18.89764 -18.897638,-18.89764 h -67.842519 v 26.45669 c 0,4.27912 -3.468912,7.74803 -7.748032,7.74803 -4.279119,0 -7.748031,-3.46891 -7.748031,-7.74803 v -26.45669 h -842.45669 v 26.45669 c -4.2e-4,4.28963 -3.48608,7.76253 -7.77568,7.74722 -4.2896,-0.0153 -7.75039,-3.513 -7.72019,-7.80252 v -26.40141 h -67.84272 c -10.4369,2e-5 -18.8976,8.46078 -18.8976,18.89764 v 75.59055 h 94.48815 v 359.05514 h -94.48815 v 75.5905 c 0,10.4369 8.4607,18.8977 18.8976,18.8977 m 67.84252,0 v -26.4567 c 0,-4.2791 3.46891,-7.748 7.74803,-7.748 4.27913,0 7.74804,3.4689 7.74804,7.748 v 26.4567 m 842.45669,0 v -26.4567 c 0,-4.2791 3.468912,-7.748 7.748031,-7.748 4.27912,0 7.748032,3.4689 7.748032,7.748 v 26.4567"
         inkscape:connector-curvature="0"
         sodipodi:nodetypes="ccsscssscccscccscccccccsssccsssc" />
      <path
         id="path4759"
         style="fill:none;stroke:#000000"
         d="m -1014.0472,600.94488 a 6.4252,6.4252 0 1 0 -12.8504,0 6.4252,6.4252 0 1 0 12.8504,0 z"
         inkscape:connector-curvature="0" />
      <path
         id="path4761"
         style="fill:none;stroke:#000000"
         d="m -1014.0472,1096.063 a 6.4252,6.4252 0 1 0 -12.8504,0 6.4252,6.4252 0 1 0 12.8504,0 z"
         inkscape:connector-curvature="0" />
      <path
         id="path4763"
         style="fill:none;stroke:#000000"
         d="m -20.031496,1096.063 a 6.425197,6.425197 0 1 0 -12.850394,0 6.425197,6.425197 0 1 0 12.850394,0 z"
         inkscape:connector-curvature="0" />
      <path
         id="path4765"
         style="fill:none;stroke:#000000"
         d="m -20.031496,600.94488 a 6.425197,6.425197 0 1 0 -12.850394,0 6.425197,6.425197 0 1 0 12.850394,0 z"
         inkscape:connector-curvature="0" />
    </g>
  </g>
</svg>
