<?xml version="1.0" encoding="UTF-8" standalone="no"?>
<!-- Created with Inkscape (http://www.inkscape.org/) -->

<svg
   xmlns:dc="http://purl.org/dc/elements/1.1/"
   xmlns:cc="http://creativecommons.org/ns#"
   xmlns:rdf="http://www.w3.org/1999/02/22-rdf-syntax-ns#"
   xmlns:svg="http://www.w3.org/2000/svg"
   xmlns="http://www.w3.org/2000/svg"
   xmlns:sodipodi="http://sodipodi.sourceforge.net/DTD/sodipodi-0.dtd"
   xmlns:inkscape="http://www.inkscape.org/namespaces/inkscape"
   width="353mm"
   height="252mm"
   viewBox="0 0 353 252"
   version="1.1"
   id="svg8"
   inkscape:version="0.92.4 (5da689c313, 2019-01-14)"
   sodipodi:docname="primex-p1500_v1.svg">
  <defs
     id="defs2">
    <marker
       style="overflow:visible"
       refY="0"
       refX="0"
       orient="auto"
       id="DistanceX">
      <path
         id="path817"
         style="stroke:#000000;stroke-width:0.5"
         d="M 3,-3 -3,3 M 0,-5 V 5"
         inkscape:connector-curvature="0" />
    </marker>
    <pattern
       y="0"
       x="0"
       width="8"
       patternUnits="userSpaceOnUse"
       id="Hatch"
       height="8">
      <path
         id="path820"
         stroke-width="0.25"
         stroke="#000000"
         linecap="square"
         d="M8 4 l-4,4" />
      <path
         id="path822"
         stroke-width="0.25"
         stroke="#000000"
         linecap="square"
         d="M6 2 l-4,4" />
      <path
         id="path824"
         stroke-width="0.25"
         stroke="#000000"
         linecap="square"
         d="M4 0 l-4,4" />
    </pattern>
    <symbol
       id="*MODEL_SPACE" />
    <symbol
       id="*PAPER_SPACE" />
    <marker
       style="overflow:visible"
       refY="0"
       refX="0"
       orient="auto"
       id="DistanceX-5">
      <path
         id="path843"
         style="stroke:#000000;stroke-width:0.5"
         d="M 3,-3 -3,3 M 0,-5 V 5"
         inkscape:connector-curvature="0" />
    </marker>
    <pattern
       y="0"
       x="0"
       width="8"
       patternUnits="userSpaceOnUse"
       id="Hatch-8"
       height="8">
      <path
         id="path846"
         stroke-width="0.25"
         stroke="#000000"
         linecap="square"
         d="M8 4 l-4,4" />
      <path
         id="path848"
         stroke-width="0.25"
         stroke="#000000"
         linecap="square"
         d="M6 2 l-4,4" />
      <path
         id="path850"
         stroke-width="0.25"
         stroke="#000000"
         linecap="square"
         d="M4 0 l-4,4" />
    </pattern>
    <symbol
       id="*MODEL_SPACE-7" />
    <symbol
       id="*PAPER_SPACE-5" />
  </defs>
  <sodipodi:namedview
     id="base"
     pagecolor="#ffffff"
     bordercolor="#666666"
     borderopacity="1.0"
     inkscape:pageopacity="0.0"
     inkscape:pageshadow="2"
     inkscape:zoom="0.41956844"
     inkscape:cx="479.04313"
     inkscape:cy="786.30403"
     inkscape:document-units="mm"
     inkscape:current-layer="layer1"
     showgrid="false"
     inkscape:window-width="2048"
     inkscape:window-height="1089"
     inkscape:window-x="-8"
     inkscape:window-y="-8"
     inkscape:window-maximized="1" />
  <metadata
     id="metadata5">
    <rdf:RDF>
      <cc:Work
         rdf:about="">
        <dc:format>image/svg+xml</dc:format>
        <dc:type
           rdf:resource="http://purl.org/dc/dcmitype/StillImage" />
        <dc:title></dc:title>
      </cc:Work>
    </rdf:RDF>
  </metadata>
  <g
     inkscape:label="Layer 1"
     inkscape:groupmode="layer"
     id="layer1"
     transform="translate(0,-45)">
    <g
       id="g867"
       inkscape:label="0"
       transform="matrix(0,-0.26458333,0.26458333,0,54.662586,46.503897)">
      <path
         id="path857"
         style="fill:none;stroke:#000000"
         d="m -749.48032,1035.5906 a 9.448819,9.448819 0 1 0 -18.89763,0 9.448819,9.448819 0 1 0 18.89763,0 z"
         inkscape:connector-curvature="0" />
      <path
         id="path859"
         style="fill:none;stroke:#000000"
         d="m -174.99213,1035.5906 a 9.448819,9.448819 0 1 0 -18.89763,0 9.448819,9.448819 0 1 0 18.89763,0 z"
         inkscape:connector-curvature="0" />
      <path
         id="path861"
         style="fill:none;stroke:#000000"
         d="m -174.99213,-108.85039 a 9.448819,9.448819 0 1 0 -18.89763,0 9.448819,9.448819 0 1 0 18.89763,0 z"
         inkscape:connector-curvature="0" />
      <path
         id="path863"
         style="fill:none;stroke:#000000"
         d="m -749.48032,-108.85039 a 9.448819,9.448819 0 1 0 -18.89763,0 9.448819,9.448819 0 1 0 18.89763,0 z"
         inkscape:connector-curvature="0" />
      <path
         id="path865"
         style="fill:none;stroke:#000000"
         d="m 0,1084.7244 a 37.795276,37.795276 0 0 1 -37.795276,37.7953 H -907.08661 a 37.795276,37.795276 0 0 1 -37.79528,-37.7953 V -162.51968 a 37.795276,37.795276 0 0 1 37.79528,-37.79528 H -37.795276 A 37.795276,37.795276 0 0 1 0,-162.51968 Z"
         inkscape:connector-curvature="0" />
    </g>
  </g>
</svg>
